<?xml version="1.0" standalone="no"?>
<!DOCTYPE svg PUBLIC "-//W3C//DTD SVG 1.1//EN" "http://www.w3.org/Graphics/SVG/1.1/DTD/svg11.dtd" >
<svg>
<metadata>
Created by FontForge 20090622 at Wed Aug 29 16:20:57 2018
 By deploy user
Copyright &#194;&#169; 2015 Schick Toikka. All rights reserved. Dia is a trademark of Schick Toikka. Unauthorised copying or modification of any of its data is illegal.
</metadata>
<defs>
<font id="Dia-Black" horiz-adv-x="700" >
  <font-face 
    font-family="Dia Black"
    font-weight="900"
    font-stretch="expanded"
    units-per-em="1000"
    panose-1="2 11 10 5 6 1 1 1 1 1"
    ascent="800"
    descent="-200"
    x-height="476"
    cap-height="627"
    bbox="-200 -304 2471 945"
    underline-thickness="29"
    underline-position="-52"
    unicode-range="U+0020-U+FB02"
  />
<missing-glyph horiz-adv-x="710" 
d="M615 -200h-520v1000h520v-1000zM372 301l212 -433v868zM355 265l-212 -435h424zM567 770h-424l212 -434zM338 301l-212 435v-868z" />
    <glyph glyph-name="fi" unicode="fi" horiz-adv-x="843" 
d="M304 0h-173v351h-101v111h104q-16 30 -16 78q0 67 57 104.5t149 37.5q50 0 98 -15.5t71 -34.5l-46 -96q-37 25 -90 25q-80 0 -80 -60q0 -19 10 -39h169v-111h-152v-351zM756 0h-173v458h173v-458zM756 551h-173v119h173v-119z" />
    <glyph glyph-name="fl" unicode="fl" horiz-adv-x="843" 
d="M304 0h-173v351h-101v111h104q-16 30 -16 78q0 67 57 104.5t149 37.5q50 0 98 -15.5t71 -34.5l-46 -96q-37 25 -90 25q-80 0 -80 -60q0 -19 10 -39h169v-111h-152v-351zM756 0h-173v670h53q70 0 120 14v-684z" />
    <glyph glyph-name=".notdef" horiz-adv-x="710" 
d="M615 -200h-520v1000h520v-1000zM372 301l212 -433v868zM355 265l-212 -435h424zM567 770h-424l212 -434zM338 301l-212 435v-868z" />
    <glyph glyph-name=".null" horiz-adv-x="0" 
 />
    <glyph glyph-name="nonmarkingreturn" horiz-adv-x="333" 
 />
    <glyph glyph-name="space" unicode=" " horiz-adv-x="225" 
 />
    <glyph glyph-name="exclam" unicode="!" horiz-adv-x="374" 
d="M220 247h-66l-54 205v175h174v-175zM277 0h-180v145h180v-145z" />
    <glyph glyph-name="quotedbl" unicode="&#x22;" horiz-adv-x="506" 
d="M175 366h-54l-46 162v142h145v-142zM386 366h-54l-46 162v142h145v-142z" />
    <glyph glyph-name="numbersign" unicode="#" 
d="M90 372v91h126l31 164h100l-31 -164h124l31 164h101l-31 -164h95v-91h-113l-22 -117h108v-91h-125l-31 -164h-102l31 164h-124l-31 -164h-99l31 164h-96v91h113l22 117h-108zM298 372l-22 -117h124l22 117h-124z" />
    <glyph glyph-name="dollar" unicode="$" horiz-adv-x="705" 
d="M660 206q0 -79 -63 -130.5t-191 -60.5v-90h-102v89q-159 12 -259 84l62 110q88 -65 212 -76v125q-56 8 -98 19.5t-82.5 31t-62 49.5t-21.5 70q0 79 64 128.5t185 56.5v92h102v-94q140 -14 223 -79l-64 -104q-61 53 -174 66v-122q127 -17 198 -54.5t71 -110.5zM218 440
q0 -23 22.5 -36t78.5 -23v114q-101 -5 -101 -55zM490 192q0 20 -19.5 30.5t-79.5 21.5v-114q99 7 99 62z" />
    <glyph glyph-name="percent" unicode="%" horiz-adv-x="981" 
d="M250 352q72 0 72 99q0 43 -18.5 70.5t-54.5 27.5q-35 0 -53 -27.5t-18 -70.5q0 -44 18.5 -71.5t53.5 -27.5zM249 635q83 0 139.5 -45.5t56.5 -138.5q0 -94 -56 -139.5t-139 -45.5q-82 0 -138.5 45.5t-56.5 139.5q0 93 56 138.5t138 45.5zM731 79q35 0 53.5 27.5
t18.5 71.5q0 43 -18.5 70.5t-54.5 27.5q-35 0 -53 -27.5t-18 -70.5q0 -44 18.5 -71.5t53.5 -27.5zM730 362q83 0 139.5 -45.5t56.5 -138.5q0 -94 -56 -139.5t-139 -45.5q-82 0 -138.5 45.5t-56.5 139.5q0 93 56 138.5t138 45.5zM306 0h-118l490 627h117z" />
    <glyph glyph-name="ampersand" unicode="&#x26;" horiz-adv-x="901" 
d="M836 109l23 -98q-13 -9 -48 -16t-70 -7q-121 0 -208 63q-110 -63 -241 -63q-109 0 -178 39.5t-69 119.5q0 61 43.5 106t138.5 84q-69 73 -69 137q0 76 60 120.5t157 44.5q101 0 154 -40.5t53 -106.5q0 -96 -139 -158l126 -122q74 77 99 172h116q-9 -55 -44.5 -122.5
t-87.5 -121.5q60 -39 129 -39q35 0 55 8zM338 97q52 0 112 27l-159 150q-65 -38 -65 -90q0 -38 30 -62.5t82 -24.5zM321 491q0 -38 59 -97q79 39 79 100q0 28 -19 44t-52 16q-29 0 -48 -18t-19 -45z" />
    <glyph glyph-name="quotesingle" unicode="'" horiz-adv-x="295" 
d="M175 366h-54l-46 162v142h145v-142z" />
    <glyph glyph-name="parenleft" unicode="(" horiz-adv-x="388" 
d="M235 273q0 -131 39.5 -243.5t98.5 -160.5l-31 -55q-114 51 -188 169.5t-74 289.5q0 172 74 290.5t188 169.5l31 -55q-59 -48 -98.5 -161t-39.5 -244z" />
    <glyph glyph-name="parenright" unicode=")" horiz-adv-x="388" 
d="M153 273q0 131 -39.5 244t-98.5 161l31 55q114 -51 188 -169.5t74 -290.5q0 -171 -74 -289.5t-188 -169.5l-31 55q59 48 98.5 160.5t39.5 243.5z" />
    <glyph glyph-name="asterisk" unicode="*" horiz-adv-x="483" 
d="M316 670l-53 -161l139 103l46 -145l-173 -2l145 -98l-125 -90l-50 159l-52 -162l-125 89l139 100l-172 -1l47 144l136 -100l-54 164h152z" />
    <glyph glyph-name="plus" unicode="+" 
d="M75 215v116h211v185h127v-185h212v-116h-212v-195h-127v195h-211z" />
    <glyph glyph-name="comma" unicode="," horiz-adv-x="372" 
d="M280 -16q0 -93 -46 -131t-142 -38v73q42 2 64 22t22 73v27h-85v135h187v-161z" />
    <glyph glyph-name="hyphen" unicode="-" horiz-adv-x="472" 
d="M65 196v121h342v-121h-342z" />
    <glyph glyph-name="period" unicode="." horiz-adv-x="364" 
d="M272 0h-180v145h180v-145z" />
    <glyph glyph-name="slash" unicode="/" horiz-adv-x="404" 
d="M104 -194h-99l295 939h99z" />
    <glyph glyph-name="zero" unicode="0" horiz-adv-x="757" 
d="M707 313q0 -156 -86.5 -240.5t-242.5 -84.5q-155 0 -241.5 84.5t-86.5 240.5t86.5 241t241.5 85q156 0 242.5 -85t86.5 -241zM228 313q0 -206 150 -206q151 0 151 206q0 207 -151 207q-150 0 -150 -207z" />
    <glyph glyph-name="one" unicode="1" horiz-adv-x="485" 
d="M390 0h-173v410q-27 -13 -78.5 -21.5t-93.5 -8.5v126q80 0 142 32.5t78 88.5h125v-627z" />
    <glyph glyph-name="two" unicode="2" horiz-adv-x="698" 
d="M262 352l-155 -56q-19 20 -30.5 56.5t-11.5 75.5q0 92 76.5 151.5t206.5 59.5q141 0 216.5 -56.5t75.5 -150.5q0 -49 -27 -92t-81.5 -81t-112 -67.5t-143.5 -65.5h358v-126h-574v116l73 40l70.5 38.5l62 35t57.5 34.5l46.5 31.5t40.5 33t28 32t19.5 34t5.5 33.5
q0 46 -31 70t-85 24q-52 0 -82 -26t-30 -65q0 -47 27 -79z" />
    <glyph glyph-name="three" unicode="3" horiz-adv-x="712" 
d="M348 -12q-130 0 -213 52.5t-90 142.5l155 34q6 -49 51.5 -80.5t103.5 -31.5q131 0 131 84q0 21 -8.5 36t-20.5 23t-33 12.5t-39 5.5t-44 1q-13 0 -29.5 -0.5t-27 -0.5h-11.5v110h11q12 0 29 -0.5t32 -0.5q116 2 116 81q0 66 -108 66q-59 0 -100 -31.5t-45 -80.5l-150 31
q8 95 88.5 146.5t208.5 51.5q135 0 208.5 -43t73.5 -125q0 -51 -37.5 -90t-109.5 -54q84 -10 130.5 -48.5t46.5 -102.5q0 -95 -83.5 -141.5t-235.5 -46.5z" />
    <glyph glyph-name="four" unicode="4" horiz-adv-x="734" 
d="M413 243v250l-225 -250h225zM585 0h-172v117h-378v123l357 387h193v-384h104v-126h-104v-117z" />
    <glyph glyph-name="five" unicode="5" horiz-adv-x="720" 
d="M364 -12q-136 0 -216 52.5t-88 142.5l155 34q7 -49 48 -80.5t104 -31.5q59 0 91.5 28.5t32.5 76.5q0 52 -36.5 78t-90.5 26q-85 0 -140 -53l-125 35l47 331h459v-126h-328l-21 -139q72 55 177 55q110 0 173.5 -53.5t63.5 -150.5q0 -112 -84 -168.5t-222 -56.5z" />
    <glyph glyph-name="six" unicode="6" horiz-adv-x="724" 
d="M386 522q-152 0 -162 -183q76 69 204 69q102 0 174 -50.5t72 -143.5q0 -100 -80.5 -163t-220.5 -63q-159 0 -241 86t-82 237q0 157 88 242.5t250 85.5q119 0 191 -42.5t86 -119.5l-157 -33q-25 78 -122 78zM373 305q-93 0 -145 -51q11 -77 50.5 -113t96.5 -36
q55 0 87.5 29t32.5 76q0 48 -33 71.5t-89 23.5z" />
    <glyph glyph-name="seven" unicode="7" horiz-adv-x="594" 
d="M345 0h-190v6q0 151 75.5 280.5t201.5 214.5h-397v126h534v-116q-100 -82 -162.5 -211.5t-62.5 -264.5q0 -23 1 -35z" />
    <glyph glyph-name="eight" unicode="8" horiz-adv-x="715" 
d="M357 101q65 0 101.5 25t36.5 67q0 41 -37 66t-101 25q-63 0 -100 -25t-37 -66q0 -42 36 -67t101 -25zM357 372q51 0 82.5 22t31.5 59q0 35 -31.5 55.5t-82.5 20.5q-50 0 -81.5 -20.5t-31.5 -55.5q0 -36 31.5 -58.5t81.5 -22.5zM357 -12q-144 0 -228 47.5t-84 135.5
q0 64 45.5 105.5t112.5 51.5q-131 27 -131 140q0 78 76 124.5t206 46.5q131 0 210 -47t79 -124q0 -113 -131 -140q67 -10 112.5 -51.5t45.5 -105.5q0 -88 -84.5 -135.5t-228.5 -47.5z" />
    <glyph glyph-name="nine" unicode="9" horiz-adv-x="723" 
d="M337 105q151 0 160 184q-74 -69 -202 -69q-101 0 -173 50.5t-72 143.5q0 100 80 162.5t220 62.5q159 0 241 -85.5t82 -236.5q0 -157 -88 -243t-250 -86q-119 0 -191 43t-87 120l157 33q8 -35 40.5 -57t82.5 -22zM350 323q94 0 144 51q-11 77 -50 112.5t-97 35.5
q-54 0 -87 -28t-33 -76t33 -71.5t90 -23.5z" />
    <glyph glyph-name="colon" unicode=":" horiz-adv-x="364" 
d="M272 0h-180v145h180v-145zM272 331h-180v145h180v-145z" />
    <glyph glyph-name="semicolon" unicode=";" horiz-adv-x="372" 
d="M280 -16q0 -93 -46 -131t-142 -38v73q42 2 64 22t22 73v27h-85v135h187v-161zM274 331h-180v145h180v-145z" />
    <glyph glyph-name="less" unicode="&#x3c;" 
d="M110 210v136l479 167v-125l-346 -110l346 -109v-125z" />
    <glyph glyph-name="equal" unicode="=" 
d="M95 89v116h510v-116h-510zM95 341v116h510v-116h-510z" />
    <glyph glyph-name="greater" unicode="&#x3e;" 
d="M590 346v-136l-479 -166v125l346 109l-346 110v125z" />
    <glyph glyph-name="question" unicode="?" horiz-adv-x="693" 
d="M429 0h-180v145h180v-145zM202 397l-148 14q0 92 78 160t222 68q132 0 208 -51.5t76 -129.5q0 -51 -35 -87.5t-103 -66.5q-16 -7 -38 -15.5t-32.5 -13t-22.5 -11.5t-18 -14t-8 -17l-3 -17h-92l-4 11q-7 19 -7 34q0 37 17.5 58.5t73.5 47.5q61 28 80.5 43t19.5 40
q0 27 -30.5 44.5t-82.5 17.5q-61 0 -103.5 -31t-47.5 -84z" />
    <glyph glyph-name="at" unicode="@" horiz-adv-x="990" 
d="M675 436h88l-48 -268q-2 -16 -2 -23q0 -37 38 -37q36 0 65.5 44t29.5 122q0 145 -96 223.5t-252 78.5q-67 0 -129 -20.5t-112.5 -60.5t-81 -105.5t-30.5 -147.5q0 -156 94.5 -249.5t240.5 -93.5q101 0 189 51l33 -68q-94 -58 -221 -58q-183 0 -302 118t-119 300
q0 80 24.5 147.5t66.5 115t98 81t119.5 49.5t130.5 16q193 0 312 -103t119 -271q0 -117 -60 -187t-140 -70q-59 0 -96.5 35.5t-37.5 102.5q-25 -59 -73.5 -96.5t-114.5 -37.5q-79 0 -124.5 51.5t-45.5 136.5q0 113 62 176t154 63q64 0 108.5 -36t56.5 -96zM577 180l17 115
q-26 59 -93 59q-49 0 -80 -38t-31 -94q0 -43 21.5 -72t60.5 -29q58 0 105 59z" />
    <glyph glyph-name="A" unicode="A" horiz-adv-x="777" 
d="M565 0l-39 113h-284l-40 -113h-189l268 627h220l263 -627h-199zM386 487l-101 -255h199z" />
    <glyph glyph-name="B" unicode="B" horiz-adv-x="789" 
d="M486 0h-394v627h366q251 0 251 -164q0 -121 -162 -143q88 -5 138.5 -43.5t50.5 -103.5q0 -81 -61 -127t-189 -46zM463 128q40 0 64.5 17.5t24.5 51.5q0 31 -25 47t-65 16h-192v-132h193zM450 373q79 0 79 65q0 61 -81 61h-178v-126h180z" />
    <glyph glyph-name="C" unicode="C" horiz-adv-x="797" 
d="M232 314q0 -85 53.5 -135t145.5 -50q64 0 117 35t75 83l127 -88q-41 -74 -125.5 -122.5t-205.5 -48.5q-169 0 -269 86.5t-100 239.5q0 152 103 238.5t276 86.5q112 0 191 -48t120 -122l-127 -88q-22 50 -71.5 83.5t-119.5 33.5q-85 0 -137.5 -50t-52.5 -134z" />
    <glyph glyph-name="D" unicode="D" horiz-adv-x="824" 
d="M440 0h-348v627h335q76 0 137.5 -18t109 -55t74 -98.5t26.5 -143.5q0 -149 -95.5 -230.5t-238.5 -81.5zM416 134q81 0 128 44t47 134t-44 135.5t-123 45.5h-154v-359h146z" />
    <glyph glyph-name="E" unicode="E" horiz-adv-x="746" 
d="M691 0h-599v627h579v-142h-401v-107h312v-128h-312v-108h421v-142z" />
    <glyph glyph-name="F" unicode="F" horiz-adv-x="691" 
d="M270 0h-178v627h554v-142h-376v-122h280v-136h-280v-227z" />
    <glyph glyph-name="G" unicode="G" horiz-adv-x="861" 
d="M786 0h-108l-38 140q-24 -61 -90 -106.5t-167 -45.5q-145 0 -239 83.5t-94 234.5q0 160 102.5 246.5t278.5 86.5q118 0 202 -48.5t124 -121.5l-129 -88q-22 49 -75 83t-122 34q-91 0 -145 -50t-54 -138q0 -85 55.5 -132.5t141.5 -47.5q70 0 116.5 28.5t64.5 72.5h-218
v113h394v-344z" />
    <glyph glyph-name="H" unicode="H" horiz-adv-x="833" 
d="M741 0h-177v244h-294v-244h-178v627h178v-244h294v244h177v-627z" />
    <glyph glyph-name="I" unicode="I" horiz-adv-x="362" 
d="M270 0h-178v627h178v-627z" />
    <glyph glyph-name="J" unicode="J" horiz-adv-x="703" 
d="M332 -12q-137 0 -207 67t-70 180q0 68 16 106l152 -14q-9 -31 -9 -67q0 -57 31.5 -96t92.5 -39q60 0 86.5 39t26.5 119v344h177v-355q0 -137 -75 -210.5t-221 -73.5z" />
    <glyph glyph-name="K" unicode="K" horiz-adv-x="781" 
d="M750 0h-210l-166 264l-108 -115v-149h-174v627h174v-293l274 293h204l-232 -253z" />
    <glyph glyph-name="L" unicode="L" horiz-adv-x="667" 
d="M622 0h-530v627h178v-480h352v-147z" />
    <glyph glyph-name="M" unicode="M" horiz-adv-x="1043" 
d="M951 0h-178v446l-158 -446h-186l-159 446v-446h-178v627h270l165 -461l154 461h270v-627z" />
    <glyph glyph-name="N" unicode="N" horiz-adv-x="882" 
d="M790 0h-242l-282 443v-443h-174v627h232l293 -443v443h173v-627z" />
    <glyph glyph-name="O" unicode="O" horiz-adv-x="844" 
d="M422 -12q-74 0 -138.5 18.5t-118 56t-84.5 102t-31 148.5t31 148.5t84 102.5t118 56.5t139 18.5t139 -18.5t118 -56.5t84 -102.5t31 -148.5t-31 -148.5t-84.5 -102t-118 -56t-138.5 -18.5zM422 125q87 0 138 52.5t51 134.5q0 84 -50.5 137t-138.5 53t-138.5 -53
t-50.5 -137q0 -82 51 -134.5t138 -52.5z" />
    <glyph glyph-name="P" unicode="P" horiz-adv-x="761" 
d="M270 0h-178v627h349q150 0 217.5 -52.5t67.5 -158.5q0 -217 -289 -217h-167v-199zM432 326q112 0 112 91q0 45 -27 63.5t-79 18.5h-168v-173h162z" />
    <glyph glyph-name="Q" unicode="Q" horiz-adv-x="840" 
d="M420 -12q-74 0 -138.5 18.5t-117.5 56t-83.5 102t-30.5 148.5t30.5 148.5t83.5 102.5t117.5 56.5t138.5 18.5t138.5 -18.5t117.5 -56.5t83.5 -102.5t30.5 -148.5q0 -124 -63 -200.5t-168 -106.5q16 -71 97 -71q65 0 105 35l25 -126q-56 -42 -151 -42q-170 0 -184 187
q-11 -1 -31 -1zM420 125q88 0 139.5 52.5t51.5 134.5q0 84 -51.5 137t-139.5 53q-87 0 -138 -53t-51 -137q0 -82 51 -134.5t138 -52.5z" />
    <glyph glyph-name="R" unicode="R" horiz-adv-x="789" 
d="M743 0h-188q-20 23 -32.5 56.5t-20 61.5t-20 54.5t-38.5 41.5t-69 15h-105v-229h-178v627h344q150 0 218 -44.5t68 -134.5q0 -146 -207 -168q52 -2 82 -15.5t52 -40.5q27 -32 49 -112t45 -112zM422 343q115 0 115 79q0 77 -115 77h-152v-156h152z" />
    <glyph glyph-name="S" unicode="S" horiz-adv-x="757" 
d="M381 -12q-104 0 -191 27t-140 65l75 130q50 -37 123 -61t154 -24q60 0 92 15.5t32 41.5q0 20 -26.5 30.5t-89.5 21.5l-116 20q-233 41 -233 188q0 88 81 142.5t232 54.5q199 0 310 -90l-79 -123q-38 33 -103 54t-135 21q-122 0 -122 -50q0 -40 122 -59l105 -17
q118 -19 181.5 -60.5t63.5 -120.5q0 -92 -84 -149t-252 -57z" />
    <glyph glyph-name="T" unicode="T" horiz-adv-x="684" 
d="M430 0h-177v483h-218v144h614v-144h-219v-483z" />
    <glyph glyph-name="U" unicode="U" horiz-adv-x="810" 
d="M408 -12q-171 0 -252 78t-81 239v322h178v-340q0 -84 42 -123t111 -39q68 0 109.5 39t41.5 123v340h178v-322q0 -162 -78.5 -239.5t-248.5 -77.5z" />
    <glyph glyph-name="V" unicode="V" horiz-adv-x="762" 
d="M488 0h-222l-251 627h199l169 -487l173 487h191z" />
    <glyph glyph-name="W" unicode="W" horiz-adv-x="1103" 
d="M877 0h-217l-109 450l-116 -450h-217l-193 627h199l109 -467l122 467h191l118 -467l118 467h196z" />
    <glyph glyph-name="X" unicode="X" horiz-adv-x="779" 
d="M536 0l-147 200l-146 -200h-218l250 314l-248 313h224l138 -195l139 195h224l-248 -311l250 -316h-218z" />
    <glyph glyph-name="Y" unicode="Y" horiz-adv-x="773" 
d="M474 0h-174v206l-295 421h220l164 -266l168 266h211l-294 -421v-206z" />
    <glyph glyph-name="Z" unicode="Z" horiz-adv-x="737" 
d="M682 0h-627v116l360 367h-337v144h593v-112l-362 -371h373v-144z" />
    <glyph glyph-name="bracketleft" unicode="[" horiz-adv-x="390" 
d="M90 -194v939h285v-83h-142v-772h142v-84h-285z" />
    <glyph glyph-name="backslash" unicode="\" horiz-adv-x="404" 
d="M399 -194h-99l-295 939h99z" />
    <glyph glyph-name="bracketright" unicode="]" horiz-adv-x="390" 
d="M300 745v-939h-285v84h142v772h-142v83h285z" />
    <glyph glyph-name="asciicircum" unicode="^" horiz-adv-x="586" 
d="M225 627h136l210 -317h-137l-141 214l-141 -214h-137z" />
    <glyph glyph-name="underscore" unicode="_" 
d="M65 -117v97h570v-97h-570z" />
    <glyph glyph-name="grave" unicode="`" horiz-adv-x="345" 
d="M307 545h-62l-183 169h195z" />
    <glyph glyph-name="a" unicode="a" horiz-adv-x="723" 
d="M595 -12q-59 0 -101.5 36t-42.5 111v7q-24 -65 -88.5 -109.5t-147.5 -44.5q-75 0 -120 31t-45 95q0 34 13 60t39 43.5t57.5 29t77 18.5t88.5 10t100 5v23q0 37 -21.5 55.5t-71.5 18.5q-54 0 -96.5 -23t-66.5 -65l-99 76q80 123 271 123q122 0 190.5 -46.5t68.5 -133.5
q0 -8 -2 -34l-7 -94q-2 -24 -2 -32q0 -45 47 -45q34 0 66 18l31 -88q-22 -19 -61.5 -32t-76.5 -13zM425 225q-96 -2 -146 -27.5t-50 -62.5q0 -21 15 -33.5t41 -12.5q40 0 80 24.5t60 55.5v56z" />
    <glyph glyph-name="b" unicode="b" horiz-adv-x="724" 
d="M436 -12q-161 0 -202 154l-38 -142h-109v670h56q66 0 117 14v-330q14 60 62 97t123 37q96 0 162.5 -64t66.5 -182q0 -114 -63.5 -184t-174.5 -70zM380 98q53 0 84.5 42t31.5 102t-31 98t-85 38q-77 0 -120 -82v-127q46 -71 120 -71z" />
    <glyph glyph-name="c" unicode="c" horiz-adv-x="662" 
d="M228 238q0 -60 36.5 -98.5t102.5 -38.5q51 0 90 24t58 60l99 -74q-30 -49 -97.5 -86t-163.5 -37q-86 0 -152 24.5t-108.5 82.5t-42.5 143q0 65 25.5 115t70 78.5t98.5 42.5t117 14q90 0 154 -37t94 -86l-99 -76q-20 37 -57.5 61.5t-84.5 24.5q-69 0 -104.5 -38.5
t-35.5 -98.5z" />
    <glyph glyph-name="d" unicode="d" horiz-adv-x="724" 
d="M637 0h-109l-38 142q-15 -67 -65 -110.5t-140 -43.5q-109 0 -172 70t-63 184q0 118 66.5 182t162.5 64q75 0 123 -37t62 -97v316h56q66 0 117 14v-684zM464 169v127q-43 82 -123 82q-52 0 -82.5 -38t-30.5 -98t31.5 -102t86.5 -42q72 0 118 71z" />
    <glyph glyph-name="e" unicode="e" horiz-adv-x="696" 
d="M643 212h-416q10 -54 48.5 -82.5t98.5 -28.5q58 0 99 23.5t61 60.5l97 -74q-27 -52 -100.5 -87.5t-169.5 -35.5q-63 0 -117.5 14t-98.5 42.5t-69.5 78.5t-25.5 115q0 88 44.5 145.5t112.5 81t156 23.5q128 0 205.5 -59t77.5 -173q0 -22 -3 -44zM359 386q-114 0 -131 -105
h245q0 44 -28.5 74.5t-85.5 30.5z" />
    <glyph glyph-name="f" unicode="f" horiz-adv-x="498" 
d="M304 0h-173v351h-101v111h104q-16 30 -16 78q0 67 57 104.5t149 37.5q50 0 98 -15.5t71 -34.5l-46 -96q-37 25 -90 25q-80 0 -80 -60q0 -19 10 -39h169v-111h-152v-351z" />
    <glyph glyph-name="g" unicode="g" horiz-adv-x="727" 
d="M357 -185q-308 0 -308 90q0 36 41.5 58t108.5 26q-146 27 -146 109q0 41 35.5 67t91.5 37q-47 16 -77 48t-30 81q0 45 26 77.5t68.5 49t85 23.5t87.5 7q94 0 165 -23q8 70 45.5 98.5t99.5 28.5q26 0 53 -4l-5 -120q-30 5 -61 5q-68 0 -98 -21q90 -41 90 -122
q0 -44 -25 -75t-68 -47t-88 -23t-97 -7q-77 0 -138 14q-10 -8 -10 -26q0 -52 126 -52q21 0 72.5 1.5t83.5 1.5q46 0 80.5 -5.5t66 -19.5t48 -41.5t16.5 -67.5q0 -168 -339 -168zM368 -129q173 0 173 61q0 42 -122 42q-28 0 -69.5 1t-58.5 1q-108 0 -108 -46
q0 -32 41.5 -45.5t143.5 -13.5zM348 240q45 0 71 26.5t26 66.5q0 39 -26 66.5t-71 27.5q-46 0 -72 -27t-26 -68q0 -40 26 -66t72 -26z" />
    <glyph glyph-name="h" unicode="h" horiz-adv-x="723" 
d="M438 488q91 0 151.5 -53.5t60.5 -164.5v-270h-173v252q0 58 -25.5 92t-76.5 34q-77 0 -115 -82v-296h-173v670h55q70 0 118 14v-330q19 61 63.5 97.5t114.5 36.5z" />
    <glyph glyph-name="i" unicode="i" horiz-adv-x="347" 
d="M260 0h-173v458h173v-458zM260 551h-173v119h173v-119z" />
    <glyph glyph-name="j" unicode="j" horiz-adv-x="347" 
d="M260 48q0 -123 -54 -178t-158 -55q-40 0 -82 11t-67 26l35 99q42 -20 73 -20q42 0 61 24t19 88v415h173v-410zM260 551h-173v119h173v-119z" />
    <glyph glyph-name="k" unicode="k" horiz-adv-x="709" 
d="M681 0h-196l-141 186l-84 -80v-106h-173v670h48q75 0 125 14v-433l221 225h188l-200 -190z" />
    <glyph glyph-name="l" unicode="l" horiz-adv-x="347" 
d="M260 0h-173v670h53q70 0 120 14v-684z" />
    <glyph glyph-name="m" unicode="m" horiz-adv-x="1049" 
d="M976 0h-173v264q0 114 -79 114q-64 0 -106 -71v-307h-173v264q0 114 -80 114q-33 0 -60.5 -20.5t-44.5 -50.5v-307h-173v476h109l38 -141q35 153 179 153q148 0 179 -153q22 85 69.5 119t120.5 34q81 0 137.5 -50.5t56.5 -149.5v-288z" />
    <glyph glyph-name="n" unicode="n" horiz-adv-x="723" 
d="M650 0h-173v252q0 58 -25.5 92t-76.5 34q-71 0 -115 -71v-307h-173v476h109l38 -142q42 154 204 154q91 0 151.5 -53.5t60.5 -164.5v-270z" />
    <glyph glyph-name="o" unicode="o" horiz-adv-x="721" 
d="M361 96q64 0 98 40t34 102t-34 102t-99 40q-64 0 -98 -40t-34 -102t34 -102t99 -40zM360 488q63 0 117 -14t98.5 -42.5t70 -78.5t25.5 -115t-25.5 -115t-69.5 -78.5t-98 -42.5t-117 -14t-117 14t-98.5 42.5t-70 78.5t-25.5 115t25.5 115t69.5 78.5t98 42.5t117 14z" />
    <glyph glyph-name="p" unicode="p" horiz-adv-x="724" 
d="M441 488q109 0 171 -67.5t62 -185.5q0 -117 -67 -182t-164 -65q-70 0 -118.5 38t-64.5 97v-296h-173v649h109l38 -142q42 154 207 154zM378 98q56 0 87 39t31 100q0 62 -30 101.5t-86 39.5q-76 0 -120 -71v-127q16 -31 46 -56.5t72 -25.5z" />
    <glyph glyph-name="q" unicode="q" horiz-adv-x="724" 
d="M283 488q167 0 207 -154l38 142h109v-649h-173v296q-16 -59 -64.5 -97t-118.5 -38q-98 0 -164.5 65t-66.5 182q0 118 62 185.5t171 67.5zM346 98q42 0 72 25.5t46 56.5v127q-44 71 -120 71q-56 0 -86 -39.5t-30 -101.5q0 -61 31 -100t87 -39z" />
    <glyph glyph-name="r" unicode="r" horiz-adv-x="484" 
d="M260 0h-173v476h109l40 -146q25 158 160 158q35 0 73 -9l-11 -139q-43 12 -70 12q-93 0 -128 -42v-310z" />
    <glyph glyph-name="s" unicode="s" horiz-adv-x="641" 
d="M596 146q0 -72 -66 -115t-206 -43q-79 0 -152 19.5t-117 53.5l64 100q35 -28 92.5 -47.5t119.5 -19.5q92 0 92 36q0 28 -80 42l-96 17q-178 33 -178 142q0 70 62 113.5t188 43.5q154 0 245 -62l-61 -97q-28 23 -79.5 38t-104.5 15q-87 0 -87 -35q0 -16 16 -25t52 -15
l119 -21q177 -31 177 -140z" />
    <glyph glyph-name="t" unicode="t" horiz-adv-x="520" 
d="M459 137l39 -100q-76 -49 -178 -49q-197 0 -197 180v184h-95v111h59q29 0 40 9.5t11 38.5v16l158 150v-214h163v-111h-163v-172q0 -39 18 -55t53 -16q52 0 92 28z" />
    <glyph glyph-name="u" unicode="u" horiz-adv-x="713" 
d="M626 0h-109l-38 142q-16 -68 -66 -111t-134 -43q-88 0 -147 53.5t-59 164.5v270h173v-252q0 -58 24.5 -92t72.5 -34q68 0 110 71v307h173v-476z" />
    <glyph glyph-name="v" unicode="v" horiz-adv-x="648" 
d="M420 0h-204l-196 476h190l116 -359l114 359h188z" />
    <glyph glyph-name="w" unicode="w" horiz-adv-x="992" 
d="M796 0h-204l-96 315l-95 -315h-205l-166 476h187l87 -359l113 359h158l113 -359l90 359h184z" />
    <glyph glyph-name="x" unicode="x" horiz-adv-x="655" 
d="M25 476h197l110 -142l100 142h198l-207 -238l207 -238h-199l-108 141l-102 -141h-196l206 238z" />
    <glyph glyph-name="y" unicode="y" horiz-adv-x="648" 
d="M628 476l-232 -516q-36 -79 -86 -112t-126 -33q-35 0 -75 11t-64 26l35 99q42 -20 79 -20q62 0 84 46l15 30l-238 469h185l127 -307l109 307h187z" />
    <glyph glyph-name="z" unicode="z" horiz-adv-x="636" 
d="M581 0h-526v78l268 280h-248v118h495v-76l-267 -284h278v-116z" />
    <glyph glyph-name="braceleft" unicode="{" horiz-adv-x="425" 
d="M80 228v94q50 0 68.5 18t18.5 59q0 21 -4 40l-28 132q-3 15 -3 32q0 57 42.5 99t127.5 42q58 0 93 -14l-14 -73q-17 6 -49 6q-57 0 -57 -61q0 -15 2 -24l27 -135q5 -29 5 -47q0 -52 -27 -81.5t-104 -39.5q77 -10 104 -39.5t27 -81.5q0 -18 -5 -47l-27 -135q-2 -9 -2 -24
q0 -61 51 -61q35 0 55 11l19 -71q-37 -21 -98 -21q-85 0 -127.5 42t-42.5 99q0 17 3 32l28 132q4 19 4 40q0 41 -18.5 59t-68.5 18z" />
    <glyph glyph-name="bar" unicode="|" horiz-adv-x="316" 
d="M219 -195h-122v940h122v-940z" />
    <glyph glyph-name="braceright" unicode="}" horiz-adv-x="425" 
d="M345 322v-94q-50 0 -68.5 -18t-18.5 -59q0 -21 4 -40l28 -132q3 -15 3 -32q0 -57 -42.5 -99t-127.5 -42q-61 0 -98 21l19 71q20 -11 55 -11q51 0 51 61q0 15 -2 24l-27 135q-5 29 -5 47q0 52 27 81.5t104 39.5q-77 10 -104 39.5t-27 81.5q0 18 5 47l27 135q2 9 2 24
q0 61 -57 61q-32 0 -49 -6l-14 73q35 14 93 14q85 0 127.5 -42t42.5 -99q0 -17 -3 -32l-28 -132q-4 -19 -4 -40q0 -41 18.5 -59t68.5 -18z" />
    <glyph glyph-name="asciitilde" unicode="~" 
d="M180 154h-108q0 191 146 191q48 0 93.5 -19.5t85 -39t74.5 -19.5q49 0 49 68h108q0 -190 -146 -190q-48 0 -93.5 19.5t-85 39t-74.5 19.5q-49 0 -49 -69z" />
    <glyph glyph-name="uni00A0" unicode="&#xa0;" horiz-adv-x="225" 
 />
    <glyph glyph-name="exclamdown" unicode="&#xa1;" horiz-adv-x="374" 
d="M154 229h66l54 -205v-175h-174v175zM97 476h180v-145h-180v145z" />
    <glyph glyph-name="cent" unicode="&#xa2;" horiz-adv-x="659" 
d="M505 286q-36 67 -110 83v-263q78 16 113 81l103 -76q-25 -40 -76.5 -74t-124.5 -44v-88h-102v85q-115 10 -186.5 74t-71.5 174q0 109 72.5 172t185.5 75v89h102v-90q69 -10 119.5 -44t76.5 -75zM217 238q0 -52 26.5 -87.5t79.5 -44.5v262q-53 -9 -79.5 -44t-26.5 -86z
" />
    <glyph glyph-name="sterling" unicode="&#xa3;" horiz-adv-x="760" 
d="M558 196l139 27q10 -11 16.5 -39t6.5 -46q0 -77 -44 -114t-117 -37q-84 0 -195 60q-64 -59 -189 -59q-65 0 -105 24t-40 72q0 47 42 73t108 26q48 0 101 -17q-4 35 -35 82h-153v73h103q-44 70 -44 132q0 83 67 134.5t180 51.5q122 0 192 -52.5t70 -127.5q0 -35 -12 -69
l-157 15q8 26 8 43q0 34 -23 54t-69 20q-44 0 -65.5 -23.5t-21.5 -60.5q0 -35 42 -117h180v-73h-144q19 -45 19 -72q0 -31 -9 -58q52 -15 82 -15q77 0 77 56q0 17 -10 37zM181 123q-73 0 -73 -40q0 -37 67 -37q75 0 97 55q-48 22 -91 22z" />
    <glyph glyph-name="currency" unicode="&#xa4;" 
d="M624 71l-86 -86l-85 84q-48 -12 -101 -12q-56 0 -104 12l-83 -83l-87 87l57 57q-55 55 -55 145q0 88 53 144l-57 57l87 87l81 -82q49 13 107 13t104 -13l83 82l86 -86l-57 -57q55 -57 55 -145q0 -92 -56 -146zM352 152q56 0 89.5 34t33.5 89t-34 90t-90 35
q-57 0 -90.5 -34.5t-33.5 -90.5q0 -55 34.5 -89t90.5 -34z" />
    <glyph glyph-name="yen" unicode="&#xa5;" horiz-adv-x="696" 
d="M61 265v77h122l-178 285h195l148 -283l148 283h195l-179 -285h123v-77h-171l-36 -58h207v-77h-207v-130h-160v130h-207v77h206l-36 58h-170z" />
    <glyph glyph-name="brokenbar" unicode="&#xa6;" horiz-adv-x="316" 
d="M219 341h-122v404h122v-404zM219 -194h-122v404h122v-404z" />
    <glyph glyph-name="section" unicode="&#xa7;" 
d="M648 226q0 -50 -31 -87t-73 -53q38 -38 38 -99q0 -73 -57 -122.5t-174 -49.5q-152 0 -242 85l77 98q22 -26 71.5 -46.5t98.5 -20.5q81 0 81 45q0 29 -64 49l-178 57q-70 23 -106 57.5t-36 88.5q0 50 30.5 87t72.5 52q-37 37 -37 100q0 73 57 122.5t174 49.5
q152 0 242 -85l-77 -98q-22 26 -71 46.5t-98 20.5q-81 0 -81 -45q0 -29 64 -49l177 -57q70 -23 106 -57.5t36 -88.5zM257 312q-27 9 -47 19q-31 -22 -31 -56q0 -23 17.5 -39t63.5 -31l184 -63q21 -7 46 -19q32 20 32 56q0 23 -17.5 39t-63.5 31z" />
    <glyph glyph-name="dieresis" unicode="&#xa8;" horiz-adv-x="508" 
d="M214 547h-164v119h164v-119zM458 547h-164v119h164v-119z" />
    <glyph glyph-name="copyright" unicode="&#xa9;" horiz-adv-x="781" 
d="M301 314q0 -45 29 -71.5t75 -26.5q33 0 61.5 18.5t39.5 43.5l67 -46q-21 -40 -65.5 -65.5t-109.5 -25.5q-89 0 -142 46t-53 127q0 80 55.5 125.5t144.5 45.5q114 0 165 -90l-67 -46q-13 26 -39 44t-62 18q-43 0 -71 -26.5t-28 -70.5zM389 -13q-143 0 -236 91.5t-93 234.5
t93 234.5t236 91.5q145 0 238.5 -91t93.5 -235t-93.5 -235t-238.5 -91zM389 29q129 0 208 78t79 206t-79 206t-208 78q-127 0 -205.5 -78t-78.5 -206t78.5 -206t205.5 -78z" />
    <glyph glyph-name="ordfeminine" unicode="&#xaa;" horiz-adv-x="551" 
d="M410 309q-39 0 -67 24t-28 73v5q-16 -43 -58.5 -72.5t-97.5 -29.5q-50 0 -79.5 20.5t-29.5 62.5q0 33 18.5 55t55.5 33t76.5 15.5t97.5 6.5v15q0 49 -62 49q-73 0 -107 -58l-66 50q53 81 179 81q81 0 126 -30.5t45 -88.5q0 -8 -1 -22l-5 -62q-1 -11 -1 -22q0 -29 31 -29
q23 0 44 12l20 -58q-34 -30 -91 -30zM298 465q-63 -1 -95 -17.5t-32 -41.5q0 -30 37 -30q26 0 51.5 16t38.5 36v37zM67 175v79h391v-79h-391z" />
    <glyph glyph-name="guillemotleft" unicode="&#xab;" horiz-adv-x="589" 
d="M187 59l-132 179l132 180h106l-97 -180l97 -179h-106zM408 59l-132 179l132 180h106l-97 -180l97 -179h-106z" />
    <glyph glyph-name="logicalnot" unicode="&#xac;" 
d="M95 215v116h510v-301h-127v185h-383z" />
    <glyph glyph-name="uni00AD" unicode="&#xad;" horiz-adv-x="472" 
d="M65 196v121h342v-121h-342z" />
    <glyph glyph-name="registered" unicode="&#xae;" horiz-adv-x="578" 
d="M288 231q-99 0 -163.5 63t-64.5 162t64.5 162.5t163.5 63.5q101 0 165.5 -63t64.5 -163q0 -99 -64.5 -162t-165.5 -63zM288 269q85 0 137 51t52 136t-52 136t-137 51q-84 0 -135.5 -51t-51.5 -136q0 -84 51.5 -135.5t135.5 -51.5zM416 351h-67q-9 10 -13 31.5t-13 34.5
t-32 13h-47v-79h-64v218h138q91 0 91 -62q0 -51 -69 -61q31 0 46 -17q9 -11 16 -39.5t14 -38.5zM307 476q36 0 36 22t-36 22h-63v-44h63z" />
    <glyph glyph-name="macron" unicode="&#xaf;" horiz-adv-x="402" 
d="M352 566h-302v99h302v-99z" />
    <glyph glyph-name="degree" unicode="&#xb0;" horiz-adv-x="453" 
d="M226 395q39 0 61 24t22 61q0 36 -23 60.5t-61 24.5q-37 0 -59.5 -24.5t-22.5 -60.5t22.5 -60.5t60.5 -24.5zM225 639q78 0 130.5 -41t52.5 -118q0 -78 -52 -118.5t-130 -40.5q-77 0 -129 41t-52 118t52 118t128 41z" />
    <glyph glyph-name="plusminus" unicode="&#xb1;" 
d="M75 349v116h211v155h127v-155h212v-116h-212v-165h-127v165h-211zM75 0v116h550v-116h-550z" />
    <glyph glyph-name="twosuperior" unicode="&#xb2;" horiz-adv-x="500" 
d="M191 475l-95 -38q-24 29 -24 73q0 55 49 90t125 35q82 0 130 -32t48 -84q0 -48 -46 -82t-142 -77h183v-87h-345v66q31 19 71.5 41.5l66.5 36t50.5 29.5t36 32t11.5 33q0 48 -65 48q-30 0 -47.5 -14t-17.5 -35q0 -20 11 -35z" />
    <glyph glyph-name="threesuperior" unicode="&#xb3;" horiz-adv-x="500" 
d="M246 266q-79 0 -129.5 33t-54.5 85l100 20q3 -25 30 -43.5t58 -18.5q36 0 54.5 12.5t18.5 31.5q0 36 -75 36h-17h-17l-8 -1v70h43q60 0 60 35q0 15 -16 24t-42 9q-33 0 -57.5 -18t-27.5 -43l-97 18q4 54 53 86.5t122 32.5q81 0 131 -27t50 -73q0 -62 -86 -76
q105 -8 105 -81q0 -54 -54 -83t-144 -29z" />
    <glyph glyph-name="acute" unicode="&#xb4;" horiz-adv-x="345" 
d="M107 545h-62l50 169h195z" />
    <glyph glyph-name="mu" unicode="&#xb5;" horiz-adv-x="727" 
d="M87 -200v676h173v-252q0 -58 24.5 -92t72.5 -34q68 0 110 71v307h173v-476h-99l-48 142q-19 -63 -68.5 -108.5t-131.5 -45.5q-25 0 -45 7v-195h-161z" />
    <glyph glyph-name="paragraph" unicode="&#xb6;" horiz-adv-x="897" 
d="M515 -173h-158v392h-5q-284 0 -284 207q0 100 65.5 150.5t214.5 50.5h167v-800zM800 -173h-158v800h158v-800z" />
    <glyph glyph-name="periodcentered" unicode="&#xb7;" horiz-adv-x="364" 
d="M272 196h-180v145h180v-145z" />
    <glyph glyph-name="cedilla" unicode="&#xb8;" horiz-adv-x="347" 
d="M170 -201q-73 0 -126 36l30 54q49 -28 90 -28q56 0 56 33q0 28 -45 28q-30 0 -51 -16l-48 27l44 67h59l-27 -47q20 10 52 10q44 0 71.5 -20t27.5 -54q0 -41 -36.5 -65.5t-96.5 -24.5z" />
    <glyph glyph-name="onesuperior" unicode="&#xb9;" horiz-adv-x="500" 
d="M90 273v87h131v134q-45 -26 -124 -26v83q48 0 88 19t58 57h90v-267h93v-87h-336z" />
    <glyph glyph-name="ordmasculine" unicode="&#xba;" horiz-adv-x="510" 
d="M59 175v79h391v-79h-391zM255 380q42 0 64 26.5t22 67.5q0 40 -22.5 67t-64.5 27q-41 0 -63 -26.5t-22 -67.5t22.5 -67.5t63.5 -26.5zM254 639q88 0 147 -40.5t59 -124.5t-58 -124.5t-147 -40.5q-88 0 -146.5 40.5t-58.5 124.5t58 124.5t146 40.5z" />
    <glyph glyph-name="guillemotright" unicode="&#xbb;" horiz-adv-x="590" 
d="M313 238l-132 -179h-106l97 179l-97 180h106zM535 238l-132 -179h-106l97 179l-97 180h106z" />
    <glyph glyph-name="onequarter" unicode="&#xbc;" horiz-adv-x="1090" 
d="M352 0h-102l490 627h101zM70 273v87h131v134q-45 -26 -124 -26v83q48 0 88 19t58 57h90v-267h93v-87h-336zM804 0v67h-220v83l211 204h129v-213h70v-74h-70v-67h-120zM812 141v122l-126 -122h126z" />
    <glyph glyph-name="onehalf" unicode="&#xbd;" horiz-adv-x="1090" 
d="M352 0h-102l490 627h101zM762 202l-95 -38q-24 29 -24 73q0 55 49 90t125 35q82 0 130 -32t48 -84q0 -48 -46 -82t-142 -77h183v-87h-345v66q31 19 71.5 41.5l66.5 36t50.5 29.5t36 32t11.5 33q0 48 -65 48q-30 0 -47.5 -14t-17.5 -35q0 -20 11 -35zM70 273v87h131v134
q-45 -26 -124 -26v83q48 0 88 19t58 57h90v-267h93v-87h-336z" />
    <glyph glyph-name="threequarters" unicode="&#xbe;" horiz-adv-x="1090" 
d="M246 266q-79 0 -129.5 33t-54.5 85l100 20q3 -25 30 -43.5t58 -18.5q36 0 54.5 12.5t18.5 31.5q0 36 -75 36h-17h-17l-8 -1v70h43q60 0 60 35q0 15 -16 24t-42 9q-33 0 -57.5 -18t-27.5 -43l-97 18q4 54 53 86.5t122 32.5q81 0 131 -27t50 -73q0 -62 -86 -76
q105 -8 105 -81q0 -54 -54 -83t-144 -29zM352 0h-102l490 627h101zM804 0v67h-220v83l211 204h129v-213h70v-74h-70v-67h-120zM812 141v122l-126 -122h126z" />
    <glyph glyph-name="questiondown" unicode="&#xbf;" horiz-adv-x="693" 
d="M264 476h180v-145h-180v145zM491 79l148 -14q0 -92 -78 -160t-222 -68q-132 0 -208 51.5t-76 129.5q0 51 35 87.5t103 66.5q16 7 38 15.5t32.5 13t22.5 11.5t18 14t8 17l3 17h92l4 -11q7 -19 7 -34q0 -37 -17.5 -58.5t-73.5 -47.5q-61 -28 -80.5 -43t-19.5 -40
q0 -27 30.5 -44.5t82.5 -17.5q61 0 103.5 31t47.5 84z" />
    <glyph glyph-name="Agrave" unicode="&#xc0;" horiz-adv-x="777" 
d="M565 0l-39 113h-284l-40 -113h-189l268 627h220l263 -627h-199zM386 487l-101 -255h199zM448 696h-62l-183 169h195z" />
    <glyph glyph-name="Aacute" unicode="&#xc1;" horiz-adv-x="777" 
d="M565 0l-39 113h-284l-40 -113h-189l268 627h220l263 -627h-199zM386 487l-101 -255h199zM385 696h-62l50 169h195z" />
    <glyph glyph-name="Acircumflex" unicode="&#xc2;" horiz-adv-x="777" 
d="M565 0l-39 113h-284l-40 -113h-189l268 627h220l263 -627h-199zM386 487l-101 -255h199zM597 696h-81l-125 77l-127 -77h-81l134 169h146z" />
    <glyph glyph-name="Atilde" unicode="&#xc3;" horiz-adv-x="777" 
d="M565 0l-39 113h-284l-40 -113h-189l268 627h220l263 -627h-199zM386 487l-101 -255h199zM459 696q-26 0 -75 24t-70 24q-32 0 -45 -48h-63q8 80 36.5 118t81.5 38q30 0 74.5 -22.5t69.5 -22.5q18 0 28.5 14t11.5 34h66q-13 -159 -115 -159z" />
    <glyph glyph-name="Adieresis" unicode="&#xc4;" horiz-adv-x="777" 
d="M565 0l-39 113h-284l-40 -113h-189l268 627h220l263 -627h-199zM386 487l-101 -255h199zM349 698h-164v119h164v-119zM593 698h-164v119h164v-119z" />
    <glyph glyph-name="Aring" unicode="&#xc5;" horiz-adv-x="777" 
d="M256 710q0 52 38 86.5t99 34.5q59 0 96.5 -34.5t37.5 -86.5q0 -44 -29 -76l266 -634h-199l-39 113h-284l-40 -113h-189l271 636q-28 33 -28 74zM386 487l-101 -255h199zM327 710q0 -26 18 -44t48 -18q28 0 44.5 18t16.5 44q0 28 -16.5 46.5t-44.5 18.5q-30 0 -48 -18.5
t-18 -46.5z" />
    <glyph glyph-name="AE" unicode="&#xc6;" horiz-adv-x="1038" 
d="M544 0l-39 113h-266l-40 -113h-189l259 627h513l59 -140h-299l41 -102h288l56 -137h-289l44 -108h298l58 -140h-494zM374 487l-92 -255h181z" />
    <glyph glyph-name="Ccedilla" unicode="&#xc7;" horiz-adv-x="797" 
d="M404 -201q-73 0 -126 36l30 54q49 -28 90 -28q56 0 56 33q0 28 -45 28q-30 0 -51 -16l-48 27l39 59q-139 17 -219 101.5t-80 220.5q0 152 103 238.5t276 86.5q112 0 191 -48t120 -122l-127 -88q-22 50 -71.5 83.5t-119.5 33.5q-85 0 -137.5 -50t-52.5 -134
q0 -85 53.5 -135t145.5 -50q64 0 117 35t75 83l127 -88q-41 -74 -125.5 -122.5t-205.5 -48.5h-13l-20 -35q20 10 52 10q44 0 71.5 -20t27.5 -54q0 -41 -36.5 -65.5t-96.5 -24.5z" />
    <glyph glyph-name="Egrave" unicode="&#xc8;" horiz-adv-x="746" 
d="M691 0h-599v627h579v-142h-401v-107h312v-128h-312v-108h421v-142zM446 696h-62l-183 169h195z" />
    <glyph glyph-name="Eacute" unicode="&#xc9;" horiz-adv-x="746" 
d="M691 0h-599v627h579v-142h-401v-107h312v-128h-312v-108h421v-142zM383 696h-62l50 169h195z" />
    <glyph glyph-name="Ecircumflex" unicode="&#xca;" horiz-adv-x="746" 
d="M691 0h-599v627h579v-142h-401v-107h312v-128h-312v-108h421v-142zM591 696h-81l-125 77l-127 -77h-81l134 169h146z" />
    <glyph glyph-name="Edieresis" unicode="&#xcb;" horiz-adv-x="746" 
d="M691 0h-599v627h579v-142h-401v-107h312v-128h-312v-108h421v-142zM342 698h-164v119h164v-119zM586 698h-164v119h164v-119z" />
    <glyph glyph-name="Igrave" unicode="&#xcc;" horiz-adv-x="362" 
d="M270 0h-178v627h178v-627zM239 696h-62l-183 169h195z" />
    <glyph glyph-name="Iacute" unicode="&#xcd;" horiz-adv-x="362" 
d="M270 0h-178v627h178v-627zM181 696h-62l50 169h195z" />
    <glyph glyph-name="Icircumflex" unicode="&#xce;" horiz-adv-x="362" 
d="M270 0h-178v627h178v-627zM388 696h-81l-125 77l-127 -77h-81l134 169h146z" />
    <glyph glyph-name="Idieresis" unicode="&#xcf;" horiz-adv-x="362" 
d="M270 0h-178v627h178v-627zM141 698h-164v119h164v-119zM385 698h-164v119h164v-119z" />
    <glyph glyph-name="Eth" unicode="&#xd0;" horiz-adv-x="842" 
d="M458 0h-348v257h-75v113h75v257h335q76 0 137.5 -18t109 -55t74 -98.5t26.5 -143.5q0 -149 -95.5 -230.5t-238.5 -81.5zM434 134q81 0 128 44t47 134t-44 135.5t-123 45.5h-154v-123h137v-113h-137v-123h146z" />
    <glyph glyph-name="Ntilde" unicode="&#xd1;" horiz-adv-x="882" 
d="M790 0h-242l-282 443v-443h-174v627h232l293 -443v443h173v-627zM509 696q-26 0 -75 24t-70 24q-32 0 -45 -48h-63q8 80 36.5 118t81.5 38q30 0 74.5 -22.5t69.5 -22.5q18 0 28.5 14t11.5 34h66q-13 -159 -115 -159z" />
    <glyph glyph-name="Ograve" unicode="&#xd2;" horiz-adv-x="844" 
d="M422 -12q-74 0 -138.5 18.5t-118 56t-84.5 102t-31 148.5t31 148.5t84 102.5t118 56.5t139 18.5t139 -18.5t118 -56.5t84 -102.5t31 -148.5t-31 -148.5t-84.5 -102t-118 -56t-138.5 -18.5zM422 125q87 0 138 52.5t51 134.5q0 84 -50.5 137t-138.5 53t-138.5 -53
t-50.5 -137q0 -82 51 -134.5t138 -52.5zM484 696h-62l-183 169h195z" />
    <glyph glyph-name="Oacute" unicode="&#xd3;" horiz-adv-x="844" 
d="M422 -12q-74 0 -138.5 18.5t-118 56t-84.5 102t-31 148.5t31 148.5t84 102.5t118 56.5t139 18.5t139 -18.5t118 -56.5t84 -102.5t31 -148.5t-31 -148.5t-84.5 -102t-118 -56t-138.5 -18.5zM422 125q87 0 138 52.5t51 134.5q0 84 -50.5 137t-138.5 53t-138.5 -53
t-50.5 -137q0 -82 51 -134.5t138 -52.5zM421 696h-62l50 169h195z" />
    <glyph glyph-name="Ocircumflex" unicode="&#xd4;" horiz-adv-x="844" 
d="M422 -12q-74 0 -138.5 18.5t-118 56t-84.5 102t-31 148.5t31 148.5t84 102.5t118 56.5t139 18.5t139 -18.5t118 -56.5t84 -102.5t31 -148.5t-31 -148.5t-84.5 -102t-118 -56t-138.5 -18.5zM422 125q87 0 138 52.5t51 134.5q0 84 -50.5 137t-138.5 53t-138.5 -53
t-50.5 -137q0 -82 51 -134.5t138 -52.5zM630 696h-81l-125 77l-127 -77h-81l134 169h146z" />
    <glyph glyph-name="Otilde" unicode="&#xd5;" horiz-adv-x="844" 
d="M422 -12q-74 0 -138.5 18.5t-118 56t-84.5 102t-31 148.5t31 148.5t84 102.5t118 56.5t139 18.5t139 -18.5t118 -56.5t84 -102.5t31 -148.5t-31 -148.5t-84.5 -102t-118 -56t-138.5 -18.5zM422 125q87 0 138 52.5t51 134.5q0 84 -50.5 137t-138.5 53t-138.5 -53
t-50.5 -137q0 -82 51 -134.5t138 -52.5zM491 696q-26 0 -75 24t-70 24q-32 0 -45 -48h-63q8 80 36.5 118t81.5 38q30 0 74.5 -22.5t69.5 -22.5q18 0 28.5 14t11.5 34h66q-13 -159 -115 -159z" />
    <glyph glyph-name="Odieresis" unicode="&#xd6;" horiz-adv-x="844" 
d="M422 -12q-74 0 -138.5 18.5t-118 56t-84.5 102t-31 148.5t31 148.5t84 102.5t118 56.5t139 18.5t139 -18.5t118 -56.5t84 -102.5t31 -148.5t-31 -148.5t-84.5 -102t-118 -56t-138.5 -18.5zM422 125q87 0 138 52.5t51 134.5q0 84 -50.5 137t-138.5 53t-138.5 -53
t-50.5 -137q0 -82 51 -134.5t138 -52.5zM380 698h-164v119h164v-119zM624 698h-164v119h164v-119z" />
    <glyph glyph-name="multiply" unicode="&#xd7;" 
d="M184 41l-86 86l161 146l-162 146l87 87l166 -151l166 151l87 -87l-162 -146l161 -146l-86 -86l-166 150z" />
    <glyph glyph-name="Oslash" unicode="&#xd8;" horiz-adv-x="844" 
d="M223 -72h-134l86 127q-125 87 -125 258q0 84 31 148.5t84 102.5t118 56.5t139 18.5q73 0 139 -18l53 78h133l-85 -124q132 -87 132 -262q0 -84 -31 -148.5t-84.5 -102t-118 -56t-138.5 -18.5q-76 0 -145 20zM422 120q89 0 141 53.5t52 138.5q0 83 -49 138l-218 -319
q35 -11 74 -11zM229 312q0 -79 44 -131l215 316q-33 10 -66 10q-89 0 -141 -54t-52 -141z" />
    <glyph glyph-name="Ugrave" unicode="&#xd9;" horiz-adv-x="810" 
d="M408 -12q-171 0 -252 78t-81 239v322h178v-340q0 -84 42 -123t111 -39q68 0 109.5 39t41.5 123v340h178v-322q0 -162 -78.5 -239.5t-248.5 -77.5zM471 696h-62l-183 169h195z" />
    <glyph glyph-name="Uacute" unicode="&#xda;" horiz-adv-x="810" 
d="M408 -12q-171 0 -252 78t-81 239v322h178v-340q0 -84 42 -123t111 -39q68 0 109.5 39t41.5 123v340h178v-322q0 -162 -78.5 -239.5t-248.5 -77.5zM408 696h-62l50 169h195z" />
    <glyph glyph-name="Ucircumflex" unicode="&#xdb;" horiz-adv-x="810" 
d="M408 -12q-171 0 -252 78t-81 239v322h178v-340q0 -84 42 -123t111 -39q68 0 109.5 39t41.5 123v340h178v-322q0 -162 -78.5 -239.5t-248.5 -77.5zM617 696h-81l-125 77l-127 -77h-81l134 169h146z" />
    <glyph glyph-name="Udieresis" unicode="&#xdc;" horiz-adv-x="810" 
d="M408 -12q-171 0 -252 78t-81 239v322h178v-340q0 -84 42 -123t111 -39q68 0 109.5 39t41.5 123v340h178v-322q0 -162 -78.5 -239.5t-248.5 -77.5zM367 698h-164v119h164v-119zM611 698h-164v119h164v-119z" />
    <glyph glyph-name="Yacute" unicode="&#xdd;" horiz-adv-x="773" 
d="M474 0h-174v206l-295 421h220l164 -266l168 266h211l-294 -421v-206zM388 696h-62l50 169h195z" />
    <glyph glyph-name="Thorn" unicode="&#xde;" horiz-adv-x="771" 
d="M270 627v-109h186q149 0 214.5 -50.5t65.5 -150.5q0 -207 -284 -207h-182v-110h-178v627h178zM453 390h-183v-153h177q107 0 107 81q0 39 -25.5 55.5t-75.5 16.5z" />
    <glyph glyph-name="germandbls" unicode="&#xdf;" horiz-adv-x="776" 
d="M30 352v110h99q18 220 275 220q123 0 184.5 -35.5t61.5 -101.5q0 -53 -59 -93q-7 -5 -17 -11.5t-15 -9.5t-11.5 -8t-9.5 -8l-6.5 -6.5t-4.5 -7t-1 -7.5q0 -10 9.5 -15.5t38 -14.5t47.5 -17q65 -28 100.5 -66t35.5 -107q0 -83 -57 -134.5t-171 -51.5q-112 0 -190 57
l63 103q20 -16 52 -28.5t58 -12.5q31 0 49.5 14.5t18.5 37.5q0 30 -30.5 50.5t-93.5 43.5q-45 16 -63 31.5t-18 42.5q0 36 55 76q43 32 60.5 52.5t17.5 47.5q0 29 -24 47t-70 18q-115 0 -115 -159v-582h-172v525h-97z" />
    <glyph glyph-name="agrave" unicode="&#xe0;" horiz-adv-x="723" 
d="M595 -12q-59 0 -101.5 36t-42.5 111v7q-24 -65 -88.5 -109.5t-147.5 -44.5q-75 0 -120 31t-45 95q0 34 13 60t39 43.5t57.5 29t77 18.5t88.5 10t100 5v23q0 37 -21.5 55.5t-71.5 18.5q-54 0 -96.5 -23t-66.5 -65l-99 76q80 123 271 123q122 0 190.5 -46.5t68.5 -133.5
q0 -8 -2 -34l-7 -94q-2 -24 -2 -32q0 -45 47 -45q34 0 66 18l31 -88q-22 -19 -61.5 -32t-76.5 -13zM425 225q-96 -2 -146 -27.5t-50 -62.5q0 -21 15 -33.5t41 -12.5q40 0 80 24.5t60 55.5v56zM414 545h-62l-183 169h195z" />
    <glyph glyph-name="aacute" unicode="&#xe1;" horiz-adv-x="723" 
d="M595 -12q-59 0 -101.5 36t-42.5 111v7q-24 -65 -88.5 -109.5t-147.5 -44.5q-75 0 -120 31t-45 95q0 34 13 60t39 43.5t57.5 29t77 18.5t88.5 10t100 5v23q0 37 -21.5 55.5t-71.5 18.5q-54 0 -96.5 -23t-66.5 -65l-99 76q80 123 271 123q122 0 190.5 -46.5t68.5 -133.5
q0 -8 -2 -34l-7 -94q-2 -24 -2 -32q0 -45 47 -45q34 0 66 18l31 -88q-22 -19 -61.5 -32t-76.5 -13zM425 225q-96 -2 -146 -27.5t-50 -62.5q0 -21 15 -33.5t41 -12.5q40 0 80 24.5t60 55.5v56zM351 545h-62l50 169h195z" />
    <glyph glyph-name="acircumflex" unicode="&#xe2;" horiz-adv-x="723" 
d="M595 -12q-59 0 -101.5 36t-42.5 111v7q-24 -65 -88.5 -109.5t-147.5 -44.5q-75 0 -120 31t-45 95q0 34 13 60t39 43.5t57.5 29t77 18.5t88.5 10t100 5v23q0 37 -21.5 55.5t-71.5 18.5q-54 0 -96.5 -23t-66.5 -65l-99 76q80 123 271 123q122 0 190.5 -46.5t68.5 -133.5
q0 -8 -2 -34l-7 -94q-2 -24 -2 -32q0 -45 47 -45q34 0 66 18l31 -88q-22 -19 -61.5 -32t-76.5 -13zM425 225q-96 -2 -146 -27.5t-50 -62.5q0 -21 15 -33.5t41 -12.5q40 0 80 24.5t60 55.5v56zM560 545h-81l-125 77l-127 -77h-81l134 169h146z" />
    <glyph glyph-name="atilde" unicode="&#xe3;" horiz-adv-x="723" 
d="M595 -12q-59 0 -101.5 36t-42.5 111v7q-24 -65 -88.5 -109.5t-147.5 -44.5q-75 0 -120 31t-45 95q0 34 13 60t39 43.5t57.5 29t77 18.5t88.5 10t100 5v23q0 37 -21.5 55.5t-71.5 18.5q-54 0 -96.5 -23t-66.5 -65l-99 76q80 123 271 123q122 0 190.5 -46.5t68.5 -133.5
q0 -8 -2 -34l-7 -94q-2 -24 -2 -32q0 -45 47 -45q34 0 66 18l31 -88q-22 -19 -61.5 -32t-76.5 -13zM425 225q-96 -2 -146 -27.5t-50 -62.5q0 -21 15 -33.5t41 -12.5q40 0 80 24.5t60 55.5v56zM421 545q-26 0 -75 24t-70 24q-32 0 -45 -48h-63q8 80 36.5 118t81.5 38
q30 0 74.5 -22.5t69.5 -22.5q18 0 28.5 14t11.5 34h66q-13 -159 -115 -159z" />
    <glyph glyph-name="adieresis" unicode="&#xe4;" horiz-adv-x="723" 
d="M595 -12q-59 0 -101.5 36t-42.5 111v7q-24 -65 -88.5 -109.5t-147.5 -44.5q-75 0 -120 31t-45 95q0 34 13 60t39 43.5t57.5 29t77 18.5t88.5 10t100 5v23q0 37 -21.5 55.5t-71.5 18.5q-54 0 -96.5 -23t-66.5 -65l-99 76q80 123 271 123q122 0 190.5 -46.5t68.5 -133.5
q0 -8 -2 -34l-7 -94q-2 -24 -2 -32q0 -45 47 -45q34 0 66 18l31 -88q-22 -19 -61.5 -32t-76.5 -13zM425 225q-96 -2 -146 -27.5t-50 -62.5q0 -21 15 -33.5t41 -12.5q40 0 80 24.5t60 55.5v56zM310 547h-164v119h164v-119zM554 547h-164v119h164v-119z" />
    <glyph glyph-name="aring" unicode="&#xe5;" horiz-adv-x="723" 
d="M595 -12q-59 0 -101.5 36t-42.5 111v7q-24 -65 -88.5 -109.5t-147.5 -44.5q-75 0 -120 31t-45 95q0 34 13 60t39 43.5t57.5 29t77 18.5t88.5 10t100 5v23q0 37 -21.5 55.5t-71.5 18.5q-54 0 -96.5 -23t-66.5 -65l-99 76q80 123 271 123q122 0 190.5 -46.5t68.5 -133.5
q0 -8 -2 -34l-7 -94q-2 -24 -2 -32q0 -45 47 -45q34 0 66 18l31 -88q-22 -19 -61.5 -32t-76.5 -13zM425 225q-96 -2 -146 -27.5t-50 -62.5q0 -21 15 -33.5t41 -12.5q40 0 80 24.5t60 55.5v56zM286 629q0 -26 18 -44t48 -18q28 0 44.5 18t16.5 44q0 28 -16.5 46.5t-44.5 18.5
q-30 0 -48 -18.5t-18 -46.5zM215 629q0 52 38 86.5t99 34.5q59 0 96.5 -34.5t37.5 -86.5q0 -51 -37.5 -84.5t-96.5 -33.5q-61 0 -99 33.5t-38 84.5z" />
    <glyph glyph-name="ae" unicode="&#xe6;" horiz-adv-x="1021" 
d="M341 488q117 0 180 -61q68 61 184 61t191 -59.5t75 -172.5q0 -22 -3 -44h-396q10 -54 48.5 -82.5t98.5 -28.5q56 0 87.5 22t52.5 62l97 -74q-28 -54 -90.5 -88.5t-148.5 -34.5q-54 0 -102.5 15t-90 51t-62.5 90q-17 -75 -89 -115.5t-152 -40.5q-83 0 -127 32t-44 94
q0 34 13 60t39 43.5t57.5 29t77 18.5t88.5 10t100 5v13q0 84 -93 84q-54 0 -96.5 -23t-66.5 -65l-99 76q80 123 271 123zM290 89q36 0 73.5 20.5t61.5 52.5v63q-96 -2 -146 -27.5t-50 -62.5q0 -21 16 -33.5t45 -12.5zM694 386q-52 0 -82.5 -28t-38.5 -77h225
q0 44 -26.5 74.5t-77.5 30.5z" />
    <glyph glyph-name="ccedilla" unicode="&#xe7;" horiz-adv-x="662" 
d="M346 -201q-73 0 -126 36l30 54q49 -28 90 -28q56 0 56 33q0 28 -45 28q-30 0 -51 -16l-48 27l38 59q-108 14 -174 75t-66 171q0 65 25.5 115t70 78.5t98.5 42.5t117 14q90 0 154 -37t94 -86l-99 -76q-20 37 -57.5 61.5t-84.5 24.5q-69 0 -104.5 -38.5t-35.5 -98.5
t36.5 -98.5t102.5 -38.5q51 0 90 24t58 60l99 -74q-30 -49 -97.5 -86t-163.5 -37h-5l-20 -35q20 10 52 10q44 0 71.5 -20t27.5 -54q0 -41 -36.5 -65.5t-96.5 -24.5z" />
    <glyph glyph-name="egrave" unicode="&#xe8;" horiz-adv-x="696" 
d="M643 212h-416q10 -54 48.5 -82.5t98.5 -28.5q58 0 99 23.5t61 60.5l97 -74q-27 -52 -100.5 -87.5t-169.5 -35.5q-63 0 -117.5 14t-98.5 42.5t-69.5 78.5t-25.5 115q0 88 44.5 145.5t112.5 81t156 23.5q128 0 205.5 -59t77.5 -173q0 -22 -3 -44zM359 386q-114 0 -131 -105
h245q0 44 -28.5 74.5t-85.5 30.5zM408 545h-62l-183 169h195z" />
    <glyph glyph-name="eacute" unicode="&#xe9;" horiz-adv-x="696" 
d="M643 212h-416q10 -54 48.5 -82.5t98.5 -28.5q58 0 99 23.5t61 60.5l97 -74q-27 -52 -100.5 -87.5t-169.5 -35.5q-63 0 -117.5 14t-98.5 42.5t-69.5 78.5t-25.5 115q0 88 44.5 145.5t112.5 81t156 23.5q128 0 205.5 -59t77.5 -173q0 -22 -3 -44zM359 386q-114 0 -131 -105
h245q0 44 -28.5 74.5t-85.5 30.5zM345 545h-62l50 169h195z" />
    <glyph glyph-name="ecircumflex" unicode="&#xea;" horiz-adv-x="696" 
d="M643 212h-416q10 -54 48.5 -82.5t98.5 -28.5q58 0 99 23.5t61 60.5l97 -74q-27 -52 -100.5 -87.5t-169.5 -35.5q-63 0 -117.5 14t-98.5 42.5t-69.5 78.5t-25.5 115q0 88 44.5 145.5t112.5 81t156 23.5q128 0 205.5 -59t77.5 -173q0 -22 -3 -44zM359 386q-114 0 -131 -105
h245q0 44 -28.5 74.5t-85.5 30.5zM554 545h-81l-125 77l-127 -77h-81l134 169h146z" />
    <glyph glyph-name="edieresis" unicode="&#xeb;" horiz-adv-x="696" 
d="M643 212h-416q10 -54 48.5 -82.5t98.5 -28.5q58 0 99 23.5t61 60.5l97 -74q-27 -52 -100.5 -87.5t-169.5 -35.5q-63 0 -117.5 14t-98.5 42.5t-69.5 78.5t-25.5 115q0 88 44.5 145.5t112.5 81t156 23.5q128 0 205.5 -59t77.5 -173q0 -22 -3 -44zM359 386q-114 0 -131 -105
h245q0 44 -28.5 74.5t-85.5 30.5zM304 547h-164v119h164v-119zM548 547h-164v119h164v-119z" />
    <glyph glyph-name="igrave" unicode="&#xec;" horiz-adv-x="347" 
d="M260 0h-173v458h173v-458zM236 545h-62l-183 169h195z" />
    <glyph glyph-name="iacute" unicode="&#xed;" horiz-adv-x="347" 
d="M260 0h-173v458h173v-458zM173 545h-62l50 169h195z" />
    <glyph glyph-name="icircumflex" unicode="&#xee;" horiz-adv-x="347" 
d="M260 0h-173v458h173v-458zM381 545h-81l-125 77l-127 -77h-81l134 169h146z" />
    <glyph glyph-name="idieresis" unicode="&#xef;" horiz-adv-x="347" 
d="M260 0h-173v458h173v-458zM133 547h-164v119h164v-119zM377 547h-164v119h164v-119z" />
    <glyph glyph-name="eth" unicode="&#xf0;" horiz-adv-x="676" 
d="M294 419l-40 54l88 60q-53 22 -117 22q-40 0 -79 -13l-17 101q51 13 110 13q128 0 218 -45l96 65l41 -53l-76 -52q113 -93 113 -265q0 -148 -83 -233t-233 -85q-122 0 -196 56.5t-74 155.5q0 65 36.5 112.5t84.5 67t99 19.5q61 0 114 -21.5t85 -63.5q1 8 1 21
q0 99 -62 158zM328 98q53 0 91.5 41t38.5 116q-42 52 -129 52q-55 0 -85.5 -28.5t-30.5 -79.5q0 -44 30.5 -72.5t84.5 -28.5z" />
    <glyph glyph-name="ntilde" unicode="&#xf1;" horiz-adv-x="723" 
d="M650 0h-173v252q0 58 -25.5 92t-76.5 34q-71 0 -115 -71v-307h-173v476h109l38 -142q42 154 204 154q91 0 151.5 -53.5t60.5 -164.5v-270zM447 545q-26 0 -75 24t-70 24q-32 0 -45 -48h-63q8 80 36.5 118t81.5 38q30 0 74.5 -22.5t69.5 -22.5q18 0 28.5 14t11.5 34h66
q-13 -159 -115 -159z" />
    <glyph glyph-name="ograve" unicode="&#xf2;" horiz-adv-x="721" 
d="M361 96q64 0 98 40t34 102t-34 102t-99 40q-64 0 -98 -40t-34 -102t34 -102t99 -40zM360 488q63 0 117 -14t98.5 -42.5t70 -78.5t25.5 -115t-25.5 -115t-69.5 -78.5t-98 -42.5t-117 -14t-117 14t-98.5 42.5t-70 78.5t-25.5 115t25.5 115t69.5 78.5t98 42.5t117 14z
M423 545h-62l-183 169h195z" />
    <glyph glyph-name="oacute" unicode="&#xf3;" horiz-adv-x="721" 
d="M361 96q64 0 98 40t34 102t-34 102t-99 40q-64 0 -98 -40t-34 -102t34 -102t99 -40zM360 488q63 0 117 -14t98.5 -42.5t70 -78.5t25.5 -115t-25.5 -115t-69.5 -78.5t-98 -42.5t-117 -14t-117 14t-98.5 42.5t-70 78.5t-25.5 115t25.5 115t69.5 78.5t98 42.5t117 14z
M360 545h-62l50 169h195z" />
    <glyph glyph-name="ocircumflex" unicode="&#xf4;" horiz-adv-x="721" 
d="M361 96q64 0 98 40t34 102t-34 102t-99 40q-64 0 -98 -40t-34 -102t34 -102t99 -40zM360 488q63 0 117 -14t98.5 -42.5t70 -78.5t25.5 -115t-25.5 -115t-69.5 -78.5t-98 -42.5t-117 -14t-117 14t-98.5 42.5t-70 78.5t-25.5 115t25.5 115t69.5 78.5t98 42.5t117 14z
M569 545h-81l-125 77l-127 -77h-81l134 169h146z" />
    <glyph glyph-name="otilde" unicode="&#xf5;" horiz-adv-x="721" 
d="M361 96q64 0 98 40t34 102t-34 102t-99 40q-64 0 -98 -40t-34 -102t34 -102t99 -40zM360 488q63 0 117 -14t98.5 -42.5t70 -78.5t25.5 -115t-25.5 -115t-69.5 -78.5t-98 -42.5t-117 -14t-117 14t-98.5 42.5t-70 78.5t-25.5 115t25.5 115t69.5 78.5t98 42.5t117 14z
M430 545q-26 0 -75 24t-70 24q-32 0 -45 -48h-63q8 80 36.5 118t81.5 38q30 0 74.5 -22.5t69.5 -22.5q18 0 28.5 14t11.5 34h66q-13 -159 -115 -159z" />
    <glyph glyph-name="odieresis" unicode="&#xf6;" horiz-adv-x="721" 
d="M361 96q64 0 98 40t34 102t-34 102t-99 40q-64 0 -98 -40t-34 -102t34 -102t99 -40zM360 488q63 0 117 -14t98.5 -42.5t70 -78.5t25.5 -115t-25.5 -115t-69.5 -78.5t-98 -42.5t-117 -14t-117 14t-98.5 42.5t-70 78.5t-25.5 115t25.5 115t69.5 78.5t98 42.5t117 14z
M319 547h-164v119h164v-119zM563 547h-164v119h164v-119z" />
    <glyph glyph-name="divide" unicode="&#xf7;" 
d="M75 215v116h550v-116h-550zM440 0h-180v105h180v-105zM440 441h-180v105h180v-105z" />
    <glyph glyph-name="oslash" unicode="&#xf8;" horiz-adv-x="721" 
d="M360 488q63 0 115 -13l50 73h105l-72 -106q113 -65 113 -204q0 -65 -25.5 -115t-69.5 -78.5t-98 -42.5t-117 -14q-51 0 -103 11l-47 -71h-106l67 100q-122 64 -122 210q0 65 25.5 115t69.5 78.5t98 42.5t117 14zM220 238q0 -66 35 -104l164 240q-27 11 -59 11
q-68 0 -104 -41.5t-36 -105.5zM361 91q68 0 104 41.5t36 105.5q0 55 -27 94l-160 -235q21 -6 47 -6z" />
    <glyph glyph-name="ugrave" unicode="&#xf9;" horiz-adv-x="713" 
d="M626 0h-109l-38 142q-16 -68 -66 -111t-134 -43q-88 0 -147 53.5t-59 164.5v270h173v-252q0 -58 24.5 -92t72.5 -34q68 0 110 71v307h173v-476zM411 545h-62l-183 169h195z" />
    <glyph glyph-name="uacute" unicode="&#xfa;" horiz-adv-x="713" 
d="M626 0h-109l-38 142q-16 -68 -66 -111t-134 -43q-88 0 -147 53.5t-59 164.5v270h173v-252q0 -58 24.5 -92t72.5 -34q68 0 110 71v307h173v-476zM348 545h-62l50 169h195z" />
    <glyph glyph-name="ucircumflex" unicode="&#xfb;" horiz-adv-x="713" 
d="M626 0h-109l-38 142q-16 -68 -66 -111t-134 -43q-88 0 -147 53.5t-59 164.5v270h173v-252q0 -58 24.5 -92t72.5 -34q68 0 110 71v307h173v-476zM557 545h-81l-125 77l-127 -77h-81l134 169h146z" />
    <glyph glyph-name="udieresis" unicode="&#xfc;" horiz-adv-x="713" 
d="M626 0h-109l-38 142q-16 -68 -66 -111t-134 -43q-88 0 -147 53.5t-59 164.5v270h173v-252q0 -58 24.5 -92t72.5 -34q68 0 110 71v307h173v-476zM307 547h-164v119h164v-119zM551 547h-164v119h164v-119z" />
    <glyph glyph-name="yacute" unicode="&#xfd;" horiz-adv-x="648" 
d="M628 476l-232 -516q-36 -79 -86 -112t-126 -33q-35 0 -75 11t-64 26l35 99q42 -20 79 -20q62 0 84 46l15 30l-238 469h185l127 -307l109 307h187zM329 545h-62l50 169h195z" />
    <glyph glyph-name="thorn" unicode="&#xfe;" horiz-adv-x="724" 
d="M438 -12q-72 0 -119 43t-59 93v-297h-173v843h56q67 0 117 14v-330q15 55 63.5 94.5t121.5 39.5q96 0 162.5 -64t66.5 -182q0 -114 -63.5 -184t-172.5 -70zM380 98q53 0 84.5 42t31.5 102t-31 98t-85 38q-77 0 -120 -82v-117q47 -81 120 -81z" />
    <glyph glyph-name="ydieresis" unicode="&#xff;" horiz-adv-x="648" 
d="M628 476l-232 -516q-36 -79 -86 -112t-126 -33q-35 0 -75 11t-64 26l35 99q42 -20 79 -20q62 0 84 46l15 30l-238 469h185l127 -307l109 307h187zM288 547h-164v119h164v-119zM532 547h-164v119h164v-119z" />
    <glyph glyph-name="Amacron" unicode="&#x100;" horiz-adv-x="777" 
d="M565 0l-39 113h-284l-40 -113h-189l268 627h220l263 -627h-199zM386 487l-101 -255h199zM541 717h-302v99h302v-99z" />
    <glyph glyph-name="amacron" unicode="&#x101;" horiz-adv-x="723" 
d="M595 -12q-59 0 -101.5 36t-42.5 111v7q-24 -65 -88.5 -109.5t-147.5 -44.5q-75 0 -120 31t-45 95q0 34 13 60t39 43.5t57.5 29t77 18.5t88.5 10t100 5v23q0 37 -21.5 55.5t-71.5 18.5q-54 0 -96.5 -23t-66.5 -65l-99 76q80 123 271 123q122 0 190.5 -46.5t68.5 -133.5
q0 -8 -2 -34l-7 -94q-2 -24 -2 -32q0 -45 47 -45q34 0 66 18l31 -88q-22 -19 -61.5 -32t-76.5 -13zM425 225q-96 -2 -146 -27.5t-50 -62.5q0 -21 15 -33.5t41 -12.5q40 0 80 24.5t60 55.5v56zM502 566h-302v99h302v-99z" />
    <glyph glyph-name="Abreve" unicode="&#x102;" horiz-adv-x="777" 
d="M565 0l-39 113h-284l-40 -113h-189l268 627h220l263 -627h-199zM386 487l-101 -255h199zM480 858h76q0 -85 -44 -129t-125 -44q-79 0 -122 44t-43 129h75q0 -37 25.5 -56.5t64.5 -19.5q40 0 66.5 19.5t26.5 56.5z" />
    <glyph glyph-name="abreve" unicode="&#x103;" horiz-adv-x="723" 
d="M595 -12q-59 0 -101.5 36t-42.5 111v7q-24 -65 -88.5 -109.5t-147.5 -44.5q-75 0 -120 31t-45 95q0 34 13 60t39 43.5t57.5 29t77 18.5t88.5 10t100 5v23q0 37 -21.5 55.5t-71.5 18.5q-54 0 -96.5 -23t-66.5 -65l-99 76q80 123 271 123q122 0 190.5 -46.5t68.5 -133.5
q0 -8 -2 -34l-7 -94q-2 -24 -2 -32q0 -45 47 -45q34 0 66 18l31 -88q-22 -19 -61.5 -32t-76.5 -13zM425 225q-96 -2 -146 -27.5t-50 -62.5q0 -21 15 -33.5t41 -12.5q40 0 80 24.5t60 55.5v56zM444 707h76q0 -85 -44 -129t-125 -44q-79 0 -122 44t-43 129h75
q0 -37 25.5 -56.5t64.5 -19.5q40 0 66.5 19.5t26.5 56.5z" />
    <glyph glyph-name="Aogonek" unicode="&#x104;" horiz-adv-x="777" 
d="M501 627l263 -627q-102 -53 -102 -91q0 -31 47 -31q33 0 59 17l32 -66q-39 -29 -103 -29q-56 0 -89.5 20.5t-33.5 57.5q0 34 35 67t84 55h-128l-39 113h-284l-40 -113h-189l268 627h220zM386 487l-101 -255h199z" />
    <glyph glyph-name="aogonek" unicode="&#x105;" horiz-adv-x="723" 
d="M733 33q-18 -16 -80 -41q-38 -15 -65 -36.5t-27 -46.5q0 -31 47 -31q33 0 59 17l32 -66q-39 -29 -103 -29q-55 0 -89 20.5t-34 57.5q0 30 27.5 60t69.5 52q-51 7 -85 43t-34 102v7q-24 -65 -88.5 -109.5t-147.5 -44.5q-75 0 -120 31t-45 95q0 34 13 60t39 43.5t57.5 29
t77 18.5t88.5 10t100 5v23q0 37 -21.5 55.5t-71.5 18.5q-54 0 -96.5 -23t-66.5 -65l-99 76q80 123 271 123q122 0 190.5 -46.5t68.5 -133.5q0 -8 -2 -34l-7 -94q-2 -24 -2 -32q0 -45 47 -45q34 0 66 18zM425 225q-96 -2 -146 -27.5t-50 -62.5q0 -21 15 -33.5t41 -12.5
q40 0 80 24.5t60 55.5v56z" />
    <glyph glyph-name="Cacute" unicode="&#x106;" horiz-adv-x="797" 
d="M232 314q0 -85 53.5 -135t145.5 -50q64 0 117 35t75 83l127 -88q-41 -74 -125.5 -122.5t-205.5 -48.5q-169 0 -269 86.5t-100 239.5q0 152 103 238.5t276 86.5q112 0 191 -48t120 -122l-127 -88q-22 50 -71.5 83.5t-119.5 33.5q-85 0 -137.5 -50t-52.5 -134zM413 696h-62
l50 169h195z" />
    <glyph glyph-name="cacute" unicode="&#x107;" horiz-adv-x="662" 
d="M228 238q0 -60 36.5 -98.5t102.5 -38.5q51 0 90 24t58 60l99 -74q-30 -49 -97.5 -86t-163.5 -37q-86 0 -152 24.5t-108.5 82.5t-42.5 143q0 65 25.5 115t70 78.5t98.5 42.5t117 14q90 0 154 -37t94 -86l-99 -76q-20 37 -57.5 61.5t-84.5 24.5q-69 0 -104.5 -38.5
t-35.5 -98.5zM341 545h-62l50 169h195z" />
    <glyph glyph-name="Ccircumflex" unicode="&#x108;" horiz-adv-x="797" 
d="M232 314q0 -85 53.5 -135t145.5 -50q64 0 117 35t75 83l127 -88q-41 -74 -125.5 -122.5t-205.5 -48.5q-169 0 -269 86.5t-100 239.5q0 152 103 238.5t276 86.5q112 0 191 -48t120 -122l-127 -88q-22 50 -71.5 83.5t-119.5 33.5q-85 0 -137.5 -50t-52.5 -134zM622 696h-81
l-125 77l-127 -77h-81l134 169h146z" />
    <glyph glyph-name="ccircumflex" unicode="&#x109;" horiz-adv-x="662" 
d="M228 238q0 -60 36.5 -98.5t102.5 -38.5q51 0 90 24t58 60l99 -74q-30 -49 -97.5 -86t-163.5 -37q-86 0 -152 24.5t-108.5 82.5t-42.5 143q0 65 25.5 115t70 78.5t98.5 42.5t117 14q90 0 154 -37t94 -86l-99 -76q-20 37 -57.5 61.5t-84.5 24.5q-69 0 -104.5 -38.5
t-35.5 -98.5zM550 545h-81l-125 77l-127 -77h-81l134 169h146z" />
    <glyph glyph-name="Cdotaccent" unicode="&#x10a;" horiz-adv-x="797" 
d="M232 314q0 -85 53.5 -135t145.5 -50q64 0 117 35t75 83l127 -88q-41 -74 -125.5 -122.5t-205.5 -48.5q-169 0 -269 86.5t-100 239.5q0 152 103 238.5t276 86.5q112 0 191 -48t120 -122l-127 -88q-22 50 -71.5 83.5t-119.5 33.5q-85 0 -137.5 -50t-52.5 -134zM513 707
h-199v119h199v-119z" />
    <glyph glyph-name="cdotaccent" unicode="&#x10b;" horiz-adv-x="662" 
d="M228 238q0 -60 36.5 -98.5t102.5 -38.5q51 0 90 24t58 60l99 -74q-30 -49 -97.5 -86t-163.5 -37q-86 0 -152 24.5t-108.5 82.5t-42.5 143q0 65 25.5 115t70 78.5t98.5 42.5t117 14q90 0 154 -37t94 -86l-99 -76q-20 37 -57.5 61.5t-84.5 24.5q-69 0 -104.5 -38.5
t-35.5 -98.5zM441 556h-199v119h199v-119z" />
    <glyph glyph-name="Ccaron" unicode="&#x10c;" horiz-adv-x="797" 
d="M232 314q0 -85 53.5 -135t145.5 -50q64 0 117 35t75 83l127 -88q-41 -74 -125.5 -122.5t-205.5 -48.5q-169 0 -269 86.5t-100 239.5q0 152 103 238.5t276 86.5q112 0 191 -48t120 -122l-127 -88q-22 50 -71.5 83.5t-119.5 33.5q-85 0 -137.5 -50t-52.5 -134zM538 865h81
l-134 -169h-146l-134 169h81l127 -77z" />
    <glyph glyph-name="ccaron" unicode="&#x10d;" horiz-adv-x="662" 
d="M228 238q0 -60 36.5 -98.5t102.5 -38.5q51 0 90 24t58 60l99 -74q-30 -49 -97.5 -86t-163.5 -37q-86 0 -152 24.5t-108.5 82.5t-42.5 143q0 65 25.5 115t70 78.5t98.5 42.5t117 14q90 0 154 -37t94 -86l-99 -76q-20 37 -57.5 61.5t-84.5 24.5q-69 0 -104.5 -38.5
t-35.5 -98.5zM466 714h81l-134 -169h-146l-134 169h81l127 -77z" />
    <glyph glyph-name="Dcaron" unicode="&#x10e;" horiz-adv-x="824" 
d="M440 0h-348v627h335q76 0 137.5 -18t109 -55t74 -98.5t26.5 -143.5q0 -149 -95.5 -230.5t-238.5 -81.5zM416 134q81 0 128 44t47 134t-44 135.5t-123 45.5h-154v-359h146zM541 865h81l-134 -169h-146l-134 169h81l127 -77z" />
    <glyph glyph-name="dcaron" unicode="&#x10f;" horiz-adv-x="733" 
d="M637 0h-109l-38 142q-15 -67 -65 -110.5t-140 -43.5q-109 0 -172 70t-63 184q0 118 66.5 182t162.5 64q75 0 123 -37t62 -97v316h56q66 0 117 14v-684zM464 169v127q-43 82 -123 82q-52 0 -82.5 -38t-30.5 -98t31.5 -102t86.5 -42q72 0 118 71zM700 444l32 225h160
l-126 -225h-66z" />
    <glyph glyph-name="Dcroat" unicode="&#x110;" horiz-adv-x="842" 
d="M458 0h-348v257h-75v113h75v257h335q76 0 137.5 -18t109 -55t74 -98.5t26.5 -143.5q0 -149 -95.5 -230.5t-238.5 -81.5zM434 134q81 0 128 44t47 134t-44 135.5t-123 45.5h-154v-123h137v-113h-137v-123h146z" />
    <glyph glyph-name="dcroat" unicode="&#x111;" horiz-adv-x="724" 
d="M464 670h56q65 0 117 14v-102h70v-72h-70v-510h-109l-38 142q-15 -67 -65 -110.5t-140 -43.5q-109 0 -172 70t-63 184q0 118 66.5 182t162.5 64q75 0 123 -37t62 -97v156h-114v72h114v88zM464 169v127q-43 82 -123 82q-52 0 -82.5 -38t-30.5 -98t31.5 -102t86.5 -42
q72 0 118 71z" />
    <glyph glyph-name="Emacron" unicode="&#x112;" horiz-adv-x="746" 
d="M691 0h-599v627h579v-142h-401v-107h312v-128h-312v-108h421v-142zM534 717h-302v99h302v-99z" />
    <glyph glyph-name="emacron" unicode="&#x113;" horiz-adv-x="696" 
d="M643 212h-416q10 -54 48.5 -82.5t98.5 -28.5q58 0 99 23.5t61 60.5l97 -74q-27 -52 -100.5 -87.5t-169.5 -35.5q-63 0 -117.5 14t-98.5 42.5t-69.5 78.5t-25.5 115q0 88 44.5 145.5t112.5 81t156 23.5q128 0 205.5 -59t77.5 -173q0 -22 -3 -44zM359 386q-114 0 -131 -105
h245q0 44 -28.5 74.5t-85.5 30.5zM496 566h-302v99h302v-99z" />
    <glyph glyph-name="Ebreve" unicode="&#x114;" horiz-adv-x="746" 
d="M691 0h-599v627h579v-142h-401v-107h312v-128h-312v-108h421v-142zM476 858h76q0 -85 -44 -129t-125 -44q-79 0 -122 44t-43 129h75q0 -37 25.5 -56.5t64.5 -19.5q40 0 66.5 19.5t26.5 56.5z" />
    <glyph glyph-name="ebreve" unicode="&#x115;" horiz-adv-x="696" 
d="M643 212h-416q10 -54 48.5 -82.5t98.5 -28.5q58 0 99 23.5t61 60.5l97 -74q-27 -52 -100.5 -87.5t-169.5 -35.5q-63 0 -117.5 14t-98.5 42.5t-69.5 78.5t-25.5 115q0 88 44.5 145.5t112.5 81t156 23.5q128 0 205.5 -59t77.5 -173q0 -22 -3 -44zM359 386q-114 0 -131 -105
h245q0 44 -28.5 74.5t-85.5 30.5zM438 707h76q0 -85 -44 -129t-125 -44q-79 0 -122 44t-43 129h75q0 -37 25.5 -56.5t64.5 -19.5q40 0 66.5 19.5t26.5 56.5z" />
    <glyph glyph-name="Edotaccent" unicode="&#x116;" horiz-adv-x="746" 
d="M691 0h-599v627h579v-142h-401v-107h312v-128h-312v-108h421v-142zM483 707h-199v119h199v-119z" />
    <glyph glyph-name="edotaccent" unicode="&#x117;" horiz-adv-x="696" 
d="M643 212h-416q10 -54 48.5 -82.5t98.5 -28.5q58 0 99 23.5t61 60.5l97 -74q-27 -52 -100.5 -87.5t-169.5 -35.5q-63 0 -117.5 14t-98.5 42.5t-69.5 78.5t-25.5 115q0 88 44.5 145.5t112.5 81t156 23.5q128 0 205.5 -59t77.5 -173q0 -22 -3 -44zM359 386q-114 0 -131 -105
h245q0 44 -28.5 74.5t-85.5 30.5zM445 556h-199v119h199v-119z" />
    <glyph glyph-name="Eogonek" unicode="&#x118;" horiz-adv-x="746" 
d="M620 0h-528v627h579v-142h-401v-107h312v-128h-312v-108h421v-142q-102 -53 -102 -91q0 -31 47 -31q33 0 59 17l32 -66q-39 -29 -103 -29q-56 0 -89.5 20.5t-33.5 57.5q0 34 35 67t84 55z" />
    <glyph glyph-name="eogonek" unicode="&#x119;" horiz-adv-x="696" 
d="M643 212h-416q10 -54 48.5 -82.5t98.5 -28.5q58 0 99 23.5t61 60.5l97 -74q-17 -33 -57 -63q-17 -14 -64.5 -41.5t-75 -50.5t-27.5 -47q0 -31 47 -31q33 0 59 17l32 -66q-39 -29 -103 -29q-56 0 -89.5 20.5t-33.5 57.5q0 31 29 61.5t72 52.5q-38 -4 -59 -4
q-63 0 -117.5 14t-98.5 42.5t-69.5 78.5t-25.5 115q0 88 44.5 145.5t112.5 81t156 23.5q128 0 205.5 -59t77.5 -173q0 -22 -3 -44zM359 386q-114 0 -131 -105h245q0 44 -28.5 74.5t-85.5 30.5z" />
    <glyph glyph-name="Ecaron" unicode="&#x11a;" horiz-adv-x="746" 
d="M691 0h-599v627h579v-142h-401v-107h312v-128h-312v-108h421v-142zM508 865h81l-134 -169h-146l-134 169h81l127 -77z" />
    <glyph glyph-name="ecaron" unicode="&#x11b;" horiz-adv-x="696" 
d="M643 212h-416q10 -54 48.5 -82.5t98.5 -28.5q58 0 99 23.5t61 60.5l97 -74q-27 -52 -100.5 -87.5t-169.5 -35.5q-63 0 -117.5 14t-98.5 42.5t-69.5 78.5t-25.5 115q0 88 44.5 145.5t112.5 81t156 23.5q128 0 205.5 -59t77.5 -173q0 -22 -3 -44zM359 386q-114 0 -131 -105
h245q0 44 -28.5 74.5t-85.5 30.5zM470 714h81l-134 -169h-146l-134 169h81l127 -77z" />
    <glyph glyph-name="Gcircumflex" unicode="&#x11c;" horiz-adv-x="861" 
d="M786 0h-108l-38 140q-24 -61 -90 -106.5t-167 -45.5q-145 0 -239 83.5t-94 234.5q0 160 102.5 246.5t278.5 86.5q118 0 202 -48.5t124 -121.5l-129 -88q-22 49 -75 83t-122 34q-91 0 -145 -50t-54 -138q0 -85 55.5 -132.5t141.5 -47.5q70 0 116.5 28.5t64.5 72.5h-218
v113h394v-344zM630 696h-81l-125 77l-127 -77h-81l134 169h146z" />
    <glyph glyph-name="gcircumflex" unicode="&#x11d;" horiz-adv-x="727" 
d="M527 565h-81l-95 77l-97 -77h-81l104 169h146zM360 -185q-308 0 -308 90q0 36 41.5 58t108.5 26q-146 27 -146 109q0 41 35.5 67t91.5 37q-47 16 -77 48t-30 81q0 45 26 77.5t68.5 49t85 23.5t87.5 7q94 0 165 -23q8 70 45.5 98.5t99.5 28.5q26 0 53 -4l-5 -120
q-30 5 -61 5q-68 0 -98 -21q90 -41 90 -122q0 -44 -25 -75t-68 -47t-88 -23t-97 -7q-77 0 -138 14q-10 -8 -10 -26q0 -52 126 -52q21 0 72.5 1.5t83.5 1.5q46 0 80.5 -5.5t66 -19.5t48 -41.5t16.5 -67.5q0 -168 -339 -168zM371 -129q173 0 173 61q0 42 -122 42
q-28 0 -69.5 1t-58.5 1q-108 0 -108 -46q0 -32 41.5 -45.5t143.5 -13.5zM351 240q45 0 71 26.5t26 66.5q0 39 -26 66.5t-71 27.5q-46 0 -72 -27t-26 -68q0 -40 26 -66t72 -26z" />
    <glyph glyph-name="Gbreve" unicode="&#x11e;" horiz-adv-x="861" 
d="M786 0h-108l-38 140q-24 -61 -90 -106.5t-167 -45.5q-145 0 -239 83.5t-94 234.5q0 160 102.5 246.5t278.5 86.5q118 0 202 -48.5t124 -121.5l-129 -88q-22 49 -75 83t-122 34q-91 0 -145 -50t-54 -138q0 -85 55.5 -132.5t141.5 -47.5q70 0 116.5 28.5t64.5 72.5h-218
v113h394v-344zM514 858h76q0 -85 -44 -129t-125 -44q-79 0 -122 44t-43 129h75q0 -37 25.5 -56.5t64.5 -19.5q40 0 66.5 19.5t26.5 56.5z" />
    <glyph glyph-name="gbreve" unicode="&#x11f;" horiz-adv-x="727" 
d="M360 -185q-308 0 -308 90q0 36 41.5 58t108.5 26q-146 27 -146 109q0 41 35.5 67t91.5 37q-47 16 -77 48t-30 81q0 45 26 77.5t68.5 49t85 23.5t87.5 7q94 0 165 -23q8 70 45.5 98.5t99.5 28.5q26 0 53 -4l-5 -120q-30 5 -61 5q-68 0 -98 -21q90 -41 90 -122
q0 -44 -25 -75t-68 -47t-88 -23t-97 -7q-77 0 -138 14q-10 -8 -10 -26q0 -52 126 -52q21 0 72.5 1.5t83.5 1.5q46 0 80.5 -5.5t66 -19.5t48 -41.5t16.5 -67.5q0 -168 -339 -168zM371 -129q173 0 173 61q0 42 -122 42q-28 0 -69.5 1t-58.5 1q-108 0 -108 -46
q0 -32 41.5 -45.5t143.5 -13.5zM351 240q45 0 71 26.5t26 66.5q0 39 -26 66.5t-71 27.5q-46 0 -72 -27t-26 -68q0 -40 26 -66t72 -26zM456 707h76q0 -85 -44 -129t-125 -44q-79 0 -122 44t-43 129h75q0 -37 25.5 -56.5t64.5 -19.5q40 0 66.5 19.5t26.5 56.5z" />
    <glyph glyph-name="Gdotaccent" unicode="&#x120;" horiz-adv-x="861" 
d="M786 0h-108l-38 140q-24 -61 -90 -106.5t-167 -45.5q-145 0 -239 83.5t-94 234.5q0 160 102.5 246.5t278.5 86.5q118 0 202 -48.5t124 -121.5l-129 -88q-22 49 -75 83t-122 34q-91 0 -145 -50t-54 -138q0 -85 55.5 -132.5t141.5 -47.5q70 0 116.5 28.5t64.5 72.5h-218
v113h394v-344zM521 707h-199v119h199v-119z" />
    <glyph glyph-name="gdotaccent" unicode="&#x121;" horiz-adv-x="727" 
d="M360 -185q-308 0 -308 90q0 36 41.5 58t108.5 26q-146 27 -146 109q0 41 35.5 67t91.5 37q-47 16 -77 48t-30 81q0 45 26 77.5t68.5 49t85 23.5t87.5 7q94 0 165 -23q8 70 45.5 98.5t99.5 28.5q26 0 53 -4l-5 -120q-30 5 -61 5q-68 0 -98 -21q90 -41 90 -122
q0 -44 -25 -75t-68 -47t-88 -23t-97 -7q-77 0 -138 14q-10 -8 -10 -26q0 -52 126 -52q21 0 72.5 1.5t83.5 1.5q46 0 80.5 -5.5t66 -19.5t48 -41.5t16.5 -67.5q0 -168 -339 -168zM371 -129q173 0 173 61q0 42 -122 42q-28 0 -69.5 1t-58.5 1q-108 0 -108 -46
q0 -32 41.5 -45.5t143.5 -13.5zM351 240q45 0 71 26.5t26 66.5q0 39 -26 66.5t-71 27.5q-46 0 -72 -27t-26 -68q0 -40 26 -66t72 -26zM463 556h-199v119h199v-119z" />
    <glyph glyph-name="Gcommaaccent" unicode="&#x122;" horiz-adv-x="861" 
d="M786 0h-108l-38 140q-24 -61 -90 -106.5t-167 -45.5q-145 0 -239 83.5t-94 234.5q0 160 102.5 246.5t278.5 86.5q118 0 202 -48.5t124 -121.5l-129 -88q-22 49 -75 83t-122 34q-91 0 -145 -50t-54 -138q0 -85 55.5 -132.5t141.5 -47.5q70 0 116.5 28.5t64.5 72.5h-218
v113h394v-344zM504 -174q0 -130 -159 -130v70q18 1 27.5 2.5t21.5 7t17.5 18.5t5.5 34v7h-71v110h158v-119z" />
    <glyph glyph-name="gcommaaccent" unicode="&#x123;" horiz-adv-x="727" 
d="M360 -185q-308 0 -308 90q0 36 41.5 58t108.5 26q-146 27 -146 109q0 41 35.5 67t91.5 37q-47 16 -77 48t-30 81q0 45 26 77.5t68.5 49t85 23.5t87.5 7q94 0 165 -23q8 70 45.5 98.5t99.5 28.5q26 0 53 -4l-5 -120q-30 5 -61 5q-68 0 -98 -21q90 -41 90 -122
q0 -44 -25 -75t-68 -47t-88 -23t-97 -7q-77 0 -138 14q-10 -8 -10 -26q0 -52 126 -52q21 0 72.5 1.5t83.5 1.5q46 0 80.5 -5.5t66 -19.5t48 -41.5t16.5 -67.5q0 -168 -339 -168zM371 -129q173 0 173 61q0 42 -122 42q-28 0 -69.5 1t-58.5 1q-108 0 -108 -46
q0 -32 41.5 -45.5t143.5 -13.5zM351 240q45 0 71 26.5t26 66.5q0 39 -26 66.5t-71 27.5q-46 0 -72 -27t-26 -68q0 -40 26 -66t72 -26zM283 551v119q0 130 159 130v-70q-18 -1 -27 -2.5t-21 -7t-17 -18.5t-5 -34v-7h69v-110h-158z" />
    <glyph glyph-name="Hcircumflex" unicode="&#x124;" horiz-adv-x="833" 
d="M741 0h-177v244h-294v-244h-178v627h178v-244h294v244h177v-627zM626 696h-81l-125 77l-127 -77h-81l134 169h146z" />
    <glyph glyph-name="hcircumflex" unicode="&#x125;" horiz-adv-x="723" 
d="M438 488q91 0 151.5 -53.5t60.5 -164.5v-270h-173v252q0 58 -25.5 92t-76.5 34q-77 0 -115 -82v-296h-173v670h55q70 0 118 14v-330q19 61 63.5 97.5t114.5 36.5zM382 705h-81l-125 77l-127 -77h-81l134 169h146z" />
    <glyph glyph-name="Hbar" unicode="&#x126;" horiz-adv-x="867" 
d="M758 0h-177v193h-294v-193h-178v416h-74v113h74v98h178v-103h294v103h177v-98h74v-113h-74v-416zM287 332h294v89h-294v-89z" />
    <glyph glyph-name="hbar" unicode="&#x127;" horiz-adv-x="723" 
d="M438 488q91 0 151.5 -53.5t60.5 -164.5v-270h-173v252q0 58 -25.5 92t-76.5 34q-77 0 -115 -82v-296h-173v510h-70v72h70v88h55q70 0 118 14v-102h114v-72h-114v-156q19 61 63.5 97.5t114.5 36.5z" />
    <glyph glyph-name="Itilde" unicode="&#x128;" horiz-adv-x="362" 
d="M270 0h-178v627h178v-627zM250 696q-26 0 -75 24t-70 24q-32 0 -45 -48h-63q8 80 36.5 118t81.5 38q30 0 74.5 -22.5t69.5 -22.5q18 0 28.5 14t11.5 34h66q-13 -159 -115 -159z" />
    <glyph glyph-name="itilde" unicode="&#x129;" horiz-adv-x="347" 
d="M260 0h-173v458h173v-458zM243 545q-26 0 -75 24t-70 24q-32 0 -45 -48h-63q8 80 36.5 118t81.5 38q30 0 74.5 -22.5t69.5 -22.5q18 0 28.5 14t11.5 34h66q-13 -159 -115 -159z" />
    <glyph glyph-name="Imacron" unicode="&#x12a;" horiz-adv-x="362" 
d="M270 0h-178v627h178v-627zM332 717h-302v99h302v-99z" />
    <glyph glyph-name="imacron" unicode="&#x12b;" horiz-adv-x="347" 
d="M260 0h-173v458h173v-458zM324 566h-302v99h302v-99z" />
    <glyph glyph-name="Ibreve" unicode="&#x12c;" horiz-adv-x="362" 
d="M270 0h-178v627h178v-627zM272 858h76q0 -85 -44 -129t-125 -44q-79 0 -122 44t-43 129h75q0 -37 25.5 -56.5t64.5 -19.5q40 0 66.5 19.5t26.5 56.5z" />
    <glyph glyph-name="ibreve" unicode="&#x12d;" horiz-adv-x="347" 
d="M260 0h-173v458h173v-458zM264 707h76q0 -85 -44 -129t-125 -44q-79 0 -122 44t-43 129h75q0 -37 25.5 -56.5t64.5 -19.5q40 0 66.5 19.5t26.5 56.5z" />
    <glyph glyph-name="Iogonek" unicode="&#x12e;" horiz-adv-x="362" 
d="M199 0h-107v627h178v-627q-102 -53 -102 -91q0 -31 47 -31q33 0 59 17l32 -66q-39 -29 -103 -29q-56 0 -89.5 20.5t-33.5 57.5q0 34 35 67t84 55z" />
    <glyph glyph-name="iogonek" unicode="&#x12f;" horiz-adv-x="347" 
d="M189 0h-102v458h173v-458q-102 -53 -102 -91q0 -31 47 -31q33 0 59 17l32 -66q-39 -29 -103 -29q-56 0 -89.5 20.5t-33.5 57.5q0 34 35 67t84 55zM260 551h-173v119h173v-119z" />
    <glyph glyph-name="Idotaccent" unicode="&#x130;" horiz-adv-x="362" 
d="M270 0h-178v627h178v-627zM281 707h-199v119h199v-119z" />
    <glyph glyph-name="dotlessi" unicode="&#x131;" horiz-adv-x="347" 
d="M260 0h-173v458h173v-458z" />
    <glyph glyph-name="IJ" unicode="&#x132;" horiz-adv-x="791" 
d="M396 -12q-160 0 -240.5 68.5t-80.5 188.5h181q0 -53 36 -86.5t100 -33.5q66 0 106 41t40 113v348h178v-337q0 -147 -82.5 -224.5t-237.5 -77.5zM75 371v256h178v-256h-178z" />
    <glyph glyph-name="ij" unicode="&#x133;" horiz-adv-x="696" 
d="M260 0h-173v458h173v-458zM260 551h-173v119h173v-119zM609 48q0 -123 -54 -178t-158 -55q-40 0 -82 11t-67 26l35 99q42 -20 73 -20q42 0 61 24t19 88v415h173v-410zM609 551h-173v119h173v-119z" />
    <glyph glyph-name="Jcircumflex" unicode="&#x134;" horiz-adv-x="703" 
d="M332 -12q-137 0 -207 67t-70 180q0 68 16 106l152 -14q-9 -31 -9 -67q0 -57 31.5 -96t92.5 -39q60 0 86.5 39t26.5 119v344h177v-355q0 -137 -75 -210.5t-221 -73.5zM745 696h-81l-125 77l-127 -77h-81l134 169h146z" />
    <glyph glyph-name="jcircumflex" unicode="&#x135;" horiz-adv-x="347" 
d="M48 -185q-40 0 -82 11t-67 26l35 99q42 -20 73 -20q42 0 61 24t19 88v415h173v-410q0 -123 -54 -178t-158 -55zM383 545h-81l-125 77l-127 -77h-81l134 169h146z" />
    <glyph glyph-name="Kcommaaccent" unicode="&#x136;" horiz-adv-x="781" 
d="M750 0h-210l-166 264l-108 -115v-149h-174v627h174v-293l274 293h204l-232 -253zM471 -174q0 -130 -159 -130v70q18 1 27.5 2.5t21.5 7t17.5 18.5t5.5 34v7h-71v110h158v-119z" />
    <glyph glyph-name="kcommaaccent" unicode="&#x137;" horiz-adv-x="709" 
d="M681 0h-196l-141 186l-84 -80v-106h-173v670h48q75 0 125 14v-433l221 225h188l-200 -190zM454 -174q0 -130 -159 -130v70q18 1 27.5 2.5t21.5 7t17.5 18.5t5.5 34v7h-71v110h158v-119z" />
    <glyph glyph-name="kgreenlandic" unicode="&#x138;" horiz-adv-x="709" 
d="M681 0h-196l-141 186l-84 -80v-106h-173v476h173v-225l221 225h188l-200 -190z" />
    <glyph glyph-name="Lacute" unicode="&#x139;" horiz-adv-x="667" 
d="M622 0h-530v627h178v-480h352v-147zM181 696h-62l50 169h195z" />
    <glyph glyph-name="lacute" unicode="&#x13a;" horiz-adv-x="347" 
d="M260 0h-173v670h53q70 0 120 14v-684zM176 726h-62l50 169h195z" />
    <glyph glyph-name="Lcommaaccent" unicode="&#x13b;" horiz-adv-x="667" 
d="M622 0h-530v627h178v-480h352v-147zM427 -174q0 -130 -159 -130v70q18 1 27.5 2.5t21.5 7t17.5 18.5t5.5 34v7h-71v110h158v-119z" />
    <glyph glyph-name="lcommaaccent" unicode="&#x13c;" horiz-adv-x="347" 
d="M260 0h-173v670h53q70 0 120 14v-684zM251 -174q0 -130 -159 -130v70q18 1 27.5 2.5t21.5 7t17.5 18.5t5.5 34v7h-71v110h158v-119z" />
    <glyph glyph-name="Lcaron" unicode="&#x13d;" horiz-adv-x="667" 
d="M622 0h-530v627h178v-480h352v-147zM350 402l32 225h160l-126 -225h-66z" />
    <glyph glyph-name="lcaron" unicode="&#x13e;" horiz-adv-x="357" 
d="M260 0h-173v670h53q70 0 120 14v-684zM324 445l32 225h160l-126 -225h-66z" />
    <glyph glyph-name="Ldot" unicode="&#x13f;" horiz-adv-x="667" 
d="M622 0h-530v627h178v-480h352v-147zM560 296h-180v145h180v-145z" />
    <glyph glyph-name="ldot" unicode="&#x140;" horiz-adv-x="527" 
d="M260 0h-173v670h53q70 0 120 14v-684zM527 209h-180v145h180v-145z" />
    <glyph glyph-name="Lslash" unicode="&#x141;" horiz-adv-x="694" 
d="M649 0h-530v240l-84 -33v115l84 33v272h178v-200l118 47v-115l-118 -47v-165h352v-147z" />
    <glyph glyph-name="lslash" unicode="&#x142;" horiz-adv-x="423" 
d="M298 0h-173v247l-90 -36v86l90 36v337h53q71 0 120 14v-283l90 37v-86l-90 -37v-315z" />
    <glyph glyph-name="Nacute" unicode="&#x143;" horiz-adv-x="882" 
d="M790 0h-242l-282 443v-443h-174v627h232l293 -443v443h173v-627zM439 696h-62l50 169h195z" />
    <glyph glyph-name="nacute" unicode="&#x144;" horiz-adv-x="723" 
d="M650 0h-173v252q0 58 -25.5 92t-76.5 34q-71 0 -115 -71v-307h-173v476h109l38 -142q42 154 204 154q91 0 151.5 -53.5t60.5 -164.5v-270zM377 545h-62l50 169h195z" />
    <glyph glyph-name="Ncommaaccent" unicode="&#x145;" horiz-adv-x="882" 
d="M790 0h-242l-282 443v-443h-174v627h232l293 -443v443h173v-627zM518 -174q0 -130 -159 -130v70q18 1 27.5 2.5t21.5 7t17.5 18.5t5.5 34v7h-71v110h158v-119z" />
    <glyph glyph-name="ncommaaccent" unicode="&#x146;" horiz-adv-x="723" 
d="M650 0h-173v252q0 58 -25.5 92t-76.5 34q-71 0 -115 -71v-307h-173v476h109l38 -142q42 154 204 154q91 0 151.5 -53.5t60.5 -164.5v-270zM456 -174q0 -130 -159 -130v70q18 1 27.5 2.5t21.5 7t17.5 18.5t5.5 34v7h-71v110h158v-119z" />
    <glyph glyph-name="Ncaron" unicode="&#x147;" horiz-adv-x="882" 
d="M790 0h-242l-282 443v-443h-174v627h232l293 -443v443h173v-627zM564 865h81l-134 -169h-146l-134 169h81l127 -77z" />
    <glyph glyph-name="ncaron" unicode="&#x148;" horiz-adv-x="723" 
d="M650 0h-173v252q0 58 -25.5 92t-76.5 34q-71 0 -115 -71v-307h-173v476h109l38 -142q42 154 204 154q91 0 151.5 -53.5t60.5 -164.5v-270zM502 714h81l-134 -169h-146l-134 169h81l127 -77z" />
    <glyph glyph-name="napostrophe" unicode="&#x149;" horiz-adv-x="1031" 
d="M958 0h-173v252q0 58 -25.5 92t-76.5 34q-71 0 -115 -71v-307h-173v476h109l38 -142q42 154 204 154q91 0 151.5 -53.5t60.5 -164.5v-270zM270 509q0 -93 -46 -131t-142 -38v73q42 2 64 22t22 73v27h-85v135h187v-161z" />
    <glyph glyph-name="Eng" unicode="&#x14a;" horiz-adv-x="882" 
d="M578 -185q-40 0 -82 11t-67 26l35 99q36 -17 65 -17q88 0 88 66v18l-351 425v-443h-174v627h232l293 -367v367h173v-579q0 -123 -54 -178t-158 -55z" />
    <glyph glyph-name="eng" unicode="&#x14b;" horiz-adv-x="723" 
d="M438 -185q-40 0 -82 11t-67 26l35 99q42 -20 67 -20q45 0 65.5 22.5t20.5 89.5v209q0 58 -25.5 92t-76.5 34q-71 0 -115 -71v-307h-173v476h109l38 -142q42 154 204 154q91 0 151.5 -53.5t60.5 -164.5v-222q0 -123 -54 -178t-158 -55z" />
    <glyph glyph-name="Omacron" unicode="&#x14c;" horiz-adv-x="844" 
d="M422 -12q-74 0 -138.5 18.5t-118 56t-84.5 102t-31 148.5t31 148.5t84 102.5t118 56.5t139 18.5t139 -18.5t118 -56.5t84 -102.5t31 -148.5t-31 -148.5t-84.5 -102t-118 -56t-138.5 -18.5zM422 125q87 0 138 52.5t51 134.5q0 84 -50.5 137t-138.5 53t-138.5 -53
t-50.5 -137q0 -82 51 -134.5t138 -52.5zM572 717h-302v99h302v-99z" />
    <glyph glyph-name="omacron" unicode="&#x14d;" horiz-adv-x="721" 
d="M361 96q64 0 98 40t34 102t-34 102t-99 40q-64 0 -98 -40t-34 -102t34 -102t99 -40zM360 488q63 0 117 -14t98.5 -42.5t70 -78.5t25.5 -115t-25.5 -115t-69.5 -78.5t-98 -42.5t-117 -14t-117 14t-98.5 42.5t-70 78.5t-25.5 115t25.5 115t69.5 78.5t98 42.5t117 14z
M503 566h-302v99h302v-99z" />
    <glyph glyph-name="Obreve" unicode="&#x14e;" horiz-adv-x="844" 
d="M422 -12q-74 0 -138.5 18.5t-118 56t-84.5 102t-31 148.5t31 148.5t84 102.5t118 56.5t139 18.5t139 -18.5t118 -56.5t84 -102.5t31 -148.5t-31 -148.5t-84.5 -102t-118 -56t-138.5 -18.5zM422 125q87 0 138 52.5t51 134.5q0 84 -50.5 137t-138.5 53t-138.5 -53
t-50.5 -137q0 -82 51 -134.5t138 -52.5zM514 858h76q0 -85 -44 -129t-125 -44q-79 0 -122 44t-43 129h75q0 -37 25.5 -56.5t64.5 -19.5q40 0 66.5 19.5t26.5 56.5z" />
    <glyph glyph-name="obreve" unicode="&#x14f;" horiz-adv-x="721" 
d="M361 96q64 0 98 40t34 102t-34 102t-99 40q-64 0 -98 -40t-34 -102t34 -102t99 -40zM360 488q63 0 117 -14t98.5 -42.5t70 -78.5t25.5 -115t-25.5 -115t-69.5 -78.5t-98 -42.5t-117 -14t-117 14t-98.5 42.5t-70 78.5t-25.5 115t25.5 115t69.5 78.5t98 42.5t117 14z
M453 707h76q0 -85 -44 -129t-125 -44q-79 0 -122 44t-43 129h75q0 -37 25.5 -56.5t64.5 -19.5q40 0 66.5 19.5t26.5 56.5z" />
    <glyph glyph-name="Ohungarumlaut" unicode="&#x150;" horiz-adv-x="844" 
d="M422 -12q-74 0 -138.5 18.5t-118 56t-84.5 102t-31 148.5t31 148.5t84 102.5t118 56.5t139 18.5t139 -18.5t118 -56.5t84 -102.5t31 -148.5t-31 -148.5t-84.5 -102t-118 -56t-138.5 -18.5zM422 125q87 0 138 52.5t51 134.5q0 84 -50.5 137t-138.5 53t-138.5 -53
t-50.5 -137q0 -82 51 -134.5t138 -52.5zM336 696h-61l60 169h175zM536 696h-61l60 169h175z" />
    <glyph glyph-name="ohungarumlaut" unicode="&#x151;" horiz-adv-x="721" 
d="M361 96q64 0 98 40t34 102t-34 102t-99 40q-64 0 -98 -40t-34 -102t34 -102t99 -40zM360 488q63 0 117 -14t98.5 -42.5t70 -78.5t25.5 -115t-25.5 -115t-69.5 -78.5t-98 -42.5t-117 -14t-117 14t-98.5 42.5t-70 78.5t-25.5 115t25.5 115t69.5 78.5t98 42.5t117 14z
M275 545h-61l60 169h175zM475 545h-61l60 169h175z" />
    <glyph glyph-name="OE" unicode="&#x152;" horiz-adv-x="1282" 
d="M1227 0h-599v46q-86 -58 -206 -58q-74 0 -138.5 18.5t-118 56t-84.5 102t-31 148.5t31 148.5t84 102.5t118 56.5t139 18.5q119 0 206 -59v47h579v-142h-401v-107h312v-128h-312v-108h421v-142zM422 125q83 0 136 50.5t53 136.5q0 88 -52.5 139t-136.5 51
q-88 0 -138.5 -53t-50.5 -137q0 -82 51 -134.5t138 -52.5z" />
    <glyph glyph-name="oe" unicode="&#x153;" horiz-adv-x="1060" 
d="M335 488q132 0 202 -83q69 83 207 83q116 0 191 -59.5t75 -172.5q0 -22 -3 -44h-396q10 -54 48.5 -82.5t98.5 -28.5q56 0 87.5 22t52.5 62l97 -74q-28 -54 -90.5 -88.5t-148.5 -34.5q-139 0 -216 87q-68 -87 -204 -87q-126 0 -206 63.5t-80 186.5t79.5 186.5t205.5 63.5z
M349 96q64 0 94 39.5t30 102.5t-30.5 102.5t-94.5 39.5q-58 0 -91 -40.5t-33 -101.5q0 -62 32 -102t93 -40zM733 386q-52 0 -82.5 -28t-38.5 -77h225q0 44 -26.5 74.5t-77.5 30.5z" />
    <glyph glyph-name="Racute" unicode="&#x154;" horiz-adv-x="789" 
d="M743 0h-188q-20 23 -32.5 56.5t-20 61.5t-20 54.5t-38.5 41.5t-69 15h-105v-229h-178v627h344q150 0 218 -44.5t68 -134.5q0 -146 -207 -168q52 -2 82 -15.5t52 -40.5q27 -32 49 -112t45 -112zM422 343q115 0 115 79q0 77 -115 77h-152v-156h152zM381 696h-62l50 169h195
z" />
    <glyph glyph-name="racute" unicode="&#x155;" horiz-adv-x="484" 
d="M260 0h-173v476h109l40 -146q25 158 160 158q35 0 73 -9l-11 -139q-43 12 -70 12q-93 0 -128 -42v-310zM277 545h-62l50 169h195z" />
    <glyph glyph-name="Rcommaaccent" unicode="&#x156;" horiz-adv-x="789" 
d="M743 0h-188q-20 23 -32.5 56.5t-20 61.5t-20 54.5t-38.5 41.5t-69 15h-105v-229h-178v627h344q150 0 218 -44.5t68 -134.5q0 -146 -207 -168q52 -2 82 -15.5t52 -40.5q27 -32 49 -112t45 -112zM422 343q115 0 115 79q0 77 -115 77h-152v-156h152zM487 -174
q0 -130 -159 -130v70q18 1 27.5 2.5t21.5 7t17.5 18.5t5.5 34v7h-71v110h158v-119z" />
    <glyph glyph-name="rcommaaccent" unicode="&#x157;" horiz-adv-x="484" 
d="M260 0h-173v476h109l40 -146q25 158 160 158q35 0 73 -9l-11 -139q-43 12 -70 12q-93 0 -128 -42v-310zM252 -174q0 -130 -159 -130v70q18 1 27.5 2.5t21.5 7t17.5 18.5t5.5 34v7h-71v110h158v-119z" />
    <glyph glyph-name="Rcaron" unicode="&#x158;" horiz-adv-x="789" 
d="M743 0h-188q-20 23 -32.5 56.5t-20 61.5t-20 54.5t-38.5 41.5t-69 15h-105v-229h-178v627h344q150 0 218 -44.5t68 -134.5q0 -146 -207 -168q52 -2 82 -15.5t52 -40.5q27 -32 49 -112t45 -112zM422 343q115 0 115 79q0 77 -115 77h-152v-156h152zM506 865h81l-134 -169
h-146l-134 169h81l127 -77z" />
    <glyph glyph-name="rcaron" unicode="&#x159;" horiz-adv-x="502" 
d="M278 0h-173v476h109l40 -146q25 158 160 158q35 0 73 -9l-11 -139q-43 12 -70 12q-93 0 -128 -42v-310zM420 714h81l-134 -169h-146l-134 169h81l127 -77z" />
    <glyph glyph-name="Sacute" unicode="&#x15a;" horiz-adv-x="757" 
d="M381 -12q-104 0 -191 27t-140 65l75 130q50 -37 123 -61t154 -24q60 0 92 15.5t32 41.5q0 20 -26.5 30.5t-89.5 21.5l-116 20q-233 41 -233 188q0 88 81 142.5t232 54.5q199 0 310 -90l-79 -123q-38 33 -103 54t-135 21q-122 0 -122 -50q0 -40 122 -59l105 -17
q118 -19 181.5 -60.5t63.5 -120.5q0 -92 -84 -149t-252 -57zM376 696h-62l50 169h195z" />
    <glyph glyph-name="sacute" unicode="&#x15b;" horiz-adv-x="641" 
d="M596 146q0 -72 -66 -115t-206 -43q-79 0 -152 19.5t-117 53.5l64 100q35 -28 92.5 -47.5t119.5 -19.5q92 0 92 36q0 28 -80 42l-96 17q-178 33 -178 142q0 70 62 113.5t188 43.5q154 0 245 -62l-61 -97q-28 23 -79.5 38t-104.5 15q-87 0 -87 -35q0 -16 16 -25t52 -15
l119 -21q177 -31 177 -140zM327 545h-62l50 169h195z" />
    <glyph glyph-name="Scircumflex" unicode="&#x15c;" horiz-adv-x="757" 
d="M381 -12q-104 0 -191 27t-140 65l75 130q50 -37 123 -61t154 -24q60 0 92 15.5t32 41.5q0 20 -26.5 30.5t-89.5 21.5l-116 20q-233 41 -233 188q0 88 81 142.5t232 54.5q199 0 310 -90l-79 -123q-38 33 -103 54t-135 21q-122 0 -122 -50q0 -40 122 -59l105 -17
q118 -19 181.5 -60.5t63.5 -120.5q0 -92 -84 -149t-252 -57zM585 696h-81l-125 77l-127 -77h-81l134 169h146z" />
    <glyph glyph-name="scircumflex" unicode="&#x15d;" horiz-adv-x="641" 
d="M596 146q0 -72 -66 -115t-206 -43q-79 0 -152 19.5t-117 53.5l64 100q35 -28 92.5 -47.5t119.5 -19.5q92 0 92 36q0 28 -80 42l-96 17q-178 33 -178 142q0 70 62 113.5t188 43.5q154 0 245 -62l-61 -97q-28 23 -79.5 38t-104.5 15q-87 0 -87 -35q0 -16 16 -25t52 -15
l119 -21q177 -31 177 -140zM536 545h-81l-125 77l-127 -77h-81l134 169h146z" />
    <glyph glyph-name="Scedilla" unicode="&#x15e;" horiz-adv-x="757" 
d="M379 -201q-73 0 -126 36l30 54q49 -28 90 -28q56 0 56 33q0 28 -45 28q-30 0 -51 -16l-48 27l37 58q-167 14 -272 89l75 130q50 -37 123 -61t154 -24q60 0 92 15.5t32 41.5q0 20 -26.5 30.5t-89.5 21.5l-116 20q-233 41 -233 188q0 88 81 142.5t232 54.5q199 0 310 -90
l-79 -123q-38 33 -103 54t-135 21q-122 0 -122 -50q0 -40 122 -59l105 -17q118 -19 181.5 -60.5t63.5 -120.5q0 -92 -84 -149t-252 -57l-20 -35q20 10 52 10q44 0 71.5 -20t27.5 -54q0 -41 -36.5 -65.5t-96.5 -24.5z" />
    <glyph glyph-name="scedilla" unicode="&#x15f;" horiz-adv-x="641" 
d="M315 -201q-73 0 -126 36l30 54q49 -28 90 -28q56 0 56 33q0 28 -45 28q-30 0 -51 -16l-48 27l38 59q-133 13 -204 69l64 100q35 -28 92.5 -47.5t119.5 -19.5q92 0 92 36q0 28 -80 42l-96 17q-178 33 -178 142q0 70 62 113.5t188 43.5q154 0 245 -62l-61 -97
q-28 23 -79.5 38t-104.5 15q-87 0 -87 -35q0 -16 16 -25t52 -15l119 -21q177 -31 177 -140q0 -72 -66 -115t-206 -43h-7l-20 -35q20 10 52 10q44 0 71.5 -20t27.5 -54q0 -41 -36.5 -65.5t-96.5 -24.5z" />
    <glyph glyph-name="Scaron" unicode="&#x160;" horiz-adv-x="757" 
d="M381 -12q-104 0 -191 27t-140 65l75 130q50 -37 123 -61t154 -24q60 0 92 15.5t32 41.5q0 20 -26.5 30.5t-89.5 21.5l-116 20q-233 41 -233 188q0 88 81 142.5t232 54.5q199 0 310 -90l-79 -123q-38 33 -103 54t-135 21q-122 0 -122 -50q0 -40 122 -59l105 -17
q118 -19 181.5 -60.5t63.5 -120.5q0 -92 -84 -149t-252 -57zM501 865h81l-134 -169h-146l-134 169h81l127 -77z" />
    <glyph glyph-name="scaron" unicode="&#x161;" horiz-adv-x="641" 
d="M596 146q0 -72 -66 -115t-206 -43q-79 0 -152 19.5t-117 53.5l64 100q35 -28 92.5 -47.5t119.5 -19.5q92 0 92 36q0 28 -80 42l-96 17q-178 33 -178 142q0 70 62 113.5t188 43.5q154 0 245 -62l-61 -97q-28 23 -79.5 38t-104.5 15q-87 0 -87 -35q0 -16 16 -25t52 -15
l119 -21q177 -31 177 -140zM452 714h81l-134 -169h-146l-134 169h81l127 -77z" />
    <glyph glyph-name="Tcommaaccent" unicode="&#x162;" horiz-adv-x="684" 
d="M430 0h-177v483h-218v144h614v-144h-219v-483zM420 -174q0 -130 -159 -130v70q18 1 27.5 2.5t21.5 7t17.5 18.5t5.5 34v7h-71v110h158v-119z" />
    <glyph glyph-name="tcommaaccent" unicode="&#x163;" horiz-adv-x="520" 
d="M459 137l39 -100q-76 -49 -178 -49q-197 0 -197 180v184h-95v111h59q29 0 40 9.5t11 38.5v16l158 150v-214h163v-111h-163v-172q0 -39 18 -55t53 -16q52 0 92 28zM380 -174q0 -130 -159 -130v70q18 1 27.5 2.5t21.5 7t17.5 18.5t5.5 34v7h-71v110h158v-119z" />
    <glyph glyph-name="Tcaron" unicode="&#x164;" horiz-adv-x="684" 
d="M430 0h-177v483h-218v144h614v-144h-219v-483zM467 865h81l-134 -169h-146l-134 169h81l127 -77z" />
    <glyph glyph-name="tcaron" unicode="&#x165;" horiz-adv-x="520" 
d="M459 137l39 -100q-76 -49 -178 -49q-197 0 -197 180v184h-95v111h59q29 0 40 9.5t11 38.5v16l158 150v-214h163v-111h-163v-172q0 -39 18 -55t53 -16q52 0 92 28zM385 531l32 225h160l-126 -225h-66z" />
    <glyph glyph-name="Tbar" unicode="&#x166;" horiz-adv-x="684" 
d="M430 0h-177v236h-104v109h104v138h-218v144h614v-144h-219v-138h104v-109h-104v-236z" />
    <glyph glyph-name="tbar" unicode="&#x167;" horiz-adv-x="520" 
d="M459 137l39 -100q-76 -49 -178 -49q-197 0 -197 180v58h-66v72h66v54h-95v111h59q29 0 40 9.5t11 38.5v16l158 150v-214h163v-111h-163v-54h118v-72h-118v-46q0 -39 18 -55t53 -16q52 0 92 28z" />
    <glyph glyph-name="Utilde" unicode="&#x168;" horiz-adv-x="810" 
d="M408 -12q-171 0 -252 78t-81 239v322h178v-340q0 -84 42 -123t111 -39q68 0 109.5 39t41.5 123v340h178v-322q0 -162 -78.5 -239.5t-248.5 -77.5zM478 696q-26 0 -75 24t-70 24q-32 0 -45 -48h-63q8 80 36.5 118t81.5 38q30 0 74.5 -22.5t69.5 -22.5q18 0 28.5 14
t11.5 34h66q-13 -159 -115 -159z" />
    <glyph glyph-name="utilde" unicode="&#x169;" horiz-adv-x="713" 
d="M626 0h-109l-38 142q-16 -68 -66 -111t-134 -43q-88 0 -147 53.5t-59 164.5v270h173v-252q0 -58 24.5 -92t72.5 -34q68 0 110 71v307h173v-476zM418 545q-26 0 -75 24t-70 24q-32 0 -45 -48h-63q8 80 36.5 118t81.5 38q30 0 74.5 -22.5t69.5 -22.5q18 0 28.5 14t11.5 34
h66q-13 -159 -115 -159z" />
    <glyph glyph-name="Umacron" unicode="&#x16a;" horiz-adv-x="810" 
d="M408 -12q-171 0 -252 78t-81 239v322h178v-340q0 -84 42 -123t111 -39q68 0 109.5 39t41.5 123v340h178v-322q0 -162 -78.5 -239.5t-248.5 -77.5zM559 717h-302v99h302v-99z" />
    <glyph glyph-name="umacron" unicode="&#x16b;" horiz-adv-x="713" 
d="M626 0h-109l-38 142q-16 -68 -66 -111t-134 -43q-88 0 -147 53.5t-59 164.5v270h173v-252q0 -58 24.5 -92t72.5 -34q68 0 110 71v307h173v-476zM491 566h-302v99h302v-99z" />
    <glyph glyph-name="Ubreve" unicode="&#x16c;" horiz-adv-x="810" 
d="M408 -12q-171 0 -252 78t-81 239v322h178v-340q0 -84 42 -123t111 -39q68 0 109.5 39t41.5 123v340h178v-322q0 -162 -78.5 -239.5t-248.5 -77.5zM501 858h76q0 -85 -44 -129t-125 -44q-79 0 -122 44t-43 129h75q0 -37 25.5 -56.5t64.5 -19.5q40 0 66.5 19.5t26.5 56.5z
" />
    <glyph glyph-name="ubreve" unicode="&#x16d;" horiz-adv-x="713" 
d="M626 0h-109l-38 142q-16 -68 -66 -111t-134 -43q-88 0 -147 53.5t-59 164.5v270h173v-252q0 -58 24.5 -92t72.5 -34q68 0 110 71v307h173v-476zM441 707h76q0 -85 -44 -129t-125 -44q-79 0 -122 44t-43 129h75q0 -37 25.5 -56.5t64.5 -19.5q40 0 66.5 19.5t26.5 56.5z
" />
    <glyph glyph-name="Uring" unicode="&#x16e;" horiz-adv-x="810" 
d="M408 -12q-171 0 -252 78t-81 239v322h178v-340q0 -84 42 -123t111 -39q68 0 109.5 39t41.5 123v340h178v-322q0 -162 -78.5 -239.5t-248.5 -77.5zM343 780q0 -26 18 -44t48 -18q28 0 44.5 18t16.5 44q0 28 -16.5 46.5t-44.5 18.5q-30 0 -48 -18.5t-18 -46.5zM272 780
q0 52 38 86.5t99 34.5q59 0 96.5 -34.5t37.5 -86.5q0 -51 -37.5 -84.5t-96.5 -33.5q-61 0 -99 33.5t-38 84.5z" />
    <glyph glyph-name="uring" unicode="&#x16f;" horiz-adv-x="713" 
d="M626 0h-109l-38 142q-16 -68 -66 -111t-134 -43q-88 0 -147 53.5t-59 164.5v270h173v-252q0 -58 24.5 -92t72.5 -34q68 0 110 71v307h173v-476zM283 629q0 -26 18 -44t48 -18q28 0 44.5 18t16.5 44q0 28 -16.5 46.5t-44.5 18.5q-30 0 -48 -18.5t-18 -46.5zM212 629
q0 52 38 86.5t99 34.5q59 0 96.5 -34.5t37.5 -86.5q0 -51 -37.5 -84.5t-96.5 -33.5q-61 0 -99 33.5t-38 84.5z" />
    <glyph glyph-name="Uhungarumlaut" unicode="&#x170;" horiz-adv-x="810" 
d="M408 -12q-171 0 -252 78t-81 239v322h178v-340q0 -84 42 -123t111 -39q68 0 109.5 39t41.5 123v340h178v-322q0 -162 -78.5 -239.5t-248.5 -77.5zM323 696h-61l60 169h175zM523 696h-61l60 169h175z" />
    <glyph glyph-name="uhungarumlaut" unicode="&#x171;" horiz-adv-x="713" 
d="M626 0h-109l-38 142q-16 -68 -66 -111t-134 -43q-88 0 -147 53.5t-59 164.5v270h173v-252q0 -58 24.5 -92t72.5 -34q68 0 110 71v307h173v-476zM263 545h-61l60 169h175zM463 545h-61l60 169h175z" />
    <glyph glyph-name="Uogonek" unicode="&#x172;" horiz-adv-x="810" 
d="M735 305q0 -139 -54.5 -212t-177.5 -102q-46 -11 -74 -34.5t-28 -47.5q0 -31 47 -31q33 0 59 17l32 -66q-39 -29 -103 -29q-55 0 -89 20.5t-34 57.5q0 32 24.5 61t69.5 49q-170 0 -251 78t-81 239v322h178v-340q0 -84 42 -123t111 -39q68 0 109.5 39t41.5 123v340h178
v-322z" />
    <glyph glyph-name="uogonek" unicode="&#x173;" horiz-adv-x="713" 
d="M626 476v-476q-102 -53 -102 -91q0 -31 47 -31q33 0 59 17l32 -66q-39 -29 -103 -29q-56 0 -89.5 20.5t-33.5 57.5q0 34 35 67t84 55h-38l-38 142q-16 -68 -66 -111t-134 -43q-88 0 -147 53.5t-59 164.5v270h173v-252q0 -58 24.5 -92t72.5 -34q68 0 110 71v307h173z" />
    <glyph glyph-name="Wcircumflex" unicode="&#x174;" horiz-adv-x="1103" 
d="M877 0h-217l-109 450l-116 -450h-217l-193 627h199l109 -467l122 467h191l118 -467l118 467h196zM761 696h-81l-125 77l-127 -77h-81l134 169h146z" />
    <glyph glyph-name="wcircumflex" unicode="&#x175;" horiz-adv-x="992" 
d="M796 0h-204l-96 315l-95 -315h-205l-166 476h187l87 -359l113 359h158l113 -359l90 359h184zM704 545h-81l-125 77l-127 -77h-81l134 169h146z" />
    <glyph glyph-name="Ycircumflex" unicode="&#x176;" horiz-adv-x="773" 
d="M474 0h-174v206l-295 421h220l164 -266l168 266h211l-294 -421v-206zM597 696h-81l-125 77l-127 -77h-81l134 169h146z" />
    <glyph glyph-name="ycircumflex" unicode="&#x177;" horiz-adv-x="648" 
d="M628 476l-232 -516q-36 -79 -86 -112t-126 -33q-35 0 -75 11t-64 26l35 99q42 -20 79 -20q62 0 84 46l15 30l-238 469h185l127 -307l109 307h187zM538 545h-81l-125 77l-127 -77h-81l134 169h146z" />
    <glyph glyph-name="Ydieresis" unicode="&#x178;" horiz-adv-x="773" 
d="M474 0h-174v206l-295 421h220l164 -266l168 266h211l-294 -421v-206zM347 698h-164v119h164v-119zM591 698h-164v119h164v-119z" />
    <glyph glyph-name="Zacute" unicode="&#x179;" horiz-adv-x="737" 
d="M682 0h-627v116l360 367h-337v144h593v-112l-362 -371h373v-144zM360 696h-62l50 169h195z" />
    <glyph glyph-name="zacute" unicode="&#x17a;" horiz-adv-x="636" 
d="M581 0h-526v78l268 280h-248v118h495v-76l-267 -284h278v-116zM323 545h-62l50 169h195z" />
    <glyph glyph-name="Zdotaccent" unicode="&#x17b;" horiz-adv-x="737" 
d="M682 0h-627v116l360 367h-337v144h593v-112l-362 -371h373v-144zM460 707h-199v119h199v-119z" />
    <glyph glyph-name="zdotaccent" unicode="&#x17c;" horiz-adv-x="636" 
d="M581 0h-526v78l268 280h-248v118h495v-76l-267 -284h278v-116zM423 556h-199v119h199v-119z" />
    <glyph glyph-name="Zcaron" unicode="&#x17d;" horiz-adv-x="737" 
d="M682 0h-627v116l360 367h-337v144h593v-112l-362 -371h373v-144zM485 865h81l-134 -169h-146l-134 169h81l127 -77z" />
    <glyph glyph-name="zcaron" unicode="&#x17e;" horiz-adv-x="636" 
d="M581 0h-526v78l268 280h-248v118h495v-76l-267 -284h278v-116zM448 714h81l-134 -169h-146l-134 169h81l127 -77z" />
    <glyph glyph-name="florin" unicode="&#x192;" 
d="M234 -12q-41 0 -87.5 11t-70.5 26l35 99q36 -17 65 -17q46 0 68.5 21.5t22.5 87.5v86h-117v78h117v26q0 124 48 178.5t150 54.5q41 0 87.5 -11t71.5 -26l-36 -99q-36 17 -70 17q-43 0 -66.5 -22t-23.5 -87v-31h138v-78h-138v-81q0 -125 -46.5 -179t-147.5 -54z" />
    <glyph glyph-name="uni01B5" unicode="&#x1b5;" horiz-adv-x="737" 
d="M682 0h-627v116l145 143h-87v109h194l117 112h-346v147h593v-112l-151 -147h111v-109h-218l-113 -111h382v-148z" />
    <glyph glyph-name="uni01B6" unicode="&#x1b6;" horiz-adv-x="636" 
d="M94 201v72h159l80 85h-258v118h495v-76l-119 -127h99v-72h-169l-88 -85h288v-116h-526v78l127 123h-88z" />
    <glyph glyph-name="Aringacute" unicode="&#x1fa;" horiz-adv-x="777" 
d="M257 710q0 28 24 74l87 161h195l-187 -115q6 1 18 1q59 0 96.5 -34.5t37.5 -86.5q0 -44 -29 -76l265 -634h-199l-39 113h-284l-40 -113h-189l271 636q-27 32 -27 74zM386 487l-101 -255h199zM328 710q0 -26 18 -44t48 -18q28 0 44.5 18t16.5 44q0 28 -16.5 46.5
t-44.5 18.5q-30 0 -48 -18.5t-18 -46.5z" />
    <glyph glyph-name="aringacute" unicode="&#x1fb;" horiz-adv-x="723" 
d="M595 -12q-59 0 -101.5 36t-42.5 111v7q-24 -65 -88.5 -109.5t-147.5 -44.5q-75 0 -120 31t-45 95q0 34 13 60t39 43.5t57.5 29t77 18.5t88.5 10t100 5v23q0 37 -21.5 55.5t-71.5 18.5q-54 0 -96.5 -23t-66.5 -65l-99 76q80 123 271 123q122 0 190.5 -46.5t68.5 -133.5
q0 -8 -2 -34l-7 -94q-2 -24 -2 -32q0 -45 47 -45q34 0 66 18l31 -88q-22 -19 -61.5 -32t-76.5 -13zM425 225q-96 -2 -146 -27.5t-50 -62.5q0 -21 15 -33.5t41 -12.5q40 0 80 24.5t60 55.5v56zM215 629q0 28 24 74l87 161h195l-187 -115q6 1 18 1q59 0 96.5 -34.5t37.5 -86.5
q0 -51 -37.5 -84.5t-96.5 -33.5q-61 0 -99 33.5t-38 84.5zM286 629q0 -26 18 -44t48 -18q28 0 44.5 18t16.5 44q0 28 -16.5 46.5t-44.5 18.5q-30 0 -48 -18.5t-18 -46.5z" />
    <glyph glyph-name="AEacute" unicode="&#x1fc;" horiz-adv-x="1041" 
d="M496 696h-62l50 169h195zM547 0l-39 113h-266l-40 -113h-189l259 627h513l59 -140h-299l41 -102h288l56 -137h-289l44 -108h298l58 -140h-494zM377 487l-92 -255h181z" />
    <glyph glyph-name="aeacute" unicode="&#x1fd;" horiz-adv-x="1021" 
d="M341 488q117 0 180 -61q68 61 184 61t191 -59.5t75 -172.5q0 -22 -3 -44h-396q10 -54 48.5 -82.5t98.5 -28.5q56 0 87.5 22t52.5 62l97 -74q-28 -54 -90.5 -88.5t-148.5 -34.5q-54 0 -102.5 15t-90 51t-62.5 90q-17 -75 -89 -115.5t-152 -40.5q-83 0 -127 32t-44 94
q0 34 13 60t39 43.5t57.5 29t77 18.5t88.5 10t100 5v13q0 84 -93 84q-54 0 -96.5 -23t-66.5 -65l-99 76q80 123 271 123zM290 89q36 0 73.5 20.5t61.5 52.5v63q-96 -2 -146 -27.5t-50 -62.5q0 -21 16 -33.5t45 -12.5zM694 386q-52 0 -82.5 -28t-38.5 -77h225
q0 44 -26.5 74.5t-77.5 30.5zM504 545h-62l50 169h195z" />
    <glyph glyph-name="Oslashacute" unicode="&#x1fe;" horiz-adv-x="844" 
d="M223 -72h-134l86 127q-125 87 -125 258q0 84 31 148.5t84 102.5t118 56.5t139 18.5q73 0 139 -18l53 78h133l-85 -124q132 -87 132 -262q0 -84 -31 -148.5t-84.5 -102t-118 -56t-138.5 -18.5q-76 0 -145 20zM422 120q89 0 141 53.5t52 138.5q0 83 -49 138l-218 -319
q35 -11 74 -11zM229 312q0 -79 44 -131l215 316q-33 10 -66 10q-89 0 -141 -54t-52 -141zM431 696h-62l50 169h195z" />
    <glyph glyph-name="oslashacute" unicode="&#x1ff;" horiz-adv-x="721" 
d="M368 545h-62l50 169h195zM360 488q63 0 115 -13l50 73h105l-72 -106q113 -65 113 -204q0 -65 -25.5 -115t-69.5 -78.5t-98 -42.5t-117 -14q-51 0 -103 11l-47 -71h-106l67 100q-122 64 -122 210q0 65 25.5 115t69.5 78.5t98 42.5t117 14zM220 238q0 -66 35 -104l164 240
q-27 11 -59 11q-68 0 -104 -41.5t-36 -105.5zM361 91q68 0 104 41.5t36 105.5q0 55 -27 94l-160 -235q21 -6 47 -6z" />
    <glyph glyph-name="Scommaaccent" unicode="&#x218;" horiz-adv-x="757" 
d="M381 -12q-104 0 -191 27t-140 65l75 130q50 -37 123 -61t154 -24q60 0 92 15.5t32 41.5q0 20 -26.5 30.5t-89.5 21.5l-116 20q-233 41 -233 188q0 88 81 142.5t232 54.5q199 0 310 -90l-79 -123q-38 33 -103 54t-135 21q-122 0 -122 -50q0 -40 122 -59l105 -17
q118 -19 181.5 -60.5t63.5 -120.5q0 -92 -84 -149t-252 -57zM466 -174q0 -130 -159 -130v70q18 1 27.5 2.5t21.5 7t17.5 18.5t5.5 34v7h-71v110h158v-119z" />
    <glyph glyph-name="scommaaccent" unicode="&#x219;" horiz-adv-x="641" 
d="M596 146q0 -72 -66 -115t-206 -43q-79 0 -152 19.5t-117 53.5l64 100q35 -28 92.5 -47.5t119.5 -19.5q92 0 92 36q0 28 -80 42l-96 17q-178 33 -178 142q0 70 62 113.5t188 43.5q154 0 245 -62l-61 -97q-28 23 -79.5 38t-104.5 15q-87 0 -87 -35q0 -16 16 -25t52 -15
l119 -21q177 -31 177 -140zM402 -174q0 -130 -159 -130v70q18 1 27.5 2.5t21.5 7t17.5 18.5t5.5 34v7h-71v110h158v-119z" />
    <glyph glyph-name="uni021A" unicode="&#x21a;" horiz-adv-x="684" 
d="M430 0h-177v483h-218v144h614v-144h-219v-483zM420 -174q0 -130 -159 -130v70q18 1 27.5 2.5t21.5 7t17.5 18.5t5.5 34v7h-71v110h158v-119z" />
    <glyph glyph-name="uni021B" unicode="&#x21b;" horiz-adv-x="520" 
d="M459 137l39 -100q-76 -49 -178 -49q-197 0 -197 180v184h-95v111h59q29 0 40 9.5t11 38.5v16l158 150v-214h163v-111h-163v-172q0 -39 18 -55t53 -16q52 0 92 28zM380 -174q0 -130 -159 -130v70q18 1 27.5 2.5t21.5 7t17.5 18.5t5.5 34v7h-71v110h158v-119z" />
    <glyph glyph-name="dotlessj" unicode="&#x237;" horiz-adv-x="347" 
d="M48 -185q-40 0 -82 11t-67 26l35 99q42 -20 73 -20q42 0 61 24t19 88v415h173v-410q0 -123 -54 -178t-158 -55z" />
    <glyph glyph-name="circumflex" unicode="&#x2c6;" horiz-adv-x="514" 
d="M464 545h-81l-125 77l-127 -77h-81l134 169h146z" />
    <glyph glyph-name="caron" unicode="&#x2c7;" horiz-adv-x="514" 
d="M383 714h81l-134 -169h-146l-134 169h81l127 -77z" />
    <glyph glyph-name="uni02C9" unicode="&#x2c9;" horiz-adv-x="402" 
d="M352 566h-302v99h302v-99z" />
    <glyph glyph-name="breve" unicode="&#x2d8;" horiz-adv-x="434" 
d="M308 707h76q0 -85 -44 -129t-125 -44q-79 0 -122 44t-43 129h75q0 -37 25.5 -56.5t64.5 -19.5q40 0 66.5 19.5t26.5 56.5z" />
    <glyph glyph-name="dotaccent" unicode="&#x2d9;" horiz-adv-x="299" 
d="M249 556h-199v119h199v-119z" />
    <glyph glyph-name="ring" unicode="&#x2da;" horiz-adv-x="439" 
d="M155 629q0 -26 18 -44t48 -18q28 0 44.5 18t16.5 44q0 28 -16.5 46.5t-44.5 18.5q-30 0 -48 -18.5t-18 -46.5zM84 629q0 52 38 86.5t99 34.5q59 0 96.5 -34.5t37.5 -86.5q0 -51 -37.5 -84.5t-96.5 -33.5q-61 0 -99 33.5t-38 84.5z" />
    <glyph glyph-name="ogonek" unicode="&#x2db;" horiz-adv-x="326" 
d="M169 0h71q-102 -53 -102 -91q0 -31 47 -31q33 0 59 17l32 -66q-39 -29 -103 -29q-56 0 -89.5 20.5t-33.5 57.5q0 34 35 67t84 55z" />
    <glyph glyph-name="tilde" unicode="&#x2dc;" horiz-adv-x="468" 
d="M303 545q-26 0 -75 24t-70 24q-32 0 -45 -48h-63q8 80 36.5 118t81.5 38q30 0 74.5 -22.5t69.5 -22.5q18 0 28.5 14t11.5 34h66q-13 -159 -115 -159z" />
    <glyph glyph-name="hungarumlaut" unicode="&#x2dd;" horiz-adv-x="535" 
d="M111 545h-61l60 169h175zM311 545h-61l60 169h175z" />
    <glyph glyph-name="uni0394" unicode="&#x394;" horiz-adv-x="809" 
d="M754 111v-111h-699v119l247 508h199zM403 485l-165 -356h331z" />
    <glyph glyph-name="uni03A9" unicode="&#x3a9;" horiz-adv-x="850" 
d="M425 639q161 0 261.5 -74t100.5 -211q0 -75 -42 -138.5t-126 -88.5h186v-128h-325v168q51 17 87.5 59t36.5 101q0 82 -47 128.5t-132 46.5t-132 -46.5t-47 -128.5q0 -59 36.5 -101t87.5 -59v-168h-325v128h186q-84 25 -126 88.5t-42 138.5q0 137 100.5 211t261.5 74z" />
    <glyph glyph-name="uni03BC" unicode="&#x3bc;" horiz-adv-x="727" 
d="M87 -200v676h173v-252q0 -58 24.5 -92t72.5 -34q68 0 110 71v307h173v-476h-99l-48 142q-19 -63 -68.5 -108.5t-131.5 -45.5q-25 0 -45 7v-195h-161z" />
    <glyph glyph-name="pi" unicode="&#x3c0;" horiz-adv-x="745" 
d="M624 0h-173v358h-157v-358h-173v358h-76v118h655v-118h-76v-358z" />
    <glyph glyph-name="Wgrave" unicode="&#x1e80;" horiz-adv-x="1103" 
d="M877 0h-217l-109 450l-116 -450h-217l-193 627h199l109 -467l122 467h191l118 -467l118 467h196zM615 696h-62l-183 169h195z" />
    <glyph glyph-name="wgrave" unicode="&#x1e81;" horiz-adv-x="992" 
d="M796 0h-204l-96 315l-95 -315h-205l-166 476h187l87 -359l113 359h158l113 -359l90 359h184zM558 545h-62l-183 169h195z" />
    <glyph glyph-name="Wacute" unicode="&#x1e82;" horiz-adv-x="1103" 
d="M877 0h-217l-109 450l-116 -450h-217l-193 627h199l109 -467l122 467h191l118 -467l118 467h196zM552 696h-62l50 169h195z" />
    <glyph glyph-name="wacute" unicode="&#x1e83;" horiz-adv-x="992" 
d="M796 0h-204l-96 315l-95 -315h-205l-166 476h187l87 -359l113 359h158l113 -359l90 359h184zM495 545h-62l50 169h195z" />
    <glyph glyph-name="Wdieresis" unicode="&#x1e84;" horiz-adv-x="1103" 
d="M877 0h-217l-109 450l-116 -450h-217l-193 627h199l109 -467l122 467h191l118 -467l118 467h196zM511 698h-164v119h164v-119zM755 698h-164v119h164v-119z" />
    <glyph glyph-name="wdieresis" unicode="&#x1e85;" horiz-adv-x="992" 
d="M796 0h-204l-96 315l-95 -315h-205l-166 476h187l87 -359l113 359h158l113 -359l90 359h184zM454 547h-164v119h164v-119zM698 547h-164v119h164v-119z" />
    <glyph glyph-name="uni1E8A" unicode="&#x1e8a;" horiz-adv-x="779" 
d="M536 0l-147 200l-146 -200h-218l250 314l-248 313h224l138 -195l139 195h224l-248 -311l250 -316h-218zM465 707h-199v119h199v-119z" />
    <glyph glyph-name="uni1E8B" unicode="&#x1e8b;" horiz-adv-x="655" 
d="M25 476h197l110 -142l100 142h198l-207 -238l207 -238h-199l-108 141l-102 -141h-196l206 238zM427 556h-199v119h199v-119z" />
    <glyph glyph-name="Ygrave" unicode="&#x1ef2;" horiz-adv-x="773" 
d="M474 0h-174v206l-295 421h220l164 -266l168 266h211l-294 -421v-206zM451 696h-62l-183 169h195z" />
    <glyph glyph-name="ygrave" unicode="&#x1ef3;" horiz-adv-x="648" 
d="M628 476l-232 -516q-36 -79 -86 -112t-126 -33q-35 0 -75 11t-64 26l35 99q42 -20 79 -20q62 0 84 46l15 30l-238 469h185l127 -307l109 307h187zM392 545h-62l-183 169h195z" />
    <glyph glyph-name="endash" unicode="&#x2013;" 
d="M65 208v97h570v-97h-570z" />
    <glyph glyph-name="emdash" unicode="&#x2014;" horiz-adv-x="1200" 
d="M65 208v97h1070v-97h-1070z" />
    <glyph glyph-name="quoteleft" unicode="&#x2018;" horiz-adv-x="372" 
d="M92 509q0 93 46 131t142 38v-73q-42 -2 -64 -22t-22 -73v-16h85v-126h-187v141z" />
    <glyph glyph-name="quoteright" unicode="&#x2019;" horiz-adv-x="372" 
d="M280 529q0 -93 -46 -131t-142 -38v73q42 2 64 22t22 73v16h-85v126h187v-141z" />
    <glyph glyph-name="quotesinglbase" unicode="&#x201a;" horiz-adv-x="372" 
d="M280 4q0 -93 -46 -131t-142 -38v73q42 2 64 22t22 73v16h-85v126h187v-141z" />
    <glyph glyph-name="quotedblleft" unicode="&#x201c;" horiz-adv-x="638" 
d="M92 509q0 93 46 131t142 38v-73q-42 -2 -64 -22t-22 -73v-16h85v-126h-187v141zM358 509q0 93 46 131t142 38v-73q-42 -2 -64 -22t-22 -73v-16h85v-126h-187v141z" />
    <glyph glyph-name="quotedblright" unicode="&#x201d;" horiz-adv-x="639" 
d="M280 529q0 -93 -46 -131t-142 -38v73q42 2 64 22t22 73v16h-85v126h187v-141zM547 529q0 -93 -46 -131t-142 -38v73q42 2 64 22t22 73v16h-85v126h187v-141z" />
    <glyph glyph-name="quotedblbase" unicode="&#x201e;" horiz-adv-x="639" 
d="M280 4q0 -93 -46 -131t-142 -38v73q42 2 64 22t22 73v16h-85v126h187v-141zM547 4q0 -93 -46 -131t-142 -38v73q42 2 64 22t22 73v16h-85v126h187v-141z" />
    <glyph glyph-name="dagger" unicode="&#x2020;" horiz-adv-x="480" 
d="M300 152h-120v283h-135v101h135v134h120v-134h135v-101h-135v-283z" />
    <glyph glyph-name="daggerdbl" unicode="&#x2021;" horiz-adv-x="480" 
d="M300 0h-120v134h-135v101h135v200h-135v101h135v134h120v-134h135v-101h-135v-200h135v-101h-135v-134z" />
    <glyph glyph-name="bullet" unicode="&#x2022;" horiz-adv-x="443" 
d="M92 259q0 59 36 94.5t94 35.5t93.5 -35.5t35.5 -94.5q0 -60 -35.5 -95t-93.5 -35t-94 35.5t-36 94.5z" />
    <glyph glyph-name="ellipsis" unicode="&#x2026;" horiz-adv-x="1092" 
d="M272 0h-180v145h180v-145zM636 0h-180v145h180v-145zM1000 0h-180v145h180v-145z" />
    <glyph glyph-name="perthousand" unicode="&#x2030;" horiz-adv-x="1407" 
d="M250 352q72 0 72 99q0 43 -18.5 70.5t-54.5 27.5q-35 0 -53 -27.5t-18 -70.5q0 -44 18.5 -71.5t53.5 -27.5zM249 635q83 0 139.5 -45.5t56.5 -138.5q0 -94 -56 -139.5t-139 -45.5q-82 0 -138.5 45.5t-56.5 139.5q0 93 56 138.5t138 45.5zM731 79q35 0 53.5 27.5
t18.5 71.5q0 43 -18.5 70.5t-54.5 27.5q-35 0 -53 -27.5t-18 -70.5q0 -44 18.5 -71.5t53.5 -27.5zM730 362q83 0 139.5 -45.5t56.5 -138.5q0 -94 -56 -139.5t-139 -45.5q-82 0 -138.5 45.5t-56.5 139.5q0 93 56 138.5t138 45.5zM1157 79q35 0 53.5 27.5t18.5 71.5
q0 43 -18.5 70.5t-54.5 27.5q-35 0 -53 -27.5t-18 -70.5q0 -44 18.5 -71.5t53.5 -27.5zM1156 362q83 0 139.5 -45.5t56.5 -138.5q0 -94 -56 -139.5t-139 -45.5q-82 0 -138.5 45.5t-56.5 139.5q0 93 56 138.5t138 45.5zM306 0h-118l490 627h117z" />
    <glyph glyph-name="guilsinglleft" unicode="&#x2039;" horiz-adv-x="368" 
d="M187 59l-132 179l132 180h106l-97 -180l97 -179h-106z" />
    <glyph glyph-name="guilsinglright" unicode="&#x203a;" horiz-adv-x="368" 
d="M313 238l-132 -179h-106l97 179l-97 180h106z" />
    <glyph glyph-name="fraction" unicode="&#x2044;" horiz-adv-x="191" 
d="M-98 0h-102l490 627h101z" />
    <glyph glyph-name="uni2070" unicode="&#x2070;" horiz-adv-x="500" 
d="M250 346q46 0 68.5 29t22.5 76q0 46 -23 75t-69 29q-45 0 -67.5 -29t-22.5 -75q0 -47 22.5 -76t68.5 -29zM249 635q84 0 144.5 -46t60.5 -138q0 -93 -60 -139t-144 -46q-83 0 -143.5 46t-60.5 139q0 92 60 138t143 46z" />
    <glyph glyph-name="uni2074" unicode="&#x2074;" horiz-adv-x="500" 
d="M264 273v67h-220v83l211 204h129v-213h70v-74h-70v-67h-120zM272 414v122l-126 -122h126z" />
    <glyph glyph-name="uni2075" unicode="&#x2075;" horiz-adv-x="500" 
d="M242 266q-73 0 -125.5 31.5t-55.5 72.5l96 25q6 -18 32 -35.5t56 -17.5q38 0 58.5 16t20.5 39q0 21 -18.5 34t-51.5 13q-51 0 -87 -29l-88 27l29 185h289v-87h-201l-10 -69q36 31 107 31q66 0 105 -27t39 -78q0 -64 -52 -97.5t-143 -33.5z" />
    <glyph glyph-name="uni2076" unicode="&#x2076;" horiz-adv-x="500" 
d="M265 559q-96 0 -101 -110q21 19 55 30.5t66 11.5q152 0 152 -101q0 -57 -45.5 -90.5t-132.5 -33.5q-99 0 -153.5 47t-54.5 130q0 91 59 141.5t156 50.5q65 0 111.5 -28t56.5 -70l-106 -19q-5 18 -21.5 29.5t-41.5 11.5zM261 436q-62 0 -93 -30q15 -64 88 -64
q28 0 48 11.5t20 33.5q0 23 -18 36t-45 13z" />
    <glyph glyph-name="uni2077" unicode="&#x2077;" horiz-adv-x="500" 
d="M284 273h-136v3q0 80 60 156t124 108h-257v87h370v-58q-161 -131 -161 -282v-14z" />
    <glyph glyph-name="uni2078" unicode="&#x2078;" horiz-adv-x="500" 
d="M249 266q-86 0 -139 27.5t-53 76.5q0 37 29 60t73 29q-85 17 -85 80q0 43 50 69.5t130 26.5q75 0 123.5 -26.5t48.5 -69.5q0 -63 -83 -80q44 -5 70.5 -28.5t26.5 -62.5q0 -48 -52.5 -75t-138.5 -27zM250 334q33 0 54 14t21 36t-21.5 36.5t-53.5 14.5q-33 0 -54.5 -15
t-21.5 -36q0 -22 21 -36t55 -14zM250 484q26 0 44 11t18 33q0 20 -18 30.5t-43 10.5t-43 -10.5t-18 -30.5q0 -21 17.5 -32.5t42.5 -11.5z" />
    <glyph glyph-name="uni2079" unicode="&#x2079;" horiz-adv-x="500" 
d="M231 342q46 0 72.5 28t28.5 82q-50 -41 -121 -41q-152 0 -152 101q0 57 45.5 90t132.5 33q100 0 154 -46.5t54 -129.5q0 -91 -59.5 -142t-155.5 -51q-65 0 -111.5 28t-56.5 70l106 19q5 -18 21.5 -29.5t41.5 -11.5zM235 466q61 0 93 29q-14 64 -88 64q-28 0 -48 -11
t-20 -33q0 -23 18 -36t45 -13z" />
    <glyph glyph-name="uni2080" unicode="&#x2080;" horiz-adv-x="500" 
d="M250 73q46 0 68.5 29t22.5 76q0 46 -23 75t-69 29q-45 0 -67.5 -29t-22.5 -75q0 -47 22.5 -76t68.5 -29zM249 362q84 0 144.5 -46t60.5 -138q0 -93 -60 -139t-144 -46q-83 0 -143.5 46t-60.5 139q0 92 60 138t143 46z" />
    <glyph glyph-name="uni2081" unicode="&#x2081;" horiz-adv-x="500" 
d="M90 0v87h131v134q-45 -26 -124 -26v83q48 0 88 19t58 57h90v-267h93v-87h-336z" />
    <glyph glyph-name="uni2082" unicode="&#x2082;" horiz-adv-x="500" 
d="M191 202l-95 -38q-24 29 -24 73q0 55 49 90t125 35q82 0 130 -32t48 -84q0 -48 -46 -82t-142 -77h183v-87h-345v66q31 19 71.5 41.5l66.5 36t50.5 29.5t36 32t11.5 33q0 48 -65 48q-30 0 -47.5 -14t-17.5 -35q0 -20 11 -35z" />
    <glyph glyph-name="uni2083" unicode="&#x2083;" horiz-adv-x="500" 
d="M246 -7q-79 0 -129.5 33t-54.5 85l100 20q3 -25 30 -43.5t58 -18.5q36 0 54.5 12.5t18.5 31.5q0 36 -75 36q-7 0 -17 -0.5t-17 -0.5h-8v70h43q60 0 60 35q0 15 -16 24t-42 9q-33 0 -57.5 -18t-27.5 -43l-97 18q4 54 53 86.5t122 32.5q81 0 131 -27t50 -73q0 -62 -86 -76
q105 -8 105 -81q0 -54 -54 -83t-144 -29z" />
    <glyph glyph-name="uni2084" unicode="&#x2084;" horiz-adv-x="500" 
d="M264 0v67h-220v83l211 204h129v-213h70v-74h-70v-67h-120zM272 141v122l-126 -122h126z" />
    <glyph glyph-name="uni2085" unicode="&#x2085;" horiz-adv-x="500" 
d="M242 -7q-73 0 -125.5 31.5t-55.5 72.5l96 25q6 -18 32 -35.5t56 -17.5q38 0 58.5 16t20.5 39q0 21 -18.5 34t-51.5 13q-51 0 -87 -29l-88 27l29 185h289v-87h-201l-10 -69q36 31 107 31q66 0 105 -27t39 -78q0 -64 -52 -97.5t-143 -33.5z" />
    <glyph glyph-name="uni2086" unicode="&#x2086;" horiz-adv-x="500" 
d="M265 286q-96 0 -101 -110q21 19 55 30.5t66 11.5q152 0 152 -101q0 -57 -45.5 -90.5t-132.5 -33.5q-99 0 -153.5 47t-54.5 130q0 91 59 141.5t156 50.5q65 0 111.5 -28t56.5 -70l-106 -19q-5 18 -21.5 29.5t-41.5 11.5zM261 163q-62 0 -93 -30q15 -64 88 -64
q28 0 48 11.5t20 33.5q0 23 -18 36t-45 13z" />
    <glyph glyph-name="uni2087" unicode="&#x2087;" horiz-adv-x="500" 
d="M284 0h-136v3q0 80 60 156t124 108h-257v87h370v-58q-161 -131 -161 -282v-14z" />
    <glyph glyph-name="uni2088" unicode="&#x2088;" horiz-adv-x="500" 
d="M249 -7q-86 0 -139 27.5t-53 76.5q0 37 29 60t73 29q-85 17 -85 80q0 43 50 69.5t130 26.5q75 0 123.5 -26.5t48.5 -69.5q0 -63 -83 -80q44 -5 70.5 -28.5t26.5 -62.5q0 -48 -52.5 -75t-138.5 -27zM250 61q33 0 54 14t21 36t-21.5 36.5t-53.5 14.5q-33 0 -54.5 -15
t-21.5 -36q0 -22 21 -36t55 -14zM250 211q26 0 44 11t18 33q0 20 -18 30.5t-43 10.5t-43 -10.5t-18 -30.5q0 -21 17.5 -32.5t42.5 -11.5z" />
    <glyph glyph-name="uni2089" unicode="&#x2089;" horiz-adv-x="500" 
d="M231 69q46 0 72.5 28t28.5 82q-50 -41 -121 -41q-152 0 -152 101q0 57 45.5 90t132.5 33q100 0 154 -46.5t54 -129.5q0 -91 -59.5 -142t-155.5 -51q-65 0 -111.5 28t-56.5 70l106 19q5 -18 21.5 -29.5t41.5 -11.5zM235 193q61 0 93 29q-14 64 -88 64q-28 0 -48 -11
t-20 -33q0 -23 18 -36t45 -13z" />
    <glyph glyph-name="Euro" unicode="&#x20ac;" horiz-adv-x="761" 
d="M439 -12q-123 0 -205 57.5t-110 163.5h-79v76h67q-1 9 -1 29q0 19 1 29h-67v76h79q28 106 110 163.5t205 57.5q200 0 277 -155l-118 -74q-39 97 -162 97q-103 0 -140 -89h213v-76h-230q-1 -10 -1 -29q0 -20 1 -29h230v-76h-212q38 -89 139 -89q123 0 162 97l118 -75
q-76 -154 -277 -154z" />
    <glyph glyph-name="trademark" unicode="&#x2122;" horiz-adv-x="816" 
d="M360 343v284h111l79 -123l76 123h110v-284h-90v178l-66 -108h-68l-62 108v-178h-90zM226 343h-92v214h-89v70h272v-70h-91v-214z" />
    <glyph glyph-name="Omega" unicode="&#x2126;" horiz-adv-x="850" 
d="M425 639q161 0 261.5 -74t100.5 -211q0 -75 -42 -138.5t-126 -88.5h186v-128h-325v168q51 17 87.5 59t36.5 101q0 82 -47 128.5t-132 46.5t-132 -46.5t-47 -128.5q0 -59 36.5 -101t87.5 -59v-168h-325v128h186q-84 25 -126 88.5t-42 138.5q0 137 100.5 211t261.5 74z" />
    <glyph glyph-name="estimated" unicode="&#x212e;" 
d="M607 223h-481q2 -92 68 -149t156 -57q73 0 133 39.5t82 110.5l29 -11q-25 -78 -91.5 -123t-152.5 -45q-109 0 -182.5 69.5t-73.5 182.5t73 180.5t183 67.5t183.5 -67.5t73.5 -180.5v-17zM350 459q-92 0 -156 -54.5t-68 -151.5h449q-4 95 -69.5 150.5t-155.5 55.5z" />
    <glyph glyph-name="uni2153" unicode="&#x2153;" horiz-adv-x="1090" 
d="M819 -7q-79 0 -129.5 33t-54.5 85l100 20q3 -25 30 -43.5t58 -18.5q36 0 54.5 12.5t18.5 31.5q0 36 -75 36q-7 0 -17 -0.5t-18 -0.5h-7v70h43q60 0 60 35q0 15 -16 24t-42 9q-33 0 -57.5 -18t-27.5 -43l-97 18q4 54 53 86.5t122 32.5q81 0 131 -27t50 -73q0 -62 -86 -76
q105 -8 105 -81q0 -54 -54 -83t-144 -29zM350 0h-102l490 627h101zM68 273v87h131v134q-45 -26 -124 -26v83q48 0 88 19t58 57h90v-267h93v-87h-336z" />
    <glyph glyph-name="uni2154" unicode="&#x2154;" horiz-adv-x="1090" 
d="M184 475l-95 -38q-24 29 -24 73q0 55 49 90t125 35q82 0 130 -32t48 -84q0 -48 -46 -82t-142 -77h183v-87h-345v66q31 19 71.5 41.5l66.5 36t50.5 29.5t36 32t11.5 33q0 48 -65 48q-30 0 -47.5 -14t-17.5 -35q0 -20 11 -35zM819 -7q-79 0 -129.5 33t-54.5 85l100 20
q3 -25 30 -43.5t58 -18.5q36 0 54.5 12.5t18.5 31.5q0 36 -75 36q-7 0 -17 -0.5t-18 -0.5h-7v70h43q60 0 60 35q0 15 -16 24t-42 9q-33 0 -57.5 -18t-27.5 -43l-97 18q4 54 53 86.5t122 32.5q81 0 131 -27t50 -73q0 -62 -86 -76q105 -8 105 -81q0 -54 -54 -83t-144 -29z
M350 0h-102l490 627h101z" />
    <glyph glyph-name="uni2155" unicode="&#x2155;" horiz-adv-x="1090" 
d="M349 0h-102l490 627h101zM67 273v87h131v134q-45 -26 -124 -26v83q48 0 88 19t58 57h90v-267h93v-87h-336zM822 -7q-73 0 -125.5 31.5t-55.5 72.5l96 25q6 -18 32 -35.5t56 -17.5q38 0 58.5 16t20.5 39q0 21 -18.5 34t-51.5 13q-51 0 -87 -29l-88 27l29 185h289v-87h-201
l-10 -69q36 31 107 31q66 0 105 -27t39 -78q0 -64 -52 -97.5t-143 -33.5z" />
    <glyph glyph-name="uni2156" unicode="&#x2156;" horiz-adv-x="1090" 
d="M182 475l-95 -38q-24 29 -24 73q0 55 49 90t125 35q82 0 130 -32t48 -84q0 -48 -46 -82t-142 -77h183v-87h-345v66q31 19 71.5 41.5l66.5 36t50.5 29.5t36 32t11.5 33q0 48 -65 48q-30 0 -47.5 -14t-17.5 -35q0 -20 11 -35zM349 0h-102l490 627h101zM822 -7
q-73 0 -125.5 31.5t-55.5 72.5l96 25q6 -18 32 -35.5t56 -17.5q38 0 58.5 16t20.5 39q0 21 -18.5 34t-51.5 13q-51 0 -87 -29l-88 27l29 185h289v-87h-201l-10 -69q36 31 107 31q66 0 105 -27t39 -78q0 -64 -52 -97.5t-143 -33.5z" />
    <glyph glyph-name="uni2157" unicode="&#x2157;" horiz-adv-x="1090" 
d="M246 266q-79 0 -129.5 33t-54.5 85l100 20q3 -25 30 -43.5t58 -18.5q36 0 54.5 12.5t18.5 31.5q0 36 -75 36h-17h-17l-8 -1v70h43q60 0 60 35q0 15 -16 24t-42 9q-33 0 -57.5 -18t-27.5 -43l-97 18q4 54 53 86.5t122 32.5q81 0 131 -27t50 -73q0 -62 -86 -76
q105 -8 105 -81q0 -54 -54 -83t-144 -29zM349 0h-102l490 627h101zM822 -7q-73 0 -125.5 31.5t-55.5 72.5l96 25q6 -18 32 -35.5t56 -17.5q38 0 58.5 16t20.5 39q0 21 -18.5 34t-51.5 13q-51 0 -87 -29l-88 27l29 185h289v-87h-201l-10 -69q36 31 107 31q66 0 105 -27
t39 -78q0 -64 -52 -97.5t-143 -33.5z" />
    <glyph glyph-name="uni2158" unicode="&#x2158;" horiz-adv-x="1090" 
d="M349 0h-102l490 627h101zM822 -7q-73 0 -125.5 31.5t-55.5 72.5l96 25q6 -18 32 -35.5t56 -17.5q38 0 58.5 16t20.5 39q0 21 -18.5 34t-51.5 13q-51 0 -87 -29l-88 27l29 185h289v-87h-201l-10 -69q36 31 107 31q66 0 105 -27t39 -78q0 -64 -52 -97.5t-143 -33.5z
M241 273v67h-220v83l211 204h129v-213h70v-74h-70v-67h-120zM249 414v122l-126 -122h126z" />
    <glyph glyph-name="uni2159" unicode="&#x2159;" horiz-adv-x="1090" 
d="M350 0h-102l490 627h101zM68 273v87h131v134q-45 -26 -124 -26v83q48 0 88 19t58 57h90v-267h93v-87h-336zM851 286q-96 0 -101 -110q21 19 55 30.5t66 11.5q152 0 152 -101q0 -57 -45.5 -90.5t-132.5 -33.5q-99 0 -153.5 47t-54.5 130q0 91 59 141.5t156 50.5
q65 0 111.5 -28t56.5 -70l-106 -19q-5 18 -21.5 29.5t-41.5 11.5zM847 163q-62 0 -93 -30q15 -64 88 -64q28 0 48 11.5t20 33.5q0 23 -18 36t-45 13z" />
    <glyph glyph-name="uni215A" unicode="&#x215a;" horiz-adv-x="1090" 
d="M350 0h-102l490 627h101zM851 286q-96 0 -101 -110q21 19 55 30.5t66 11.5q152 0 152 -101q0 -57 -45.5 -90.5t-132.5 -33.5q-99 0 -153.5 47t-54.5 130q0 91 59 141.5t156 50.5q65 0 111.5 -28t56.5 -70l-106 -19q-5 18 -21.5 29.5t-41.5 11.5zM847 163q-62 0 -93 -30
q15 -64 88 -64q28 0 48 11.5t20 33.5q0 23 -18 36t-45 13zM243 266q-73 0 -125.5 31.5t-55.5 72.5l96 25q6 -18 32 -35.5t56 -17.5q38 0 58.5 16t20.5 39q0 21 -18.5 34t-51.5 13q-51 0 -87 -29l-88 27l29 185h289v-87h-201l-10 -69q36 31 107 31q66 0 105 -27t39 -78
q0 -64 -52 -97.5t-143 -33.5z" />
    <glyph glyph-name="uni215B" unicode="&#x215b;" horiz-adv-x="1090" 
d="M350 0h-102l490 627h101zM68 273v87h131v134q-45 -26 -124 -26v83q48 0 88 19t58 57h90v-267h93v-87h-336zM831 -7q-86 0 -139 27.5t-53 76.5q0 37 29 60t73 29q-85 17 -85 80q0 43 50 69.5t130 26.5q75 0 123.5 -26.5t48.5 -69.5q0 -63 -83 -80q44 -5 70.5 -28.5
t26.5 -62.5q0 -48 -52.5 -75t-138.5 -27zM832 61q33 0 54 14t21 36t-21.5 36.5t-53.5 14.5q-33 0 -54.5 -15t-21.5 -36q0 -22 21 -36t55 -14zM832 211q26 0 44 11t18 33q0 20 -18 30.5t-43 10.5t-43 -10.5t-18 -30.5q0 -21 17.5 -32.5t42.5 -11.5z" />
    <glyph glyph-name="uni215C" unicode="&#x215c;" horiz-adv-x="1090" 
d="M242 266q-79 0 -129.5 33t-54.5 85l100 20q3 -25 30 -43.5t58 -18.5q36 0 54.5 12.5t18.5 31.5q0 36 -75 36h-17h-17l-8 -1v70h43q60 0 60 35q0 15 -16 24t-42 9q-33 0 -57.5 -18t-27.5 -43l-97 18q4 54 53 86.5t122 32.5q81 0 131 -27t50 -73q0 -62 -86 -76
q105 -8 105 -81q0 -54 -54 -83t-144 -29zM350 0h-102l490 627h101zM831 -7q-86 0 -139 27.5t-53 76.5q0 37 29 60t73 29q-85 17 -85 80q0 43 50 69.5t130 26.5q75 0 123.5 -26.5t48.5 -69.5q0 -63 -83 -80q44 -5 70.5 -28.5t26.5 -62.5q0 -48 -52.5 -75t-138.5 -27zM832 61
q33 0 54 14t21 36t-21.5 36.5t-53.5 14.5q-33 0 -54.5 -15t-21.5 -36q0 -22 21 -36t55 -14zM832 211q26 0 44 11t18 33q0 20 -18 30.5t-43 10.5t-43 -10.5t-18 -30.5q0 -21 17.5 -32.5t42.5 -11.5z" />
    <glyph glyph-name="uni215D" unicode="&#x215d;" horiz-adv-x="1090" 
d="M350 0h-102l490 627h101zM831 -7q-86 0 -139 27.5t-53 76.5q0 37 29 60t73 29q-85 17 -85 80q0 43 50 69.5t130 26.5q75 0 123.5 -26.5t48.5 -69.5q0 -63 -83 -80q44 -5 70.5 -28.5t26.5 -62.5q0 -48 -52.5 -75t-138.5 -27zM832 61q33 0 54 14t21 36t-21.5 36.5
t-53.5 14.5q-33 0 -54.5 -15t-21.5 -36q0 -22 21 -36t55 -14zM832 211q26 0 44 11t18 33q0 20 -18 30.5t-43 10.5t-43 -10.5t-18 -30.5q0 -21 17.5 -32.5t42.5 -11.5zM243 266q-73 0 -125.5 31.5t-55.5 72.5l96 25q6 -18 32 -35.5t56 -17.5q38 0 58.5 16t20.5 39
q0 21 -18.5 34t-51.5 13q-51 0 -87 -29l-88 27l29 185h289v-87h-201l-10 -69q36 31 107 31q66 0 105 -27t39 -78q0 -64 -52 -97.5t-143 -33.5z" />
    <glyph glyph-name="uni215E" unicode="&#x215e;" horiz-adv-x="1090" 
d="M350 0h-102l490 627h101zM831 -7q-86 0 -139 27.5t-53 76.5q0 37 29 60t73 29q-85 17 -85 80q0 43 50 69.5t130 26.5q75 0 123.5 -26.5t48.5 -69.5q0 -63 -83 -80q44 -5 70.5 -28.5t26.5 -62.5q0 -48 -52.5 -75t-138.5 -27zM832 61q33 0 54 14t21 36t-21.5 36.5
t-53.5 14.5q-33 0 -54.5 -15t-21.5 -36q0 -22 21 -36t55 -14zM832 211q26 0 44 11t18 33q0 20 -18 30.5t-43 10.5t-43 -10.5t-18 -30.5q0 -21 17.5 -32.5t42.5 -11.5zM344 273h-136v3q0 80 60 156t124 108h-257v87h370v-58q-161 -131 -161 -282v-14z" />
    <glyph glyph-name="uni2190" unicode="&#x2190;" 
d="M671 238h-390l177 -165h-193l-237 238l238 238h192l-177 -167h390v-144z" />
    <glyph glyph-name="uni2191" unicode="&#x2191;" 
d="M277 0v390l-165 -177v193l238 237l238 -238v-192l-167 177v-390h-144z" />
    <glyph glyph-name="uni2192" unicode="&#x2192;" 
d="M434 73h-193l177 165h-390v144h390l-177 167h192l238 -238z" />
    <glyph glyph-name="uni2193" unicode="&#x2193;" 
d="M588 238l-238 -238l-238 237v193l165 -177v390h144v-390l167 177v-192z" />
    <glyph glyph-name="uni2196" unicode="&#x2196;" 
d="M500 37l-275 276l9 -242l-137 136v336h337l135 -137l-243 8l276 -275z" />
    <glyph glyph-name="uni2197" unicode="&#x2197;" 
d="M199 37l-102 102l276 275l-243 -8l135 137h337v-336l-137 -136l9 242z" />
    <glyph glyph-name="uni2198" unicode="&#x2198;" 
d="M199 534l275 -276l-9 242l137 -136v-336h-337l-135 137l243 -8l-276 275z" />
    <glyph glyph-name="uni2199" unicode="&#x2199;" 
d="M570 165l-135 -137h-337v336l137 136l-9 -242l275 276l102 -102l-276 -275z" />
    <glyph glyph-name="partialdiff" unicode="&#x2202;" horiz-adv-x="671" 
d="M151 450l-81 94q94 95 235 95q156 0 241 -83.5t85 -252.5q0 -151 -85.5 -233t-228.5 -82q-119 0 -195.5 54.5t-76.5 160.5q0 91 68.5 143.5t162.5 52.5q54 0 105 -22t79 -59q-15 196 -160 196q-93 0 -149 -64zM326 97q51 0 91.5 37.5t43.5 124.5q-53 48 -133 48
q-47 0 -79 -29t-32 -78t32.5 -76t76.5 -27z" />
    <glyph glyph-name="Delta" unicode="&#x2206;" horiz-adv-x="809" 
d="M754 111v-111h-699v119l247 508h199zM403 485l-165 -356h331z" />
    <glyph glyph-name="product" unicode="&#x220f;" horiz-adv-x="827" 
d="M735 0h-177v488h-288v-488h-178v627h643v-627z" />
    <glyph glyph-name="summation" unicode="&#x2211;" horiz-adv-x="697" 
d="M642 0h-567v129l267 186l-267 177v135h547v-141h-308l180 -116v-112l-180 -116h328v-142z" />
    <glyph glyph-name="minus" unicode="&#x2212;" 
d="M95 215v116h510v-116h-510z" />
    <glyph glyph-name="uni2215" unicode="&#x2215;" horiz-adv-x="191" 
d="M-98 0h-102l490 627h101z" />
    <glyph glyph-name="uni2219" unicode="&#x2219;" horiz-adv-x="364" 
d="M272 196h-180v145h180v-145z" />
    <glyph glyph-name="radical" unicode="&#x221a;" 
d="M0 476h256l115 -364l174 515h155l-233 -627h-206l-132 357h-129v119z" />
    <glyph glyph-name="infinity" unicode="&#x221e;" horiz-adv-x="790" 
d="M222 425q62 0 102 -26t70 -72q31 46 71.5 72t102.5 26q84 0 135.5 -52t51.5 -131t-51.5 -131t-135.5 -52q-62 0 -102.5 26t-71.5 72q-30 -46 -70 -72t-102 -26q-84 0 -135.5 52t-51.5 131t51.5 131t135.5 52zM562 326q-39 0 -65.5 -22t-51.5 -62q24 -41 51 -62.5
t66 -21.5q36 0 58 24.5t22 59.5t-22 59.5t-58 24.5zM228 158q39 0 65.5 21.5t50.5 62.5q-25 41 -51 62.5t-65 21.5q-36 0 -58 -24.5t-22 -59.5t22 -59.5t58 -24.5z" />
    <glyph glyph-name="integral" unicode="&#x222b;" horiz-adv-x="529" 
d="M139 -185q-40 0 -82 11t-67 26l35 99q36 -17 65 -17q46 0 67 21.5t21 87.5v406q0 123 54 178t158 55q40 0 82 -11t67 -26l-35 -99q-36 17 -65 17q-46 0 -67 -21.5t-21 -87.5v-406q0 -123 -54 -178t-158 -55z" />
    <glyph glyph-name="approxequal" unicode="&#x2248;" 
d="M180 64h-108q0 191 146 191q48 0 93.5 -19.5t85 -39t74.5 -19.5q49 0 49 68h108q0 -190 -146 -190q-48 0 -93.5 19.5t-85 39t-74.5 19.5q-49 0 -49 -69zM180 324h-108q0 191 146 191q48 0 93.5 -19.5t85 -39t74.5 -19.5q49 0 49 68h108q0 -190 -146 -190
q-48 0 -93.5 19.5t-85 39t-74.5 19.5q-49 0 -49 -69z" />
    <glyph glyph-name="notequal" unicode="&#x2260;" 
d="M95 341v116h277l49 123h104l-49 -123h129v-116h-176l-54 -136h230v-116h-276l-49 -123h-105l49 123h-129v116h176l54 136h-230z" />
    <glyph glyph-name="lessequal" unicode="&#x2264;" 
d="M107 0v116h487v-116h-487zM107 329v136l487 141v-124l-354 -85l354 -85v-125z" />
    <glyph glyph-name="greaterequal" unicode="&#x2265;" 
d="M593 116v-116h-487v116h487zM593 465v-136l-487 -142v125l354 85l-354 85v124z" />
    <glyph glyph-name="uni2460" unicode="&#x2460;" horiz-adv-x="1120" 
d="M345 50v113h173v234q-19 -9 -63.5 -16.5t-89.5 -7.5v114q72 0 120.5 21t72.5 78h108v-423h135v-113h-456zM60 300q0 136 66.5 251t182 182t251.5 67t251 -67t182 -182t67 -251t-67 -251.5t-182 -182t-251 -66.5q-102 0 -194.5 39.5t-159.5 106.5t-106.5 159.5
t-39.5 194.5zM91 300q0 -195 137 -332.5t332 -137.5q194 0 331.5 137.5t137.5 332.5q0 194 -137.5 332t-331.5 138q-128 0 -236 -63t-170.5 -171.5t-62.5 -235.5z" />
    <glyph glyph-name="uni2461" unicode="&#x2461;" horiz-adv-x="1120" 
d="M502 357l-124 -58q-23 18 -36 51t-13 62q0 78 64.5 130t164.5 52q109 0 173 -49.5t64 -128.5q0 -40 -21.5 -76t-64.5 -67t-89 -55.5t-114 -54.5h280v-113h-458v105l54 31l73.5 42l61 37t55 38t37.5 34.5t27.5 37.5t7.5 37q0 38 -23 57.5t-64 19.5q-38 0 -60 -21.5
t-22 -52.5q0 -29 27 -58zM60 300q0 136 66.5 251t182 182t251.5 67t251 -67t182 -182t67 -251t-67 -251.5t-182 -182t-251 -66.5q-102 0 -194.5 39.5t-159.5 106.5t-106.5 159.5t-39.5 194.5zM91 300q0 -195 137 -332.5t332 -137.5q194 0 331.5 137.5t137.5 332.5
q0 194 -137.5 332t-331.5 138q-128 0 -236 -63t-170.5 -171.5t-62.5 -235.5z" />
    <glyph glyph-name="uni2462" unicode="&#x2462;" horiz-adv-x="1120" 
d="M554 27q-101 0 -171.5 46.5t-74.5 122.5l134 28q4 -40 38.5 -65.5t78.5 -25.5q98 0 98 68q0 38 -28 49.5t-80 11.5h-23.5t-21 -0.5t-9.5 -0.5v100q1 0 10 -0.5t22 -0.5h24q87 2 87 64q0 53 -80 53q-44 0 -75 -25.5t-35 -65.5l-130 26q6 80 74.5 125.5t166.5 45.5
q101 0 164.5 -38.5t63.5 -107.5q0 -49 -35 -79.5t-87 -41.5q65 -10 105.5 -42t40.5 -84q0 -80 -71 -121.5t-186 -41.5zM60 300q0 136 66.5 251t182 182t251.5 67t251 -67t182 -182t67 -251t-67 -251.5t-182 -182t-251 -66.5q-102 0 -194.5 39.5t-159.5 106.5t-106.5 159.5
t-39.5 194.5zM91 300q0 -195 137 -332.5t332 -137.5q194 0 331.5 137.5t137.5 332.5q0 194 -137.5 332t-331.5 138q-128 0 -236 -63t-170.5 -171.5t-62.5 -235.5z" />
    <glyph glyph-name="uni2463" unicode="&#x2463;" horiz-adv-x="1120" 
d="M575 258v197l-164 -197h164zM723 50h-148v95h-299v110l277 327h170v-324h80v-113h-80v-95zM60 300q0 136 66.5 251t182 182t251.5 67t251 -67t182 -182t67 -251t-67 -251.5t-182 -182t-251 -66.5q-102 0 -194.5 39.5t-159.5 106.5t-106.5 159.5t-39.5 194.5zM91 300
q0 -195 137 -332.5t332 -137.5q194 0 331.5 137.5t137.5 332.5q0 194 -137.5 332t-331.5 138q-128 0 -236 -63t-170.5 -171.5t-62.5 -235.5z" />
    <glyph glyph-name="uni2464" unicode="&#x2464;" horiz-adv-x="1120" 
d="M60 300q0 136 66.5 251t182 182t251.5 67t251 -67t182 -182t67 -251t-67 -251.5t-182 -182t-251 -66.5q-102 0 -194.5 39.5t-159.5 106.5t-106.5 159.5t-39.5 194.5zM91 300q0 -195 137 -332.5t332 -137.5q194 0 331.5 137.5t137.5 332.5q0 194 -137.5 332t-331.5 138
q-128 0 -236 -63t-170.5 -171.5t-62.5 -235.5zM560 27q-105 0 -173 46t-74 122l135 29q5 -41 36 -66.5t78 -25.5q45 0 69 23.5t24 62.5q0 42 -27 62t-68 20q-69 0 -109 -40l-108 29l37 282h373v-113h-257l-16 -114q53 48 134 48q87 0 140.5 -45.5t53.5 -126.5
q0 -95 -70.5 -144t-177.5 -49z" />
    <glyph glyph-name="uni2465" unicode="&#x2465;" horiz-adv-x="1120" 
d="M568 478q-115 0 -122 -153q60 58 154 58q83 0 142.5 -42.5t59.5 -119.5q0 -84 -68 -139t-176 -55q-123 0 -192.5 74t-69.5 201q0 132 74 205.5t200 73.5q91 0 152.5 -38t72.5 -103l-132 -27q-8 29 -33 47t-62 18zM558 295q-69 0 -109 -41q9 -64 38.5 -94t72.5 -30
q40 0 64.5 24t24.5 64q0 77 -91 77zM60 300q0 136 66.5 251t182 182t251.5 67t251 -67t182 -182t67 -251t-67 -251.5t-182 -182t-251 -66.5q-102 0 -194.5 39.5t-159.5 106.5t-106.5 159.5t-39.5 194.5zM91 300q0 -195 137 -332.5t332 -137.5q194 0 331.5 137.5t137.5 332.5
q0 194 -137.5 332t-331.5 138q-128 0 -236 -63t-170.5 -171.5t-62.5 -235.5z" />
    <glyph glyph-name="uni2466" unicode="&#x2466;" horiz-adv-x="1120" 
d="M598 27h-162v11q0 124 59 231t156 178h-300v113h420v-106q-78 -68 -126 -174t-48 -218q0 -22 1 -35zM60 300q0 136 66.5 251t182 182t251.5 67t251 -67t182 -182t67 -251t-67 -251.5t-182 -182t-251 -66.5q-102 0 -194.5 39.5t-159.5 106.5t-106.5 159.5t-39.5 194.5z
M91 300q0 -195 137 -332.5t332 -137.5q194 0 331.5 137.5t137.5 332.5q0 194 -137.5 332t-331.5 138q-128 0 -236 -63t-170.5 -171.5t-62.5 -235.5z" />
    <glyph glyph-name="uni2467" unicode="&#x2467;" horiz-adv-x="1120" 
d="M563 129q51 0 78.5 19.5t27.5 54.5q0 34 -28.5 55.5t-77.5 21.5t-77.5 -21.5t-28.5 -55.5q0 -35 27.5 -54.5t78.5 -19.5zM563 354q39 0 63 18.5t24 49.5q0 29 -24 45t-63 16t-63 -16t-24 -45q0 -31 24 -49.5t63 -18.5zM563 27q-112 0 -183 42t-71 117q0 54 38 88t96 43
q-113 23 -113 117q0 66 64.5 107.5t165.5 41.5q102 0 169 -41.5t67 -107.5q0 -94 -113 -117q58 -9 96 -43t38 -88q0 -75 -71 -117t-183 -42zM60 300q0 136 66.5 251t182 182t251.5 67t251 -67t182 -182t67 -251t-67 -251.5t-182 -182t-251 -66.5q-102 0 -194.5 39.5
t-159.5 106.5t-106.5 159.5t-39.5 194.5zM91 300q0 -195 137 -332.5t332 -137.5q194 0 331.5 137.5t137.5 332.5q0 194 -137.5 332t-331.5 138q-128 0 -236 -63t-170.5 -171.5t-62.5 -235.5z" />
    <glyph glyph-name="uni2468" unicode="&#x2468;" horiz-adv-x="1120" 
d="M547 133q114 0 121 153q-57 -57 -153 -57q-84 0 -142.5 42t-58.5 119q0 85 67.5 139.5t175.5 54.5q123 0 192.5 -74t69.5 -201q0 -132 -74 -206t-200 -74q-91 0 -153 38.5t-73 103.5l133 27q8 -29 33 -47t62 -18zM557 316q69 0 109 41q-16 123 -111 123q-40 0 -65 -23.5
t-25 -62.5t25 -58.5t67 -19.5zM60 300q0 136 66.5 251t182 182t251.5 67t251 -67t182 -182t67 -251t-67 -251.5t-182 -182t-251 -66.5q-102 0 -194.5 39.5t-159.5 106.5t-106.5 159.5t-39.5 194.5zM91 300q0 -195 137 -332.5t332 -137.5q194 0 331.5 137.5t137.5 332.5
q0 194 -137.5 332t-331.5 138q-128 0 -236 -63t-170.5 -171.5t-62.5 -235.5z" />
    <glyph glyph-name="uni2469" unicode="&#x2469;" horiz-adv-x="1120" 
d="M265 60v496h145v-496h-145zM60 300q0 136 66.5 251t182 182t251.5 67t251 -67t182 -182t67 -251t-67 -251.5t-182 -182t-251 -66.5q-102 0 -194.5 39.5t-159.5 106.5t-106.5 159.5t-39.5 194.5zM91 300q0 -195 137 -332.5t332 -137.5q194 0 331.5 137.5t137.5 332.5
q0 194 -137.5 332t-331.5 138q-128 0 -236 -63t-170.5 -171.5t-62.5 -235.5zM915 305q0 -131 -59 -199.5t-163 -68.5q-105 0 -164 68.5t-59 199.5t59 200t164 69q104 0 163 -69t59 -200zM615 305q0 -162 78 -162q77 0 77 162q0 163 -77 163q-78 0 -78 -163z" />
    <glyph glyph-name="lozenge" unicode="&#x25ca;" horiz-adv-x="696" 
d="M348 134l154 180l-154 179l-154 -179zM276 627h144l221 -247v-133l-221 -247h-144l-221 247v133z" />
    <glyph glyph-name="uni2776" unicode="&#x2776;" horiz-adv-x="1120" 
d="M345 161v-111h456v111h-139v425h-104q-24 -57 -72.5 -78t-120.5 -21v-112q47 0 92.5 7.5t64.5 16.5v-238h-177zM60 300q0 136 66.5 251t182 182t251.5 67t251 -67t182 -182t67 -251t-67 -251.5t-182 -182t-251 -66.5q-102 0 -194.5 39.5t-159.5 106.5t-106.5 159.5
t-39.5 194.5z" />
    <glyph glyph-name="uni2777" unicode="&#x2777;" horiz-adv-x="1120" 
d="M382 299l116 58q-27 29 -27 58q0 32 23 54t63 22q42 0 66.5 -20t24.5 -59q0 -14 -4.5 -28t-16 -28.5t-22 -26t-32 -27.5t-37 -26.5t-46 -29t-48.5 -28.5l-56 -31.5l-58 -33.5v-103h458v111h-280q140 63 212.5 120.5t72.5 134.5q0 79 -63 128.5t-170 49.5q-99 0 -162 -52
t-63 -130q0 -29 13 -62t36 -51zM60 300q0 136 66.5 251t182 182t251.5 67t251 -67t182 -182t67 -251t-67 -251.5t-182 -182t-251 -66.5q-102 0 -194.5 39.5t-159.5 106.5t-106.5 159.5t-39.5 194.5z" />
    <glyph glyph-name="uni2778" unicode="&#x2778;" horiz-adv-x="1120" 
d="M554 27q113 0 183 41.5t70 121.5q0 52 -39.5 84t-102.5 42q50 11 84 41.5t34 79.5q0 69 -62 107.5t-162 38.5q-97 0 -164 -45.5t-73 -125.5l122 -26q4 41 36 67t78 26q84 0 84 -55q0 -64 -91 -66h-24t-22 0.5t-10 0.5v-96q1 0 9.5 0.5t21 0.5h23.5q35 0 56 -3t38.5 -18
t17.5 -42q0 -70 -102 -70q-45 0 -81 26.5t-40 66.5l-126 -28q4 -76 73.5 -122.5t168.5 -46.5zM60 300q0 136 66.5 251t182 182t251.5 67t251 -67t182 -182t67 -251t-67 -251.5t-182 -182t-251 -66.5q-102 0 -194.5 39.5t-159.5 106.5t-106.5 159.5t-39.5 194.5z" />
    <glyph glyph-name="uni2779" unicode="&#x2779;" horiz-adv-x="1120" 
d="M575 465v-207h-174zM575 50h140v97h80v111h-80v324h-162l-277 -327v-108h299v-97zM60 300q0 136 66.5 251t182 182t251.5 67t251 -67t182 -182t67 -251t-67 -251.5t-182 -182t-251 -66.5q-102 0 -194.5 39.5t-159.5 106.5t-106.5 159.5t-39.5 194.5z" />
    <glyph glyph-name="uni277A" unicode="&#x277a;" horiz-adv-x="1120" 
d="M560 27q105 0 174.5 49t69.5 144q0 80 -53 125.5t-137 45.5q-83 0 -138 -46l16 115h261v111h-369l-37 -282l104 -28q41 44 109 44q43 0 71 -22t28 -65q0 -40 -25 -64t-72 -24q-49 0 -81 26.5t-37 67.5l-127 -29q6 -76 72.5 -122t170.5 -46zM60 300q0 136 66.5 251
t182 182t251.5 67t251 -67t182 -182t67 -251t-67 -251.5t-182 -182t-251 -66.5q-102 0 -194.5 39.5t-159.5 106.5t-106.5 159.5t-39.5 194.5z" />
    <glyph glyph-name="uni277B" unicode="&#x277b;" horiz-adv-x="1120" 
d="M568 478q39 0 65 -18t34 -47l124 27q-11 65 -71 103t-150 38q-125 0 -197.5 -73.5t-72.5 -205.5q0 -127 68 -201t190 -74q107 0 173.5 55t66.5 139q0 77 -58 119.5t-140 42.5q-98 0 -158 -58q7 153 126 153zM558 297q44 0 69.5 -19.5t25.5 -59.5t-25.5 -64t-67.5 -24
q-44 0 -75 30t-40 94q40 43 113 43zM60 300q0 136 66.5 251t182 182t251.5 67t251 -67t182 -182t67 -251t-67 -251.5t-182 -182t-251 -66.5q-102 0 -194.5 39.5t-159.5 106.5t-106.5 159.5t-39.5 194.5z" />
    <glyph glyph-name="uni277C" unicode="&#x277c;" horiz-adv-x="1120" 
d="M444 27h154q-1 13 -1 35q0 112 48 218t126 174v106h-420v-111h308q-97 -71 -156 -179t-59 -232v-11zM60 300q0 136 66.5 251t182 182t251.5 67t251 -67t182 -182t67 -251t-67 -251.5t-182 -182t-251 -66.5q-102 0 -194.5 39.5t-159.5 106.5t-106.5 159.5t-39.5 194.5z
" />
    <glyph glyph-name="uni277D" unicode="&#x277d;" horiz-adv-x="1120" 
d="M563 127q-51 0 -78.5 20t-27.5 56q0 34 28.5 55.5t77.5 21.5t77.5 -21.5t28.5 -55.5q0 -36 -27.5 -56t-78.5 -20zM563 354q-39 0 -63 18.5t-24 49.5q0 29 24 46t63 17t63 -17t24 -46q0 -31 -24 -49.5t-63 -18.5zM563 27q110 0 180 42t70 117q0 54 -37 88t-93 43
q109 23 109 117q0 66 -66 107.5t-166 41.5q-99 0 -162.5 -41.5t-63.5 -107.5q0 -94 109 -117q-56 -9 -93 -43t-37 -88q0 -75 70 -117t180 -42zM60 300q0 136 66.5 251t182 182t251.5 67t251 -67t182 -182t67 -251t-67 -251.5t-182 -182t-251 -66.5q-102 0 -194.5 39.5
t-159.5 106.5t-106.5 159.5t-39.5 194.5z" />
    <glyph glyph-name="uni277E" unicode="&#x277e;" horiz-adv-x="1120" 
d="M547 133q-39 0 -65 18t-34 47l-125 -27q11 -65 71.5 -103.5t150.5 -38.5q125 0 197.5 74t72.5 206q0 127 -68 201t-190 74q-107 0 -173 -54.5t-66 -139.5q0 -77 57.5 -119t139.5 -42q100 0 157 57q-7 -153 -125 -153zM557 314q-44 0 -70 20t-26 60q0 39 26 62.5t68 23.5
q45 0 76 -29.5t39 -93.5q-40 -43 -113 -43zM60 300q0 136 66.5 251t182 182t251.5 67t251 -67t182 -182t67 -251t-67 -251.5t-182 -182t-251 -66.5q-102 0 -194.5 39.5t-159.5 106.5t-106.5 159.5t-39.5 194.5z" />
    <glyph glyph-name="uni277F" unicode="&#x277f;" horiz-adv-x="1120" 
d="M60 300q0 136 66.5 251t182 182t251.5 67t251 -67t182 -182t67 -251t-67 -251.5t-182 -182t-251 -66.5q-102 0 -194.5 39.5t-159.5 106.5t-106.5 159.5t-39.5 194.5zM265 556v-496h145v496h-145zM915 305q0 131 -59 200t-163 69q-105 0 -164 -69t-59 -200t59 -199.5
t164 -68.5q104 0 163 68.5t59 199.5zM615 305q0 163 78 163q77 0 77 -163q0 -162 -77 -162q-78 0 -78 162z" />
    <glyph glyph-name="uni2981" unicode="&#x2981;" horiz-adv-x="1120" 
d="M60 300q0 136 66.5 251t182 182t251.5 67t251 -67t182 -182t67 -251t-67 -251.5t-182 -182t-251 -66.5q-102 0 -194.5 39.5t-159.5 106.5t-106.5 159.5t-39.5 194.5z" />
    <glyph glyph-name="commaaccent" unicode="&#xf6c3;" horiz-adv-x="259" 
d="M209 -174q0 -130 -159 -130v70q18 1 27.5 2.5t21.5 7t17.5 18.5t5.5 34v7h-71v110h158v-119z" />
    <glyph glyph-name="apple" unicode="&#xf8ff;" horiz-adv-x="1266" 
d="M666 330q-11 0 -41 1.5t-39 1.5q-50 0 -76.5 -21t-47.5 -68q-28 -61 -68.5 -96t-108.5 -35q-13 0 -42.5 2t-40.5 2q-53 0 -84.5 -27t-31.5 -68v-22h-31v22q0 54 41.5 89.5t106.5 35.5q12 0 42.5 -2t40.5 -2q101 0 146 109q46 111 154 111q11 0 41 -1.5t39 -1.5
q52 0 83 25t54 75q26 56 63 87t101 31q13 0 42.5 -2t40.5 -2q57 0 93.5 32t36.5 75v22h31v-22q0 -57 -46.5 -97t-115.5 -40q-12 0 -42.5 2t-40.5 2q-51 0 -81.5 -23.5t-51.5 -71.5q-54 -123 -167 -123z" />
    <glyph glyph-name="ringacute" horiz-adv-x="439" 
d="M84 629q0 28 24 74l87 161h195l-187 -115q6 1 18 1q59 0 96.5 -34.5t37.5 -86.5q0 -51 -37.5 -84.5t-96.5 -33.5q-61 0 -99 33.5t-38 84.5zM155 629q0 -26 18 -44t48 -18q28 0 44.5 18t16.5 44q0 28 -16.5 46.5t-44.5 18.5q-30 0 -48 -18.5t-18 -46.5z" />
    <glyph glyph-name="commatop" horiz-adv-x="259" 
d="M50 554v119q0 130 159 130v-70q-18 -1 -27 -2.5t-21 -7t-17 -18.5t-5 -34v-7h69v-110h-158z" />
    <glyph glyph-name="caronslovak" horiz-adv-x="292" 
d="M50 444l32 225h160l-126 -225h-66z" />
    <glyph glyph-name="Jacute" horiz-adv-x="703" 
d="M332 -12q-137 0 -207 67t-70 180q0 68 16 106l152 -14q-9 -31 -9 -67q0 -57 31.5 -96t92.5 -39q60 0 86.5 39t26.5 119v344h177v-355q0 -137 -75 -210.5t-221 -73.5zM537 696h-62l50 169h195z" />
    <glyph glyph-name="Iacute_Jacute" horiz-adv-x="791" 
d="M396 -12q-160 0 -240.5 68.5t-80.5 188.5h181q0 -53 36 -86.5t100 -33.5q66 0 106 41t40 113v348h178v-337q0 -147 -82.5 -224.5t-237.5 -77.5zM75 371v256h178v-256h-178zM626 696h-62l50 169h195zM163 696h-62l50 169h195z" />
    <glyph glyph-name="i.trk" horiz-adv-x="347" 
d="M260 0h-173v458h173v-458zM260 551h-173v119h173v-119z" />
    <glyph glyph-name="jacute" horiz-adv-x="347" 
d="M48 -185q-40 0 -82 11t-67 26l35 99q42 -20 73 -20q42 0 61 24t19 88v415h173v-410q0 -123 -54 -178t-158 -55zM174 545h-62l50 169h195z" />
    <glyph glyph-name="zero.zero" horiz-adv-x="757" 
d="M707 313q0 -156 -86.5 -240.5t-242.5 -84.5q-155 0 -241.5 84.5t-86.5 240.5t86.5 241t241.5 85q156 0 242.5 -85t86.5 -241zM534 313q0 47 -10 89l-256 -254q40 -45 110 -45q156 0 156 210zM223 313q0 -42 9 -87l256 252q-40 46 -110 46q-155 0 -155 -211z" />
    <glyph glyph-name="one.tf" 
d="M77 0v126h226v284q-23 -10 -82 -19t-119 -9v126q92 0 154.5 25.5t93.5 93.5h125v-501h178v-126h-576z" />
    <glyph glyph-name="two.tf" 
d="M261 352l-155 -56q-19 20 -30.5 56.5t-11.5 75.5q0 92 76.5 151.5t206.5 59.5q141 0 216.5 -56.5t75.5 -150.5q0 -49 -27 -92t-81.5 -81t-112 -67.5t-143.5 -65.5h358v-126h-574v116l73 40l70.5 38.5l62 35t57.5 34.5l46.5 31.5t40.5 33t28 32t19.5 34t5.5 33.5
q0 46 -31 70t-85 24q-52 0 -82 -26t-30 -65q0 -47 27 -79z" />
    <glyph glyph-name="three.tf" 
d="M351 -12q-130 0 -213 52.5t-90 142.5l155 34q6 -49 51.5 -80.5t103.5 -31.5q131 0 131 84q0 21 -8.5 36t-20.5 23t-33 12.5t-39 5.5t-44 1q-13 0 -29.5 -0.5t-27 -0.5h-11.5v110h12q11 0 28 -0.5t32 -0.5q116 2 116 81q0 66 -108 66q-59 0 -100 -31.5t-45 -80.5l-150 31
q8 95 88.5 146.5t208.5 51.5q135 0 208.5 -43t73.5 -125q0 -51 -37.5 -90t-109.5 -54q84 -10 130.5 -48.5t46.5 -102.5q0 -95 -83.5 -141.5t-235.5 -46.5z" />
    <glyph glyph-name="four.tf" 
d="M407 243v250l-225 -250h225zM579 0h-172v117h-378v123l357 387h193v-384h104v-126h-104v-117z" />
    <glyph glyph-name="five.tf" 
d="M352 -12q-136 0 -216 52.5t-88 142.5l155 34q7 -49 48 -80.5t104 -31.5q59 0 91.5 28.5t32.5 76.5q0 52 -36.5 78t-90.5 26q-85 0 -140 -53l-125 35l47 331h459v-126h-328l-21 -139q72 55 177 55q110 0 173.5 -53.5t63.5 -150.5q0 -112 -84 -168.5t-222 -56.5z" />
    <glyph glyph-name="six.tf" 
d="M374 522q-152 0 -162 -183q76 69 204 69q102 0 174 -50.5t72 -143.5q0 -100 -80.5 -163t-220.5 -63q-159 0 -241 86t-82 237q0 157 88 242.5t250 85.5q119 0 191 -42.5t86 -119.5l-157 -33q-25 78 -122 78zM361 305q-93 0 -145 -51q11 -77 50.5 -113t96.5 -36
q55 0 87.5 29t32.5 76q0 48 -33 71.5t-89 23.5z" />
    <glyph glyph-name="seven.tf" 
d="M386 0h-190v5q0 153 81.5 286.5t212.5 209.5h-430v126h580v-116q-121 -88 -188 -213.5t-67 -262.5q0 -19 1 -35z" />
    <glyph glyph-name="eight.tf" 
d="M350 101q65 0 101.5 25t36.5 67q0 41 -37 66t-101 25q-63 0 -100 -25t-37 -66q0 -42 36 -67t101 -25zM350 372q51 0 82.5 22t31.5 59q0 35 -31.5 55.5t-82.5 20.5q-50 0 -81.5 -20.5t-31.5 -55.5q0 -36 31.5 -58.5t81.5 -22.5zM350 -12q-144 0 -228 47.5t-84 135.5
q0 64 45.5 105.5t112.5 51.5q-131 27 -131 140q0 78 76 124.5t206 46.5q131 0 210 -47t79 -124q0 -113 -131 -140q67 -10 112.5 -51.5t45.5 -105.5q0 -88 -84.5 -135.5t-228.5 -47.5z" />
    <glyph glyph-name="nine.tf" 
d="M326 105q151 0 160 184q-74 -69 -202 -69q-101 0 -173 50.5t-72 143.5q0 100 80 162.5t220 62.5q159 0 241 -85.5t82 -236.5q0 -157 -88 -243t-250 -86q-119 0 -191 43t-87 120l157 33q8 -35 40.5 -57t82.5 -22zM339 323q94 0 144 51q-11 77 -50 112.5t-97 35.5
q-54 0 -87 -28t-33 -76t33 -71.5t90 -23.5z" />
    <glyph glyph-name="zero.tf" 
d="M678 313q0 -156 -86.5 -240.5t-242.5 -84.5q-155 0 -241.5 84.5t-86.5 240.5t86.5 241t241.5 85q156 0 242.5 -85t86.5 -241zM199 313q0 -206 150 -206q151 0 151 206q0 207 -151 207q-150 0 -150 -207z" />
    <glyph glyph-name="zero.tf.zero" 
d="M679 313q0 -156 -86.5 -240.5t-242.5 -84.5q-155 0 -241.5 84.5t-86.5 240.5t86.5 241t241.5 85q156 0 242.5 -85t86.5 -241zM506 313q0 47 -10 89l-256 -254q40 -45 110 -45q156 0 156 210zM195 313q0 -42 9 -87l256 252q-40 46 -110 46q-155 0 -155 -211z" />
    <glyph glyph-name="zero.osf" horiz-adv-x="709" 
d="M355 101q64 0 100.5 41.5t36.5 105.5t-37 105.5t-101 41.5t-100.5 -41.5t-36.5 -105.5t37 -105.5t101 -41.5zM354 508q131 0 218 -66t87 -194t-87 -194t-217 -66q-131 0 -218 66t-87 194t87 194t217 66z" />
    <glyph glyph-name="one.osf" horiz-adv-x="551" 
d="M50 0v116h186v197q-66 -33 -163 -33v117q73 0 128 26.5t70 73.5h126v-381h129v-116h-476z" />
    <glyph glyph-name="two.osf" horiz-adv-x="648" 
d="M336 508q122 0 189.5 -41.5t67.5 -116.5q0 -144 -310 -229h303v-121h-530v126l49 16q162 53 241 98.5t79 92.5q0 59 -93 59q-55 0 -94 -31.5t-43 -80.5l-140 31q7 93 86.5 145t194.5 52z" />
    <glyph glyph-name="three.osf" horiz-adv-x="671" 
d="M330 -143q-116 0 -196.5 53t-86.5 142l142 34q5 -48 49 -80t99 -32q122 0 122 84q0 26 -10.5 42.5t-31.5 23.5t-41.5 9.5t-51.5 2.5h-27.5t-25.5 -0.5t-11 -0.5v110l11 -1h27h29q109 2 109 81q0 66 -101 66q-55 0 -95 -31.5t-44 -80.5l-137 31q7 93 85.5 145.5
t192.5 52.5q121 0 192 -43.5t71 -124.5q0 -51 -35 -90t-102 -54q78 -10 121.5 -48.5t43.5 -102.5q0 -94 -80.5 -141t-217.5 -47z" />
    <glyph glyph-name="four.osf" horiz-adv-x="661" 
d="M368 134v226l-208 -226h208zM526 -134h-158v154h-343v123l324 354h177v-363h110v-114h-110v-154z" />
    <glyph glyph-name="five.osf" horiz-adv-x="660" 
d="M329 -142q-122 0 -199.5 53t-84.5 142l142 34q6 -49 46 -80.5t99 -31.5q56 0 86 28.5t30 76.5q0 52 -34 78t-85 26q-80 0 -131 -53l-117 35l44 331h429v-121h-306l-20 -144q67 55 166 55t160 -54t61 -150q0 -111 -81 -168t-205 -57z" />
    <glyph glyph-name="six.osf" horiz-adv-x="683" 
d="M364 522q-142 0 -151 -183q71 69 190 69q95 0 162.5 -50.5t67.5 -143.5q0 -99 -78 -162.5t-203 -63.5q-143 0 -222.5 87t-79.5 236q0 155 84.5 241.5t231.5 86.5q106 0 176 -43.5t83 -118.5l-147 -33q-9 35 -38.5 56.5t-75.5 21.5zM352 305q-86 0 -136 -51
q11 -77 48 -113t90 -36q51 0 81.5 29t30.5 76q0 48 -30.5 71.5t-83.5 23.5z" />
    <glyph glyph-name="seven.osf" horiz-adv-x="549" 
d="M315 -131h-178v6q0 151 71 283.5t188 217.5h-371v121h499v-116q-93 -82 -151.5 -212t-58.5 -265q0 -20 1 -35z" />
    <glyph glyph-name="eight.osf" horiz-adv-x="674" 
d="M337 101q61 0 94 24t33 66q0 41 -34 67t-93 26t-93 -26t-34 -67q0 -42 33 -66t94 -24zM337 372q47 0 75.5 22t28.5 59q0 35 -28.5 55.5t-75.5 20.5t-75.5 -20.5t-28.5 -55.5q0 -37 28.5 -59t75.5 -22zM337 -12q-129 0 -210.5 48t-81.5 135q0 64 42.5 105.5t105.5 51.5
q-123 27 -123 140q0 77 74 124t190 47q117 0 193.5 -47.5t76.5 -123.5q0 -113 -123 -140q63 -10 105.5 -51.5t42.5 -105.5q0 -87 -81.5 -135t-210.5 -48z" />
    <glyph glyph-name="nine.osf" horiz-adv-x="682" 
d="M318 -26q141 0 150 184q-69 -69 -189 -69q-95 0 -162 50.5t-67 143.5q0 99 77.5 162t202.5 63q143 0 222.5 -86.5t79.5 -235.5q0 -155 -84.5 -242t-231.5 -87q-105 0 -175.5 44t-83.5 119l147 34q8 -35 38 -57.5t76 -22.5zM330 192q88 0 135 51q-10 77 -46.5 112.5
t-90.5 35.5q-51 0 -82 -28t-31 -76t31 -71.5t84 -23.5z" />
    <glyph glyph-name="bar.case" horiz-adv-x="316" 
d="M219 -165h-122v940h122v-940z" />
    <glyph glyph-name="hyphen.case" horiz-adv-x="472" 
d="M65 236v121h342v-121h-342z" />
    <glyph glyph-name="endash.case" 
d="M65 248v97h570v-97h-570z" />
    <glyph glyph-name="emdash.case" horiz-adv-x="1200" 
d="M65 248v97h1070v-97h-1070z" />
    <glyph glyph-name="slash.case" horiz-adv-x="404" 
d="M104 -164h-99l295 939h99z" />
    <glyph glyph-name="backslash.case" horiz-adv-x="404" 
d="M399 -164h-99l-295 939h99z" />
    <glyph glyph-name="parenleft.case" horiz-adv-x="378" 
d="M225 303q0 -131 39.5 -243.5t98.5 -160.5l-31 -55q-114 51 -188 169.5t-74 289.5q0 172 74 290.5t188 169.5l31 -55q-59 -48 -98.5 -161t-39.5 -244z" />
    <glyph glyph-name="parenright.case" horiz-adv-x="378" 
d="M153 303q0 131 -39.5 244t-98.5 161l31 55q114 -51 188 -169.5t74 -290.5q0 -171 -74 -289.5t-188 -169.5l-31 55q59 48 98.5 160.5t39.5 243.5z" />
    <glyph glyph-name="bracketleft.case" horiz-adv-x="390" 
d="M90 -164v939h285v-83h-142v-772h142v-84h-285z" />
    <glyph glyph-name="bracketright.case" horiz-adv-x="390" 
d="M300 775v-939h-285v84h142v772h-142v83h285z" />
    <glyph glyph-name="braceleft.case" horiz-adv-x="425" 
d="M80 258v94q50 0 68.5 18t18.5 59q0 21 -4 40l-28 132q-3 15 -3 32q0 57 42.5 99t127.5 42q58 0 93 -14l-14 -73q-17 6 -49 6q-57 0 -57 -61q0 -15 2 -24l27 -135q5 -29 5 -47q0 -52 -27 -81.5t-104 -39.5q77 -10 104 -39.5t27 -81.5q0 -18 -5 -47l-27 -135q-2 -9 -2 -24
q0 -61 51 -61q35 0 55 11l19 -71q-37 -21 -98 -21q-85 0 -127.5 42t-42.5 99q0 17 3 32l28 132q4 19 4 40q0 41 -18.5 59t-68.5 18z" />
    <glyph glyph-name="braceright.case" horiz-adv-x="425" 
d="M345 352v-94q-50 0 -68.5 -18t-18.5 -59q0 -21 4 -40l28 -132q3 -15 3 -32q0 -57 -42.5 -99t-127.5 -42q-61 0 -98 21l19 71q20 -11 55 -11q51 0 51 61q0 15 -2 24l-27 135q-5 29 -5 47q0 52 27 81.5t104 39.5q-77 10 -104 39.5t-27 81.5q0 18 5 47l27 135q2 9 2 24
q0 61 -57 61q-32 0 -49 -6l-14 73q35 14 93 14q85 0 127.5 -42t42.5 -99q0 -17 -3 -32l-28 -132q-4 -19 -4 -40q0 -41 18.5 -59t68.5 -18z" />
    <glyph glyph-name="guilsinglleft.case" horiz-adv-x="368" 
d="M187 117l-132 179l132 180h106l-97 -180l97 -179h-106z" />
    <glyph glyph-name="guilsinglright.case" horiz-adv-x="368" 
d="M313 296l-132 -179h-106l97 179l-97 180h106z" />
    <glyph glyph-name="guillemotleft.case" horiz-adv-x="589" 
d="M187 117l-132 179l132 180h106l-97 -180l97 -179h-106zM408 117l-132 179l132 180h106l-97 -180l97 -179h-106z" />
    <glyph glyph-name="guillemotright.case" horiz-adv-x="590" 
d="M313 296l-132 -179h-106l97 179l-97 180h106zM535 296l-132 -179h-106l97 179l-97 180h106z" />
    <glyph glyph-name="exclamdown.case" horiz-adv-x="374" 
d="M154 380h66l54 -205v-175h-174v175zM97 627h180v-145h-180v145z" />
    <glyph glyph-name="questiondown.case" horiz-adv-x="693" 
d="M264 628h180v-145h-180v145zM491 231l148 -14q0 -92 -78 -160t-222 -68q-132 0 -208 51.5t-76 129.5q0 51 35 87.5t103 66.5q16 7 38 15.5t32.5 13t22.5 11.5t18 14t8 17l3 17h92l4 -11q7 -19 7 -34q0 -37 -17.5 -58.5t-73.5 -47.5q-61 -28 -80.5 -43t-19.5 -40
q0 -27 30.5 -44.5t82.5 -17.5q61 0 103.5 31t47.5 84z" />
    <glyph glyph-name="bar.salt" horiz-adv-x="225" 
d="M128 -195h-31v940h31v-940z" />
    <glyph glyph-name="brokenbar.salt" horiz-adv-x="225" 
d="M128 341h-31v404h31v-404zM128 -195h-31v404h31v-404z" />
    <glyph glyph-name="hyphen.salt" horiz-adv-x="472" 
d="M65 241v31h342v-31h-342z" />
    <glyph glyph-name="uni00AD.salt" horiz-adv-x="472" 
d="M407 241h-342v31h342v-31z" />
    <glyph glyph-name="endash.salt" 
d="M635 241h-570v31h570v-31z" />
    <glyph glyph-name="emdash.salt" horiz-adv-x="1200" 
d="M1135 241h-1070v31h1070v-31z" />
    <glyph glyph-name="underscore.salt" 
d="M635 -89h-570v31h570v-31z" />
    <glyph glyph-name="asciitilde.salt" 
d="M481 192q47 0 71 33.5t29 108.5h31q-5 -89 -36.5 -131t-94.5 -42q-29 0 -58.5 14.5t-54 35.5l-48 42t-50.5 35.5t-52 14.5q-47 0 -71 -33.5t-28 -108.5h-31q5 89 36 131t94 42q35 0 72.5 -22t64.5 -49t61.5 -49t64.5 -22z" />
    <glyph glyph-name="plus.salt" 
d="M366 30h-31v223h-241v31h241v222h31v-222h240v-31h-240v-223z" />
    <glyph glyph-name="plusminus.salt" 
d="M366 157h-31v212h-240v31h240v213h31v-213h240v-31h-240v-212zM606 31v-31h-511v31h511z" />
    <glyph glyph-name="minus.salt" 
d="M586 284v-31h-472v31h472z" />
    <glyph glyph-name="divide.salt" 
d="M606 284v-31h-512v31h512zM423 0h-147v138h147v-138zM423 398h-147v138h147v-138z" />
    <glyph glyph-name="multiply.salt" 
d="M148 68l-22 22l200 182l-200 182l22 22l201 -183l202 183l22 -22l-201 -182l201 -182l-22 -22l-202 183z" />
    <glyph glyph-name="equal.salt" 
d="M586 161v-31h-472v31h472zM586 406v-31h-472v31h472z" />
    <glyph glyph-name="notequal.salt" 
d="M249 -46l-30 10l64 166h-189v31h201l83 214h-284v31h296l63 162l29 -10l-59 -152h183v-31h-195l-82 -214h277v-31h-289z" />
    <glyph glyph-name="approxequal.salt" 
d="M481 106q47 0 71 33.5t29 108.5h31q-5 -89 -36.5 -131t-94.5 -42q-29 0 -58.5 14.5t-54 35.5l-48 42t-50.5 35.5t-52 14.5q-47 0 -71 -33.5t-28 -108.5h-31q5 89 36 131t94 42q35 0 72.5 -22t64.5 -49t61.5 -49t64.5 -22zM481 360q47 0 71 33.5t29 108.5h31
q-5 -89 -36.5 -131t-94.5 -42q-29 0 -58.5 14.5t-54 35.5l-48 42t-50.5 35.5t-52 14.5q-47 0 -71 -33.5t-28 -108.5h-31q5 89 36 131t94 42q35 0 72.5 -22t64.5 -49t61.5 -49t64.5 -22z" />
    <glyph glyph-name="less.salt" 
d="M96 286l475 200l12 -29l-447 -187l447 -187l-12 -29l-475 200v32z" />
    <glyph glyph-name="greater.salt" 
d="M128 486l475 -200v-32l-475 -200l-12 29l447 187l-447 187z" />
    <glyph glyph-name="lessequal.salt" 
d="M94 382l475 180l12 -29l-445 -167l445 -167l-12 -29l-475 180v32zM606 31v-31h-512v31h512z" />
    <glyph glyph-name="greaterequal.salt" 
d="M131 562l475 -180v-32l-475 -180l-12 29l445 167l-445 167zM94 0v31h512v-31h-512z" />
    <glyph glyph-name="exclam.salt" horiz-adv-x="355" 
d="M193 246h-31v381h31v-381zM258 0h-161v145h161v-145z" />
    <glyph glyph-name="exclamdown.salt" horiz-adv-x="355" 
d="M162 230h31v-381h-31v381zM97 476h161v-145h-161v145z" />
    <glyph glyph-name="question.salt" horiz-adv-x="564" 
d="M290 234h-31v28q0 16 2.5 29.5t10.5 25t12 18.5t19 16.5t19 12.5t24 13t23 12q5 3 20.5 10.5t22.5 11.5l19.5 11.5t19 14t14 15.5t10.5 19t3 22q0 53 -49.5 84.5t-138.5 31.5q-88 0 -145.5 -38.5t-57.5 -108.5v-11h-32v13q0 79 67 127t169 48q101 0 159.5 -39.5
t58.5 -106.5q0 -18 -7.5 -34.5t-14.5 -27t-26 -23.5t-26 -17t-30.5 -15.5t-24.5 -12.5q-49 -25 -69.5 -44.5t-20.5 -57.5v-27zM358 0h-161v145h161v-145z" />
    <glyph glyph-name="questiondown.salt" horiz-adv-x="564" 
d="M273 243h31v-28q0 -14 -3 -26.5t-6 -21.5t-11.5 -18.5l-13 -14.5t-17 -13l-17.5 -11t-21 -11.5l-20 -10.5q-5 -3 -20.5 -10.5t-22.5 -11.5l-19.5 -11.5t-19 -14t-14 -15.5t-10.5 -19t-3 -22q0 -53 49.5 -84.5t138.5 -31.5q88 0 145.5 38.5t57.5 108.5v11h32v-13
q0 -79 -67 -127t-169 -48q-101 0 -159.5 39.5t-58.5 106.5q0 18 7.5 34.5t14.5 27t26 23.5t26 17t30.5 15.5t24.5 12.5q49 24 69 44t20 58v27zM206 477h161v-145h-161v145z" />
    <glyph glyph-name="quotesingle.salt" horiz-adv-x="201" 
d="M85 367v260h31v-260h-31z" />
    <glyph glyph-name="quotedbl.salt" horiz-adv-x="357" 
d="M85 367v260h31v-260h-31zM241 367v260h31v-260h-31z" />
    <glyph glyph-name="comma.salt" horiz-adv-x="345" 
d="M253 12l-127 -214l-27 16l117 196h-124v135h161v-133z" />
    <glyph glyph-name="period.salt" horiz-adv-x="345" 
d="M253 0h-161v145h161v-145z" />
    <glyph glyph-name="ellipsis.salt" horiz-adv-x="963" 
d="M877 0h-161v145h161v-145zM258 0h-161v145h161v-145zM567 0h-161v145h161v-145z" />
    <glyph glyph-name="colon.salt" horiz-adv-x="345" 
d="M253 331h-161v145h161v-145zM253 0h-161v145h161v-145z" />
    <glyph glyph-name="semicolon.salt" horiz-adv-x="345" 
d="M253 331h-161v145h161v-145zM253 12l-127 -214l-27 16l117 196h-124v135h161v-133z" />
    <glyph glyph-name="periodcentered.salt" horiz-adv-x="345" 
d="M253 188h-161v145h161v-145z" />
    <glyph glyph-name="uni2219.salt" horiz-adv-x="345" 
d="M253 188h-161v145h161v-145z" />
    <glyph glyph-name="bullet.salt" horiz-adv-x="443" 
d="M92 259q0 59 36 94.5t94 35.5t93.5 -35.5t35.5 -94.5q0 -60 -35.5 -95t-93.5 -35t-94 35.5t-36 94.5zM123 259q0 -45 27 -72t72 -27q44 0 71 27t27 72t-27 72t-71 27t-71.5 -27t-27.5 -72z" />
    <glyph glyph-name="quoteleft.salt" horiz-adv-x="345" 
d="M92 476l127 214l27 -16l-117 -196h124v-135h-161v133z" />
    <glyph glyph-name="quotedblleft.salt" horiz-adv-x="575" 
d="M92 476l127 214l27 -16l-117 -196h124v-135h-161v133zM322 476l127 214l27 -16l-117 -196h124v-135h-161v133z" />
    <glyph glyph-name="quoteright.salt" horiz-adv-x="345" 
d="M253 537l-127 -214l-27 16l117 196h-124v135h161v-133z" />
    <glyph glyph-name="quotedblright.salt" horiz-adv-x="574" 
d="M252 537l-127 -214l-27 16l117 196h-124v135h161v-133zM482 537l-127 -214l-27 16l117 196h-124v135h161v-133z" />
    <glyph glyph-name="quotesinglbase.salt" horiz-adv-x="344" 
d="M252 13l-127 -214l-27 16l117 196h-124v135h161v-133z" />
    <glyph glyph-name="quotedblbase.salt" horiz-adv-x="574" 
d="M252 12l-127 -214l-27 16l117 196h-124v135h161v-133zM482 12l-127 -214l-27 16l117 196h-124v135h161v-133z" />
    <glyph glyph-name="guilsinglleft.salt" horiz-adv-x="298" 
d="M198 40l-143 198l143 198l25 -18l-129 -180l129 -180z" />
    <glyph glyph-name="guilsinglright.salt" horiz-adv-x="297" 
d="M242 238l-142 -198l-25 18l128 180l-128 180l25 18z" />
    <glyph glyph-name="guillemotleft.salt" horiz-adv-x="471" 
d="M198 40l-143 198l143 198l25 -18l-129 -180l129 -180zM371 40l-143 198l143 198l25 -18l-129 -180l129 -180z" />
    <glyph glyph-name="guillemotright.salt" horiz-adv-x="471" 
d="M243 238l-143 -198l-25 18l129 180l-129 180l25 18zM416 238l-143 -198l-25 18l129 180l-129 180l25 18z" />
    <glyph glyph-name="slash.salt" horiz-adv-x="333" 
d="M35 -195l-30 9l293 930l30 -9z" />
    <glyph glyph-name="backslash.salt" horiz-adv-x="333" 
d="M328 -186l-30 -9l-293 930l30 9z" />
    <glyph glyph-name="uni2215.salt" horiz-adv-x="115" 
d="M-176 -10l-24 20l491 626l24 -19z" />
    <glyph glyph-name="fraction.salt" horiz-adv-x="115" 
d="M-176 -10l-24 20l491 626l24 -19z" />
    <glyph glyph-name="parenleft.salt" horiz-adv-x="330" 
d="M111 273q0 -125 50.5 -248.5t153.5 -193.5l-17 -26q-100 69 -159 192t-59 276t59 276t159 192l17 -26q-103 -70 -153.5 -193.5t-50.5 -248.5z" />
    <glyph glyph-name="parenright.salt" horiz-adv-x="330" 
d="M219 273q0 125 -50.5 248.5t-153.5 193.5l17 26q100 -69 159 -192t59 -276t-59 -276t-159 -192l-17 26q103 70 153.5 193.5t50.5 248.5z" />
    <glyph glyph-name="bracketleft.salt" horiz-adv-x="288" 
d="M90 -194v939h183v-30h-152v-879h152v-30h-183z" />
    <glyph glyph-name="bracketright.salt" horiz-adv-x="288" 
d="M198 745v-939h-183v30h152v879h-152v30h183z" />
    <glyph glyph-name="braceleft.salt" horiz-adv-x="344" 
d="M80 260v30q116 14 116 105q0 27 -23 65.5t-46 83t-23 84.5q0 60 34.5 92.5t84.5 32.5q57 0 96 -25l-13 -26q-37 21 -80 21q-42 0 -66.5 -24t-24.5 -71q0 -39 23 -80.5l46 -81.5t23 -77q0 -40 -25 -71t-69 -43q44 -12 69 -43t25 -71q0 -37 -23 -77l-46 -81.5t-23 -80.5
q0 -47 24.5 -71t66.5 -24q43 0 80 21l13 -26q-39 -25 -96 -25q-50 0 -84.5 32.5t-34.5 92.5q0 40 23 84.5t46 83t23 65.5q0 91 -116 105z" />
    <glyph glyph-name="braceright.salt" horiz-adv-x="344" 
d="M264 290v-30q-116 -14 -116 -105q0 -27 23 -65.5t46 -83t23 -84.5q0 -60 -34.5 -92.5t-84.5 -32.5q-57 0 -96 25l13 26q37 -21 80 -21q42 0 66.5 24t24.5 71q0 39 -23 80.5l-46 81.5t-23 77q0 40 25 71t69 43q-44 12 -69 43t-25 71q0 37 23 77l46 81.5t23 80.5
q0 47 -24.5 71t-66.5 24q-43 0 -80 -21l-13 26q39 25 96 25q50 0 84.5 -32.5t34.5 -92.5q0 -40 -23 -84.5t-46 -83t-23 -65.5q0 -91 116 -105z" />
    <glyph glyph-name="ordfeminine.salt" horiz-adv-x="551" 
d="M452 197h-391v31h391v-31zM410 303q-39 0 -67 24t-28 73v5q-16 -43 -58.5 -72.5t-97.5 -29.5q-50 0 -79.5 20.5t-29.5 62.5q0 33 18.5 55t55.5 33t76.5 15.5t97.5 6.5v15q0 49 -62 49q-73 0 -107 -58l-66 50q53 81 179 81q81 0 126 -30.5t45 -88.5q0 -8 -1 -22l-5 -62
q0 -4 -0.5 -11.5t-0.5 -10.5q0 -29 31 -29q23 0 44 12l20 -58q-34 -30 -91 -30zM298 459q-63 -1 -95 -17.5t-32 -41.5q0 -30 37 -30q26 0 51.5 16t38.5 36v37z" />
    <glyph glyph-name="ordmasculine.salt" horiz-adv-x="510" 
d="M450 197h-391v31h391v-31zM255 374q42 0 64 26.5t22 67.5q0 40 -22.5 67t-64.5 27q-41 0 -63 -26.5t-22 -67.5t22.5 -67.5t63.5 -26.5zM254 633q88 0 147 -40.5t59 -124.5t-58 -124.5t-147 -40.5q-88 0 -146.5 40.5t-58.5 124.5t58 124.5t146 40.5z" />
    <glyph glyph-name="dagger.salt" horiz-adv-x="451" 
d="M241 124h-31v340h-165v31h165v175h31v-175h165v-31h-165v-340z" />
    <glyph glyph-name="daggerdbl.salt" horiz-adv-x="451" 
d="M241 1h-31v175h-165v31h165v257h-165v31h165v175h31v-175h165v-31h-165v-257h165v-31h-165v-175z" />
    <glyph glyph-name="degree.salt" horiz-adv-x="408" 
d="M204 333q-68 0 -113.5 42t-45.5 110q0 69 45.5 111.5t113.5 42.5t113.5 -42.5t45.5 -111.5q0 -68 -45.5 -110t-113.5 -42zM204 363q55 0 91.5 34t36.5 88q0 55 -36.5 89.5t-91.5 34.5t-91.5 -34.5t-36.5 -89.5q0 -54 36.5 -88t91.5 -34z" />
    <glyph glyph-name="asterisk.salt" horiz-adv-x="497" 
d="M392 282l-25 -19l-116 161l-118 -163l-25 18l117 162l-190 61l9 30l190 -62v200h31v-200l187 61l10 -29l-187 -61z" />
    <glyph glyph-name="asciicircum.salt" horiz-adv-x="463" 
d="M247 627l201 -300l-26 -18l-191 285l-190 -285l-26 18l200 300h32z" />
    <glyph glyph-name="ampersand.salt" horiz-adv-x="917" 
d="M831 168h31v-4q0 -80 -42 -128t-108 -48q-49 0 -94 26t-113 94l-31 31q-55 -67 -116.5 -109t-144.5 -42q-61 0 -109.5 36t-48.5 105q0 65 54 115.5t165 90.5l11 3.5t12 4.5q-34 42 -52 76t-18 76q0 60 43.5 102t121.5 42q73 0 115.5 -37t42.5 -89q0 -62 -48 -101
t-154 -80l125 -146l46.5 61t48.5 53t60.5 49t69 29t87.5 13q18 0 28 -1v-30q-9 1 -26 1q-44 0 -82.5 -12.5t-64 -27t-56.5 -46.5t-46 -51t-45 -60l39 -40q106 -106 178 -106q53 0 87 39.5t34 103.5v7zM213 18q74 0 130.5 39t110.5 104l-137 159l-32 -12q-199 -73 -199 -179
q0 -53 39.5 -82t87.5 -29zM258 495q0 -61 69 -141q109 42 150.5 75.5t41.5 83.5q0 39 -34 67.5t-92 28.5q-65 0 -100 -33.5t-35 -80.5z" />
    <glyph glyph-name="at.salt" horiz-adv-x="982" 
d="M517 463q52 0 90.5 -27t43.5 -71l23 75h32l-76 -254q-9 -31 -9 -55q0 -38 23.5 -59t60.5 -21q73 0 129.5 68.5t56.5 180.5q0 149 -112.5 235t-280.5 86q-77 0 -149 -25t-130 -72.5t-93 -123.5t-35 -170q0 -176 109.5 -276t279.5 -100q109 0 209 54l13 -27
q-100 -57 -221 -57q-186 0 -303.5 110t-117.5 296q0 100 37.5 181.5t99.5 133t140 79t162 27.5q184 0 303.5 -95t119.5 -253q0 -127 -65.5 -204t-150.5 -77q-47 0 -79 25.5t-33 67.5q-62 -93 -170 -93q-23 0 -46 8t-45.5 25t-36.5 50t-14 78q0 118 68.5 199t166.5 81z
M518 433q-86 0 -145.5 -72t-59.5 -178q0 -74 35 -103t82 -29q44 0 94.5 33.5t71.5 99.5l29 92q6 20 6 44q0 52 -32 82.5t-81 30.5z" />
    <glyph glyph-name="numbersign.salt" 
d="M112 408v30h140l37 193l32 -4l-37 -189h180l37 193l32 -4l-37 -189h135v-30h-141l-36 -188h136v-30h-142l-36 -190l-31 5l35 185h-180l-36 -190l-31 5l35 185h-134v30h140l36 188h-134zM278 408l-36 -188h180l36 188h-180z" />
    <glyph glyph-name="dollar.salt" horiz-adv-x="661" 
d="M260 -125v150q-90 16 -142 68.5t-53 126.5h31q0 -60 44 -104t120 -60v254q-88 15 -130.5 47.5t-42.5 90.5q0 56 44 99t129 57v130h31v-126q22 3 47 3q29 0 52 -4v127h31v-132q77 -18 122.5 -67t45.5 -114h-31q-2 52 -38.5 92.5t-98.5 56.5v-248q175 -17 175 -141
q0 -63 -45.5 -103.5t-129.5 -53.5v-149h-31v145q-32 -2 -50 -2q-19 0 -49 2v-145h-31zM565 181q0 49 -39 77t-105 35v-239q69 12 106.5 45t37.5 82zM118 448q0 -85 142 -108v234q-69 -13 -105.5 -47.5t-36.5 -78.5zM390 50v247q-6 1 -28 2.5t-41 3.5t-30 3v-255q23 -3 49 -3
q18 0 50 2zM291 578v-243q13 -2 50 -5l49 -4v251q-34 4 -52 4q-26 0 -47 -3z" />
    <glyph glyph-name="cent.salt" horiz-adv-x="659" 
d="M318 -145v132q-111 6 -182 75.5t-71 174.5t71 174.5t182 75.5v137h31v-136q105 -3 171.5 -57.5t73.5 -114.5h-31q-9 50 -66 94.5t-148 47.5v-442q91 3 148 47.5t66 94.5h31q-7 -60 -73.5 -114.5t-171.5 -57.5v-131h-31zM96 237q0 -94 62 -154.5t160 -66.5v441
q-98 -5 -160 -65.5t-62 -154.5z" />
    <glyph glyph-name="sterling.salt" horiz-adv-x="718" 
d="M615 226l27 15q31 -45 31 -99q0 -68 -40 -111t-116 -43q-34 0 -69.5 14t-55.5 27.5l-57 40.5q-27 -37 -72 -59.5t-99 -22.5q-53 0 -91 25.5t-38 72.5q0 46 35.5 72t88.5 26q73 0 166 -68q6 16 6 33q0 68 -56 127h-169v29h139q-83 85 -83 172q0 76 59.5 119t147.5 43
q107 0 161 -50.5t54 -128.5q0 -28 -8 -58l-30 6q7 25 7 53q0 66 -46.5 107.5t-137.5 41.5q-74 0 -125 -34.5t-51 -97.5q0 -44 26.5 -89.5t64.5 -80.5l3 -3h234v-29h-207q48 -60 48 -127q0 -27 -12 -52q77 -55 110 -68q29 -12 56 -12q60 0 93 34.5t33 90.5q0 42 -27 84z
M159 154q-41 0 -66.5 -18.5t-25.5 -49.5q0 -36 29 -52.5t67 -16.5q50 0 88.5 19.5t59.5 51.5q-89 66 -152 66z" />
    <glyph glyph-name="yen.salt" horiz-adv-x="650" 
d="M48 324v30h163l-176 267l26 16l264 -400l264 400l26 -17l-176 -266h161v-30h-181l-58 -88h239v-30h-259v-206h-31v206h-262v30h242l-59 88h-183z" />
    <glyph glyph-name="florin.salt" 
d="M365 432v-81h155v-29h-155v-128q0 -115 -38 -160.5t-108 -45.5q-57 0 -100 37l20 24q33 -31 81 -31q55 0 84.5 38t29.5 139v127h-155v29h155v82q0 115 38 160.5t108 45.5q57 0 100 -37l-20 -24q-33 31 -81 31q-55 0 -84.5 -38t-29.5 -139z" />
    <glyph glyph-name="Euro.salt" horiz-adv-x="778" 
d="M55 361v29h96q21 112 97 180.5t192 68.5q120 0 196.5 -68.5t76.5 -157.5h-31q0 77 -68.5 137t-173.5 60q-102 0 -170 -60t-88 -160h367v-29h-371q-3 -24 -3 -48q0 -33 4 -57h370v-28h-365q21 -97 88.5 -154t167.5 -57q105 0 173.5 60t68.5 137h31q0 -89 -76.5 -157.5
t-196.5 -68.5q-114 0 -190 65.5t-98 174.5h-97v28h93q-4 24 -4 57q0 24 3 48h-92z" />
    <glyph glyph-name="section.salt" 
d="M364 -185q-97 0 -156 48t-59 128h31q0 -67 51.5 -106.5t133.5 -39.5q70 0 114 31t44 81q0 40 -29 66t-92 45l-173 55q-77 24 -115 58t-38 89q0 49 34 84.5t83 48.5q-46 36 -46 94q0 62 50.5 102t139.5 40q97 0 156 -48t59 -128h-31q0 67 -51.5 106.5t-133.5 39.5
q-70 0 -114 -31t-44 -81q0 -40 29 -66t92 -45l173 -55q77 -24 115 -58t38 -89q0 -49 -34 -84.5t-84 -48.5q47 -36 47 -94q0 -62 -50.5 -102t-139.5 -40zM292 357q-44 13 -72 28q-54 -13 -83.5 -44t-29.5 -72q0 -44 33.5 -70.5t98.5 -47.5l170 -54q44 -14 71 -29
q54 13 84 44.5t30 72.5q0 44 -33.5 70.5t-98.5 47.5z" />
    <glyph glyph-name="currency.salt" 
d="M608 14l-22 -22l-80 79q-66 -57 -157 -57t-158 57l-78 -79l-22 22l78 79q-60 66 -60 158t60 157l-78 78l22 22l78 -78q68 58 158 58t158 -58l78 79l22 -22l-78 -78q61 -67 61 -158q0 -92 -61 -159zM349 43q88 0 149 60.5t61 147.5t-61 147.5t-149 60.5q-87 0 -148 -60.5
t-61 -147.5t61 -147.5t148 -60.5z" />
    <glyph glyph-name="paragraph.salt" 
d="M468 -173h-31v392h-85q-284 0 -284 207q0 100 65.5 150.5t214.5 50.5h120v-800zM99 426q0 -88 58.5 -132t193.5 -44h86v346h-89q-134 0 -191.5 -41.5t-57.5 -128.5zM603 -173h-31v800h31v-800z" />
    <glyph glyph-name="registered.salt" horiz-adv-x="580" 
d="M520 454q0 -97 -66.5 -162.5t-164.5 -65.5q-97 0 -163 65.5t-66 162.5t66 162.5t163 65.5q98 0 164.5 -65.5t66.5 -162.5zM90 454q0 -85 57.5 -142t141.5 -57q86 0 143.5 57t57.5 142t-57.5 142t-143.5 57q-84 0 -141.5 -57t-57.5 -142zM390 349h-34q-6 9 -10 33t-14 39
t-34 15h-53v-87h-31v219h82q42 0 63.5 -16.5t21.5 -43.5q0 -50 -53 -59q26 -2 35 -19q5 -9 12 -38t15 -43zM290 464q60 0 60 40q0 18 -13 27t-47 9h-45v-76h45z" />
    <glyph glyph-name="percent.salt" horiz-adv-x="871" 
d="M217 635q65 0 114 -46.5t49 -136.5q0 -91 -48.5 -137.5t-114.5 -46.5q-65 0 -113.5 46.5t-48.5 137.5q0 90 48.5 136.5t113.5 46.5zM203 -10l-24 20l491 626l24 -19zM217 605q-53 0 -92 -39t-39 -114t39.5 -114.5t91.5 -39.5q53 0 92.5 39t39.5 115q0 75 -39.5 114
t-92.5 39zM653 362q65 0 114 -46.5t49 -136.5q0 -91 -48.5 -137.5t-114.5 -46.5q-65 0 -113.5 46.5t-48.5 137.5q0 90 48.5 136.5t113.5 46.5zM653 332q-53 0 -92 -39t-39 -114t39.5 -114.5t91.5 -39.5q53 0 92.5 39.5t39.5 114.5t-39.5 114t-92.5 39z" />
    <glyph glyph-name="perthousand.salt" horiz-adv-x="1277" 
d="M217 635q65 0 114 -46.5t49 -136.5q0 -91 -48.5 -137.5t-114.5 -46.5q-65 0 -113.5 46.5t-48.5 137.5q0 90 48.5 136.5t113.5 46.5zM203 -10l-24 20l491 626l24 -19zM217 605q-53 0 -92 -39t-39 -114t39.5 -114.5t91.5 -39.5q53 0 92.5 39t39.5 115q0 75 -39.5 114
t-92.5 39zM653 362q65 0 114 -46.5t49 -136.5q0 -91 -48.5 -137.5t-114.5 -46.5q-65 0 -113.5 46.5t-48.5 137.5q0 90 48.5 136.5t113.5 46.5zM653 332q-53 0 -92 -39t-39 -114t39.5 -114.5t91.5 -39.5q53 0 92.5 39.5t39.5 114.5t-39.5 114t-92.5 39zM1059 362
q65 0 114 -46.5t49 -136.5q0 -91 -48.5 -137.5t-114.5 -46.5q-65 0 -113.5 46.5t-48.5 137.5q0 90 48.5 136.5t113.5 46.5zM1059 332q-53 0 -92 -39t-39 -114t39.5 -114.5t91.5 -39.5q53 0 92.5 39.5t39.5 114.5t-39.5 114t-92.5 39z" />
    <glyph glyph-name="copyright.salt" horiz-adv-x="778" 
d="M388 -12q-136 0 -232 94.5t-96 229.5q0 137 96 232t232 95q137 0 233.5 -95t96.5 -232q0 -135 -96.5 -229.5t-233.5 -94.5zM388 17q124 0 211.5 86.5t87.5 208.5q0 124 -87.5 211t-211.5 87q-122 0 -209.5 -87t-87.5 -211q0 -122 87.5 -208.5t209.5 -86.5zM235 315
q0 82 46 124t111 42q60 0 98.5 -32t46.5 -82l-32 -5q-4 39 -35 64.5t-79 25.5t-86.5 -34.5t-38.5 -102.5t39 -103t86 -35q48 0 79 25.5t35 64.5l32 -5q-8 -50 -46.5 -82t-98.5 -32q-65 0 -111 42.5t-46 124.5z" />
    <glyph glyph-name="trademark.salt" horiz-adv-x="750" 
d="M403 343h-31v284h34l117 -162l118 162h34v-284h-31v236l-106 -146h-29l-106 146v-236zM181 343h-31v254h-120v30h272v-30h-121v-254z" />
    <glyph glyph-name="infinity.salt" horiz-adv-x="799" 
d="M203 412q22 0 40 -3.5t45 -15.5t55.5 -42.5t55.5 -77.5q27 46 55.5 76.5t56 42.5t45.5 16t40 4q73 0 121.5 -45t48.5 -124q0 -80 -48.5 -125t-121.5 -45q-22 0 -40 3.5t-45.5 15.5t-56 42.5t-55.5 77.5q-27 -47 -55.5 -77t-55.5 -42.5t-45 -16t-40 -3.5q-73 0 -121.5 45
t-48.5 124q0 80 48.5 125t121.5 45zM64 242q0 -62 40 -100.5t98 -38.5q20 0 36.5 3.5t41.5 15.5t51.5 42.5t51.5 77.5q-25 47 -51.5 78t-51.5 43t-41.5 15.5t-36.5 3.5q-58 0 -98 -39t-40 -101zM735 243q0 62 -40 100.5t-98 38.5q-20 0 -36.5 -3.5t-41.5 -15.5t-51.5 -42.5
t-51.5 -77.5q25 -47 51.5 -78t51.5 -43t41.5 -15.5t36.5 -3.5q58 0 98 39t40 101z" />
    <glyph glyph-name="logicalnot.salt" 
d="M606 30h-31v223h-481v31h512v-254z" />
    <glyph glyph-name="radical.salt" 
d="M47 476h188l170 -439l218 600l30 -10l-227 -627h-41l-172 445h-166v31z" />
    <glyph glyph-name="integral.salt" horiz-adv-x="439" 
d="M235 475v-454q0 -115 -38 -160.5t-108 -45.5q-57 0 -100 37l20 24q33 -31 81 -31q55 0 84.5 38t29.5 139v454q0 115 38 160.5t108 45.5q57 0 100 -37l-20 -24q-33 31 -81 31q-55 0 -84.5 -38t-29.5 -139z" />
    <glyph glyph-name="grave.salt" horiz-adv-x="356" 
d="M69 676l232 -109l-14 -28l-232 109z" />
    <glyph glyph-name="acute.salt" horiz-adv-x="356" 
d="M55 567l232 109l14 -28l-232 -109z" />
    <glyph glyph-name="dieresis.salt" horiz-adv-x="538" 
d="M229 557h-174v31h174v-31zM483 557h-174v31h174v-31z" />
    <glyph glyph-name="circumflex.salt" horiz-adv-x="462" 
d="M55 559l176 114l176 -114l-17 -26l-159 102l-159 -102z" />
    <glyph glyph-name="tilde.salt" horiz-adv-x="440" 
d="M296 565q52 0 58 86h31q-6 -116 -89 -116q-30 0 -56.5 21.5t-50 43t-45.5 21.5q-52 0 -58 -86h-31q6 116 89 116q30 0 56.5 -21.5t50 -43t45.5 -21.5z" />
    <glyph glyph-name="macron.salt" horiz-adv-x="422" 
d="M367 566h-312v30h312v-30z" />
    <glyph glyph-name="uni02C9.salt" horiz-adv-x="422" 
d="M367 566h-312v30h312v-30z" />
    <glyph glyph-name="breve.salt" horiz-adv-x="420" 
d="M210 560q52 0 88 25t36 73h31q0 -62 -45.5 -95t-109.5 -33t-109.5 33t-45.5 95h31q0 -48 36 -73t88 -25z" />
    <glyph glyph-name="dotaccent.salt" horiz-adv-x="309" 
d="M254 565h-199v31h199v-31z" />
    <glyph glyph-name="ringacute.salt" horiz-adv-x="430" 
d="M328 620q0 -45 -29.5 -75t-77.5 -30t-77.5 30t-29.5 75q0 51 43 85l145 118l18 -23l-98 -77q48 0 77 -28.5t29 -74.5zM298 620q0 32 -21 53t-55 21q-36 0 -57 -21t-21 -53t21 -53.5t57 -21.5q34 0 55 21.5t21 53.5z" />
    <glyph glyph-name="ring.salt" horiz-adv-x="428" 
d="M328 620q0 -46 -29.5 -74.5t-76.5 -28.5t-76.5 28.5t-29.5 74.5t29.5 74.5t76.5 28.5t76.5 -28.5t29.5 -74.5zM298 620q0 32 -21 53t-55 21t-55 -21t-21 -53t21 -53t55 -21t55 21t21 53z" />
    <glyph glyph-name="cedilla.salt" horiz-adv-x="358" 
d="M187 -193q-79 0 -132 42l17 26q46 -38 115 -38q83 0 83 43q0 16 -18 25t-45 9q-37 0 -71 -15l-22 21l44 80h35l-38 -66q19 9 52 9q41 0 68.5 -16.5t27.5 -46.5q0 -36 -31.5 -54.5t-84.5 -18.5z" />
    <glyph glyph-name="hungarumlaut.salt" horiz-adv-x="459" 
d="M55 561l169 130l20 -24l-170 -129zM215 561l169 130l20 -24l-170 -129z" />
    <glyph glyph-name="ogonek.salt" horiz-adv-x="324" 
d="M136 0h66q-141 -45 -141 -107q0 -25 20 -37t50 -12q50 0 89 25l13 -27q-42 -27 -102 -27q-46 0 -73.5 20.5t-27.5 57.5q0 32 30.5 62t75.5 45z" />
    <glyph glyph-name="caron.salt" horiz-adv-x="462" 
d="M407 650l-176 -114l-176 114l17 26l159 -103l159 103z" />
    <glyph glyph-name="commaaccent.salt" horiz-adv-x="141" 
d="M55 -217v175h31v-175h-31z" />
    <glyph glyph-name="commatop.salt" horiz-adv-x="141" 
d="M55 545v175h31v-175h-31z" />
    <glyph glyph-name="caronslovak.salt" horiz-adv-x="141" 
d="M55 440v230h31v-230h-31z" />
    <glyph glyph-name="parenleft.subs.salt" horiz-adv-x="188" 
d="M86 177q0 -125 97 -234l-22 -20q-40 38 -73 105t-33 149t33 149t73 105l22 -20q-97 -109 -97 -234z" />
    <glyph glyph-name="parenright.subs.salt" horiz-adv-x="188" 
d="M102 177q0 125 -97 234l22 20q40 -38 73 -105t33 -149t-33 -149t-73 -105l-22 20q97 109 97 234z" />
    <glyph glyph-name="parenleft.sups.salt" horiz-adv-x="188" 
d="M86 441q0 -125 97 -234l-22 -20q-40 38 -73 105t-33 149t33 149t73 105l22 -20q-97 -109 -97 -234z" />
    <glyph glyph-name="parenright.sups.salt" horiz-adv-x="188" 
d="M102 441q0 125 -97 234l22 20q40 -38 73 -105t33 -149t-33 -149t-73 -105l-22 20q97 109 97 234z" />
    <glyph glyph-name="Adieresis.salt" horiz-adv-x="759" 
d="M565 0l-39 113h-284l-40 -113h-189l268 627h220l263 -627h-199zM386 487l-101 -255h199zM350 707h-174v31h174v-31zM604 707h-174v31h174v-31z" />
    <glyph glyph-name="Aring.salt" horiz-adv-x="777" 
d="M565 0l-39 113h-284l-40 -113h-189l284 664q-8 17 -8 43q0 46 29.5 74.5t76.5 28.5t76.5 -28.5t29.5 -74.5q0 -28 -13 -52l276 -655h-199zM386 487l-101 -255h199zM471 707q0 32 -21 53t-55 21t-55 -21t-21 -53t21 -53t55 -21t55 21t21 53z" />
    <glyph glyph-name="Aringacute.salt" horiz-adv-x="777" 
d="M502 707q0 -28 -13 -52l275 -655h-199l-39 113h-284l-40 -113h-189l284 662q-9 21 -9 45q0 51 43 85l145 118l17 -22l-97 -78q48 0 77 -28.5t29 -74.5zM386 487l-101 -255h199zM472 707q0 32 -21 53t-55 21q-36 0 -57 -21t-21 -53t21 -53.5t57 -21.5q34 0 55 21.5
t21 53.5z" />
    <glyph glyph-name="Agrave.salt" horiz-adv-x="777" 
d="M565 0l-39 113h-284l-40 -113h-189l268 627h220l263 -627h-199zM386 487l-101 -255h199zM276 826l232 -109l-14 -28l-232 109z" />
    <glyph glyph-name="Atilde.salt" horiz-adv-x="777" 
d="M565 0l-39 113h-284l-40 -113h-189l268 627h220l263 -627h-199zM386 487l-101 -255h199zM462 715q52 0 58 86h31q-6 -116 -89 -116q-30 0 -56.5 21.5t-50 43t-45.5 21.5q-52 0 -58 -86h-31q6 116 89 116q30 0 56.5 -21.5t50 -43t45.5 -21.5z" />
    <glyph glyph-name="Acircumflex.salt" horiz-adv-x="777" 
d="M565 0l-39 113h-284l-40 -113h-189l268 627h220l263 -627h-199zM386 487l-101 -255h199zM214 709l176 114l176 -114l-17 -26l-159 102l-159 -102z" />
    <glyph glyph-name="Aacute.salt" horiz-adv-x="777" 
d="M565 0l-39 113h-284l-40 -113h-189l268 627h220l263 -627h-199zM386 487l-101 -255h199zM262 717l232 109l14 -28l-232 -109z" />
    <glyph glyph-name="Abreve.salt" horiz-adv-x="777" 
d="M565 0l-39 113h-284l-40 -113h-189l268 627h220l263 -627h-199zM386 487l-101 -255h199zM390 710q52 0 88 25t36 73h31q0 -62 -45.5 -95t-109.5 -33t-109.5 33t-45.5 95h31q0 -48 36 -73t88 -25z" />
    <glyph glyph-name="Amacron.salt" horiz-adv-x="777" 
d="M565 0l-39 113h-284l-40 -113h-189l268 627h220l263 -627h-199zM386 487l-101 -255h199zM546 716h-312v30h312v-30z" />
    <glyph glyph-name="Aogonek.salt" horiz-adv-x="777" 
d="M501 627l263 -627q-141 -45 -141 -107q0 -25 20 -37t50 -12q50 0 89 25l13 -27q-42 -27 -102 -27q-49 0 -75 20t-26 58q0 33 29.5 62.5t76.5 44.5h-133l-39 113h-284l-40 -113h-189l268 627h220zM386 487l-101 -255h199z" />
    <glyph glyph-name="AEacute.salt" horiz-adv-x="1041" 
d="M417 717l232 109l14 -28l-232 -109zM547 0l-39 113h-266l-40 -113h-189l259 627h513l59 -140h-299l41 -102h288l56 -137h-289l44 -108h298l58 -140h-494zM377 487l-92 -255h181z" />
    <glyph glyph-name="Ccedilla.salt" horiz-adv-x="797" 
d="M420 -193q-79 0 -132 42l17 26q46 -38 115 -38q83 0 83 43q0 16 -18 25t-45 9q-36 0 -71 -15l-22 21l38 69q-155 8 -245 94t-90 231q0 152 103 238.5t276 86.5q112 0 191 -48t120 -122l-127 -88q-22 50 -71.5 83.5t-119.5 33.5q-85 0 -137.5 -50t-52.5 -134
q0 -85 53.5 -135t145.5 -50q64 0 117 35t75 83l127 -88q-41 -74 -125.5 -122.5t-205.5 -48.5l-31 -54q19 9 52 9q41 0 68.5 -16.5t27.5 -46.5q0 -36 -31.5 -54.5t-84.5 -18.5z" />
    <glyph glyph-name="Cacute.salt" horiz-adv-x="797" 
d="M232 314q0 -85 53.5 -135t145.5 -50q64 0 117 35t75 83l127 -88q-41 -74 -125.5 -122.5t-205.5 -48.5q-169 0 -269 86.5t-100 239.5q0 152 103 238.5t276 86.5q112 0 191 -48t120 -122l-127 -88q-22 50 -71.5 83.5t-119.5 33.5q-85 0 -137.5 -50t-52.5 -134zM299 717
l232 109l14 -28l-232 -109z" />
    <glyph glyph-name="Ccaron.salt" horiz-adv-x="797" 
d="M232 314q0 -85 53.5 -135t145.5 -50q64 0 117 35t75 83l127 -88q-41 -74 -125.5 -122.5t-205.5 -48.5q-169 0 -269 86.5t-100 239.5q0 152 103 238.5t276 86.5q112 0 191 -48t120 -122l-127 -88q-22 50 -71.5 83.5t-119.5 33.5q-85 0 -137.5 -50t-52.5 -134zM583 800
l-176 -114l-176 114l17 26l159 -103l159 103z" />
    <glyph glyph-name="Ccircumflex.salt" horiz-adv-x="797" 
d="M232 314q0 -85 53.5 -135t145.5 -50q64 0 117 35t75 83l127 -88q-41 -74 -125.5 -122.5t-205.5 -48.5q-169 0 -269 86.5t-100 239.5q0 152 103 238.5t276 86.5q112 0 191 -48t120 -122l-127 -88q-22 50 -71.5 83.5t-119.5 33.5q-85 0 -137.5 -50t-52.5 -134zM239 709
l176 114l176 -114l-17 -26l-159 102l-159 -102z" />
    <glyph glyph-name="Cdotaccent.salt" horiz-adv-x="797" 
d="M232 314q0 -85 53.5 -135t145.5 -50q64 0 117 35t75 83l127 -88q-41 -74 -125.5 -122.5t-205.5 -48.5q-169 0 -269 86.5t-100 239.5q0 152 103 238.5t276 86.5q112 0 191 -48t120 -122l-127 -88q-22 50 -71.5 83.5t-119.5 33.5q-85 0 -137.5 -50t-52.5 -134zM521 715
h-199v31h199v-31z" />
    <glyph glyph-name="Dcaron.salt" horiz-adv-x="824" 
d="M440 0h-348v627h335q76 0 137.5 -18t109 -55t74 -98.5t26.5 -143.5q0 -149 -95.5 -230.5t-238.5 -81.5zM416 134q81 0 128 44t47 134t-44 135.5t-123 45.5h-154v-359h146zM575 800l-176 -114l-176 114l17 26l159 -103l159 103z" />
    <glyph glyph-name="Dcroat.salt" horiz-adv-x="839" 
d="M35 300v31h72v296h335q76 0 137.5 -18t109 -55t74 -98.5t26.5 -143.5q0 -149 -95.5 -230.5t-238.5 -81.5h-348v300h-72zM431 134q81 0 128 44t47 134t-44 135.5t-123 45.5h-154v-162h150v-31h-150v-166h146z" />
    <glyph glyph-name="Eth.salt" horiz-adv-x="839" 
d="M35 300v31h72v296h335q76 0 137.5 -18t109 -55t74 -98.5t26.5 -143.5q0 -149 -95.5 -230.5t-238.5 -81.5h-348v300h-72zM431 134q81 0 128 44t47 134t-44 135.5t-123 45.5h-154v-162h150v-31h-150v-166h146z" />
    <glyph glyph-name="Eacute.salt" horiz-adv-x="746" 
d="M691 0h-599v627h579v-142h-401v-107h312v-128h-312v-108h421v-142zM260 717l232 109l14 -28l-232 -109z" />
    <glyph glyph-name="Ecircumflex.salt" horiz-adv-x="746" 
d="M691 0h-599v627h579v-142h-401v-107h312v-128h-312v-108h421v-142zM206 709l176 114l176 -114l-17 -26l-159 102l-159 -102z" />
    <glyph glyph-name="Edieresis.salt" horiz-adv-x="746" 
d="M691 0h-599v627h579v-142h-401v-107h312v-128h-312v-108h421v-142zM342 707h-174v31h174v-31zM596 707h-174v31h174v-31z" />
    <glyph glyph-name="Egrave.salt" horiz-adv-x="746" 
d="M691 0h-599v627h579v-142h-401v-107h312v-128h-312v-108h421v-142zM273 826l232 -109l-14 -28l-232 109z" />
    <glyph glyph-name="Ebreve.salt" horiz-adv-x="746" 
d="M691 0h-599v627h579v-142h-401v-107h312v-128h-312v-108h421v-142zM383 710q52 0 88 25t36 73h31q0 -62 -45.5 -95t-109.5 -33t-109.5 33t-45.5 95h31q0 -48 36 -73t88 -25z" />
    <glyph glyph-name="Ecaron.salt" horiz-adv-x="746" 
d="M691 0h-599v627h579v-142h-401v-107h312v-128h-312v-108h421v-142zM559 800l-176 -114l-176 114l17 26l159 -103l159 103z" />
    <glyph glyph-name="Edotaccent.salt" horiz-adv-x="746" 
d="M691 0h-599v627h579v-142h-401v-107h312v-128h-312v-108h421v-142zM482 715h-199v31h199v-31z" />
    <glyph glyph-name="Emacron.salt" horiz-adv-x="746" 
d="M691 0h-599v627h579v-142h-401v-107h312v-128h-312v-108h421v-142zM539 716h-312v30h312v-30z" />
    <glyph glyph-name="Eogonek.salt" horiz-adv-x="746" 
d="M691 142v-142q-141 -45 -141 -107q0 -25 20 -37t50 -12q50 0 89 25l13 -27q-42 -27 -102 -27q-49 0 -75 20t-26 58q0 33 29.5 62.5t76.5 44.5h-533v627h579v-142h-401v-107h312v-128h-312v-108h421z" />
    <glyph glyph-name="Gbreve.salt" horiz-adv-x="861" 
d="M786 0h-108l-38 140q-24 -61 -90 -106.5t-167 -45.5q-145 0 -239 83.5t-94 234.5q0 160 102.5 246.5t278.5 86.5q118 0 202 -48.5t124 -121.5l-129 -88q-22 49 -75 83t-122 34q-91 0 -145 -50t-54 -138q0 -85 55.5 -132.5t141.5 -47.5q70 0 116.5 28.5t64.5 72.5h-218
v113h394v-344zM416 710q52 0 88 25t36 73h31q0 -62 -45.5 -95t-109.5 -33t-109.5 33t-45.5 95h31q0 -48 36 -73t88 -25z" />
    <glyph glyph-name="Gcircumflex.salt" horiz-adv-x="861" 
d="M786 0h-108l-38 140q-24 -61 -90 -106.5t-167 -45.5q-145 0 -239 83.5t-94 234.5q0 160 102.5 246.5t278.5 86.5q118 0 202 -48.5t124 -121.5l-129 -88q-22 49 -75 83t-122 34q-91 0 -145 -50t-54 -138q0 -85 55.5 -132.5t141.5 -47.5q70 0 116.5 28.5t64.5 72.5h-218
v113h394v-344zM241 709l176 114l176 -114l-17 -26l-159 102l-159 -102z" />
    <glyph glyph-name="Gcommaaccent.salt" horiz-adv-x="861" 
d="M786 0h-108l-38 140q-24 -61 -90 -106.5t-167 -45.5q-145 0 -239 83.5t-94 234.5q0 160 102.5 246.5t278.5 86.5q118 0 202 -48.5t124 -121.5l-129 -88q-22 49 -75 83t-122 34q-91 0 -145 -50t-54 -138q0 -85 55.5 -132.5t141.5 -47.5q70 0 116.5 28.5t64.5 72.5h-218
v113h394v-344zM391 -217v175h31v-175h-31z" />
    <glyph glyph-name="Gdotaccent.salt" horiz-adv-x="861" 
d="M786 0h-108l-38 140q-24 -61 -90 -106.5t-167 -45.5q-145 0 -239 83.5t-94 234.5q0 160 102.5 246.5t278.5 86.5q118 0 202 -48.5t124 -121.5l-129 -88q-22 49 -75 83t-122 34q-91 0 -145 -50t-54 -138q0 -85 55.5 -132.5t141.5 -47.5q70 0 116.5 28.5t64.5 72.5h-218
v113h394v-344zM516 715h-199v31h199v-31z" />
    <glyph glyph-name="Hbar.salt" horiz-adv-x="867" 
d="M758 0h-177v215h-294v-215h-178v456h-74v31h74v140h178v-140h294v140h177v-140h74v-31h-74v-456zM287 354h294v102h-294v-102z" />
    <glyph glyph-name="Hcircumflex.salt" horiz-adv-x="833" 
d="M741 0h-177v244h-294v-244h-178v627h178v-244h294v244h177v-627zM242 709l176 114l176 -114l-17 -26l-159 102l-159 -102z" />
    <glyph glyph-name="I.salt" horiz-adv-x="362" 
d="M270 0h-178v627h178v-627z" />
    <glyph glyph-name="Iacute.salt" horiz-adv-x="362" 
d="M270 0h-178v627h178v-627zM58 717l232 109l14 -28l-232 -109z" />
    <glyph glyph-name="Icircumflex.salt" horiz-adv-x="362" 
d="M270 0h-178v627h178v-627zM5 709l176 114l176 -114l-17 -26l-159 102l-159 -102z" />
    <glyph glyph-name="Idieresis.salt" horiz-adv-x="362" 
d="M270 0h-178v627h178v-627zM141 707h-174v31h174v-31zM395 707h-174v31h174v-31z" />
    <glyph glyph-name="Igrave.salt" horiz-adv-x="362" 
d="M270 0h-178v627h178v-627zM72 826l232 -109l-14 -28l-232 109z" />
    <glyph glyph-name="Ibreve.salt" horiz-adv-x="362" 
d="M270 0h-178v627h178v-627zM181 710q52 0 88 25t36 73h31q0 -62 -45.5 -95t-109.5 -33t-109.5 33t-45.5 95h31q0 -48 36 -73t88 -25z" />
    <glyph glyph-name="Imacron.salt" horiz-adv-x="362" 
d="M270 0h-178v627h178v-627zM337 716h-312v30h312v-30z" />
    <glyph glyph-name="Iogonek.salt" horiz-adv-x="362" 
d="M204 0h-112v627h178v-627q-141 -45 -141 -107q0 -25 20 -37t50 -12q50 0 89 25l13 -27q-42 -27 -102 -27q-46 0 -73.5 20.5t-27.5 57.5q0 32 30.5 62t75.5 45z" />
    <glyph glyph-name="Itilde.salt" horiz-adv-x="362" 
d="M270 0h-178v627h178v-627zM257 715q52 0 58 86h31q-6 -116 -89 -116q-30 0 -56.5 21.5t-50 43t-45.5 21.5q-52 0 -58 -86h-31q6 116 89 116q30 0 56.5 -21.5t50 -43t45.5 -21.5z" />
    <glyph glyph-name="Idotaccent.salt" horiz-adv-x="362" 
d="M270 0h-178v627h178v-627zM281 715h-199v31h199v-31z" />
    <glyph glyph-name="IJ.salt" horiz-adv-x="791" 
d="M396 -12q-160 0 -240.5 68.5t-80.5 188.5h181q0 -53 36 -86.5t100 -33.5q66 0 106 41t40 113v348h178v-337q0 -147 -82.5 -224.5t-237.5 -77.5zM75 371v256h178v-256h-178z" />
    <glyph glyph-name="Iacute_Jacute.salt" horiz-adv-x="791" 
d="M396 -12q-160 0 -240.5 68.5t-80.5 188.5h181q0 -53 36 -86.5t100 -33.5q66 0 106 41t40 113v348h178v-337q0 -147 -82.5 -224.5t-237.5 -77.5zM75 371v256h178v-256h-178zM43 717l232 109l14 -28l-232 -109zM506 717l232 109l14 -28l-232 -109z" />
    <glyph glyph-name="J.salt" horiz-adv-x="703" 
d="M332 -12q-137 0 -207 67t-70 180q0 68 16 106l152 -14q-9 -31 -9 -67q0 -57 31.5 -96t92.5 -39q60 0 86.5 39t26.5 119v344h177v-355q0 -137 -75 -210.5t-221 -73.5z" />
    <glyph glyph-name="Jacute.salt" horiz-adv-x="703" 
d="M332 -12q-137 0 -207 67t-70 180q0 68 16 106l152 -14q-9 -31 -9 -67q0 -57 31.5 -96t92.5 -39q60 0 86.5 39t26.5 119v344h177v-355q0 -137 -75 -210.5t-221 -73.5zM418 717l232 109l14 -28l-232 -109z" />
    <glyph glyph-name="Jcircumflex.salt" horiz-adv-x="703" 
d="M332 -12q-137 0 -207 67t-70 180q0 68 16 106l152 -14q-9 -31 -9 -67q0 -57 31.5 -96t92.5 -39q60 0 86.5 39t26.5 119v344h177v-355q0 -137 -75 -210.5t-221 -73.5zM364 709l176 114l176 -114l-17 -26l-159 102l-159 -102z" />
    <glyph glyph-name="Kcommaaccent.salt" horiz-adv-x="781" 
d="M750 0h-210l-166 264l-108 -115v-149h-174v627h174v-293l274 293h204l-232 -253zM385 -217v175h31v-175h-31z" />
    <glyph glyph-name="Lslash.salt" horiz-adv-x="701" 
d="M656 0h-530v274l-80 -31l-11 28l91 35v321h178v-251l132 52l10 -29l-142 -56v-196h352v-147z" />
    <glyph glyph-name="Lacute.salt" horiz-adv-x="667" 
d="M622 0h-530v627h178v-480h352v-147zM58 717l232 109l14 -28l-232 -109z" />
    <glyph glyph-name="Lcaron.salt" horiz-adv-x="667" 
d="M622 0h-530v627h178v-480h352v-147zM473 397v230h31v-230h-31z" />
    <glyph glyph-name="Lcommaaccent.salt" horiz-adv-x="667" 
d="M622 0h-530v627h178v-480h352v-147zM343 -217v175h31v-175h-31z" />
    <glyph glyph-name="Ldot.salt" horiz-adv-x="667" 
d="M622 0h-530v627h178v-480h352v-147zM570 328h-199v31h199v-31z" />
    <glyph glyph-name="Ntilde.salt" horiz-adv-x="882" 
d="M790 0h-242l-282 443v-443h-174v627h232l293 -443v443h173v-627zM517 715q52 0 58 86h31q-6 -116 -89 -116q-30 0 -56.5 21.5t-50 43t-45.5 21.5q-52 0 -58 -86h-31q6 116 89 116q30 0 56.5 -21.5t50 -43t45.5 -21.5z" />
    <glyph glyph-name="Nacute.salt" horiz-adv-x="882" 
d="M790 0h-242l-282 443v-443h-174v627h232l293 -443v443h173v-627zM318 717l232 109l14 -28l-232 -109z" />
    <glyph glyph-name="Ncaron.salt" horiz-adv-x="882" 
d="M790 0h-242l-282 443v-443h-174v627h232l293 -443v443h173v-627zM617 800l-176 -114l-176 114l17 26l159 -103l159 103z" />
    <glyph glyph-name="Ncommaaccent.salt" horiz-adv-x="882" 
d="M790 0h-242l-282 443v-443h-174v627h232l293 -443v443h173v-627zM426 -217v175h31v-175h-31z" />
    <glyph glyph-name="Odieresis.salt" horiz-adv-x="844" 
d="M422 -12q-74 0 -138.5 18.5t-118 56t-84.5 102t-31 148.5t31 148.5t84 102.5t118 56.5t139 18.5t139 -18.5t118 -56.5t84 -102.5t31 -148.5t-31 -148.5t-84.5 -102t-118 -56t-138.5 -18.5zM422 125q87 0 138 52.5t51 134.5q0 84 -50.5 137t-138.5 53t-138.5 -53
t-50.5 -137q0 -82 51 -134.5t138 -52.5zM382 707h-174v31h174v-31zM636 707h-174v31h174v-31z" />
    <glyph glyph-name="Otilde.salt" horiz-adv-x="844" 
d="M422 -12q-74 0 -138.5 18.5t-118 56t-84.5 102t-31 148.5t31 148.5t84 102.5t118 56.5t139 18.5t139 -18.5t118 -56.5t84 -102.5t31 -148.5t-31 -148.5t-84.5 -102t-118 -56t-138.5 -18.5zM422 125q87 0 138 52.5t51 134.5q0 84 -50.5 137t-138.5 53t-138.5 -53
t-50.5 -137q0 -82 51 -134.5t138 -52.5zM498 715q52 0 58 86h31q-6 -116 -89 -116q-30 0 -56.5 21.5t-50 43t-45.5 21.5q-52 0 -58 -86h-31q6 116 89 116q30 0 56.5 -21.5t50 -43t45.5 -21.5z" />
    <glyph glyph-name="Oacute.salt" horiz-adv-x="844" 
d="M422 -12q-74 0 -138.5 18.5t-118 56t-84.5 102t-31 148.5t31 148.5t84 102.5t118 56.5t139 18.5t139 -18.5t118 -56.5t84 -102.5t31 -148.5t-31 -148.5t-84.5 -102t-118 -56t-138.5 -18.5zM422 125q87 0 138 52.5t51 134.5q0 84 -50.5 137t-138.5 53t-138.5 -53
t-50.5 -137q0 -82 51 -134.5t138 -52.5zM299 717l232 109l14 -28l-232 -109z" />
    <glyph glyph-name="Ocircumflex.salt" horiz-adv-x="844" 
d="M422 -12q-74 0 -138.5 18.5t-118 56t-84.5 102t-31 148.5t31 148.5t84 102.5t118 56.5t139 18.5t139 -18.5t118 -56.5t84 -102.5t31 -148.5t-31 -148.5t-84.5 -102t-118 -56t-138.5 -18.5zM422 125q87 0 138 52.5t51 134.5q0 84 -50.5 137t-138.5 53t-138.5 -53
t-50.5 -137q0 -82 51 -134.5t138 -52.5zM246 709l176 114l176 -114l-17 -26l-159 102l-159 -102z" />
    <glyph glyph-name="Ograve.salt" horiz-adv-x="844" 
d="M422 -12q-74 0 -138.5 18.5t-118 56t-84.5 102t-31 148.5t31 148.5t84 102.5t118 56.5t139 18.5t139 -18.5t118 -56.5t84 -102.5t31 -148.5t-31 -148.5t-84.5 -102t-118 -56t-138.5 -18.5zM422 125q87 0 138 52.5t51 134.5q0 84 -50.5 137t-138.5 53t-138.5 -53
t-50.5 -137q0 -82 51 -134.5t138 -52.5zM313 826l232 -109l-14 -28l-232 109z" />
    <glyph glyph-name="Obreve.salt" horiz-adv-x="844" 
d="M422 -12q-74 0 -138.5 18.5t-118 56t-84.5 102t-31 148.5t31 148.5t84 102.5t118 56.5t139 18.5t139 -18.5t118 -56.5t84 -102.5t31 -148.5t-31 -148.5t-84.5 -102t-118 -56t-138.5 -18.5zM422 125q87 0 138 52.5t51 134.5q0 84 -50.5 137t-138.5 53t-138.5 -53
t-50.5 -137q0 -82 51 -134.5t138 -52.5zM422 710q52 0 88 25t36 73h31q0 -62 -45.5 -95t-109.5 -33t-109.5 33t-45.5 95h31q0 -48 36 -73t88 -25z" />
    <glyph glyph-name="Ohungarumlaut.salt" horiz-adv-x="844" 
d="M422 -12q-74 0 -138.5 18.5t-118 56t-84.5 102t-31 148.5t31 148.5t84 102.5t118 56.5t139 18.5t139 -18.5t118 -56.5t84 -102.5t31 -148.5t-31 -148.5t-84.5 -102t-118 -56t-138.5 -18.5zM422 125q87 0 138 52.5t51 134.5q0 84 -50.5 137t-138.5 53t-138.5 -53
t-50.5 -137q0 -82 51 -134.5t138 -52.5zM293 711l169 130l20 -24l-170 -129zM453 711l169 130l20 -24l-170 -129z" />
    <glyph glyph-name="Omacron.salt" horiz-adv-x="844" 
d="M422 -12q-74 0 -138.5 18.5t-118 56t-84.5 102t-31 148.5t31 148.5t84 102.5t118 56.5t139 18.5t139 -18.5t118 -56.5t84 -102.5t31 -148.5t-31 -148.5t-84.5 -102t-118 -56t-138.5 -18.5zM422 125q87 0 138 52.5t51 134.5q0 84 -50.5 137t-138.5 53t-138.5 -53
t-50.5 -137q0 -82 51 -134.5t138 -52.5zM578 716h-312v30h312v-30z" />
    <glyph glyph-name="Oslash.salt" horiz-adv-x="844" 
d="M167 -74l-27 16l65 95q-155 84 -155 276q0 84 31 148.5t84 102.5t118 56.5t139 18.5q92 0 172 -30l58 85l27 -16l-55 -81q170 -82 170 -284q0 -84 -31 -148.5t-84.5 -102t-118 -56t-138.5 -18.5q-104 0 -189 36zM422 125q87 0 138 52.5t51 134.5q0 103 -73 156l-219 -317
q40 -26 103 -26zM233 312q0 -93 60 -143l217 315q-38 18 -88 18q-88 0 -138.5 -53t-50.5 -137z" />
    <glyph glyph-name="Oslashacute.salt" horiz-adv-x="844" 
d="M167 -74l-27 16l65 95q-155 84 -155 276q0 84 31 148.5t84 102.5t118 56.5t139 18.5q92 0 172 -30l58 85l27 -16l-55 -81q170 -82 170 -284q0 -84 -31 -148.5t-84.5 -102t-118 -56t-138.5 -18.5q-104 0 -189 36zM422 125q87 0 138 52.5t51 134.5q0 103 -73 156l-219 -317
q40 -26 103 -26zM233 312q0 -93 60 -143l217 315q-38 18 -88 18q-88 0 -138.5 -53t-50.5 -137zM298 717l232 109l14 -28l-232 -109z" />
    <glyph glyph-name="Racute.salt" horiz-adv-x="789" 
d="M743 0h-188q-20 23 -32.5 56.5t-20 61.5t-20 54.5t-38.5 41.5t-69 15h-105v-229h-178v627h344q150 0 218 -44.5t68 -134.5q0 -146 -207 -168q52 -2 82 -15.5t52 -40.5q27 -32 49 -112t45 -112zM422 343q115 0 115 79q0 77 -115 77h-152v-156h152zM262 717l232 109l14 -28
l-232 -109z" />
    <glyph glyph-name="Rcaron.salt" horiz-adv-x="789" 
d="M743 0h-188q-20 23 -32.5 56.5t-20 61.5t-20 54.5t-38.5 41.5t-69 15h-105v-229h-178v627h344q150 0 218 -44.5t68 -134.5q0 -146 -207 -168q52 -2 82 -15.5t52 -40.5q27 -32 49 -112t45 -112zM422 343q115 0 115 79q0 77 -115 77h-152v-156h152zM560 800l-176 -114
l-176 114l17 26l159 -103l159 103z" />
    <glyph glyph-name="Rcommaaccent.salt" horiz-adv-x="789" 
d="M743 0h-188q-20 23 -32.5 56.5t-20 61.5t-20 54.5t-38.5 41.5t-69 15h-105v-229h-178v627h344q150 0 218 -44.5t68 -134.5q0 -146 -207 -168q52 -2 82 -15.5t52 -40.5q27 -32 49 -112t45 -112zM422 343q115 0 115 79q0 77 -115 77h-152v-156h152zM389 -217v175h31v-175
h-31z" />
    <glyph glyph-name="Scaron.salt" horiz-adv-x="757" 
d="M381 -12q-104 0 -191 27t-140 65l75 130q50 -37 123 -61t154 -24q60 0 92 15.5t32 41.5q0 20 -26.5 30.5t-89.5 21.5l-116 20q-233 41 -233 188q0 88 81 142.5t232 54.5q199 0 310 -90l-79 -123q-38 33 -103 54t-135 21q-122 0 -122 -50q0 -40 122 -59l105 -17
q118 -19 181.5 -60.5t63.5 -120.5q0 -92 -84 -149t-252 -57zM559 800l-176 -114l-176 114l17 26l159 -103l159 103z" />
    <glyph glyph-name="Sacute.salt" horiz-adv-x="757" 
d="M381 -12q-104 0 -191 27t-140 65l75 130q50 -37 123 -61t154 -24q60 0 92 15.5t32 41.5q0 20 -26.5 30.5t-89.5 21.5l-116 20q-233 41 -233 188q0 88 81 142.5t232 54.5q199 0 310 -90l-79 -123q-38 33 -103 54t-135 21q-122 0 -122 -50q0 -40 122 -59l105 -17
q118 -19 181.5 -60.5t63.5 -120.5q0 -92 -84 -149t-252 -57zM258 717l232 109l14 -28l-232 -109z" />
    <glyph glyph-name="Scedilla.salt" horiz-adv-x="757" 
d="M395 -193q-79 0 -132 42l17 26q46 -38 115 -38q83 0 83 43q0 16 -18 25t-45 9q-37 0 -71 -15l-22 21l37 69q-97 3 -178 29t-131 62l75 130q50 -37 123 -61t154 -24q60 0 92 15.5t32 41.5q0 20 -26.5 30.5t-89.5 21.5l-116 20q-233 41 -233 188q0 88 81 142.5t232 54.5
q199 0 310 -90l-79 -123q-38 33 -103 54t-135 21q-122 0 -122 -50q0 -40 122 -59l105 -17q118 -19 181.5 -60.5t63.5 -120.5q0 -90 -80.5 -146.5t-242.5 -59.5l-31 -54q19 9 52 9q41 0 68.5 -16.5t27.5 -46.5q0 -36 -31.5 -54.5t-84.5 -18.5z" />
    <glyph glyph-name="Scircumflex.salt" horiz-adv-x="757" 
d="M381 -12q-104 0 -191 27t-140 65l75 130q50 -37 123 -61t154 -24q60 0 92 15.5t32 41.5q0 20 -26.5 30.5t-89.5 21.5l-116 20q-233 41 -233 188q0 88 81 142.5t232 54.5q199 0 310 -90l-79 -123q-38 33 -103 54t-135 21q-122 0 -122 -50q0 -40 122 -59l105 -17
q118 -19 181.5 -60.5t63.5 -120.5q0 -92 -84 -149t-252 -57zM207 709l176 114l176 -114l-17 -26l-159 102l-159 -102z" />
    <glyph glyph-name="Scommaaccent.salt" horiz-adv-x="757" 
d="M381 -12q-104 0 -191 27t-140 65l75 130q50 -37 123 -61t154 -24q60 0 92 15.5t32 41.5q0 20 -26.5 30.5t-89.5 21.5l-116 20q-233 41 -233 188q0 88 81 142.5t232 54.5q199 0 310 -90l-79 -123q-38 33 -103 54t-135 21q-122 0 -122 -50q0 -40 122 -59l105 -17
q118 -19 181.5 -60.5t63.5 -120.5q0 -92 -84 -149t-252 -57zM367 -217v175h31v-175h-31z" />
    <glyph glyph-name="Tbar.salt" horiz-adv-x="684" 
d="M133 266v31h120v186h-218v144h614v-144h-219v-186h120v-31h-120v-266h-177v266h-120z" />
    <glyph glyph-name="Tcaron.salt" horiz-adv-x="684" 
d="M430 0h-177v483h-218v144h614v-144h-219v-483zM518 800l-176 -114l-176 114l17 26l159 -103l159 103z" />
    <glyph glyph-name="Tcommaaccent.salt" horiz-adv-x="684" 
d="M430 0h-177v483h-218v144h614v-144h-219v-483zM329 -217v175h31v-175h-31z" />
    <glyph glyph-name="uni021A.salt" horiz-adv-x="684" 
d="M430 0h-177v483h-218v144h614v-144h-219v-483zM329 -217v175h31v-175h-31z" />
    <glyph glyph-name="Udieresis.salt" horiz-adv-x="810" 
d="M408 -12q-171 0 -252 78t-81 239v322h178v-340q0 -84 42 -123t111 -39q68 0 109.5 39t41.5 123v340h178v-322q0 -162 -78.5 -239.5t-248.5 -77.5zM366 707h-174v31h174v-31zM620 707h-174v31h174v-31z" />
    <glyph glyph-name="Uacute.salt" horiz-adv-x="810" 
d="M408 -12q-171 0 -252 78t-81 239v322h178v-340q0 -84 42 -123t111 -39q68 0 109.5 39t41.5 123v340h178v-322q0 -162 -78.5 -239.5t-248.5 -77.5zM283 717l232 109l14 -28l-232 -109z" />
    <glyph glyph-name="Ucircumflex.salt" horiz-adv-x="810" 
d="M408 -12q-171 0 -252 78t-81 239v322h178v-340q0 -84 42 -123t111 -39q68 0 109.5 39t41.5 123v340h178v-322q0 -162 -78.5 -239.5t-248.5 -77.5zM230 709l176 114l176 -114l-17 -26l-159 102l-159 -102z" />
    <glyph glyph-name="Ugrave.salt" horiz-adv-x="810" 
d="M408 -12q-171 0 -252 78t-81 239v322h178v-340q0 -84 42 -123t111 -39q68 0 109.5 39t41.5 123v340h178v-322q0 -162 -78.5 -239.5t-248.5 -77.5zM296 826l232 -109l-14 -28l-232 109z" />
    <glyph glyph-name="Ubreve.salt" horiz-adv-x="810" 
d="M408 -12q-171 0 -252 78t-81 239v322h178v-340q0 -84 42 -123t111 -39q68 0 109.5 39t41.5 123v340h178v-322q0 -162 -78.5 -239.5t-248.5 -77.5zM406 710q52 0 88 25t36 73h31q0 -62 -45.5 -95t-109.5 -33t-109.5 33t-45.5 95h31q0 -48 36 -73t88 -25z" />
    <glyph glyph-name="Uhungarumlaut.salt" horiz-adv-x="810" 
d="M408 -12q-171 0 -252 78t-81 239v322h178v-340q0 -84 42 -123t111 -39q68 0 109.5 39t41.5 123v340h178v-322q0 -162 -78.5 -239.5t-248.5 -77.5zM282 711l169 130l20 -24l-170 -129zM442 711l169 130l20 -24l-170 -129z" />
    <glyph glyph-name="Umacron.salt" horiz-adv-x="810" 
d="M408 -12q-171 0 -252 78t-81 239v322h178v-340q0 -84 42 -123t111 -39q68 0 109.5 39t41.5 123v340h178v-322q0 -162 -78.5 -239.5t-248.5 -77.5zM561 716h-312v30h312v-30z" />
    <glyph glyph-name="Uogonek.salt" horiz-adv-x="810" 
d="M735 305q0 -149 -64.5 -223.5t-196.5 -92.5q-50 -6 -89 -34.5t-39 -61.5q0 -25 22.5 -37t54.5 -12q52 0 91 25l13 -27q-42 -27 -104 -27q-52 0 -81 20.5t-29 57.5q0 28 21.5 53.5t61.5 41.5q-165 2 -243 80.5t-78 236.5v322h178v-340q0 -84 42 -123t111 -39
q68 0 109.5 39t41.5 123v340h178v-322z" />
    <glyph glyph-name="Uring.salt" horiz-adv-x="810" 
d="M408 -12q-171 0 -252 78t-81 239v322h178v-340q0 -84 42 -123t111 -39q68 0 109.5 39t41.5 123v340h178v-322q0 -162 -78.5 -239.5t-248.5 -77.5zM519 770q0 -46 -29.5 -74.5t-76.5 -28.5t-76.5 28.5t-29.5 74.5t29.5 74.5t76.5 28.5t76.5 -28.5t29.5 -74.5zM489 770
q0 32 -21 53t-55 21t-55 -21t-21 -53t21 -53t55 -21t55 21t21 53z" />
    <glyph glyph-name="Utilde.salt" horiz-adv-x="810" 
d="M408 -12q-171 0 -252 78t-81 239v322h178v-340q0 -84 42 -123t111 -39q68 0 109.5 39t41.5 123v340h178v-322q0 -162 -78.5 -239.5t-248.5 -77.5zM482 715q52 0 58 86h31q-6 -116 -89 -116q-30 0 -56.5 21.5t-50 43t-45.5 21.5q-52 0 -58 -86h-31q6 116 89 116
q30 0 56.5 -21.5t50 -43t45.5 -21.5z" />
    <glyph glyph-name="Wacute.salt" horiz-adv-x="1103" 
d="M427 717l232 109l14 -28l-232 -109zM877 0h-217l-109 450l-116 -450h-217l-193 627h199l109 -467l122 467h191l118 -467l118 467h196z" />
    <glyph glyph-name="Wcircumflex.salt" horiz-adv-x="1103" 
d="M374 709l176 114l176 -114l-17 -26l-159 102l-159 -102zM877 0h-217l-109 450l-116 -450h-217l-193 627h199l109 -467l122 467h191l118 -467l118 467h196z" />
    <glyph glyph-name="Wdieresis.salt" horiz-adv-x="1103" 
d="M510 707h-174v31h174v-31zM764 707h-174v31h174v-31zM877 0h-217l-109 450l-116 -450h-217l-193 627h199l109 -467l122 467h191l118 -467l118 467h196z" />
    <glyph glyph-name="Wgrave.salt" horiz-adv-x="1103" 
d="M441 826l232 -109l-14 -28l-232 109zM877 0h-217l-109 450l-116 -450h-217l-193 627h199l109 -467l122 467h191l118 -467l118 467h196z" />
    <glyph glyph-name="uni1E8A.salt" horiz-adv-x="779" 
d="M536 0l-147 200l-146 -200h-218l250 314l-248 313h224l138 -195l139 195h224l-248 -311l250 -316h-218zM463 715h-199v31h199v-31z" />
    <glyph glyph-name="Yacute.salt" horiz-adv-x="773" 
d="M474 0h-174v206l-295 421h220l164 -266l168 266h211l-294 -421v-206zM267 717l232 109l14 -28l-232 -109z" />
    <glyph glyph-name="Ydieresis.salt" horiz-adv-x="773" 
d="M474 0h-174v206l-295 421h220l164 -266l168 266h211l-294 -421v-206zM348 707h-174v31h174v-31zM602 707h-174v31h174v-31z" />
    <glyph glyph-name="Ycircumflex.salt" horiz-adv-x="773" 
d="M474 0h-174v206l-295 421h220l164 -266l168 266h211l-294 -421v-206zM212 709l176 114l176 -114l-17 -26l-159 102l-159 -102z" />
    <glyph glyph-name="Ygrave.salt" horiz-adv-x="773" 
d="M474 0h-174v206l-295 421h220l164 -266l168 266h211l-294 -421v-206zM280 826l232 -109l-14 -28l-232 109z" />
    <glyph glyph-name="Zcaron.salt" horiz-adv-x="737" 
d="M682 0h-627v116l360 367h-337v144h593v-112l-362 -371h373v-144zM559 800l-176 -114l-176 114l17 26l159 -103l159 103z" />
    <glyph glyph-name="Zacute.salt" horiz-adv-x="737" 
d="M682 0h-627v116l360 367h-337v144h593v-112l-362 -371h373v-144zM275 717l232 109l14 -28l-232 -109z" />
    <glyph glyph-name="Zdotaccent.salt" horiz-adv-x="737" 
d="M682 0h-627v116l360 367h-337v144h593v-112l-362 -371h373v-144zM478 715h-199v31h199v-31z" />
    <glyph glyph-name="uni01B5.salt" horiz-adv-x="737" 
d="M114 313v31h164l134 136h-334v147h593v-112l-167 -171h132v-31h-163l-161 -165h370v-148h-627v116l193 197h-134z" />
    <glyph glyph-name="aacute.salt" horiz-adv-x="723" 
d="M595 -12q-59 0 -101.5 36t-42.5 111v7q-24 -65 -88.5 -109.5t-147.5 -44.5q-75 0 -120 31t-45 95q0 34 13 60t39 43.5t57.5 29t77 18.5t88.5 10t100 5v23q0 37 -21.5 55.5t-71.5 18.5q-54 0 -96.5 -23t-66.5 -65l-99 76q80 123 271 123q122 0 190.5 -46.5t68.5 -133.5
q0 -8 -2 -34l-7 -94q-2 -24 -2 -32q0 -45 47 -45q34 0 66 18l31 -88q-22 -19 -61.5 -32t-76.5 -13zM425 225q-96 -2 -146 -27.5t-50 -62.5q0 -21 15 -33.5t41 -12.5q40 0 80 24.5t60 55.5v56zM227 567l232 109l14 -28l-232 -109z" />
    <glyph glyph-name="agrave.salt" horiz-adv-x="723" 
d="M595 -12q-59 0 -101.5 36t-42.5 111v7q-24 -65 -88.5 -109.5t-147.5 -44.5q-75 0 -120 31t-45 95q0 34 13 60t39 43.5t57.5 29t77 18.5t88.5 10t100 5v23q0 37 -21.5 55.5t-71.5 18.5q-54 0 -96.5 -23t-66.5 -65l-99 76q80 123 271 123q122 0 190.5 -46.5t68.5 -133.5
q0 -8 -2 -34l-7 -94q-2 -24 -2 -32q0 -45 47 -45q34 0 66 18l31 -88q-22 -19 -61.5 -32t-76.5 -13zM425 225q-96 -2 -146 -27.5t-50 -62.5q0 -21 15 -33.5t41 -12.5q40 0 80 24.5t60 55.5v56zM241 676l232 -109l-14 -28l-232 109z" />
    <glyph glyph-name="acircumflex.salt" horiz-adv-x="723" 
d="M595 -12q-59 0 -101.5 36t-42.5 111v7q-24 -65 -88.5 -109.5t-147.5 -44.5q-75 0 -120 31t-45 95q0 34 13 60t39 43.5t57.5 29t77 18.5t88.5 10t100 5v23q0 37 -21.5 55.5t-71.5 18.5q-54 0 -96.5 -23t-66.5 -65l-99 76q80 123 271 123q122 0 190.5 -46.5t68.5 -133.5
q0 -8 -2 -34l-7 -94q-2 -24 -2 -32q0 -45 47 -45q34 0 66 18l31 -88q-22 -19 -61.5 -32t-76.5 -13zM425 225q-96 -2 -146 -27.5t-50 -62.5q0 -21 15 -33.5t41 -12.5q40 0 80 24.5t60 55.5v56zM173 559l176 114l176 -114l-17 -26l-159 102l-159 -102z" />
    <glyph glyph-name="adieresis.salt" horiz-adv-x="723" 
d="M595 -12q-59 0 -101.5 36t-42.5 111v7q-24 -65 -88.5 -109.5t-147.5 -44.5q-75 0 -120 31t-45 95q0 34 13 60t39 43.5t57.5 29t77 18.5t88.5 10t100 5v23q0 37 -21.5 55.5t-71.5 18.5q-54 0 -96.5 -23t-66.5 -65l-99 76q80 123 271 123q122 0 190.5 -46.5t68.5 -133.5
q0 -8 -2 -34l-7 -94q-2 -24 -2 -32q0 -45 47 -45q34 0 66 18l31 -88q-22 -19 -61.5 -32t-76.5 -13zM425 225q-96 -2 -146 -27.5t-50 -62.5q0 -21 15 -33.5t41 -12.5q40 0 80 24.5t60 55.5v56zM310 557h-174v31h174v-31zM564 557h-174v31h174v-31z" />
    <glyph glyph-name="atilde.salt" horiz-adv-x="723" 
d="M595 -12q-59 0 -101.5 36t-42.5 111v7q-24 -65 -88.5 -109.5t-147.5 -44.5q-75 0 -120 31t-45 95q0 34 13 60t39 43.5t57.5 29t77 18.5t88.5 10t100 5v23q0 37 -21.5 55.5t-71.5 18.5q-54 0 -96.5 -23t-66.5 -65l-99 76q80 123 271 123q122 0 190.5 -46.5t68.5 -133.5
q0 -8 -2 -34l-7 -94q-2 -24 -2 -32q0 -45 47 -45q34 0 66 18l31 -88q-22 -19 -61.5 -32t-76.5 -13zM425 225q-96 -2 -146 -27.5t-50 -62.5q0 -21 15 -33.5t41 -12.5q40 0 80 24.5t60 55.5v56zM424 565q52 0 58 86h31q-6 -116 -89 -116q-30 0 -56.5 21.5t-50 43t-45.5 21.5
q-52 0 -58 -86h-31q6 116 89 116q30 0 56.5 -21.5t50 -43t45.5 -21.5z" />
    <glyph glyph-name="aring.salt" horiz-adv-x="723" 
d="M595 -12q-59 0 -101.5 36t-42.5 111v7q-24 -65 -88.5 -109.5t-147.5 -44.5q-75 0 -120 31t-45 95q0 34 13 60t39 43.5t57.5 29t77 18.5t88.5 10t100 5v23q0 37 -21.5 55.5t-71.5 18.5q-54 0 -96.5 -23t-66.5 -65l-99 76q80 123 271 123q122 0 190.5 -46.5t68.5 -133.5
q0 -8 -2 -34l-7 -94q-2 -24 -2 -32q0 -45 47 -45q34 0 66 18l31 -88q-22 -19 -61.5 -32t-76.5 -13zM425 225q-96 -2 -146 -27.5t-50 -62.5q0 -21 15 -33.5t41 -12.5q40 0 80 24.5t60 55.5v56zM463 620q0 -46 -29.5 -74.5t-76.5 -28.5t-76.5 28.5t-29.5 74.5t29.5 74.5
t76.5 28.5t76.5 -28.5t29.5 -74.5zM433 620q0 32 -21 53t-55 21t-55 -21t-21 -53t21 -53t55 -21t55 21t21 53z" />
    <glyph glyph-name="aringacute.salt" horiz-adv-x="723" 
d="M595 -12q-59 0 -101.5 36t-42.5 111v7q-24 -65 -88.5 -109.5t-147.5 -44.5q-75 0 -120 31t-45 95q0 34 13 60t39 43.5t57.5 29t77 18.5t88.5 10t100 5v23q0 37 -21.5 55.5t-71.5 18.5q-54 0 -96.5 -23t-66.5 -65l-99 76q80 123 271 123q122 0 190.5 -46.5t68.5 -133.5
q0 -8 -2 -34l-7 -94q-2 -24 -2 -32q0 -45 47 -45q34 0 66 18l31 -88q-22 -19 -61.5 -32t-76.5 -13zM425 225q-96 -2 -146 -27.5t-50 -62.5q0 -21 15 -33.5t41 -12.5q40 0 80 24.5t60 55.5v56zM463 620q0 -45 -29.5 -75t-77.5 -30t-77.5 30t-29.5 75q0 51 43 85l145 118
l18 -23l-98 -77q48 0 77 -28.5t29 -74.5zM433 620q0 32 -21 53t-55 21q-36 0 -57 -21t-21 -53t21 -53.5t57 -21.5q34 0 55 21.5t21 53.5z" />
    <glyph glyph-name="abreve.salt" horiz-adv-x="723" 
d="M595 -12q-59 0 -101.5 36t-42.5 111v7q-24 -65 -88.5 -109.5t-147.5 -44.5q-75 0 -120 31t-45 95q0 34 13 60t39 43.5t57.5 29t77 18.5t88.5 10t100 5v23q0 37 -21.5 55.5t-71.5 18.5q-54 0 -96.5 -23t-66.5 -65l-99 76q80 123 271 123q122 0 190.5 -46.5t68.5 -133.5
q0 -8 -2 -34l-7 -94q-2 -24 -2 -32q0 -45 47 -45q34 0 66 18l31 -88q-22 -19 -61.5 -32t-76.5 -13zM425 225q-96 -2 -146 -27.5t-50 -62.5q0 -21 15 -33.5t41 -12.5q40 0 80 24.5t60 55.5v56zM350 560q52 0 88 25t36 73h31q0 -62 -45.5 -95t-109.5 -33t-109.5 33t-45.5 95
h31q0 -48 36 -73t88 -25z" />
    <glyph glyph-name="amacron.salt" horiz-adv-x="723" 
d="M595 -12q-59 0 -101.5 36t-42.5 111v7q-24 -65 -88.5 -109.5t-147.5 -44.5q-75 0 -120 31t-45 95q0 34 13 60t39 43.5t57.5 29t77 18.5t88.5 10t100 5v23q0 37 -21.5 55.5t-71.5 18.5q-54 0 -96.5 -23t-66.5 -65l-99 76q80 123 271 123q122 0 190.5 -46.5t68.5 -133.5
q0 -8 -2 -34l-7 -94q-2 -24 -2 -32q0 -45 47 -45q34 0 66 18l31 -88q-22 -19 -61.5 -32t-76.5 -13zM425 225q-96 -2 -146 -27.5t-50 -62.5q0 -21 15 -33.5t41 -12.5q40 0 80 24.5t60 55.5v56zM506 566h-312v30h312v-30z" />
    <glyph glyph-name="aogonek.salt" horiz-adv-x="723" 
d="M733 33q-26 -21 -64 -33q-56 -18 -86.5 -46t-30.5 -59q0 -25 21 -38t51 -13q40 0 79 25l13 -27q-42 -27 -92 -27q-48 0 -75.5 21.5t-27.5 58.5q0 27 18.5 52.5t51.5 42.5q-58 2 -99 37t-41 108v7q-24 -65 -88.5 -109.5t-147.5 -44.5q-75 0 -120 31t-45 95q0 34 13 60
t39 43.5t57.5 29t77 18.5t88.5 10t100 5v23q0 37 -21.5 55.5t-71.5 18.5q-54 0 -96.5 -23t-66.5 -65l-99 76q80 123 271 123q122 0 190.5 -46.5t68.5 -133.5q0 -10 -2 -34l-7 -94q-2 -24 -2 -32q0 -45 47 -45q34 0 66 18zM425 225q-96 -2 -146 -27.5t-50 -62.5
q0 -21 15 -33.5t41 -12.5q40 0 80 24.5t60 55.5v56z" />
    <glyph glyph-name="aeacute.salt" horiz-adv-x="1021" 
d="M341 488q117 0 180 -61q68 61 184 61t191 -59.5t75 -172.5q0 -22 -3 -44h-396q10 -54 48.5 -82.5t98.5 -28.5q56 0 87.5 22t52.5 62l97 -74q-28 -54 -90.5 -88.5t-148.5 -34.5q-54 0 -102.5 15t-90 51t-62.5 90q-17 -75 -89 -115.5t-152 -40.5q-83 0 -127 32t-44 94
q0 34 13 60t39 43.5t57.5 29t77 18.5t88.5 10t100 5v13q0 84 -93 84q-54 0 -96.5 -23t-66.5 -65l-99 76q80 123 271 123zM290 89q36 0 73.5 20.5t61.5 52.5v63q-96 -2 -146 -27.5t-50 -62.5q0 -21 16 -33.5t45 -12.5zM694 386q-52 0 -82.5 -28t-38.5 -77h225
q0 44 -26.5 74.5t-77.5 30.5zM397 567l232 109l14 -28l-232 -109z" />
    <glyph glyph-name="ccedilla.salt" horiz-adv-x="662" 
d="M341 -193q-79 0 -132 42l17 26q46 -38 115 -38q83 0 83 43q0 16 -18 25t-45 9q-37 0 -71 -15l-22 21l38 70q-115 10 -185.5 72t-70.5 176q0 65 25.5 115t70 78.5t98.5 42.5t117 14q90 0 154 -37t94 -86l-99 -76q-20 37 -57.5 61.5t-84.5 24.5q-69 0 -104.5 -38.5
t-35.5 -98.5t36.5 -98.5t102.5 -38.5q51 0 90 24t58 60l99 -74q-30 -49 -97.5 -86t-163.5 -37h-13l-31 -54q19 9 52 9q41 0 68.5 -16.5t27.5 -46.5q0 -36 -31.5 -54.5t-84.5 -18.5z" />
    <glyph glyph-name="cacute.salt" horiz-adv-x="662" 
d="M228 238q0 -60 36.5 -98.5t102.5 -38.5q51 0 90 24t58 60l99 -74q-30 -49 -97.5 -86t-163.5 -37q-86 0 -152 24.5t-108.5 82.5t-42.5 143q0 65 25.5 115t70 78.5t98.5 42.5t117 14q90 0 154 -37t94 -86l-99 -76q-20 37 -57.5 61.5t-84.5 24.5q-69 0 -104.5 -38.5
t-35.5 -98.5zM228 567l232 109l14 -28l-232 -109z" />
    <glyph glyph-name="ccaron.salt" horiz-adv-x="662" 
d="M228 238q0 -60 36.5 -98.5t102.5 -38.5q51 0 90 24t58 60l99 -74q-30 -49 -97.5 -86t-163.5 -37q-86 0 -152 24.5t-108.5 82.5t-42.5 143q0 65 25.5 115t70 78.5t98.5 42.5t117 14q90 0 154 -37t94 -86l-99 -76q-20 37 -57.5 61.5t-84.5 24.5q-69 0 -104.5 -38.5
t-35.5 -98.5zM527 650l-176 -114l-176 114l17 26l159 -103l159 103z" />
    <glyph glyph-name="ccircumflex.salt" horiz-adv-x="662" 
d="M228 238q0 -60 36.5 -98.5t102.5 -38.5q51 0 90 24t58 60l99 -74q-30 -49 -97.5 -86t-163.5 -37q-86 0 -152 24.5t-108.5 82.5t-42.5 143q0 65 25.5 115t70 78.5t98.5 42.5t117 14q90 0 154 -37t94 -86l-99 -76q-20 37 -57.5 61.5t-84.5 24.5q-69 0 -104.5 -38.5
t-35.5 -98.5zM177 559l176 114l176 -114l-17 -26l-159 102l-159 -102z" />
    <glyph glyph-name="cdotaccent.salt" horiz-adv-x="662" 
d="M228 238q0 -60 36.5 -98.5t102.5 -38.5q51 0 90 24t58 60l99 -74q-30 -49 -97.5 -86t-163.5 -37q-86 0 -152 24.5t-108.5 82.5t-42.5 143q0 65 25.5 115t70 78.5t98.5 42.5t117 14q90 0 154 -37t94 -86l-99 -76q-20 37 -57.5 61.5t-84.5 24.5q-69 0 -104.5 -38.5
t-35.5 -98.5zM451 565h-199v31h199v-31z" />
    <glyph glyph-name="dcaron.salt" horiz-adv-x="724" 
d="M637 0h-109l-38 142q-15 -67 -65 -110.5t-140 -43.5q-109 0 -172 70t-63 184q0 118 66.5 182t162.5 64q75 0 123 -37t62 -97v316h56q66 0 117 14v-684zM464 169v127q-43 82 -123 82q-52 0 -82.5 -38t-30.5 -98t31.5 -102t86.5 -42q72 0 118 71zM709 440v230h31v-230h-31z
" />
    <glyph glyph-name="eth.salt" horiz-adv-x="676" 
d="M252 426l-15 27l111 76q-54 26 -123 26q-40 0 -79 -13l-17 101q51 13 110 13q132 0 223 -48l105 73l16 -26l-92 -64q140 -92 140 -285q0 -148 -83 -233t-233 -85q-122 0 -196 56.5t-74 155.5q0 65 36.5 112.5t84.5 67t99 19.5q129 0 193 -85q2 9 2 21q0 118 -83 178z
M328 98q52 0 88.5 41t36.5 116q-42 52 -124 52q-49 0 -80 -29.5t-31 -78.5q0 -44 29 -72.5t81 -28.5z" />
    <glyph glyph-name="dcroat.salt" horiz-adv-x="724" 
d="M464 670h56q68 0 117 14v-126h70v-29h-70v-529h-109l-38 142q-15 -67 -65 -110.5t-140 -43.5q-109 0 -172 70t-63 184q0 118 66.5 182t162.5 64q75 0 123 -37t62 -97v175h-114v29h114v112zM464 169v127q-43 82 -123 82q-52 0 -82.5 -38t-30.5 -98t31.5 -102t86.5 -42
q72 0 118 71z" />
    <glyph glyph-name="eacute.salt" horiz-adv-x="696" 
d="M643 212h-416q10 -54 48.5 -82.5t98.5 -28.5q58 0 99 23.5t61 60.5l97 -74q-27 -52 -100.5 -87.5t-169.5 -35.5q-63 0 -117.5 14t-98.5 42.5t-69.5 78.5t-25.5 115q0 88 44.5 145.5t112.5 81t156 23.5q128 0 205.5 -59t77.5 -173q0 -22 -3 -44zM359 386q-114 0 -131 -105
h245q0 44 -28.5 74.5t-85.5 30.5zM230 567l232 109l14 -28l-232 -109z" />
    <glyph glyph-name="egrave.salt" horiz-adv-x="696" 
d="M643 212h-416q10 -54 48.5 -82.5t98.5 -28.5q58 0 99 23.5t61 60.5l97 -74q-27 -52 -100.5 -87.5t-169.5 -35.5q-63 0 -117.5 14t-98.5 42.5t-69.5 78.5t-25.5 115q0 88 44.5 145.5t112.5 81t156 23.5q128 0 205.5 -59t77.5 -173q0 -22 -3 -44zM359 386q-114 0 -131 -105
h245q0 44 -28.5 74.5t-85.5 30.5zM244 676l232 -109l-14 -28l-232 109z" />
    </font>
</defs>
</svg>
