<?xml version="1.0" standalone="no"?>
<!DOCTYPE svg PUBLIC "-//W3C//DTD SVG 1.1//EN" "http://www.w3.org/Graphics/SVG/1.1/DTD/svg11.dtd" >
<svg>
<metadata>
Created by FontForge 20090622 at Wed Aug 29 16:20:28 2018
 By deploy user
Copyright &#194;&#169; 2015 Schick Toikka. All rights reserved. Dia is a trademark of Schick Toikka. Unauthorised copying or modification of any of its data is illegal.
</metadata>
<defs>
<font id="Dia-Bold" horiz-adv-x="600" >
  <font-face 
    font-family="Dia Bold"
    font-weight="700"
    font-stretch="normal"
    units-per-em="1000"
    panose-1="2 11 10 8 6 1 1 1 1 1"
    ascent="800"
    descent="-200"
    x-height="476"
    cap-height="627"
    bbox="-200 -283 2088 899"
    underline-thickness="29"
    underline-position="-52"
    unicode-range="U+0020-U+FB02"
  />
<missing-glyph horiz-adv-x="690" 
d="M605 -200h-520v1000h520v-1000zM362 301l213 -433v870zM345 265l-212 -435h424zM557 770h-425l213 -434zM328 301l-212 435v-868z" />
    <glyph glyph-name="fi" unicode="fi" horiz-adv-x="644" 
d="M233 0h-133v382h-80v94h80v50q0 72 43 112.5t119 40.5q54 0 95 -19l-18 -89q-23 10 -50 10q-59 0 -60 -69v-36h115v-94h-111v-382zM572 0h-133v476h133v-476zM575 566h-139v103h139v-103z" />
    <glyph glyph-name="fl" unicode="fl" horiz-adv-x="644" 
d="M233 0h-133v382h-80v94h80v50q0 72 43 112.5t119 40.5q54 0 95 -19l-18 -89q-23 10 -50 10q-59 0 -60 -69v-36h115v-94h-111v-382zM439 669h49q50 0 84 9v-678h-133v669z" />
    <glyph glyph-name=".notdef" horiz-adv-x="690" 
d="M605 -200h-520v1000h520v-1000zM362 301l213 -433v870zM345 265l-212 -435h424zM557 770h-425l213 -434zM328 301l-212 435v-868z" />
    <glyph glyph-name=".null" horiz-adv-x="0" 
 />
    <glyph glyph-name="nonmarkingreturn" horiz-adv-x="333" 
 />
    <glyph glyph-name="space" unicode=" " horiz-adv-x="205" 
 />
    <glyph glyph-name="exclam" unicode="!" horiz-adv-x="313" 
d="M191 215h-69l-36 186v226h141v-226zM225 0h-136v136h136v-136z" />
    <glyph glyph-name="quotedbl" unicode="&#x22;" horiz-adv-x="447" 
d="M153 403h-39l-39 145v122h116v-122zM334 403h-39l-39 145v122h116v-122z" />
    <glyph glyph-name="numbersign" unicode="#" 
d="M70 380v83h106l31 164h95l-31 -164h114l31 164h96l-31 -164h75v-83h-91l-25 -133h89v-83h-105l-31 -164h-97l31 164h-114l-31 -164h-94l31 164h-76v83h92l25 133h-90zM255 380l-26 -133h114l26 133h-114z" />
    <glyph glyph-name="dollar" unicode="$" horiz-adv-x="609" 
d="M355 -75h-82v80q-94 9 -154.5 59t-73.5 130l125 22q15 -86 113 -101v153l-12 3q-95 19 -146 60t-51 117q0 73 51 119.5t148 53.5v83h82v-85q162 -20 194 -171l-126 -18q-10 67 -78 82v-143l20 -4q100 -21 149.5 -61t49.5 -117q0 -75 -54 -124t-155 -58v-80zM441 185
q0 23 -21.5 40t-74.5 31v-143q96 6 96 72zM195 453q0 -25 19.5 -40.5t68.5 -28.5v132q-44 -4 -66 -20.5t-22 -42.5z" />
    <glyph glyph-name="percent" unicode="%" horiz-adv-x="898" 
d="M396 450q0 -87 -49 -135.5t-127 -48.5q-77 0 -126 48.5t-49 135.5t49 136t126 49q78 0 127 -49t49 -136zM152 450q0 -107 68 -107q69 0 69 107q0 108 -69 108q-68 0 -68 -108zM861 176q0 -87 -49 -135.5t-127 -48.5q-77 0 -126 48.5t-49 135.5t49 136t126 49
q78 0 127 -49t49 -136zM617 176q0 -107 68 -107q69 0 69 107q0 108 -69 108q-68 0 -68 -108zM159 0l485 627h103l-484 -627h-104z" />
    <glyph glyph-name="ampersand" unicode="&#x26;" horiz-adv-x="743" 
d="M267 -12q-104 0 -170 40.5t-66 118.5q0 59 41 99t120 77q-69 84 -69 157q0 71 55 114t150 43q79 0 128.5 -37t49.5 -104q0 -53 -34.5 -94t-103.5 -78q7 -8 20 -20.5l41.5 -41l63.5 -64.5q56 81 63 189h100q0 -126 -87 -256q59 -45 122 -45q17 0 32 3v-93q-25 -7 -61 -7
q-52 0 -90.5 11t-87.5 44q-90 -56 -217 -56zM287 84q67 0 116 26q-30 25 -78 73q-58 56 -79 78q-63 -36 -63 -92q0 -34 29 -59.5t75 -25.5zM260 488q0 -42 52 -104q82 49 82 110q0 26 -17.5 43t-45.5 17q-32 0 -51.5 -18.5t-19.5 -47.5z" />
    <glyph glyph-name="quotesingle" unicode="'" horiz-adv-x="266" 
d="M153 403h-39l-39 145v122h116v-122z" />
    <glyph glyph-name="parenleft" unicode="(" horiz-adv-x="326" 
d="M311 -145l-59 -41q-182 189 -182 462q0 275 182 461l59 -40q-120 -193 -120 -421q0 -202 120 -421z" />
    <glyph glyph-name="parenright" unicode=")" horiz-adv-x="326" 
d="M74 -186l-59 41q120 219 120 421q0 228 -120 421l59 40q182 -186 182 -461q0 -273 -182 -462z" />
    <glyph glyph-name="asterisk" unicode="*" horiz-adv-x="436" 
d="M277 669l-40 -146l126 82l38 -113l-151 -8l119 -93l-97 -71l-51 139l-54 -141l-98 71l117 93h-1l-150 10l37 112l126 -81l-40 146h119z" />
    <glyph glyph-name="plus" unicode="+" 
d="M82 219v96h167v171h102v-171h167v-96h-167v-169h-102v169h-167z" />
    <glyph glyph-name="comma" unicode="," horiz-adv-x="296" 
d="M216 -5q0 -95 -33 -131t-111 -36v62q39 2 55 20.5t16 74.5v15h-63v136h136v-141z" />
    <glyph glyph-name="hyphen" unicode="-" horiz-adv-x="333" 
d="M45 216v94h243v-94h-243z" />
    <glyph glyph-name="period" unicode="." horiz-adv-x="296" 
d="M216 0h-136v136h136v-136z" />
    <glyph glyph-name="slash" unicode="/" horiz-adv-x="403" 
d="M5 -194l295 939h98l-294 -939h-99z" />
    <glyph glyph-name="zero" unicode="0" horiz-adv-x="636" 
d="M581 313q0 -158 -73 -241.5t-190 -83.5t-190 83.5t-73 241.5t73 242t190 84t190 -84t73 -242zM441 313q0 217 -123 217t-123 -217q0 -216 123 -216t123 216z" />
    <glyph glyph-name="one" unicode="1" horiz-adv-x="409" 
d="M314 0h-136v423q-48 -30 -153 -32v107q147 9 192 129h97v-627z" />
    <glyph glyph-name="two" unicode="2" horiz-adv-x="576" 
d="M215 362l-122 -46q-33 47 -33 120q0 91 66 147t167 56q103 0 165 -56.5t62 -147.5q0 -47 -19.5 -88.5t-63 -82.5t-86 -72t-116.5 -78h282v-114h-455v106l59.5 42.5l60 43l53 40t50.5 41t39.5 39t33.5 41.5t19 39.5t8 42.5q0 44 -26.5 70t-70.5 26q-40 0 -67.5 -26
t-27.5 -67q0 -43 22 -76z" />
    <glyph glyph-name="three" unicode="3" horiz-adv-x="593" 
d="M294 -12q-106 0 -176 55t-78 147l122 26q8 -57 43 -88.5t89 -31.5q51 0 80.5 24t29.5 66q0 86 -118 86h-48v102h50q42 1 69 20.5t27 59.5q0 36 -25.5 56.5t-70.5 20.5q-48 0 -79.5 -31t-39.5 -88l-122 26q8 92 78 146.5t166 54.5q101 0 164 -46t63 -129q0 -52 -32 -88
t-86 -49q64 -6 103.5 -45.5t39.5 -97.5q0 -94 -69.5 -145t-179.5 -51z" />
    <glyph glyph-name="four" unicode="4" horiz-adv-x="603" 
d="M344 225v256l-179 -256h179zM474 0h-133v119h-306v99l298 409h141v-402h89v-106h-89v-119z" />
    <glyph glyph-name="five" unicode="5" horiz-adv-x="580" 
d="M299 -12q-101 0 -173 56t-80 146l122 26q7 -56 43 -88t88 -32q50 0 80.5 28.5t30.5 85.5q0 53 -30.5 80t-78.5 27q-79 0 -122 -60l-99 39l38 331h368v-115h-264l-18 -149q51 50 136 50q88 0 146.5 -53t58.5 -149t-63 -159.5t-183 -63.5z" />
    <glyph glyph-name="six" unicode="6" horiz-adv-x="606" 
d="M321 531q-60 0 -92 -46t-36 -150q61 69 158 69q87 0 146 -52t59 -141q0 -100 -66 -161.5t-173 -61.5q-123 0 -192.5 84.5t-69.5 230.5q0 161 72 248.5t198 87.5q92 0 151 -47t70 -115l-125 -32q-6 36 -33 61t-67 25zM310 306q-79 0 -115 -58q7 -75 39 -113.5t80 -38.5
q45 0 75.5 30t30.5 79q0 50 -31 75.5t-79 25.5z" />
    <glyph glyph-name="seven" unicode="7" horiz-adv-x="479" 
d="M270 0h-144q-1 156 56.5 296.5t150.5 216.5h-308v114h429v-97q-86 -87 -139 -237t-45 -293z" />
    <glyph glyph-name="eight" unicode="8" horiz-adv-x="604" 
d="M302 639q100 0 165 -48t65 -128q0 -53 -29 -87t-79 -47q54 -9 92 -51.5t38 -102.5q0 -90 -70.5 -138.5t-181.5 -48.5t-181.5 48.5t-70.5 138.5q0 60 38 102.5t92 51.5q-50 13 -79 47t-29 87q0 80 65 128t165 48zM302 284q-49 0 -82 -27.5t-33 -70.5q0 -45 32.5 -71
t82.5 -26t82.5 26t32.5 71q0 43 -33 70.5t-82 27.5zM302 541q-41 0 -68.5 -22.5t-27.5 -60.5q0 -39 27.5 -62.5t68.5 -23.5t68.5 23.5t27.5 62.5q0 38 -27.5 60.5t-68.5 22.5z" />
    <glyph glyph-name="nine" unicode="9" horiz-adv-x="606" 
d="M285 96q120 0 128 195q-60 -68 -158 -68q-87 0 -146 52t-59 141q0 100 66 161.5t173 61.5q123 0 192.5 -84.5t69.5 -230.5q0 -161 -72 -248.5t-198 -87.5q-92 0 -151 47t-70 115l125 32q20 -86 100 -86zM296 321q78 0 115 57q-6 76 -38.5 114.5t-80.5 38.5q-45 0 -76 -30
t-31 -79q0 -50 31.5 -75.5t79.5 -25.5z" />
    <glyph glyph-name="colon" unicode=":" horiz-adv-x="296" 
d="M216 0h-136v136h136v-136zM216 340h-136v136h136v-136z" />
    <glyph glyph-name="semicolon" unicode=";" horiz-adv-x="296" 
d="M216 340h-136v136h136v-136zM216 -5q0 -95 -33 -131t-111 -36v62q39 2 55 20.5t16 74.5v15h-63v136h136v-141z" />
    <glyph glyph-name="less" unicode="&#x3c;" 
d="M85 220v118l431 154v-108l-316 -105l316 -104v-108z" />
    <glyph glyph-name="equal" unicode="=" 
d="M92 114v96h416v-96h-416zM92 333v96h416v-96h-416z" />
    <glyph glyph-name="greater" unicode="&#x3e;" 
d="M515 338v-118l-431 -153v108l316 104l-316 105v108z" />
    <glyph glyph-name="question" unicode="?" horiz-adv-x="568" 
d="M178 407l-129 -7q-4 17 -4 40q0 88 64.5 143.5t179.5 55.5q107 0 170.5 -48t63.5 -127q0 -57 -31.5 -92.5t-91.5 -66.5q-81 -43 -87 -92l-3 -24h-82l-4 16q-7 33 -7 46q0 37 17 65.5t70 60.5q49 30 65 45.5t16 41.5q0 29 -26.5 47t-70.5 18q-46 0 -79 -27.5t-33 -74.5
q0 -6 2 -20zM335 0h-136v136h136v-136z" />
    <glyph glyph-name="at" unicode="@" horiz-adv-x="944" 
d="M443 113q45 0 91 57l33 141q-9 56 -70 56q-43 0 -79.5 -51t-36.5 -127q0 -36 17 -56t45 -20zM673 26q-59 0 -93 27.5t-39 76.5q-24 -50 -65.5 -78t-81.5 -28q-65 0 -106.5 45t-41.5 121q0 119 63.5 195.5t156.5 76.5q39 0 75 -25t41 -84l58 97h77l-54 -262q-7 -35 -7 -51
q0 -23 10 -35.5t25 -12.5q53 0 91.5 60t38.5 148q0 144 -84 228t-241 84q-71 0 -137.5 -25t-119 -71t-84 -118.5t-31.5 -160.5q0 -166 95.5 -262.5t252.5 -96.5q111 0 203 56l25 -51q-102 -63 -225 -63q-187 0 -301 112.5t-114 304.5q0 135 63 235t161 148.5t213 48.5
q180 0 283.5 -100.5t103.5 -265.5q0 -65 -20 -119t-51.5 -87t-67.5 -50.5t-72 -17.5z" />
    <glyph glyph-name="A" unicode="A" horiz-adv-x="691" 
d="M523 0l-45 132h-269l-45 -132h-144l236 627h180l235 -627h-148zM344 516l-96 -274h191z" />
    <glyph glyph-name="B" unicode="B" horiz-adv-x="663" 
d="M389 0h-309v627h283q231 0 231 -157q0 -59 -37.5 -96.5t-103.5 -49.5q164 -16 164 -142q0 -90 -58 -136t-170 -46zM370 107q46 0 73.5 20.5t27.5 62.5q0 78 -101 78h-152v-161h152zM357 372q96 0 96 74t-96 74h-139v-148h139z" />
    <glyph glyph-name="C" unicode="C" horiz-adv-x="716" 
d="M193 313q0 -104 49.5 -155.5t128.5 -51.5q60 0 100 28.5t52 82.5l143 -24q-16 -87 -93 -146t-215 -59q-129 0 -218.5 86t-89.5 240t89.5 239.5t218.5 85.5q138 0 215 -59t93 -146l-143 -24q-12 54 -52 82.5t-100 28.5q-79 0 -128.5 -52t-49.5 -156z" />
    <glyph glyph-name="D" unicode="D" horiz-adv-x="690" 
d="M346 0h-266v627h251q142 0 225.5 -78t83.5 -242q0 -150 -81.5 -228.5t-212.5 -78.5zM319 112q178 0 178 201q0 106 -48.5 154t-129.5 48h-101v-403h101z" />
    <glyph glyph-name="E" unicode="E" horiz-adv-x="615" 
d="M560 0h-480v627h467v-115h-329v-136h283v-115h-283v-146h342v-115z" />
    <glyph glyph-name="F" unicode="F" horiz-adv-x="562" 
d="M218 0h-138v627h447v-115h-309v-157h262v-115h-262v-240z" />
    <glyph glyph-name="G" unicode="G" horiz-adv-x="746" 
d="M343 -12q-128 0 -210.5 86.5t-82.5 234.5q0 156 86 243t231 87q125 0 204 -58t95 -147l-143 -24q-12 55 -53 83t-99 28q-81 0 -129.5 -52.5t-48.5 -159.5q0 -103 52 -156.5t138 -53.5q97 0 155 53v84h-204v102h337v-338h-84l-26 128q-48 -140 -218 -140z" />
    <glyph glyph-name="H" unicode="H" horiz-adv-x="711" 
d="M631 0h-138v261h-275v-261h-138v627h138v-251h275v251h138v-627z" />
    <glyph glyph-name="I" unicode="I" horiz-adv-x="298" 
d="M218 0h-138v627h138v-627z" />
    <glyph glyph-name="J" unicode="J" horiz-adv-x="617" 
d="M287 -12q-121 0 -186.5 62.5t-65.5 160.5q0 55 15 96l137 -20q-11 -31 -11 -68q0 -51 28 -83t84 -32q58 0 87 42t29 117v364h138v-364q0 -134 -63.5 -204.5t-191.5 -70.5z" />
    <glyph glyph-name="K" unicode="K" horiz-adv-x="679" 
d="M659 0h-170l-172 269l-99 -108v-161h-138v627h138v-297l260 297h170l-224 -257z" />
    <glyph glyph-name="L" unicode="L" horiz-adv-x="543" 
d="M521 0h-441v627h138v-509h303v-118z" />
    <glyph glyph-name="M" unicode="M" horiz-adv-x="884" 
d="M804 0h-138v483l-142 -483h-149l-157 483v-483h-138v627h210l159 -498l143 498h212v-627z" />
    <glyph glyph-name="N" unicode="N" horiz-adv-x="735" 
d="M655 0h-176l-261 461v-461h-138v627h180l257 -450v450h138v-627z" />
    <glyph glyph-name="O" unicode="O" horiz-adv-x="745" 
d="M371 -12q-140 0 -230.5 84.5t-90.5 242.5q0 157 90 240.5t231 83.5q139 0 231.5 -84t92.5 -241t-92.5 -241.5t-231.5 -84.5zM372 106q82 0 130 53.5t48 156.5q0 101 -47.5 153t-130.5 52t-131 -52.5t-48 -154.5q0 -101 48.5 -154.5t130.5 -53.5z" />
    <glyph glyph-name="P" unicode="P" horiz-adv-x="647" 
d="M348 217h-130v-217h-138v627h273q249 0 249 -206q0 -204 -254 -204zM346 329q113 0 113 92q0 94 -109 94h-132v-186h128z" />
    <glyph glyph-name="Q" unicode="Q" horiz-adv-x="745" 
d="M371 -12q-140 0 -230.5 84.5t-90.5 242.5q0 157 90 240.5t231 83.5q139 0 231.5 -84t92.5 -241q0 -122 -57.5 -201t-153.5 -109q7 -45 32 -61.5t70 -16.5q49 0 98 30l28 -109q-50 -36 -131 -36q-85 0 -121.5 46t-42.5 134q-22 -3 -46 -3zM372 106q82 0 130 53.5t48 156.5
q0 101 -47.5 153t-130.5 52t-131 -52.5t-48 -154.5q0 -101 48.5 -154.5t130.5 -53.5z" />
    <glyph glyph-name="R" unicode="R" horiz-adv-x="674" 
d="M218 0h-138v627h270q119 0 188.5 -42.5t69.5 -130.5q0 -151 -182 -165q61 -1 97.5 -22.5t49.5 -56t18.5 -70.5t15 -76.5t27.5 -63.5h-151q-16 17 -24 50t-12.5 64t-13.5 60.5t-34.5 48t-69.5 18.5h-111v-241zM351 351q55 0 85.5 22.5t30.5 66.5q0 43 -30.5 59t-88.5 16
h-130v-164h133z" />
    <glyph glyph-name="S" unicode="S" horiz-adv-x="658" 
d="M341 -12q-127 0 -204 55t-92 150l143 24q20 -115 167 -115q56 0 84.5 20t28.5 52q0 34 -31.5 50.5t-123.5 36.5l-24 5q-105 22 -160.5 62t-55.5 124q0 86 65 136.5t185 50.5q110 0 179.5 -48t88.5 -139l-144 -20q-6 45 -41.5 70t-86.5 25q-48 0 -76.5 -17.5t-28.5 -49.5
q0 -34 32 -49t127 -36l19 -4q112 -24 165 -64t53 -121q0 -92 -67 -145t-202 -53z" />
    <glyph glyph-name="T" unicode="T" horiz-adv-x="579" 
d="M358 0h-138v512h-195v115h529v-115h-196v-512z" />
    <glyph glyph-name="U" unicode="U" horiz-adv-x="708" 
d="M355 -12q-141 0 -210.5 74.5t-69.5 213.5v351h138v-356q0 -165 141 -165q73 0 106 39.5t33 129.5v352h140v-348q0 -140 -69 -215.5t-209 -75.5z" />
    <glyph glyph-name="V" unicode="V" horiz-adv-x="671" 
d="M172 627l165 -500l166 500h148l-226 -627h-180l-225 627h152z" />
    <glyph glyph-name="W" unicode="W" horiz-adv-x="974" 
d="M769 0h-174l-108 498l-110 -498h-174l-173 627h149l115 -498l108 498h181l106 -498l109 498h146z" />
    <glyph glyph-name="X" unicode="X" horiz-adv-x="650" 
d="M466 0l-141 221l-145 -221h-160l216 319l-209 308h163l136 -218l140 218h159l-209 -306l214 -321h-164z" />
    <glyph glyph-name="Y" unicode="Y" horiz-adv-x="635" 
d="M387 0h-138v217l-239 410h166l143 -272l148 272h158l-238 -409v-218z" />
    <glyph glyph-name="Z" unicode="Z" 
d="M555 0h-510v95l319 412h-310v120h495v-92l-318 -415h324v-120z" />
    <glyph glyph-name="bracketleft" unicode="[" horiz-adv-x="303" 
d="M85 -194v939h203v-75h-90v-789h90v-75h-203z" />
    <glyph glyph-name="backslash" unicode="\" horiz-adv-x="403" 
d="M103 745l295 -939h-99l-294 939h98z" />
    <glyph glyph-name="bracketright" unicode="]" horiz-adv-x="303" 
d="M218 745v-939h-203v75h90v789h-90v75h203z" />
    <glyph glyph-name="asciicircum" unicode="^" horiz-adv-x="579" 
d="M395 320l-107 192l-107 -192h-126l183 307h100l186 -307h-129z" />
    <glyph glyph-name="underscore" unicode="_" horiz-adv-x="500" 
d="M45 -100v80h410v-80h-410z" />
    <glyph glyph-name="grave" unicode="`" horiz-adv-x="315" 
d="M265 545h-64l-151 143h153z" />
    <glyph glyph-name="a" unicode="a" horiz-adv-x="569" 
d="M477 -10q-50 0 -78.5 27t-28.5 80q0 8 2 30q-15 -61 -62 -99t-122 -38q-64 0 -106 29.5t-42 88.5q0 43 20.5 73.5t61 48.5t86.5 27.5t112 15.5l31 3v38q0 80 -77 80q-42 0 -66.5 -24t-24.5 -68l-119 7v9q0 81 57.5 124.5t152.5 43.5t152.5 -45.5t57.5 -131.5v-8l-6 -168
v-4q0 -46 37 -46q16 0 31 5l15 -82q-32 -16 -84 -16zM230 79q40 0 75 21.5t49 51.5v62l-28 -3q-153 -16 -153 -84q0 -23 15.5 -35.5t41.5 -12.5z" />
    <glyph glyph-name="b" unicode="b" horiz-adv-x="604" 
d="M72 669h49q50 0 84 9v-298q15 50 55 78t98 28q85 0 141.5 -63t56.5 -184q0 -119 -53 -184t-147 -65q-72 0 -112 34t-58 105l-22 -129h-92v669zM309 84q50 0 81.5 39.5t31.5 110.5q0 77 -30.5 116.5t-81.5 39.5q-73 0 -105 -70v-168q14 -26 41 -47t63 -21z" />
    <glyph glyph-name="c" unicode="c" horiz-adv-x="556" 
d="M182 238q0 -75 30.5 -114.5t79.5 -39.5q44 0 69 24t31 59l121 -22q-10 -67 -64.5 -111t-157.5 -44q-107 0 -175 62t-68 186t68 186t175 62q103 0 157.5 -44t64.5 -111l-121 -22q-6 35 -31 59t-69 24q-49 0 -79.5 -39.5t-30.5 -114.5z" />
    <glyph glyph-name="d" unicode="d" horiz-adv-x="604" 
d="M399 669h49q54 0 84 9v-678h-92l-22 129q-18 -71 -58 -105t-112 -34q-94 0 -147 65t-53 184q0 121 56.5 184t141.5 63q58 0 98 -28t55 -78v289zM295 84q36 0 63 21t41 47v168q-32 70 -105 70q-51 0 -81.5 -39.5t-30.5 -116.5q0 -71 31.5 -110.5t81.5 -39.5z" />
    <glyph glyph-name="e" unicode="e" horiz-adv-x="571" 
d="M296 -10q-112 0 -180 61t-68 184q0 128 68 189.5t175 61.5q104 0 167 -61t63 -156q0 -33 -3 -55h-338q13 -130 116 -130q38 0 64.5 23.5t31.5 59.5l121 -22q-11 -71 -68 -113t-149 -42zM289 394q-42 0 -71.5 -28t-36.5 -79h208q0 46 -24.5 76.5t-75.5 30.5z" />
    <glyph glyph-name="f" unicode="f" horiz-adv-x="367" 
d="M233 0h-133v382h-80v94h80v50q0 72 43 112.5t119 40.5q54 0 95 -19l-18 -89q-23 10 -50 10q-59 0 -60 -69v-36h115v-94h-111v-382z" />
    <glyph glyph-name="g" unicode="g" horiz-adv-x="576" 
d="M277 486q66 0 120 -22q7 53 39 76.5t76 23.5q32 0 54 -4l-5 -100q-18 4 -60 4q-39 0 -75 -14q73 -44 73 -123q0 -78 -60 -116t-158 -38q-43 0 -85 9q-31 -12 -31 -37q0 -39 99 -39h96q89 0 139.5 -33t50.5 -95q0 -81 -72.5 -121t-198.5 -40q-117 0 -187.5 25.5
t-70.5 75.5q0 39 38.5 61.5t106.5 25.5q-54 5 -85.5 30t-31.5 65q0 38 31 62.5t78 30.5q-46 16 -73 50.5t-27 84.5q0 77 63 117.5t156 40.5zM282 -127q65 0 104 18t39 51q0 50 -100 50h-85q-49 0 -72.5 -17.5t-23.5 -40.5q0 -61 138 -61zM280 250q41 0 68 22t27 57
q0 36 -27 58t-68 22q-42 0 -68 -21.5t-26 -58.5q0 -36 26 -57.5t68 -21.5z" />
    <glyph glyph-name="h" unicode="h" horiz-adv-x="591" 
d="M205 0h-133v669h49q53 0 84 9v-300q16 50 54.5 79t96.5 29q76 0 123.5 -48.5t47.5 -137.5v-300h-133v284q0 106 -90 106q-31 0 -57.5 -18.5t-41.5 -52.5v-319z" />
    <glyph glyph-name="i" unicode="i" horiz-adv-x="277" 
d="M205 0h-133v476h133v-476zM208 566h-139v103h139v-103z" />
    <glyph glyph-name="j" unicode="j" horiz-adv-x="277" 
d="M36 -183q-51 0 -94 17l22 91q21 -8 47 -8q32 0 46.5 19.5t14.5 75.5v464h133v-480q0 -96 -42 -137.5t-127 -41.5zM208 566h-139v103h139v-103z" />
    <glyph glyph-name="k" unicode="k" horiz-adv-x="553" 
d="M72 669h49q51 0 84 9v-413l179 211h144l-160 -184l160 -292h-150l-109 203l-64 -70v-133h-133v669z" />
    <glyph glyph-name="l" unicode="l" horiz-adv-x="277" 
d="M72 669h49q50 0 84 9v-678h-133v669z" />
    <glyph glyph-name="m" unicode="m" horiz-adv-x="869" 
d="M805 0h-133v291q0 99 -74 99q-60 0 -93 -71v-319h-133v292q0 98 -74 98q-30 0 -55 -20t-38 -51v-319h-133v476h93l22 -128q29 138 151 138q64 0 100.5 -32t48.5 -106q15 70 52 104t102 34q72 0 118 -43.5t46 -132.5v-310z" />
    <glyph glyph-name="n" unicode="n" horiz-adv-x="591" 
d="M527 0h-133v278q0 112 -88 112q-68 0 -101 -71v-319h-133v476h93l22 -128q34 138 164 138q80 0 128 -47t48 -145v-294z" />
    <glyph glyph-name="o" unicode="o" horiz-adv-x="588" 
d="M294 -10q-108 0 -177 61t-69 187t69 187t177 61t177 -61t69 -187t-69 -187t-177 -61zM294 84q53 0 82.5 41t29.5 113t-29.5 113t-82.5 41t-82.5 -41t-29.5 -113t29.5 -113t82.5 -41z" />
    <glyph glyph-name="p" unicode="p" horiz-adv-x="605" 
d="M206 -173h-134v649h93l22 -129q18 71 58 105t112 34q94 0 147 -65t53 -184q0 -121 -56.5 -184t-141.5 -63q-58 0 -98 28t-55 78v-269zM310 390q-36 0 -63.5 -20t-40.5 -46v-168q32 -72 105 -72q51 0 81.5 40t30.5 118q0 72 -31.5 110t-81.5 38z" />
    <glyph glyph-name="q" unicode="q" horiz-adv-x="605" 
d="M533 -173h-134v269q-15 -50 -55 -78t-98 -28q-85 0 -141.5 63t-56.5 184q0 119 53 184t147 65q72 0 112 -34t58 -105l22 129h93v-649zM295 390q-50 0 -81.5 -38t-31.5 -110q0 -78 30.5 -118t81.5 -40q73 0 105 72v168q-13 26 -40.5 46t-63.5 20z" />
    <glyph glyph-name="r" unicode="r" horiz-adv-x="396" 
d="M205 0h-133v476h93l24 -135q26 145 134 145q32 0 53 -7l-8 -117q-25 7 -54 7q-81 0 -109 -57v-312z" />
    <glyph glyph-name="s" unicode="s" horiz-adv-x="524" 
d="M276 -10q-104 0 -169 43.5t-72 110.5l117 23q7 -40 41.5 -62t85.5 -22q39 0 59.5 13t20.5 34q0 22 -25.5 34t-88.5 24l-15 3q-80 14 -126.5 47t-46.5 101q0 66 51.5 106.5t153.5 40.5q84 0 139.5 -35t69.5 -94l-112 -28q-9 32 -36 48.5t-64 16.5t-57.5 -13t-20.5 -32
q0 -24 27 -36.5t88 -23.5l23 -4q165 -29 165 -142q0 -72 -56 -112.5t-152 -40.5z" />
    <glyph glyph-name="t" unicode="t" horiz-adv-x="382" 
d="M249 -10q-149 0 -149 158v233h-80v95h52q36 0 36 37v19l123 137v-193h113v-95h-112v-216q0 -41 13 -57.5t40 -16.5q26 0 45 9l22 -88q-34 -22 -103 -22z" />
    <glyph glyph-name="u" unicode="u" horiz-adv-x="583" 
d="M236 -10q-79 0 -125.5 46.5t-46.5 145.5v294h133v-278q0 -114 84 -114q64 0 97 73v319h133v-476h-93l-22 128q-34 -138 -160 -138z" />
    <glyph glyph-name="v" unicode="v" horiz-adv-x="543" 
d="M352 0h-164l-163 476h141l107 -372l106 372h139z" />
    <glyph glyph-name="w" unicode="w" horiz-adv-x="837" 
d="M344 476h150l87 -376l86 376h135l-136 -476h-164l-83 343l-83 -343h-164l-137 476h139l83 -376z" />
    <glyph glyph-name="x" unicode="x" horiz-adv-x="538" 
d="M172 476l97 -151l97 151h147l-165 -239l164 -237h-147l-96 152l-96 -152h-147l164 237l-165 239h147z" />
    <glyph glyph-name="y" unicode="y" horiz-adv-x="544" 
d="M58 -166l21 94q22 -8 40 -8q55 0 70 54l12 42l-176 460h142l110 -341l103 341h139l-191 -504q-29 -76 -73 -115.5t-112 -39.5q-45 0 -85 17z" />
    <glyph glyph-name="z" unicode="z" horiz-adv-x="511" 
d="M461 0h-411v74l240 303h-221v99h387v-72l-241 -305h246v-99z" />
    <glyph glyph-name="braceleft" unicode="{" horiz-adv-x="324" 
d="M172 275q52 -10 70.5 -37t18.5 -71q0 -34 -23 -116.5t-23 -109.5q0 -66 48 -66q19 0 37 4l9 -67q-26 -7 -59 -7q-74 0 -111 31t-37 105q0 36 25 113.5t25 103.5q0 79 -87 79v75q87 0 87 79q0 26 -25 103.5t-25 113.5q0 74 37 105t111 31q33 0 59 -7l-9 -67q-18 4 -37 4
q-48 0 -48 -66q0 -27 23 -109.5t23 -116.5q0 -43 -18.5 -70t-70.5 -37z" />
    <glyph glyph-name="bar" unicode="|" horiz-adv-x="271" 
d="M85 -195v940h101v-940h-101z" />
    <glyph glyph-name="braceright" unicode="}" horiz-adv-x="324" 
d="M259 237q-87 0 -87 -79q0 -26 25 -103.5t25 -113.5q0 -74 -37 -105t-111 -31q-33 0 -59 7l9 67q18 -4 37 -4q48 0 48 66q0 27 -23 109.5t-23 116.5q0 44 18.5 71t70.5 37q-52 10 -70.5 37t-18.5 70q0 34 23 116.5t23 109.5q0 66 -48 66q-19 0 -37 -4l-9 67q26 7 59 7
q74 0 111 -31t37 -105q0 -36 -25 -113.5t-25 -103.5q0 -79 87 -79v-75z" />
    <glyph glyph-name="asciitilde" unicode="~" 
d="M157 156h-91q0 102 32.5 139.5t90.5 37.5q41 0 79 -20.5t71.5 -40.5t62.5 -20q41 0 41 71h91q0 -56 -10.5 -93t-30 -54t-38.5 -23t-44 -6q-41 0 -79 20.5t-71.5 40.5t-62.5 20q-41 0 -41 -72z" />
    <glyph glyph-name="uni00A0" unicode="&#xa0;" horiz-adv-x="205" 
 />
    <glyph glyph-name="exclamdown" unicode="&#xa1;" horiz-adv-x="313" 
d="M122 261h69l36 -186v-226h-141v226zM89 476h136v-136h-136v136z" />
    <glyph glyph-name="cent" unicode="&#xa2;" horiz-adv-x="573" 
d="M334 -96h-76v88q-94 10 -151 71.5t-57 174.5q0 112 57.5 174t150.5 72v90h76v-90q86 -8 133 -50.5t56 -102.5l-123 -22q-10 61 -76 71v-284q66 10 76 71l123 -22q-9 -60 -56 -102.5t-133 -50.5v-88zM182 238q0 -120 86 -141v281q-86 -19 -86 -140z" />
    <glyph glyph-name="sterling" unicode="&#xa3;" horiz-adv-x="628" 
d="M448 176l119 27q19 -29 19 -80q0 -135 -133 -135q-76 0 -164 58q-55 -58 -150 -58q-55 0 -88.5 23.5t-33.5 69.5q0 47 35.5 74t85.5 27q40 0 85 -15q-4 33 -37 93h-103v66h65q-34 68 -34 127q0 83 63 134.5t162 51.5q103 0 161 -49t58 -123q0 -37 -10 -68l-134 14
q7 28 7 43q0 34 -20.5 54.5t-59.5 20.5q-40 0 -62 -21.5t-22 -59.5q0 -36 35 -124h164v-66h-139q18 -56 18 -88q0 -24 -7 -54q52 -25 78 -25q50 0 50 46q0 18 -8 37zM141 122q-27 0 -42.5 -11t-15.5 -28q0 -18 16 -27.5t40 -9.5q55 0 77 53q-41 23 -75 23z" />
    <glyph glyph-name="currency" unicode="&#xa4;" 
d="M546 428l-66 -66q28 -44 28 -109t-28 -110l66 -65l-70 -69l-71 69q-44 -20 -105 -20t-105 20l-71 -69l-70 69l65 65q-27 46 -27 110q0 65 27 109l-65 66l70 69l71 -69q44 20 105 20t105 -20l71 69zM300 134q47 0 74.5 32t27.5 87q0 56 -27.5 88t-74.5 32t-74.5 -32
t-27.5 -88q0 -55 27.5 -87t74.5 -32z" />
    <glyph glyph-name="yen" unicode="&#xa5;" horiz-adv-x="608" 
d="M85 244v69h114l-174 314h159l125 -270l120 270h154l-164 -314h110v-69h-145v-66h145v-69h-145v-109h-146v109h-153v69h153v66h-153z" />
    <glyph glyph-name="brokenbar" unicode="&#xa6;" horiz-adv-x="271" 
d="M85 -194v404h101v-404h-101zM85 341v404h101v-404h-101z" />
    <glyph glyph-name="section" unicode="&#xa7;" horiz-adv-x="658" 
d="M585 215q0 -93 -91 -133q39 -41 39 -97q0 -75 -52.5 -121.5t-146.5 -46.5t-148 45t-63 119l113 19q3 -36 29 -58.5t62 -22.5t58 15.5t22 43.5q0 20 -17 34t-61 29l-98 33q-89 30 -123.5 69.5t-34.5 95.5q0 92 90 133q-38 41 -38 97q0 75 52.5 121.5t146.5 46.5t148 -45
t63 -119l-113 -19q-3 36 -29.5 58.5t-63.5 22.5q-35 0 -56.5 -15.5t-21.5 -43.5q0 -20 17 -34t61 -29l98 -33q89 -30 123.5 -69.5t34.5 -95.5zM262 313q-31 11 -55 25q-29 -24 -29 -62q0 -30 19 -51t80 -42l119 -42q33 -12 55 -25q29 26 29 62q0 30 -19 51t-80 42z" />
    <glyph glyph-name="dieresis" unicode="&#xa8;" horiz-adv-x="403" 
d="M167 549h-117v107h117v-107zM354 549h-117v107h117v-107z" />
    <glyph glyph-name="copyright" unicode="&#xa9;" horiz-adv-x="771" 
d="M298 312q0 -46 25 -74.5t62 -28.5q26 0 45.5 15.5t25.5 40.5l93 -20q-8 -48 -51 -80t-120 -32q-72 0 -121.5 47t-49.5 133q0 85 49.5 132t121.5 47q77 0 120 -32t51 -80l-93 -20q-6 25 -25.5 40.5t-45.5 15.5q-37 0 -62 -29t-25 -75zM384 -12q-143 0 -236 91t-93 234
t93 233.5t236 90.5q145 0 238.5 -90.5t93.5 -233.5t-93.5 -234t-238.5 -91zM384 39q121 0 199 77t78 197t-78 197t-199 77q-119 0 -196.5 -77t-77.5 -197t77.5 -197t196.5 -77z" />
    <glyph glyph-name="ordfeminine" unicode="&#xaa;" horiz-adv-x="446" 
d="M338 303q-77 0 -77 83v10q-10 -41 -42 -67t-78 -26q-42 0 -69 20t-27 60q0 29 13 49t41.5 32t57 18.5t75.5 12.5l15 2v24q0 54 -42 54q-48 0 -50 -60v-2l-94 5v6q0 55 39.5 85t104.5 30t104 -31t39 -89v-6l-4 -113q-2 -34 26 -34q12 0 21 3l10 -55q-22 -11 -63 -11z
M57 183v72h322v-72h-322zM182 365q21 0 39.5 13.5t27.5 34.5v42l-19 -2q-80 -10 -80 -57q0 -31 32 -31z" />
    <glyph glyph-name="guillemotleft" unicode="&#xab;" horiz-adv-x="510" 
d="M170 59l-125 180l125 179h91l-98 -179l98 -180h-91zM354 59l-125 180l125 179h91l-98 -179l98 -180h-91z" />
    <glyph glyph-name="logicalnot" unicode="&#xac;" 
d="M81 218v98h437v-286h-102v188h-335z" />
    <glyph glyph-name="uni00AD" unicode="&#xad;" horiz-adv-x="333" 
d="M45 216v94h243v-94h-243z" />
    <glyph glyph-name="registered" unicode="&#xae;" horiz-adv-x="595" 
d="M296 215q-103 0 -169.5 65t-66.5 168t66.5 168t169.5 65q105 0 172 -65t67 -168t-67 -168t-172 -65zM296 252q87 0 143.5 55t56.5 141q0 87 -56.5 142t-143.5 55q-85 0 -140.5 -55t-55.5 -142q0 -86 55.5 -141t140.5 -55zM418 327h-68q-8 11 -12.5 36.5t-14 41.5
t-32.5 16h-28v-94h-62v249h117q91 0 91 -73q0 -61 -68 -68q28 -1 44 -22q8 -11 16 -42.5t17 -43.5zM306 462q17 0 28 9t11 23t-10.5 22t-28.5 8h-43v-62h43z" />
    <glyph glyph-name="macron" unicode="&#xaf;" horiz-adv-x="346" 
d="M296 566h-246v74h246v-74z" />
    <glyph glyph-name="degree" unicode="&#xb0;" horiz-adv-x="411" 
d="M205 380q38 0 61.5 24t23.5 67q0 44 -23.5 68.5t-61.5 24.5q-37 0 -60.5 -24.5t-23.5 -68.5q0 -43 23.5 -67t60.5 -24zM35 471q0 76 49 122t121 46q73 0 122 -46t49 -122t-48.5 -120t-122.5 -44q-72 0 -121 44t-49 120z" />
    <glyph glyph-name="plusminus" unicode="&#xb1;" 
d="M82 316v96h167v145h102v-145h167v-96h-167v-155h-102v155h-167zM82 0v96h436v-96h-436z" />
    <glyph glyph-name="twosuperior" unicode="&#xb2;" horiz-adv-x="350" 
d="M139 479l-70 -31q-21 28 -21 69q0 51 36.5 84.5t93.5 33.5q62 0 98.5 -32t36.5 -84q0 -27 -11.5 -51t-39.5 -48t-47.5 -38t-61.5 -41h156v-68h-265v61l33.5 24.5l32 23l28 21t26.5 21t21.5 19t18.5 20l12.5 18.5t9 19.5t2.5 19.5q0 25 -13.5 38t-34.5 13q-23 0 -37.5 -15
t-14.5 -37q0 -25 11 -40z" />
    <glyph glyph-name="threesuperior" unicode="&#xb3;" horiz-adv-x="350" 
d="M174 266q-57 0 -98.5 32t-44.5 83l75 16q2 -28 23 -46t48 -18q60 0 60 47q0 44 -66 44h-13.5t-12.5 -0.5t-6 -0.5v63h33q23 0 38.5 11.5t15.5 34.5q0 40 -50 40q-26 0 -44 -17.5t-23 -46.5l-74 15q7 53 45 82.5t97 29.5q60 0 95.5 -24.5t35.5 -70.5q0 -28 -18.5 -49.5
t-52.5 -30.5q85 -11 85 -85q0 -53 -40.5 -81t-107.5 -28z" />
    <glyph glyph-name="acute" unicode="&#xb4;" horiz-adv-x="315" 
d="M114 545h-64l62 143h153z" />
    <glyph glyph-name="mu" unicode="&#xb5;" horiz-adv-x="597" 
d="M247 -10q-21 0 -39 3v-166h-133v649h133v-278q0 -115 84 -115q65 0 97 74v319h133v-476h-93l-22 128q-34 -138 -160 -138z" />
    <glyph glyph-name="paragraph" unicode="&#xb6;" horiz-adv-x="714" 
d="M298 -173v379q-44 1 -82 10.5t-73.5 31.5t-56.5 65.5t-21 103.5q0 62 22.5 105.5t60.5 65t77.5 30.5t84.5 9h96v-800h-108zM521 -173v800h108v-800h-108z" />
    <glyph glyph-name="periodcentered" unicode="&#xb7;" horiz-adv-x="296" 
d="M216 196h-136v136h136v-136z" />
    <glyph glyph-name="cedilla" unicode="&#xb8;" horiz-adv-x="313" 
d="M45 -161l38 39q9 -15 28.5 -23.5t36.5 -8.5q22 0 35 10.5t13 27.5q0 32 -41 32q-19 0 -34 -13l-38 23l61 95l31 -21l-32 -52q14 7 39 7q35 0 58 -20.5t23 -55.5q0 -39 -30 -62.5t-75 -23.5q-38 0 -68.5 13.5t-44.5 32.5z" />
    <glyph glyph-name="onesuperior" unicode="&#xb9;" horiz-adv-x="350" 
d="M56 273v68h103v167q-26 -16 -92 -16v68q88 0 114 67h59v-286h80v-68h-264z" />
    <glyph glyph-name="ordmasculine" unicode="&#xba;" horiz-adv-x="425" 
d="M52 183v72h322v-72h-322zM213 305q-73 0 -120.5 41t-47.5 126t47.5 126t120.5 41t120 -41t47 -126t-47 -126t-120 -41zM213 369q31 0 47.5 27t16.5 76t-16.5 76.5t-47.5 27.5t-47.5 -27.5t-16.5 -76.5t16.5 -76t47.5 -27z" />
    <glyph glyph-name="guillemotright" unicode="&#xbb;" horiz-adv-x="510" 
d="M281 239l-125 -180h-91l98 180l-98 179h91zM465 239l-125 -180h-91l98 180l-98 179h91z" />
    <glyph glyph-name="onequarter" unicode="&#xbc;" horiz-adv-x="900" 
d="M186 0l485 627h85l-484 -627h-86zM66 273v68h103v167q-26 -16 -92 -16v68q88 0 114 67h59v-286h80v-68h-264zM691 135v136l-98 -136h98zM770 0h-79v67h-173v70l164 217h88v-219h47v-68h-47v-67z" />
    <glyph glyph-name="onehalf" unicode="&#xbd;" horiz-adv-x="900" 
d="M186 0l485 627h85l-484 -627h-86zM660 206l-70 -31q-21 28 -21 69q0 51 36.5 84.5t93.5 33.5q62 0 98.5 -32t36.5 -84q0 -27 -11.5 -51t-39.5 -48t-47.5 -38t-61.5 -41h156v-68h-265v61l33.5 24.5l32 23l28 21t26.5 21t21.5 19t18.5 20l12.5 18.5t9 19.5t2.5 19.5
q0 25 -13.5 38t-34.5 13q-23 0 -37.5 -15t-14.5 -37q0 -25 11 -40zM66 273v68h103v167q-26 -16 -92 -16v68q88 0 114 67h59v-286h80v-68h-264z" />
    <glyph glyph-name="threequarters" unicode="&#xbe;" horiz-adv-x="900" 
d="M186 0l485 627h85l-484 -627h-86zM691 135v136l-98 -136h98zM770 0h-79v67h-173v70l164 217h88v-219h47v-68h-47v-67zM209 266q-57 0 -98.5 32t-44.5 83l75 16q2 -28 23 -46t48 -18q60 0 60 47q0 44 -66 44h-13.5t-12.5 -0.5t-6 -0.5v63h33q23 0 38.5 11.5t15.5 34.5
q0 40 -50 40q-26 0 -44 -17.5t-23 -46.5l-74 15q7 53 45 82.5t97 29.5q60 0 95.5 -24.5t35.5 -70.5q0 -28 -18.5 -49.5t-52.5 -30.5q85 -11 85 -85q0 -53 -40.5 -81t-107.5 -28z" />
    <glyph glyph-name="questiondown" unicode="&#xbf;" horiz-adv-x="568" 
d="M390 69l129 7q4 -17 4 -40q0 -88 -64.5 -143.5t-179.5 -55.5q-107 0 -170.5 48t-63.5 127q0 57 31.5 92.5t91.5 66.5q81 43 87 92l3 24h82l4 -16q7 -33 7 -46q0 -37 -17 -65.5t-70 -60.5q-49 -30 -65 -45.5t-16 -41.5q0 -29 26.5 -47t70.5 -18q46 0 79 27.5t33 74.5
q0 6 -2 20zM233 476h136v-136h-136v136z" />
    <glyph glyph-name="Agrave" unicode="&#xc0;" horiz-adv-x="691" 
d="M523 0l-45 132h-269l-45 -132h-144l236 627h180l235 -627h-148zM344 516l-96 -274h191zM410 696h-64l-151 143h153z" />
    <glyph glyph-name="Aacute" unicode="&#xc1;" horiz-adv-x="691" 
d="M523 0l-45 132h-269l-45 -132h-144l236 627h180l235 -627h-148zM344 516l-96 -274h191zM346 696h-64l62 143h153z" />
    <glyph glyph-name="Acircumflex" unicode="&#xc2;" horiz-adv-x="691" 
d="M523 0l-45 132h-269l-45 -132h-144l236 627h180l235 -627h-148zM344 516l-96 -274h191zM253 696h-67l114 143h93l114 -143h-67l-94 58z" />
    <glyph glyph-name="Atilde" unicode="&#xc3;" horiz-adv-x="691" 
d="M523 0l-45 132h-269l-45 -132h-144l236 627h180l235 -627h-148zM344 516l-96 -274h191zM258 696h-58q0 61 23 96t66 35q26 0 59.5 -23t52.5 -23q14 0 23.5 11t9.5 32h57q0 -61 -23 -95.5t-66 -34.5q-26 0 -59 23t-52 23q-33 0 -33 -44z" />
    <glyph glyph-name="Adieresis" unicode="&#xc4;" horiz-adv-x="691" 
d="M523 0l-45 132h-269l-45 -132h-144l236 627h180l235 -627h-148zM344 516l-96 -274h191zM311 700h-117v107h117v-107zM498 700h-117v107h117v-107z" />
    <glyph glyph-name="Aring" unicode="&#xc5;" horiz-adv-x="691" 
d="M232 686q0 47 32 78t83 31q50 0 82 -31t32 -78q0 -39 -22 -67l232 -619h-148l-45 132h-269l-45 -132h-144l233 621q-21 27 -21 65zM344 516l-96 -274h191zM292 686q0 -23 13.5 -40.5t36.5 -18.5h5q24 0 38.5 17.5t14.5 41.5q0 26 -14.5 43.5t-38.5 17.5q-25 0 -40 -17.5
t-15 -43.5z" />
    <glyph glyph-name="AE" unicode="&#xc6;" horiz-adv-x="981" 
d="M521 0l-45 132h-265l-45 -132h-146l236 627h466l42 -115h-285l51 -136h237l41 -115h-235l55 -146h292l41 -115h-440zM344 517l-94 -275h187z" />
    <glyph glyph-name="Ccedilla" unicode="&#xc7;" horiz-adv-x="716" 
d="M238 -161l38 39q9 -15 28.5 -23.5t36.5 -8.5q22 0 35 10.5t13 27.5q0 32 -41 32q-19 0 -34 -13l-38 23l41 65q-115 13 -191 97t-76 226q0 154 89.5 239.5t218.5 85.5q138 0 215 -59t93 -146l-143 -24q-12 54 -52 82.5t-100 28.5q-79 0 -128.5 -52t-49.5 -156t49.5 -155.5
t128.5 -51.5q60 0 100 28.5t52 82.5l143 -24q-16 -86 -92.5 -145t-213.5 -60l-24 -40q14 7 39 7q35 0 58 -20.5t23 -55.5q0 -39 -30 -62.5t-75 -23.5q-38 0 -68.5 13.5t-44.5 32.5z" />
    <glyph glyph-name="Egrave" unicode="&#xc8;" horiz-adv-x="615" 
d="M560 0h-480v627h467v-115h-329v-136h283v-115h-283v-146h342v-115zM378 696h-64l-151 143h153z" />
    <glyph glyph-name="Eacute" unicode="&#xc9;" horiz-adv-x="615" 
d="M560 0h-480v627h467v-115h-329v-136h283v-115h-283v-146h342v-115zM314 696h-64l62 143h153z" />
    <glyph glyph-name="Ecircumflex" unicode="&#xca;" horiz-adv-x="615" 
d="M560 0h-480v627h467v-115h-329v-136h283v-115h-283v-146h342v-115zM221 696h-67l114 143h93l114 -143h-67l-94 58z" />
    <glyph glyph-name="Edieresis" unicode="&#xcb;" horiz-adv-x="615" 
d="M560 0h-480v627h467v-115h-329v-136h283v-115h-283v-146h342v-115zM279 700h-117v107h117v-107zM466 700h-117v107h117v-107z" />
    <glyph glyph-name="Igrave" unicode="&#xcc;" horiz-adv-x="298" 
d="M218 0h-138v627h138v-627zM213 696h-64l-151 143h153z" />
    <glyph glyph-name="Iacute" unicode="&#xcd;" horiz-adv-x="298" 
d="M218 0h-138v627h138v-627zM149 696h-64l62 143h153z" />
    <glyph glyph-name="Icircumflex" unicode="&#xce;" horiz-adv-x="298" 
d="M218 0h-138v627h138v-627zM56 696h-67l114 143h93l114 -143h-67l-94 58z" />
    <glyph glyph-name="Idieresis" unicode="&#xcf;" horiz-adv-x="298" 
d="M218 0h-138v627h138v-627zM114 700h-117v107h117v-107zM301 700h-117v107h117v-107z" />
    <glyph glyph-name="Eth" unicode="&#xd0;" horiz-adv-x="726" 
d="M46 270v90h70v267h251q142 0 225.5 -78t83.5 -242q0 -150 -81.5 -228.5t-212.5 -78.5h-266v270h-70zM355 112q178 0 178 201q0 106 -48.5 154.5t-129.5 48.5h-101v-156h109v-90h-109v-158h101z" />
    <glyph glyph-name="Ntilde" unicode="&#xd1;" horiz-adv-x="735" 
d="M655 0h-176l-261 461v-461h-138v627h180l257 -450v450h138v-627zM279 696h-58q0 61 23 96t66 35q26 0 59.5 -23t52.5 -23q14 0 23.5 11t9.5 32h57q0 -61 -23 -95.5t-66 -34.5q-26 0 -59 23t-52 23q-33 0 -33 -44z" />
    <glyph glyph-name="Ograve" unicode="&#xd2;" horiz-adv-x="745" 
d="M371 -12q-140 0 -230.5 84.5t-90.5 242.5q0 157 90 240.5t231 83.5q139 0 231.5 -84t92.5 -241t-92.5 -241.5t-231.5 -84.5zM372 106q82 0 130 53.5t48 156.5q0 101 -47.5 153t-130.5 52t-131 -52.5t-48 -154.5q0 -101 48.5 -154.5t130.5 -53.5zM435 696h-64l-151 143
h153z" />
    <glyph glyph-name="Oacute" unicode="&#xd3;" horiz-adv-x="745" 
d="M371 -12q-140 0 -230.5 84.5t-90.5 242.5q0 157 90 240.5t231 83.5q139 0 231.5 -84t92.5 -241t-92.5 -241.5t-231.5 -84.5zM372 106q82 0 130 53.5t48 156.5q0 101 -47.5 153t-130.5 52t-131 -52.5t-48 -154.5q0 -101 48.5 -154.5t130.5 -53.5zM371 696h-64l62 143h153z
" />
    <glyph glyph-name="Ocircumflex" unicode="&#xd4;" horiz-adv-x="745" 
d="M371 -12q-140 0 -230.5 84.5t-90.5 242.5q0 157 90 240.5t231 83.5q139 0 231.5 -84t92.5 -241t-92.5 -241.5t-231.5 -84.5zM372 106q82 0 130 53.5t48 156.5q0 101 -47.5 153t-130.5 52t-131 -52.5t-48 -154.5q0 -101 48.5 -154.5t130.5 -53.5zM278 696h-67l114 143h93
l114 -143h-67l-94 58z" />
    <glyph glyph-name="Otilde" unicode="&#xd5;" horiz-adv-x="745" 
d="M371 -12q-140 0 -230.5 84.5t-90.5 242.5q0 157 90 240.5t231 83.5q139 0 231.5 -84t92.5 -241t-92.5 -241.5t-231.5 -84.5zM372 106q82 0 130 53.5t48 156.5q0 101 -47.5 153t-130.5 52t-131 -52.5t-48 -154.5q0 -101 48.5 -154.5t130.5 -53.5zM283 696h-58q0 61 23 96
t66 35q26 0 59.5 -23t52.5 -23q14 0 23.5 11t9.5 32h57q0 -61 -23 -95.5t-66 -34.5q-26 0 -59 23t-52 23q-33 0 -33 -44z" />
    <glyph glyph-name="Odieresis" unicode="&#xd6;" horiz-adv-x="745" 
d="M371 -12q-140 0 -230.5 84.5t-90.5 242.5q0 157 90 240.5t231 83.5q139 0 231.5 -84t92.5 -241t-92.5 -241.5t-231.5 -84.5zM372 106q82 0 130 53.5t48 156.5q0 101 -47.5 153t-130.5 52t-131 -52.5t-48 -154.5q0 -101 48.5 -154.5t130.5 -53.5zM336 700h-117v107h117
v-107zM523 700h-117v107h117v-107z" />
    <glyph glyph-name="multiply" unicode="&#xd7;" 
d="M515 414l-147 -146l147 -146l-69 -69l-147 147l-146 -145l-68 67l146 146l-146 146l68 67l146 -145l148 147z" />
    <glyph glyph-name="Oslash" unicode="&#xd8;" horiz-adv-x="745" 
d="M371 -12q-77 0 -141 26l-43 -64h-107l72 111q-102 87 -102 254q0 157 90 240.5t231 83.5q75 0 141 -26l42 64h107l-72 -111q106 -86 106 -252q0 -157 -92.5 -241.5t-231.5 -84.5zM372 106q82 0 130 53.5t48 156.5q0 86 -37 139l-219 -334q34 -15 78 -15zM193 314
q0 -89 37 -141l218 334q-34 14 -76 14q-83 0 -131 -52.5t-48 -154.5z" />
    <glyph glyph-name="Ugrave" unicode="&#xd9;" horiz-adv-x="708" 
d="M355 -12q-141 0 -210.5 74.5t-69.5 213.5v351h138v-356q0 -165 141 -165q73 0 106 39.5t33 129.5v352h140v-348q0 -140 -69 -215.5t-209 -75.5zM420 696h-64l-151 143h153z" />
    <glyph glyph-name="Uacute" unicode="&#xda;" horiz-adv-x="708" 
d="M355 -12q-141 0 -210.5 74.5t-69.5 213.5v351h138v-356q0 -165 141 -165q73 0 106 39.5t33 129.5v352h140v-348q0 -140 -69 -215.5t-209 -75.5zM356 696h-64l62 143h153z" />
    <glyph glyph-name="Ucircumflex" unicode="&#xdb;" horiz-adv-x="708" 
d="M355 -12q-141 0 -210.5 74.5t-69.5 213.5v351h138v-356q0 -165 141 -165q73 0 106 39.5t33 129.5v352h140v-348q0 -140 -69 -215.5t-209 -75.5zM263 696h-67l114 143h93l114 -143h-67l-94 58z" />
    <glyph glyph-name="Udieresis" unicode="&#xdc;" horiz-adv-x="708" 
d="M355 -12q-141 0 -210.5 74.5t-69.5 213.5v351h138v-356q0 -165 141 -165q73 0 106 39.5t33 129.5v352h140v-348q0 -140 -69 -215.5t-209 -75.5zM321 700h-117v107h117v-107zM508 700h-117v107h117v-107z" />
    <glyph glyph-name="Yacute" unicode="&#xdd;" horiz-adv-x="635" 
d="M387 0h-138v217l-239 410h166l143 -272l148 272h158l-238 -409v-218zM318 696h-64l62 143h153z" />
    <glyph glyph-name="Thorn" unicode="&#xde;" horiz-adv-x="647" 
d="M218 627v-104h135q249 0 249 -206q0 -204 -254 -204h-130v-113h-138v627h138zM350 407h-132v-178h128q113 0 113 88q0 90 -109 90z" />
    <glyph glyph-name="germandbls" unicode="&#xdf;" horiz-adv-x="652" 
d="M20 382v94h85q8 107 65.5 155t165.5 48q89 0 149 -37t60 -97q0 -27 -14 -49t-50 -51q-30 -24 -41 -37t-11 -26q0 -17 16 -28.5t58 -32.5q57 -28 89 -64t32 -96q0 -78 -49.5 -125.5t-140.5 -47.5q-105 0 -163 51l54 88q39 -41 95 -41q33 0 51.5 16.5t18.5 44.5
q0 16 -7 28.5t-27 26t-37.5 22.5t-57.5 28q-66 31 -66 75q0 20 9.5 36.5t34.5 41.5q29 28 40 40.5t21.5 33t10.5 42.5q0 30 -21.5 48t-58.5 18q-95 0 -95 -112v-648h-133v555h-83z" />
    <glyph glyph-name="agrave" unicode="&#xe0;" horiz-adv-x="569" 
d="M477 -10q-50 0 -78.5 27t-28.5 80q0 8 2 30q-15 -61 -62 -99t-122 -38q-64 0 -106 29.5t-42 88.5q0 43 20.5 73.5t61 48.5t86.5 27.5t112 15.5l31 3v38q0 80 -77 80q-42 0 -66.5 -24t-24.5 -68l-119 7v9q0 81 57.5 124.5t152.5 43.5t152.5 -45.5t57.5 -131.5v-8l-6 -168
v-4q0 -46 37 -46q16 0 31 5l15 -82q-32 -16 -84 -16zM230 79q40 0 75 21.5t49 51.5v62l-28 -3q-153 -16 -153 -84q0 -23 15.5 -35.5t41.5 -12.5zM338 545h-64l-151 143h153z" />
    <glyph glyph-name="aacute" unicode="&#xe1;" horiz-adv-x="569" 
d="M477 -10q-50 0 -78.5 27t-28.5 80q0 8 2 30q-15 -61 -62 -99t-122 -38q-64 0 -106 29.5t-42 88.5q0 43 20.5 73.5t61 48.5t86.5 27.5t112 15.5l31 3v38q0 80 -77 80q-42 0 -66.5 -24t-24.5 -68l-119 7v9q0 81 57.5 124.5t152.5 43.5t152.5 -45.5t57.5 -131.5v-8l-6 -168
v-4q0 -46 37 -46q16 0 31 5l15 -82q-32 -16 -84 -16zM230 79q40 0 75 21.5t49 51.5v62l-28 -3q-153 -16 -153 -84q0 -23 15.5 -35.5t41.5 -12.5zM274 545h-64l62 143h153z" />
    <glyph glyph-name="acircumflex" unicode="&#xe2;" horiz-adv-x="569" 
d="M477 -10q-50 0 -78.5 27t-28.5 80q0 8 2 30q-15 -61 -62 -99t-122 -38q-64 0 -106 29.5t-42 88.5q0 43 20.5 73.5t61 48.5t86.5 27.5t112 15.5l31 3v38q0 80 -77 80q-42 0 -66.5 -24t-24.5 -68l-119 7v9q0 81 57.5 124.5t152.5 43.5t152.5 -45.5t57.5 -131.5v-8l-6 -168
v-4q0 -46 37 -46q16 0 31 5l15 -82q-32 -16 -84 -16zM230 79q40 0 75 21.5t49 51.5v62l-28 -3q-153 -16 -153 -84q0 -23 15.5 -35.5t41.5 -12.5zM181 545h-67l114 143h93l114 -143h-67l-94 58z" />
    <glyph glyph-name="atilde" unicode="&#xe3;" horiz-adv-x="569" 
d="M477 -10q-50 0 -78.5 27t-28.5 80q0 8 2 30q-15 -61 -62 -99t-122 -38q-64 0 -106 29.5t-42 88.5q0 43 20.5 73.5t61 48.5t86.5 27.5t112 15.5l31 3v38q0 80 -77 80q-42 0 -66.5 -24t-24.5 -68l-119 7v9q0 81 57.5 124.5t152.5 43.5t152.5 -45.5t57.5 -131.5v-8l-6 -168
v-4q0 -46 37 -46q16 0 31 5l15 -82q-32 -16 -84 -16zM230 79q40 0 75 21.5t49 51.5v62l-28 -3q-153 -16 -153 -84q0 -23 15.5 -35.5t41.5 -12.5zM186 545h-58q0 61 23 96t66 35q26 0 59.5 -23t52.5 -23q14 0 23.5 11t9.5 32h57q0 -61 -23 -95.5t-66 -34.5q-26 0 -59 23
t-52 23q-33 0 -33 -44z" />
    <glyph glyph-name="adieresis" unicode="&#xe4;" horiz-adv-x="569" 
d="M477 -10q-50 0 -78.5 27t-28.5 80q0 8 2 30q-15 -61 -62 -99t-122 -38q-64 0 -106 29.5t-42 88.5q0 43 20.5 73.5t61 48.5t86.5 27.5t112 15.5l31 3v38q0 80 -77 80q-42 0 -66.5 -24t-24.5 -68l-119 7v9q0 81 57.5 124.5t152.5 43.5t152.5 -45.5t57.5 -131.5v-8l-6 -168
v-4q0 -46 37 -46q16 0 31 5l15 -82q-32 -16 -84 -16zM230 79q40 0 75 21.5t49 51.5v62l-28 -3q-153 -16 -153 -84q0 -23 15.5 -35.5t41.5 -12.5zM239 549h-117v107h117v-107zM426 549h-117v107h117v-107z" />
    <glyph glyph-name="aring" unicode="&#xe5;" horiz-adv-x="569" 
d="M477 -10q-50 0 -78.5 27t-28.5 80q0 8 2 30q-15 -61 -62 -99t-122 -38q-64 0 -106 29.5t-42 88.5q0 43 20.5 73.5t61 48.5t86.5 27.5t112 15.5l31 3v38q0 80 -77 80q-42 0 -66.5 -24t-24.5 -68l-119 7v9q0 81 57.5 124.5t152.5 43.5t152.5 -45.5t57.5 -131.5v-8l-6 -168
v-4q0 -46 37 -46q16 0 31 5l15 -82q-32 -16 -84 -16zM230 79q40 0 75 21.5t49 51.5v62l-28 -3q-153 -16 -153 -84q0 -23 15.5 -35.5t41.5 -12.5zM218 619q0 -24 15 -41.5t40 -17.5q24 0 38.5 17.5t14.5 41.5q0 26 -14.5 43.5t-38.5 17.5q-25 0 -40 -17.5t-15 -43.5zM158 619
q0 47 32 78t83 31q50 0 82 -31t32 -78q0 -46 -32 -76.5t-82 -30.5q-51 0 -83 30.5t-32 76.5z" />
    <glyph glyph-name="ae" unicode="&#xe6;" horiz-adv-x="871" 
d="M598 -10q-164 0 -219 123q-11 -53 -67.5 -88t-121.5 -35t-107.5 29.5t-42.5 88.5q0 43 20.5 73.5t61 48.5t86.5 27.5t112 15.5l31 3v36q0 80 -77 80q-42 0 -66 -23t-25 -66v-3l-119 7v9q0 81 57.5 125.5t152.5 44.5q49 0 91 -20t65 -61q54 81 163 81q104 0 167 -62
t63 -160q0 -28 -3 -50h-339q12 -130 117 -130q38 0 64.5 23.5t31.5 59.5l121 -22q-11 -71 -68 -113t-149 -42zM591 394q-41 0 -71 -28.5t-38 -78.5h213q0 45 -26 76t-78 31zM232 82q43 0 78 20t54 47q-8 25 -11 65l-27 -3q-151 -16 -151 -82q0 -47 57 -47z" />
    <glyph glyph-name="ccedilla" unicode="&#xe7;" horiz-adv-x="556" 
d="M170 -161l38 39q9 -15 28.5 -23.5t36.5 -8.5q22 0 35 10.5t13 27.5q0 32 -41 32q-19 0 -34 -13l-38 23l42 66q-91 11 -146.5 72.5t-55.5 173.5q0 124 68 186t175 62q103 0 157.5 -44t64.5 -111l-121 -22q-6 35 -31 59t-69 24q-49 0 -79.5 -39.5t-30.5 -114.5t30.5 -114.5
t79.5 -39.5q44 0 69 24t31 59l121 -22q-10 -66 -63.5 -110t-155.5 -45l-26 -42q14 7 39 7q35 0 58 -20.5t23 -55.5q0 -39 -30 -62.5t-75 -23.5q-38 0 -68.5 13.5t-44.5 32.5z" />
    <glyph glyph-name="egrave" unicode="&#xe8;" horiz-adv-x="571" 
d="M296 -10q-112 0 -180 61t-68 184q0 128 68 189.5t175 61.5q104 0 167 -61t63 -156q0 -33 -3 -55h-338q13 -130 116 -130q38 0 64.5 23.5t31.5 59.5l121 -22q-11 -71 -68 -113t-149 -42zM289 394q-42 0 -71.5 -28t-36.5 -79h208q0 46 -24.5 76.5t-75.5 30.5zM355 545h-64
l-151 143h153z" />
    <glyph glyph-name="eacute" unicode="&#xe9;" horiz-adv-x="571" 
d="M296 -10q-112 0 -180 61t-68 184q0 128 68 189.5t175 61.5q104 0 167 -61t63 -156q0 -33 -3 -55h-338q13 -130 116 -130q38 0 64.5 23.5t31.5 59.5l121 -22q-11 -71 -68 -113t-149 -42zM289 394q-42 0 -71.5 -28t-36.5 -79h208q0 46 -24.5 76.5t-75.5 30.5zM291 545h-64
l62 143h153z" />
    <glyph glyph-name="ecircumflex" unicode="&#xea;" horiz-adv-x="571" 
d="M296 -10q-112 0 -180 61t-68 184q0 128 68 189.5t175 61.5q104 0 167 -61t63 -156q0 -33 -3 -55h-338q13 -130 116 -130q38 0 64.5 23.5t31.5 59.5l121 -22q-11 -71 -68 -113t-149 -42zM289 394q-42 0 -71.5 -28t-36.5 -79h208q0 46 -24.5 76.5t-75.5 30.5zM198 545h-67
l114 143h93l114 -143h-67l-94 58z" />
    <glyph glyph-name="edieresis" unicode="&#xeb;" horiz-adv-x="571" 
d="M296 -10q-112 0 -180 61t-68 184q0 128 68 189.5t175 61.5q104 0 167 -61t63 -156q0 -33 -3 -55h-338q13 -130 116 -130q38 0 64.5 23.5t31.5 59.5l121 -22q-11 -71 -68 -113t-149 -42zM289 394q-42 0 -71.5 -28t-36.5 -79h208q0 46 -24.5 76.5t-75.5 30.5zM256 549h-117
v107h117v-107zM443 549h-117v107h117v-107z" />
    <glyph glyph-name="igrave" unicode="&#xec;" horiz-adv-x="277" 
d="M205 0h-133v476h133v-476zM202 545h-64l-151 143h153z" />
    <glyph glyph-name="iacute" unicode="&#xed;" horiz-adv-x="277" 
d="M205 0h-133v476h133v-476zM138 545h-64l62 143h153z" />
    <glyph glyph-name="icircumflex" unicode="&#xee;" horiz-adv-x="277" 
d="M205 0h-133v476h133v-476zM45 545h-67l114 143h93l114 -143h-67l-94 58z" />
    <glyph glyph-name="idieresis" unicode="&#xef;" horiz-adv-x="277" 
d="M205 0h-133v476h133v-476zM103 549h-117v107h117v-107zM290 549h-117v107h117v-107z" />
    <glyph glyph-name="eth" unicode="&#xf0;" horiz-adv-x="575" 
d="M247 464l-30 46l76 53q-39 25 -86 25q-42 0 -74 -9l-16 70q39 14 97 14q77 0 157 -47l81 56l30 -45l-66 -46q111 -105 111 -292q0 -145 -62 -222t-182 -77q-104 0 -169.5 58t-65.5 175q0 70 31.5 119t75.5 69.5t93 20.5q93 0 142 -64q0 99 -56 160zM395 272q0 16 -2 38
q-42 42 -105 42q-50 0 -79 -36t-29 -98q0 -59 27 -96.5t76 -37.5q54 0 83 48t29 140z" />
    <glyph glyph-name="ntilde" unicode="&#xf1;" horiz-adv-x="591" 
d="M527 0h-133v278q0 112 -88 112q-68 0 -101 -71v-319h-133v476h93l22 -128q34 138 164 138q80 0 128 -47t48 -145v-294zM223 546h-58q0 61 23 96t66 35q26 0 59.5 -23t52.5 -23q14 0 23.5 11t9.5 32h57q0 -61 -23 -95.5t-66 -34.5q-26 0 -59 23t-52 23q-33 0 -33 -44z" />
    <glyph glyph-name="ograve" unicode="&#xf2;" horiz-adv-x="588" 
d="M294 -10q-108 0 -177 61t-69 187t69 187t177 61t177 -61t69 -187t-69 -187t-177 -61zM294 84q53 0 82.5 41t29.5 113t-29.5 113t-82.5 41t-82.5 -41t-29.5 -113t29.5 -113t82.5 -41zM358 545h-64l-151 143h153z" />
    <glyph glyph-name="oacute" unicode="&#xf3;" horiz-adv-x="588" 
d="M294 -10q-108 0 -177 61t-69 187t69 187t177 61t177 -61t69 -187t-69 -187t-177 -61zM294 84q53 0 82.5 41t29.5 113t-29.5 113t-82.5 41t-82.5 -41t-29.5 -113t29.5 -113t82.5 -41zM294 545h-64l62 143h153z" />
    <glyph glyph-name="ocircumflex" unicode="&#xf4;" horiz-adv-x="588" 
d="M294 -10q-108 0 -177 61t-69 187t69 187t177 61t177 -61t69 -187t-69 -187t-177 -61zM294 84q53 0 82.5 41t29.5 113t-29.5 113t-82.5 41t-82.5 -41t-29.5 -113t29.5 -113t82.5 -41zM201 545h-67l114 143h93l114 -143h-67l-94 58z" />
    <glyph glyph-name="otilde" unicode="&#xf5;" horiz-adv-x="588" 
d="M294 -10q-108 0 -177 61t-69 187t69 187t177 61t177 -61t69 -187t-69 -187t-177 -61zM294 84q53 0 82.5 41t29.5 113t-29.5 113t-82.5 41t-82.5 -41t-29.5 -113t29.5 -113t82.5 -41zM206 545h-58q0 61 23 96t66 35q26 0 59.5 -23t52.5 -23q14 0 23.5 11t9.5 32h57
q0 -61 -23 -95.5t-66 -34.5q-26 0 -59 23t-52 23q-33 0 -33 -44z" />
    <glyph glyph-name="odieresis" unicode="&#xf6;" horiz-adv-x="588" 
d="M294 -10q-108 0 -177 61t-69 187t69 187t177 61t177 -61t69 -187t-69 -187t-177 -61zM294 84q53 0 82.5 41t29.5 113t-29.5 113t-82.5 41t-82.5 -41t-29.5 -113t29.5 -113t82.5 -41zM259 549h-117v107h117v-107zM446 549h-117v107h117v-107z" />
    <glyph glyph-name="divide" unicode="&#xf7;" 
d="M57 219v96h486v-96h-486zM369 408h-136v126h136v-126zM369 0h-136v126h136v-126z" />
    <glyph glyph-name="oslash" unicode="&#xf8;" horiz-adv-x="588" 
d="M294 -10q-49 0 -96 14l-38 -54h-110l70 99q-72 65 -72 189q0 126 69 187t177 61q53 0 94 -14l40 55h110l-71 -99q73 -66 73 -190q0 -126 -69 -187t-177 -61zM294 79q55 0 86.5 42.5t31.5 116.5q0 55 -19 95l-151 -242q22 -12 52 -12zM176 238q0 -56 18 -94l150 242
q-21 12 -50 12q-55 0 -86.5 -43t-31.5 -117z" />
    <glyph glyph-name="ugrave" unicode="&#xf9;" horiz-adv-x="583" 
d="M236 -10q-79 0 -125.5 46.5t-46.5 145.5v294h133v-278q0 -114 84 -114q64 0 97 73v319h133v-476h-93l-22 128q-34 -138 -160 -138zM352 545h-64l-151 143h153z" />
    <glyph glyph-name="uacute" unicode="&#xfa;" horiz-adv-x="583" 
d="M236 -10q-79 0 -125.5 46.5t-46.5 145.5v294h133v-278q0 -114 84 -114q64 0 97 73v319h133v-476h-93l-22 128q-34 -138 -160 -138zM288 545h-64l62 143h153z" />
    <glyph glyph-name="ucircumflex" unicode="&#xfb;" horiz-adv-x="583" 
d="M236 -10q-79 0 -125.5 46.5t-46.5 145.5v294h133v-278q0 -114 84 -114q64 0 97 73v319h133v-476h-93l-22 128q-34 -138 -160 -138zM195 545h-67l114 143h93l114 -143h-67l-94 58z" />
    <glyph glyph-name="udieresis" unicode="&#xfc;" horiz-adv-x="583" 
d="M236 -10q-79 0 -125.5 46.5t-46.5 145.5v294h133v-278q0 -114 84 -114q64 0 97 73v319h133v-476h-93l-22 128q-34 -138 -160 -138zM253 549h-117v107h117v-107zM440 549h-117v107h117v-107z" />
    <glyph glyph-name="yacute" unicode="&#xfd;" horiz-adv-x="544" 
d="M58 -166l21 94q22 -8 40 -8q55 0 70 54l12 42l-176 460h142l110 -341l103 341h139l-191 -504q-29 -76 -73 -115.5t-112 -39.5q-45 0 -85 17zM277 545h-64l62 143h153z" />
    <glyph glyph-name="thorn" unicode="&#xfe;" horiz-adv-x="604" 
d="M72 669h38q38 0 95 11v-300q15 50 55 79t98 29q85 0 141.5 -63.5t56.5 -185.5q0 -119 -53 -184.5t-147 -65.5q-60 0 -100.5 32t-51.5 75v-269h-132v842zM309 84q50 0 81.5 38.5t31.5 111.5q0 78 -30.5 117t-81.5 39q-75 0 -106 -70v-168q13 -27 40.5 -47.5t64.5 -20.5z
" />
    <glyph glyph-name="ydieresis" unicode="&#xff;" horiz-adv-x="544" 
d="M58 -166l21 94q22 -8 40 -8q55 0 70 54l12 42l-176 460h142l110 -341l103 341h139l-191 -504q-29 -76 -73 -115.5t-112 -39.5q-45 0 -85 17zM242 549h-117v107h117v-107zM429 549h-117v107h117v-107z" />
    <glyph glyph-name="Amacron" unicode="&#x100;" horiz-adv-x="691" 
d="M523 0l-45 132h-269l-45 -132h-144l236 627h180l235 -627h-148zM344 516l-96 -274h191zM469 717h-246v74h246v-74z" />
    <glyph glyph-name="amacron" unicode="&#x101;" horiz-adv-x="569" 
d="M477 -10q-50 0 -78.5 27t-28.5 80q0 8 2 30q-15 -61 -62 -99t-122 -38q-64 0 -106 29.5t-42 88.5q0 43 20.5 73.5t61 48.5t86.5 27.5t112 15.5l31 3v38q0 80 -77 80q-42 0 -66.5 -24t-24.5 -68l-119 7v9q0 81 57.5 124.5t152.5 43.5t152.5 -45.5t57.5 -131.5v-8l-6 -168
v-4q0 -46 37 -46q16 0 31 5l15 -82q-32 -16 -84 -16zM230 79q40 0 75 21.5t49 51.5v62l-28 -3q-153 -16 -153 -84q0 -23 15.5 -35.5t41.5 -12.5zM397 566h-246v74h246v-74z" />
    <glyph glyph-name="Abreve" unicode="&#x102;" horiz-adv-x="691" 
d="M523 0l-45 132h-269l-45 -132h-144l236 627h180l235 -627h-148zM344 516l-96 -274h191zM418 832h63q0 -69 -38 -108t-98 -39q-59 0 -96 39t-37 108h64q0 -29 20 -48.5t50 -19.5q31 0 51.5 19.5t20.5 48.5z" />
    <glyph glyph-name="abreve" unicode="&#x103;" horiz-adv-x="569" 
d="M477 -10q-50 0 -78.5 27t-28.5 80q0 8 2 30q-15 -61 -62 -99t-122 -38q-64 0 -106 29.5t-42 88.5q0 43 20.5 73.5t61 48.5t86.5 27.5t112 15.5l31 3v38q0 80 -77 80q-42 0 -66.5 -24t-24.5 -68l-119 7v9q0 81 57.5 124.5t152.5 43.5t152.5 -45.5t57.5 -131.5v-8l-6 -168
v-4q0 -46 37 -46q16 0 31 5l15 -82q-32 -16 -84 -16zM230 79q40 0 75 21.5t49 51.5v62l-28 -3q-153 -16 -153 -84q0 -23 15.5 -35.5t41.5 -12.5zM346 681h63q0 -69 -38 -108t-98 -39q-59 0 -96 39t-37 108h64q0 -29 20 -48.5t50 -19.5q31 0 51.5 19.5t20.5 48.5z" />
    <glyph glyph-name="Aogonek" unicode="&#x104;" horiz-adv-x="691" 
d="M436 627l235 -627q-87 -52 -87 -105q0 -17 11.5 -27t27.5 -10q31 0 50 25l41 -42q-41 -48 -107 -48q-39 0 -65.5 22.5t-26.5 59.5q0 72 92 125h-84l-45 132h-269l-45 -132h-144l236 627h180zM344 516l-96 -274h191z" />
    <glyph glyph-name="aogonek" unicode="&#x105;" horiz-adv-x="569" 
d="M511 -117l42 -44q-38 -46 -108 -46q-39 0 -65.5 22.5t-26.5 59.5q0 69 94 118q-77 15 -77 104q0 6 2 30q-15 -61 -62 -99t-122 -38q-64 0 -106 29.5t-42 88.5q0 43 20.5 73.5t61 48.5t86.5 27.5t112 15.5l31 3v38q0 80 -77 80q-42 0 -66.5 -24t-24.5 -68l-119 7v9
q0 81 57.5 124.5t152.5 43.5q94 0 151.5 -45.5t57.5 -131.5v-8l-6 -168v-4q0 -46 38 -46q16 0 31 5l15 -82q-8 -4 -48 -17q-39 -14 -65 -41.5t-26 -52.5q0 -17 11.5 -27t27.5 -10q31 0 50 25zM230 79q40 0 75 21.5t49 51.5v62l-28 -3q-153 -16 -153 -84q0 -23 15.5 -35.5
t41.5 -12.5z" />
    <glyph glyph-name="Cacute" unicode="&#x106;" horiz-adv-x="716" 
d="M193 313q0 -104 49.5 -155.5t128.5 -51.5q60 0 100 28.5t52 82.5l143 -24q-16 -87 -93 -146t-215 -59q-129 0 -218.5 86t-89.5 240t89.5 239.5t218.5 85.5q138 0 215 -59t93 -146l-143 -24q-12 54 -52 82.5t-100 28.5q-79 0 -128.5 -52t-49.5 -156zM365 696h-64l62 143
h153z" />
    <glyph glyph-name="cacute" unicode="&#x107;" horiz-adv-x="556" 
d="M182 238q0 -75 30.5 -114.5t79.5 -39.5q44 0 69 24t31 59l121 -22q-10 -67 -64.5 -111t-157.5 -44q-107 0 -175 62t-68 186t68 186t175 62q103 0 157.5 -44t64.5 -111l-121 -22q-6 35 -31 59t-69 24q-49 0 -79.5 -39.5t-30.5 -114.5zM281 546h-64l62 143h153z" />
    <glyph glyph-name="Ccircumflex" unicode="&#x108;" horiz-adv-x="716" 
d="M193 313q0 -104 49.5 -155.5t128.5 -51.5q60 0 100 28.5t52 82.5l143 -24q-16 -87 -93 -146t-215 -59q-129 0 -218.5 86t-89.5 240t89.5 239.5t218.5 85.5q138 0 215 -59t93 -146l-143 -24q-12 54 -52 82.5t-100 28.5q-79 0 -128.5 -52t-49.5 -156zM272 696h-67l114 143
h93l114 -143h-67l-94 58z" />
    <glyph glyph-name="ccircumflex" unicode="&#x109;" horiz-adv-x="556" 
d="M182 238q0 -75 30.5 -114.5t79.5 -39.5q44 0 69 24t31 59l121 -22q-10 -67 -64.5 -111t-157.5 -44q-107 0 -175 62t-68 186t68 186t175 62q103 0 157.5 -44t64.5 -111l-121 -22q-6 35 -31 59t-69 24q-49 0 -79.5 -39.5t-30.5 -114.5zM188 546h-67l114 143h93l114 -143
h-67l-94 58z" />
    <glyph glyph-name="Cdotaccent" unicode="&#x10a;" horiz-adv-x="716" 
d="M193 313q0 -104 49.5 -155.5t128.5 -51.5q60 0 100 28.5t52 82.5l143 -24q-16 -87 -93 -146t-215 -59q-129 0 -218.5 86t-89.5 240t89.5 239.5t218.5 85.5q138 0 215 -59t93 -146l-143 -24q-12 54 -52 82.5t-100 28.5q-79 0 -128.5 -52t-49.5 -156zM431 709h-141v107h141
v-107z" />
    <glyph glyph-name="cdotaccent" unicode="&#x10b;" horiz-adv-x="556" 
d="M182 238q0 -75 30.5 -114.5t79.5 -39.5q44 0 69 24t31 59l121 -22q-10 -67 -64.5 -111t-157.5 -44q-107 0 -175 62t-68 186t68 186t175 62q103 0 157.5 -44t64.5 -111l-121 -22q-6 35 -31 59t-69 24q-49 0 -79.5 -39.5t-30.5 -114.5zM347 559h-141v107h141v-107z" />
    <glyph glyph-name="Ccaron" unicode="&#x10c;" horiz-adv-x="716" 
d="M193 313q0 -104 49.5 -155.5t128.5 -51.5q60 0 100 28.5t52 82.5l143 -24q-16 -87 -93 -146t-215 -59q-129 0 -218.5 86t-89.5 240t89.5 239.5t218.5 85.5q138 0 215 -59t93 -146l-143 -24q-12 54 -52 82.5t-100 28.5q-79 0 -128.5 -52t-49.5 -156zM205 834h67l93 -58
l94 58h67l-114 -143h-93z" />
    <glyph glyph-name="ccaron" unicode="&#x10d;" horiz-adv-x="556" 
d="M182 238q0 -75 30.5 -114.5t79.5 -39.5q44 0 69 24t31 59l121 -22q-10 -67 -64.5 -111t-157.5 -44q-107 0 -175 62t-68 186t68 186t175 62q103 0 157.5 -44t64.5 -111l-121 -22q-6 35 -31 59t-69 24q-49 0 -79.5 -39.5t-30.5 -114.5zM121 684h67l93 -58l94 58h67
l-114 -143h-93z" />
    <glyph glyph-name="Dcaron" unicode="&#x10e;" horiz-adv-x="690" 
d="M346 0h-266v627h251q142 0 225.5 -78t83.5 -242q0 -150 -81.5 -228.5t-212.5 -78.5zM319 112q178 0 178 201q0 106 -48.5 154t-129.5 48h-101v-403h101zM169 834h67l93 -58l94 58h67l-114 -143h-93z" />
    <glyph glyph-name="dcaron" unicode="&#x10f;" horiz-adv-x="604" 
d="M399 669h49q54 0 84 9v-678h-92l-22 129q-18 -71 -58 -105t-112 -34q-94 0 -147 65t-53 184q0 121 56.5 184t141.5 63q58 0 98 -28t55 -78v289zM295 84q36 0 63 21t41 47v168q-32 70 -105 70q-51 0 -81.5 -39.5t-30.5 -116.5q0 -71 31.5 -110.5t81.5 -39.5zM593 474
l30 195h126l-110 -195h-46z" />
    <glyph glyph-name="Dcroat" unicode="&#x110;" horiz-adv-x="726" 
d="M46 270v90h70v267h251q142 0 225.5 -78t83.5 -242q0 -150 -81.5 -228.5t-212.5 -78.5h-266v270h-70zM355 112q178 0 178 201q0 106 -48.5 154.5t-129.5 48.5h-101v-156h109v-90h-109v-158h101z" />
    <glyph glyph-name="dcroat" unicode="&#x111;" horiz-adv-x="607" 
d="M399 669h49q55 0 84 9v-84h60v-66h-60v-528h-92l-22 129q-18 -71 -58 -105t-112 -34q-94 0 -147 65t-53 184q0 121 56.5 184t141.5 63q58 0 98 -28t55 -78v148h-113v66h113v75zM295 84q37 0 64 20t40 48v168q-31 70 -105 70q-51 0 -81.5 -39t-30.5 -117
q0 -73 31.5 -111.5t81.5 -38.5z" />
    <glyph glyph-name="Emacron" unicode="&#x112;" horiz-adv-x="615" 
d="M560 0h-480v627h467v-115h-329v-136h283v-115h-283v-146h342v-115zM437 717h-246v74h246v-74z" />
    <glyph glyph-name="emacron" unicode="&#x113;" horiz-adv-x="571" 
d="M296 -10q-112 0 -180 61t-68 184q0 128 68 189.5t175 61.5q104 0 167 -61t63 -156q0 -33 -3 -55h-338q13 -130 116 -130q38 0 64.5 23.5t31.5 59.5l121 -22q-11 -71 -68 -113t-149 -42zM289 394q-42 0 -71.5 -28t-36.5 -79h208q0 46 -24.5 76.5t-75.5 30.5zM414 566h-246
v74h246v-74z" />
    <glyph glyph-name="Ebreve" unicode="&#x114;" horiz-adv-x="615" 
d="M560 0h-480v627h467v-115h-329v-136h283v-115h-283v-146h342v-115zM386 832h63q0 -69 -38 -108t-98 -39q-59 0 -96 39t-37 108h64q0 -29 20 -48.5t50 -19.5q31 0 51.5 19.5t20.5 48.5z" />
    <glyph glyph-name="ebreve" unicode="&#x115;" horiz-adv-x="571" 
d="M296 -10q-112 0 -180 61t-68 184q0 128 68 189.5t175 61.5q104 0 167 -61t63 -156q0 -33 -3 -55h-338q13 -130 116 -130q38 0 64.5 23.5t31.5 59.5l121 -22q-11 -71 -68 -113t-149 -42zM289 394q-42 0 -71.5 -28t-36.5 -79h208q0 46 -24.5 76.5t-75.5 30.5zM363 681h63
q0 -69 -38 -108t-98 -39q-59 0 -96 39t-37 108h64q0 -29 20 -48.5t50 -19.5q31 0 51.5 19.5t20.5 48.5z" />
    <glyph glyph-name="Edotaccent" unicode="&#x116;" horiz-adv-x="615" 
d="M560 0h-480v627h467v-115h-329v-136h283v-115h-283v-146h342v-115zM380 709h-141v107h141v-107z" />
    <glyph glyph-name="edotaccent" unicode="&#x117;" horiz-adv-x="571" 
d="M296 -10q-112 0 -180 61t-68 184q0 128 68 189.5t175 61.5q104 0 167 -61t63 -156q0 -33 -3 -55h-338q13 -130 116 -130q38 0 64.5 23.5t31.5 59.5l121 -22q-11 -71 -68 -113t-149 -42zM289 394q-42 0 -71.5 -28t-36.5 -79h208q0 46 -24.5 76.5t-75.5 30.5zM357 558h-141
v107h141v-107z" />
    <glyph glyph-name="Eogonek" unicode="&#x118;" horiz-adv-x="615" 
d="M560 115v-115q-87 -52 -87 -105q0 -17 11.5 -27t27.5 -10q31 0 50 25l41 -42q-41 -48 -107 -48q-39 0 -65.5 22.5t-26.5 59.5q0 72 92 125h-416v627h467v-115h-329v-136h283v-115h-283v-146h342z" />
    <glyph glyph-name="eogonek" unicode="&#x119;" horiz-adv-x="571" 
d="M365 -117l41 -43q-39 -47 -107 -47q-39 0 -65.5 22.5t-26.5 59.5q0 69 88 115q-112 0 -179.5 61t-67.5 184q0 128 68 189.5t175 61.5q104 0 167 -61t63 -156q0 -33 -3 -55h-338q13 -130 116 -130q38 0 64.5 23.5t31.5 59.5l121 -22q-16 -100 -130 -147
q-107 -45 -107 -103q0 -17 11.5 -27t27.5 -10q29 0 50 25zM289 394q-42 0 -71.5 -28t-36.5 -79h208q0 46 -24.5 76.5t-75.5 30.5z" />
    <glyph glyph-name="Ecaron" unicode="&#x11a;" horiz-adv-x="615" 
d="M560 0h-480v627h467v-115h-329v-136h283v-115h-283v-146h342v-115zM154 834h67l93 -58l94 58h67l-114 -143h-93z" />
    <glyph glyph-name="ecaron" unicode="&#x11b;" horiz-adv-x="571" 
d="M296 -10q-112 0 -180 61t-68 184q0 128 68 189.5t175 61.5q104 0 167 -61t63 -156q0 -33 -3 -55h-338q13 -130 116 -130q38 0 64.5 23.5t31.5 59.5l121 -22q-11 -71 -68 -113t-149 -42zM289 394q-42 0 -71.5 -28t-36.5 -79h208q0 46 -24.5 76.5t-75.5 30.5zM131 683h67
l93 -58l94 58h67l-114 -143h-93z" />
    <glyph glyph-name="Gcircumflex" unicode="&#x11c;" horiz-adv-x="746" 
d="M343 -12q-128 0 -210.5 86.5t-82.5 234.5q0 156 86 243t231 87q125 0 204 -58t95 -147l-143 -24q-12 55 -53 83t-99 28q-81 0 -129.5 -52.5t-48.5 -159.5q0 -103 52 -156.5t138 -53.5q97 0 155 53v84h-204v102h337v-338h-84l-26 128q-48 -140 -218 -140zM281 696h-67
l114 143h93l114 -143h-67l-94 58z" />
    <glyph glyph-name="gcircumflex" unicode="&#x11d;" horiz-adv-x="576" 
d="M277 486q66 0 120 -22q7 53 39 76.5t76 23.5q32 0 54 -4l-5 -100q-18 4 -60 4q-39 0 -75 -14q73 -44 73 -123q0 -78 -60 -116t-158 -38q-43 0 -85 9q-31 -12 -31 -37q0 -39 99 -39h96q89 0 139.5 -33t50.5 -95q0 -81 -72.5 -121t-198.5 -40q-117 0 -187.5 25.5
t-70.5 75.5q0 39 38.5 61.5t106.5 25.5q-54 5 -85.5 30t-31.5 65q0 38 31 62.5t78 30.5q-46 16 -73 50.5t-27 84.5q0 77 63 117.5t156 40.5zM282 -127q65 0 104 18t39 51q0 50 -100 50h-85q-49 0 -72.5 -17.5t-23.5 -40.5q0 -61 138 -61zM280 250q41 0 68 22t27 57
q0 36 -27 58t-68 22q-42 0 -68 -21.5t-26 -58.5q0 -36 26 -57.5t68 -21.5zM208 555h-67l94 133h93l94 -133h-67l-74 55z" />
    <glyph glyph-name="Gbreve" unicode="&#x11e;" horiz-adv-x="746" 
d="M343 -12q-128 0 -210.5 86.5t-82.5 234.5q0 156 86 243t231 87q125 0 204 -58t95 -147l-143 -24q-12 55 -53 83t-99 28q-81 0 -129.5 -52.5t-48.5 -159.5q0 -103 52 -156.5t138 -53.5q97 0 155 53v84h-204v102h337v-338h-84l-26 128q-48 -140 -218 -140zM446 832h63
q0 -69 -38 -108t-98 -39q-59 0 -96 39t-37 108h64q0 -29 20 -48.5t50 -19.5q31 0 51.5 19.5t20.5 48.5z" />
    <glyph glyph-name="gbreve" unicode="&#x11f;" horiz-adv-x="576" 
d="M277 486q66 0 120 -22q7 53 39 76.5t76 23.5q32 0 54 -4l-5 -100q-18 4 -60 4q-39 0 -75 -14q73 -44 73 -123q0 -78 -60 -116t-158 -38q-43 0 -85 9q-31 -12 -31 -37q0 -39 99 -39h96q89 0 139.5 -33t50.5 -95q0 -81 -72.5 -121t-198.5 -40q-117 0 -187.5 25.5
t-70.5 75.5q0 39 38.5 61.5t106.5 25.5q-54 5 -85.5 30t-31.5 65q0 38 31 62.5t78 30.5q-46 16 -73 50.5t-27 84.5q0 77 63 117.5t156 40.5zM282 -127q65 0 104 18t39 51q0 50 -100 50h-85q-49 0 -72.5 -17.5t-23.5 -40.5q0 -61 138 -61zM280 250q41 0 68 22t27 57
q0 36 -27 58t-68 22q-42 0 -68 -21.5t-26 -58.5q0 -36 26 -57.5t68 -21.5zM367 681h63q0 -69 -38 -108t-98 -39q-59 0 -96 39t-37 108h64q0 -29 20 -48.5t50 -19.5q31 0 51.5 19.5t20.5 48.5z" />
    <glyph glyph-name="Gdotaccent" unicode="&#x120;" horiz-adv-x="746" 
d="M343 -12q-128 0 -210.5 86.5t-82.5 234.5q0 156 86 243t231 87q125 0 204 -58t95 -147l-143 -24q-12 55 -53 83t-99 28q-81 0 -129.5 -52.5t-48.5 -159.5q0 -103 52 -156.5t138 -53.5q97 0 155 53v84h-204v102h337v-338h-84l-26 128q-48 -140 -218 -140zM440 709h-141
v107h141v-107z" />
    <glyph glyph-name="gdotaccent" unicode="&#x121;" horiz-adv-x="576" 
d="M277 486q66 0 120 -22q7 53 39 76.5t76 23.5q32 0 54 -4l-5 -100q-18 4 -60 4q-39 0 -75 -14q73 -44 73 -123q0 -78 -60 -116t-158 -38q-43 0 -85 9q-31 -12 -31 -37q0 -39 99 -39h96q89 0 139.5 -33t50.5 -95q0 -81 -72.5 -121t-198.5 -40q-117 0 -187.5 25.5
t-70.5 75.5q0 39 38.5 61.5t106.5 25.5q-54 5 -85.5 30t-31.5 65q0 38 31 62.5t78 30.5q-46 16 -73 50.5t-27 84.5q0 77 63 117.5t156 40.5zM282 -127q65 0 104 18t39 51q0 50 -100 50h-85q-49 0 -72.5 -17.5t-23.5 -40.5q0 -61 138 -61zM280 250q41 0 68 22t27 57
q0 36 -27 58t-68 22q-42 0 -68 -21.5t-26 -58.5q0 -36 26 -57.5t68 -21.5zM361 550h-141v107h141v-107z" />
    <glyph glyph-name="Gcommaaccent" unicode="&#x122;" horiz-adv-x="746" 
d="M343 -12q-128 0 -210.5 86.5t-82.5 234.5q0 156 86 243t231 87q125 0 204 -58t95 -147l-143 -24q-12 55 -53 83t-99 28q-81 0 -129.5 -52.5t-48.5 -159.5q0 -103 52 -156.5t138 -53.5q97 0 155 53v84h-204v102h337v-338h-84l-26 128q-48 -140 -218 -140zM411 -55v-94
q0 -69 -27 -101.5t-100 -32.5v54q35 1 48 18t13 52v4h-60v100h126z" />
    <glyph glyph-name="gcommaaccent" unicode="&#x123;" horiz-adv-x="576" 
d="M277 486q66 0 120 -22q7 53 39 76.5t76 23.5q32 0 54 -4l-5 -100q-18 4 -60 4q-39 0 -75 -14q73 -44 73 -123q0 -78 -60 -116t-158 -38q-43 0 -85 9q-31 -12 -31 -37q0 -39 99 -39h96q89 0 139.5 -33t50.5 -95q0 -81 -72.5 -121t-198.5 -40q-117 0 -187.5 25.5
t-70.5 75.5q0 39 38.5 61.5t106.5 25.5q-54 5 -85.5 30t-31.5 65q0 38 31 62.5t78 30.5q-46 16 -73 50.5t-27 84.5q0 77 63 117.5t156 40.5zM282 -127q65 0 104 18t39 51q0 50 -100 50h-85q-49 0 -72.5 -17.5t-23.5 -40.5q0 -61 138 -61zM280 250q41 0 68 22t27 57
q0 36 -27 58t-68 22q-42 0 -68 -21.5t-26 -58.5q0 -36 26 -57.5t68 -21.5zM224 546v94q0 69 27 101.5t100 32.5v-54q-35 -1 -48 -18t-13 -52v-4h60v-100h-126z" />
    <glyph glyph-name="Hcircumflex" unicode="&#x124;" horiz-adv-x="711" 
d="M631 0h-138v261h-275v-261h-138v627h138v-251h275v251h138v-627zM262 696h-67l114 143h93l114 -143h-67l-94 58z" />
    <glyph glyph-name="hcircumflex" unicode="&#x125;" horiz-adv-x="591" 
d="M205 0h-133v669h49q53 0 84 9v-300q16 50 54.5 79t96.5 29q76 0 123.5 -48.5t47.5 -137.5v-300h-133v284q0 106 -90 106q-31 0 -57.5 -18.5t-41.5 -52.5v-319zM46 738h-67l114 143h93l114 -143h-67l-94 58z" />
    <glyph glyph-name="Hbar" unicode="&#x126;" horiz-adv-x="783" 
d="M46 428v90h70v109h138v-114h275v114h138v-109h70v-90h-70v-428h-138v221h-275v-221h-138v428h-70zM254 336h275v97h-275v-97z" />
    <glyph glyph-name="hbar" unicode="&#x127;" horiz-adv-x="596" 
d="M15 530v64h60v75h49q54 0 84 9v-84h113v-64h-113v-152q16 50 54.5 79t96.5 29q76 0 123.5 -48.5t47.5 -137.5v-300h-133v284q0 106 -90 106q-31 0 -57.5 -18.5t-41.5 -52.5v-319h-133v530h-60z" />
    <glyph glyph-name="Itilde" unicode="&#x128;" horiz-adv-x="298" 
d="M218 0h-138v627h138v-627zM61 696h-58q0 61 23 96t66 35q26 0 59.5 -23t52.5 -23q14 0 23.5 11t9.5 32h57q0 -61 -23 -95.5t-66 -34.5q-26 0 -59 23t-52 23q-33 0 -33 -44z" />
    <glyph glyph-name="itilde" unicode="&#x129;" horiz-adv-x="277" 
d="M205 0h-133v476h133v-476zM50 545h-58q0 61 23 96t66 35q26 0 59.5 -23t52.5 -23q14 0 23.5 11t9.5 32h57q0 -61 -23 -95.5t-66 -34.5q-26 0 -59 23t-52 23q-33 0 -33 -44z" />
    <glyph glyph-name="Imacron" unicode="&#x12a;" horiz-adv-x="298" 
d="M218 0h-138v627h138v-627zM272 717h-246v74h246v-74z" />
    <glyph glyph-name="imacron" unicode="&#x12b;" horiz-adv-x="277" 
d="M205 0h-133v476h133v-476zM261 566h-246v74h246v-74z" />
    <glyph glyph-name="Ibreve" unicode="&#x12c;" horiz-adv-x="298" 
d="M218 0h-138v627h138v-627zM221 832h63q0 -69 -38 -108t-98 -39q-59 0 -96 39t-37 108h64q0 -29 20 -48.5t50 -19.5q31 0 51.5 19.5t20.5 48.5z" />
    <glyph glyph-name="ibreve" unicode="&#x12d;" horiz-adv-x="277" 
d="M205 0h-133v476h133v-476zM210 681h63q0 -69 -38 -108t-98 -39q-59 0 -96 39t-37 108h64q0 -29 20 -48.5t50 -19.5q31 0 51.5 19.5t20.5 48.5z" />
    <glyph glyph-name="Iogonek" unicode="&#x12e;" horiz-adv-x="298" 
d="M220 -117l41 -42q-41 -48 -107 -48q-39 0 -65.5 22.5t-26.5 59.5q0 72 92 125h-74v627h138v-627q-87 -52 -87 -105q0 -17 11.5 -27t27.5 -10q31 0 50 25z" />
    <glyph glyph-name="iogonek" unicode="&#x12f;" horiz-adv-x="277" 
d="M207 -117l41 -42q-41 -48 -107 -48q-39 0 -65.5 22.5t-26.5 59.5q0 72 92 125h-69v476h133v-476q-87 -52 -87 -105q0 -17 11.5 -27t27.5 -10q31 0 50 25zM208 566h-139v103h139v-103z" />
    <glyph glyph-name="Idotaccent" unicode="&#x130;" horiz-adv-x="298" 
d="M218 0h-138v627h138v-627zM215 709h-141v107h141v-107z" />
    <glyph glyph-name="dotlessi" unicode="&#x131;" horiz-adv-x="277" 
d="M205 0h-133v476h133v-476z" />
    <glyph glyph-name="IJ" unicode="&#x132;" horiz-adv-x="680" 
d="M214 370h-138v257h138v-257zM340 -10q-126 0 -195.5 65.5t-69.5 185.5h144q0 -137 122 -137q59 0 92.5 42.5t33.5 116.5v364h138v-364q0 -131 -67.5 -202t-197.5 -71z" />
    <glyph glyph-name="ij" unicode="&#x133;" horiz-adv-x="554" 
d="M205 0h-133v476h133v-476zM208 566h-139v103h139v-103zM313 -183q-51 0 -94 17l22 91q21 -8 47 -8q32 0 46.5 19.5t14.5 75.5v464h133v-480q0 -96 -42 -137.5t-127 -41.5zM485 566h-139v103h139v-103z" />
    <glyph glyph-name="Jcircumflex" unicode="&#x134;" horiz-adv-x="617" 
d="M287 -12q-121 0 -186.5 62.5t-65.5 160.5q0 55 15 96l137 -20q-11 -31 -11 -68q0 -51 28 -83t84 -32q58 0 87 42t29 117v364h138v-364q0 -134 -63.5 -204.5t-191.5 -70.5zM380 696h-67l114 143h93l114 -143h-67l-94 58z" />
    <glyph glyph-name="jcircumflex" unicode="&#x135;" horiz-adv-x="277" 
d="M36 -183q-51 0 -94 17l22 91q21 -8 47 -8q32 0 46.5 19.5t14.5 75.5v464h133v-480q0 -96 -42 -137.5t-127 -41.5zM47 545h-67l114 143h93l114 -143h-67l-94 58z" />
    <glyph glyph-name="Kcommaaccent" unicode="&#x136;" horiz-adv-x="679" 
d="M659 0h-170l-172 269l-99 -108v-161h-138v627h138v-297l260 297h170l-224 -257zM410 -55v-94q0 -69 -27 -101.5t-100 -32.5v54q35 1 48 18t13 52v4h-60v100h126z" />
    <glyph glyph-name="kcommaaccent" unicode="&#x137;" horiz-adv-x="553" 
d="M72 669h49q51 0 84 9v-413l179 211h144l-160 -184l160 -292h-150l-109 203l-64 -70v-133h-133v669zM347 -55v-94q0 -69 -27 -101.5t-100 -32.5v54q35 1 48 18t13 52v4h-60v100h126z" />
    <glyph glyph-name="kgreenlandic" unicode="&#x138;" horiz-adv-x="553" 
d="M205 0h-133v476h133v-211l179 211h144l-160 -184l160 -292h-150l-109 203l-64 -70v-133z" />
    <glyph glyph-name="Lacute" unicode="&#x139;" horiz-adv-x="543" 
d="M521 0h-441v627h138v-509h303v-118zM149 696h-64l62 143h153z" />
    <glyph glyph-name="lacute" unicode="&#x13a;" horiz-adv-x="283" 
d="M72 669h49q50 0 84 9v-678h-133v669zM139 738h-64l62 143h153z" />
    <glyph glyph-name="Lcommaaccent" unicode="&#x13b;" horiz-adv-x="543" 
d="M521 0h-441v627h138v-509h303v-118zM362 -55v-94q0 -69 -27 -101.5t-100 -32.5v54q35 1 48 18t13 52v4h-60v100h126z" />
    <glyph glyph-name="lcommaaccent" unicode="&#x13c;" horiz-adv-x="277" 
d="M72 669h49q50 0 84 9v-678h-133v669zM201 -55v-94q0 -69 -27 -101.5t-100 -32.5v54q35 1 48 18t13 52v4h-60v100h126z" />
    <glyph glyph-name="Lcaron" unicode="&#x13d;" horiz-adv-x="543" 
d="M521 0h-441v627h138v-509h303v-118zM310 432l30 195h126l-110 -195h-46z" />
    <glyph glyph-name="lcaron" unicode="&#x13e;" horiz-adv-x="277" 
d="M72 669h49q50 0 84 9v-678h-133v669zM265 474l30 195h126l-110 -195h-46z" />
    <glyph glyph-name="Ldot" unicode="&#x13f;" horiz-adv-x="543" 
d="M521 0h-441v627h138v-509h303v-118zM449 266h-141v107h141v-107z" />
    <glyph glyph-name="ldot" unicode="&#x140;" horiz-adv-x="459" 
d="M75 669h49q50 0 84 9v-678h-133v669zM439 196h-136v136h136v-136z" />
    <glyph glyph-name="Lslash" unicode="&#x141;" horiz-adv-x="579" 
d="M46 159v107l70 46v315h138v-223l101 68v-107l-101 -68v-179h303v-118h-441v205z" />
    <glyph glyph-name="lslash" unicode="&#x142;" horiz-adv-x="364" 
d="M115 669h49q57 0 84 9v-277l81 55v-85l-81 -55v-316h-133v225l-80 -54v85l80 54v359z" />
    <glyph glyph-name="Nacute" unicode="&#x143;" horiz-adv-x="735" 
d="M655 0h-176l-261 461v-461h-138v627h180l257 -450v450h138v-627zM367 696h-64l62 143h153z" />
    <glyph glyph-name="nacute" unicode="&#x144;" horiz-adv-x="591" 
d="M527 0h-133v278q0 112 -88 112q-68 0 -101 -71v-319h-133v476h93l22 -128q34 138 164 138q80 0 128 -47t48 -145v-294zM311 546h-64l62 143h153z" />
    <glyph glyph-name="Ncommaaccent" unicode="&#x145;" horiz-adv-x="735" 
d="M655 0h-176l-261 461v-461h-138v627h180l257 -450v450h138v-627zM428 -55v-94q0 -69 -27 -101.5t-100 -32.5v54q35 1 48 18t13 52v4h-60v100h126z" />
    <glyph glyph-name="ncommaaccent" unicode="&#x146;" horiz-adv-x="591" 
d="M527 0h-133v278q0 112 -88 112q-68 0 -101 -71v-319h-133v476h93l22 -128q34 138 164 138q80 0 128 -47t48 -145v-294zM361 -55v-94q0 -69 -27 -101.5t-100 -32.5v54q35 1 48 18t13 52v4h-60v100h126z" />
    <glyph glyph-name="Ncaron" unicode="&#x147;" horiz-adv-x="735" 
d="M655 0h-176l-261 461v-461h-138v627h180l257 -450v450h138v-627zM207 834h67l93 -58l94 58h67l-114 -143h-93z" />
    <glyph glyph-name="ncaron" unicode="&#x148;" horiz-adv-x="591" 
d="M527 0h-133v278q0 112 -88 112q-68 0 -101 -71v-319h-133v476h93l22 -128q34 138 164 138q80 0 128 -47t48 -145v-294zM151 684h67l93 -58l94 58h67l-114 -143h-93z" />
    <glyph glyph-name="napostrophe" unicode="&#x149;" horiz-adv-x="846" 
d="M782 0h-133v278q0 112 -88 112q-68 0 -101 -71v-319h-133v476h93l22 -128q34 138 164 138q80 0 128 -47t48 -145v-294zM219 670v-120q0 -84 -32.5 -125.5t-106.5 -41.5v58q36 1 50.5 21.5t14.5 67.5v15h-62v125h136z" />
    <glyph glyph-name="Eng" unicode="&#x14a;" horiz-adv-x="735" 
d="M486 -183q-51 0 -94 17l24 94q25 -8 45 -8q31 0 47 14t18 53l-308 479v-466h-138v627h188l249 -404v404h138v-631q0 -96 -42 -137.5t-127 -41.5z" />
    <glyph glyph-name="eng" unicode="&#x14b;" horiz-adv-x="591" 
d="M527 -4q0 -96 -42 -137.5t-127 -41.5q-51 0 -94 17l22 91q25 -8 47 -8q32 0 46.5 19.5t14.5 75.5v266q0 112 -88 112q-70 0 -101 -71v-319h-133v476h93l22 -128q34 138 164 138q80 0 128 -47t48 -145v-298z" />
    <glyph glyph-name="Omacron" unicode="&#x14c;" horiz-adv-x="745" 
d="M371 -12q-140 0 -230.5 84.5t-90.5 242.5q0 157 90 240.5t231 83.5q139 0 231.5 -84t92.5 -241t-92.5 -241.5t-231.5 -84.5zM372 106q82 0 130 53.5t48 156.5q0 101 -47.5 153t-130.5 52t-131 -52.5t-48 -154.5q0 -101 48.5 -154.5t130.5 -53.5zM494 717h-246v74h246v-74
z" />
    <glyph glyph-name="omacron" unicode="&#x14d;" horiz-adv-x="588" 
d="M294 -10q-108 0 -177 61t-69 187t69 187t177 61t177 -61t69 -187t-69 -187t-177 -61zM294 84q53 0 82.5 41t29.5 113t-29.5 113t-82.5 41t-82.5 -41t-29.5 -113t29.5 -113t82.5 -41zM417 566h-246v74h246v-74z" />
    <glyph glyph-name="Obreve" unicode="&#x14e;" horiz-adv-x="745" 
d="M371 -12q-140 0 -230.5 84.5t-90.5 242.5q0 157 90 240.5t231 83.5q139 0 231.5 -84t92.5 -241t-92.5 -241.5t-231.5 -84.5zM372 106q82 0 130 53.5t48 156.5q0 101 -47.5 153t-130.5 52t-131 -52.5t-48 -154.5q0 -101 48.5 -154.5t130.5 -53.5zM443 832h63
q0 -69 -38 -108t-98 -39q-59 0 -96 39t-37 108h64q0 -29 20 -48.5t50 -19.5q31 0 51.5 19.5t20.5 48.5z" />
    <glyph glyph-name="obreve" unicode="&#x14f;" horiz-adv-x="588" 
d="M294 -10q-108 0 -177 61t-69 187t69 187t177 61t177 -61t69 -187t-69 -187t-177 -61zM294 84q53 0 82.5 41t29.5 113t-29.5 113t-82.5 41t-82.5 -41t-29.5 -113t29.5 -113t82.5 -41zM366 681h63q0 -69 -38 -108t-98 -39q-59 0 -96 39t-37 108h64q0 -29 20 -48.5t50 -19.5
q31 0 51.5 19.5t20.5 48.5z" />
    <glyph glyph-name="Ohungarumlaut" unicode="&#x150;" horiz-adv-x="745" 
d="M371 -12q-140 0 -230.5 84.5t-90.5 242.5q0 157 90 240.5t231 83.5q139 0 231.5 -84t92.5 -241t-92.5 -241.5t-231.5 -84.5zM372 106q82 0 130 53.5t48 156.5q0 101 -47.5 153t-130.5 52t-131 -52.5t-48 -154.5q0 -101 48.5 -154.5t130.5 -53.5zM278 696h-51l60 149h152z
M458 696h-51l60 149h152z" />
    <glyph glyph-name="ohungarumlaut" unicode="&#x151;" horiz-adv-x="588" 
d="M294 -10q-108 0 -177 61t-69 187t69 187t177 61t177 -61t69 -187t-69 -187t-177 -61zM294 84q53 0 82.5 41t29.5 113t-29.5 113t-82.5 41t-82.5 -41t-29.5 -113t29.5 -113t82.5 -41zM201 545h-51l60 149h152zM381 545h-51l60 149h152z" />
    <glyph glyph-name="OE" unicode="&#x152;" horiz-adv-x="1085" 
d="M1030 0h-480v42q-74 -54 -179 -54q-140 0 -230.5 84.5t-90.5 242.5q0 157 90 240.5t231 83.5q106 0 179 -55v43h467v-115h-329v-136h283v-115h-283v-146h342v-115zM372 106q80 0 129 53t49 150v13q0 96 -49 147.5t-129 51.5q-83 0 -131 -52.5t-48 -154.5
q0 -101 48.5 -154.5t130.5 -53.5z" />
    <glyph glyph-name="oe" unicode="&#x153;" horiz-adv-x="926" 
d="M653 -10q-126 0 -183 95q-61 -95 -186 -95q-104 0 -170 63.5t-66 184.5t66 184.5t170 63.5q57 0 107.5 -25t80.5 -74q59 99 186 99q102 0 161 -61.5t59 -155.5q0 -33 -3 -55h-337q13 -130 115 -130q38 0 64.5 23.5t31.5 59.5l121 -22q-11 -71 -68 -113t-149 -42zM294 84
q53 0 82.5 41t29.5 113t-29.5 113t-82.5 41t-82.5 -41t-29.5 -113t29.5 -113t82.5 -41zM646 394q-40 0 -69.5 -28.5t-37.5 -78.5h207q0 45 -24.5 76t-75.5 31z" />
    <glyph glyph-name="Racute" unicode="&#x154;" horiz-adv-x="674" 
d="M218 0h-138v627h270q119 0 188.5 -42.5t69.5 -130.5q0 -151 -182 -165q61 -1 97.5 -22.5t49.5 -56t18.5 -70.5t15 -76.5t27.5 -63.5h-151q-16 17 -24 50t-12.5 64t-13.5 60.5t-34.5 48t-69.5 18.5h-111v-241zM351 351q55 0 85.5 22.5t30.5 66.5q0 43 -30.5 59t-88.5 16
h-130v-164h133zM335 696h-64l62 143h153z" />
    <glyph glyph-name="racute" unicode="&#x155;" horiz-adv-x="396" 
d="M205 0h-133v476h93l24 -135q26 145 134 145q32 0 53 -7l-8 -117q-25 7 -54 7q-81 0 -109 -57v-312zM225 545h-64l62 143h153z" />
    <glyph glyph-name="Rcommaaccent" unicode="&#x156;" horiz-adv-x="674" 
d="M218 0h-138v627h270q119 0 188.5 -42.5t69.5 -130.5q0 -151 -182 -165q61 -1 97.5 -22.5t49.5 -56t18.5 -70.5t15 -76.5t27.5 -63.5h-151q-16 17 -24 50t-12.5 64t-13.5 60.5t-34.5 48t-69.5 18.5h-111v-241zM351 351q55 0 85.5 22.5t30.5 66.5q0 43 -30.5 59t-88.5 16
h-130v-164h133zM405 -55v-94q0 -69 -27 -101.5t-100 -32.5v54q35 1 48 18t13 52v4h-60v100h126z" />
    <glyph glyph-name="rcommaaccent" unicode="&#x157;" horiz-adv-x="396" 
d="M205 0h-133v476h93l24 -135q26 145 134 145q32 0 53 -7l-8 -117q-25 7 -54 7q-81 0 -109 -57v-312zM200 -55v-94q0 -69 -27 -101.5t-100 -32.5v54q35 1 48 18t13 52v4h-60v100h126z" />
    <glyph glyph-name="Rcaron" unicode="&#x158;" horiz-adv-x="674" 
d="M218 0h-138v627h270q119 0 188.5 -42.5t69.5 -130.5q0 -151 -182 -165q61 -1 97.5 -22.5t49.5 -56t18.5 -70.5t15 -76.5t27.5 -63.5h-151q-16 17 -24 50t-12.5 64t-13.5 60.5t-34.5 48t-69.5 18.5h-111v-241zM351 351q55 0 85.5 22.5t30.5 66.5q0 43 -30.5 59t-88.5 16
h-130v-164h133zM175 834h67l93 -58l94 58h67l-114 -143h-93z" />
    <glyph glyph-name="rcaron" unicode="&#x159;" horiz-adv-x="396" 
d="M205 0h-133v476h93l24 -135q26 145 134 145q32 0 53 -7l-8 -117q-25 7 -54 7q-81 0 -109 -57v-312zM65 683h67l93 -58l94 58h67l-114 -143h-93z" />
    <glyph glyph-name="Sacute" unicode="&#x15a;" horiz-adv-x="658" 
d="M341 -12q-127 0 -204 55t-92 150l143 24q20 -115 167 -115q56 0 84.5 20t28.5 52q0 34 -31.5 50.5t-123.5 36.5l-24 5q-105 22 -160.5 62t-55.5 124q0 86 65 136.5t185 50.5q110 0 179.5 -48t88.5 -139l-144 -20q-6 45 -41.5 70t-86.5 25q-48 0 -76.5 -17.5t-28.5 -49.5
q0 -34 32 -49t127 -36l19 -4q112 -24 165 -64t53 -121q0 -92 -67 -145t-202 -53zM329 696h-64l62 143h153z" />
    <glyph glyph-name="sacute" unicode="&#x15b;" horiz-adv-x="524" 
d="M276 -10q-104 0 -169 43.5t-72 110.5l117 23q7 -40 41.5 -62t85.5 -22q39 0 59.5 13t20.5 34q0 22 -25.5 34t-88.5 24l-15 3q-80 14 -126.5 47t-46.5 101q0 66 51.5 106.5t153.5 40.5q84 0 139.5 -35t69.5 -94l-112 -28q-9 32 -36 48.5t-64 16.5t-57.5 -13t-20.5 -32
q0 -24 27 -36.5t88 -23.5l23 -4q165 -29 165 -142q0 -72 -56 -112.5t-152 -40.5zM260 545h-64l62 143h153z" />
    <glyph glyph-name="Scircumflex" unicode="&#x15c;" horiz-adv-x="658" 
d="M341 -12q-127 0 -204 55t-92 150l143 24q20 -115 167 -115q56 0 84.5 20t28.5 52q0 34 -31.5 50.5t-123.5 36.5l-24 5q-105 22 -160.5 62t-55.5 124q0 86 65 136.5t185 50.5q110 0 179.5 -48t88.5 -139l-144 -20q-6 45 -41.5 70t-86.5 25q-48 0 -76.5 -17.5t-28.5 -49.5
q0 -34 32 -49t127 -36l19 -4q112 -24 165 -64t53 -121q0 -92 -67 -145t-202 -53zM236 696h-67l114 143h93l114 -143h-67l-94 58z" />
    <glyph glyph-name="scircumflex" unicode="&#x15d;" horiz-adv-x="524" 
d="M276 -10q-104 0 -169 43.5t-72 110.5l117 23q7 -40 41.5 -62t85.5 -22q39 0 59.5 13t20.5 34q0 22 -25.5 34t-88.5 24l-15 3q-80 14 -126.5 47t-46.5 101q0 66 51.5 106.5t153.5 40.5q84 0 139.5 -35t69.5 -94l-112 -28q-9 32 -36 48.5t-64 16.5t-57.5 -13t-20.5 -32
q0 -24 27 -36.5t88 -23.5l23 -4q165 -29 165 -142q0 -72 -56 -112.5t-152 -40.5zM167 545h-67l114 143h93l114 -143h-67l-94 58z" />
    <glyph glyph-name="Scedilla" unicode="&#x15e;" horiz-adv-x="658" 
d="M210 -161l38 39q9 -15 28.5 -23.5t36.5 -8.5q22 0 35 10.5t13 27.5q0 32 -41 32q-19 0 -34 -13l-38 23l41 65q-104 10 -167 63.5t-77 138.5l143 24q20 -115 167 -115q56 0 84.5 20t28.5 52q0 34 -31.5 50.5t-123.5 36.5l-24 5q-105 22 -160.5 62t-55.5 124q0 86 65 136.5
t185 50.5q110 0 179.5 -48t88.5 -139l-144 -20q-6 45 -41.5 70t-86.5 25q-48 0 -76.5 -17.5t-28.5 -49.5q0 -34 32 -49t127 -36l19 -4q112 -24 165 -64t53 -121q0 -92 -67 -145t-202 -53h-9l-24 -40q14 7 39 7q35 0 58 -20.5t23 -55.5q0 -39 -30 -62.5t-75 -23.5
q-38 0 -68.5 13.5t-44.5 32.5z" />
    <glyph glyph-name="scedilla" unicode="&#x15f;" horiz-adv-x="524" 
d="M154 -161l38 39q9 -15 28.5 -23.5t36.5 -8.5q22 0 35 10.5t13 27.5q0 32 -41 32q-19 0 -34 -13l-38 23l42 66q-87 9 -140 50.5t-59 101.5l117 23q7 -40 41.5 -62t85.5 -22q39 0 59.5 13t20.5 34q0 22 -25.5 34t-88.5 24l-15 3q-80 14 -126.5 47t-46.5 101
q0 66 51.5 106.5t153.5 40.5q84 0 139.5 -35t69.5 -94l-112 -28q-9 32 -36 48.5t-64 16.5t-57.5 -13t-20.5 -32q0 -24 27 -36.5t88 -23.5l23 -4q165 -29 165 -142q0 -71 -55.5 -111.5t-150.5 -41.5l-26 -42q14 7 39 7q35 0 58 -20.5t23 -55.5q0 -39 -30 -62.5t-75 -23.5
q-38 0 -68.5 13.5t-44.5 32.5z" />
    <glyph glyph-name="Scaron" unicode="&#x160;" horiz-adv-x="658" 
d="M341 -12q-127 0 -204 55t-92 150l143 24q20 -115 167 -115q56 0 84.5 20t28.5 52q0 34 -31.5 50.5t-123.5 36.5l-24 5q-105 22 -160.5 62t-55.5 124q0 86 65 136.5t185 50.5q110 0 179.5 -48t88.5 -139l-144 -20q-6 45 -41.5 70t-86.5 25q-48 0 -76.5 -17.5t-28.5 -49.5
q0 -34 32 -49t127 -36l19 -4q112 -24 165 -64t53 -121q0 -92 -67 -145t-202 -53zM169 834h67l93 -58l94 58h67l-114 -143h-93z" />
    <glyph glyph-name="scaron" unicode="&#x161;" horiz-adv-x="524" 
d="M276 -10q-104 0 -169 43.5t-72 110.5l117 23q7 -40 41.5 -62t85.5 -22q39 0 59.5 13t20.5 34q0 22 -25.5 34t-88.5 24l-15 3q-80 14 -126.5 47t-46.5 101q0 66 51.5 106.5t153.5 40.5q84 0 139.5 -35t69.5 -94l-112 -28q-9 32 -36 48.5t-64 16.5t-57.5 -13t-20.5 -32
q0 -24 27 -36.5t88 -23.5l23 -4q165 -29 165 -142q0 -72 -56 -112.5t-152 -40.5zM100 683h67l93 -58l94 58h67l-114 -143h-93z" />
    <glyph glyph-name="Tcommaaccent" unicode="&#x162;" horiz-adv-x="579" 
d="M358 0h-138v512h-195v115h529v-115h-196v-512zM350 -55v-94q0 -69 -27 -101.5t-100 -32.5v54q35 1 48 18t13 52v4h-60v100h126z" />
    <glyph glyph-name="tcommaaccent" unicode="&#x163;" horiz-adv-x="382" 
d="M249 -10q-149 0 -149 158v233h-80v95h52q36 0 36 37v19l123 137v-193h113v-95h-112v-216q0 -41 13 -57.5t40 -16.5q26 0 45 9l22 -88q-34 -22 -103 -22zM285 -55v-94q0 -69 -27 -101.5t-100 -32.5v54q35 1 48 18t13 52v4h-60v100h126z" />
    <glyph glyph-name="Tcaron" unicode="&#x164;" horiz-adv-x="579" 
d="M358 0h-138v512h-195v115h529v-115h-196v-512zM129 834h67l93 -58l94 58h67l-114 -143h-93z" />
    <glyph glyph-name="tcaron" unicode="&#x165;" horiz-adv-x="374" 
d="M249 -10q-149 0 -149 158v233h-80v95h52q36 0 36 37v19l123 137v-193h113v-95h-112v-216q0 -41 13 -57.5t40 -16.5q26 0 45 9l22 -88q-34 -22 -103 -22zM296 557l30 195h126l-110 -195h-46z" />
    <glyph glyph-name="Tbar" unicode="&#x166;" horiz-adv-x="579" 
d="M130 240v90h90v182h-195v115h529v-115h-196v-182h90v-90h-90v-240h-138v240h-90z" />
    <glyph glyph-name="tbar" unicode="&#x167;" horiz-adv-x="382" 
d="M30 234v70h70v77h-80v95h52q36 0 36 37v19l123 137v-193h113v-95h-112v-77h92v-70h-92v-69q0 -41 13 -57.5t40 -16.5q26 0 45 9l22 -88q-34 -22 -103 -22q-149 0 -149 158v86h-70z" />
    <glyph glyph-name="Utilde" unicode="&#x168;" horiz-adv-x="708" 
d="M355 -12q-141 0 -210.5 74.5t-69.5 213.5v351h138v-356q0 -165 141 -165q73 0 106 39.5t33 129.5v352h140v-348q0 -140 -69 -215.5t-209 -75.5zM268 696h-58q0 61 23 96t66 35q26 0 59.5 -23t52.5 -23q14 0 23.5 11t9.5 32h57q0 -61 -23 -95.5t-66 -34.5q-26 0 -59 23
t-52 23q-33 0 -33 -44z" />
    <glyph glyph-name="utilde" unicode="&#x169;" horiz-adv-x="583" 
d="M236 -10q-79 0 -125.5 46.5t-46.5 145.5v294h133v-278q0 -114 84 -114q64 0 97 73v319h133v-476h-93l-22 128q-34 -138 -160 -138zM200 545h-58q0 61 23 96t66 35q26 0 59.5 -23t52.5 -23q14 0 23.5 11t9.5 32h57q0 -61 -23 -95.5t-66 -34.5q-26 0 -59 23t-52 23
q-33 0 -33 -44z" />
    <glyph glyph-name="Umacron" unicode="&#x16a;" horiz-adv-x="708" 
d="M355 -12q-141 0 -210.5 74.5t-69.5 213.5v351h138v-356q0 -165 141 -165q73 0 106 39.5t33 129.5v352h140v-348q0 -140 -69 -215.5t-209 -75.5zM479 717h-246v74h246v-74z" />
    <glyph glyph-name="umacron" unicode="&#x16b;" horiz-adv-x="583" 
d="M236 -10q-79 0 -125.5 46.5t-46.5 145.5v294h133v-278q0 -114 84 -114q64 0 97 73v319h133v-476h-93l-22 128q-34 -138 -160 -138zM411 566h-246v74h246v-74z" />
    <glyph glyph-name="Ubreve" unicode="&#x16c;" horiz-adv-x="708" 
d="M355 -12q-141 0 -210.5 74.5t-69.5 213.5v351h138v-356q0 -165 141 -165q73 0 106 39.5t33 129.5v352h140v-348q0 -140 -69 -215.5t-209 -75.5zM428 832h63q0 -69 -38 -108t-98 -39q-59 0 -96 39t-37 108h64q0 -29 20 -48.5t50 -19.5q31 0 51.5 19.5t20.5 48.5z" />
    <glyph glyph-name="ubreve" unicode="&#x16d;" horiz-adv-x="583" 
d="M236 -10q-79 0 -125.5 46.5t-46.5 145.5v294h133v-278q0 -114 84 -114q64 0 97 73v319h133v-476h-93l-22 128q-34 -138 -160 -138zM360 681h63q0 -69 -38 -108t-98 -39q-59 0 -96 39t-37 108h64q0 -29 20 -48.5t50 -19.5q31 0 51.5 19.5t20.5 48.5z" />
    <glyph glyph-name="Uring" unicode="&#x16e;" horiz-adv-x="708" 
d="M355 -12q-141 0 -210.5 74.5t-69.5 213.5v351h138v-356q0 -165 141 -165q73 0 106 39.5t33 129.5v352h140v-348q0 -140 -69 -215.5t-209 -75.5zM300 760q0 -24 15 -41.5t40 -17.5q24 0 38.5 17.5t14.5 41.5q0 26 -14.5 43.5t-38.5 17.5q-25 0 -40 -17.5t-15 -43.5z
M240 760q0 47 32 78t83 31q50 0 82 -31t32 -78q0 -46 -32 -76.5t-82 -30.5q-51 0 -83 30.5t-32 76.5z" />
    <glyph glyph-name="uring" unicode="&#x16f;" horiz-adv-x="583" 
d="M236 -10q-79 0 -125.5 46.5t-46.5 145.5v294h133v-278q0 -114 84 -114q64 0 97 73v319h133v-476h-93l-22 128q-34 -138 -160 -138zM232 619q0 -24 15 -41.5t40 -17.5q24 0 38.5 17.5t14.5 41.5q0 26 -14.5 43.5t-38.5 17.5q-25 0 -40 -17.5t-15 -43.5zM172 619
q0 47 32 78t83 31q50 0 82 -31t32 -78q0 -46 -32 -76.5t-82 -30.5q-51 0 -83 30.5t-32 76.5z" />
    <glyph glyph-name="Uhungarumlaut" unicode="&#x170;" horiz-adv-x="708" 
d="M355 -12q-141 0 -210.5 74.5t-69.5 213.5v351h138v-356q0 -165 141 -165q73 0 106 39.5t33 129.5v352h140v-348q0 -140 -69 -215.5t-209 -75.5zM263 696h-51l60 149h152zM443 696h-51l60 149h152z" />
    <glyph glyph-name="uhungarumlaut" unicode="&#x171;" horiz-adv-x="583" 
d="M236 -10q-79 0 -125.5 46.5t-46.5 145.5v294h133v-278q0 -114 84 -114q64 0 97 73v319h133v-476h-93l-22 128q-34 -138 -160 -138zM195 545h-51l60 149h152zM375 545h-51l60 149h152z" />
    <glyph glyph-name="Uogonek" unicode="&#x172;" horiz-adv-x="708" 
d="M423 -117l41 -41q-41 -49 -107 -49q-39 0 -65.5 22.5t-26.5 59.5q0 67 86 113q-139 1 -207.5 75.5t-68.5 212.5v351h138v-356q0 -165 141 -165q73 0 106 39.5t33 129.5v352h140v-348q0 -118 -46 -186.5t-143 -99.5q-48 -15 -79 -42t-31 -56q0 -17 11.5 -27t27.5 -10
q31 0 50 25z" />
    <glyph glyph-name="uogonek" unicode="&#x173;" horiz-adv-x="583" 
d="M513 -117l41 -42q-40 -48 -107 -48q-39 0 -65.5 22.5t-26.5 59.5q0 58 67 105l-26 148q-34 -138 -160 -138q-79 0 -125.5 46.5t-46.5 145.5v294h133v-278q0 -114 84 -114q64 0 97 73v319h133v-476q-87 -39 -87 -105q0 -17 11.5 -27t27.5 -10q31 0 50 25z" />
    <glyph glyph-name="Wcircumflex" unicode="&#x174;" horiz-adv-x="974" 
d="M769 0h-174l-108 498l-110 -498h-174l-173 627h149l115 -498l108 498h181l106 -498l109 498h146zM396 696h-67l114 143h93l114 -143h-67l-94 58z" />
    <glyph glyph-name="wcircumflex" unicode="&#x175;" horiz-adv-x="837" 
d="M344 476h150l87 -376l86 376h135l-136 -476h-164l-83 343l-83 -343h-164l-137 476h139l83 -376zM323 545h-67l114 143h93l114 -143h-67l-94 58z" />
    <glyph glyph-name="Ycircumflex" unicode="&#x176;" horiz-adv-x="635" 
d="M387 0h-138v217l-239 410h166l143 -272l148 272h158l-238 -409v-218zM225 696h-67l114 143h93l114 -143h-67l-94 58z" />
    <glyph glyph-name="ycircumflex" unicode="&#x177;" horiz-adv-x="544" 
d="M58 -166l21 94q22 -8 40 -8q55 0 70 54l12 42l-176 460h142l110 -341l103 341h139l-191 -504q-29 -76 -73 -115.5t-112 -39.5q-45 0 -85 17zM184 545h-67l114 143h93l114 -143h-67l-94 58z" />
    <glyph glyph-name="Ydieresis" unicode="&#x178;" horiz-adv-x="635" 
d="M387 0h-138v217l-239 410h166l143 -272l148 272h158l-238 -409v-218zM283 700h-117v107h117v-107zM470 700h-117v107h117v-107z" />
    <glyph glyph-name="Zacute" unicode="&#x179;" 
d="M555 0h-510v95l319 412h-310v120h495v-92l-318 -415h324v-120zM301 696h-64l62 143h153z" />
    <glyph glyph-name="zacute" unicode="&#x17a;" horiz-adv-x="511" 
d="M461 0h-411v74l240 303h-221v99h387v-72l-241 -305h246v-99zM271 545h-64l62 143h153z" />
    <glyph glyph-name="Zdotaccent" unicode="&#x17b;" 
d="M555 0h-510v95l319 412h-310v120h495v-92l-318 -415h324v-120zM367 709h-141v107h141v-107z" />
    <glyph glyph-name="zdotaccent" unicode="&#x17c;" horiz-adv-x="511" 
d="M461 0h-411v74l240 303h-221v99h387v-72l-241 -305h246v-99zM337 558h-141v107h141v-107z" />
    <glyph glyph-name="Zcaron" unicode="&#x17d;" 
d="M555 0h-510v95l319 412h-310v120h495v-92l-318 -415h324v-120zM141 834h67l93 -58l94 58h67l-114 -143h-93z" />
    <glyph glyph-name="zcaron" unicode="&#x17e;" horiz-adv-x="511" 
d="M461 0h-411v74l240 303h-221v99h387v-72l-241 -305h246v-99zM111 683h67l93 -58l94 58h67l-114 -143h-93z" />
    <glyph glyph-name="florin" unicode="&#x192;" 
d="M353 292v-150q0 -72 -45 -113t-123 -41q-47 0 -93 19l18 88q19 -9 50 -9q61 0 61 71v135h-100v94h99v98q0 72 44.5 112.5t122.5 40.5q47 0 93 -19l-18 -88q-20 9 -50 9q-61 0 -61 -71v-82h116v-94h-114z" />
    <glyph glyph-name="uni01B5" unicode="&#x1b5;" 
d="M89 267v90h158l117 150h-310v120h495v-92l-137 -178h91v-90h-160l-112 -147h324v-120h-510v95l133 172h-89z" />
    <glyph glyph-name="uni01B6" unicode="&#x1b6;" horiz-adv-x="511" 
d="M93 203v70h115l87 109h-226v94h387v-72l-105 -131h66v-70h-121l-86 -109h251v-94h-411v74l103 129h-60z" />
    <glyph glyph-name="Aringacute" unicode="&#x1fa;" horiz-adv-x="691" 
d="M251 752l99 147h151l-173 -105q5 1 19 1q50 0 82 -31t32 -78q0 -39 -22 -67l232 -619h-148l-45 132h-269l-45 -132h-144l233 621q-21 27 -21 65q0 39 19 66zM344 516l-96 -274h191zM292 686q0 -23 13.5 -40.5t36.5 -18.5h5q24 0 38.5 17.5t14.5 41.5q0 26 -14.5 43.5
t-38.5 17.5q-25 0 -40 -17.5t-15 -43.5z" />
    <glyph glyph-name="aringacute" unicode="&#x1fb;" horiz-adv-x="569" 
d="M477 -10q-50 0 -78.5 27t-28.5 80q0 8 2 30q-15 -61 -62 -99t-122 -38q-64 0 -106 29.5t-42 88.5q0 43 20.5 73.5t61 48.5t86.5 27.5t112 15.5l31 3v38q0 80 -77 80q-42 0 -66.5 -24t-24.5 -68l-119 7v9q0 81 57.5 124.5t152.5 43.5t152.5 -45.5t57.5 -131.5v-8l-6 -168
v-4q0 -46 37 -46q16 0 31 5l15 -82q-32 -16 -84 -16zM230 79q40 0 75 21.5t49 51.5v62l-28 -3q-153 -16 -153 -84q0 -23 15.5 -35.5t41.5 -12.5zM218 619q0 -24 15 -41.5t40 -17.5q24 0 38.5 17.5t14.5 41.5q0 26 -14.5 43.5t-38.5 17.5q-25 0 -40 -17.5t-15 -43.5zM177 685
l99 147h151l-173 -105q5 1 19 1q50 0 82 -31t32 -78q0 -46 -32 -76.5t-82 -30.5q-51 0 -83 30.5t-32 76.5q0 39 19 66z" />
    <glyph glyph-name="AEacute" unicode="&#x1fc;" horiz-adv-x="981" 
d="M521 0l-45 132h-265l-45 -132h-146l236 627h466l42 -115h-285l51 -136h237l41 -115h-235l55 -146h292l41 -115h-440zM344 517l-94 -275h187zM490 696h-64l62 143h153z" />
    <glyph glyph-name="aeacute" unicode="&#x1fd;" horiz-adv-x="871" 
d="M598 -10q-164 0 -219 123q-11 -53 -67.5 -88t-121.5 -35t-107.5 29.5t-42.5 88.5q0 43 20.5 73.5t61 48.5t86.5 27.5t112 15.5l31 3v36q0 80 -77 80q-42 0 -66 -23t-25 -66v-3l-119 7v9q0 81 57.5 125.5t152.5 44.5q49 0 91 -20t65 -61q54 81 163 81q104 0 167 -62
t63 -160q0 -28 -3 -50h-339q12 -130 117 -130q38 0 64.5 23.5t31.5 59.5l121 -22q-11 -71 -68 -113t-149 -42zM591 394q-41 0 -71 -28.5t-38 -78.5h213q0 45 -26 76t-78 31zM232 82q43 0 78 20t54 47q-8 25 -11 65l-27 -3q-151 -16 -151 -82q0 -47 57 -47zM430 545h-64
l62 143h153z" />
    <glyph glyph-name="Oslashacute" unicode="&#x1fe;" horiz-adv-x="745" 
d="M371 -12q-77 0 -141 26l-43 -64h-107l72 111q-102 87 -102 254q0 157 90 240.5t231 83.5q75 0 141 -26l42 64h107l-72 -111q106 -86 106 -252q0 -157 -92.5 -241.5t-231.5 -84.5zM372 106q82 0 130 53.5t48 156.5q0 86 -37 139l-219 -334q34 -15 78 -15zM193 314
q0 -89 37 -141l218 334q-34 14 -76 14q-83 0 -131 -52.5t-48 -154.5zM394 695h-64l62 143h153z" />
    <glyph glyph-name="oslashacute" unicode="&#x1ff;" horiz-adv-x="588" 
d="M294 -10q-49 0 -96 14l-38 -54h-110l70 99q-72 65 -72 189q0 126 69 187t177 61q53 0 94 -14l40 55h110l-71 -99q73 -66 73 -190q0 -126 -69 -187t-177 -61zM294 79q55 0 86.5 42.5t31.5 116.5q0 55 -19 95l-151 -242q22 -12 52 -12zM176 238q0 -56 18 -94l150 242
q-21 12 -50 12q-55 0 -86.5 -43t-31.5 -117zM294 545h-64l62 143h153z" />
    <glyph glyph-name="Scommaaccent" unicode="&#x218;" horiz-adv-x="658" 
d="M341 -12q-127 0 -204 55t-92 150l143 24q20 -115 167 -115q56 0 84.5 20t28.5 52q0 34 -31.5 50.5t-123.5 36.5l-24 5q-105 22 -160.5 62t-55.5 124q0 86 65 136.5t185 50.5q110 0 179.5 -48t88.5 -139l-144 -20q-6 45 -41.5 70t-86.5 25q-48 0 -76.5 -17.5t-28.5 -49.5
q0 -34 32 -49t127 -36l19 -4q112 -24 165 -64t53 -121q0 -92 -67 -145t-202 -53zM395 -55v-94q0 -69 -27 -101.5t-100 -32.5v54q35 1 48 18t13 52v4h-60v100h126z" />
    <glyph glyph-name="scommaaccent" unicode="&#x219;" horiz-adv-x="524" 
d="M276 -10q-104 0 -169 43.5t-72 110.5l117 23q7 -40 41.5 -62t85.5 -22q39 0 59.5 13t20.5 34q0 22 -25.5 34t-88.5 24l-15 3q-80 14 -126.5 47t-46.5 101q0 66 51.5 106.5t153.5 40.5q84 0 139.5 -35t69.5 -94l-112 -28q-9 32 -36 48.5t-64 16.5t-57.5 -13t-20.5 -32
q0 -24 27 -36.5t88 -23.5l23 -4q165 -29 165 -142q0 -72 -56 -112.5t-152 -40.5zM316 -55v-94q0 -69 -27 -101.5t-100 -32.5v54q35 1 48 18t13 52v4h-60v100h126z" />
    <glyph glyph-name="uni021A" unicode="&#x21a;" horiz-adv-x="579" 
d="M358 0h-138v512h-195v115h529v-115h-196v-512zM350 -55v-94q0 -69 -27 -101.5t-100 -32.5v54q35 1 48 18t13 52v4h-60v100h126z" />
    <glyph glyph-name="uni021B" unicode="&#x21b;" horiz-adv-x="382" 
d="M249 -10q-149 0 -149 158v233h-80v95h52q36 0 36 37v19l123 137v-193h113v-95h-112v-216q0 -41 13 -57.5t40 -16.5q26 0 45 9l22 -88q-34 -22 -103 -22zM285 -55v-94q0 -69 -27 -101.5t-100 -32.5v54q35 1 48 18t13 52v4h-60v100h126z" />
    <glyph glyph-name="dotlessj" unicode="&#x237;" horiz-adv-x="277" 
d="M36 -183q-51 0 -94 17l22 91q21 -8 47 -8q32 0 46.5 19.5t14.5 75.5v464h133v-480q0 -96 -42 -137.5t-127 -41.5z" />
    <glyph glyph-name="circumflex" unicode="&#x2c6;" horiz-adv-x="421" 
d="M117 545h-67l114 143h93l114 -143h-67l-94 58z" />
    <glyph glyph-name="caron" unicode="&#x2c7;" horiz-adv-x="421" 
d="M50 693h67l93 -58l94 58h67l-114 -143h-93z" />
    <glyph glyph-name="uni02C9" unicode="&#x2c9;" horiz-adv-x="346" 
d="M296 566h-246v74h246v-74z" />
    <glyph glyph-name="breve" unicode="&#x2d8;" horiz-adv-x="369" 
d="M256 681h63q0 -69 -38 -108t-98 -39q-59 0 -96 39t-37 108h64q0 -29 20 -48.5t50 -19.5q31 0 51.5 19.5t20.5 48.5z" />
    <glyph glyph-name="dotaccent" unicode="&#x2d9;" horiz-adv-x="241" 
d="M191 558h-141v107h141v-107z" />
    <glyph glyph-name="ring" unicode="&#x2da;" horiz-adv-x="329" 
d="M110 619q0 -24 15 -41.5t40 -17.5q24 0 38.5 17.5t14.5 41.5q0 26 -14.5 43.5t-38.5 17.5q-25 0 -40 -17.5t-15 -43.5zM50 619q0 47 32 78t83 31q50 0 82 -31t32 -78q0 -46 -32 -76.5t-82 -30.5q-51 0 -83 30.5t-32 76.5z" />
    <glyph glyph-name="ogonek" unicode="&#x2db;" horiz-adv-x="294" 
d="M226 -117l41 -42q-41 -48 -107 -48q-39 0 -65.5 22.5t-26.5 59.5q0 72 92 125h64q-87 -52 -87 -105q0 -17 11.5 -27t27.5 -10q31 0 50 25z" />
    <glyph glyph-name="tilde" unicode="&#x2dc;" horiz-adv-x="387" 
d="M107 545h-58q0 61 23 96t66 35q26 0 59.5 -23t52.5 -23q14 0 23.5 11t9.5 32h57q0 -61 -23 -95.5t-66 -34.5q-26 0 -59 23t-52 23q-33 0 -33 -44z" />
    <glyph glyph-name="hungarumlaut" unicode="&#x2dd;" horiz-adv-x="492" 
d="M101 545h-51l60 149h152zM281 545h-51l60 149h152z" />
    <glyph glyph-name="uni0394" unicode="&#x394;" horiz-adv-x="676" 
d="M35 0v113l213 514h180l213 -515v-112h-606zM336 510l-155 -398h308z" />
    <glyph glyph-name="uni03A9" unicode="&#x3a9;" horiz-adv-x="755" 
d="M50 0v110h151q-148 68 -148 233q0 137 93.5 216.5t230.5 79.5q138 0 231.5 -79.5t93.5 -216.5q0 -166 -149 -233h152v-110h-287v124q65 13 102 61t37 130q0 101 -48 153.5t-133 52.5q-83 0 -130.5 -52.5t-47.5 -153.5q0 -82 37 -130t102 -61v-124h-287z" />
    <glyph glyph-name="uni03BC" unicode="&#x3bc;" horiz-adv-x="597" 
d="M247 -10q-21 0 -39 3v-166h-133v649h133v-278q0 -115 84 -115q65 0 97 74v319h133v-476h-93l-22 128q-34 -138 -160 -138z" />
    <glyph glyph-name="pi" unicode="&#x3c0;" 
d="M505 0h-133v382h-144v-382h-133v382h-70v94h550v-94h-70v-382z" />
    <glyph glyph-name="Wgrave" unicode="&#x1e80;" horiz-adv-x="974" 
d="M769 0h-174l-108 498l-110 -498h-174l-173 627h149l115 -498l108 498h181l106 -498l109 498h146zM553 696h-64l-151 143h153z" />
    <glyph glyph-name="wgrave" unicode="&#x1e81;" horiz-adv-x="837" 
d="M344 476h150l87 -376l86 376h135l-136 -476h-164l-83 343l-83 -343h-164l-137 476h139l83 -376zM480 545h-64l-151 143h153z" />
    <glyph glyph-name="Wacute" unicode="&#x1e82;" horiz-adv-x="974" 
d="M769 0h-174l-108 498l-110 -498h-174l-173 627h149l115 -498l108 498h181l106 -498l109 498h146zM489 696h-64l62 143h153z" />
    <glyph glyph-name="wacute" unicode="&#x1e83;" horiz-adv-x="837" 
d="M344 476h150l87 -376l86 376h135l-136 -476h-164l-83 343l-83 -343h-164l-137 476h139l83 -376zM416 545h-64l62 143h153z" />
    <glyph glyph-name="Wdieresis" unicode="&#x1e84;" horiz-adv-x="974" 
d="M769 0h-174l-108 498l-110 -498h-174l-173 627h149l115 -498l108 498h181l106 -498l109 498h146zM454 700h-117v107h117v-107zM641 700h-117v107h117v-107z" />
    <glyph glyph-name="wdieresis" unicode="&#x1e85;" horiz-adv-x="837" 
d="M344 476h150l87 -376l86 376h135l-136 -476h-164l-83 343l-83 -343h-164l-137 476h139l83 -376zM381 549h-117v107h117v-107zM568 549h-117v107h117v-107z" />
    <glyph glyph-name="uni1E8A" unicode="&#x1e8a;" horiz-adv-x="609" 
d="M482 0l-141 221l-145 -221h-160l216 319l-209 308h163l136 -218l140 218h159l-209 -306l214 -321h-164zM401 707h-141v107h141v-107z" />
    <glyph glyph-name="uni1E8B" unicode="&#x1e8b;" horiz-adv-x="538" 
d="M172 476l97 -151l97 151h147l-165 -239l164 -237h-147l-96 152l-96 -152h-147l164 237l-165 239h147zM341 558h-141v107h141v-107z" />
    <glyph glyph-name="Ygrave" unicode="&#x1ef2;" horiz-adv-x="635" 
d="M387 0h-138v217l-239 410h166l143 -272l148 272h158l-238 -409v-218zM382 696h-64l-151 143h153z" />
    <glyph glyph-name="ygrave" unicode="&#x1ef3;" horiz-adv-x="544" 
d="M58 -166l21 94q22 -8 40 -8q55 0 70 54l12 42l-176 460h142l110 -341l103 341h139l-191 -504q-29 -76 -73 -115.5t-112 -39.5q-45 0 -85 17zM341 545h-64l-151 143h153z" />
    <glyph glyph-name="endash" unicode="&#x2013;" horiz-adv-x="500" 
d="M45 219v82h410v-82h-410z" />
    <glyph glyph-name="emdash" unicode="&#x2014;" horiz-adv-x="1000" 
d="M45 219v82h910v-82h-910z" />
    <glyph glyph-name="quoteleft" unicode="&#x2018;" horiz-adv-x="299" 
d="M80 512q0 84 32.5 125.5t106.5 41.5v-58q-36 -1 -50.5 -21.5t-14.5 -67.5v-15h62v-125h-136v120z" />
    <glyph glyph-name="quoteright" unicode="&#x2019;" horiz-adv-x="299" 
d="M219 670v-120q0 -84 -32.5 -125.5t-106.5 -41.5v58q36 1 50.5 21.5t14.5 67.5v15h-62v125h136z" />
    <glyph glyph-name="quotesinglbase" unicode="&#x201a;" horiz-adv-x="299" 
d="M219 125v-120q0 -84 -32.5 -125.5t-106.5 -41.5v58q36 1 50.5 21.5t14.5 67.5v15h-62v125h136z" />
    <glyph glyph-name="quotedblleft" unicode="&#x201c;" horiz-adv-x="494" 
d="M80 512q0 84 32.5 125.5t106.5 41.5v-58q-36 -1 -50.5 -21.5t-14.5 -67.5v-15h62v-125h-136v120zM275 512q0 84 32.5 125.5t106.5 41.5v-58q-36 -1 -50.5 -21.5t-14.5 -67.5v-15h62v-125h-136v120z" />
    <glyph glyph-name="quotedblright" unicode="&#x201d;" horiz-adv-x="494" 
d="M219 670v-120q0 -84 -32.5 -125.5t-106.5 -41.5v58q36 1 50.5 21.5t14.5 67.5v15h-62v125h136zM414 670v-120q0 -84 -32.5 -125.5t-106.5 -41.5v58q36 1 50.5 21.5t14.5 67.5v15h-62v125h136z" />
    <glyph glyph-name="quotedblbase" unicode="&#x201e;" horiz-adv-x="494" 
d="M219 125v-120q0 -84 -32.5 -125.5t-106.5 -41.5v58q36 1 50.5 21.5t14.5 67.5v15h-62v125h136zM414 125v-120q0 -84 -32.5 -125.5t-106.5 -41.5v58q36 1 50.5 21.5t14.5 67.5v15h-62v125h136z" />
    <glyph glyph-name="dagger" unicode="&#x2020;" horiz-adv-x="430" 
d="M256 151h-84v301h-137v78h137v139h84v-139h139v-78h-139v-301z" />
    <glyph glyph-name="daggerdbl" unicode="&#x2021;" horiz-adv-x="430" 
d="M256 0h-84v139h-137v78h137v235h-137v78h137v139h84v-139h139v-78h-139v-235h139v-78h-139v-139z" />
    <glyph glyph-name="bullet" unicode="&#x2022;" horiz-adv-x="359" 
d="M80 259q0 45 28 72.5t72 27.5t71.5 -27.5t27.5 -72.5q0 -46 -27 -73t-72 -27t-72.5 27t-27.5 73z" />
    <glyph glyph-name="ellipsis" unicode="&#x2026;" horiz-adv-x="888" 
d="M216 0h-136v136h136v-136zM512 0h-136v136h136v-136zM808 0h-136v136h136v-136z" />
    <glyph glyph-name="perthousand" unicode="&#x2030;" horiz-adv-x="1297" 
d="M396 450q0 -87 -49 -135.5t-127 -48.5q-77 0 -126 48.5t-49 135.5t49 136t126 49q78 0 127 -49t49 -136zM152 450q0 -107 68 -107q69 0 69 107q0 108 -69 108q-68 0 -68 -108zM159 0l485 627h103l-484 -627h-104zM1252 176q0 -87 -49 -135.5t-127 -48.5q-77 0 -126 48.5
t-49 135.5t49 136t126 49q78 0 127 -49t49 -136zM1008 176q0 -107 68 -107q69 0 69 107q0 108 -69 108q-68 0 -68 -108zM861 176q0 -87 -49 -135.5t-127 -48.5q-77 0 -126 48.5t-49 135.5t49 136t126 49q78 0 127 -49t49 -136zM617 176q0 -107 68 -107q69 0 69 107
q0 108 -69 108q-68 0 -68 -108z" />
    <glyph glyph-name="guilsinglleft" unicode="&#x2039;" horiz-adv-x="326" 
d="M170 59l-125 180l125 179h91l-98 -179l98 -180h-91z" />
    <glyph glyph-name="guilsinglright" unicode="&#x203a;" horiz-adv-x="326" 
d="M281 239l-125 -180h-91l98 180l-98 179h91z" />
    <glyph glyph-name="fraction" unicode="&#x2044;" horiz-adv-x="170" 
d="M-200 0l485 627h85l-484 -627h-86z" />
    <glyph glyph-name="uni2070" unicode="&#x2070;" horiz-adv-x="350" 
d="M175 333q65 0 65 117q0 118 -65 118t-65 -118q0 -117 65 -117zM175 266q-69 0 -109.5 48t-40.5 136t41 136.5t110 48.5t109 -48.5t40 -136.5t-40.5 -136t-109.5 -48z" />
    <glyph glyph-name="uni2074" unicode="&#x2074;" horiz-adv-x="350" 
d="M202 408v136l-98 -136h98zM281 273h-79v67h-173v70l164 217h88v-219h47v-68h-47v-67z" />
    <glyph glyph-name="uni2075" unicode="&#x2075;" horiz-adv-x="350" 
d="M179 266q-59 0 -98 31t-44 82l75 16q3 -27 21.5 -44.5t47.5 -17.5q27 0 41.5 16t14.5 43q0 28 -17 43.5t-43 15.5q-35 0 -62 -30l-59 21l22 185h211v-68h-149l-9 -81q30 28 75 28q51 0 83.5 -30.5t32.5 -82.5q0 -62 -40 -94.5t-103 -32.5z" />
    <glyph glyph-name="uni2076" unicode="&#x2076;" horiz-adv-x="350" 
d="M186 569q-65 0 -68 -106q33 38 89 38q47 0 80.5 -27.5t33.5 -79.5q0 -56 -37.5 -92t-101.5 -36q-70 0 -109 49t-39 134q0 89 40.5 137.5t112.5 48.5q51 0 86 -25.5t41 -66.5l-76 -19q-5 20 -19 32.5t-33 12.5zM182 446q-38 0 -63 -28q5 -85 64 -85q25 0 40 16t15 43
q0 54 -56 54z" />
    <glyph glyph-name="uni2077" unicode="&#x2077;" horiz-adv-x="350" 
d="M197 273h-87v3q0 92 33.5 170t93.5 113h-192v68h265v-63q-52 -41 -82.5 -116.5t-30.5 -154.5v-20z" />
    <glyph glyph-name="uni2078" unicode="&#x2078;" horiz-adv-x="350" 
d="M175 330q30 0 46 14t16 38q0 23 -16.5 37.5t-45.5 14.5t-45.5 -14.5t-16.5 -37.5q0 -24 16 -38t46 -14zM175 484q23 0 37 12.5t14 33.5q0 20 -14 31.5t-37 11.5t-37 -11.5t-14 -31.5q0 -21 14 -33.5t37 -12.5zM175 266q-63 0 -103 27.5t-40 76.5q0 37 20.5 60t52.5 29
q-61 15 -61 80q0 43 36.5 69.5t93.5 26.5t94.5 -26.5t37.5 -69.5q0 -66 -60 -80q31 -7 51.5 -29.5t20.5 -59.5q0 -49 -40 -76.5t-103 -27.5z" />
    <glyph glyph-name="uni2079" unicode="&#x2079;" horiz-adv-x="350" 
d="M169 332q65 0 68 106q-33 -38 -89 -38q-47 0 -80.5 27.5t-33.5 79.5q0 56 37.5 92t101.5 36q70 0 109 -49t39 -134q0 -89 -40.5 -137.5t-112.5 -48.5q-51 0 -86 25.5t-41 66.5l76 19q5 -20 19 -32.5t33 -12.5zM173 455q38 0 63 28q-5 85 -64 85q-25 0 -40 -16t-15 -43
q0 -54 56 -54z" />
    <glyph glyph-name="uni2080" unicode="&#x2080;" horiz-adv-x="350" 
d="M326 176q0 -88 -41 -136t-110 -48t-109.5 48t-40.5 136t40.5 136.5t109.5 48.5t110 -48.5t41 -136.5zM107 176q0 -117 68 -117q69 0 69 117q0 118 -69 118q-68 0 -68 -118z" />
    <glyph glyph-name="uni2081" unicode="&#x2081;" horiz-adv-x="350" 
d="M55 0v68h103v167q-26 -16 -92 -16v68q88 0 114 67h59v-286h80v-68h-264z" />
    <glyph glyph-name="uni2082" unicode="&#x2082;" horiz-adv-x="350" 
d="M139 206l-70 -31q-21 28 -21 69q0 51 36.5 84.5t93.5 33.5q62 0 98.5 -32t36.5 -84q0 -27 -11.5 -51t-39.5 -48t-47.5 -38t-61.5 -41h156v-68h-265v61l33.5 24.5l32 23l28 21t26.5 21t21.5 19t18.5 20l12.5 18.5t9 19.5t2.5 19.5q0 25 -13.5 38t-34.5 13q-23 0 -37.5 -15
t-14.5 -37q0 -25 11 -40z" />
    <glyph glyph-name="uni2083" unicode="&#x2083;" horiz-adv-x="350" 
d="M174 -11q-57 0 -98.5 32t-44.5 83l75 16q2 -28 23 -46t48 -18q60 0 60 47q0 44 -66 44q-6 0 -13.5 -0.5t-13.5 -0.5h-5v63h33q23 0 38.5 11.5t15.5 34.5q0 40 -50 40q-26 0 -44 -17.5t-23 -46.5l-74 15q7 53 45 82.5t97 29.5q60 0 95.5 -24.5t35.5 -70.5
q0 -28 -18.5 -49.5t-52.5 -30.5q85 -11 85 -85q0 -53 -40.5 -81t-107.5 -28z" />
    <glyph glyph-name="uni2084" unicode="&#x2084;" horiz-adv-x="350" 
d="M202 135v136l-98 -136h98zM281 0h-79v67h-173v70l164 217h88v-219h47v-68h-47v-67z" />
    <glyph glyph-name="uni2085" unicode="&#x2085;" horiz-adv-x="350" 
d="M179 -8q-59 0 -98 31t-44 82l75 16q3 -27 21.5 -44.5t47.5 -17.5q27 0 41.5 16t14.5 43q0 28 -17 43.5t-43 15.5q-35 0 -62 -30l-59 21l22 185h211v-68h-149l-9 -81q30 28 75 28q51 0 83.5 -30.5t32.5 -82.5q0 -62 -40 -94.5t-103 -32.5z" />
    <glyph glyph-name="uni2086" unicode="&#x2086;" horiz-adv-x="350" 
d="M186 295q-65 0 -68 -106q33 38 89 38q47 0 80.5 -27.5t33.5 -79.5q0 -56 -37.5 -92t-101.5 -36q-70 0 -109 49t-39 134q0 89 40.5 137.5t112.5 48.5q50 0 82.5 -25t44.5 -67l-76 -19q-5 20 -19 32.5t-33 12.5zM182 172q-38 0 -63 -28q5 -85 64 -85q25 0 40 16t15 43
q0 54 -56 54z" />
    <glyph glyph-name="uni2087" unicode="&#x2087;" horiz-adv-x="350" 
d="M197 0h-87v3q0 92 33.5 170t93.5 113h-192v68h265v-63q-52 -41 -82.5 -116.5t-30.5 -154.5v-20z" />
    <glyph glyph-name="uni2088" unicode="&#x2088;" horiz-adv-x="350" 
d="M175 55q30 0 46 14t16 38q0 23 -16.5 38t-45.5 15t-45.5 -15t-16.5 -38q0 -24 16 -38t46 -14zM175 210q23 0 37 12.5t14 33.5q0 20 -14 31.5t-37 11.5t-37 -11.5t-14 -31.5q0 -21 14 -33.5t37 -12.5zM175 -9q-63 0 -103 27.5t-40 76.5q0 37 21 60.5t52 29.5
q-61 15 -61 80q0 43 36.5 69.5t93.5 26.5t94.5 -26.5t37.5 -69.5q0 -66 -60 -80q31 -6 51.5 -29.5t20.5 -60.5q0 -49 -40 -76.5t-103 -27.5z" />
    <glyph glyph-name="uni2089" unicode="&#x2089;" horiz-adv-x="350" 
d="M168 58q65 0 68 106q-33 -38 -89 -38q-47 0 -80.5 27.5t-33.5 79.5q0 56 37.5 92t101.5 36q70 0 109 -49t39 -134q0 -89 -40.5 -137.5t-112.5 -48.5q-50 0 -82.5 25t-44.5 67l76 19q5 -20 19 -32.5t33 -12.5zM172 181q38 0 63 28q-5 85 -64 85q-25 0 -40 -16t-15 -43
q0 -54 56 -54z" />
    <glyph glyph-name="Euro" unicode="&#x20ac;" horiz-adv-x="643" 
d="M45 348v69h72q22 105 86.5 163.5t159.5 58.5q107 0 168.5 -51t66.5 -134l-128 -22q-4 52 -32.5 75t-69.5 23q-90 0 -116 -113h162v-69h-171q-1 -11 -1 -35v-33h172v-69h-163q24 -114 117 -114q41 0 69.5 23t32.5 75l128 -22q-5 -83 -66.5 -134t-168.5 -51
q-95 0 -160 57.5t-87 165.5h-71v69h63q-1 11 -1 34t1 34h-63z" />
    <glyph glyph-name="trademark" unicode="&#x2122;" horiz-adv-x="722" 
d="M200 343h-81v213h-84v71h249v-71h-84v-213zM525 440h-67l-52 93v-190h-80v284h104l61 -112l57 112h104v-284h-81v190z" />
    <glyph glyph-name="Omega" unicode="&#x2126;" horiz-adv-x="755" 
d="M50 0v110h151q-148 68 -148 233q0 137 93.5 216.5t230.5 79.5q138 0 231.5 -79.5t93.5 -216.5q0 -166 -149 -233h152v-110h-287v124q65 13 102 61t37 130q0 101 -48 153.5t-133 52.5q-83 0 -130.5 -52.5t-47.5 -153.5q0 -82 37 -130t102 -61v-124h-287z" />
    <glyph glyph-name="estimated" unicode="&#x212e;" horiz-adv-x="700" 
d="M593 223h-454q2 -92 64 -149t147 -57q68 0 124 39.5t77 110.5l30 -11q-25 -78 -87 -123t-144 -45q-104 0 -173.5 69.5t-69.5 181.5q0 113 69 180.5t174 67.5q104 0 173.5 -67.5t69.5 -180.5v-16zM350 458q-87 0 -147 -54.5t-64 -151.5h422q-4 95 -65 150.5t-146 55.5z
" />
    <glyph glyph-name="uni2153" unicode="&#x2153;" horiz-adv-x="900" 
d="M700 -8q-57 0 -98.5 32t-44.5 83l75 16q2 -28 23 -46t48 -18q60 0 60 47q0 44 -66 44h-13.5h-13.5l-5 -1v63h33q23 0 38.5 11.5t15.5 34.5q0 40 -50 40q-26 0 -44 -17.5t-23 -46.5l-74 15q7 53 45 82.5t97 29.5q60 0 95.5 -24.5t35.5 -70.5q0 -28 -18.5 -49.5
t-52.5 -30.5q85 -11 85 -85q0 -53 -40.5 -81t-107.5 -28zM66 273v68h103v167q-26 -16 -92 -16v68q88 0 114 67h59v-286h80v-68h-264zM186 0l485 627h85l-484 -627h-86z" />
    <glyph glyph-name="uni2154" unicode="&#x2154;" horiz-adv-x="900" 
d="M160 479l-70 -31q-21 28 -21 69q0 51 36.5 84.5t93.5 33.5q62 0 98.5 -32t36.5 -84q0 -27 -11.5 -51t-39.5 -48t-47.5 -38t-61.5 -41h156v-68h-265v61l33.5 24.5l32 23l28 21t26.5 21t21.5 19t18.5 20l12.5 18.5t9 19.5t2.5 19.5q0 25 -13.5 38t-34.5 13q-23 0 -37.5 -15
t-14.5 -37q0 -25 11 -40zM186 0l485 627h85l-484 -627h-86zM700 -8q-57 0 -98.5 32t-44.5 83l75 16q2 -28 23 -46t48 -18q60 0 60 47q0 44 -66 44h-13.5h-13.5l-5 -1v63h33q23 0 38.5 11.5t15.5 34.5q0 40 -50 40q-26 0 -44 -17.5t-23 -46.5l-74 15q7 53 45 82.5t97 29.5
q60 0 95.5 -24.5t35.5 -70.5q0 -28 -18.5 -49.5t-52.5 -30.5q85 -11 85 -85q0 -53 -40.5 -81t-107.5 -28z" />
    <glyph glyph-name="uni2155" unicode="&#x2155;" horiz-adv-x="900" 
d="M66 273v68h103v167q-26 -16 -92 -16v68q88 0 114 67h59v-286h80v-68h-264zM186 0l485 627h85l-484 -627h-86zM710 -8q-59 0 -98 31t-44 82l75 16q3 -27 21.5 -44.5t47.5 -17.5q27 0 41.5 16t14.5 43q0 28 -17 43.5t-43 15.5q-35 0 -62 -30l-59 21l22 185h211v-68h-149
l-9 -81q30 28 75 28q51 0 83.5 -30.5t32.5 -82.5q0 -62 -40 -94.5t-103 -32.5z" />
    <glyph glyph-name="uni2156" unicode="&#x2156;" horiz-adv-x="900" 
d="M186 0l485 627h85l-484 -627h-86zM160 479l-70 -31q-21 28 -21 69q0 51 36.5 84.5t93.5 33.5q62 0 98.5 -32t36.5 -84q0 -27 -11.5 -51t-39.5 -48t-47.5 -38t-61.5 -41h156v-68h-265v61l33.5 24.5l32 23l28 21t26.5 21t21.5 19t18.5 20l12.5 18.5t9 19.5t2.5 19.5
q0 25 -13.5 38t-34.5 13q-23 0 -37.5 -15t-14.5 -37q0 -25 11 -40zM710 -8q-59 0 -98 31t-44 82l75 16q3 -27 21.5 -44.5t47.5 -17.5q27 0 41.5 16t14.5 43q0 28 -17 43.5t-43 15.5q-35 0 -62 -30l-59 21l22 185h211v-68h-149l-9 -81q30 28 75 28q51 0 83.5 -30.5
t32.5 -82.5q0 -62 -40 -94.5t-103 -32.5z" />
    <glyph glyph-name="uni2157" unicode="&#x2157;" horiz-adv-x="900" 
d="M186 0l485 627h85l-484 -627h-86zM209 266q-57 0 -98.5 32t-44.5 83l75 16q2 -28 23 -46t48 -18q60 0 60 47q0 44 -66 44h-13.5t-12.5 -0.5t-6 -0.5v63h33q23 0 38.5 11.5t15.5 34.5q0 40 -50 40q-26 0 -44 -17.5t-23 -46.5l-74 15q7 53 45 82.5t97 29.5q60 0 95.5 -24.5
t35.5 -70.5q0 -28 -18.5 -49.5t-52.5 -30.5q85 -11 85 -85q0 -53 -40.5 -81t-107.5 -28zM710 -8q-59 0 -98 31t-44 82l75 16q3 -27 21.5 -44.5t47.5 -17.5q27 0 41.5 16t14.5 43q0 28 -17 43.5t-43 15.5q-35 0 -62 -30l-59 21l22 185h211v-68h-149l-9 -81q30 28 75 28
q51 0 83.5 -30.5t32.5 -82.5q0 -62 -40 -94.5t-103 -32.5z" />
    <glyph glyph-name="uni2158" unicode="&#x2158;" horiz-adv-x="900" 
d="M186 0l485 627h85l-484 -627h-86zM222 408v136l-98 -136h98zM301 273h-79v67h-173v70l164 217h88v-219h47v-68h-47v-67zM710 -8q-59 0 -98 31t-44 82l75 16q3 -27 21.5 -44.5t47.5 -17.5q27 0 41.5 16t14.5 43q0 28 -17 43.5t-43 15.5q-35 0 -62 -30l-59 21l22 185h211
v-68h-149l-9 -81q30 28 75 28q51 0 83.5 -30.5t32.5 -82.5q0 -62 -40 -94.5t-103 -32.5z" />
    <glyph glyph-name="uni2159" unicode="&#x2159;" horiz-adv-x="900" 
d="M186 0l485 627h85l-484 -627h-86zM66 273v68h103v167q-26 -16 -92 -16v68q88 0 114 67h59v-286h80v-68h-264zM704 295q-65 0 -68 -106q33 38 89 38q47 0 80.5 -27.5t33.5 -79.5q0 -56 -37.5 -92t-101.5 -36q-70 0 -109 49t-39 134q0 89 40.5 137.5t112.5 48.5
q50 0 82.5 -25t44.5 -67l-76 -19q-5 20 -19 32.5t-33 12.5zM700 172q-38 0 -63 -28q5 -85 64 -85q25 0 40 16t15 43q0 54 -56 54z" />
    <glyph glyph-name="uni215A" unicode="&#x215a;" horiz-adv-x="900" 
d="M186 0l485 627h85l-484 -627h-86zM704 295q-65 0 -68 -106q33 38 89 38q47 0 80.5 -27.5t33.5 -79.5q0 -56 -37.5 -92t-101.5 -36q-70 0 -109 49t-39 134q0 89 40.5 137.5t112.5 48.5q50 0 82.5 -25t44.5 -67l-76 -19q-5 20 -19 32.5t-33 12.5zM700 172q-38 0 -63 -28
q5 -85 64 -85q25 0 40 16t15 43q0 54 -56 54zM221 266q-59 0 -98 31t-44 82l75 16q3 -27 21.5 -44.5t47.5 -17.5q27 0 41.5 16t14.5 43q0 28 -17 43.5t-43 15.5q-35 0 -62 -30l-59 21l22 185h211v-68h-149l-9 -81q30 28 75 28q51 0 83.5 -30.5t32.5 -82.5q0 -62 -40 -94.5
t-103 -32.5z" />
    <glyph glyph-name="uni215B" unicode="&#x215b;" horiz-adv-x="900" 
d="M186 0l485 627h85l-484 -627h-86zM66 273v68h103v167q-26 -16 -92 -16v68q88 0 114 67h59v-286h80v-68h-264zM710 55q30 0 46 14t16 38q0 23 -16.5 38t-45.5 15t-45.5 -15t-16.5 -38q0 -24 16 -38t46 -14zM710 210q23 0 37 12.5t14 33.5q0 20 -14 31.5t-37 11.5
t-37 -11.5t-14 -31.5q0 -21 14 -33.5t37 -12.5zM710 -9q-63 0 -103 27.5t-40 76.5q0 37 21 60.5t52 29.5q-61 15 -61 80q0 43 36.5 69.5t93.5 26.5t94.5 -26.5t37.5 -69.5q0 -66 -60 -80q31 -6 51.5 -29.5t20.5 -60.5q0 -49 -40 -76.5t-103 -27.5z" />
    <glyph glyph-name="uni215C" unicode="&#x215c;" horiz-adv-x="900" 
d="M186 0l485 627h85l-484 -627h-86zM710 55q30 0 46 14t16 38q0 23 -16.5 38t-45.5 15t-45.5 -15t-16.5 -38q0 -24 16 -38t46 -14zM710 210q23 0 37 12.5t14 33.5q0 20 -14 31.5t-37 11.5t-37 -11.5t-14 -31.5q0 -21 14 -33.5t37 -12.5zM710 -9q-63 0 -103 27.5t-40 76.5
q0 37 21 60.5t52 29.5q-61 15 -61 80q0 43 36.5 69.5t93.5 26.5t94.5 -26.5t37.5 -69.5q0 -66 -60 -80q31 -6 51.5 -29.5t20.5 -60.5q0 -49 -40 -76.5t-103 -27.5zM209 266q-57 0 -98.5 32t-44.5 83l75 16q2 -28 23 -46t48 -18q60 0 60 47q0 44 -66 44h-13.5t-12.5 -0.5
t-6 -0.5v63h33q23 0 38.5 11.5t15.5 34.5q0 40 -50 40q-26 0 -44 -17.5t-23 -46.5l-74 15q7 53 45 82.5t97 29.5q60 0 95.5 -24.5t35.5 -70.5q0 -28 -18.5 -49.5t-52.5 -30.5q85 -11 85 -85q0 -53 -40.5 -81t-107.5 -28z" />
    <glyph glyph-name="uni215D" unicode="&#x215d;" horiz-adv-x="900" 
d="M186 0l485 627h85l-484 -627h-86zM710 55q30 0 46 14t16 38q0 23 -16.5 38t-45.5 15t-45.5 -15t-16.5 -38q0 -24 16 -38t46 -14zM710 210q23 0 37 12.5t14 33.5q0 20 -14 31.5t-37 11.5t-37 -11.5t-14 -31.5q0 -21 14 -33.5t37 -12.5zM710 -9q-63 0 -103 27.5t-40 76.5
q0 37 21 60.5t52 29.5q-61 15 -61 80q0 43 36.5 69.5t93.5 26.5t94.5 -26.5t37.5 -69.5q0 -66 -60 -80q31 -6 51.5 -29.5t20.5 -60.5q0 -49 -40 -76.5t-103 -27.5zM221 266q-59 0 -98 31t-44 82l75 16q3 -27 21.5 -44.5t47.5 -17.5q27 0 41.5 16t14.5 43q0 28 -17 43.5
t-43 15.5q-35 0 -62 -30l-59 21l22 185h211v-68h-149l-9 -81q30 28 75 28q51 0 83.5 -30.5t32.5 -82.5q0 -62 -40 -94.5t-103 -32.5z" />
    <glyph glyph-name="uni215E" unicode="&#x215e;" horiz-adv-x="900" 
d="M186 0l485 627h85l-484 -627h-86zM284 273h-87v3q0 92 33.5 170t93.5 113h-192v68h265v-63q-52 -41 -82.5 -116.5t-30.5 -154.5v-20zM710 55q30 0 46 14t16 38q0 23 -16.5 38t-45.5 15t-45.5 -15t-16.5 -38q0 -24 16 -38t46 -14zM710 210q23 0 37 12.5t14 33.5
q0 20 -14 31.5t-37 11.5t-37 -11.5t-14 -31.5q0 -21 14 -33.5t37 -12.5zM710 -9q-63 0 -103 27.5t-40 76.5q0 37 21 60.5t52 29.5q-61 15 -61 80q0 43 36.5 69.5t93.5 26.5t94.5 -26.5t37.5 -69.5q0 -66 -60 -80q31 -6 51.5 -29.5t20.5 -60.5q0 -49 -40 -76.5t-103 -27.5z
" />
    <glyph glyph-name="uni2190" unicode="&#x2190;" 
d="M587 253h-379l183 -175h-143l-235 233l235 233h142l-182 -177h379v-114z" />
    <glyph glyph-name="uni2191" unicode="&#x2191;" 
d="M242 24v379l-175 -183v143l233 235l233 -235v-142l-177 182v-379h-114z" />
    <glyph glyph-name="uni2192" unicode="&#x2192;" 
d="M392 253h-379v114h379l-182 177h142l235 -233l-235 -233h-143z" />
    <glyph glyph-name="uni2193" unicode="&#x2193;" 
d="M242 201v379h114v-379l177 182v-142l-233 -235l-233 235v143z" />
    <glyph glyph-name="uni2196" unicode="&#x2196;" 
d="M442 67l-268 268l6 -253l-103 101v331h331l100 -102l-253 4l268 -268z" />
    <glyph glyph-name="uni2197" unicode="&#x2197;" 
d="M523 514v-331l-103 -101l6 253l-268 -268l-81 81l268 268l-253 -4l100 102h331z" />
    <glyph glyph-name="uni2198" unicode="&#x2198;" 
d="M523 57h-331l-100 102l253 -4l-268 268l81 81l268 -268l-6 253l103 -101v-331z" />
    <glyph glyph-name="uni2199" unicode="&#x2199;" 
d="M523 423l-268 -268l253 4l-100 -102h-331v331l103 101l-6 -253l268 268z" />
    <glyph glyph-name="partialdiff" unicode="&#x2202;" horiz-adv-x="608" 
d="M284 528q-44 0 -78 -24t-48 -57l-100 63q61 127 225 127q126 0 198 -86.5t72 -247.5q0 -146 -69.5 -230.5t-192.5 -84.5q-107 0 -171.5 60.5t-64.5 160.5q0 91 57.5 144t144.5 53q95 0 156 -69q-4 101 -36.5 146t-92.5 45zM294 99q100 0 117 144q-37 64 -117 64
q-99 0 -99 -104q0 -51 26.5 -77.5t72.5 -26.5z" />
    <glyph glyph-name="Delta" unicode="&#x2206;" horiz-adv-x="676" 
d="M35 0v113l213 514h180l213 -515v-112h-606zM336 510l-155 -398h308z" />
    <glyph glyph-name="product" unicode="&#x220f;" horiz-adv-x="681" 
d="M601 0h-138v512h-245v-512h-138v627h521v-627z" />
    <glyph glyph-name="summation" unicode="&#x2211;" 
d="M545 0h-480v115l181 205l-181 192v115h467v-115h-288l134 -138v-111l-134 -148h301v-115z" />
    <glyph glyph-name="minus" unicode="&#x2212;" 
d="M82 219v96h436v-96h-436z" />
    <glyph glyph-name="uni2215" unicode="&#x2215;" horiz-adv-x="170" 
d="M-200 0l485 627h85l-484 -627h-86z" />
    <glyph glyph-name="uni2219" unicode="&#x2219;" horiz-adv-x="296" 
d="M216 196h-136v136h136v-136z" />
    <glyph glyph-name="radical" unicode="&#x221a;" 
d="M409 0h-178l-105 334h-116v94h234l79 -329l135 528h141z" />
    <glyph glyph-name="infinity" unicode="&#x221e;" horiz-adv-x="627" 
d="M175 392q84 0 138 -85q55 85 139 85q72 0 116 -44.5t44 -111.5q0 -68 -44 -112.5t-116 -44.5q-84 0 -139 84q-53 -84 -138 -84q-72 0 -116 44.5t-44 112.5q0 67 44 111.5t116 44.5zM453 318q-33 0 -55.5 -21t-44.5 -61q22 -40 44.5 -61t55.5 -21q35 0 54.5 23.5
t19.5 58.5q0 34 -20 58t-54 24zM174 154q33 0 55 21t44 61q-22 40 -44 61t-55 21q-34 0 -54 -24t-20 -58t20 -58t54 -24z" />
    <glyph glyph-name="integral" unicode="&#x222b;" horiz-adv-x="498" 
d="M317 510v-540q0 -72 -45.5 -113t-123.5 -41q-47 0 -93 19l18 88q19 -9 50 -9q61 0 61 71v541q0 72 44 112.5t122 40.5q47 0 93 -19l-18 -88q-19 9 -50 9q-58 0 -58 -71z" />
    <glyph glyph-name="approxequal" unicode="&#x2248;" 
d="M157 290h-91q0 102 32.5 139.5t90.5 37.5q41 0 79 -20.5t71.5 -40.5t62.5 -20q41 0 41 71h91q0 -56 -10.5 -93t-30 -54t-38.5 -23t-44 -6q-41 0 -79 20.5t-71.5 40.5t-62.5 20q-41 0 -41 -72zM157 82h-91q0 102 32.5 139.5t90.5 37.5q41 0 79 -20.5t71.5 -40.5t62.5 -20
q41 0 41 71h91q0 -56 -10.5 -93t-30 -54t-38.5 -23t-44 -6q-41 0 -79 20.5t-71.5 40.5t-62.5 20q-41 0 -41 -72z" />
    <glyph glyph-name="notequal" unicode="&#x2260;" 
d="M92 335v96h226l44 111h91l-44 -111h99v-96h-137l-49 -123h186v-96h-224l-45 -113h-92l45 113h-100v96h138l49 123h-187z" />
    <glyph glyph-name="lessequal" unicode="&#x2264;" 
d="M87 323v118l431 154v-108l-316 -105l316 -104v-108zM518 110v-96h-436v96h436z" />
    <glyph glyph-name="greaterequal" unicode="&#x2265;" 
d="M513 441v-118l-431 -153v108l316 104l-316 105v108zM82 14v96h436v-96h-436z" />
    <glyph glyph-name="uni2460" unicode="&#x2460;" horiz-adv-x="1120" 
d="M60 300q0 136 66.5 251t182 182t251.5 67t251 -67t182 -182t67 -251t-67 -251.5t-182 -182t-251 -66.5q-102 0 -194.5 39.5t-159.5 106.5t-106.5 159.5t-39.5 194.5zM91 300q0 -195 137 -332.5t332 -137.5q194 0 331.5 137.5t137.5 332.5q0 194 -137.5 332t-331.5 138
q-128 0 -236 -63t-170.5 -171.5t-62.5 -235.5zM371 50v106h165v247q-15 -10 -59.5 -17.5t-88.5 -7.5v106q143 0 181 102h95v-430h125v-106h-418z" />
    <glyph glyph-name="uni2461" unicode="&#x2461;" horiz-adv-x="1120" 
d="M60 300q0 136 66.5 251t182 182t251.5 67t251 -67t182 -182t67 -251t-67 -251.5t-182 -182t-251 -66.5q-102 0 -194.5 39.5t-159.5 106.5t-106.5 159.5t-39.5 194.5zM91 300q0 -195 137 -332.5t332 -137.5q194 0 331.5 137.5t137.5 332.5q0 194 -137.5 332t-331.5 138
q-128 0 -236 -63t-170.5 -171.5t-62.5 -235.5zM510 356l-117 -44q-31 41 -31 110q0 76 59.5 125.5t146.5 49.5q91 0 145.5 -49.5t54.5 -123.5q0 -76 -62.5 -138t-182.5 -130h243v-105h-401v97q146 102 183 133q91 78 91 137q0 37 -18.5 58t-53.5 21q-33 0 -54.5 -21.5
t-21.5 -53.5q0 -42 19 -66z" />
    <glyph glyph-name="uni2462" unicode="&#x2462;" horiz-adv-x="1120" 
d="M60 300q0 136 66.5 251t182 182t251.5 67t251 -67t182 -182t67 -251t-67 -251.5t-182 -182t-251 -66.5q-102 0 -194.5 39.5t-159.5 106.5t-106.5 159.5t-39.5 194.5zM91 300q0 -195 137 -332.5t332 -137.5q194 0 331.5 137.5t137.5 332.5q0 194 -137.5 332t-331.5 138
q-128 0 -236 -63t-170.5 -171.5t-62.5 -235.5zM560 27q-88 0 -148.5 48t-67.5 127l120 22q5 -43 31.5 -69.5t66.5 -26.5q92 0 92 69q0 37 -30 54t-72 17h-19.5h-15.5l-6 -1v93h42q34 0 59 17t25 49q0 29 -20 44t-52 15q-39 0 -64.5 -26.5t-30.5 -69.5l-120 22q7 77 69 125.5
t146 48.5q89 0 144 -38t55 -108q0 -48 -28.5 -79t-74.5 -42q58 -5 92 -38t34 -85q0 -80 -63.5 -124t-163.5 -44z" />
    <glyph glyph-name="uni2463" unicode="&#x2463;" horiz-adv-x="1120" 
d="M60 300q0 136 66.5 251t182 182t251.5 67t251 -67t182 -182t67 -251t-67 -251.5t-182 -182t-251 -66.5q-102 0 -194.5 39.5t-159.5 106.5t-106.5 159.5t-39.5 194.5zM91 300q0 -195 137 -332.5t332 -137.5q194 0 331.5 137.5t137.5 332.5q0 194 -137.5 332t-331.5 138
q-128 0 -236 -63t-170.5 -171.5t-62.5 -235.5zM566 248v198l-148 -198h148zM691 51h-125v95h-274v90l261 347h138v-335h75v-102h-75v-95z" />
    <glyph glyph-name="uni2464" unicode="&#x2464;" horiz-adv-x="1120" 
d="M60 300q0 136 66.5 251t182 182t251.5 67t251 -67t182 -182t67 -251t-67 -251.5t-182 -182t-251 -66.5q-102 0 -194.5 39.5t-159.5 106.5t-106.5 159.5t-39.5 194.5zM91 300q0 -195 137 -332.5t332 -137.5q194 0 331.5 137.5t137.5 332.5q0 194 -137.5 332t-331.5 138
q-128 0 -236 -63t-170.5 -171.5t-62.5 -235.5zM562 25q-87 0 -145.5 44.5t-62.5 120.5l115 29q4 -42 31 -68t64 -26q38 0 62 24.5t24 65.5q0 39 -24.5 62t-62.5 23q-55 0 -94 -45l-92 33l32 283h327v-105h-232l-15 -120q42 46 112 46q77 0 128 -48.5t51 -126.5
q0 -92 -60.5 -142t-157.5 -50z" />
    <glyph glyph-name="uni2465" unicode="&#x2465;" horiz-adv-x="1120" 
d="M60 300q0 136 66.5 251t182 182t251.5 67t251 -67t182 -182t67 -251t-67 -251.5t-182 -182t-251 -66.5q-102 0 -194.5 39.5t-159.5 106.5t-106.5 159.5t-39.5 194.5zM91 300q0 -195 137 -332.5t332 -137.5q194 0 331.5 137.5t137.5 332.5q0 194 -137.5 332t-331.5 138
q-128 0 -236 -63t-170.5 -171.5t-62.5 -235.5zM567 484q-49 0 -75 -36t-30 -120q56 56 128 56q77 0 128 -46t51 -123q0 -86 -57.5 -137.5t-150.5 -51.5q-108 0 -169 72t-61 197q0 138 63.5 213t173.5 75q80 0 131 -40t64 -99l-123 -27q-5 28 -24.5 47.5t-48.5 19.5zM558 293
q-61 0 -94 -43q11 -123 94 -123q79 0 79 83t-79 83z" />
    <glyph glyph-name="uni2466" unicode="&#x2466;" horiz-adv-x="1120" 
d="M60 300q0 136 66.5 251t182 182t251.5 67t251 -67t182 -182t67 -251t-67 -251.5t-182 -182t-251 -66.5q-102 0 -194.5 39.5t-159.5 106.5t-106.5 159.5t-39.5 194.5zM91 300q0 -195 137 -332.5t332 -137.5q194 0 331.5 137.5t137.5 332.5q0 194 -137.5 332t-331.5 138
q-128 0 -236 -63t-170.5 -171.5t-62.5 -235.5zM593 27h-137q-1 130 47 246.5t126 181.5h-253v105h371v-82q-72 -74 -116.5 -201.5t-37.5 -249.5z" />
    <glyph glyph-name="uni2467" unicode="&#x2467;" horiz-adv-x="1120" 
d="M60 300q0 136 66.5 251t182 182t251.5 67t251 -67t182 -182t67 -251t-67 -251.5t-182 -182t-251 -66.5q-102 0 -194.5 39.5t-159.5 106.5t-106.5 159.5t-39.5 194.5zM91 300q0 -195 137 -332.5t332 -137.5q194 0 331.5 137.5t137.5 332.5q0 194 -137.5 332t-331.5 138
q-128 0 -236 -63t-170.5 -171.5t-62.5 -235.5zM561 26q-97 0 -159.5 41t-62.5 116q0 55 34 90.5t83 44.5q-98 23 -98 121q0 65 58.5 105t148.5 41q86 0 143.5 -40.5t57.5 -104.5q0 -96 -98 -122q50 -9 81.5 -44t31.5 -94q0 -74 -61.5 -114t-158.5 -40zM562 120
q41 0 63.5 19.5t22.5 56.5q0 39 -23 60.5t-63 21.5q-42 0 -65.5 -22t-23.5 -60q0 -37 23.5 -56.5t65.5 -19.5zM562 358q32 0 52.5 18.5t20.5 53.5q0 31 -20.5 47t-51.5 16q-32 0 -52 -16t-20 -47q0 -34 19.5 -53t51.5 -19z" />
    <glyph glyph-name="uni2468" unicode="&#x2468;" horiz-adv-x="1120" 
d="M60 300q0 136 66.5 251t182 182t251.5 67t251 -67t182 -182t67 -251t-67 -251.5t-182 -182t-251 -66.5q-102 0 -194.5 39.5t-159.5 106.5t-106.5 159.5t-39.5 194.5zM91 300q0 -195 137 -332.5t332 -137.5q194 0 331.5 137.5t137.5 332.5q0 194 -137.5 332t-331.5 138
q-128 0 -236 -63t-170.5 -171.5t-62.5 -235.5zM554 121q49 0 75 37.5t30 122.5q-55 -55 -128 -55q-77 0 -128 45.5t-51 123.5q0 86 57 138.5t151 52.5q108 0 169.5 -73t61.5 -199q0 -138 -63.5 -212t-174.5 -74q-80 0 -131.5 39.5t-63.5 97.5l123 27q5 -29 24.5 -50
t48.5 -21zM563 317q62 0 95 43q-13 125 -95 125q-37 0 -58 -21.5t-21 -63.5q0 -83 79 -83z" />
    <glyph glyph-name="uni2469" unicode="&#x2469;" horiz-adv-x="1120" 
d="M60 300q0 136 66.5 251t182 182t251.5 67t251 -67t182 -182t67 -251t-67 -251.5t-182 -182t-251 -66.5q-102 0 -194.5 39.5t-159.5 106.5t-106.5 159.5t-39.5 194.5zM91 300q0 -195 137 -332.5t332 -137.5q194 0 331.5 137.5t137.5 332.5q0 194 -137.5 332t-331.5 138
q-128 0 -236 -63t-170.5 -171.5t-62.5 -235.5zM300 57v499h115v-499h-115zM867 305q0 -129 -52.5 -194t-144.5 -65t-144 64.5t-52 194.5t52 195.5t144 65.5t144.5 -65.5t52.5 -195.5zM746 305q0 167 -76 167t-76 -167q0 -165 76 -165t76 165z" />
    <glyph glyph-name="lozenge" unicode="&#x25ca;" horiz-adv-x="696" 
d="M348 114l171 200l-171 199l-171 -199zM286 627h124l231 -257v-113l-231 -257h-124l-231 257v113z" />
    <glyph glyph-name="uni2776" unicode="&#x2776;" horiz-adv-x="1120" 
d="M60 300q0 136 66.5 251t182 182t251.5 67t251 -67t182 -182t67 -251t-67 -251.5t-182 -182t-251 -66.5q-102 0 -194.5 39.5t-159.5 106.5t-106.5 159.5t-39.5 194.5zM371 156v-106h418v106h-125v430h-95q-38 -102 -181 -102v-106q44 0 88.5 7.5t59.5 17.5v-247h-165z" />
    <glyph glyph-name="uni2777" unicode="&#x2777;" horiz-adv-x="1120" 
d="M60 300q0 136 66.5 251t182 182t251.5 67t251 -67t182 -182t67 -251t-67 -251.5t-182 -182t-251 -66.5q-102 0 -194.5 39.5t-159.5 106.5t-106.5 159.5t-39.5 194.5zM393 312l117 44q-19 24 -19 66q0 32 21.5 53.5t54.5 21.5q35 0 53.5 -21t18.5 -58q0 -66 -119 -159
q-29 -22 -155 -111v-97h401v105h-243q120 68 182.5 130t62.5 138q0 74 -54.5 123.5t-145.5 49.5q-87 0 -146.5 -49.5t-59.5 -125.5q0 -69 31 -110z" />
    <glyph glyph-name="uni2778" unicode="&#x2778;" horiz-adv-x="1120" 
d="M60 300q0 136 66.5 251t182 182t251.5 67t251 -67t182 -182t67 -251t-67 -251.5t-182 -182t-251 -66.5q-102 0 -194.5 39.5t-159.5 106.5t-106.5 159.5t-39.5 194.5zM560 27q100 0 163.5 44t63.5 124q0 52 -34 85t-92 38q46 11 74.5 42t28.5 79q0 70 -55 108t-144 38
q-84 0 -146 -48.5t-69 -125.5l120 -22q5 43 30.5 69.5t64.5 26.5q32 0 52 -15t20 -44q0 -32 -25 -49t-59 -17h-42v-93l6 1h15.5h19.5q42 0 72 -17t30 -54q0 -69 -92 -69q-40 0 -66.5 26.5t-31.5 69.5l-120 -22q7 -79 67.5 -127t148.5 -48z" />
    <glyph glyph-name="uni2779" unicode="&#x2779;" horiz-adv-x="1120" 
d="M60 300q0 136 66.5 251t182 182t251.5 67t251 -67t182 -182t67 -251t-67 -251.5t-182 -182t-251 -66.5q-102 0 -194.5 39.5t-159.5 106.5t-106.5 159.5t-39.5 194.5zM566 446v-198h-148zM566 51h125v95h75v102h-75v335h-138l-261 -347v-90h274v-95z" />
    <glyph glyph-name="uni277A" unicode="&#x277a;" horiz-adv-x="1120" 
d="M60 300q0 136 66.5 251t182 182t251.5 67t251 -67t182 -182t67 -251t-67 -251.5t-182 -182t-251 -66.5q-102 0 -194.5 39.5t-159.5 106.5t-106.5 159.5t-39.5 194.5zM562 25q97 0 155.5 50t58.5 142q0 78 -48.5 126.5t-126.5 48.5q-72 0 -112 -46l15 120h232v105h-327
l-32 -283l92 -33q33 45 97 45q78 0 78 -85q0 -90 -80 -90q-37 0 -64 26t-31 68l-115 -29q4 -76 62.5 -120.5t145.5 -44.5z" />
    <glyph glyph-name="uni277B" unicode="&#x277b;" horiz-adv-x="1120" 
d="M60 300q0 136 66.5 251t182 182t251.5 67t251 -67t182 -182t67 -251t-67 -251.5t-182 -182t-251 -66.5q-102 0 -194.5 39.5t-159.5 106.5t-106.5 159.5t-39.5 194.5zM567 484q29 0 48.5 -19.5t24.5 -47.5l123 27q-13 59 -64 99t-131 40q-110 0 -173.5 -75t-63.5 -213
q0 -125 61 -197t169 -72q93 0 150.5 51.5t57.5 137.5q0 77 -51 123t-128 46q-72 0 -128 -56q4 84 30 120t75 36zM558 127q-83 0 -94 123q33 43 94 43q79 0 79 -83t-79 -83z" />
    <glyph glyph-name="uni277C" unicode="&#x277c;" horiz-adv-x="1120" 
d="M60 300q0 136 66.5 251t182 182t251.5 67t251 -67t182 -182t67 -251t-67 -251.5t-182 -182t-251 -66.5q-102 0 -194.5 39.5t-159.5 106.5t-106.5 159.5t-39.5 194.5zM456 27h137q-7 122 37.5 249.5t116.5 201.5v82h-371v-105h253q-78 -65 -126 -181.5t-47 -246.5z" />
    <glyph glyph-name="uni277D" unicode="&#x277d;" horiz-adv-x="1120" 
d="M60 300q0 136 66.5 251t182 182t251.5 67t251 -67t182 -182t67 -251t-67 -251.5t-182 -182t-251 -66.5q-102 0 -194.5 39.5t-159.5 106.5t-106.5 159.5t-39.5 194.5zM561 26q97 0 158.5 40t61.5 114q0 59 -31.5 94t-81.5 44q98 26 98 122q0 64 -57.5 104.5t-143.5 40.5
q-90 -1 -148.5 -41t-58.5 -105q0 -98 98 -121q-49 -9 -83 -44.5t-34 -90.5q0 -75 62.5 -116t159.5 -41zM562 120q-42 0 -65.5 19.5t-23.5 56.5q0 38 23.5 60t65.5 22q40 0 63 -21.5t23 -60.5q0 -37 -22.5 -56.5t-63.5 -19.5zM562 358q-32 0 -51.5 19t-19.5 53q0 31 20 47
t52 16q31 0 51.5 -16t20.5 -47q0 -35 -20.5 -53.5t-52.5 -18.5z" />
    <glyph glyph-name="uni277E" unicode="&#x277e;" horiz-adv-x="1120" 
d="M60 300q0 136 66.5 251t182 182t251.5 67t251 -67t182 -182t67 -251t-67 -251.5t-182 -182t-251 -66.5q-102 0 -194.5 39.5t-159.5 106.5t-106.5 159.5t-39.5 194.5zM554 121q-29 0 -48.5 21t-24.5 50l-123 -27q12 -58 63.5 -97.5t131.5 -39.5q111 0 174.5 74t63.5 212
q0 126 -61.5 199t-169.5 73q-94 0 -151 -52.5t-57 -138.5q0 -78 51 -123.5t128 -45.5q73 0 128 55q-4 -85 -30 -122.5t-75 -37.5zM563 485q82 0 95 -125q-33 -43 -95 -43q-79 0 -79 83q0 42 21 63.5t58 21.5z" />
    <glyph glyph-name="uni277F" unicode="&#x277f;" horiz-adv-x="1120" 
d="M60 300q0 136 66.5 251t182 182t251.5 67t251 -67t182 -182t67 -251t-67 -251.5t-182 -182t-251 -66.5q-102 0 -194.5 39.5t-159.5 106.5t-106.5 159.5t-39.5 194.5zM300 556v-499h115v499h-115zM867 305q0 130 -52.5 195.5t-144.5 65.5t-144 -65.5t-52 -195.5t52 -194.5
t144 -64.5t144.5 65t52.5 194zM746 305q0 -165 -76 -165t-76 165q0 167 76 167t76 -167z" />
    <glyph glyph-name="uni2981" unicode="&#x2981;" horiz-adv-x="1120" 
d="M60 300q0 136 66.5 251t182 182t251.5 67t251 -67t182 -182t67 -251t-67 -251.5t-182 -182t-251 -66.5q-102 0 -194.5 39.5t-159.5 106.5t-106.5 159.5t-39.5 194.5z" />
    <glyph glyph-name="commaaccent" unicode="&#xf6c3;" horiz-adv-x="227" 
d="M177 -55v-94q0 -69 -27 -101.5t-100 -32.5v54q35 1 48 18t13 52v4h-60v100h126z" />
    <glyph glyph-name="apple" unicode="&#xf8ff;" horiz-adv-x="1266" 
d="M666 330q-11 0 -41 1.5t-39 1.5q-50 0 -76.5 -21t-47.5 -68q-28 -61 -68.5 -96t-108.5 -35q-13 0 -42.5 2t-40.5 2q-53 0 -84.5 -27t-31.5 -68v-22h-31v22q0 54 41.5 89.5t106.5 35.5q12 0 42.5 -2t40.5 -2q101 0 146 109q46 111 154 111q11 0 41 -1.5t39 -1.5
q52 0 83 25t54 75q26 56 63 87t101 31q13 0 42.5 -2t40.5 -2q57 0 93.5 32t36.5 75v22h31v-22q0 -57 -46.5 -97t-115.5 -40q-12 0 -42.5 2t-40.5 2q-51 0 -81.5 -23.5t-51.5 -71.5q-54 -123 -167 -123z" />
    <glyph glyph-name="ringacute" horiz-adv-x="332" 
d="M110 619q0 -24 15 -41.5t40 -17.5q24 0 38.5 17.5t14.5 41.5q0 26 -14.5 43.5t-38.5 17.5q-25 0 -40 -17.5t-15 -43.5zM69 685l99 147h151l-173 -105q5 1 19 1q50 0 82 -31t32 -78q0 -46 -32 -76.5t-82 -30.5q-51 0 -83 30.5t-32 76.5q0 39 19 66z" />
    <glyph glyph-name="commatop" horiz-adv-x="227" 
d="M50 554v94q0 69 27 101.5t100 32.5v-54q-35 -1 -48 -18t-13 -52v-4h60v-100h-126z" />
    <glyph glyph-name="caronslovak" horiz-adv-x="256" 
d="M50 432l30 195h126l-110 -195h-46z" />
    <glyph glyph-name="Jacute" horiz-adv-x="612" 
d="M286 -12q-121 0 -186.5 62.5t-65.5 160.5q0 55 15 96l137 -20q-11 -31 -11 -68q0 -51 28 -83t84 -32q58 0 87 42t29 117v364h138v-364q0 -134 -63.5 -204.5t-191.5 -70.5zM464 685h-64l62 143h153z" />
    <glyph glyph-name="Iacute_Jacute" horiz-adv-x="680" 
d="M214 370h-138v257h138v-257zM340 -10q-126 0 -195.5 65.5t-69.5 185.5h144q0 -137 122 -137q59 0 92.5 42.5t33.5 116.5v364h138v-364q0 -131 -67.5 -202t-197.5 -71zM532 696h-64l62 143h153zM141 696h-64l62 143h153z" />
    <glyph glyph-name="i.trk" horiz-adv-x="251" 
d="M207 0h-133v476h133v-476zM210 566h-139v103h139v-103z" />
    <glyph glyph-name="jacute" horiz-adv-x="277" 
d="M36 -183q-51 0 -94 17l22 91q21 -8 47 -8q32 0 46.5 19.5t14.5 75.5v464h133v-480q0 -96 -42 -137.5t-127 -41.5zM140 545h-64l62 143h153z" />
    <glyph glyph-name="zero.zero" horiz-adv-x="636" 
d="M581 313q0 -158 -73 -241.5t-190 -83.5t-190 83.5t-73 241.5t73 242t190 84t190 -84t73 -242zM189 313q0 -54 7 -92l215 263q-33 51 -93 51q-129 0 -129 -222zM447 313q0 47 -6 85l-214 -261q32 -45 91 -45q129 0 129 221z" />
    <glyph glyph-name="one.tf" 
d="M80 0v114h183v309q-18 -12 -65.5 -20.5t-97.5 -8.5v114q75 0 125.5 25.5t76.5 93.5h97v-513h146v-114h-465z" />
    <glyph glyph-name="two.tf" 
d="M225 362l-122 -46q-33 47 -33 120q0 91 66 147t167 56q103 0 165 -56.5t62 -147.5q0 -47 -19.5 -88.5t-63 -82.5t-86 -72t-116.5 -78h282v-114h-455v106l59.5 42.5l60 43l53 40t50.5 41t39.5 39t33.5 41.5t19 39.5t8 42.5q0 44 -26.5 70t-70.5 26q-40 0 -67.5 -26
t-27.5 -67q0 -43 22 -76z" />
    <glyph glyph-name="three.tf" 
d="M303 -12q-106 0 -176 55t-78 147l122 26q8 -57 43 -88.5t89 -31.5q51 0 80.5 24t29.5 66q0 86 -118 86h-48v102h50q42 1 69 20.5t27 59.5q0 36 -25.5 56.5t-70.5 20.5q-48 0 -79.5 -31t-39.5 -88l-122 26q8 92 78 146.5t166 54.5q101 0 164 -46t63 -129q0 -52 -32 -88
t-86 -49q64 -6 103.5 -45.5t39.5 -97.5q0 -94 -69.5 -145t-179.5 -51z" />
    <glyph glyph-name="four.tf" 
d="M340 225v256l-179 -256h179zM470 0h-133v119h-306v99l298 409h141v-402h89v-106h-89v-119z" />
    <glyph glyph-name="five.tf" 
d="M303 -12q-101 0 -173 56t-80 146l122 26q7 -56 43 -88t88 -32q50 0 80.5 28.5t30.5 85.5q0 53 -30.5 80t-78.5 27q-79 0 -122 -60l-99 39l38 331h368v-115h-264l-18 -149q51 50 136 50q88 0 146.5 -53t58.5 -149t-63 -159.5t-183 -63.5z" />
    <glyph glyph-name="six.tf" 
d="M316 531q-60 0 -92 -46t-36 -150q61 69 158 69q87 0 146 -52t59 -141q0 -100 -66 -161.5t-173 -61.5q-123 0 -192.5 84.5t-69.5 230.5q0 161 72 248.5t198 87.5q92 0 151 -47t70 -115l-125 -32q-6 36 -33 61t-67 25zM305 306q-79 0 -115 -58q7 -75 39 -113.5t80 -38.5
q45 0 75.5 30t30.5 79q0 50 -31 75.5t-79 25.5z" />
    <glyph glyph-name="seven.tf" 
d="M326 0h-144q-1 151 65.5 292.5t163.5 220.5h-340v114h461v-97q-90 -91 -152 -241.5t-54 -288.5z" />
    <glyph glyph-name="eight.tf" 
d="M300 639q100 0 165 -48t65 -128q0 -53 -29 -87t-79 -47q54 -9 92 -51.5t38 -102.5q0 -90 -70.5 -138.5t-181.5 -48.5t-181.5 48.5t-70.5 138.5q0 60 38 102.5t92 51.5q-50 13 -79 47t-29 87q0 80 65 128t165 48zM300 284q-49 0 -82 -27.5t-33 -70.5q0 -45 32.5 -71
t82.5 -26t82.5 26t32.5 71q0 43 -33 70.5t-82 27.5zM300 541q-41 0 -68.5 -22.5t-27.5 -60.5q0 -39 27.5 -62.5t68.5 -23.5t68.5 23.5t27.5 62.5q0 38 -27.5 60.5t-68.5 22.5z" />
    <glyph glyph-name="nine.tf" 
d="M284 96q120 0 128 195q-60 -68 -158 -68q-87 0 -146 52t-59 141q0 100 66 161.5t173 61.5q123 0 192.5 -84.5t69.5 -230.5q0 -161 -72 -248.5t-198 -87.5q-92 0 -151 47t-70 115l125 32q20 -86 100 -86zM295 321q77 0 115 57q-6 76 -38.5 114.5t-80.5 38.5q-45 0 -76 -30
t-31 -79q0 -50 31.5 -75.5t79.5 -25.5z" />
    <glyph glyph-name="zero.tf" 
d="M563 313q0 -158 -73 -241.5t-190 -83.5t-190 83.5t-73 241.5t73 242t190 84t190 -84t73 -242zM423 313q0 217 -123 217t-123 -217q0 -216 123 -216t123 216z" />
    <glyph glyph-name="zero.tf.zero" 
d="M563 313q0 -157 -73 -240t-190 -83t-190 83t-73 240t73 240.5t190 83.5t190 -83.5t73 -240.5zM171 313q0 -56 7 -92l215 263q-33 49 -93 49q-129 0 -129 -220zM429 313q0 41 -7 85l-212 -260q32 -44 90 -44q129 0 129 219z" />
    <glyph glyph-name="zero.osf" horiz-adv-x="582" 
d="M291 -12q-108 0 -177 63.5t-69 196.5t69 196t177 63t177 -63t69 -196t-69 -196.5t-177 -63.5zM291 85q53 0 82.5 42.5t29.5 120.5t-29.5 120.5t-82.5 42.5q-112 0 -112 -163q0 -78 29.5 -120.5t82.5 -42.5z" />
    <glyph glyph-name="one.osf" horiz-adv-x="465" 
d="M44 0v102h151v222q-68 -26 -137 -26v105q64 0 106 21t62 73h102v-395h112v-102h-396z" />
    <glyph glyph-name="two.osf" horiz-adv-x="565" 
d="M292 507q100 0 158.5 -48t58.5 -126q0 -66 -70 -119.5t-218 -107.5h294v-106h-470v100q213 107 262 141q66 46 67 92q0 34 -22 53.5t-60 19.5q-48 0 -79.5 -34.5t-34.5 -93.5l-124 26q7 92 73 147.5t165 55.5z" />
    <glyph glyph-name="three.osf" horiz-adv-x="559" 
d="M277 -144q-100 0 -169.5 55.5t-77.5 146.5l121 26q4 -57 40 -90.5t86 -33.5t79 25t29 69q0 86 -123 86h-48v100h50q104 2 104 82q0 40 -25 61t-69 21q-46 0 -76 -31t-37 -93l-122 26q8 92 76 146.5t162 54.5q100 0 162 -46t62 -129q0 -53 -32 -88.5t-91 -48.5
q66 -4 104.5 -43.5t38.5 -99.5q0 -94 -67.5 -145t-176.5 -51z" />
    <glyph glyph-name="four.osf" horiz-adv-x="588" 
d="M336 123v226l-182 -226h182zM465 -134h-129v154h-311v99l302 378h138v-374h89v-103h-89v-154z" />
    <glyph glyph-name="five.osf" horiz-adv-x="580" 
d="M290 -145q-98 0 -168.5 55.5t-77.5 143.5l120 27q4 -54 40 -87.5t86 -33.5q52 0 83.5 30t31.5 87q0 54 -31.5 82.5t-80.5 28.5q-73 0 -119 -64l-99 39l38 334h368v-106h-263l-19 -161q50 53 142 53q86 0 142 -53.5t56 -151.5q0 -104 -66 -163.5t-183 -59.5z" />
    <glyph glyph-name="six.osf" horiz-adv-x="579" 
d="M306 535q-57 0 -92.5 -50t-37.5 -154q60 73 160 73q85 0 141.5 -52t56.5 -141q0 -100 -64 -161.5t-168 -61.5q-121 0 -189 84.5t-68 230.5q0 161 70.5 248.5t194.5 87.5q89 0 145 -46t71 -116l-121 -32q-6 37 -32.5 63.5t-66.5 26.5zM295 312q-35 0 -66 -18.5t-49 -49.5
q7 -80 39 -118.5t80 -38.5q45 0 73 30.5t28 87.5q0 51 -29 79t-76 28z" />
    <glyph glyph-name="seven.osf" horiz-adv-x="485" 
d="M271 -134h-142q-1 159 57 305t154 220h-310v106h425v-97q-88 -85 -140.5 -236.5t-43.5 -297.5z" />
    <glyph glyph-name="eight.osf" horiz-adv-x="595" 
d="M297 639q99 0 162.5 -48t63.5 -128q0 -53 -28 -87t-77 -47q53 -9 90 -51t37 -103q0 -90 -69 -138.5t-179 -48.5q-109 0 -178 48.5t-69 138.5q0 61 37 103t90 51q-49 13 -77 47t-28 87q0 80 63.5 128t161.5 48zM297 286q-49 0 -82 -28t-33 -72q0 -46 33 -73.5t84 -27.5
q50 0 82 27.5t32 73.5q0 44 -33 72t-83 28zM297 545q-41 0 -69 -24t-28 -63q0 -40 28 -64t69 -24q42 0 70 24t28 64q0 39 -28 63t-70 24z" />
    <glyph glyph-name="nine.osf" horiz-adv-x="579" 
d="M273 -39q57 0 92.5 50t37.5 154q-60 -73 -160 -73q-85 0 -141.5 52t-56.5 141q0 100 64 161.5t168 61.5q121 0 189 -84.5t68 -230.5q0 -161 -70.5 -248.5t-194.5 -87.5q-89 0 -145 46t-71 116l121 32q6 -37 32 -63.5t67 -26.5zM284 184q35 0 66 18.5t49 49.5
q-7 80 -39 118.5t-80 38.5q-45 0 -73 -30.5t-28 -87.5q0 -51 29 -79t76 -28z" />
    <glyph glyph-name="bar.case" horiz-adv-x="271" 
d="M85 -165v940h101v-940h-101z" />
    <glyph glyph-name="hyphen.case" horiz-adv-x="333" 
d="M45 256v94h243v-94h-243z" />
    <glyph glyph-name="endash.case" horiz-adv-x="500" 
d="M45 259v82h410v-82h-410z" />
    <glyph glyph-name="emdash.case" horiz-adv-x="1000" 
d="M45 259v82h910v-82h-910z" />
    <glyph glyph-name="slash.case" horiz-adv-x="403" 
d="M5 -164l295 939h98l-294 -939h-99z" />
    <glyph glyph-name="backslash.case" horiz-adv-x="403" 
d="M103 775l295 -939h-99l-294 939h98z" />
    <glyph glyph-name="parenleft.case" horiz-adv-x="326" 
d="M311 -115l-59 -41q-182 189 -182 462q0 275 182 461l59 -40q-120 -193 -120 -421q0 -202 120 -421z" />
    <glyph glyph-name="parenright.case" horiz-adv-x="326" 
d="M74 -156l-59 41q118 220 118 421q0 228 -118 421l59 40q182 -186 182 -461q0 -273 -182 -462z" />
    <glyph glyph-name="bracketleft.case" horiz-adv-x="303" 
d="M85 -164v939h203v-75h-90v-789h90v-75h-203z" />
    <glyph glyph-name="bracketright.case" horiz-adv-x="303" 
d="M218 775v-939h-203v75h90v789h-90v75h203z" />
    <glyph glyph-name="braceleft.case" horiz-adv-x="324" 
d="M172 305q52 -10 70.5 -37t18.5 -71q0 -34 -23 -116.5t-23 -109.5q0 -66 48 -66q19 0 37 4l9 -67q-26 -7 -59 -7q-74 0 -111 31t-37 105q0 36 25 113.5t25 103.5q0 79 -87 79v75q87 0 87 79q0 26 -25 103.5t-25 113.5q0 74 37 105t111 31q33 0 59 -7l-9 -67q-18 4 -37 4
q-48 0 -48 -66q0 -27 23 -109.5t23 -116.5q0 -43 -18.5 -70t-70.5 -37z" />
    <glyph glyph-name="braceright.case" horiz-adv-x="324" 
d="M259 267q-87 0 -87 -79q0 -26 25 -103.5t25 -113.5q0 -74 -37 -105t-111 -31q-33 0 -59 7l9 67q18 -4 37 -4q48 0 48 66q0 27 -23 109.5t-23 116.5q0 44 18.5 71t70.5 37q-52 10 -70.5 37t-18.5 70q0 34 23 116.5t23 109.5q0 66 -48 66q-19 0 -37 -4l-9 67q26 7 59 7
q74 0 111 -31t37 -105q0 -36 -25 -113.5t-25 -103.5q0 -79 87 -79v-75z" />
    <glyph glyph-name="guilsinglleft.case" horiz-adv-x="326" 
d="M170 119l-125 180l125 179h91l-98 -179l98 -180h-91z" />
    <glyph glyph-name="guilsinglright.case" horiz-adv-x="326" 
d="M281 299l-125 -180h-91l98 180l-98 179h91z" />
    <glyph glyph-name="guillemotleft.case" horiz-adv-x="543" 
d="M170 119l-125 180l125 179h91l-98 -179l98 -180h-91zM387 119l-125 180l125 179h91l-98 -179l98 -180h-91z" />
    <glyph glyph-name="guillemotright.case" horiz-adv-x="543" 
d="M281 299l-125 -180h-91l98 180l-98 179h91zM498 299l-125 -180h-91l98 180l-98 179h91z" />
    <glyph glyph-name="exclamdown.case" horiz-adv-x="314" 
d="M123 412h69l36 -186v-226h-141v226zM90 627h136v-136h-136v136z" />
    <glyph glyph-name="questiondown.case" horiz-adv-x="568" 
d="M390 220l129 7q4 -17 4 -40q0 -88 -64.5 -143.5t-179.5 -55.5q-107 0 -170.5 48t-63.5 127q0 57 31.5 92.5t91.5 66.5q81 43 87 92l3 24h82l4 -16q7 -33 7 -46q0 -37 -17 -65.5t-70 -60.5q-49 -30 -65 -45.5t-16 -41.5q0 -29 26.5 -47t70.5 -18q46 0 79 27.5t33 74.5
q0 6 -2 20zM233 627h136v-136h-136v136z" />
    <glyph glyph-name="bar.salt" horiz-adv-x="221" 
d="M126 -195h-31v940h31v-940z" />
    <glyph glyph-name="brokenbar.salt" horiz-adv-x="221" 
d="M126 341h-31v404h31v-404zM126 -194h-31v404h31v-404z" />
    <glyph glyph-name="hyphen.salt" horiz-adv-x="364" 
d="M55 241v31h254v-31h-254z" />
    <glyph glyph-name="uni00AD.salt" horiz-adv-x="364" 
d="M55 241v31h254v-31h-254z" />
    <glyph glyph-name="endash.salt" horiz-adv-x="500" 
d="M55 241v31h390v-31h-390z" />
    <glyph glyph-name="emdash.salt" horiz-adv-x="1000" 
d="M55 241v31h890v-31h-890z" />
    <glyph glyph-name="underscore.salt" horiz-adv-x="500" 
d="M55 -89v31h390v-31h-390z" />
    <glyph glyph-name="asciitilde.salt" 
d="M400 192q38 0 56.5 29.5t22.5 102.5h31q-3 -86 -30.5 -124.5t-79.5 -38.5q-24 0 -47.5 13.5t-41.5 33l-35.5 39t-37.5 33t-39 13.5q-37 0 -55.5 -29t-22.5 -103h-31q3 86 30 124.5t79 38.5q24 0 47.5 -13.5t41.5 -33l35.5 -39t37.5 -33t39 -13.5z" />
    <glyph glyph-name="plus.salt" 
d="M316 50h-31v203h-200v31h200v202h31v-202h199v-31h-199v-203z" />
    <glyph glyph-name="plusminus.salt" 
d="M315 157h-31v192h-189v31h189v193h31v-193h189v-31h-189v-192zM504 31v-31h-409v31h409z" />
    <glyph glyph-name="minus.salt" 
d="M485 284v-31h-370v31h370z" />
    <glyph glyph-name="divide.salt" 
d="M505 284v-31h-410v31h410zM360 0h-136v136h136v-136zM360 401h-136v136h136v-136z" />
    <glyph glyph-name="multiply.salt" 
d="M141 68l-23 21l161 182l-161 183l23 21l158 -180l159 180l23 -21l-161 -183l161 -182l-23 -21l-159 180z" />
    <glyph glyph-name="equal.salt" 
d="M485 161v-31h-370v31h370zM485 406v-31h-370v31h370z" />
    <glyph glyph-name="notequal.salt" 
d="M222 -46l-30 9l51 167h-128v31h138l66 214h-204v31h214l50 161l30 -9l-47 -152h123v-31h-133l-66 -214h199v-31h-209z" />
    <glyph glyph-name="approxequal.salt" 
d="M400 76q38 0 56.5 29.5t22.5 102.5h31q-3 -86 -30.5 -124.5t-79.5 -38.5q-24 0 -47.5 13.5t-41.5 33l-35.5 39t-37.5 33t-39 13.5q-37 0 -55.5 -29t-22.5 -103h-31q3 86 30 124.5t79 38.5q24 0 47.5 -13.5t41.5 -33l35.5 -39t37.5 -33t39 -13.5zM400 330q38 0 56.5 29.5
t22.5 102.5h31q-3 -86 -30.5 -124.5t-79.5 -38.5q-24 0 -47.5 13.5t-41.5 33l-35.5 39t-37.5 33t-39 13.5q-37 0 -55.5 -29t-22.5 -103h-31q3 86 30 124.5t79 38.5q24 0 47.5 -13.5t41.5 -33l35.5 -39t37.5 -33t39 -13.5z" />
    <glyph glyph-name="less.salt" 
d="M103 286l380 200l14 -29l-358 -187l358 -187l-14 -29l-380 200v32z" />
    <glyph glyph-name="greater.salt" 
d="M117 486l380 -200v-32l-380 -200l-14 29l358 187l-358 187z" />
    <glyph glyph-name="lessequal.salt" 
d="M95 382l380 180l12 -29l-355 -167l355 -167l-12 -29l-380 180v32zM505 31v-31h-410v31h410z" />
    <glyph glyph-name="greaterequal.salt" 
d="M125 562l380 -180v-32l-380 -180l-12 29l355 167l-355 167zM95 0v31h410v-31h-410z" />
    <glyph glyph-name="exclam.salt" horiz-adv-x="303" 
d="M166 246h-31v381h31v-381zM217 0h-131v136h131v-136z" />
    <glyph glyph-name="exclamdown.salt" horiz-adv-x="303" 
d="M136 230h31v-381h-31v381zM86 476h131v-136h-131v136z" />
    <glyph glyph-name="question.salt" horiz-adv-x="460" 
d="M234 234h-31v28q0 16 5.5 31t10 24t20.5 22l20.5 16.5t28 18t25.5 15.5q23 14 35.5 25t24 32t11.5 47q0 53 -39.5 84.5t-110.5 31.5q-67 0 -112 -38.5t-45 -108.5v-11h-32v13q0 78 54.5 126.5t135.5 48.5q83 0 131.5 -39.5t48.5 -106.5q0 -26 -8 -48t-23.5 -37.5
t-27.5 -25t-29 -19.5l-25 -15l-23.5 -14t-17.5 -13t-15 -16.5t-8 -19t-4 -24.5v-27zM287 0h-131v136h131v-136z" />
    <glyph glyph-name="questiondown.salt" horiz-adv-x="460" 
d="M226 242h31v-28q0 -16 -5.5 -31t-10 -24t-20.5 -22l-20.5 -16.5t-28 -18t-25.5 -15.5q-23 -14 -35.5 -25t-24 -32t-11.5 -47q0 -53 39.5 -84.5t110.5 -31.5q67 0 112 38.5t45 108.5v11h32v-13q0 -78 -54.5 -126.5t-135.5 -48.5q-83 0 -131.5 39.5t-48.5 106.5q0 26 8 48
t23.5 37.5t27.5 25t29 19.5l25 15l23.5 14t17.5 13t15 16.5t8 19t4 24.5v27zM173 476h131v-136h-131v136z" />
    <glyph glyph-name="quotesingle.salt" horiz-adv-x="221" 
d="M95 410v260h31v-260h-31z" />
    <glyph glyph-name="quotedbl.salt" horiz-adv-x="357" 
d="M95 410v260h31v-260h-31zM231 410v260h31v-260h-31z" />
    <glyph glyph-name="comma.salt" horiz-adv-x="296" 
d="M216 2l-100 -174l-26 15l91 157h-96v136h131v-134z" />
    <glyph glyph-name="period.salt" horiz-adv-x="296" 
d="M216 0h-131v136h131v-136z" />
    <glyph glyph-name="ellipsis.salt" horiz-adv-x="915" 
d="M835 0h-131v136h131v-136zM216 0h-131v136h131v-136zM524 0h-131v136h131v-136z" />
    <glyph glyph-name="colon.salt" horiz-adv-x="296" 
d="M216 340h-131v136h131v-136zM216 0h-131v136h131v-136z" />
    <glyph glyph-name="semicolon.salt" horiz-adv-x="296" 
d="M216 340h-131v136h131v-136zM216 2l-100 -174l-26 15l91 157h-96v136h131v-134z" />
    <glyph glyph-name="periodcentered.salt" horiz-adv-x="296" 
d="M216 188h-131v136h131v-136z" />
    <glyph glyph-name="uni2219.salt" horiz-adv-x="296" 
d="M216 188h-131v136h131v-136z" />
    <glyph glyph-name="bullet.salt" horiz-adv-x="367" 
d="M90 259q0 42 26 68t68 26t67.5 -25.5t25.5 -68.5t-25.5 -68.5t-67.5 -25.5t-68 25.5t-26 68.5zM121 259q0 -29 17 -46.5t46 -17.5q28 0 45 17.5t17 46.5t-17 46.5t-45 17.5t-45.5 -18t-17.5 -46z" />
    <glyph glyph-name="quoteleft.salt" horiz-adv-x="296" 
d="M80 515l100 174l26 -15l-91 -157h96v-136h-131v134z" />
    <glyph glyph-name="quotedblleft.salt" horiz-adv-x="494" 
d="M80 515l100 174l26 -15l-91 -157h96v-136h-131v134zM278 515l100 174l26 -15l-91 -157h96v-136h-131v134z" />
    <glyph glyph-name="quoteright.salt" horiz-adv-x="296" 
d="M216 536l-100 -174l-26 15l91 157h-96v136h131v-134z" />
    <glyph glyph-name="quotedblright.salt" horiz-adv-x="494" 
d="M216 536l-100 -174l-26 15l91 157h-96v136h131v-134zM414 536l-100 -174l-26 15l91 157h-96v136h131v-134z" />
    <glyph glyph-name="quotesinglbase.salt" horiz-adv-x="296" 
d="M216 2l-100 -174l-26 15l91 157h-96v136h131v-134z" />
    <glyph glyph-name="quotedblbase.salt" horiz-adv-x="494" 
d="M216 2l-100 -174l-26 15l91 157h-96v136h131v-134zM414 2l-100 -174l-26 15l91 157h-96v136h131v-134z" />
    <glyph glyph-name="guilsinglleft.salt" horiz-adv-x="264" 
d="M94 238l95 -184l-27 -14l-107 198l107 198l27 -14z" />
    <glyph glyph-name="guilsinglright.salt" horiz-adv-x="264" 
d="M75 54l95 184l-95 184l27 14l107 -198l-107 -198z" />
    <glyph glyph-name="guillemotleft.salt" horiz-adv-x="427" 
d="M94 238l95 -184l-27 -14l-107 198l107 198l27 -14zM257 238l95 -184l-27 -14l-107 198l107 198l27 -14z" />
    <glyph glyph-name="guillemotright.salt" horiz-adv-x="427" 
d="M75 54l95 184l-95 184l27 14l107 -198l-107 -198zM238 54l95 184l-95 184l27 14l107 -198l-107 -198z" />
    <glyph glyph-name="slash.salt" horiz-adv-x="333" 
d="M35 -195l-30 9l293 930l30 -9z" />
    <glyph glyph-name="backslash.salt" horiz-adv-x="333" 
d="M328 -186l-30 -9l-293 930l30 9z" />
    <glyph glyph-name="uni2215.salt" horiz-adv-x="115" 
d="M-176 -10l-24 20l491 626l24 -19z" />
    <glyph glyph-name="fraction.salt" horiz-adv-x="115" 
d="M-176 -10l-24 20l491 626l24 -19z" />
    <glyph glyph-name="parenleft.salt" horiz-adv-x="288" 
d="M80 273q0 153 47.5 276t127.5 192l18 -23q-82 -70 -122 -195t-40 -250t40 -250t122 -195l-18 -23q-80 69 -127.5 192t-47.5 276z" />
    <glyph glyph-name="parenright.salt" horiz-adv-x="288" 
d="M208 273q0 -153 -47.5 -276t-127.5 -192l-18 23q82 70 122 195t40 250t-40 250t-122 195l18 23q80 -69 127.5 -192t47.5 -276z" />
    <glyph glyph-name="bracketleft.salt" horiz-adv-x="252" 
d="M90 -194v939h147v-30h-116v-879h116v-30h-147z" />
    <glyph glyph-name="bracketright.salt" horiz-adv-x="252" 
d="M162 745v-939h-147v30h116v879h-116v30h147z" />
    <glyph glyph-name="braceleft.salt" horiz-adv-x="314" 
d="M80 260v30q55 7 76.5 33.5t21.5 71.5q0 29 -37 110.5t-37 132.5q0 59 30.5 87t76.5 28q53 0 88 -25l-13 -26q-33 21 -72 21q-79 0 -79 -85q0 -47 37 -126.5t37 -122.5q0 -92 -76 -114q76 -22 76 -114q0 -43 -37 -122.5t-37 -126.5q0 -85 79 -85q39 0 72 21l13 -26
q-35 -25 -88 -25q-46 0 -76.5 28t-30.5 87q0 51 37 132.5t37 110.5q0 45 -21.5 71.5t-76.5 33.5z" />
    <glyph glyph-name="braceright.salt" horiz-adv-x="314" 
d="M234 290v-30q-55 -7 -76.5 -33.5t-21.5 -71.5q0 -29 37 -110.5t37 -132.5q0 -59 -30.5 -87t-76.5 -28q-53 0 -88 25l13 26q33 -21 72 -21q79 0 79 85q0 47 -37 126.5t-37 122.5q0 92 76 114q-76 22 -76 114q0 43 37 122.5t37 126.5q0 85 -79 85q-39 0 -72 -21l-13 26
q35 25 88 25q46 0 76.5 -28t30.5 -87q0 -51 -37 -132.5t-37 -110.5q0 -45 21.5 -71.5t76.5 -33.5z" />
    <glyph glyph-name="ordfeminine.salt" horiz-adv-x="446" 
d="M338 303q-77 0 -77 83v10q-10 -41 -42 -67t-78 -26q-42 0 -69 20t-27 60q0 29 13 49t41.5 32t57 18.5t75.5 12.5l15 2v24q0 54 -42 54q-48 0 -50 -60v-2l-94 5v6q0 55 39.5 85t104.5 30t104 -31t39 -89v-6l-4 -113q-2 -34 26 -34q12 0 21 3l10 -55q-22 -11 -63 -11z
M59 207v31h301v-31h-301zM182 365q21 0 39.5 13.5t27.5 34.5v42l-19 -2q-80 -10 -80 -57q0 -31 32 -31z" />
    <glyph glyph-name="ordmasculine.salt" horiz-adv-x="425" 
d="M213 305q-73 0 -120.5 41t-47.5 126t47.5 126t120.5 41t120 -41t47 -126t-47 -126t-120 -41zM213 369q31 0 47.5 27t16.5 76t-16.5 76.5t-47.5 27.5t-47.5 -27.5t-16.5 -76.5t16.5 -76t47.5 -27zM62 207v31h300v-31h-300z" />
    <glyph glyph-name="dagger.salt" horiz-adv-x="411" 
d="M221 154h-31v320h-145v31h145v165h31v-165h145v-31h-145v-320z" />
    <glyph glyph-name="daggerdbl.salt" horiz-adv-x="411" 
d="M221 0h-31v165h-145v31h145v278h-145v31h145v165h31v-165h145v-31h-145v-278h145v-31h-145v-165z" />
    <glyph glyph-name="degree.salt" horiz-adv-x="364" 
d="M45 502q0 61 39 99t98 38q60 0 98.5 -38t38.5 -99q0 -62 -38.5 -100t-98.5 -38q-59 0 -98 38t-39 100zM77 502q0 -50 30 -79t75 -29q46 0 76 29t30 79q0 49 -30 78t-76 29q-44 0 -74.5 -29.5t-30.5 -77.5z" />
    <glyph glyph-name="asterisk.salt" horiz-adv-x="497" 
d="M367 263l-116 161l-118 -163l-25 18l117 162l-190 61l9 30l190 -62v200h31v-200l187 61l10 -29l-187 -61l117 -159z" />
    <glyph glyph-name="asciicircum.salt" horiz-adv-x="463" 
d="M247 627l181 -300l-26 -18l-171 285l-170 -285l-26 18l180 300h32z" />
    <glyph glyph-name="ampersand.salt" horiz-adv-x="738" 
d="M185 -12q-62 0 -98.5 36.5t-36.5 89.5q0 30 12 58.5t26 47.5t45 43.5t48 36l55 35.5q-73 103 -73 166q0 58 37.5 98t104.5 40q62 0 99 -34.5t37 -85.5q0 -56 -37.5 -95.5t-124.5 -96.5l112 -150q62 94 94 126q73 74 173 74h17v-30h-19q-25 0 -49 -7t-41 -14t-38.5 -26.5
t-31.5 -29.5t-31 -39t-26.5 -37.5l-27.5 -42.5q95 -133 180 -133q44 0 64.5 23t20.5 60v6h30v-9q0 -48 -28.5 -79t-86.5 -31q-100 0 -199 136q-91 -136 -207 -136zM186 18q93 0 187 132l-119 161q-95 -62 -124 -92q-49 -49 -49 -105q0 -42 28.5 -69t76.5 -27zM194 502
q0 -59 67 -151q38 24 58.5 39t44.5 36.5t35 44t11 47.5q0 40 -30 65.5t-76 25.5q-52 0 -81 -31.5t-29 -75.5z" />
    <glyph glyph-name="at.salt" horiz-adv-x="964" 
d="M687 22q-41 0 -70 24.5t-30 67.5q-61 -92 -164 -92q-24 0 -48 8t-47 25t-37 50t-14 78q0 118 67.5 199t165.5 81q52 0 91.5 -27t44.5 -71l23 75h32l-76 -254q-9 -31 -9 -55q0 -39 19.5 -59.5t51.5 -20.5q66 0 121 66t55 177q0 153 -96.5 247.5t-260.5 94.5
q-75 0 -146.5 -27t-129.5 -76.5t-93.5 -129t-35.5 -175.5q0 -177 105.5 -279t275.5 -102q112 0 214 60l14 -27q-103 -63 -225 -63q-188 0 -301.5 110t-113.5 301q0 135 63 236.5t161 151.5t213 50q179 0 283 -104t104 -265q0 -125 -64 -200t-143 -75zM511 434
q-85 0 -144 -72.5t-59 -178.5q0 -72 37 -102t84 -30q49 0 95 33t67 100l29 92q6 20 6 44q0 52 -33 83t-82 31z" />
    <glyph glyph-name="numbersign.salt" 
d="M99 408v31h111l30 192l32 -4l-29 -188h153l30 192l31 -4l-29 -188h106v-31h-111l-29 -189h107v-31h-111l-29 -188l-31 5l28 183h-154l-29 -188l-31 5l28 183h-107v31h112l29 189h-107zM238 408l-29 -189h154l29 189h-154z" />
    <glyph glyph-name="dollar.salt" horiz-adv-x="546" 
d="M207 -125v152q-71 19 -111.5 70.5t-40.5 122.5h30q0 -58 32 -101.5t90 -60.5v255q-135 29 -135 135q0 55 34.5 97t100.5 58v131h30v-126q19 3 42 3q16 0 46 -4v127h30v-135q60 -20 95.5 -67.5t35.5 -110.5h-31q-2 50 -28 89t-72 57v-247q68 -14 102 -45.5t34 -93.5
q0 -61 -35.5 -101.5t-100.5 -54.5v-150h-30v145q-28 -2 -44 -2q-23 0 -44 3v-146h-30zM325 295l-88 12v-256q21 -3 44 -3t44 3v244zM325 325v251q-25 5 -46 5q-23 0 -42 -3v-241q21 -5 88 -12zM461 181q0 48 -27 73.5t-79 35.5v-234q106 28 106 125zM103 448q0 -81 104 -105
v229q-51 -14 -77.5 -47.5t-26.5 -76.5z" />
    <glyph glyph-name="cent.salt" horiz-adv-x="553" 
d="M267 -145v132q-89 6 -145.5 75.5t-56.5 174.5t56.5 174.5t145.5 75.5v137h29v-136q82 -5 134.5 -59t57.5 -113h-31q-7 49 -49.5 92.5t-111.5 48.5v-441q69 5 111.5 48.5t49.5 93.5h31q-5 -60 -57 -113.5t-135 -58.5v-131h-29zM96 237q0 -94 47.5 -154.5t123.5 -66.5v441
q-76 -6 -123.5 -66t-47.5 -154z" />
    <glyph glyph-name="sterling.salt" horiz-adv-x="614" 
d="M505 226l27 15q25 -43 25 -99q0 -69 -33 -110.5t-98 -41.5q-38 0 -69.5 20t-72.5 58q-47 -78 -140 -78q-46 0 -77.5 25t-31.5 71q0 45 31 71.5t74 26.5q60 0 133 -65q5 18 5 35q0 60 -59 132h-128v29h102q-71 88 -71 164t52.5 118t130.5 42q96 0 143.5 -49.5t47.5 -127.5
q0 -28 -6 -56l-30 4q5 22 5 53q0 66 -40 106.5t-120 40.5q-64 0 -108 -33.5t-44 -96.5q0 -71 78 -165h199v-29h-175q53 -75 53 -132q0 -26 -10 -58q28 -27 42.5 -39t39 -25t46.5 -13q48 0 74 33.5t26 89.5q0 46 -21 84zM140 154q-33 0 -53.5 -19t-20.5 -49q0 -32 22 -49.5
t55 -17.5q81 0 119 71q-72 64 -122 64z" />
    <glyph glyph-name="yen.salt" horiz-adv-x="518" 
d="M37 324v30h130l-142 270l28 13l206 -396l206 396l28 -14l-141 -269h127v-30h-143l-46 -88h189v-30h-204v-206h-31v206h-207v30h191l-46 88h-145z" />
    <glyph glyph-name="florin.salt" 
d="M163 322v29h121v120q0 90 30.5 128t89.5 38q51 0 84 -31l-17 -25q-26 26 -68 26t-65 -29t-23 -108v-119h121v-29h-121v-166q0 -90 -30.5 -128t-89.5 -38q-51 0 -84 31l17 25q26 -26 68 -26t65 29t23 108v165h-121z" />
    <glyph glyph-name="Euro.salt" horiz-adv-x="639" 
d="M56 361v29h75q15 119 76 184t157 65q99 0 158.5 -62.5t59.5 -163.5h-29q0 89 -51 143t-138 54q-85 0 -136.5 -56.5t-65.5 -163.5h289v-29h-292q-1 -16 -1 -48q0 -21 2 -57h291v-28h-288q15 -103 66.5 -157t134.5 -54q87 0 138 54t51 143h29q0 -101 -59.5 -163.5
t-158.5 -62.5q-94 0 -154 62.5t-77 177.5h-77v28h73q-2 36 -2 57q0 32 1 48h-72z" />
    <glyph glyph-name="section.salt" 
d="M310 -185q-78 0 -128 48.5t-50 127.5h31q0 -67 41 -106.5t107 -39.5q56 0 91 31t35 81q0 40 -23.5 66t-73.5 45l-139 55q-62 24 -94 58t-32 89q0 47 27.5 83t66.5 51q-39 37 -39 93q0 61 43.5 101.5t115.5 40.5q78 0 128 -48.5t50 -127.5h-31q0 67 -41 106.5t-107 39.5
q-56 0 -91.5 -31t-35.5 -81q0 -40 24 -66t74 -45l139 -55q62 -24 94 -58.5t32 -88.5q0 -47 -28 -83t-67 -51q39 -37 39 -93q0 -61 -43 -101.5t-115 -40.5zM253 356q-34 12 -59 29q-42 -13 -65.5 -44.5t-23.5 -71.5q0 -43 26.5 -69.5t78.5 -47.5l136 -54q39 -16 59 -29
q42 13 65.5 44t23.5 72q0 43 -26.5 69.5t-78.5 47.5z" />
    <glyph glyph-name="currency.salt" horiz-adv-x="700" 
d="M608 14l-22 -22l-80 79q-66 -57 -157 -57t-158 57l-78 -79l-22 22l78 79q-60 66 -60 158t60 157l-78 78l22 22l78 -78q68 58 158 58t158 -58l78 79l22 -22l-78 -78q61 -67 61 -158q0 -92 -61 -159zM349 43q88 0 149 60.5t61 147.5t-61 147.5t-149 60.5q-87 0 -148 -60.5
t-61 -147.5t61 -147.5t148 -60.5z" />
    <glyph glyph-name="paragraph.salt" horiz-adv-x="592" 
d="M339 246h-30q-234 0 -234 191q0 190 234 190h61v-800h-31v419zM309 277h28l3 319h-31q-203 0 -203 -159q0 -160 203 -160zM466 -173v800h31v-800h-31z" />
    <glyph glyph-name="registered.salt" horiz-adv-x="580" 
d="M520 452q0 -97 -66.5 -162.5t-164.5 -65.5q-97 0 -163 65.5t-66 162.5t66 162.5t163 65.5q98 0 164.5 -65.5t66.5 -162.5zM91 452q0 -85 57 -141.5t141 -56.5q85 0 142.5 56.5t57.5 141.5t-57.5 141.5t-142.5 56.5q-84 0 -141 -56.5t-57 -141.5zM390 347h-34q-6 9 -10 33
t-14 39t-34 15h-53v-87h-31v219h79q88 0 88 -62q0 -47 -53 -56q26 -2 35 -20q5 -9 12 -38t15 -43zM290 463q60 0 60 39q0 35 -63 35h-42v-74h45z" />
    <glyph glyph-name="percent.salt" horiz-adv-x="798" 
d="M346 460q0 -82 -42 -128t-103 -46q-62 0 -104 46t-42 128t42 128.5t104 46.5q61 0 103 -46.5t42 -128.5zM166 -10l-24 20l491 626l24 -19zM315 460q0 67 -32.5 106t-81.5 39q-50 0 -83 -39t-33 -106t33 -105.5t83 -38.5q49 0 81.5 38.5t32.5 105.5zM743 166
q0 -82 -42 -128t-103 -46q-62 0 -104 46t-42 128t42 128.5t104 46.5q61 0 103 -46.5t42 -128.5zM712 166q0 67 -32.5 106t-81.5 39q-50 0 -83 -39t-33 -106t33 -105.5t83 -38.5q49 0 81.5 38.5t32.5 105.5z" />
    <glyph glyph-name="perthousand.salt" horiz-adv-x="1136" 
d="M346 460q0 -82 -42 -128t-103 -46q-62 0 -104 46t-42 128t42 128.5t104 46.5q61 0 103 -46.5t42 -128.5zM166 -10l-24 20l491 626l24 -19zM315 460q0 67 -32.5 106t-81.5 39q-50 0 -83 -39t-33 -106t33 -105.5t83 -38.5q49 0 81.5 38.5t32.5 105.5zM743 166
q0 -82 -42 -128t-103 -46q-62 0 -104 46t-42 128t42 128.5t104 46.5q61 0 103 -46.5t42 -128.5zM712 166q0 67 -32.5 106t-81.5 39q-50 0 -83 -39t-33 -106t33 -105.5t83 -38.5q49 0 81.5 38.5t32.5 105.5zM1081 166q0 -82 -42 -128t-103 -46q-62 0 -104 46t-42 128
t42 128.5t104 46.5q61 0 103 -46.5t42 -128.5zM1050 166q0 67 -32.5 106t-81.5 39q-50 0 -83 -39t-33 -106t33 -105.5t83 -38.5q49 0 81.5 38.5t32.5 105.5z" />
    <glyph glyph-name="copyright.salt" horiz-adv-x="778" 
d="M388 -12q-136 0 -232 94.5t-96 229.5q0 137 96 232t232 95q137 0 233.5 -95t96.5 -232q0 -135 -96.5 -229.5t-233.5 -94.5zM388 17q124 0 211.5 86.5t87.5 208.5q0 124 -87.5 211t-211.5 87q-122 0 -209.5 -87t-87.5 -211q0 -122 87.5 -208.5t209.5 -86.5zM235 315
q0 82 46 124t111 42q60 0 98.5 -32t46.5 -82l-32 -5q-4 39 -35 64.5t-79 25.5t-86.5 -34.5t-38.5 -102.5t39 -103t86 -35q48 0 79 25.5t35 64.5l32 -5q-8 -50 -46.5 -82t-98.5 -32q-65 0 -111 42.5t-46 124.5z" />
    <glyph glyph-name="trademark.salt" horiz-adv-x="627" 
d="M328 343h-31v284h38l89 -162l91 162h37v-284h-31v236l-81 -146h-31l-81 146v-236zM154 343h-31v254h-93v30h218v-30h-94v-254z" />
    <glyph glyph-name="infinity.salt" horiz-adv-x="729" 
d="M208 392q40 0 82 -25.5t74 -87.5q31 61 74 87t83 26q62 0 107.5 -38t45.5 -111q0 -74 -45.5 -112t-107.5 -38q-98 0 -156 112q-32 -61 -74.5 -86.5t-82.5 -25.5q-62 0 -107.5 38t-45.5 111q0 74 45.5 112t107.5 38zM643 243q0 56 -36 87.5t-85 31.5q-38 0 -77 -27.5
t-64 -91.5q25 -64 63.5 -92t77.5 -28q49 0 85 31.5t36 88.5zM86 242q0 -56 36.5 -87.5t85.5 -31.5q38 0 76.5 28t63.5 91q-25 64 -63.5 92t-76.5 28q-49 0 -85.5 -31.5t-36.5 -88.5z" />
    <glyph glyph-name="logicalnot.salt" 
d="M505 30h-31v223h-379v31h410v-254z" />
    <glyph glyph-name="radical.salt" 
d="M55 476h154l134 -433l172 594l30 -8l-182 -629h-38l-139 445h-131v31z" />
    <glyph glyph-name="integral.salt" horiz-adv-x="507" 
d="M238 -16v530q0 90 30.5 128t89.5 38q51 0 84 -31l-17 -24q-25 25 -68 25q-42 0 -65 -29t-23 -108v-530q0 -90 -30.5 -128t-89.5 -38q-51 0 -84 31l17 24q25 -25 68 -25q42 0 65 29t23 108z" />
    <glyph glyph-name="grave.salt" horiz-adv-x="309" 
d="M70 661l184 -94l-14 -27l-185 94z" />
    <glyph glyph-name="acute.salt" horiz-adv-x="309" 
d="M254 634l-184 -94l-15 27l185 94z" />
    <glyph glyph-name="dieresis.salt" horiz-adv-x="418" 
d="M180 559h-125v30h125v-30zM363 559h-125v30h125v-30z" />
    <glyph glyph-name="circumflex.salt" horiz-adv-x="378" 
d="M55 564l134 93l134 -93l-18 -25l-116 80l-116 -80z" />
    <glyph glyph-name="tilde.salt" horiz-adv-x="372" 
d="M244 570q37 0 42 73h31q-4 -103 -73 -103q-23 0 -44 18t-39 36.5t-33 18.5q-37 0 -42 -73h-31q4 103 73 103q30 0 64 -36.5t52 -36.5z" />
    <glyph glyph-name="macron.salt" horiz-adv-x="335" 
d="M280 567h-225v30h225v-30z" />
    <glyph glyph-name="uni02C9.salt" horiz-adv-x="335" 
d="M280 567h-225v30h225v-30z" />
    <glyph glyph-name="breve.salt" horiz-adv-x="343" 
d="M172 567q35 0 59.5 21.5t24.5 52.5h32q0 -48 -34.5 -76.5t-81.5 -28.5q-48 0 -82.5 28.5t-34.5 76.5h32q0 -31 24.5 -52.5t60.5 -21.5z" />
    <glyph glyph-name="dotaccent.salt" horiz-adv-x="253" 
d="M198 567h-143v30h143v-30z" />
    <glyph glyph-name="ringacute.salt" horiz-adv-x="295" 
d="M240 615q0 -38 -25.5 -64t-66.5 -26t-67 26t-26 64q0 44 34 71l128 103l16 -20l-84 -66q42 0 66.5 -24.5t24.5 -63.5zM213 615q0 26 -17.5 44t-46.5 18q-30 0 -47.5 -17.5t-17.5 -44.5t17.5 -45t47.5 -18q29 0 46.5 18t17.5 45z" />
    <glyph glyph-name="ring.salt" horiz-adv-x="295" 
d="M240 615q0 -38 -25.5 -64t-66.5 -26t-67 26t-26 64t26 63.5t67 25.5t66.5 -25.5t25.5 -63.5zM213 615q0 26 -17.5 44t-46.5 18q-30 0 -47.5 -17.5t-17.5 -44.5t17.5 -45t47.5 -18q29 0 46.5 18t17.5 45z" />
    <glyph glyph-name="cedilla.salt" horiz-adv-x="280" 
d="M144 -174q-62 0 -102 34l17 24q35 -30 85 -30q57 0 57 35q0 15 -15 24t-37 9q-26 0 -49 -13l-21 16l33 75h28l-27 -60q15 8 40 8q34 0 56 -15.5t22 -43.5t-22.5 -45.5t-64.5 -17.5z" />
    <glyph glyph-name="hungarumlaut.salt" horiz-adv-x="405" 
d="M56 579l142 93l17 -25l-143 -93zM191 579l142 93l17 -25l-143 -93z" />
    <glyph glyph-name="ogonek.salt" horiz-adv-x="266" 
d="M119 0h46q-92 -41 -92 -95q0 -22 14.5 -33t36.5 -11q33 0 62 20l13 -23q-30 -25 -75 -25q-37 0 -59 19.5t-22 52.5q0 27 20.5 52.5t55.5 42.5z" />
    <glyph glyph-name="caron.salt" horiz-adv-x="378" 
d="M323 632l-134 -93l-134 93l18 25l116 -80l116 80z" />
    <glyph glyph-name="commaaccent.salt" horiz-adv-x="140" 
d="M55 -208v157h30v-157h-30z" />
    <glyph glyph-name="commatop.salt" horiz-adv-x="140" 
d="M55 554v157h30v-157h-30z" />
    <glyph glyph-name="caronslovak.salt" horiz-adv-x="140" 
d="M55 463v207h30v-207h-30z" />
    <glyph glyph-name="parenleft.subs.salt" horiz-adv-x="177" 
d="M86 177q0 -139 86 -235l-21 -19q-37 35 -66.5 102.5t-29.5 151.5t29.5 151.5t66.5 102.5l21 -19q-86 -96 -86 -235z" />
    <glyph glyph-name="parenright.subs.salt" horiz-adv-x="178" 
d="M92 177q0 137 -87 234l22 20q37 -35 66.5 -102.5t29.5 -151.5t-29.5 -151.5t-66.5 -102.5l-22 20q87 97 87 234z" />
    <glyph glyph-name="parenleft.sups.salt" horiz-adv-x="177" 
d="M86 441q0 -139 86 -235l-21 -19q-37 35 -66.5 102.5t-29.5 151.5t29.5 151.5t66.5 102.5l21 -19q-86 -96 -86 -235z" />
    <glyph glyph-name="parenright.sups.salt" horiz-adv-x="178" 
d="M92 441q0 137 -87 234l22 20q37 -35 66.5 -102.5t29.5 -151.5t-29.5 -151.5t-66.5 -102.5l-22 20q87 97 87 234z" />
    <glyph glyph-name="Adieresis.salt" horiz-adv-x="691" 
d="M523 0l-45 132h-269l-45 -132h-144l236 627h180l235 -627h-148zM344 516l-96 -274h191zM315 709h-125v30h125v-30zM498 709h-125v30h125v-30z" />
    <glyph glyph-name="Aring.salt" horiz-adv-x="691" 
d="M523 0l-45 132h-269l-45 -132h-144l243 646q-11 20 -11 44q0 38 26 63.5t67 25.5t66.5 -25.5t25.5 -63.5q0 -23 -9 -41l243 -649h-148zM344 516l-96 -274h191zM410 690q0 26 -17.5 44t-46.5 18q-30 0 -47.5 -17.5t-17.5 -44.5t17.5 -45t47.5 -18q29 0 46.5 18t17.5 45z
" />
    <glyph glyph-name="Aringacute.salt" horiz-adv-x="691" 
d="M438 690q0 -21 -10 -43l243 -647h-148l-45 132h-269l-45 -132h-144l243 647q-10 19 -10 43q0 44 34 71l128 103l16 -20l-84 -66q42 0 66.5 -24.5t24.5 -63.5zM344 516l-96 -274h191zM411 690q0 26 -17.5 44t-46.5 18q-30 0 -47.5 -17.5t-17.5 -44.5t17.5 -45t47.5 -18
q29 0 46.5 18t17.5 45z" />
    <glyph glyph-name="Agrave.salt" horiz-adv-x="691" 
d="M523 0l-45 132h-269l-45 -132h-144l236 627h180l235 -627h-148zM344 516l-96 -274h191zM260 811l184 -94l-14 -27l-185 94z" />
    <glyph glyph-name="Atilde.salt" horiz-adv-x="691" 
d="M523 0l-45 132h-269l-45 -132h-144l236 627h180l235 -627h-148zM344 516l-96 -274h191zM402 720q37 0 42 73h31q-4 -103 -73 -103q-23 0 -44 18t-39 36.5t-33 18.5q-37 0 -42 -73h-31q4 103 73 103q30 0 64 -36.5t52 -36.5z" />
    <glyph glyph-name="Acircumflex.salt" horiz-adv-x="691" 
d="M523 0l-45 132h-269l-45 -132h-144l236 627h180l235 -627h-148zM344 516l-96 -274h191zM210 714l134 93l134 -93l-18 -25l-116 80l-116 -80z" />
    <glyph glyph-name="Aacute.salt" horiz-adv-x="691" 
d="M523 0l-45 132h-269l-45 -132h-144l236 627h180l235 -627h-148zM344 516l-96 -274h191zM444 784l-184 -94l-15 27l185 94z" />
    <glyph glyph-name="Abreve.salt" horiz-adv-x="691" 
d="M523 0l-45 132h-269l-45 -132h-144l236 627h180l235 -627h-148zM344 516l-96 -274h191zM345 717q35 0 59.5 21.5t24.5 52.5h32q0 -48 -34.5 -76.5t-81.5 -28.5q-48 0 -82.5 28.5t-34.5 76.5h32q0 -31 24.5 -52.5t60.5 -21.5z" />
    <glyph glyph-name="Amacron.salt" horiz-adv-x="691" 
d="M523 0l-45 132h-269l-45 -132h-144l236 627h180l235 -627h-148zM344 516l-96 -274h191zM457 717h-225v30h225v-30z" />
    <glyph glyph-name="Aogonek.salt" horiz-adv-x="691" 
d="M436 627l235 -627q-92 -41 -92 -95q0 -22 14.5 -33t36.5 -11q33 0 62 20l13 -23q-30 -25 -75 -25q-37 0 -59 19.5t-22 52.5q0 27 20.5 52.5t55.5 42.5h-102l-45 132h-269l-45 -132h-144l236 627h180zM344 516l-96 -274h191z" />
    <glyph glyph-name="AEacute.salt" horiz-adv-x="981" 
d="M585 784l-184 -94l-15 27l185 94zM521 0l-45 132h-265l-45 -132h-146l236 627h466l42 -115h-285l51 -136h237l41 -115h-235l55 -146h292l41 -115h-440zM344 517l-94 -275h187z" />
    <glyph glyph-name="Ccedilla.salt" horiz-adv-x="716" 
d="M371 -174q-62 0 -102 34l17 24q34 -30 85 -30q57 0 57 35q0 15 -15 24t-37 9q-26 0 -49 -13l-21 16l28 64q-121 9 -202.5 93.5t-81.5 231.5q0 154 89.5 239.5t218.5 85.5q138 0 215 -59t93 -146l-143 -24q-12 54 -52 82.5t-100 28.5q-79 0 -128.5 -52t-49.5 -156
t49.5 -155.5t128.5 -51.5q60 0 100 28.5t52 82.5l143 -24q-16 -86 -92 -145t-213 -60l-21 -48q15 8 40 8q34 0 56 -15.5t22 -43.5t-22.5 -45.5t-64.5 -17.5z" />
    <glyph glyph-name="Cacute.salt" horiz-adv-x="716" 
d="M193 313q0 -104 49.5 -155.5t128.5 -51.5q60 0 100 28.5t52 82.5l143 -24q-16 -87 -93 -146t-215 -59q-129 0 -218.5 86t-89.5 240t89.5 239.5t218.5 85.5q138 0 215 -59t93 -146l-143 -24q-12 54 -52 82.5t-100 28.5q-79 0 -128.5 -52t-49.5 -156zM466 784l-184 -94
l-15 27l185 94z" />
    <glyph glyph-name="Ccaron.salt" horiz-adv-x="716" 
d="M193 313q0 -104 49.5 -155.5t128.5 -51.5q60 0 100 28.5t52 82.5l143 -24q-16 -87 -93 -146t-215 -59q-129 0 -218.5 86t-89.5 240t89.5 239.5t218.5 85.5q138 0 215 -59t93 -146l-143 -24q-12 54 -52 82.5t-100 28.5q-79 0 -128.5 -52t-49.5 -156zM500 782l-134 -93
l-134 93l18 25l116 -80l116 80z" />
    <glyph glyph-name="Ccircumflex.salt" horiz-adv-x="716" 
d="M193 313q0 -104 49.5 -155.5t128.5 -51.5q60 0 100 28.5t52 82.5l143 -24q-16 -87 -93 -146t-215 -59q-129 0 -218.5 86t-89.5 240t89.5 239.5t218.5 85.5q138 0 215 -59t93 -146l-143 -24q-12 54 -52 82.5t-100 28.5q-79 0 -128.5 -52t-49.5 -156zM233 714l134 93
l134 -93l-18 -25l-116 80l-116 -80z" />
    <glyph glyph-name="Cdotaccent.salt" horiz-adv-x="716" 
d="M193 313q0 -104 49.5 -155.5t128.5 -51.5q60 0 100 28.5t52 82.5l143 -24q-16 -87 -93 -146t-215 -59q-129 0 -218.5 86t-89.5 240t89.5 239.5t218.5 85.5q138 0 215 -59t93 -146l-143 -24q-12 54 -52 82.5t-100 28.5q-79 0 -128.5 -52t-49.5 -156zM438 717h-143v30h143
v-30z" />
    <glyph glyph-name="Dcaron.salt" horiz-adv-x="690" 
d="M346 0h-266v627h251q142 0 225.5 -78t83.5 -242q0 -150 -81.5 -228.5t-212.5 -78.5zM319 112q178 0 178 201q0 106 -48.5 154t-129.5 48h-101v-403h101zM445 782l-134 -93l-134 93l18 25l116 -80l116 80z" />
    <glyph glyph-name="Dcroat.salt" horiz-adv-x="705" 
d="M25 300v31h70v296h251q142 0 225.5 -78t83.5 -242q0 -150 -81.5 -228.5t-212.5 -78.5h-266v300h-70zM334 112q178 0 178 201q0 106 -48.5 154.5t-129.5 48.5h-101v-185h95v-31h-95v-188h101z" />
    <glyph glyph-name="Eth.salt" horiz-adv-x="705" 
d="M25 300v31h70v296h251q142 0 225.5 -78t83.5 -242q0 -150 -81.5 -228.5t-212.5 -78.5h-266v300h-70zM334 112q178 0 178 201q0 106 -48.5 154.5t-129.5 48.5h-101v-185h95v-31h-95v-188h101z" />
    <glyph glyph-name="Eacute.salt" horiz-adv-x="615" 
d="M560 0h-480v627h467v-115h-329v-136h283v-115h-283v-146h342v-115zM412 784l-184 -94l-15 27l185 94z" />
    <glyph glyph-name="Ecircumflex.salt" horiz-adv-x="615" 
d="M560 0h-480v627h467v-115h-329v-136h283v-115h-283v-146h342v-115zM180 714l134 93l134 -93l-18 -25l-116 80l-116 -80z" />
    <glyph glyph-name="Edieresis.salt" horiz-adv-x="615" 
d="M560 0h-480v627h467v-115h-329v-136h283v-115h-283v-146h342v-115zM284 709h-125v30h125v-30zM467 709h-125v30h125v-30z" />
    <glyph glyph-name="Egrave.salt" horiz-adv-x="615" 
d="M560 0h-480v627h467v-115h-329v-136h283v-115h-283v-146h342v-115zM228 811l184 -94l-14 -27l-185 94z" />
    <glyph glyph-name="Ebreve.salt" horiz-adv-x="615" 
d="M560 0h-480v627h467v-115h-329v-136h283v-115h-283v-146h342v-115zM314 717q35 0 59.5 21.5t24.5 52.5h32q0 -48 -34.5 -76.5t-81.5 -28.5q-48 0 -82.5 28.5t-34.5 76.5h32q0 -31 24.5 -52.5t60.5 -21.5z" />
    <glyph glyph-name="Ecaron.salt" horiz-adv-x="615" 
d="M560 0h-480v627h467v-115h-329v-136h283v-115h-283v-146h342v-115zM447 782l-134 -93l-134 93l18 25l116 -80l116 80z" />
    <glyph glyph-name="Edotaccent.salt" horiz-adv-x="615" 
d="M560 0h-480v627h467v-115h-329v-136h283v-115h-283v-146h342v-115zM385 717h-143v30h143v-30z" />
    <glyph glyph-name="Emacron.salt" horiz-adv-x="615" 
d="M560 0h-480v627h467v-115h-329v-136h283v-115h-283v-146h342v-115zM426 717h-225v30h225v-30z" />
    <glyph glyph-name="Eogonek.salt" horiz-adv-x="615" 
d="M560 115v-115q-92 -41 -92 -95q0 -22 14.5 -33t36.5 -11q33 0 62 20l13 -23q-30 -25 -75 -25q-37 0 -59 19.5t-22 52.5q0 27 20.5 52.5t55.5 42.5h-434v627h467v-115h-329v-136h283v-115h-283v-146h342z" />
    <glyph glyph-name="Gbreve.salt" horiz-adv-x="746" 
d="M343 -12q-128 0 -210.5 86.5t-82.5 234.5q0 156 86 243t231 87q125 0 204 -58t95 -147l-143 -24q-12 55 -53 83t-99 28q-81 0 -129.5 -52.5t-48.5 -159.5q0 -103 52 -156.5t138 -53.5q97 0 155 53v84h-204v102h337v-338h-84l-26 128q-48 -140 -218 -140zM366 717
q35 0 59.5 21.5t24.5 52.5h32q0 -48 -34.5 -76.5t-81.5 -28.5q-48 0 -82.5 28.5t-34.5 76.5h32q0 -31 24.5 -52.5t60.5 -21.5z" />
    <glyph glyph-name="Gcircumflex.salt" horiz-adv-x="746" 
d="M343 -12q-128 0 -210.5 86.5t-82.5 234.5q0 156 86 243t231 87q125 0 204 -58t95 -147l-143 -24q-12 55 -53 83t-99 28q-81 0 -129.5 -52.5t-48.5 -159.5q0 -103 52 -156.5t138 -53.5q97 0 155 53v84h-204v102h337v-338h-84l-26 128q-48 -140 -218 -140zM232 714l134 93
l134 -93l-18 -25l-116 80l-116 -80z" />
    <glyph glyph-name="Gcommaaccent.salt" horiz-adv-x="746" 
d="M343 -12q-128 0 -210.5 86.5t-82.5 234.5q0 156 86 243t231 87q125 0 204 -58t95 -147l-143 -24q-12 55 -53 83t-99 28q-81 0 -129.5 -52.5t-48.5 -159.5q0 -103 52 -156.5t138 -53.5q97 0 155 53v84h-204v102h337v-338h-84l-26 128q-48 -140 -218 -140zM351 -218v157h30
v-157h-30z" />
    <glyph glyph-name="Gdotaccent.salt" horiz-adv-x="746" 
d="M343 -12q-128 0 -210.5 86.5t-82.5 234.5q0 156 86 243t231 87q125 0 204 -58t95 -147l-143 -24q-12 55 -53 83t-99 28q-81 0 -129.5 -52.5t-48.5 -159.5q0 -103 52 -156.5t138 -53.5q97 0 155 53v84h-204v102h337v-338h-84l-26 128q-48 -140 -218 -140zM438 717h-143v30
h143v-30z" />
    <glyph glyph-name="Hbar.salt" horiz-adv-x="741" 
d="M646 0h-138v221h-275v-221h-138v460h-70v31h70v136h138v-136h275v136h138v-136h70v-31h-70v-460zM233 336h275v124h-275v-124z" />
    <glyph glyph-name="Hcircumflex.salt" horiz-adv-x="711" 
d="M631 0h-138v261h-275v-261h-138v627h138v-251h275v251h138v-627zM222 714l134 93l134 -93l-18 -25l-116 80l-116 -80z" />
    <glyph glyph-name="I.salt" horiz-adv-x="298" 
d="M218 0h-138v627h138v-627z" />
    <glyph glyph-name="Iacute.salt" horiz-adv-x="298" 
d="M218 0h-138v627h138v-627zM249 784l-184 -94l-15 27l185 94z" />
    <glyph glyph-name="Icircumflex.salt" horiz-adv-x="298" 
d="M218 0h-138v627h138v-627zM15 714l134 93l134 -93l-18 -25l-116 80l-116 -80z" />
    <glyph glyph-name="Idieresis.salt" horiz-adv-x="298" 
d="M218 0h-138v627h138v-627zM120 709h-125v30h125v-30zM303 709h-125v30h125v-30z" />
    <glyph glyph-name="Igrave.salt" horiz-adv-x="298" 
d="M218 0h-138v627h138v-627zM65 811l184 -94l-14 -27l-185 94z" />
    <glyph glyph-name="Ibreve.salt" horiz-adv-x="298" 
d="M218 0h-138v627h138v-627zM150 717q35 0 59.5 21.5t24.5 52.5h32q0 -48 -34.5 -76.5t-81.5 -28.5q-48 0 -82.5 28.5t-34.5 76.5h32q0 -31 24.5 -52.5t60.5 -21.5z" />
    <glyph glyph-name="Imacron.salt" horiz-adv-x="298" 
d="M218 0h-138v627h138v-627zM262 717h-225v30h225v-30z" />
    <glyph glyph-name="Iogonek.salt" horiz-adv-x="298" 
d="M172 0h-92v627h138v-627q-92 -41 -92 -95q0 -22 14.5 -33t36.5 -11q33 0 62 20l13 -23q-30 -25 -75 -25q-37 0 -59 19.5t-22 52.5q0 27 20.5 52.5t55.5 42.5z" />
    <glyph glyph-name="Itilde.salt" horiz-adv-x="298" 
d="M218 0h-138v627h138v-627zM207 720q37 0 42 73h31q-4 -103 -73 -103q-23 0 -44 18t-39 36.5t-33 18.5q-37 0 -42 -73h-31q4 103 73 103q23 0 44 -18.5t38.5 -36.5t33.5 -18z" />
    <glyph glyph-name="Idotaccent.salt" horiz-adv-x="298" 
d="M218 0h-138v627h138v-627zM221 717h-143v30h143v-30z" />
    <glyph glyph-name="IJ.salt" horiz-adv-x="680" 
d="M214 370h-138v257h138v-257zM340 -10q-126 0 -195.5 65.5t-69.5 185.5h144q0 -137 122 -137q59 0 92.5 42.5t33.5 116.5v364h138v-364q0 -131 -67.5 -202t-197.5 -71z" />
    <glyph glyph-name="Iacute_Jacute.salt" horiz-adv-x="680" 
d="M249 784l-184 -94l-15 27l185 94zM638 784l-184 -94l-15 27l185 94zM214 370h-138v257h138v-257zM340 -10q-126 0 -195.5 65.5t-69.5 185.5h144q0 -137 122 -137q59 0 92.5 42.5t33.5 116.5v364h138v-364q0 -131 -67.5 -202t-197.5 -71z" />
    <glyph glyph-name="J.salt" horiz-adv-x="617" 
d="M287 -12q-121 0 -186.5 62.5t-65.5 160.5q0 59 15 96l137 -20q-11 -33 -11 -68q0 -51 28 -83t84 -32q58 0 87 42t29 117v364h138v-364q0 -134 -63.5 -204.5t-191.5 -70.5z" />
    <glyph glyph-name="Jacute.salt" horiz-adv-x="617" 
d="M287 -12q-121 0 -186.5 62.5t-65.5 160.5q0 55 15 96l137 -20q-11 -31 -11 -68q0 -51 28 -83t84 -32q58 0 87 42t29 117v364h138v-364q0 -134 -63.5 -204.5t-191.5 -70.5zM573 784l-184 -94l-15 27l185 94z" />
    <glyph glyph-name="Jcircumflex.salt" horiz-adv-x="617" 
d="M287 -12q-121 0 -186.5 62.5t-65.5 160.5q0 55 15 96l137 -20q-11 -31 -11 -68q0 -51 28 -83t84 -32q58 0 87 42t29 117v364h138v-364q0 -134 -63.5 -204.5t-191.5 -70.5zM339 714l134 93l134 -93l-18 -25l-116 80l-116 -80z" />
    <glyph glyph-name="Kcommaaccent.salt" horiz-adv-x="679" 
d="M659 0h-170l-172 269l-99 -108v-161h-138v627h138v-297l260 297h170l-224 -257zM342 -208v157h30v-157h-30z" />
    <glyph glyph-name="Lslash.salt" horiz-adv-x="559" 
d="M537 0h-441v233l-55 -37l-16 25l71 48v358h138v-265l82 56l15 -26l-97 -66v-208h303v-118z" />
    <glyph glyph-name="Lacute.salt" horiz-adv-x="543" 
d="M521 0h-441v627h138v-509h303v-118zM249 784l-184 -94l-15 27l185 94z" />
    <glyph glyph-name="Lcaron.salt" horiz-adv-x="543" 
d="M521 0h-441v627h138v-509h303v-118zM325 421v207h30v-207h-30z" />
    <glyph glyph-name="Lcommaaccent.salt" horiz-adv-x="543" 
d="M521 0h-441v627h138v-509h303v-118zM292 -208v157h30v-157h-30z" />
    <glyph glyph-name="Ldot.salt" horiz-adv-x="543" 
d="M521 0h-441v627h138v-509h303v-118zM444 287h-143v30h143v-30z" />
    <glyph glyph-name="Ntilde.salt" horiz-adv-x="735" 
d="M655 0h-176l-261 461v-461h-138v627h180l257 -450v450h138v-627zM426 720q37 0 42 73h31q-4 -103 -73 -103q-23 0 -44 18t-39 36.5t-33 18.5q-37 0 -42 -73h-31q4 103 73 103q30 0 64 -36.5t52 -36.5z" />
    <glyph glyph-name="Nacute.salt" horiz-adv-x="735" 
d="M655 0h-176l-261 461v-461h-138v627h180l257 -450v450h138v-627zM466 784l-184 -94l-15 27l185 94z" />
    <glyph glyph-name="Ncaron.salt" horiz-adv-x="735" 
d="M655 0h-176l-261 461v-461h-138v627h180l257 -450v450h138v-627zM501 782l-134 -93l-134 93l18 25l116 -80l116 80z" />
    <glyph glyph-name="Ncommaaccent.salt" horiz-adv-x="735" 
d="M655 0h-176l-261 461v-461h-138v627h180l257 -450v450h138v-627zM352 -208v157h30v-157h-30z" />
    <glyph glyph-name="Odieresis.salt" horiz-adv-x="745" 
d="M371 -12q-140 0 -230.5 84.5t-90.5 242.5q0 157 90 240.5t231 83.5q139 0 231.5 -84t92.5 -241t-92.5 -241.5t-231.5 -84.5zM372 106q82 0 130 53.5t48 156.5q0 101 -47.5 153t-130.5 52t-131 -52.5t-48 -154.5q0 -101 48.5 -154.5t130.5 -53.5zM342 709h-125v30h125v-30
zM525 709h-125v30h125v-30z" />
    <glyph glyph-name="Otilde.salt" horiz-adv-x="745" 
d="M371 -12q-140 0 -230.5 84.5t-90.5 242.5q0 157 90 240.5t231 83.5q139 0 231.5 -84t92.5 -241t-92.5 -241.5t-231.5 -84.5zM372 106q82 0 130 53.5t48 156.5q0 101 -47.5 153t-130.5 52t-131 -52.5t-48 -154.5q0 -101 48.5 -154.5t130.5 -53.5zM430 720q37 0 42 73h31
q-4 -103 -73 -103q-23 0 -44 18t-39 36.5t-33 18.5q-37 0 -42 -73h-31q4 103 73 103q30 0 64 -36.5t52 -36.5z" />
    <glyph glyph-name="Oacute.salt" horiz-adv-x="745" 
d="M371 -12q-140 0 -230.5 84.5t-90.5 242.5q0 157 90 240.5t231 83.5q139 0 231.5 -84t92.5 -241t-92.5 -241.5t-231.5 -84.5zM372 106q82 0 130 53.5t48 156.5q0 101 -47.5 153t-130.5 52t-131 -52.5t-48 -154.5q0 -101 48.5 -154.5t130.5 -53.5zM472 784l-184 -94l-15 27
l185 94z" />
    <glyph glyph-name="Ocircumflex.salt" horiz-adv-x="745" 
d="M371 -12q-140 0 -230.5 84.5t-90.5 242.5q0 157 90 240.5t231 83.5q139 0 231.5 -84t92.5 -241t-92.5 -241.5t-231.5 -84.5zM372 106q82 0 130 53.5t48 156.5q0 101 -47.5 153t-130.5 52t-131 -52.5t-48 -154.5q0 -101 48.5 -154.5t130.5 -53.5zM238 714l134 93l134 -93
l-18 -25l-116 80l-116 -80z" />
    <glyph glyph-name="Ograve.salt" horiz-adv-x="745" 
d="M371 -12q-140 0 -230.5 84.5t-90.5 242.5q0 157 90 240.5t231 83.5q139 0 231.5 -84t92.5 -241t-92.5 -241.5t-231.5 -84.5zM372 106q82 0 130 53.5t48 156.5q0 101 -47.5 153t-130.5 52t-131 -52.5t-48 -154.5q0 -101 48.5 -154.5t130.5 -53.5zM287 811l184 -94l-14 -27
l-185 94z" />
    <glyph glyph-name="Obreve.salt" horiz-adv-x="745" 
d="M371 -12q-140 0 -230.5 84.5t-90.5 242.5q0 157 90 240.5t231 83.5q139 0 231.5 -84t92.5 -241t-92.5 -241.5t-231.5 -84.5zM372 106q82 0 130 53.5t48 156.5q0 101 -47.5 153t-130.5 52t-131 -52.5t-48 -154.5q0 -101 48.5 -154.5t130.5 -53.5zM373 717q35 0 59.5 21.5
t24.5 52.5h32q0 -48 -34.5 -76.5t-81.5 -28.5q-48 0 -82.5 28.5t-34.5 76.5h32q0 -31 24.5 -52.5t60.5 -21.5z" />
    <glyph glyph-name="Ohungarumlaut.salt" horiz-adv-x="745" 
d="M371 -12q-140 0 -230.5 84.5t-90.5 242.5q0 157 90 240.5t231 83.5q139 0 231.5 -84t92.5 -241t-92.5 -241.5t-231.5 -84.5zM372 106q82 0 130 53.5t48 156.5q0 101 -47.5 153t-130.5 52t-131 -52.5t-48 -154.5q0 -101 48.5 -154.5t130.5 -53.5zM265 729l142 93l17 -25
l-143 -93zM400 729l142 93l17 -25l-143 -93z" />
    <glyph glyph-name="Omacron.salt" horiz-adv-x="745" 
d="M371 -12q-140 0 -230.5 84.5t-90.5 242.5q0 157 90 240.5t231 83.5q139 0 231.5 -84t92.5 -241t-92.5 -241.5t-231.5 -84.5zM372 106q82 0 130 53.5t48 156.5q0 101 -47.5 153t-130.5 52t-131 -52.5t-48 -154.5q0 -101 48.5 -154.5t130.5 -53.5zM485 717h-225v30h225v-30
z" />
    <glyph glyph-name="Oslash.salt" horiz-adv-x="745" 
d="M146 -50l-27 16l54 80q-123 87 -123 269q0 157 90 240.5t231 83.5q97 0 173 -42l54 80l27 -16l-54 -81q124 -86 124 -266q0 -157 -92.5 -241.5t-231.5 -84.5q-99 0 -172 41zM193 314q0 -105 53 -160l228 339q-41 28 -102 28q-83 0 -131 -52.5t-48 -154.5zM372 106
q82 0 130 53.5t48 156.5t-52 157l-228 -339q41 -28 102 -28z" />
    <glyph glyph-name="Oslashacute.salt" horiz-adv-x="735" 
d="M141 -50l-27 16l54 80q-123 87 -123 269q0 157 90 240.5t231 83.5q96 0 173 -42l54 80l27 -16l-54 -81q124 -86 124 -266q0 -157 -92.5 -241.5t-231.5 -84.5q-99 0 -172 41zM188 314q0 -105 53 -160l228 339q-41 28 -102 28q-83 0 -131 -52.5t-48 -154.5zM367 106
q82 0 130 53.5t48 156.5t-52 157l-228 -339q41 -28 102 -28zM467 784l-184 -94l-15 27l185 94z" />
    <glyph glyph-name="Racute.salt" horiz-adv-x="674" 
d="M218 0h-138v627h270q119 0 188.5 -42.5t69.5 -130.5q0 -151 -182 -165q61 -1 97.5 -22.5t49.5 -56t18.5 -70.5t15 -76.5t27.5 -63.5h-151q-16 17 -24 50t-12.5 64t-13.5 60.5t-34.5 48t-69.5 18.5h-111v-241zM351 351q55 0 85.5 22.5t30.5 66.5q0 43 -30.5 59t-88.5 16
h-130v-164h133zM434 784l-184 -94l-15 27l185 94z" />
    <glyph glyph-name="Rcaron.salt" horiz-adv-x="674" 
d="M218 0h-138v627h270q119 0 188.5 -42.5t69.5 -130.5q0 -151 -182 -165q61 -1 97.5 -22.5t49.5 -56t18.5 -70.5t15 -76.5t27.5 -63.5h-151q-16 17 -24 50t-12.5 64t-13.5 60.5t-34.5 48t-69.5 18.5h-111v-241zM351 351q55 0 85.5 22.5t30.5 66.5q0 43 -30.5 59t-88.5 16
h-130v-164h133zM467 782l-134 -93l-134 93l18 25l116 -80l116 80z" />
    <glyph glyph-name="Rcommaaccent.salt" horiz-adv-x="674" 
d="M218 0h-138v627h270q119 0 188.5 -42.5t69.5 -130.5q0 -151 -182 -165q61 -1 97.5 -22.5t49.5 -56t18.5 -70.5t15 -76.5t27.5 -63.5h-151q-16 17 -24 50t-12.5 64t-13.5 60.5t-34.5 48t-69.5 18.5h-111v-241zM351 351q55 0 85.5 22.5t30.5 66.5q0 43 -30.5 59t-88.5 16
h-130v-164h133zM340 -208v157h30v-157h-30z" />
    <glyph glyph-name="Scaron.salt" horiz-adv-x="658" 
d="M341 -12q-127 0 -204 55t-92 150l143 24q20 -115 167 -115q56 0 84.5 20t28.5 52q0 34 -31.5 50.5t-123.5 36.5l-24 5q-105 22 -160.5 62t-55.5 124q0 86 65 136.5t185 50.5q110 0 179.5 -48t88.5 -139l-144 -20q-6 45 -41.5 70t-86.5 25q-48 0 -76.5 -17.5t-28.5 -49.5
q0 -34 32 -49t127 -36l19 -4q112 -24 165 -64t53 -121q0 -92 -67 -145t-202 -53zM461 782l-134 -93l-134 93l18 25l116 -80l116 80z" />
    <glyph glyph-name="Sacute.salt" horiz-adv-x="658" 
d="M341 -12q-127 0 -204 55t-92 150l143 24q20 -115 167 -115q56 0 84.5 20t28.5 52q0 34 -31.5 50.5t-123.5 36.5l-24 5q-105 22 -160.5 62t-55.5 124q0 86 65 136.5t185 50.5q110 0 179.5 -48t88.5 -139l-144 -20q-6 45 -41.5 70t-86.5 25q-48 0 -76.5 -17.5t-28.5 -49.5
q0 -34 32 -49t127 -36l19 -4q112 -24 165 -64t53 -121q0 -92 -67 -145t-202 -53zM427 784l-184 -94l-15 27l185 94z" />
    <glyph glyph-name="Scedilla.salt" horiz-adv-x="658" 
d="M356 -174q-62 0 -102 34l17 24q35 -30 85 -30q57 0 57 35q0 15 -15 24t-37 9q-26 0 -49 -13l-21 16l28 64q-118 4 -189 58.5t-85 145.5l143 24q20 -115 167 -115q56 0 84.5 20t28.5 52q0 34 -31.5 50.5t-123.5 36.5l-24 5q-105 22 -160.5 62t-55.5 124q0 86 65 136.5
t185 50.5q110 0 179.5 -48t88.5 -139l-144 -20q-6 45 -41.5 70t-86.5 25q-48 0 -76.5 -17.5t-28.5 -49.5q0 -34 32 -49t127 -36l19 -4q112 -24 165 -64t53 -121q0 -91 -65.5 -144t-198.5 -54l-21 -48q15 8 40 8q34 0 56 -15.5t22 -43.5t-22.5 -45.5t-64.5 -17.5z" />
    <glyph glyph-name="Scircumflex.salt" horiz-adv-x="658" 
d="M341 -12q-127 0 -204 55t-92 150l143 24q20 -115 167 -115q56 0 84.5 20t28.5 52q0 34 -31.5 50.5t-123.5 36.5l-24 5q-105 22 -160.5 62t-55.5 124q0 86 65 136.5t185 50.5q110 0 179.5 -48t88.5 -139l-144 -20q-6 45 -41.5 70t-86.5 25q-48 0 -76.5 -17.5t-28.5 -49.5
q0 -34 32 -49t127 -36l19 -4q112 -24 165 -64t53 -121q0 -92 -67 -145t-202 -53zM193 714l134 93l134 -93l-18 -25l-116 80l-116 -80z" />
    <glyph glyph-name="Scommaaccent.salt" horiz-adv-x="658" 
d="M341 -12q-127 0 -204 55t-92 150l143 24q20 -115 167 -115q56 0 84.5 20t28.5 52q0 34 -31.5 50.5t-123.5 36.5l-24 5q-105 22 -160.5 62t-55.5 124q0 86 65 136.5t185 50.5q110 0 179.5 -48t88.5 -139l-144 -20q-6 45 -41.5 70t-86.5 25q-48 0 -76.5 -17.5t-28.5 -49.5
q0 -34 32 -49t127 -36l19 -4q112 -24 165 -64t53 -121q0 -92 -67 -145t-202 -53zM322 -208v157h30v-157h-30z" />
    <glyph glyph-name="Tbar.salt" horiz-adv-x="579" 
d="M127 286v31h93v195h-195v115h529v-115h-196v-195h93v-31h-93v-286h-138v286h-93z" />
    <glyph glyph-name="Tcaron.salt" horiz-adv-x="579" 
d="M358 0h-138v512h-195v115h529v-115h-196v-512zM423 782l-134 -93l-134 93l18 25l116 -80l116 80z" />
    <glyph glyph-name="Tcommaaccent.salt" horiz-adv-x="579" 
d="M358 0h-138v512h-195v115h529v-115h-196v-512zM274 -208v157h30v-157h-30z" />
    <glyph glyph-name="uni021A.salt" horiz-adv-x="579" 
d="M358 0h-138v512h-195v115h529v-115h-196v-512zM274 -208v157h30v-157h-30z" />
    <glyph glyph-name="Udieresis.salt" horiz-adv-x="708" 
d="M355 -12q-141 0 -210.5 74.5t-69.5 213.5v351h138v-356q0 -165 141 -165q73 0 106 39.5t33 129.5v352h140v-348q0 -140 -69 -215.5t-209 -75.5zM325 709h-125v30h125v-30zM508 709h-125v30h125v-30z" />
    <glyph glyph-name="Uacute.salt" horiz-adv-x="708" 
d="M355 -12q-141 0 -210.5 74.5t-69.5 213.5v351h138v-356q0 -165 141 -165q73 0 106 39.5t33 129.5v352h140v-348q0 -140 -69 -215.5t-209 -75.5zM454 784l-184 -94l-15 27l185 94z" />
    <glyph glyph-name="Ucircumflex.salt" horiz-adv-x="708" 
d="M355 -12q-141 0 -210.5 74.5t-69.5 213.5v351h138v-356q0 -165 141 -165q73 0 106 39.5t33 129.5v352h140v-348q0 -140 -69 -215.5t-209 -75.5zM220 714l134 93l134 -93l-18 -25l-116 80l-116 -80z" />
    <glyph glyph-name="Ugrave.salt" horiz-adv-x="708" 
d="M355 -12q-141 0 -210.5 74.5t-69.5 213.5v351h138v-356q0 -165 141 -165q73 0 106 39.5t33 129.5v352h140v-348q0 -140 -69 -215.5t-209 -75.5zM270 811l184 -94l-14 -27l-185 94z" />
    <glyph glyph-name="Ubreve.salt" horiz-adv-x="708" 
d="M355 -12q-141 0 -210.5 74.5t-69.5 213.5v351h138v-356q0 -165 141 -165q73 0 106 39.5t33 129.5v352h140v-348q0 -140 -69 -215.5t-209 -75.5zM355 717q35 0 59.5 21.5t24.5 52.5h32q0 -48 -34.5 -76.5t-81.5 -28.5q-48 0 -82.5 28.5t-34.5 76.5h32q0 -31 24.5 -52.5
t60.5 -21.5z" />
    <glyph glyph-name="Uhungarumlaut.salt" horiz-adv-x="708" 
d="M355 -12q-141 0 -210.5 74.5t-69.5 213.5v351h138v-356q0 -165 141 -165q73 0 106 39.5t33 129.5v352h140v-348q0 -140 -69 -215.5t-209 -75.5zM247 729l142 93l17 -25l-143 -93zM382 729l142 93l17 -25l-143 -93z" />
    <glyph glyph-name="Umacron.salt" horiz-adv-x="708" 
d="M355 -12q-141 0 -210.5 74.5t-69.5 213.5v351h138v-356q0 -165 141 -165q73 0 106 39.5t33 129.5v352h140v-348q0 -140 -69 -215.5t-209 -75.5zM467 717h-225v30h225v-30z" />
    <glyph glyph-name="Uogonek.salt" horiz-adv-x="708" 
d="M355 -12q-141 0 -210.5 74.5t-69.5 213.5v351h138v-356q0 -165 141 -165q73 0 106 39.5t33 129.5v352h140v-348q0 -242 -205 -286q-40 -9 -69 -34t-29 -54q0 -22 14.5 -33t36.5 -11q33 0 62 20l13 -23q-30 -25 -75 -25q-37 0 -59 19.5t-22 52.5q0 53 60 83h-5z" />
    <glyph glyph-name="Uring.salt" horiz-adv-x="708" 
d="M355 -12q-141 0 -210.5 74.5t-69.5 213.5v351h138v-356q0 -165 141 -165q73 0 106 39.5t33 129.5v352h140v-348q0 -140 -69 -215.5t-209 -75.5zM447 765q0 -38 -25.5 -64t-66.5 -26t-67 26t-26 64t26 63.5t67 25.5t66.5 -25.5t25.5 -63.5zM420 765q0 26 -17.5 44
t-46.5 18q-30 0 -47.5 -17.5t-17.5 -44.5t17.5 -45t47.5 -18q29 0 46.5 18t17.5 45z" />
    <glyph glyph-name="Utilde.salt" horiz-adv-x="708" 
d="M355 -12q-141 0 -210.5 74.5t-69.5 213.5v351h138v-356q0 -165 141 -165q73 0 106 39.5t33 129.5v352h140v-348q0 -140 -69 -215.5t-209 -75.5zM412 720q37 0 42 73h31q-4 -103 -73 -103q-23 0 -44 18t-39 36.5t-33 18.5q-37 0 -42 -73h-31q4 103 73 103q30 0 64 -36.5
t52 -36.5z" />
    <glyph glyph-name="Wacute.salt" horiz-adv-x="974" 
d="M587 784l-184 -94l-15 27l185 94zM769 0h-174l-108 498l-110 -498h-174l-173 627h149l115 -498l108 498h181l106 -498l109 498h146z" />
    <glyph glyph-name="Wcircumflex.salt" horiz-adv-x="974" 
d="M353 714l134 93l134 -93l-18 -25l-116 80l-116 -80zM769 0h-174l-108 498l-110 -498h-174l-173 627h149l115 -498l108 498h181l106 -498l109 498h146z" />
    <glyph glyph-name="Wdieresis.salt" horiz-adv-x="974" 
d="M459 709h-125v30h125v-30zM642 709h-125v30h125v-30zM769 0h-174l-108 498l-110 -498h-174l-173 627h149l115 -498l108 498h181l106 -498l109 498h146z" />
    <glyph glyph-name="Wgrave.salt" horiz-adv-x="974" 
d="M404 811l184 -94l-14 -27l-185 94zM769 0h-174l-108 498l-110 -498h-174l-173 627h149l115 -498l108 498h181l106 -498l109 498h146z" />
    <glyph glyph-name="uni1E8A.salt" horiz-adv-x="650" 
d="M466 0l-141 221l-145 -221h-160l216 319l-209 308h163l136 -218l140 218h159l-209 -306l214 -321h-164zM398 717h-143v30h143v-30z" />
    <glyph glyph-name="Yacute.salt" horiz-adv-x="635" 
d="M387 0h-138v217l-239 410h166l143 -272l148 272h158l-238 -409v-218zM419 784l-184 -94l-15 27l185 94z" />
    <glyph glyph-name="Ydieresis.salt" horiz-adv-x="635" 
d="M387 0h-138v217l-239 410h166l143 -272l148 272h158l-238 -409v-218zM290 709h-125v30h125v-30zM473 709h-125v30h125v-30z" />
    <glyph glyph-name="Ycircumflex.salt" horiz-adv-x="635" 
d="M387 0h-138v217l-239 410h166l143 -272l148 272h158l-238 -409v-218zM185 714l134 93l134 -93l-18 -25l-116 80l-116 -80z" />
    <glyph glyph-name="Ygrave.salt" horiz-adv-x="635" 
d="M387 0h-138v217l-239 410h166l143 -272l148 272h158l-238 -409v-218zM235 811l184 -94l-14 -27l-185 94z" />
    <glyph glyph-name="Zcaron.salt" 
d="M555 0h-510v95l319 412h-310v120h495v-92l-318 -415h324v-120zM436 782l-134 -93l-134 93l18 25l116 -80l116 80z" />
    <glyph glyph-name="Zacute.salt" 
d="M555 0h-510v95l319 412h-310v120h495v-92l-318 -415h324v-120zM392 784l-184 -94l-15 27l185 94z" />
    <glyph glyph-name="Zdotaccent.salt" 
d="M555 0h-510v95l319 412h-310v120h495v-92l-318 -415h324v-120zM367 717h-143v30h143v-30z" />
    <glyph glyph-name="uni01B5.salt" 
d="M90 298v31h136l138 178h-310v120h495v-92l-158 -206h112v-31h-136l-136 -178h324v-120h-510v95l157 203h-112z" />
    <glyph glyph-name="aacute.salt" horiz-adv-x="569" 
d="M477 -10q-50 0 -78.5 27t-28.5 80q0 8 2 30q-15 -61 -62 -99t-122 -38q-64 0 -106 29.5t-42 88.5q0 43 20.5 73.5t61 48.5t86.5 27.5t112 15.5l31 3v38q0 80 -77 80q-42 0 -66.5 -24t-24.5 -68l-119 7v9q0 81 57.5 124.5t152.5 43.5t152.5 -45.5t57.5 -131.5v-8l-6 -168
v-4q0 -46 37 -46q16 0 31 5l15 -82q-32 -16 -84 -16zM230 79q40 0 75 21.5t49 51.5v62l-28 -3q-153 -16 -153 -84q0 -23 15.5 -35.5t41.5 -12.5zM379 634l-184 -94l-15 27l185 94z" />
    <glyph glyph-name="agrave.salt" horiz-adv-x="569" 
d="M477 -10q-50 0 -78.5 27t-28.5 80q0 8 2 30q-15 -61 -62 -99t-122 -38q-64 0 -106 29.5t-42 88.5q0 43 20.5 73.5t61 48.5t86.5 27.5t112 15.5l31 3v38q0 80 -77 80q-42 0 -66.5 -24t-24.5 -68l-119 7v9q0 81 57.5 124.5t152.5 43.5t152.5 -45.5t57.5 -131.5v-8l-6 -168
v-4q0 -46 37 -46q16 0 31 5l15 -82q-32 -16 -84 -16zM230 79q40 0 75 21.5t49 51.5v62l-28 -3q-153 -16 -153 -84q0 -23 15.5 -35.5t41.5 -12.5zM194 661l184 -94l-14 -27l-185 94z" />
    <glyph glyph-name="acircumflex.salt" horiz-adv-x="569" 
d="M477 -10q-50 0 -78.5 27t-28.5 80q0 8 2 30q-15 -61 -62 -99t-122 -38q-64 0 -106 29.5t-42 88.5q0 43 20.5 73.5t61 48.5t86.5 27.5t112 15.5l31 3v38q0 80 -77 80q-42 0 -66.5 -24t-24.5 -68l-119 7v9q0 81 57.5 124.5t152.5 43.5t152.5 -45.5t57.5 -131.5v-8l-6 -168
v-4q0 -46 37 -46q16 0 31 5l15 -82q-32 -16 -84 -16zM230 79q40 0 75 21.5t49 51.5v62l-28 -3q-153 -16 -153 -84q0 -23 15.5 -35.5t41.5 -12.5zM144 564l134 93l134 -93l-18 -25l-116 80l-116 -80z" />
    <glyph glyph-name="adieresis.salt" horiz-adv-x="569" 
d="M477 -10q-50 0 -78.5 27t-28.5 80q0 8 2 30q-15 -61 -62 -99t-122 -38q-64 0 -106 29.5t-42 88.5q0 43 20.5 73.5t61 48.5t86.5 27.5t112 15.5l31 3v38q0 80 -77 80q-42 0 -66.5 -24t-24.5 -68l-119 7v9q0 81 57.5 124.5t152.5 43.5t152.5 -45.5t57.5 -131.5v-8l-6 -168
v-4q0 -46 37 -46q16 0 31 5l15 -82q-32 -16 -84 -16zM230 79q40 0 75 21.5t49 51.5v62l-28 -3q-153 -16 -153 -84q0 -23 15.5 -35.5t41.5 -12.5zM249 559h-125v30h125v-30zM432 559h-125v30h125v-30z" />
    <glyph glyph-name="atilde.salt" horiz-adv-x="569" 
d="M477 -10q-50 0 -78.5 27t-28.5 80q0 8 2 30q-15 -61 -62 -99t-122 -38q-64 0 -106 29.5t-42 88.5q0 43 20.5 73.5t61 48.5t86.5 27.5t112 15.5l31 3v38q0 80 -77 80q-42 0 -66.5 -24t-24.5 -68l-119 7v9q0 81 57.5 124.5t152.5 43.5t152.5 -45.5t57.5 -131.5v-8l-6 -168
v-4q0 -46 37 -46q16 0 31 5l15 -82q-32 -16 -84 -16zM230 79q40 0 75 21.5t49 51.5v62l-28 -3q-153 -16 -153 -84q0 -23 15.5 -35.5t41.5 -12.5zM336 570q37 0 42 73h31q-4 -103 -73 -103q-23 0 -44 18t-39 36.5t-33 18.5q-37 0 -42 -73h-31q4 103 73 103q30 0 64 -36.5
t52 -36.5z" />
    <glyph glyph-name="aring.salt" horiz-adv-x="569" 
d="M477 -10q-50 0 -78.5 27t-28.5 80q0 8 2 30q-15 -61 -62 -99t-122 -38q-64 0 -106 29.5t-42 88.5q0 43 20.5 73.5t61 48.5t86.5 27.5t112 15.5l31 3v38q0 80 -77 80q-42 0 -66.5 -24t-24.5 -68l-119 7v9q0 81 57.5 124.5t152.5 43.5t152.5 -45.5t57.5 -131.5v-8l-6 -168
v-4q0 -46 37 -46q16 0 31 5l15 -82q-32 -16 -84 -16zM230 79q40 0 75 21.5t49 51.5v62l-28 -3q-153 -16 -153 -84q0 -23 15.5 -35.5t41.5 -12.5zM371 615q0 -38 -25.5 -64t-66.5 -26t-67 26t-26 64t26 63.5t67 25.5t66.5 -25.5t25.5 -63.5zM344 615q0 26 -17.5 44t-46.5 18
q-30 0 -47.5 -17.5t-17.5 -44.5t17.5 -45t47.5 -18q29 0 46.5 18t17.5 45z" />
    <glyph glyph-name="aringacute.salt" horiz-adv-x="569" 
d="M477 -10q-50 0 -78.5 27t-28.5 80q0 8 2 30q-15 -61 -62 -99t-122 -38q-64 0 -106 29.5t-42 88.5q0 43 20.5 73.5t61 48.5t86.5 27.5t112 15.5l31 3v38q0 80 -77 80q-42 0 -66.5 -24t-24.5 -68l-119 7v9q0 81 57.5 124.5t152.5 43.5t152.5 -45.5t57.5 -131.5v-8l-6 -168
v-4q0 -46 37 -46q16 0 31 5l15 -82q-32 -16 -84 -16zM230 79q40 0 75 21.5t49 51.5v62l-28 -3q-153 -16 -153 -84q0 -23 15.5 -35.5t41.5 -12.5zM371 615q0 -38 -25.5 -64t-66.5 -26t-67 26t-26 64q0 44 34 71l128 103l16 -20l-84 -66q42 0 66.5 -24.5t24.5 -63.5zM344 615
q0 26 -17.5 44t-46.5 18q-30 0 -47.5 -17.5t-17.5 -44.5t17.5 -45t47.5 -18q29 0 46.5 18t17.5 45z" />
    <glyph glyph-name="abreve.salt" horiz-adv-x="569" 
d="M477 -10q-50 0 -78.5 27t-28.5 80q0 8 2 30q-15 -61 -62 -99t-122 -38q-64 0 -106 29.5t-42 88.5q0 43 20.5 73.5t61 48.5t86.5 27.5t112 15.5l31 3v38q0 80 -77 80q-42 0 -66.5 -24t-24.5 -68l-119 7v9q0 81 57.5 124.5t152.5 43.5t152.5 -45.5t57.5 -131.5v-8l-6 -168
v-4q0 -46 37 -46q16 0 31 5l15 -82q-32 -16 -84 -16zM230 79q40 0 75 21.5t49 51.5v62l-28 -3q-153 -16 -153 -84q0 -23 15.5 -35.5t41.5 -12.5zM279 567q35 0 59.5 21.5t24.5 52.5h32q0 -48 -34.5 -76.5t-81.5 -28.5q-48 0 -82.5 28.5t-34.5 76.5h32q0 -31 24.5 -52.5
t60.5 -21.5z" />
    <glyph glyph-name="amacron.salt" horiz-adv-x="569" 
d="M477 -10q-50 0 -78.5 27t-28.5 80q0 8 2 30q-15 -61 -62 -99t-122 -38q-64 0 -106 29.5t-42 88.5q0 43 20.5 73.5t61 48.5t86.5 27.5t112 15.5l31 3v38q0 80 -77 80q-42 0 -66.5 -24t-24.5 -68l-119 7v9q0 81 57.5 124.5t152.5 43.5t152.5 -45.5t57.5 -131.5v-8l-6 -168
v-4q0 -46 37 -46q16 0 31 5l15 -82q-32 -16 -84 -16zM230 79q40 0 75 21.5t49 51.5v62l-28 -3q-153 -16 -153 -84q0 -23 15.5 -35.5t41.5 -12.5zM391 567h-225v30h225v-30z" />
    <glyph glyph-name="aogonek.salt" horiz-adv-x="569" 
d="M561 6q-7 -3 -24.5 -8.5t-25.5 -8.5q-33 -13 -54 -36.5t-21 -47.5q0 -22 14.5 -33t36.5 -11q33 0 62 20l13 -23q-30 -25 -75 -25q-37 0 -59 19.5t-22 52.5q0 50 61 86q-46 2 -71.5 29t-25.5 77q0 8 2 30q-15 -61 -62 -99t-122 -38q-64 0 -106 29.5t-42 88.5
q0 43 20.5 73.5t61 48.5t86.5 27.5t112 15.5l31 3v38q0 80 -77 80q-42 0 -66.5 -24t-24.5 -68l-119 7v9q0 81 57.5 124.5t152.5 43.5q94 0 151.5 -45.5t57.5 -131.5v-8l-6 -168v-4q0 -46 38 -46q16 0 31 5zM230 79q40 0 75 21.5t49 51.5v62l-28 -3q-153 -16 -153 -84
q0 -23 15.5 -35.5t41.5 -12.5z" />
    <glyph glyph-name="aeacute.salt" horiz-adv-x="871" 
d="M598 -10q-164 0 -219 123q-11 -53 -67.5 -88t-121.5 -35t-107.5 29.5t-42.5 88.5q0 43 20.5 73.5t61 48.5t86.5 27.5t112 15.5l31 3v36q0 80 -77 80q-42 0 -66 -23t-25 -66v-3l-119 7v9q0 81 57.5 125.5t152.5 44.5q49 0 91 -20t65 -61q54 81 163 81q104 0 167 -62
t63 -160q0 -28 -3 -50h-339q12 -130 117 -130q38 0 64.5 23.5t31.5 59.5l121 -22q-11 -71 -68 -113t-149 -42zM591 394q-41 0 -71 -28.5t-38 -78.5h213q0 45 -26 76t-78 31zM232 82q43 0 78 20t54 47q-8 25 -11 65l-27 -3q-151 -16 -151 -82q0 -47 57 -47zM530 634l-184 -94
l-15 27l185 94z" />
    <glyph glyph-name="ccedilla.salt" horiz-adv-x="556" 
d="M288 -174q-62 0 -102 34l17 24q35 -30 85 -30q57 0 57 35q0 15 -15 24t-37 9q-26 0 -49 -13l-21 16l29 67q-92 10 -148 71.5t-56 174.5q0 124 68 186t175 62q103 0 157.5 -44t64.5 -111l-121 -22q-6 35 -31 59t-69 24q-49 0 -79.5 -39.5t-30.5 -114.5t30.5 -114.5
t79.5 -39.5q44 0 69 24t31 59l121 -22q-10 -67 -64.5 -111t-157.5 -44h-12l-22 -50q15 8 40 8q34 0 56 -15.5t22 -43.5t-22.5 -45.5t-64.5 -17.5z" />
    <glyph glyph-name="cacute.salt" horiz-adv-x="556" 
d="M182 238q0 -75 30.5 -114.5t79.5 -39.5q44 0 69 24t31 59l121 -22q-10 -67 -64.5 -111t-157.5 -44q-107 0 -175 62t-68 186t68 186t175 62q103 0 157.5 -44t64.5 -111l-121 -22q-6 35 -31 59t-69 24q-49 0 -79.5 -39.5t-30.5 -114.5zM386 634l-184 -94l-15 27l185 94z
" />
    <glyph glyph-name="ccaron.salt" horiz-adv-x="556" 
d="M182 238q0 -75 30.5 -114.5t79.5 -39.5q44 0 69 24t31 59l121 -22q-10 -67 -64.5 -111t-157.5 -44q-107 0 -175 62t-68 186t68 186t175 62q103 0 157.5 -44t64.5 -111l-121 -22q-6 35 -31 59t-69 24q-49 0 -79.5 -39.5t-30.5 -114.5zM420 632l-134 -93l-134 93l18 25
l116 -80l116 80z" />
    <glyph glyph-name="ccircumflex.salt" horiz-adv-x="556" 
d="M182 238q0 -75 30.5 -114.5t79.5 -39.5q44 0 69 24t31 59l121 -22q-10 -67 -64.5 -111t-157.5 -44q-107 0 -175 62t-68 186t68 186t175 62q103 0 157.5 -44t64.5 -111l-121 -22q-6 35 -31 59t-69 24q-49 0 -79.5 -39.5t-30.5 -114.5zM152 564l134 93l134 -93l-18 -25
l-116 80l-116 -80z" />
    <glyph glyph-name="cdotaccent.salt" horiz-adv-x="556" 
d="M182 238q0 -75 30.5 -114.5t79.5 -39.5q44 0 69 24t31 59l121 -22q-10 -67 -64.5 -111t-157.5 -44q-107 0 -175 62t-68 186t68 186t175 62q103 0 157.5 -44t64.5 -111l-121 -22q-6 35 -31 59t-69 24q-49 0 -79.5 -39.5t-30.5 -114.5zM358 567h-143v30h143v-30z" />
    <glyph glyph-name="dcaron.salt" horiz-adv-x="637" 
d="M399 669h49q54 0 84 9v-678h-92l-22 129q-18 -71 -58 -105t-112 -34q-94 0 -147 65t-53 184q0 121 56.5 184t141.5 63q58 0 98 -28t55 -78v289zM295 84q36 0 63 21t41 47v168q-32 70 -105 70q-51 0 -81.5 -39.5t-30.5 -116.5q0 -71 31.5 -110.5t81.5 -39.5zM611 463v207
h30v-207h-30z" />
    <glyph glyph-name="eth.salt" horiz-adv-x="575" 
d="M225 480l-17 25l82 58q-36 18 -84 18t-73 -8l-16 76q29 13 100 13q91 0 160 -44l85 59l17 -24l-76 -54q124 -101 124 -310q0 -145 -62 -223t-182 -78q-103 0 -169 58.5t-66 171.5q0 106 60.5 160t139.5 54q91 0 139 -62q-4 119 -70 175zM395 264q0 16 -2 46
q-42 42 -105 42q-50 0 -79 -36t-29 -98q0 -59 27 -96t76 -37q112 0 112 179z" />
    <glyph glyph-name="dcroat.salt" horiz-adv-x="604" 
d="M590 534h-58v-534h-92l-22 129q-18 -71 -58 -105t-112 -34q-94 0 -147 65t-53 184q0 121 56.5 184t141.5 63q58 0 98 -28t55 -78v154h-103v29h103v106h49q54 0 84 9v-115h58v-29zM295 84q37 0 64 20t40 48v168q-30 70 -105 70q-51 0 -81.5 -38.5t-30.5 -117.5
q0 -73 31.5 -111.5t81.5 -38.5z" />
    <glyph glyph-name="eacute.salt" horiz-adv-x="571" 
d="M296 -10q-112 0 -180 61t-68 184q0 128 68 189.5t175 61.5q104 0 167 -61t63 -156q0 -33 -3 -55h-338q13 -130 116 -130q38 0 64.5 23.5t31.5 59.5l121 -22q-11 -71 -68 -113t-149 -42zM289 394q-42 0 -71.5 -28t-36.5 -79h208q0 46 -24.5 76.5t-75.5 30.5zM386 634
l-184 -94l-15 27l185 94z" />
    <glyph glyph-name="egrave.salt" horiz-adv-x="571" 
d="M296 -10q-112 0 -180 61t-68 184q0 128 68 189.5t175 61.5q104 0 167 -61t63 -156q0 -33 -3 -55h-338q13 -130 116 -130q38 0 64.5 23.5t31.5 59.5l121 -22q-11 -71 -68 -113t-149 -42zM289 394q-42 0 -71.5 -28t-36.5 -79h208q0 46 -24.5 76.5t-75.5 30.5zM202 661
l184 -94l-14 -27l-185 94z" />
    <glyph glyph-name="ecircumflex.salt" horiz-adv-x="571" 
d="M296 -10q-112 0 -180 61t-68 184q0 128 68 189.5t175 61.5q104 0 167 -61t63 -156q0 -33 -3 -55h-338q13 -130 116 -130q38 0 64.5 23.5t31.5 59.5l121 -22q-11 -71 -68 -113t-149 -42zM289 394q-42 0 -71.5 -28t-36.5 -79h208q0 46 -24.5 76.5t-75.5 30.5zM152 564
l134 93l134 -93l-18 -25l-116 80l-116 -80z" />
    <glyph glyph-name="edieresis.salt" horiz-adv-x="571" 
d="M296 -10q-112 0 -180 61t-68 184q0 128 68 189.5t175 61.5q104 0 167 -61t63 -156q0 -33 -3 -55h-338q13 -130 116 -130q38 0 64.5 23.5t31.5 59.5l121 -22q-11 -71 -68 -113t-149 -42zM289 394q-42 0 -71.5 -28t-36.5 -79h208q0 46 -24.5 76.5t-75.5 30.5zM257 559h-125
v30h125v-30zM440 559h-125v30h125v-30z" />
    <glyph glyph-name="ebreve.salt" horiz-adv-x="571" 
d="M296 -10q-112 0 -180 61t-68 184q0 128 68 189.5t175 61.5q104 0 167 -61t63 -156q0 -33 -3 -55h-338q13 -130 116 -130q38 0 64.5 23.5t31.5 59.5l121 -22q-11 -71 -68 -113t-149 -42zM289 394q-42 0 -71.5 -28t-36.5 -79h208q0 46 -24.5 76.5t-75.5 30.5zM287 567
q35 0 59.5 21.5t24.5 52.5h32q0 -48 -34.5 -76.5t-81.5 -28.5q-48 0 -82.5 28.5t-34.5 76.5h32q0 -31 24.5 -52.5t60.5 -21.5z" />
    <glyph glyph-name="ecaron.salt" horiz-adv-x="571" 
d="M296 -10q-112 0 -180 61t-68 184q0 128 68 189.5t175 61.5q104 0 167 -61t63 -156q0 -33 -3 -55h-338q13 -130 116 -130q38 0 64.5 23.5t31.5 59.5l121 -22q-11 -71 -68 -113t-149 -42zM289 394q-42 0 -71.5 -28t-36.5 -79h208q0 46 -24.5 76.5t-75.5 30.5zM420 632
l-134 -93l-134 93l18 25l116 -80l116 80z" />
    <glyph glyph-name="edotaccent.salt" horiz-adv-x="571" 
d="M296 -10q-112 0 -180 61t-68 184q0 128 68 189.5t175 61.5q104 0 167 -61t63 -156q0 -33 -3 -55h-338q13 -130 116 -130q38 0 64.5 23.5t31.5 59.5l121 -22q-11 -71 -68 -113t-149 -42zM289 394q-42 0 -71.5 -28t-36.5 -79h208q0 46 -24.5 76.5t-75.5 30.5zM358 567h-143
v30h143v-30z" />
    <glyph glyph-name="emacron.salt" horiz-adv-x="571" 
d="M296 -10q-112 0 -180 61t-68 184q0 128 68 189.5t175 61.5q104 0 167 -61t63 -156q0 -33 -3 -55h-338q13 -130 116 -130q38 0 64.5 23.5t31.5 59.5l121 -22q-11 -71 -68 -113t-149 -42zM289 394q-42 0 -71.5 -28t-36.5 -79h208q0 46 -24.5 76.5t-75.5 30.5zM399 567h-225
v30h225v-30z" />
    <glyph glyph-name="eogonek.salt" horiz-adv-x="571" 
d="M296 -10q-112 0 -180 61t-68 184q0 128 68 189.5t175 61.5q104 0 167 -61t63 -156q0 -33 -3 -55h-338q13 -130 116 -130q38 0 64.5 23.5t31.5 59.5l121 -22q-15 -97 -112 -143q-43 -20 -70.5 -46.5t-27.5 -50.5q0 -22 14.5 -33t36.5 -11q33 0 62 20l13 -23
q-30 -25 -75 -25q-37 0 -59 19.5t-22 52.5q0 24 21 48.5t52 40.5q-21 -4 -50 -4zM289 392q-42 0 -71.5 -27.5t-36.5 -77.5h208q0 46 -24.5 75.5t-75.5 29.5z" />
    <glyph glyph-name="gbreve.salt" horiz-adv-x="576" 
d="M277 486q66 0 120 -22q7 53 39 76.5t76 23.5q32 0 54 -4l-5 -100q-18 4 -60 4q-39 0 -75 -14q73 -44 73 -123q0 -78 -60 -116t-158 -38q-43 0 -85 9q-31 -12 -31 -37q0 -39 99 -39h96q89 0 139.5 -33t50.5 -95q0 -81 -72.5 -121t-198.5 -40q-117 0 -187.5 25.5
t-70.5 75.5q0 39 38.5 61.5t106.5 25.5q-54 5 -85.5 30t-31.5 65q0 38 31 62.5t78 30.5q-46 16 -73 50.5t-27 84.5q0 77 63 117.5t156 40.5zM282 -127q65 0 104 18t39 51q0 50 -100 50h-85q-49 0 -72.5 -17.5t-23.5 -40.5q0 -61 138 -61zM280 250q41 0 68 22t27 57
q0 36 -27 58t-68 22q-42 0 -68 -21.5t-26 -58.5q0 -36 26 -57.5t68 -21.5zM278 567q35 0 59.5 21.5t24.5 52.5h32q0 -48 -34.5 -76.5t-81.5 -28.5q-48 0 -82.5 28.5t-34.5 76.5h32q0 -31 24.5 -52.5t60.5 -21.5z" />
    <glyph glyph-name="gcircumflex.salt" horiz-adv-x="576" 
d="M277 486q66 0 120 -22q7 53 39 76.5t76 23.5q32 0 54 -4l-5 -100q-18 4 -60 4q-39 0 -75 -14q73 -44 73 -123q0 -78 -60 -116t-158 -38q-43 0 -85 9q-31 -12 -31 -37q0 -39 99 -39h96q89 0 139.5 -33t50.5 -95q0 -81 -72.5 -121t-198.5 -40q-117 0 -187.5 25.5
t-70.5 75.5q0 39 38.5 61.5t106.5 25.5q-54 5 -85.5 30t-31.5 65q0 38 31 62.5t78 30.5q-46 16 -73 50.5t-27 84.5q0 77 63 117.5t156 40.5zM282 -127q65 0 104 18t39 51q0 50 -100 50h-85q-49 0 -72.5 -17.5t-23.5 -40.5q0 -61 138 -61zM280 250q41 0 68 22t27 57
q0 36 -27 58t-68 22q-42 0 -68 -21.5t-26 -58.5q0 -36 26 -57.5t68 -21.5zM154 574l114 83l114 -83l-18 -25l-96 70l-96 -70z" />
    <glyph glyph-name="gcommaaccent.salt" horiz-adv-x="576" 
d="M277 486q66 0 120 -22q7 53 39 76.5t76 23.5q32 0 54 -4l-5 -100q-18 4 -60 4q-39 0 -75 -14q73 -44 73 -123q0 -78 -60 -116t-158 -38q-43 0 -85 9q-31 -12 -31 -37q0 -39 99 -39h96q89 0 139.5 -33t50.5 -95q0 -81 -72.5 -121t-198.5 -40q-117 0 -187.5 25.5
t-70.5 75.5q0 39 38.5 61.5t106.5 25.5q-54 5 -85.5 30t-31.5 65q0 38 31 62.5t78 30.5q-46 16 -73 50.5t-27 84.5q0 77 63 117.5t156 40.5zM282 -127q65 0 104 18t39 51q0 50 -100 50h-85q-49 0 -72.5 -17.5t-23.5 -40.5q0 -61 138 -61zM280 250q41 0 68 22t27 57
q0 36 -27 58t-68 22q-42 0 -68 -21.5t-26 -58.5q0 -36 26 -57.5t68 -21.5zM262 544v157h30v-157h-30z" />
    <glyph glyph-name="gdotaccent.salt" horiz-adv-x="576" 
d="M277 486q66 0 120 -22q7 53 39 76.5t76 23.5q32 0 54 -4l-5 -100q-18 4 -60 4q-39 0 -75 -14q73 -44 73 -123q0 -78 -60 -116t-158 -38q-43 0 -85 9q-31 -12 -31 -37q0 -39 99 -39h96q89 0 139.5 -33t50.5 -95q0 -81 -72.5 -121t-198.5 -40q-117 0 -187.5 25.5
t-70.5 75.5q0 39 38.5 61.5t106.5 25.5q-54 5 -85.5 30t-31.5 65q0 38 31 62.5t78 30.5q-46 16 -73 50.5t-27 84.5q0 77 63 117.5t156 40.5zM282 -127q65 0 104 18t39 51q0 50 -100 50h-85q-49 0 -72.5 -17.5t-23.5 -40.5q0 -61 138 -61zM280 250q41 0 68 22t27 57
q0 36 -27 58t-68 22q-42 0 -68 -21.5t-26 -58.5q0 -36 26 -57.5t68 -21.5zM349 566h-143v30h143v-30z" />
    <glyph glyph-name="hbar.salt" horiz-adv-x="591" 
d="M205 0h-133v534h-58v29h58v106h49q57 0 84 9v-115h103v-29h-103v-156q16 50 54.5 79t96.5 29q76 0 123.5 -48.5t47.5 -137.5v-300h-133v284q0 106 -90 106q-31 0 -57.5 -18.5t-41.5 -52.5v-319z" />
    <glyph glyph-name="hcircumflex.salt" horiz-adv-x="591" 
d="M205 0h-133v669h49q53 0 84 9v-300q16 50 54.5 79t96.5 29q76 0 123.5 -48.5t47.5 -137.5v-300h-133v284q0 106 -90 106q-31 0 -57.5 -18.5t-41.5 -52.5v-319zM5 714l134 93l134 -93l-18 -25l-116 80l-116 -80z" />
    <glyph glyph-name="i.salt" horiz-adv-x="277" 
d="M207 547h-137v31h137v-31zM205 0h-133v476h133v-476z" />
    <glyph glyph-name="i.trk.salt" horiz-adv-x="277" 
d="M207 547h-137v31h137v-31zM205 0h-133v476h133v-476z" />
    <glyph glyph-name="iacute.salt" horiz-adv-x="277" 
d="M205 0h-133v476h133v-476zM238 634l-184 -94l-15 27l185 94z" />
    <glyph glyph-name="igrave.salt" horiz-adv-x="277" 
d="M205 0h-133v476h133v-476zM54 661l184 -94l-14 -27l-185 94z" />
    <glyph glyph-name="icircumflex.salt" horiz-adv-x="277" 
d="M205 0h-133v476h133v-476zM4 564l134 93l134 -93l-18 -25l-116 80l-116 -80z" />
    </font>
</defs>
</svg>
