<svg xmlns="http://www.w3.org/2000/svg" xmlns:xlink="http://www.w3.org/1999/xlink" width="31" height="27" viewBox="0 0 31 27">
    <defs>
        <filter id="a" width="117.2%" x="-8.6%" filterUnits="objectBoundingBox">
            <feOffset in="SourceAlpha" result="shadowOffsetOuter1"/>
            <feGaussianBlur in="shadowOffsetOuter1" result="shadowBlurOuter1" stdDeviation=".5"/>
            <feColorMatrix in="shadowBlurOuter1" result="shadowMatrixOuter1" values="0 0 0 0 0 0 0 0 0 0 0 0 0 0 0 0 0 0 0.5 0"/>
            <feMerge>
                <feMergeNode in="shadowMatrixOuter1"/>
                <feMergeNode in="SourceGraphic"/>
            </feMerge>
        </filter>
        <path id="b" d="M0 .04h3.163v6.991H0z"/>
        <path id="d" d="M.129.132h4.548v3.2H.129z"/>
    </defs>
    <g fill="none" fill-rule="evenodd" filter="url(#a)" transform="translate(1 1)">
        <path fill="#FFCC10" d="M1.94 21.947c0-3.404-.075-6.85.08-10.205.072-1.584-.168-5.638 1.289-6.474 2.325-1.334 4.968-1.603 7.474-2.204 1.28-.307 2.177-.643 3.54-.643 1.482 0 2.833-.1 4.181.574 1.617.809 3.347 1.405 5.04 1.99 1.538.532 2.68.222 3.03 2.125.461 2.518.516 5.132.343 7.727-.097 1.452-.261 2.878-.261 4.349 0 1.26.264 2.887-.09 4.082-.625 2.114-5.191 1.587-6.909 1.413-2.656-.268-5.42-.07-8.116-.098-1.474-.017-2.789.08-4.267.08-.847 0-1.749-.02-2.534-.108-.907-.102-1.16-.142-1.845-.929-.418-.48-.76-.98-.955-1.68"/>
        <path fill="#000" d="M15.288 6.641c.251.065.428-.072.593.021.015-.022.03-.06.042-.06.102.014.205.034.344.058h1.08c.077-.032.096-.047.116-.047a47.569 47.569 0 0 1 2.301.035h.667v-.01l.38.019c.005-.034 1.373-.034 1.444.013.049-.05 1.113-.04 1.131-.023h.608l-.002-.016h1.017l.027.039c.009-.097 2.13-.02 2.28.074-.044.081-.086.162-.13.247l-.038-.05-.072.086c-.123-.08-.254-.018-.449 0 .062-.033.044-.02.024-.016-.005.001-.016-.028-.016-.028l-.248.028a.974.974 0 0 0 .007.026h-.084a1.19 1.19 0 0 0 .003-.042h-.558l.012.043c-.164-.078-.34-.034-.501-.052l-.196.027a.204.204 0 0 1-.004-.01c-.125-.124-.227.065-.352-.021a13.146 13.146 0 0 0-.048-.105l.02.101-.327.02-.028-.037c-.022.03-.046.059-.081.103l-.029-.104c-.02.034-.033.056-.047.077a5.99 5.99 0 0 0-.092-.046c-.13.006-.244.043-.323.004-.057-.027-.15.037-.172-.115-.007.16-.087.08-.12.1-.06.035-.097.04-.122-.014l-.143.046a86.195 86.195 0 0 0-.126-.094l-.077.099c-.024-.114-.13.082-.158-.038L22.7 7l-.018-.067-.06.111c-.096-.105-.21.013-.335-.054l-.019-.034c-.074.153-.22-.1-.3.058l-.03-.068c-.026.041-.111-.034-.102.039h-.453l-.015.046c-.067-.055-.133-.074-.21-.031-.008-.108-.13.078-.145-.04l-.07.054c0-.136-.13.042-.135-.084-.068.08-.125.027-.204.003l.058.076-.225-.05c.005-.002-.05.047-.094-.03-.044.107-.107.069-.17.024l.007.12c-.058-.119-.133-.025-.197-.056l.005-.046-.24.032a2.995 2.995 0 0 1-.025-.032c-.155.1-.323-.049-.532.034l-.559-.027a1.554 1.554 0 0 0-.011.046l-.042-.059c-.003.017-.007.033-.003.018l-.31.045-.03-.066-.049.078a8.424 8.424 0 0 1-.04-.086 4.408 4.408 0 0 0-.036.065l-.05-.041-.006.1c-.018-.126-.16.022-.139-.168l-.059.084-.237-.036-.026.057-.036-.067v.056l-.158-.052-.012.056-.08-.042c0 .03.002.05.003.082l-.094-.102a.505.505 0 0 0-.011.011l.023.026-.106.055-.031-.064c-.047.023-.094.048-.13-.015l-.015.021c-.208.103-.37-.131-.57.09l.033-.064h-.57l-.146-.056-.012.076-.08-.06-.085.066a54.605 54.605 0 0 0-.231-.055l.014-.035-.205.074a3.786 3.786 0 0 1-.02-.033l-.242.067-.062-.067-.502.033c.068-.04.028-.017-.02.01l-.002-.037c-.061-.01-.121-.02-.179-.028.003.016.01.057-.027.053l-.045-.062-.204.126.044-.101c-.076.124-.206-.05-.296.048a20.5 20.5 0 0 1-.057-.054c-.046.059-.092.067-.118.014a46.13 46.13 0 0 1-.18-.01l.023.143c-.073-.21-.247.01-.276-.164-.222.119-.482-.03-.716.067l-.012-.06-.04-.002-.003.035-.29.013c-.015-.052-.052-.034-.083-.005-.06-.051-.106-.053-.135.017l-.065-.072a.22.22 0 0 0-.02.024l-.4.036c-.019.018-.073.005-.122-.075-.028.14-.133-.006-.197.061l-.06-.034-.009.053-.045-.052v.09l-.03-.09-.073.071-.034-.04h-.935l-.001-.008c-.116-.001-.233.086-.337-.043l-.037.087a7.143 7.143 0 0 0-.047-.06c-.007.123-.113-.009-.137.058-.114-.134-.238-.045-.368-.036l-.008-.04-.093.058-.037-.03-.061.072c-.049-.165-.204.026-.269-.1l.037.085c-.217-.077-.43-.115-.664-.03l-.513-.023.025.018-.361-.036c.004.026.001.008-.001-.01l-.204.068.069-.094-.272.06c-.024-.037-.122.074-.136-.06l-.042.062c-.06-.1-.15.116-.208-.057l-.011.08a54.522 54.522 0 0 0-.282-.035c.044.025.013.007-.03-.016-.156.09-.368-.063-.52.053l-.56-.032c-.025-.024-.095-.05-.148-.02-.18.009-.33.016-.488.022-.034.066-.085.018-.127-.002-.068.089-.097-.002-.136-.026l-.031.08-.016-.022-.716-.04c.006-.007-.007.012-.024.036l-.05-.094.01.108c-.03-.014-.06-.044-.087-.04-.05.009-.096.036-.152.059l-.013-.05h-.123c-.09-.067-.215.094-.267-.082l-.008.11-.18-.068.044.075-.272-.11.074.086c-.101.017-.06-.093-.097-.117l-.089.02v-.1l-.048-.024c.003-.007.004-.013.006-.013.054-.009.077-.103.14-.057.108-.188.27.017.382-.084.004.008-.003-.004.004.01h7.082a1.23 1.23 0 0 0-.003-.04c.175.076.292.078.343.027h.398c.113.075.267.008.421-.028-.004.022.019.071.008.063l.228.013c0-.021-.002-.043-.004-.082l.04.048.398-.029c.195.033.438.054.685.039h.787v-.012h.988c.009.015.002.004.003.007h.91l-.001-.005h.82z"/>
        <g transform="translate(0 9.464)">
            <mask id="c" fill="#fff">
                <use xlink:href="#b"/>
            </mask>
            <path fill="#000" d="M3.077 6.446l.062.095-.132.042h.156c-.076.186-.935.435-1.18.345.004.133-.147-.017-.156.088l-.195-.037c-.135.095-.313-.003-.47.041-.203.057-.31-.127-.446-.166l-.128-.512-.083-.028c.064-.197-.056-.373-.113-.559.023-.033-.055-.064.032-.086C.363 5.621.27 5.587.386 5.5l-.17-.287.086-.01-.092-.098c.079-.107-.023-.178-.032-.192-.013-.227-.005-.387-.041-.536C.128 4.34.04 4.305.064 4.223c.02-.07.074-.143.002-.214.076-.083.078-.177.042-.282l.022.003-.06-.341c.087-.005-.066-.153.08-.111-.033-.052-.056-.088-.065-.1.08-.178 0-.341 0-.53.007.006-.014-.017-.034-.04.054-.046.143-.076.077-.186h.04c-.021-.107.02-.243-.168-.3.23-.008.1-.077.062-.142l.07.032c-.066-.193.029-.364.041-.544l.123-.052-.097-.032.023-.02-.109-.023.09-.053c-.057-.082.014-.188.057-.2.147-.04.137-.227.29-.31v-.14l.04.014L.676.33C.788.191.991.225 1.1.087l.061.104.035-.084.087.02.009-.034.013.054c.1-.09.194-.017.282.004.033-.127.104.031.143-.022L1.72.04c.097.152.263-.02.359.11l.047-.061.011.07c.077-.132.157-.07.243-.015l.007-.055c.042.036.045.125.135.1l.012.043.012-.056c.09.102.203.128.324.115.028.06.052.116.082.183-.112.05.214.261-.08.277-.11.006-.21-.008-.3-.11a4.695 4.695 0 0 0-.07.03L2.528.59c-.434-.1-.87-.094-1.31-.096l-.21.141A8.893 8.893 0 0 0 1 .666l-.223.42.035.018c-.01.012-.017.025-.028.034-.03.02-.058.07-.068.047.064.086-.159.1-.108.212L.65 1.39c-.007.021-.01.05-.024.062-.018.014-.047.015-.077.023-.065.074.082.227-.064.284l.028.21-.057.063.065-.02v.597c-.214.172.115.418-.042.59.024.126.108.306.06.36-.157.17.1.419-.12.563.203.133.065.366.148.543.055.08.12.156.013.242l.162.414c-.021-.016-.008-.005.005.005-.064.05.104.087.005.142l.097.05-.096-.015a45.14 45.14 0 0 1-.019.191c.16.036.11.212.18.313.04.059.018.163.025.273l.024.008c-.033.079.158.371.229.34.048-.02.096-.045.152-.072l.005.088c.075-.07.164-.062.248-.029.046-.089.216.064.21-.073h.423c.054-.097.117.009.18-.008v-.054c.167.114.183-.043.243-.14l.02.103c.013-.023.02-.05.037-.058.025-.01.055-.006.069-.007.074-.117.127.135.22.085l.077-.018z" mask="url(#c)"/>
        </g>
        <path fill="#000" d="M28.094 9.599c.219.16.192.377.269.59l.066.025c.024.134-.075.314.183.397l-.137.022.146.118-.097.03c.045.029.043.058.004.083l.1.09-.066.083.166.282-.065.004.115.41c.044.435.149.766.02 1.08.08.065.08.076.025.12l.052.21c-.083.006.051.139-.074.114l.06.095c-.08.176-.005.335-.003.527l.039.052c-.123 0-.064.139-.115.184.01.105-.023.237.166.294-.239.005-.095.078-.07.128a5.305 5.305 0 0 0-.062-.011c.058.197-.035.37-.053.572l.048.052-.107-.067c-.074.065.155.07.084.18l-.401.528.017.026c-.025.009-.056.011-.06.022-.009.032-.007.067-.012.126l-.067.234a80.141 80.141 0 0 1-.087-.045l.028.057a.65.65 0 0 1-.444.184c.006-.02-.003.006-.014.038-.006-.018-.01-.03-.01-.027-.132-.017-.262.059-.39-.04l.008.086c-.05-.027-.09-.05-.14-.076v.09l-.207-.11.069.084-.327-.053c.052.004-.012.102-.094.002l.006.058c-.272-.196-.78-.109-.707-.66.124.004.286-.051.412.1l.07-.028-.017.097.98.086c-.07-.034-.02.012-.001-.07l.33.014-.008.041.015-.002.2-.133.012-.05.218-.393-.035-.03c.01-.009.018-.018.029-.026.028-.023.057-.062.114.042l-.052-.157c.107.004.096-.085.123-.145l-.052.007c.004-.015.002-.036.012-.043.022-.02.05-.033.105-.066.036-.06-.091-.206.06-.269-.14-.454.082-.914-.045-1.377l.06-.074c-.039-.03-.056-.072-.028-.102-.148-.21.11-.446-.054-.642.095.002 0-.17.132-.142.004-.066-.046-.052-.09-.058l.052-.013c-.177-.111-.026-.333-.142-.472l.03-.015-.086-.187.066-.017-.193-.588c.082-.261-.165-.393-.119-.61-.065-.057-.054-.134-.025-.22-.158-.054-.076-.507-.431-.282l.005-.06-.324.04c-.05-.028-.112-.017-.16.063l-.034-.042-.367.019c-.032.1-.17-.072-.19.083-.057-.131-.122-.034-.183-.006l-.042.13-.034-.103c-.044.021-.086.04-.126.062-.088.047-.048-.051-.074-.066-.089.039-.095-.036-.117-.085a10.74 10.74 0 0 0-.076.027l-.013-.084-.117.011.178-.147v.023c.346-.262.779-.186 1.183-.292l.025-.051.013.05c.063-.036.113-.025.14.016.098-.025.198-.087.271-.063.18.058.41-.07.538.11"/>
        <g transform="translate(12.393 .12)">
            <mask id="e" fill="#fff">
                <use xlink:href="#d"/>
            </mask>
            <path fill="#000" d="M1.181 1.01c-.124.049-.142.178-.189.256l-.17.081c.082.37-.387.646-.205 1.081L.561 2.38v.251c-.068.054.026.058.056.088-.04.07-.017.123.05.159l-.169.25-.08-.098c-.027.062-.072.01-.094-.006C.302 3.01.3 2.964.289 2.932c-.103-.101-.127-.24-.13-.435.038-.06.019-.18-.03-.296.178-.071.114-.162.027-.26.184-.028.11-.242.224-.325a4.022 4.022 0 0 1-.06-.013l.106-.055a94.768 94.768 0 0 0-.084-.12c.069-.022.119-.078.11-.177l-.016-.007c.011-.043.121-.082-.005-.132C.537 1.058.658 1.024.7.88l.076.018C.719.696.956.744 1.007.63 1 .623.987.61.953.58c.12.035.105-.165.183-.106C1.84-.006 2.617.18 3.36.132L3.34.176c.208-.019.364.117.485.236.09.088.266.033.315.216.008.005.056.02.076.054.066.103.13.21.178.323.046.112.153.234 0 .341l.055.12-.083.01c.116.053.023.23.203.232l-.09.061.052.069c.02.128.045.252-.08.347l.114.52a.15.15 0 0 1 .014.012c-.033.15-.062.265.098.37l-.1-.011c.058.114-.016.176-.084.246l-.014-.041-.056.052V3.24c-.054-.014-.131-.024-.131-.035 0-.078-.141.01-.108-.084.027-.016.05-.024.063-.04.009-.012.002-.035.002-.085l-.068.113c.03-.119.005-.186-.03-.216.044-.35-.162-.689.044-1.012l-.08-.009v-.175l-.054-.007c.016-.05.042-.105-.025-.13.05-.186-.01-.35-.072-.52l.1-.052c-.083.016-.105.02-.123.025-.022-.101-.18-.105-.164-.222h-.11l.002-.03.063.01c-.025-.02-.036-.035-.05-.04-.04-.012-.08-.02-.121-.031.03-.1-.081-.051-.103-.102C3.449.58 3.412.574 3.385.59L3.242.522a2.65 2.65 0 0 1-.03.061L3.17.503c-.09.054-.215-.063-.276.035L2.567.524c-.004 0-.009.023-.016.043C2.53.507 2.425.576 2.44.46l-.065.086-.028-.08-.2.082c-.095-.086-.2.015-.318.042a2.546 2.546 0 0 0-.033-.05c-.077.056-.15.108-.183.13-.078.008-.131-.002-.148.02-.022.027-.016.078-.02.11-.187-.06-.118.198-.248.193l-.016.016" mask="url(#e)"/>
        </g>
        <path fill="#000" d="M3.077 15.91L3 15.928l-.073-.1c.03-.01.057-.017.095-.028l.055.11M26.05 10.177l-.13.01a38.81 38.81 0 0 1-.064-.14l.194.13"/>
    </g>
</svg>
