<svg xmlns="http://www.w3.org/2000/svg" xmlns:xlink="http://www.w3.org/1999/xlink" width="24" height="34" viewBox="0 0 24 34">
    <defs>
        <path id="a" d="M0 .013h23.969V33.67H0z"/>
    </defs>
    <g fill="none" fill-rule="evenodd">
        <g>
            <mask id="b" fill="#fff">
                <use xlink:href="#a"/>
            </mask>
            <path fill="#FF5733" d="M18.62 14.4c-.5 1.141-1.119 1.8-2.102 2.57-.824.645-2.045 1.597-2.701 1.792-1.66.496-3.43.83-6.272-1.217-2.246-1.618-2.692-4.611-2.306-6.833.223-1.604 1.186-2.732 2.272-3.602 1.306-1.046 2.153-1.59 4.105-1.714.927-.03 1.965.188 3.088.66l.244.104c1.405.61 2.596 1.638 3.35 2.968 1.12 1.975.97 3.794.322 5.271m5.349-2.4c-.037-1.614-1.771-2.574-1.771-2.574s1.227-1.465.305-3.077c-.362-.632-.808-1.275-1.34-1.52-.825-.381-1.714-.155-1.714-.155s.55-2.01-1.375-3.084c-.676-.337-1.24-.455-1.703-.452-1.15.007-1.662.764-1.662.764S14.34.935 13.495.414c-.44-.271-.829-.447-1.633-.39-.675-.027-1.134.384-1.52.694-.646.517-1.08 1.183-1.08 1.183s-.632-.34-1.57-.456c-.537-.067-1.207-.169-1.831.18-.689.385-1.16.858-1.334 1.398-.26.808-.005 1.65-.005 1.65s-1.25-.205-2.247.604c-.307.249-.591.594-.807 1.071-.32.709-.232.989-.173 1.456a5.8 5.8 0 0 0 .478 1.621s-1.897.69-1.767 2.73c.038.59.36 1.095.566 1.466.507.916 1.14 1.196 1.14 1.196s-.599.7-.539 1.83c.027.51.189 1.32.597 1.822C3.126 20.296 4.46 19.6 4.46 19.6s.133.721.444 1.48c.227.552.498 1.132 1.137 1.43.009.002-.226.686-.37 1.782a3.97 3.97 0 0 1-.164.722c-.312.95-.738 1.9-.963 2.493a33.706 33.706 0 0 0-.876 2.63c-.139.48-.27.947-.37 1.304a.28.28 0 0 0 .405.32c.377-.21.858-.47 1.198-.631.35-.167.7-.332 1.049-.502.474-.231.953-.457.953-.457s1.1 2.118 1.252 2.43c.063.128.197.382.334.638.149.278.56.24.656-.06.544-1.7 1.809-5.523 1.833-5.902.288-1.8.97-3.19 1.007-3.195.034.005.422 1.621.73 2.51.083.242.819 1.906.899 2.148.384 1.174 1.095 3.625 1.473 4.768.065.197.335.22.433.037.268-.5.66-1.234.758-1.435.153-.311.79-1.94.79-1.94s.98.515 1.567.775c.059.026.119.05.18.073.315.122.926.449 1.397.71.226.125.533-.22.452-.464-.073-.218-.155-.47-.238-.728-.254-.788-.56-1.447-.823-2.233a54.897 54.897 0 0 1-.525-1.685 22.294 22.294 0 0 0-.53-1.548c-.534-1.406-.628-2.557-.618-2.56a2.325 2.325 0 0 0 1.26-1.169c.412-.837.32-1.74.32-1.74s.606-.035 1.393-.399c.413-.191.847-.293 1.295-.881 1.123-1.983.06-3.504.06-3.504s.394.137.894-.587c.314-.455.83-1.607.817-2.23" mask="url(#b)"/>
        </g>
        <path fill="#1C2838" d="M8.003 24.013c.008-.035-.035.006-.002-.026.01.01.017.02.002.026M6.002 28.889c-.014-.098.06-.161.063-.256.002-.01.022.018.024-.006-.004-.096.057-.2.114-.275l.004.01c.011-.014-.002-.05.008-.066.004.003.004.01.01.01-.01-.013.007-.037 0-.051.008-.004.018.003.026-.003l-.01-.02c-.023-.052.028-.069.025-.12.002.004.004.01.008.008.002-.078.035-.155.052-.232.004.006.013.015.02.014-.014-.013-.01-.038-.006-.059.019.002-.002-.042.014-.06l.003.005c-.01-.027.018-.018.003-.045l.016-.002c-.019-.022.02-.017.014-.038l-.005-.002c0-.017.013-.016.014-.031h.003c.004-.031.021-.04.004-.05.017-.001-.003.031.022.029.015-.105.052-.199.084-.292.011-.007.016-.012.023-.01 0-.012.009-.037.003-.052 0 .004.011 0 .014-.004.012-.013-.013-.031.002-.045.002.01.006.017.013.018-.007-.024.002-.044.005-.066.001.005.001.01.007.013-.008-.03.016-.035.013-.06l.007.014c.023-.022-.017-.022-.001-.043 0 .008.005.008.009.012-.01-.035.01-.07.011-.097.001.003.004.004.004.004.007-.027.021-.05.023-.083.008-.008.023.019.029-.01-.02-.013.008-.052-.02-.05.01-.022.03-.053.03-.073.003.015.028.004.023.025l.017-.007c.007.007-.008.013.004.015.002-.01.004-.043.01-.05-.006-.025-.023-.056-.015-.087.003.019.024.006.024.018l-.024-.065c.003-.01.017.008.016-.01-.005-.002-.006-.01-.01-.017.004-.002.01-.043.03-.035.01 0 0 .019.01.012.006-.018 0-.023.005-.04h.003c.007-.01.003-.04-.012-.033-.003.007.013.004.003.012-.008-.015-.004-.038.001-.056.001.008.007.011.012.017-.008-.034-.004-.062-.001-.093-.01-.006.013.02.007.022.025-.026.006-.083.035-.099 0 .006-.014-.006-.012-.005.007-.015.02-.006.019-.02.008.004.002-.015.003-.028-.003-.009.005 0 .003.01-.002-.02.007-.089.031-.117-.005-.003-.012-.034-.008-.042l.01.011c.01-.003.009-.028.02-.023-.009-.027-.01.076-.014.045.013 0-.008-.046.007-.03.005-.017-.003-.041.013-.05-.003.003.013.024.016.01.006-.024-.003-.01 0-.031l-.002-.016c-.011-.008.009-.02-.007-.02.01.004.005-.037.024-.022l.015.013c.002-.01-.011-.027-.015-.04.002 0 .006 0 .008.002-.023-.017.01-.023-.004-.047.015-.016.019-.053.037-.054-.002-.02-.005-.041.006-.056.001.005 0 .01.005.015.01-.008.006-.014.005-.028.003.005.022-.014.035-.022-.002-.02-.016-.023-.024-.03.029 0 0-.055.028-.06.002.008.004.031.014.021.029 0-.007-.04.012-.057l-.021-.007c.016-.003 0-.042.02-.027-.005-.012.015-.024-.005-.034.03-.029.023-.101.065-.104-.001-.007.007-.02-.004-.023-.014.003.003.018-.005.017.001-.005-.004-.01-.006-.012.008-.01.013-.018.025.004.02-.02-.023-.049-.004-.079.007.007.011.006.013-.005l-.007-.028c.01-.02.022-.001.036.007.002-.013.007-.028 0-.04l.02-.003c-.015.003-.004-.015-.005-.023l.001.008c.006.001.008-.015.008-.023-.009-.003-.017.009-.022.015-.003-.01.001-.019-.003-.031.012.01.016-.014.02-.022.007-.01-.007-.02-.006-.023.007.004.007-.017.014-.003 0 .006-.01.005-.006.015.008-.004.02.004.016-.016-.003-.016-.027-.014-.012-.03.002.008.007.012.01.02l.013-.016-.011-.009c.004 0 .004.002.006.002-.01-.014.007-.033-.006-.046.002-.011.015-.016.02-.025v.002c.011-.007.012-.026.007-.04l.003.002a.052.052 0 0 0 .001-.035c.015-.01.047.023.038-.004.005-.017-.013-.04-.023-.038.018-.025.01-.07.038-.086-.004-.007-.008-.007-.008-.017.02-.04.017-.1.052-.12 0 .015.012.008.019.012-.008-.017.015-.006-.002-.02-.011-.007-.016-.011-.025-.002.003-.029.016-.068.031-.076-.007.004-.009-.004-.01-.012.016.013.026-.005.024-.023l-.01-.008.014-.003c-.001-.008-.02-.02-.005-.028.005.002.009.004.013.003-.004-.02-.011-.05.003-.061l.02-.004c0-.008-.005-.026-.013-.016.018-.022.025-.04.041-.04a.33.33 0 0 1 .026-.192l.008.007c.012-.01-.011-.016-.003-.023.006.01.02-.002.026.016.015-.016-.005-.036-.004-.052-.01-.009.003.015-.009.004-.003-.004.018-.024.003-.037.008-.002.018.01.024.016l-.004-.017c.024-.005.021.056.049.054l.002-.014c.02-.001.007.043.023.017-.003-.018-.022-.044-.033-.036.005-.03-.033-.036-.022-.065.012-.002-.006.025.01.028.016-.006.001-.032.01-.042-.01.01-.023-.011-.023-.022.013-.01.012.019.02-.001-.007-.01-.008-.033-.02-.02-.017-.02.014-.018.002-.04.016.002.026.043.04.024-.015-.005-.009-.04-.033-.041.006-.007.018 0 .024.011.013-.007-.015-.047.014-.034l-.013-.014c.006 0 .012-.004.022-.006.004-.011-.007-.05.014-.035-.001-.005.008-.03-.01-.03-.014.011.005.026-.018.023.02-.002.005-.025.003-.038l.009.004c-.002-.008.004-.02-.003-.029.003.008.01.009.013.006l-.01-.014c0-.027.023.008.027-.016l.004.023c0-.005.013-.005.013-.018-.01-.012-.021-.028-.03-.037 0-.016.016.003.008-.017l.008.025c.003.004.023 0 .028-.016 0-.013-.011-.04-.023-.027.002-.009.013-.016.02-.004.002-.022-.014-.005-.016-.026.01-.002.028-.016.043-.022l.014.03.004-.012c.01.024.014 0 .027.018.006-.006.003-.019.001-.029-.033.007-.027-.047-.053-.055.004-.035.064.016.038-.04-.008.002-.021-.024-.02 0 .008-.018-.02-.029-.003-.045.004.023.03-.003.036.03-.007-.007-.01.01-.009.015.012-.002.023.016.03-.004.002-.013.006-.03-.007-.035-.013-.008-.004.02-.015.003.003-.027.025-.018.004-.043-.003.016-.018.012-.028.005v-.02l.008.008c.016-.024-.013-.018-.002-.044l.022-.002c.013.016-.02.036.007.046.007-.017-.004-.03.008-.043v.015c.004-.006.04.009.028-.029-.003-.018-.008-.009-.017-.015.007-.03 0-.045.004-.064.018.015.013-.031.025 0-.014.003-.026.045-.012.066.025.003-.01.02.01.04.007-.022.028-.008.043-.003.003-.006 0-.016-.001-.02-.013-.012-.015-.003-.029-.01a.097.097 0 0 0 .005-.075c.009-.005.021.006.02.017a.339.339 0 0 1 .031-.091c-.027.005.006-.035-.016-.034-.01.013-.03.017-.037.002.005-.009.01.006.016.005-.008-.02.025-.007.01-.03-.002.031.025.02.04.036-.003-.026.011.008.018-.012a.328.328 0 0 1 .001-.079c.026-.018.024-.07.031-.096.013-.007.03.013.037 0 .005-.016-.024 0-.007-.019l.003.005c-.002-.01.027-.037.002-.061l.018.02c.004-.003 0-.01 0-.016.006.004.014.003.016.013.02-.007.008-.033.013-.05l-.016.003c0-.034.018-.046.023-.076l.012.008-.002-.02c.01.01.022 0 .016-.014l.015.06c-.01.008-.01-.021-.024-.021-.013 0-.018.027-.008.038.005-.009.002-.01 0-.021.018.007.013.021.021.035.001-.005.009-.01.004-.013.005.014.003.025-.002.042-.003-.015-.013 0-.016-.007.014.01.014.029.003.047-.022.004-.002.045-.014.066a.128.128 0 0 1-.021-.057c-.012.01-.005.017-.018.027.01.015.024.03.025.054l-.012-.006c0 .021.016.031.006.052-.018.035-.03.074-.042.103l-.011-.006c.018.031-.01.06-.006.088-.023.031-.017.088-.042.096-.013.07-.024.134-.05.2l-.013-.022c.008.02-.011.002-.013.016.017-.006.011.027.018.041-.022.023-.022.07-.02.104l-.01-.005c.01.04-.018.061-.033.093-.006 0-.018 0-.02.012.012.029.007.038.01.072a.228.228 0 0 1-.036.064c0 .09-.04.156-.051.242l-.015-.002c.003.092-.053.168-.06.24l-.02-.02c-.013.017-.01.05.008.055-.013.015-.006.056-.028.058-.011.018.001.031-.001.05-.022.036-.025.052-.034.093l.004-.008c-.003-.008-.012-.014-.017-.005.001.018-.023.05.007.051-.029.032-.02.104-.053.132.008 0 .006.012.01.019-.012.036-.04.065-.037.102-.006.003-.01-.017-.015-.003 0 .01.01.006.01.02-.007.067-.054.11-.068.165-.018.103-.059.198-.087.29l-.005-.004c.01.043-.044.058-.022.101-.008.004-.012.026-.02.014.006.034-.036.06-.03.106v-.01c-.024.027-.018.069-.041.1-.001-.006 0-.014-.006-.018-.014.008.01.048-.017.04-.003.008.01.014.012.008-.038.075-.051.173-.074.261-.036.051-.044-.023-.041.037-.007 0 .008.009.003.006 0 .023-.038.01-.03.032.018.005.006.014.016.02-.023.031-.04.03-.038.067l-.007-.008c.011.05-.015.081.002.127-.06.193-.108.384-.169.57-.067.18-.118.365-.197.54-.036.03-.037.034-.045.087-.002-.004-.002-.008-.007-.007.017.014-.01.035.005.05-.027.066-.045.132-.07.202.003-.012-.01-.027-.013-.013l.006.021h-.005c-.001.01.004.025.013.02-.047.186-.144.336-.203.51-.022.036-.036.1-.049.146A1.15 1.15 0 0 0 6.03 29s-.037-.049-.027-.111"/>
        <path fill="#1C2838" d="M8.028 24.003c-.02 0-.04.018-.056-.011.018.005.041.002.056.011M7.008 24.006c.005.003-.01.005-.014.006.002-.008-.01-.022.002-.024-.002.008.007.011.012.018M7.005 26.034c-.014-.01-.012-.048-.005-.068l.005.068z"/>
        <path fill="#1C2838" d="M7.01 26.007c-.019.007-.024 0-.017-.017.01.003.011.01.017.017"/>
        <path fill="#1C2838" d="M7.014 25.994c-.005.012-.017.014-.028.015.013.006.004-.031.028-.015"/>
        <path fill="#1C2838" d="M7.008 25.987c-.002.008.004.03-.016.03.015-.003-.004-.046.016-.03"/>
        <path fill="#1C2838" d="M7.01 25.996c-.002.004-.006.004-.004.012-.011.005-.018-.01-.017-.017l.022.005z"/>
        <path fill="#1C2838" d="M6.993 26.01v-.02l.014.01zM6.011 26.995c.003.02-.02.004-.023.005.005-.014.017.014.023-.005"/>
        <path fill="#1C2838" d="M5.984 26.997l.002-.005.03.016zM14.01 24.009c-.019-.031-.024.027-.02-.018.014 0 .026.004.02.018M16.897 29.936c-.08-.068-.045-.197-.105-.279-.005-.01.034-.007.02-.029-.067-.076-.075-.226-.065-.346l.01.004c.002-.023-.035-.039-.036-.062.006-.002.01.004.018-.003-.02 0-.018-.038-.035-.043.006-.01.02-.014.026-.028l-.024-.006c-.06-.02-.018-.087-.056-.127.006.001.01.005.015 0-.05-.068-.069-.166-.101-.248.008.001.022 0 .03-.007-.024.002-.036-.023-.046-.044.02-.018-.031-.033-.025-.064h.005c-.028-.012.007-.033-.026-.04l.015-.019c-.035.002.01-.034-.011-.045l-.007.003c-.012-.013.003-.027-.007-.04l.004-.002c-.017-.03-.005-.056-.03-.047.018-.018.018.03.043.002-.055-.103-.08-.219-.108-.33.006-.016.007-.025.016-.03-.008-.01-.015-.041-.03-.047 0 .003.01-.011.01-.018.004-.023-.033-.013-.028-.039.01.007.018.007.027.001-.025-.012-.028-.039-.04-.06.005.003.009.008.016.004-.028-.017-.007-.046-.027-.063l.017.003c.008-.04-.033 0-.03-.033.006.005.011 0 .017 0-.033-.02-.036-.067-.053-.092h.007c-.012-.03-.012-.064-.032-.094.003-.014.036-.008.022-.038-.028.01-.026-.05-.054-.02-.002-.03-.003-.077-.017-.092.014.009.032-.025.04-.003l.013-.023c.013-.001 0 .02.014.009-.004-.011-.024-.04-.022-.052-.023-.016-.062-.024-.074-.057.015.012.03-.02.037-.01l-.068-.03c-.004-.011.022-.01.01-.024-.007.003-.014-.003-.021-.006.002-.005-.02-.044.007-.059.01-.008.01.017.018 0-.006-.02-.016-.018-.022-.039l.003-.001c0-.016-.023-.037-.034-.017.001.01.016-.01.011.008-.019-.005-.03-.028-.036-.048.007.005.014.002.023.002-.03-.02-.045-.048-.063-.077-.014.004.028.004.022.01.008-.046-.049-.074-.03-.117.003.005-.019.01-.015.008-.004-.02.016-.026.006-.036.01-.005-.008-.015-.015-.027-.01-.004.004-.005.009.006-.015-.015-.052-.082-.047-.13-.007.004-.034-.016-.036-.026l.019-.002c.008-.012-.01-.032.004-.039-.027-.013.04.074.016.051.013-.012-.039-.03-.013-.031-.006-.02-.031-.032-.02-.056 0 .007.03.008.024-.007-.01-.027-.01-.005-.023-.026l-.01-.011c-.018.005-.005-.026-.022-.01.014-.007-.02-.036.01-.043l.024-.004c-.005-.011-.03-.011-.042-.017.002-.003.006-.007.01-.008-.036.01-.005-.03-.036-.034.005-.03-.016-.064.002-.083-.015-.016-.032-.03-.03-.054.003.003.006.009.014.008.006-.017-.004-.018-.013-.029.006.002.013-.034.021-.053-.015-.016-.032-.003-.044-.001.03-.029-.037-.047-.011-.079.006.005.024.022.028.004.03-.03-.035-.027-.026-.061l-.026.016c.014-.018-.028-.035.002-.042-.013-.006 0-.037-.027-.024.011-.054-.045-.108-.003-.153-.006-.005-.006-.023-.02-.015-.012.016.016.012.007.02-.003-.006-.01-.005-.015-.004.003-.017.002-.029.028-.023.009-.038-.056-.017-.056-.062.012-.002.015-.006.01-.017l-.025-.016c-.003-.028.022-.024.04-.031-.006-.013-.01-.03-.026-.032l.02-.025c-.015.018-.015-.008-.022-.013l.007.005c.007-.006-.003-.02-.007-.027-.012.005-.012.024-.013.034-.01-.004-.012-.016-.024-.022.02-.004.007-.028.006-.04 0-.014-.02-.008-.021-.012.01-.004-.004-.022.012-.016.005.003-.007.013.004.017.005-.01.022-.016.005-.029-.013-.01-.036.016-.031-.013.006.005.014.004.022.006l.004-.026-.018.004c.004-.004.006-.003.008-.005-.02 0-.016-.034-.037-.032-.006-.011.005-.03.003-.041l.003.002c.006-.018-.006-.034-.02-.041l.003-.001c0-.008-.008-.025-.02-.03.007-.024.063-.03.035-.043-.006-.02-.04-.02-.049-.008.002-.039-.037-.069-.019-.11-.008-.003-.012.002-.018-.007-.008-.053-.05-.1-.028-.153.012.012.018-.005.028-.009-.02-.006.012-.02-.016-.015-.015.007-.023.008-.026.024-.016-.027-.03-.073-.02-.095-.004.01-.01.006-.017 0 .025-.006.023-.03.01-.043l-.017.002.013-.016c-.007-.005-.034.004-.024-.018a.043.043 0 0 0 .015-.01c-.017-.014-.045-.031-.038-.055l.018-.023c-.004-.007-.022-.016-.024 0 .004-.037 0-.058.017-.075-.063-.04-.087-.121-.102-.187l.012-.002c.006-.021-.022-.003-.018-.017.013.002.02-.022.037-.013.005-.029-.028-.025-.038-.04-.016.003.013.01-.007.013-.006 0 .002-.038-.021-.034.007-.01.025-.01.035-.01l-.015-.012c.02-.027.059.027.086-.004l-.008-.013c.02-.021.037.028.036-.01-.016-.011-.052-.013-.058.004-.015-.03-.058.003-.066-.031.01-.014.01.026.028.013.013-.023-.02-.03-.017-.046-.004.02-.03.014-.038.005.006-.021.025.004.02-.022-.014 0-.03-.019-.034.004-.032.001.001-.029-.025-.034.018-.015.055.009.058-.022-.02.011-.037-.024-.063 0 .003-.012.019-.019.033-.015.008-.02-.047-.025-.009-.043l-.022.002c.006-.007.009-.016.018-.028-.004-.013-.04-.033-.009-.043-.004-.003-.011-.034-.03-.015-.007.024.023.017-.003.037.02-.021-.011-.026-.022-.034l.011-.006c-.006-.005-.008-.021-.022-.02a.013.013 0 0 0 .017-.01h-.02c-.016-.024.03-.018.018-.042l.02.015c-.005-.003.01-.018 0-.028-.017 0-.04-.002-.054-.001-.011-.012.017-.013-.004-.022l.025.012c.007.001.024-.022.018-.041-.009-.01-.038-.022-.042 0-.003-.009.003-.026.018-.022-.012-.02-.017.009-.033-.007.009-.012.018-.041.03-.062l.033.01-.003-.013c.027.01.014-.014.04-.013.002-.01-.01-.018-.018-.025-.03.04-.06-.012-.092.008-.02-.033.077-.052.013-.07-.007.008-.038 0-.022.019-.003-.024-.039-.003-.032-.035.02.015.029-.033.057-.012-.012.002-.004.02 0 .022.011-.013.036-.01.029-.033-.007-.013-.013-.032-.03-.023-.02.008.008.021-.015.019-.014-.026.014-.041-.024-.04.008.016-.011.028-.025.032l-.014-.018h.015c0-.037-.027-.002-.032-.035l.021-.024c.025 0 .004.05.038.032-.004-.022-.025-.022-.02-.045.004.003.006.009.01.012 0-.008.045-.032.01-.052-.016-.011-.015 0-.029.005-.013-.032-.03-.037-.038-.058.028-.005-.008-.039.026-.025-.013.017.002.065.031.068.028-.023.003.028.037.024-.007-.027.024-.037.043-.048 0-.008-.011-.012-.016-.016-.02.004-.017.014-.036.02a.081.081 0 0 0-.045-.066c.007-.013.026-.017.032-.006a.349.349 0 0 1-.028-.108c-.025.033-.018-.035-.04-.011-.001.02-.019.043-.036.038 0-.012.014-.004.02-.011-.022-.009.02-.032-.01-.037.019.03.039-.007.065-.01-.02-.018.018-.004.011-.027a.263.263 0 0 1-.051-.068c.013-.04-.023-.083-.032-.112.008-.02.038-.018.038-.037-.006-.019-.026.025-.021-.008h.006c-.009-.006.004-.058-.038-.053l.032-.002c.002-.006-.007-.009-.011-.012.01-.004.016-.013.025-.006.016-.025-.013-.036-.02-.055l-.014.018c-.023-.028-.012-.056-.027-.086l.017-.005-.015-.016c.018 0 .024-.022.007-.027l.056.035c-.006.017-.025-.008-.04.007-.012.012 0 .04.019.039-.002-.012-.006-.011-.014-.018.023-.012.026.005.045.008-.003-.005.002-.016-.006-.015.015.008.02.019.026.038-.013-.01-.012.012-.02.01.02-.006.033.01.033.036-.02.026.029.04.03.07a.103.103 0 0 1-.06-.026c-.005.021.007.019.001.04.018.003.044 0 .06.02l-.015.007c.014.017.037.01.04.037.005.048.018.094.026.13l-.015.006c.039.007.03.06.052.08-.003.049.042.09.021.121.034.073.065.137.081.219l-.026-.006c.02.009-.011.014-.004.027.014-.022.03.011.046.016-.008.042.025.081.05.107l-.016.007c.039.022.023.069.03.11-.006.007-.018.02-.013.03.031.013.032.025.057.051.007.024.01.063.007.09.06.075.062.171.109.254l-.017.013c.064.075.058.195.099.263l-.034.003c-.003.027.023.05.044.037-.003.027.032.054.01.077 0 .027.023.025.032.043.002.053.01.07.028.113l-.001-.012c-.009-.003-.022.002-.021.014.013.014.008.065.042.035-.009.056.048.107.032.164.01-.007.014.004.023.007.012.042.003.094.03.122-.003.008-.02-.005-.017.013.007.009.014-.005.023.006.038.063.018.147.04.208.05.104.072.224.105.33l-.008.001c.039.026-.007.094.045.108-.005.01.005.033-.011.032.028.022.002.086.04.119-.001-.004-.003-.006-.008-.01-.005.048.028.077.024.126-.004-.003-.009-.01-.017-.01-.01.023.043.03.009.052.003.01.02 0 .018-.005.011.101.062.196.098.293-.003.08-.06.025-.018.073-.006.007.015-.002.007.002.016.018-.032.047-.008.056.02-.013.015.006.029.002-.003.049-.021.064.005.093l-.012.002c.044.03.039.082.086.104.067.221.146.43.207.647.05.219.122.425.158.652-.018.061-.016.065.011.118-.005-.001-.007-.004-.011.001.026-.005.013.04.039.037.015.083.041.156.063.24-.006-.013-.03-.013-.023.002l.02.012-.006.005c.006.01.022.017.027.003.076.204.076.428.132.633.002.052.028.12.047.171.003.17.008.32.07.475 0 0-.072-.002-.103-.064"/>
        <path fill="#1C2838" d="M14.024 23.984c-.016.013-.018.04-.048.029.016-.008.031-.026.048-.029"/>
        <path fill="#1C2838" d="M14.01 23.995c.006 0-.004.012-.007.014-.003-.007-.02-.01-.013-.018.004.007.012.003.02.004"/>
        <path fill="#1C2838" d="M14.024 24.024c-.017.002-.04-.028-.048-.048l.048.048zM14.012 25.995c-.01.018-.019.016-.024-.001.009-.004.015 0 .024.001"/>
        <path fill="#1C2838" d="M14.006 25.985c.004.012-.004.021-.011.03.013-.005-.018-.026.01-.03"/>
        <path fill="#1C2838" d="M13.998 25.983c.003.008.022.02.006.034.01-.013-.032-.032-.006-.034"/>
        <path fill="#1C2838" d="M14.007 25.99c0 .006-.002.009.005.013-.005.011-.02.006-.024-.002l.02-.01zM16.004 26.008l-.012-.014.016-.002zM16.005 26.99c.015.014-.012.016-.014.02-.006-.015.022 0 .014-.02"/>
        <path fill="#1C2838" d="M15.985 27.006l-.002-.004.034-.008zM10.005 26.014c.002-.039-.034.01-.006-.028.011.01.02.02.006.028M9.014 30.907c-.037-.09.013-.197-.009-.293 0-.012.023.006.02-.02-.03-.095.005-.234.039-.338l.006.008c.006-.02-.013-.05-.008-.071.004 0 .006.008.012.004-.013-.008-.003-.041-.012-.052.006-.008.017-.005.023-.015l-.013-.016c-.032-.042.009-.085-.004-.136.003.003.005.008.009.005-.013-.081 0-.177.002-.264.005.004.014.01.02.006-.014-.008-.015-.035-.016-.059.017-.006-.01-.043.001-.068l.004.003c-.015-.024.012-.027-.006-.048l.014-.01c-.022-.014.015-.025.005-.045h-.005c-.004-.017.009-.023.006-.038h.003c-.002-.036.013-.052-.005-.056.016-.008.003.034.026.021-.005-.115.013-.228.026-.34.008-.01.012-.018.019-.019-.003-.012.002-.043-.006-.055 0 .003.01-.005.011-.01.01-.02-.016-.028-.006-.048.004.01.01.014.016.013-.011-.022-.006-.047-.008-.07.003.003.004.01.01.01-.013-.029.008-.044.001-.068l.01.01c.016-.03-.02-.015-.009-.043.002.008.007.007.01.01-.014-.034-.002-.077-.005-.107l.004.003c.002-.031.012-.061.009-.097.006-.01.024.011.024-.022-.02-.004 0-.056-.026-.044.007-.027.02-.068.016-.088.006.015.026-.006.025.017l.015-.013c.008.005-.005.017.006.014 0-.011-.003-.047.002-.056-.01-.025-.03-.051-.029-.086.006.018.024-.003.026.01l-.032-.06c0-.012.016.002.013-.016-.005 0-.008-.009-.011-.015.003-.003.001-.049.022-.047.009-.003.002.02.01.01.003-.022-.003-.025 0-.046h.002c.005-.012-.003-.043-.016-.031-.002.01.013 0 .005.012-.01-.013-.01-.039-.007-.06.002.009.008.01.013.014-.012-.033-.013-.064-.014-.098-.01-.003.015.017.01.02.018-.036-.007-.089.017-.116 0 .006-.014-.002-.011-.001.004-.02.017-.014.014-.028.008.001 0-.017 0-.03-.006-.01.004-.003.003.009a.3.3 0 0 1 .012-.135c-.006-.001-.016-.032-.014-.042l.012.008c.008-.006.003-.033.014-.03-.012-.026.001.083-.006.051.011-.004-.014-.045.002-.034.002-.02-.009-.043.006-.057-.003.005.015.021.016.005.002-.028-.005-.01-.005-.033l-.003-.016c-.012-.005.005-.024-.01-.018.01 0 0-.042.02-.032l.015.009c0-.013-.014-.025-.02-.037.002-.001.006-.003.008-.002-.024-.01.007-.027-.01-.048.012-.022.01-.063.028-.07-.005-.02-.011-.041-.002-.061.001.005.001.011.006.014.01-.011.003-.017.001-.03.004.003.019-.023.03-.036-.005-.021-.019-.019-.026-.024.026-.009-.008-.059.017-.073.003.008.008.032.016.018.027-.01-.012-.041.004-.065h-.021c.014-.008-.005-.045.015-.035-.006-.012.011-.031-.008-.035.023-.04.008-.115.047-.13-.002-.008.004-.024-.007-.024-.012.007.005.018-.003.02 0-.007-.004-.01-.007-.011.007-.013.01-.024.024-.005.017-.027-.028-.044-.014-.082.008.005.012.003.012-.01l-.01-.027c.007-.025.02-.008.034-.004 0-.015.004-.031-.005-.041l.02-.011c-.015.008-.007-.015-.01-.022l.003.007c.006 0 .005-.018.005-.026-.009-.001-.015.014-.019.022-.005-.01-.001-.02-.007-.032.013.008.013-.02.016-.03.005-.012-.01-.018-.008-.022.007.002.004-.02.012-.007.002.005-.008.008-.003.017.006-.007.018-.001.012-.022-.004-.015-.026-.006-.014-.028.002.008.007.011.011.018l.01-.021-.011-.005c.003-.002.004 0 .006 0-.012-.012.002-.038-.012-.048.001-.012.013-.022.016-.033v.003c.01-.011.009-.031.002-.046l.003.002a.064.064 0 0 0-.002-.037c.012-.016.046.01.035-.017.002-.019-.018-.038-.027-.033.014-.031.001-.078.025-.103-.004-.006-.007-.004-.009-.016.014-.049.004-.112.034-.143.003.016.012.005.02.007-.01-.016.013-.01-.005-.021-.011-.003-.016-.006-.023.006 0-.032.007-.078.02-.09-.007.006-.009-.002-.011-.01.017.009.023-.013.02-.032l-.01-.006.013-.007c-.003-.008-.021-.015-.008-.028h.012c-.006-.021-.016-.051-.004-.067l.018-.01c0-.008-.007-.025-.014-.013.015-.029.02-.049.035-.054a.42.42 0 0 1 .003-.213l.007.005c.01-.014-.012-.014-.005-.024.007.009.019-.007.026.01.013-.021-.008-.037-.009-.054-.01-.007.004.015-.008.007-.004-.004.014-.031-.001-.041.007-.004.018.005.024.011l-.005-.018c.021-.011.025.055.05.044v-.015c.02-.007.013.044.025.012-.005-.019-.026-.04-.035-.03.001-.033-.035-.029-.028-.062.011-.006-.002.028.012.026.015-.01-.002-.034.005-.047-.008.014-.022-.006-.023-.017.01-.015.013.017.019-.007-.008-.008-.011-.033-.021-.016-.019-.017.01-.023-.003-.042.015-.003.029.038.04.014-.014-.002-.012-.041-.036-.035.006-.009.017-.006.025.005.01-.011-.02-.046.01-.04l-.014-.01c.005-.004.01-.01.019-.014.003-.013-.012-.05.01-.04-.002-.006.004-.036-.013-.03-.012.016.007.026-.014.029.018-.007.002-.028-.001-.041l.008.001c-.002-.008.003-.022-.006-.03.004.007.01.007.013.003l-.011-.012c-.002-.029.023.002.024-.025l.006.024c-.001-.005.012-.01.01-.023l-.03-.032c-.003-.016.014-.001.004-.02l.01.024c.004.005.022-.005.025-.024-.001-.014-.015-.04-.025-.023.002-.01.011-.02.018-.01 0-.023-.012-.001-.016-.023.009-.005.024-.024.038-.034l.016.027.002-.013c.013.023.014-.004.028.012.004-.008 0-.021-.002-.031-.03.015-.03-.044-.055-.046 0-.038.061 0 .031-.051-.007.003-.022-.022-.02.004.007-.022-.02-.025-.006-.047.006.023.028-.012.037.022-.008-.005-.009.013-.007.019.01-.006.023.011.027-.012 0-.015.004-.034-.01-.036-.013-.005-.002.022-.014.007 0-.03.022-.025 0-.047-.001.019-.016.017-.025.013l-.002-.022.008.007c.012-.03-.015-.016-.007-.047l.02-.008c.015.014-.014.044.012.048.005-.02-.007-.032.003-.049.001.005 0 .012.002.017.003-.007.037-.001.023-.038-.005-.019-.008-.008-.017-.012.003-.034-.005-.048-.003-.07.018.012.01-.037.024-.006-.013.007-.02.055-.006.074.024-.004-.007.024.013.04.006-.026.027-.016.042-.015.002-.007-.003-.016-.004-.021-.013-.009-.014 0-.028-.004a.118.118 0 0 0-.003-.081c.008-.007.021.001.02.013a.46.46 0 0 1 .022-.105c-.026.013.001-.04-.02-.032-.007.016-.025.025-.033.012.003-.011.009.004.015 0-.01-.018.022-.014.006-.035.001.035.025.017.041.03-.005-.027.012.005.016-.017a.394.394 0 0 1-.006-.086c.022-.025.016-.081.02-.11.012-.012.029.006.035-.009.003-.019-.023.006-.009-.019l.003.005c-.003-.01.023-.047-.003-.067l.02.018c.002-.005-.002-.012-.003-.017.007.003.014 0 .017.01.017-.012.004-.038.007-.057l-.014.007c-.004-.037.013-.053.014-.087l.012.006-.003-.021c.01.009.02-.005.013-.019l.02.06c-.01.011-.012-.02-.025-.016-.011.002-.014.033-.003.042.003-.01 0-.012-.002-.022.017.003.013.02.023.033 0-.006.007-.013.002-.016.006.015.005.027.002.046-.004-.015-.012.003-.016-.004.015.008.016.028.007.05-.02.01.003.048-.007.074a.127.127 0 0 1-.025-.056c-.01.014-.003.02-.014.034.01.013.025.026.028.05l-.011-.003c.002.023.018.03.01.054-.014.042-.022.088-.03.121l-.011-.003c.02.028-.003.066.003.096-.019.038-.007.097-.03.112-.006.079-.01.149-.027.226l-.014-.02c.01.02-.01.006-.01.02.015-.01.012.027.02.04-.019.03-.013.081-.008.116l-.011-.003c.015.04-.01.07-.02.108-.006.003-.017.006-.018.018.014.028.01.04.016.075a.315.315 0 0 1-.026.078c.01.096-.021.177-.022.272l-.014.001c.013.097-.03.194-.029.274l-.02-.016c-.012.02-.004.055.012.055-.01.02.001.062-.02.07-.008.022.006.033.005.054-.016.044-.017.062-.02.109l.003-.01c-.004-.008-.014-.012-.017 0 .003.018-.016.058.013.052-.023.042-.006.116-.035.155.008-.001.008.01.012.018-.007.042-.029.08-.022.118-.005.006-.01-.015-.014.002 0 .011.009.004.01.018.003.073-.036.133-.042.196-.004.115-.03.228-.044.334l-.005-.003c.014.042-.034.076-.008.115-.007.006-.008.03-.017.02.01.034-.026.075-.014.122.001-.003 0-.006-.001-.01-.018.036-.008.078-.025.118-.001-.005-.002-.014-.007-.017-.013.014.016.048-.01.048-.002.01.011.011.011.005-.024.092-.024.2-.033.3-.026.066-.044-.01-.033.053-.006.003.01.006.004.005.004.024-.034.025-.022.044.016 0 .007.013.017.017-.017.04-.032.044-.025.083l-.008-.006c.017.048-.002.09.02.133-.028.224-.042.441-.068.66-.035.212-.047.425-.088.64-.028.045-.028.05-.026.108-.004-.004-.004-.007-.008-.005.018.008-.003.04.014.05-.012.08-.015.156-.024.239 0-.014-.015-.024-.015-.008l.01.02h-.006c.002.012.01.026.017.016-.003.106-.02.208-.037.31-.015.102-.032.203-.039.306-.012.047-.01.118-.011.171a1.675 1.675 0 0 0-.055.454s-.046-.025-.053-.093"/>
        <path fill="#1C2838" d="M10.028 25.996c-.02.003-.037.025-.056-.002.018.002.04-.005.056.002"/>
        <path fill="#1C2838" d="M10.01 26.004c.004.002-.01.007-.015.009.001-.01-.012-.022 0-.026-.002.01.007.01.014.017"/>
        <path fill="#1C2838" d="M10.008 26.035c-.016-.007-.018-.048-.015-.07l.015.07z"/>
        <path fill="#1C2838" d="M10.01 26.005c-.017.01-.024.004-.018-.015.009.001.011.009.018.015"/>
        <path fill="#1C2838" d="M10.013 25.99c-.003.014-.015.018-.026.022.014.003 0-.034.026-.022"/>
        <path fill="#1C2838" d="M10.006 25.984c-.001.01.008.031-.013.034.015-.005-.01-.047.013-.034"/>
        <path fill="#1C2838" d="M10.01 25.992c-.002.005-.005.007-.002.014-.01.008-.02-.006-.019-.014h.022zM9.996 27.01l-.004-.02.016.007zM10.01 27.994c.007.02-.018.009-.021.011.002-.016.019.01.021-.011"/>
        <path fill="#1C2838" d="M9.983 28.001v-.005l.034.008zM6.02 23.007c-.053-.038.003.046-.04-.019.017-.003.03-.003.04.02M17.926 23.085a.497.497 0 0 1-.197.09c-.04.01-.082.022-.12.034a2.87 2.87 0 0 0-.112.04c-.017.005-.01-.018-.047-.005-.128.062-.387.097-.589.1l.01-.007c-.038 0-.076.023-.116.026-.002-.004.01-.007 0-.01-.006.011-.069.014-.083.022-.017-.003-.019-.011-.04-.014l-.019.014c-.055.032-.153.012-.237.03.004-.003.012-.005.004-.008-.068.012-.146.02-.227.025-.081.003-.165.005-.244.009.007-.004.012-.012.003-.017-.008.013-.056.015-.099.017-.018-.013-.073.01-.123.003l.005-.003c-.038.013-.054-.01-.085.006l-.022-.011c-.019.017-.052-.012-.083-.004v.004c-.03.003-.043-.006-.07-.004l-.002-.003c-.062.001-.096-.011-.098.003-.019-.012.061-.001.03-.02a4.459 4.459 0 0 1-.613-.044c-.019-.008-.033-.012-.038-.018l-.046-.002a.066.066 0 0 0-.03.02c.004-.002-.016-.002-.026.002-.035.009-.012.026-.05.035.007-.008.006-.014-.005-.016-.013.02-.05.036-.078.053.003-.004.008-.009.002-.012-.02.026-.065.028-.087.046l.002-.01c-.063.012.005.019-.046.032.007-.006 0-.007-.002-.01-.024.028-.096.05-.132.071.001-.002-.002-.003-.002-.003-.042.02-.096.033-.14.056-.024.004-.016-.018-.062.002.019.013-.077.035-.03.04-.044.014-.12.03-.144.043.014-.011-.04-.01-.005-.023h-.037c-.002-.007.03-.007.014-.012-.018.007-.065.028-.084.03-.024.02-.038.047-.094.063.022-.012-.03-.012-.014-.02l-.054.05c-.019.005-.015-.011-.04 0 .006.003-.004.009-.01.014-.008 0-.077.024-.097.011-.013-.003.028-.01.003-.01-.035.009-.033.013-.07.021l-.001-.002c-.026.003-.066.022-.034.025.017-.004-.013-.008.015-.009-.01.012-.051.024-.088.031.01-.005.006-.008.008-.014a.618.618 0 0 1-.144.051c.003.008.013-.016.023-.014-.078.002-.141.04-.21.035.01-.003.01.01.01.007-.037.004-.04-.007-.062 0-.005-.006-.028.006-.051.01-.01.007-.008-.002.013-.005a.952.952 0 0 1-.243.034c.003.004-.043.02-.062.02l.004-.01c-.018-.004-.06.006-.065-.002-.035.015.145-.023.096-.01-.016-.007-.068.023-.06.008-.037.004-.07.018-.106.01.01.001.026-.015-.003-.013-.051.005-.014.006-.055.011l-.025.006c0 .01-.047 0-.026.01-.008-.007-.075.01-.072-.007l.006-.013c-.022.002-.035.015-.052.02-.003 0-.01-.003-.009-.005-.001.02-.053 0-.08.015-.047-.006-.12.002-.142-.011-.036.005-.07.011-.111.007.008-.002.02-.003.022-.007-.025-.006-.032 0-.056.002.005-.003-.051-.012-.079-.02-.036.003-.025.015-.03.02-.03-.02-.104.008-.142-.011.013-.002.055-.007.026-.013-.029-.021-.07.01-.12-.003l.01.017c-.021-.012-.08.003-.07-.013-.02.004-.061-.01-.06.006-.082-.02-.213-.014-.253-.048-.013.001-.042-.006-.04.003.017.011.031-.002.036.005-.01-.001-.015.002-.017.004-.025-.007-.045-.01-.014-.02-.054-.017-.073.018-.144.001.006-.005.002-.008-.02-.01l-.047.003c-.046-.01-.019-.018-.014-.03-.026-.002-.057-.007-.073-.001l-.022-.018c.016.013-.025.003-.038.003h.013c-.002-.006-.032-.009-.047-.01-.001.007.026.015.041.02-.015.002-.035-.002-.055 0 .012-.01-.036-.015-.055-.02-.021-.007-.032.004-.038.002.003-.005-.037-.008-.014-.012.01 0 .014.009.03.007-.012-.007-.004-.016-.04-.015-.026 0-.008.021-.047.006.013 0 .018-.004.03-.006l-.037-.014-.009.009c-.004-.004 0-.004 0-.005-.02.007-.066-.01-.083-.002-.021-.004-.039-.016-.057-.021h.004a.165.165 0 0 0-.079-.014l.003-.002a.23.23 0 0 0-.065-.008c-.027-.015.018-.036-.027-.034-.033-.009-.066.002-.058.011-.053-.02-.134-.024-.173-.054-.012.001-.01.005-.028.002-.081-.028-.19-.043-.235-.081.027.004.01-.008.016-.013-.028 0-.015-.016-.037-.005-.006.008-.013.011.007.022a.468.468 0 0 1-.145-.054c.009.008-.004.007-.018.005.018-.01-.015-.025-.046-.03l-.013.005-.008-.013c-.013-.002-.03.01-.048-.006.003-.003.005-.007.003-.01-.035-.005-.086-.01-.107-.028l-.01-.02c-.013-.004-.043-.006-.025.006-.04-.026-.07-.04-.073-.056-.023-.002-.051-.01-.071-.014-.011 0-.02 0-.026-.002l-.015.005-.026.004a3.965 3.965 0 0 1-.11.012l.002-.006c-.035-.003-.013.013-.037.01.008-.006-.03-.01-.007-.02-.048-.001-.055.018-.085.024-.001.01.023-.008.02.003-.004.004-.066.001-.069.015-.013-.005-.007-.014-.002-.02l-.027.008c-.02-.006-.002-.014.015-.023.018-.009.034-.018.013-.025l-.025.004c-.029-.01.063-.022-.003-.02-.026.009-.045.029-.018.033-.058.007-.018.032-.083.036-.02-.007.051-.006.036-.016-.033-.008-.06.01-.087.009.031.003.01.017-.01.021-.034-.004.019-.014-.028-.012-.006.008-.048.017-.01.02-.012.017-.049-.002-.072.013-.017-.01.043-.03-.01-.033.01.011-.06.02-.03.035-.02-.002-.024-.01-.01-.019-.03-.004-.067.024-.08.002l-.008.012c-.01-.004-.023-.006-.039-.012-.025 0-.08.018-.08 0-.008.003-.066.004-.042.015.037.007.04-.01.062.006-.027-.013-.052.003-.073.008l-.004-.006c-.012.003-.041.002-.048.01.009-.004.004-.009-.006-.01l-.013.01c-.05.007-.013-.017-.062-.014a.552.552 0 0 0 .037-.008c-.008.002-.025-.007-.048-.005-.01.01-.027.02-.035.028-.028.004-.012-.01-.04-.001l.036-.011c.006-.003-.024-.016-.061-.017-.024.003-.061.017-.024.022-.019 0-.045-.006-.03-.013-.042.003.006.01-.032.016-.014-.006-.06-.016-.087-.025l.04-.016H7.71c.034-.013-.015-.01.004-.023-.016-.003-.037.002-.054.004.047.024-.06.026-.048.046-.071.002-.035-.05-.113-.023.011.006-.026.019.019.016-.043-.005-.034.018-.083.007.04-.006-.036-.022.021-.03-.005.005.029.006.038.004-.016-.008.007-.019-.036-.021-.027 0-.063-.002-.06.009-.002.011.04 0 .02.011-.054.002-.058-.018-.085 0 .034.002.039.014.036.022h-.04l.01-.006c-.062-.012-.023.011-.084.003l-.024-.017c.019-.01.087.014.082-.007-.038-.005-.055.004-.09-.004.008-.001.02 0 .029-.002-.014-.002-.019-.03-.08-.02-.031.003-.01.007-.014.014-.064-.003-.086 0-.127-.004.015-.013-.07-.011-.019-.02.017.011.107.024.135.011-.016-.02.049.007.069-.01-.05-.004-.041-.021-.045-.033-.013-.003-.028 0-.037.002-.01.01.008.011.005.022a.473.473 0 0 0-.145-.005c-.016-.008-.005-.017.017-.015a1.24 1.24 0 0 1-.194-.032c.03.024-.07-.009-.052.01.03.01.052.027.029.031-.02-.004.005-.007-.002-.012-.032.004-.03-.022-.066-.013.063.006.025-.018.044-.029-.047 0 .008-.009-.033-.016a.92.92 0 0 1-.149-.013.358.358 0 0 0-.096-.028c-.036-.007-.071-.013-.096-.02-.02-.013.01-.022-.015-.032-.033-.008.01.022-.032.002l.007-.001c-.019 0-.076-.035-.111-.02l.03-.01c-.007-.004-.019-.004-.027-.004.004-.005 0-.013.017-.011-.017-.02-.062-.017-.092-.028l.01.015c-.06-.012-.086-.031-.137-.048l.013-.007-.035-.007c.018-.005-.002-.02-.025-.02l.1.01c.013.013-.035 0-.034.014.001.011.05.026.067.02-.016-.006-.02-.005-.036-.007.009-.013.034-.003.057-.006-.01-.003-.018-.01-.025-.008.025 0 .044.006.073.017-.025-.003.003.01-.009.011.015-.01.046-.002.08.013.014.02.079.015.12.03a.278.278 0 0 1-.093.003c.023.014.031.01.054.024.022-.005.044-.014.086-.01l-.006.01c.038.004.049-.008.09.006.07.022.148.04.205.053l-.004.008c.046-.011.115.014.164.014.07.022.17.016.202.037.07.007.136.008.202.013l.203.015-.027.011c.028-.008.015.009.041.008-.027-.012.039-.011.058-.018a.59.59 0 0 0 .205-.003l.001.01c.059-.017.127-.001.2.003.008.003.02.012.042.01.04-.015.06-.015.116-.026.042 0 .11 0 .153.005.077-.012.155-.022.235-.028.079-.007.16-.01.237-.027l.015.01c.044-.013.092-.021.142-.028l.037-.005.048-.005.127-.014.062.032a.923.923 0 0 0 .125.053l-.031.01c.026.018.081.027.087.014.027.018.094.026.1.047.031.016.052.01.084.019.064.032.093.04.165.06l-.016-.006c-.011 0-.02.007-.004.014.031.004.092.035.087.008.062.036.184.047.244.083-.001-.007.018-.003.03-.004.067.02.13.048.193.054.008.005-.026.005.002.012.018.002.006-.007.03-.005.12.018.22.064.328.083.194.028.391.062.578.083l-.004.004c.069-.01.141.033.2.012.013.005.056.006.042.014.027-.004.061.001.099.007a.447.447 0 0 0 .097.004c.073.014.14.004.217.013-.008.002-.022.003-.025.007.03.009.073-.017.088.004.018 0 .013-.01.002-.01.086.007.175.001.264-.002l.265-.025c.129.002.017.034.112.01.01.003.004-.008.007-.004.036-.01.068.018.091.004-.016-.01.015-.009.013-.017.08-.001.1.008.156-.009l-.001.007c.062-.026.147-.032.193-.062a5.65 5.65 0 0 0 1.021-.294c.08-.028.155-.06.231-.09.077-.031.146-.067.219-.1l.11-.05.027-.013c.01-.003.023.002.035.002l.071.009.177.022c.094.012.189.023.285.033.085.026.093.025.195.024-.005.003-.011.003-.005.006.008-.014.071.003.083-.01a7.536 7.536 0 0 0 .425.01c-.023.002-.035.013-.007.013l.03-.009.004.004c.019-.002.04-.01.02-.014.368-.014.738-.01 1.084-.07.084-.009.2-.03.28-.056l.195-.031a6.884 6.884 0 0 0 .27-.069l.082-.03c.054-.022.108-.045.161-.07 0 0 .015.04-.073.085"/>
        <path fill="#1C2838" d="M6.005 22.97c-.002.025.027.063-.018.059.008-.017.003-.048.018-.058M7.004 22.991c.004-.004.015.014.018.018-.016-.004-.035.007-.044-.007.016.004.016-.005.026-.01"/>
        <path fill="#1C2838" d="M7.06 22.995c-.009.015-.08.01-.12 0 .04.002.08 0 .12 0"/>
        <path fill="#1C2838" d="M7.004 22.99c.024.018.015.025-.021.018-.001-.01.012-.012.021-.019"/>
        <path fill="#1C2838" d="M6.978 22.986c.025.004.036.016.046.028.002-.014-.06-.002-.046-.028M7.968 23.996c.016 0 .052-.01.066.009-.016-.012-.08.015-.066-.009"/>
        <path fill="#1C2838" d="M7.983 23.99c.01 0 .014.004.026 0 .019.007 0 .02-.017.02l-.009-.02zM12.017 24.005l-.034.003.007-.016zM12.983 24c.028-.023.028.006.034.006-.028.013.003-.024-.034-.006"/>
        <path fill="#1C2838" d="M13.012 24.01l-.008.006-.016-.032z"/>
    </g>
</svg>
