<svg xmlns="http://www.w3.org/2000/svg" xmlns:xlink="http://www.w3.org/1999/xlink" width="31" height="34" viewBox="0 0 31 34">
    <defs>
        <filter id="a" width="120.7%" height="115.6%" x="-8.6%" y="-7.8%" filterUnits="objectBoundingBox">
            <feOffset in="SourceAlpha" result="shadowOffsetOuter1"/>
            <feGaussianBlur in="shadowOffsetOuter1" result="shadowBlurOuter1" stdDeviation=".5"/>
            <feColorMatrix in="shadowBlurOuter1" result="shadowMatrixOuter1" values="0 0 0 0 0 0 0 0 0 0 0 0 0 0 0 0 0 0 0.5 0"/>
            <feMerge>
                <feMergeNode in="shadowMatrixOuter1"/>
                <feMergeNode in="SourceGraphic"/>
            </feMerge>
        </filter>
        <path id="b" d="M0 0h6.444v24.923H0z"/>
        <path id="d" d="M.247.137h14.488v11.78H.247z"/>
    </defs>
    <g fill="none" fill-rule="evenodd" filter="url(#a)" transform="translate(1 1)">
        <path fill="#FFCC10" d="M.92 31.04c-.431-.007-.776-.278-.776-.61-.005-3.922-.05-8.339.001-12.189.026-1.948.528-3.788.164-5.71C-.03 10.725 0 8.822.001 7.36c0-.296.277-.547.655-.6 1.849-.26 5.118-.117 6.813-.115 2.367.002 4.64.197 6.972.11 3.95-.148 9.856-.557 13.82.145.351.062.602.303.609.58.06 2.556-.474 5.79-.156 8.326.338 2.701-.255 5.422.033 8.14.16 1.504.295 3.077.179 4.597-.141 1.852.834 2.404-1.65 2.686-3.784.428-9.323-.002-13.01.137-4.187.158-9.13-.266-13.345-.327"/>
        <g transform="translate(22.556 6.502)">
            <mask id="c" fill="#fff">
                <use xlink:href="#b"/>
            </mask>
            <path fill="#000" d="M.23 11.603c-.197-.024-.181-.131-.173-.221.005-.051.061-.099.098-.153l-.025-.016v-.263l-.015-.147c-.165-.125.21-.333.004-.46l-.043-.121.048-.364.07-.015-.109-.067v-.15c.049-.018.055-.053-.023-.097l.178-.063-.084-.036.11-.017-.195-.134c.161-.094-.01-.221.074-.321l-.012-.009v-.772l.06-.064-.044-.018.044-.041c-.043-.126-.235-.234.009-.346l-.027-.156-.042.001V7c.017-.171.064-.357-.024-.496l.08-.33-.06-.002v-.754c.023.034-.007.01-.006-.014.003-.074.018-.148.03-.24l-.033-.02c.032-.249.04-.483-.05-.73.268-.067-.202-.287.103-.36a67.473 67.473 0 0 1-.164-.135l.13-.088-.087-.128.12-.16-.037-.017c-.009.011-.018.023.03-.043l.031-.022-.118-.057c.136-.354 0-.709.035-1.057a4.5 4.5 0 0 0 .069.017c.038-.06-.22-.043-.057-.128-.088-.104.11-.25-.115-.332.29-.104-.035-.25.085-.366l.168-.01c-.133-.02-.169-.026-.23-.034.3-.331-.056-.705.133-1.042L.142.387l.087-.01L.15.243.1.262C.174.037.299-.104.635.098L.618.244l.047.002L.61.743C.575.801.694.805.586.833L.67.894l-.067.03.08.374c-.027.03-.05.06-.103.121-.002-.017.027.03-.086.024.102.06.232.09.172.204-.035.066-.058.137-.086.205.195.157-.135.293.007.47l-.036.081.056.003-.044.317.079.297-.157.045c.168-.003.132.08.136.12.004.043-.057.091-.084.13.147.172.11.346-.05.52l.127.03-.136.015.13.04v.532a31.079 31.079 0 0 1-.07-.083c-.051.077.12.13.028.179.128.181-.123.401.109.557L.62 5.072l-.031.125.084.027-.062.063c.127.131-.003.242-.032.354.028.032.072.064.085.102.01.028-.021.065-.034.099v1.22l-.124-.01c.4.161-.126.426.192.583H.655l-.041.236c-.012-.003-.038-.01-.17-.04l.185.088v.165h.024l-.045.393c-.035-.024-.015-.01.013.01l-.097.026.177.08c-.148.074-.108.187-.102.24l.29.161a22.91 22.91 0 0 0-.247-.027c.088.16-.23.371.104.506l-.121.078c.129.058-.206.12-.037.185l.032.135c-.113.05-.05.109-.027.15l-.018.131.064.055c-.106.079.091.199-.083.269l.097.062h-.11l.103.605c-.031.152-.092.34-.005.534l.035-.023-.036.513c-.06.037-.117.383-.03.487-.156.073.066.083-.025.232l-.033.088.067.061-.097.057.104.007c-.145.126.044.235-.01.366l-.086.02.086.029c-.044.056-.037.107.046.141-.023.016-.052.03-.05.035.053.11-.107.248.057.344l-.079.277.037.026-.078.374h.12a8.102 8.102 0 0 0-.102.044c-.01.11.103.227-.038.312.292.17-.11.404.118.568l-.182.082.171.028-.058.198.059-.032c.028.046-.1.123.067.138l-.077.018c.022.01.044.018.003.002.105.109-.191.145.011.296l-.054.555c-.006.007-.048.052-.04.059.041.031.096.052.154.082 0 .146-.192.297-.057.477l-.153.186.025.007c.093.171.202.317.054.46l.115.046-.074.22c.047.072-.092.196.094.24-.163.083-.096.163-.05.221l-.078.725c.07 0 .098-.005.121.002.011.002.012.026.017.04l-.066.008c.014.091-.111.189.026.275l-.111.051.062-.002.005.065-.054.206.02.001v.45a.048.048 0 0 0-.004-.003v.456a.026.026 0 0 1-.002-.003v.498l.025.051-.036.476c-.05.145.164.361.038.568.027.027.077.072.072.076-.202.15-.02.352-.1.54.027.023.12.071-.02.114.006.14.174.276-.011.408l.096.094-.026.032c.17.08-.122.183.014.266l.107-.051-.012-.02.097-.035a3.13 3.13 0 0 0-.011-.061l.094-.005.01-.117.138-.022c-.129-.143.19-.116.129-.238.095 0 .16-.014.11-.105.032.006.053.01-.003 0 .318-.047.145-.35.471-.347l-.044-.118.188-.052c0-.054-.023-.12.005-.138.048-.03.129-.032.04-.014.263-.043.017-.183.249-.168.024-.081.123-.057.197-.076l-.048-.065c.064-.013.126-.023.186-.039.015-.004.02-.028.055-.021l.145-.223.047.014-.017-.05c.031-.004.061-.008.035-.004l.28-.165c-.01-.01-.022-.025-.026-.03l.235-.284a8.293 8.293 0 0 1-.043-.099h.05l.074-.662.019-.075a.878.878 0 0 0-.039.002v-.463l-.055-.316-.051.003.13-.055c-.053-.076.065-.184-.078-.244l.071-.152-.111-.158.115-.049c-.017-.045-.13-.1.01-.131.01-.103.03-.21-.081-.28.057-.091.166-.167.031-.272l.103-.053-.13-.203a5.08 5.08 0 0 0-.04.023l-.02-.015c.03-.02.06-.039.088-.059-.031-.06-.064-.118-.1-.183.316-.06.018-.247.11-.334l-.039-.076c.061-.161.019-.266-.064-.37l.06-.026v-.246l.096-.035c-.16-.194-.048-.378-.044-.577l-.035-.013c.195-.091-.248-.278.108-.335-.147-.125-.077-.273-.11-.405 0-.002.039-.009.086-.019l-.154-.13.16-.063-.076-.024.066-.022-.042-.145.087.003.005-.09-.134.087.077-.11c-.118-.09.079-.144.042-.234a9.205 9.205 0 0 0-.06.023 48.728 48.728 0 0 0-.129-.131c.107-.055.045-.107.04-.111l.085-.658c-.012-.045-.024-.1.055-.126.002-.134-.172-.232-.08-.375a7.136 7.136 0 0 1-.087.01l.135-.085a7.648 7.648 0 0 0-.092.004c.143-.203.098-.407-.008-.612 0-.044-.053-.094.057-.114-.025-.13.021-.275-.12-.381l.145-.094.135.023-.096-.055c-.112-.264-.044-.527-.052-.794l.058.014-.107-.413.056-.72c.098-.081-.145-.243-.009-.389-.054-.042-.014-.094.035-.134-.118-.138.038-.317-.107-.412.145-.197 0-.398.053-.585l-.04-.034.072-1.11c.054-.136-.187-.256-.01-.42l-.098-.052c.096-.015.08-.088.091-.147-.026-.022-.07-.06-.079-.066.024-.036.063-.069.065-.102.008-.122.003-.244.003-.465-.038.073-.05.013.024.047l-.04-.288.093-.137-.164-.154.093-.004a5.606 5.606 0 0 0-.054-.075c.054-.08.081-.162-.008-.247l.085-.033c-.176-.175.135-.39-.088-.564l.099-.058-.035-.181-.035-.01a.714.714 0 0 1 .009-.005V3.497h.14l-.183-.102c.032-.065.066-.133.068-.14V1.74l-.024.01c-.105-.122.118-.115.126-.17-.143-.088.057-.24-.096-.303l-.065-.167c-.01-.054-.022-.106-.025-.16 0-.008.039-.02.072-.035l.056-.28-.044-.047-.06-.16c.033-.112.051-.175.067-.239L3.29.171c.039-.025.073-.052.113-.072.018-.008.046-.004.066-.006l.226-.086.087.156c.023.03.064.062.064.093 0 .043-.03.087-.053.142.11.127.062.278.003.427l.118.01C3.86.86 3.819.879 3.922.83A7.288 7.288 0 0 0 3.9.847l-.105.121.048.147-.059.013.094.113-.106.018c.197.087-.028.25.105.35.057.037-.133.017-.011.073a8.898 8.898 0 0 1-.095.037l.096.113-.159.031.129.015-.027.302.046.027-.048.02.076.077c-.045.03-.103.053-.102.074.003.101.023.202.05.395.002-.008.049.109-.145.152l.198.03c-.219.02.03.144-.184.166l.147.012-.009.157-.056.046c.026.04.112.094-.032.116l.128.063c-.135.298-.098.603-.08.905l.04.554.047.025-.067.074.029.09.086.029-.117.042.03.01v.448l.018.004-.049.049.093.1c-.109.051-.135.116-.057.207a8.305 8.305 0 0 1-.084.01c-.016.213.206.41.05.628l-.076-.05c.168.114.104.237.058.365l.046-.008-.042.06c.03.031.06.06.102.099l-.106-.012.092.053-.088.176c.025.027.185.077-.007.139.09.104-.253.284.136.326l-.153.049c.183.12-.042.282.067.408l-.054.346.04.001c-.015.092-.032.184-.049.281l.175.015-.119.173c-.052-.071-.036-.05-.02-.028.038-.02.072-.02.066.046l-.088-.015.064.07-.07.146.136.046-.048.039a9.707 9.707 0 0 0-.115-.062l.085.085-.03.372c.026-.004.007-.001-.007 0l.05.422a7.2 7.2 0 0 1-.042.003c-.116.147.193.293.014.421v.318l.046.044c-.03.02-.08.04-.078.056.023.14-.043.294.034.368v.894l-.064-.006.033.147c.02.025.067.064.077.107.009.037-.027.078-.049.129a8 8 0 0 1 .026.04l-.08.026.095.165c-.185.046 0 .221-.166.29.056.01.099.02.16.03l-.095.044c.132.08.078.185.072.305-.002 0 .021.014.024.015l-.072.172-.058-.025c-.006.084-.015.17.162.195l-.1.05.06.204v.233l-.027-.003c.071.106-.003.174-.102.244.087.046.077.113.06.193l.103.013-.088.152.087-.006-.138.113-.065-.006.214.188c-.015.016-.08.048 0 .106l-.077-.004.035.146-.123-.023c.23.161-.004.36.14.553l.056.024-.07-.012-.057.127.04.51h-.001l-.038.144.088.033c-.148.148-.057.294-.014.47l-.084.098c.022.083-.097.22.134.273-.203.106-.045.277-.172.4.118-.01.135.022.082.082l.061.012c-.103.045.002.177-.115.182.025.174.05.34.084.583l.026.039c-.176.19.04.44-.17.618l.195.096-.112.029.058.15-.156-.154c.044.086.049.112.067.129.022.02.056.033.096.056-.032.007-.051.011-.033.008l-.074.426.06-.002v.44l-.04.022c.203.165-.081.332.057.478-.023.051-.034.086-.055.117-.013.018-.042.03-.053.037.05.108.095.21.143.316l.09-.02c.023.204.367.186.416.38 0 .002-.02.037-.015.039.06.025.123.047.196.073-.013.05.047.075.132.09l-.07.032.406.348.112.068-.116.027.184.103a5.61 5.61 0 0 0-.05.034l.11.07-.009.088a4.16 4.16 0 0 0 .04-.045l.314.3-.042.03c.11.004.03.043.03.05.055.09.28.021.24.183l.1.033.04-.075.262.437c-.055.026.382.042.081.131l.11.047c-.061.01-.099.015-.144.021l.102.156c-.148-.178-.192.035-.275-.084-.003-.005-.01-.007-.011-.007l-.086.053-.02-.057c-.013.01-.026.021.007-.007l-.366-.111.105-.076-.443-.386.023-.109-.027-.004-.03.09-.176-.221-.02-.056a95.033 95.033 0 0 0-.21-.051c-.094-.002-.002-.164-.104-.238l-.081.006c-.015-.144-.221-.242-.17-.407l-.05.076-.052-.141-.063.004c-.108-.09-.204-.17-.387-.32-.031-.08-.12-.252-.44-.151l.041.042-.184.07c.009.005.03.021.066.047-.18.066-.326.154-.376.305-.091-.048-.068.144-.167.077l-.107.1.052.053-.152.02c.013-.015.026-.03.038-.047-.104.093-.167.22-.376.224l.01.053-.646.723-.134.016.045.08-.05.05-.024-.038c-.063.038.018.176-.178.12l.058.094h-.095l.082.037c-.085.04-.296.004-.18.191l-.103-.065-.064.044.067.096-.083-.033-.111.143a981.5 981.5 0 0 0-.337.214 18.693 18.693 0 0 0-.148-.031l.047.062-.079-.014c-.17.103-.187-.07-.344-.057l.152-.054c-.15-.055-.084-.177-.14-.247.071-.118.023-.204-.074-.275.173-.145.041-.308.058-.475l.081-.038c-.13-.16.066-.366-.116-.532l.094-.03-.06-.165.065-.058v-.322l.131-.027c-.161-.016-.123-.107-.166-.166l.115-.074-.084-.153-.023.035c-.054-.08.051-.181-.082-.234.127-.043-.058-.172.218-.214H.049c.213-.177-.133-.444.154-.614a6.19 6.19 0 0 0-.05.032l-.034-.041v-1.135l-.029-.041.153-.055c-.136-.13-.124-.247 0-.376-.266.063-.031-.18-.22-.158l.172-.103c-.198-.174.185-.418-.147-.568.065-.059.201-.102.038-.181l.075-.047-.096-.081.097-.038-.063-.237c.234-.042-.156-.204.081-.248-.212-.116-.036-.26-.057-.395l-.047.002-.036-.031.1-.023c-.182-.122.067-.215.068-.215a20.344 20.344 0 0 1-.1-.177c-.02-.152-.03-.237-.041-.337.288-.128.018-.29.024-.46.11-.054.017-.171.043-.26-.119-.244.09-.503-.105-.784-.043-.018.06-.039.08-.05.068-.141-.122-.271.036-.41a5.278 5.278 0 0 0-.053-.081c.198-.142-.007-.25-.06-.374l.069-.004.083-.118c-.122-.133-.042-.265-.015-.394l-.125-.067.101-.071a9.777 9.777 0 0 0-.076-.116l.098-.023a201.76 201.76 0 0 1-.088-.403l.063-.426-.061-.344c.185-.05-.065-.175.019-.26l-.1-.037.153-.036.05-.13a.778.778 0 0 0 .061-.037c-.139.028-.167-.02-.14-.093.02-.05.062-.094.105-.156" mask="url(#c)"/>
        </g>
        <g transform="translate(6.444)">
            <mask id="e" fill="#fff">
                <use xlink:href="#d"/>
            </mask>
            <path fill="#000" d="M12.842 2.417c-.158-.015-.194-.154-.246-.278l.095-.053-.178-.039-.247-.178-.007-.076-.111.028.035-.058c-.088-.139-.238-.058-.363-.11l.074-.062-.414-.146c.053-.02.022-.008-.01.002l-.527-.208-.014-.074c-.033.047-.06.108-.128.04l.009.084-.118-.136-.045.058-.042-.04h-.368l-.019-.035-.186.058c-.175-.105-.351-.058-.514-.059l-.349.05c0 .085.038.132.125.133l-.064.088.233.124.011.096c.068.052.125.075.146.118.046.09.074.192.128.341l.15.105a6.63 6.63 0 0 1-.033.08l.174.065-.115.038.152.151c-.094.034.043.09.011.127.031.012.076.018.099.044.014.017-.004.066.006-.032l.45 1.524c.004-.006-.01.022-.024.05.077.061.1.123-.025.19l.125.029c-.057.124-.075.236.099.288l-.061.087c.014.079.038.204-.056.324l.114.017c-.026.417.314.767.204 1.195l.113.1c-.268.04.12.179-.028.236l.018.394-.07.031.152.053-.088.098c.135.105-.003.195-.022.293l.087.076-.082.07.13.125c-.033.023-.063.043-.028.02-.167.39-.006.742-.03 1.11.155.106-.113.179.02.325l.06.029c-.295.235.078.504-.088.746a2.69 2.69 0 0 1-.046-.031l.115.425-.042-.024c-.05.076-.1.153-.1.151l.092.28c-.017.048-.053.147-.097.263l.052.03.018.405c-.097.212-.232.067-.378.002l-.021.048-.131-.118.116-.169c-.3-.048.097-.29-.104-.378l.146-.052h-.139v-.18c-.101-.037.047-.157-.03-.22.195-.013.05-.225.143-.3l-.03-.146-.183-.02.178-.179-.037-.393.044-.116-.027-.011-.05.1-.06-.188c.355-.346-.089-.732.004-.92.107-.352.189-.539.014-.683.152-.252.019-.472-.01-.695-.016-.067.17-.095.17-.095-.261-.405-.266-.728-.283-1.048a44.656 44.656 0 0 1-.092-.072c.094-.219-.175-.41-.028-.638l-.064.007-.05-.288c.007-.009.034-.048.01-.012-.032-.072-.072-.129-.081-.19-.019-.12-.02-.241-.035-.355a1.576 1.576 0 0 0-.24-.774l.038-.064h-.089c.116-.115.007-.234.025-.338l-.11.023c.007-.03.005-.067.02-.087.013-.014.05-.005.07-.006l-.05-.105c-.048-.069-.068-.098.004.005-.07-.165-.073-.19-.086-.202-.128-.12-.258-.236-.394-.361.159-.157-.088-.19-.077-.313l.078.017a118.31 118.31 0 0 0-.307-.217l-.043-.21c.015-.082-.028-.09-.091-.037l-.063-.15-.026.088c-.003-.085-.154-.008-.086-.17l-.402.115a8.218 8.218 0 0 1-.053.087c-.015-.008-.04-.02-.073-.039l.027.109-.316.203c-.243.05-.426.25-.633.44.004.09-.245.061-.137.284l-.09-.081c-.01.17-.114.098-.393-.008l.327.217-.157-.027-.08.149-.027-.028-.311.416c-.119.074-.056.207-.19.17l.066.077-.089-.024-.162.234c-.003-.009.024.04.015.05-.089.098-.184.191-.221.23-.143.32-.257.578-.438.988l-.1.436c.037.19-.088.339-.143.497l-.113.476a.253.253 0 0 0-.014 0l-.163 1.491h-.041l.078.092c-.089.313-.322.16-.512.204v-.31l-.142.048.192-.122c.092-.263-.088-.555.134-.776l-.022.002c-.027-.162-.071-.328.05-.471l-.024-.058.183-.966.035.028c.027-.07.087-.137-.067-.224l.173-.205c-.056-.284.202-.554.323-.907l-.022.007.35-.659c.015.01.03.02.046.028l.078-.108c-.035-.198.132-.25.268-.342L5.9 3l.35-.29a.753.753 0 0 0 .009.003c.008-.318.441-.247.444-.577.112.086.064-.237.188-.102.158-.252.358-.431.706-.525l.124-.159c.19.159.205-.274.385-.166.15-.31-.263-.077-.224-.28l-.046.003L7.47.84a15.05 15.05 0 0 1-.082-.175l-.005.093L7.037.7C6.909.55 6.705.684 6.473.612c-.04-.053-.123.038-.187.051-.18-.1-.362-.066-.541-.049C5.698.607 5.643.698 5.61.6l-.313.082a20.493 20.493 0 0 0-.105-.05l-.03.123C5 .81 4.78.701 4.672.957L4.642.84c-.04.064-.036.21-.157.094l-.134.215c-.106.062-.227.13-.366.21.003-.014 0 .008-.006.036l-.028-.053c-.058.145-.29.061-.307.268h-.108v.058l-.078-.07c.08.142-.071.169-.073.24-.07.03-.14.05-.198.09-.016.01.003.078.006.124l-.044-.024-.104.142-.143-.129.129.227-.124-.075-.074.181c-.027-.01-.073-.021-.069.091l-.032-.068-.474.655a3.14 3.14 0 0 1-.01-.055l-.419.607-.088-.073.07.107-.506 1.145c.054.29-.06.533-.154.765L.991 6.1c.148.058-.095.224-.004.332-.155.01.097.209-.092.214.043.02.075.033.125.057l-.115.065.023.028-.065.386a2.05 2.05 0 0 1-.058-.034l.099.168-.047.027v.29a2.233 2.233 0 0 1-.047-.005c.112.185-.06.26-.09.335l.108.42.048.056c-.058.185-.106.35-.032.507-.028.096-.063.182-.074.27-.005.033.044.074.073.117l-.066.131c.133.028-.058.173.028.207v.303l-.063.169a6.312 6.312 0 0 0-.108-.016l.131.084a8.53 8.53 0 0 0-.083.014l.042.117.025-.095.093.638c-.119 0-.03.129-.08.186l.09.023c-.156.205.076.405-.055.62.017-.007-.008.005-.04.019l.041.071-.224.09-.028.024-.055-.163a7.957 7.957 0 0 1-.082-.036v-.42c.008.095-.126.063-.008-.049l-.06.004-.023-.283.07-.096-.122-.593.045-.027-.052-.07c.021-.095.04-.175.06-.271l.029.049c-.07-.291.119-.583 0-.739.006-.225-.085-.33.006-.375.037-.422-.17-.82.017-1.243a7.81 7.81 0 0 1-.124.016l.202-.142C.455 7.465.313 7.41.46 7.39l-.059-.055c.079-.202-.109-.47.139-.612-.2-.227.094-.49-.066-.73l.132.013c-.01-.246-.008-.492.204-.814l-.08.046-.037-.078.127-.055-.057-.124.037-.106.11-.058L.83 4.59c.03-.052.196-.059.06-.21l.087.01.018-.206c.136-.122.211-.324.247-.532.24-.348.397-.757.718-1.03-.091-.189.143-.066.137-.204a.936.936 0 0 1-.024-.061c.183.132.116-.194.248-.117.012-.056.007-.128.036-.15.137-.104.284-.194.44-.299l-.026-.123c.009-.04.16.017.101-.109.057-.022.114-.044-.018.008.39-.31.576-.563.93-.554-.13-.147.126-.095.038-.216l.153.076a.356.356 0 0 1 .28-.236c.068-.163.237-.082.332-.138.026-.052.039-.128.069-.136.295-.084.593-.157.718-.19h1.132c-.01.014-.011-.051.082-.032.336.07.675.116.996.257l.04-.005.94.38.007.086.763-.169c.302.03.596-.036.895.067l.038-.079L11.498.9l-.16.036.95.393c.213.04.41.261.6.524a.61.61 0 0 0-.022.034c.045.105.246.06.21.259.215-.028.107.284.292.31a10.79 10.79 0 0 0-.08.058l.196.136c-.1.153.081.066.093.143l-.09.028.15.135.016.136.133.044-.076.12.098-.051.444 1.62a1.346 1.346 0 0 0 .023.016c-.134.144.013.204.1.301l-.058.007v.357l.05-.004-.036.186c.224.137.034.435.182.576.146.14.068.195.003.31l.126.16-.062.035.155.16-.116.017.034.247a.832.832 0 0 1-.03.002c.008.047.016.094.002.014-.016.187.2.195.016.283l.093.12c-.022.057-.155.088-.077.219h-.48c.135-.212.004-.424-.013-.677.01-.012.045-.064.091-.13L14.2 7.02c.098-.232-.238-.335-.075-.652.013-.014-.014-.112-.098-.183l-.195-.97.016-.088-.147-.478.114-.051-.01-.027-.09.035-.04-.421a15.48 15.48 0 0 1-.055.012 88.248 88.248 0 0 0-.104-.3c.006-.001-.015 0-.046.004l.064-.082a6.229 6.229 0 0 1-.084-.015c.104-.11.005-.213 0-.32l-.084.04c-.003-.016-.013-.042-.009-.045.026-.019.056-.031.098-.052l-.129-.18.035-.073-.23-.154-.153-.256c.106-.158-.177-.177-.136-.348" mask="url(#e)"/>
        </g>
    </g>
</svg>
