<svg xmlns="http://www.w3.org/2000/svg" xmlns:xlink="http://www.w3.org/1999/xlink" width="34" height="31" viewBox="0 0 34 31">
    <defs>
        <path id="a" d="M.858.294h8.824v30.684H.858z"/>
        <path id="c" d="M.852.247h8.74V23H.853z"/>
        <path id="e" d="M1 .49h.784v1H1z"/>
        <path id="g" d="M1 .49h.934v1H1z"/>
    </defs>
    <g fill="none" fill-rule="evenodd">
        <g transform="translate(16 -.294)">
            <mask id="b" fill="#fff">
                <use xlink:href="#a"/>
            </mask>
            <path fill="#FFAB55" d="M6.622 30.978h-4.62c0-.498-.026-.987.003-1.473.121-1.972.387-3.88.39-5.916.06-2.805.331-5.17.467-7.756.084-1.584.124-3.17.152-4.755.004-.225-.135-.49-.284-.675-.45-.563-.778-1.495-.723-2.217.037-.498-.025-.667-.102-1.137-.153-.93-.488-1.816-.836-2.703-.086-.221-.43-1.01.002-1.147.455-.2.774.964.942 1.317.12.249.447.858.695 1.212.104.149.338.08.347-.101.02-.44-.04-1.167-.097-1.596-.105-.81-.244-1.613-.357-2.421-.042-.297.032-.575.372-.624.37-.052.435.247.485.526.168.939.538 2.928.731 3.602.024.084.243.095.243-.05.047-.72.09-2.82.088-3.71 0-.188-.09-1.053.451-1.06.541-.006.518 1.016.53 1.304.035.882.096 2.709.18 3.396.01.092.21.083.234-.007.176-.66.393-2.42.463-3.176.031-.337.095-.628.49-.648.376-.02.47.259.468.57-.007.764-.13 2.353-.168 3.117-.048 1.016-.13 1.93-.017 2.225.114.295.658-.263.868-.62.22-.373.476-.742.79-1.034.142-.132.405-.303.703-.101.298.2.134.527.036.69-.694 1.148-1.084 2.414-1.56 3.65-.177.457-.62.832-1.002 1.178-.269.246-.458.462-.46.849-.014 3.839-.064 7.677-.056 11.515.005 2.233.1 4.467.151 6.7.008.34.001.678.001 1.076" mask="url(#b)"/>
        </g>
        <path fill="#FED2C0" d="M8.924 7.387c-.107-.723-.253-1.44-.357-2.163-.045-.304.02-.614.4-.652.382-.038.403.293.457.555.191.933.574 2.824.576 2.83.07.22.398.175.403-.054 0-.002.003-2.155-.012-3.23-.005-.34.06-.654.435-.696.383-.042.538.278.564.595.06.763.077 1.529.115 2.294.018.34.02.887.077 1.18.023.11.175.128.22.024.225-.522.437-2.118.512-2.748.038-.322.09-.648.512-.613.412.035.518.343.491.704-.084 1.085-.184 2.169-.26 3.255a9.31 9.31 0 0 0-.009 1.133.578.578 0 0 0 .102.303c.078.11.195.189.383.019a.702.702 0 0 0 .16-.211c.13-.256.228-.531.354-.791.245-.511.674-.748 1.227-.777.387-.02.5.34.368.57-.712.918-1.03 2.013-1.448 3.072-.156.396-.64.682-1.014.966-.357.272-.612.536-.614 1.035-.006 1.534-.09 3.069-.082 4.603.02 3.805.076 7.609.116 11.414.003.203.001.406.001.656H7.986c.092-1.362.178-2.702.276-4.041.12-1.648.204-3.346.261-4.994.052-2.75.401-5.225.555-7.863.025-.426.025-.913-.26-1.25a2.137 2.137 0 0 1-.15-.194 2.972 2.972 0 0 1-.413-.981 3.732 3.732 0 0 1-.088-.802c-.005-.741-.336-1.39-.675-2.055a6.826 6.826 0 0 1-.505-1.332c-.055-.208-.177-.544.091-.692.27-.148.45.22.564.4.226.357.35.777.56 1.145.117.203.234.51.403.699.164.183.466.064.465-.182-.002-.333-.1-.828-.146-1.131"/>
        <g transform="translate(24 7.706)">
            <mask id="d" fill="#fff">
                <use xlink:href="#c"/>
            </mask>
            <path fill="#FFCD00" d="M3.556 3.985A.113.113 0 0 0 3.753 4c.074-.188-.046-.958-.084-1.353-.06-.627-.135-1.253-.15-1.88-.003-.172.032-.532.29-.52.258.011.306.29.335.456.164.938.486 3.036.522 3.134a.123.123 0 0 0 .02.037c.065.075.19.027.195-.073.018-.377.1-2.45.11-2.719.012-.296.135-.53.3-.523.288.011.283.38.29.576.024.534.113 2.37.186 2.95.009.072.106.09.14.024.29-.56.448-2.312.825-2.242.199.051.185.461.168.624-.042.388-.092.793-.168 1.177-.157.788.04 1.832.023 2.353-.016.5-.047.841-.311 1.608-.038.11-.145.264-.168.408-.025.144-.03.48.009.66.039.18 2.174 9.376 3.247 13.961.018.08.033.16.06.298-.173.017-.316.043-.46.044-.886.003-1.803-.08-2.688-.054-.371.012-.433 0-.433 0-.52-3.292-1.303-6.905-1.776-10.252A36.058 36.058 0 0 0 3.68 9.05c-.04-.204-.208-.456-.387-.547-.74-.274-.783-.673-1.037-1.152-.38-.719-.827-1.402-1.21-2.12-.101-.19-.318-.469-.101-.68.216-.21.56-.039.732.088.262.193.433.512.632.785.078.108.22.278.34.397a.14.14 0 0 0 .239-.087c.019-.21.002-.474-.048-.728-.07-.354-.852-3.776-.401-3.938.45-.162.54.851.598 1.073.109.423.208.848.324 1.27.046.168.13.43.195.574" mask="url(#d)"/>
        </g>
        <path fill="#B16031" d="M0 30.652c.39-1.794.784-3.443 1.112-5.16.328-1.722.591-3.455.853-5.188.03-.2-.066-.51-.215-.635-.727-.605-.994-1.36-1.028-2.29A3.805 3.805 0 0 0 .48 16.2c-.048-.119-.45-.772-.225-.974.225-.202.605.026.782.182.235.206.416.442.548.744.073.165.075.443.131.637a.247.247 0 0 0 .452.057c.204-.356.205-.732.241-1.088.088-.847.188-1.686.257-2.535.048-.288 0-1.056.48-1.008.336 0 .321.542.312.816-.014.415-.068 1.676.011 2.251.024.173.265.192.316.025.074-.249.112-.61.164-.847.144-.665.324-1.567.445-1.99.121-.423.36-.512.51-.49.355.051.332.395.275.7-.17.903-.335 1.806-.493 2.711l-.024.114c-.044.22.277.306.347.093.023-.072.596-1.759.905-2.515.072-.176.191-.469.488-.417.297.052.265.468.214.651-.227.818-.528 1.617-.789 2.426-.016.053-.13.407-.145.607-.012.16.18.252.295.141.191-.185.466-.617.543-.715.25-.322.44-.69.696-1.008.085-.106.246-.276.44-.166.196.11.1.328.043.441-.237.488-.547.943-.77 1.436-.083.182-.155.32-.22.442a6.725 6.725 0 0 0-.516 1.251c-.138.46-.383 1.001-.606 1.255a2.917 2.917 0 0 0-.282.375c-.309.497-.418.962-.485 1.554-.298 2.691-.926 8.905-1.074 9.297-.573.112-2.895 0-3.745 0"/>
        <path fill="#313131" d="M28.907 15.697c.008.009.008-.01.008.005-.005 0-.01 0-.008-.005M27.426 13.07c.047.012.049.07.088.09.004.002-.015.01-.005.014.042.018.065.076.077.125h-.006c.002.01.022.01.026.02-.003.001-.006 0-.008.003.009-.003.013.012.021.011-.001.005-.007.01-.008.015h.012c.031-.004.02.03.042.04-.003 0-.005 0-.007.002.033.018.053.054.079.081-.004.001-.011.004-.013.008.011-.005.019.003.027.01-.008.01.019.008.02.021l-.003.001c.014 0 .001.015.017.012l-.005.01c.016-.006 0 .015.011.016l.002-.002c.008.003.002.011.008.014l-.001.002c.012.01.009.022.02.014-.006.011-.012-.009-.021.006a.472.472 0 0 1 .089.116c-.001.007-.001.011-.004.015.004.002.012.014.02.014-.001-.002-.004.006-.003.01 0 .008.016 0 .017.01-.006 0-.01 0-.013.004.013.001.018.011.026.017-.003 0-.005 0-.009.002.016.002.009.017.02.021l-.008.001c0 .018.015-.005.017.01-.003-.002-.004 0-.007.001.017.003.024.022.035.03l-.003.001c.008.01.012.024.024.033 0 .007-.016.01-.007.02.013-.009.018.015.029 0 .004.011.008.03.017.034-.008 0-.013.015-.019.007l-.004.011c-.006.003-.002-.007-.008 0 .003.003.016.012.017.017.012.003.031.001.041.012-.009-.003-.013.012-.017.01l.035.002c.004.004-.01.007-.002.011.003-.002.007 0 .011 0 0 .002.014.015.002.024-.004.005-.007-.005-.009.003.005.008.01.005.015.013l-.002.001c.001.006.014.012.018.002-.002-.004-.006.006-.005-.002.008 0 .016.007.021.015l-.011.002c.016.004.026.014.037.023.006-.003-.013.002-.011-.002.001.021.03.024.025.044l.007-.004c.004.007-.006.012.001.015-.006.004.005.005.009.01.006 0-.001.001-.005-.003.009.005.033.027.035.047.003-.002.018.002.019.006l-.008.004c-.003.006.007.011.001.016.014.002-.026-.025-.012-.019-.005.007.021.007.009.011.005.008.017.01.014.021 0-.003-.014 0-.01.006.006.01.005.001.012.008l.007.003c.008-.004.004.01.011.001-.006.005.013.013-.001.02l-.012.004c.004.004.016.001.023.002l-.004.004c.015-.009.005.011.019.01 0 .012.014.024.006.034.009.005.019.008.021.018-.003 0-.005-.003-.009 0-.001.007.004.006.009.01-.003 0-.003.015-.006.023.009.005.016-.002.022-.004-.012.015.022.014.012.03-.004 0-.014-.006-.015.002-.011.016.02.007.018.022l.012-.01c-.005.01.016.012.003.018.006.001.002.015.014.007-.001.023.03.04.013.062.004.002.005.01.011.005.005-.008-.009-.004-.004-.007h.007c0 .006.002.011-.012.012-.002.016.028 0 .032.02-.006.001-.008.003-.004.007l.014.004c.003.011-.009.012-.018.018.004.004.007.011.016.01l-.008.012c.005-.009.008.001.011.003l-.003-.002c-.004.003.002.01.005.011.006-.004.004-.01.004-.015.006 0 .007.005.013.006-.009.003-.002.012 0 .017.001.006.011.001.011.002-.004.003.004.01-.005.01-.002-.002.003-.008-.003-.008-.002.005-.009.01 0 .013.007.002.017-.01.017.002-.004-.002-.008 0-.012 0v.011l.008-.004-.003.003c.01-.002.01.012.021.01.003.003 0 .011.001.016h-.001c-.002.008.004.013.012.015h-.002c.001.004.006.01.013.011-.003.011-.029.02-.016.022.005.007.022.003.025-.002.002.016.023.024.016.043.005.001.006-.002.01.001.007.022.031.037.024.061-.006-.004-.008.003-.013.006.01.001-.005.01.009.005.007-.005.01-.006.01-.013.011.01.02.028.016.038.002-.005.006-.004.01-.002-.013.005-.01.014-.002.02l.007-.004-.005.008c.004.002.016-.005.013.006l-.006.005c.008.004.023.01.021.02l-.008.011c.003.002.012.004.012-.003 0 .016.004.025-.004.033.033.011.05.042.061.07l-.006.001c-.002.01.012 0 .01.005-.006.001-.009.011-.018.01-.001.011.016.007.022.012.006-.002-.008-.003.001-.006.003 0 .001.016.013.012-.003.005-.012.007-.016.008l.007.003c-.008.013-.03-.006-.042.01l.004.004c-.009.011-.019-.008-.016.008.007.003.026.001.028-.007.01.011.028-.007.034.007-.004.007-.007-.01-.013-.003-.006.01.01.01.01.017.001-.008.014-.008.018-.005-.001.01-.012.001-.008.011.007 0 .016.005.017-.005.015-.003.001.013.013.013-.008.007-.027 0-.027.014.009-.007.019.007.031-.006-.001.006-.008.01-.015.01-.003.008.024.005.006.017l.011-.003-.008.013c.002.005.022.011.006.017.003.001.008.014.016.004.003-.01-.012-.005.001-.016-.009.011.006.01.012.013l-.005.003c.003.002.005.008.011.007-.004 0-.007.003-.007.005h.009c.009.007-.014.008-.007.018l-.01-.005c.002.001-.004.01.001.012.008 0 .019-.003.026-.004.007.004-.008.007.004.01l-.014-.004c-.003 0-.01.011-.007.02.005.002.02.004.021-.005.002.004 0 .011-.008.011.007.007.009-.005.017 0-.004.006-.007.02-.012.028l-.018-.002.003.006c-.013-.002-.006.007-.019.008-.001.005.005.007.01.01.013-.019.03 0 .046-.01.01.012-.037.027-.004.03.003-.005.019-.003.01-.01.002.01.019-.002.017.012-.01-.005-.013.016-.027.01.005-.003.001-.009-.001-.01-.005.006-.018.007-.014.016.005.005.009.012.017.007.009-.004-.005-.008.005-.009.009.01-.004.018.015.015-.005-.006.004-.012.011-.015l.008.007-.008.001c.002.015.013-.002.017.012l-.009.012c-.012.001-.003-.02-.02-.01.003.008.013.006.012.016-.002 0-.004-.003-.006-.004.001.003-.022.017-.002.022.008.004.007 0 .014-.004.007.013.016.014.021.022-.014.003.005.016-.012.012.005-.008-.003-.027-.018-.026-.013.012-.003-.01-.02-.007.005.01-.01.017-.019.022.001.004.006.005.009.006.009-.003.007-.006.016-.01a.035.035 0 0 0 .026.024c-.003.005-.013.008-.016.004a.12.12 0 0 1 .018.044c.01-.016.009.013.019.002.001-.009.009-.02.018-.019.001.005-.007.003-.01.006.011.002-.009.015.006.015-.01-.01-.019.005-.032.008.01.006-.008.003-.004.013.01.006.02.015.027.025-.006.018.014.033.02.045-.003.008-.019.01-.018.017.003.008.012-.012.011.003h-.004c.005.002 0 .025.02.02l-.015.002c0 .003.004.003.006.004-.005.003-.008.007-.013.005-.007.011.009.014.012.022l.006-.009c.013.01.008.023.017.034l-.009.004.008.005c-.009.001-.011.011-.002.012l-.029-.01c.002-.009.012 0 .019-.006.006-.006-.002-.017-.01-.016.001.005.002.005.007.007-.01.006-.013 0-.022 0 .001.001-.001.006.003.005-.008-.002-.011-.007-.015-.014.007.003.007-.006.011-.005-.011.003-.018-.003-.019-.014.009-.01-.014-.014-.016-.027a.078.078 0 0 1 .03.007c.002-.009-.004-.007-.001-.016-.01 0-.022.002-.031-.005l.008-.003c-.008-.007-.019-.002-.022-.014-.004-.019-.012-.038-.016-.05l.007-.005c-.019 0-.017-.023-.029-.03 0-.02-.022-.035-.014-.049-.02-.028-.038-.052-.049-.085l.013.001c-.011-.002.005-.007 0-.012-.006.011-.014-.003-.023-.003.002-.018-.016-.032-.029-.04l.007-.004c-.019-.007-.014-.027-.019-.044.003-.003.009-.01.006-.014-.017-.003-.018-.007-.032-.016a.09.09 0 0 1-.006-.037c-.035-.025-.04-.065-.068-.095l.008-.007c-.036-.025-.039-.075-.063-.099l.016-.005c.001-.01-.014-.019-.023-.01 0-.012-.019-.02-.009-.032-.002-.01-.013-.008-.019-.015a.082.082 0 0 0-.02-.043l.001.005c.004 0 .011-.003.01-.008-.008-.004-.009-.026-.024-.01.001-.024-.03-.039-.026-.064-.004.004-.007 0-.011 0-.009-.017-.008-.039-.023-.047.002-.004.01 0 .007-.008-.004-.003-.005.004-.011 0-.023-.022-.019-.058-.035-.08-.032-.037-.05-.084-.075-.124h.004c-.02-.007-.003-.04-.029-.04.002-.005-.005-.013.003-.015-.016-.005-.008-.035-.028-.043 0 .001 0 .002.003.002-.001-.02-.019-.027-.022-.047a.016.016 0 0 0 .01.001c.003-.01-.024-.006-.009-.02-.002-.003-.01.003-.008.005-.015-.04-.047-.072-.072-.108-.006-.032.027-.018.003-.03.002-.005-.008.001-.004 0-.01-.007.011-.025-.001-.025-.01.008-.009 0-.015.003-.003-.02.004-.029-.01-.037l.005-.002c-.024-.006-.026-.029-.051-.03-.052-.082-.111-.154-.162-.233-.046-.08-.103-.152-.146-.236.002-.028.001-.029-.019-.045.003 0 .004 0 .006-.003-.012.007-.01-.013-.022-.008-.018-.03-.038-.056-.059-.085.005.004.016 0 .011-.005h-.011l.002-.004c-.004-.003-.012-.003-.013.003-.06-.068-.088-.156-.142-.226-.007-.02-.028-.042-.044-.059a.484.484 0 0 0-.101-.178s.037-.009.059.011M28.9 15.685c.006-.005.007-.014.018-.01-.006.002-.011.01-.017.01"/>
        <path fill="#313131" d="M28.882 15.464c-.002 0 .001-.004.002-.005.001.003.008.002.005.005h-.007M28.863 15.413c.006-.001.017.007.02.013l-.02-.013zM28.866 15.356c.002-.006.006-.006.008 0h-.008M28.852 15.359c-.002-.004 0-.007.003-.01-.005.002.007.007-.003.01M28.823 15.252c-.003-.002-.01-.005-.005-.01-.003.004.013.009.005.01M28.792 15.21c0-.002.001-.003-.002-.004.002-.003.007-.003.01 0l-.008.003zM28.35 14.396l.005.003-.005.004zM28.146 14.047c-.006-.003.003-.006.003-.008.004.004-.007.003-.003.008M28.006 13.877h.001l-.01.006zM4.178 20.357l-.002.004.002-.004M4.631 20.682v-.001zM4.114 20.51l-.002-.001zM4.057 20.378c.012.035-.002.053.024.084.008.018.02.033.033.048.016 0 .012.019.028.022l-.005.008c.006 0 .01.003.009.008h-.002c.008.002.008.009.012.01h-.002l.005.006h-.003c.01.004.016.01.019.02l.007-.007c.003.022.022.015.022.035h-.001c.033-.001.01.037.042.037-.003 0-.002.004-.004.005.008.005.017.012.03-.002.006.005 0 .008-.004.014.006-.006.013-.004.018-.001H4.28l.013.009.008-.014c.004.009-.011.016-.002.018l.009-.01c.007.009 0 .029.004.044.018.017.045.023.068.032.025.008.049.012.067.03l-.001.01c-.003.015.018-.014.016-.002l.007-.004c0 .003.003.006 0 .009.005 0 .005-.001.01-.005l.004.01c.018.01.038-.005.057.002.025.023.074-.001.098-.011.03-.023.085.017.116-.015.002 0 .003-.004.003-.006l.03-.012s.039-.016.055-.038c.018-.022.008-.05-.066-.08l-.001-.002c-.018 0-.027.002-.031.02-.008-.016-.012.004-.017 0v-.001c-.004.018-.023-.005-.026.009 0-.001-.002-.007 0-.007-.005.004-.013.01-.017-.001-.014.007-.034.007-.041.028v-.003c-.003.013-.006.004-.012.01l-.001-.003c-.005.01-.017.003-.021.008l-.001-.007-.012.002.004.002c0 .019-.01-.013-.018 0-.007-.002-.018.045-.027.033-.005.009.005-.015-.002-.008 0-.011.004-.007.002-.016-.006.005-.01-.011-.017-.006v-.007c-.01.012-.014-.014-.023 0-.012.005-.001-.026-.015-.011L4.5 20.66c-.003-.003-.006.012-.008.005.002-.006-.004-.007 0-.013-.006-.013-.025.008-.032-.014-.007.01-.01.002-.017.01.002-.004-.012-.007 0-.015.002 0 .003 0 .002.003l.004-.007c0-.018-.016 0-.022-.006 0 .003.004.004-.001.008l-.006-.005.005-.005-.007-.01-.003.009c-.003-.006.004-.02-.007-.012-.006.004-.002.012-.008.01-.004-.007-.007-.02-.013-.028-.005.008-.007.006-.01.006l.005-.007c-.014.003.009-.016-.005-.015l.005-.004-.013.012c-.017.006.007-.017-.015-.006.004.002-.01.015-.012.009l.006-.005-.006-.001c.004-.002.009-.008.004-.01l.009-.004c-.005 0-.01.003-.015.004.002-.01-.012-.01-.006-.018 0 0-.005-.013-.015-.007.008-.003.005-.011.012-.015-.008.003-.02 0-.015-.007-.001-.016-.025-.012-.024-.03-.006.007-.006-.001-.015.008-.02-.005.005-.034-.03-.017-.004-.004.004-.011.004-.015h.002c-.01-.008-.01-.011-.014-.02-.006-.001-.021.008-.022-.001.008-.002.005-.004.003-.006.002 0 .005 0 .007-.005H4.22h.002c-.005-.003-.007-.001-.006 0l-.003.004c.004-.01-.008-.012.002-.02-.01-.011-.025-.015-.036-.023a.016.016 0 0 1 .016-.002l-.007-.007c.008-.004.007.002.01.004.007-.016-.023-.013-.017-.031h-.007a.016.016 0 0 1-.011 0c.007-.004.017-.007.014-.012.005-.008-.01-.011-.016-.016 0 .004-.004.005-.007.005-.001-.003.005-.008 0-.01l.01-.003c-.008.005-.012-.004-.017-.003.007-.005.009.002.013 0l-.007-.016c-.01-.003-.01.005-.02.006-.003-.005-.013-.008-.01-.017l-.006.006c-.011-.008-.012-.015-.006-.026-.05-.026-.076-.027-.09-.015-.013.012-.014.03-.014.03-.007.043.026.052.049.088M27.434 12.59l.006.007c0-.002-.001-.004-.006-.007M29.263 13.494h.002-.002zM27.657 12.834h-.002-.002.004z"/>
        <path fill="#313131" d="M27.304 12.615c.09.06.108.086.209.139.046.028.097.055.143.08.027.004.06.034.09.04l.007.012c.01.002.022.007.03.015h-.002c.015.005.029.015.037.017h-.002l.016.009h-.004c.026.01.05.023.07.037l.002-.008c.04.032.065.028.1.059H28c.062.012.076.058.138.069-.008-.001 0 .005 0 .006.025.01.053.024.06.012.018.009.012.01.012.017.003-.005.02 0 .034.008l-.007-.002.04.019-.002-.014c.02.014-.001.015.02.024l.005-.01c.028.018.039.04.066.06.059.032.124.057.187.084.064.026.126.052.18.085l.002.01c-.002.01.037-.001.038.01l.014.002c.003.003.01.009.003.008.012.006.013.004.024.005l.01.012c.047.025.094.03.145.053.057.04.183.069.253.087a.937.937 0 0 1 .154.053c.053.02.105.046.159.045.004.002.013 0 .014 0l.095.02a.573.573 0 0 0 .192.012c.075-.005.097-.024-.071-.08l.003-.002c-.05-.008-.081-.016-.117-.012-.004-.015-.041-.01-.053-.016l.002-.001c-.033.004-.062-.021-.093-.018 0-.001.003-.005.01-.003-.022-.004-.052-.01-.051-.018-.052-.012-.121-.036-.157-.032l.003-.002c-.022.004-.025-.007-.046-.01l-.002-.002c-.022 0-.06-.02-.075-.022v-.005l-.04-.013.014.006c-.01.013-.026-.02-.058-.02-.027-.011-.066.009-.09-.01-.017.002.016-.005-.006-.008.002-.008.01-.001.008-.01-.021-.003-.028-.02-.055-.024l.002-.006c-.035-.002-.055-.031-.08-.03-.034-.008-.015-.025-.052-.028l-.01-.013c-.013-.008-.013.004-.027-.007.003-.004-.018-.012-.007-.012-.032-.024-.076-.022-.117-.055-.013.004-.035-.012-.045-.008 0-.005-.047-.022-.016-.02.003 0 .007.003.006.005l.004-.004c-.02-.023-.05-.017-.074-.032.007.006.017.01.008.01l-.023-.011.007-.003-.034-.02.002.008c-.016-.011-.017-.024-.041-.026-.012 0 .013.017-.007.009-.021-.015-.053-.038-.082-.054-.001.007-.01.003-.017 0l.002-.006c-.035-.008-.005-.017-.04-.028l.005-.002-.014.007c-.033-.004-.01-.02-.048-.02.013.005 0 .015-.014.005l.006-.004c-.01-.003-.013-.002-.017-.006.006-.001.006-.006-.006-.012l.01-.002-.027-.003c-.015-.015-.048-.022-.051-.033 0 0-.037-.024-.05-.021.01-.001-.01-.015 0-.017-.013 0-.044-.011-.053-.023h.003c-.04-.03-.08-.032-.114-.061-.001.008-.02-.007-.02.004-.044-.015-.063-.057-.091-.041-.02-.01-.018-.018-.027-.025l.005.002c-.035-.018-.045-.023-.07-.038-.014-.005-.022.006-.044-.01.01 0 0-.005-.007-.01.005.003.007.002-.001-.007l-.008-.001v-.001c-.015-.007-.013-.004-.007 0v.004c-.011-.014-.04-.023-.037-.032-.043-.023-.078-.032-.115-.05-.001-.006.008-.005.02-.001l-.026-.013c.004-.005.016.006.024.009-.023-.026-.065-.027-.095-.056h-.01l-.001-.002c-.001.002-.011 0-.017-.002-.002-.007.007-.011-.01-.021-.01-.013-.04-.02-.058-.028.009.006.004.007-.001.007-.01-.006-.011-.014-.02-.016l.004-.007c0 .008-.026-.007-.03-.006-.002-.008.016.004.019.002-.034-.021-.016-.011-.051-.031-.021-.006 0 .008-.013.009-.017-.01-.035-.014-.051-.03l.002.01a.163.163 0 0 1-.066-.045c-.252-.095-.088.035-.088.035.079.069.136.08.244.14M10.775 12.23l.007-.007-.007.007M11.994 10.061l.001-.002v.002M11.038 11.938v.003z"/>
        <path fill="#313131" d="M10.797 12.378c.064-.115.093-.14.151-.262.033-.057.062-.12.09-.177.005-.031.04-.074.048-.11l.012-.01a.093.093 0 0 1 .016-.034l.002.002c.004-.02.017-.036.02-.045v.002l.01-.02.001.004a.388.388 0 0 1 .042-.084l-.008-.001c.036-.052.034-.078.068-.123h.002c.017-.07.065-.091.083-.164-.002.009.005-.002.007 0 .014-.031.03-.063.018-.07.012-.022.013-.016.02-.016-.006-.003.002-.023.011-.04l-.002.009.024-.05-.015.005c.017-.024.016 0 .027-.025l-.009-.005c.022-.034.046-.048.07-.078.083-.14.146-.304.237-.425l.01-.002c.01.003.006-.044.018-.044l.004-.018c.005-.003.012-.011.01-.002.008-.014.007-.015.01-.027l.014-.011c.037-.053.054-.105.091-.162.054-.061.122-.197.166-.272a.675.675 0 0 1 .114-.157c.043-.051.088-.1.12-.154.004-.002.008-.012.007-.013.023-.03.05-.057.074-.085l.053-.058c.033-.03.07-.073.101-.098.03-.028.05-.052.037-.058-.006-.003-.02-.002-.045.006a.447.447 0 0 0-.11.054v-.004a.315.315 0 0 0-.102.11c-.015-.004-.037.039-.05.047V9.71c-.015.038-.057.058-.073.094 0-.002-.002-.005.003-.012-.017.022-.036.054-.044.05-.036.056-.094.126-.105.169v-.003c-.006.024-.016.026-.028.05l-.003.002c-.007.026-.04.064-.05.083l-.004-.002-.027.045.011-.016c.01.014-.028.028-.04.064-.02.029-.01.077-.036.103-.003.019-.003-.02-.01.006-.009-.003.001-.012-.008-.01-.01.023-.028.03-.04.06l-.006-.001c-.01.04-.047.062-.05.09-.018.039-.032.015-.043.06l-.016.01c-.01.015.002.016-.012.033-.004-.004-.016.02-.014.007-.032.037-.039.089-.08.136 0 .016-.02.04-.018.053-.005-.001-.03.054-.023.019 0-.004.003-.008.005-.007l-.004-.006c-.027.025-.025.059-.044.088.007-.008.013-.02.012-.01l-.016.028v-.01l-.028.042.01-.003c-.016.019-.029.02-.034.049 0 .013.018-.015.008.008a1.75 1.75 0 0 0-.069.098c.008 0 .003.009-.002.02l-.006-.002c-.012.042-.019.008-.034.048l-.002-.005.006.016c-.008.039-.02.012-.026.057.007-.015.015-.001.003.017l-.003-.008c-.004.01-.004.015-.009.02.001-.006-.006-.006-.013.01v-.014l-.006.033c-.018.019-.029.057-.042.062 0 0-.028.045-.026.06 0-.013-.015.012-.017.002a.126.126 0 0 1-.03.064l.001-.003c-.035.049-.04.095-.073.138.008 0-.01.025.002.023-.019.053-.065.08-.049.112-.01.023-.019.023-.027.034l.002-.006a1.618 1.618 0 0 1-.044.086c-.006.017.005.025-.013.052 0-.012-.006 0-.01.01.002-.006.001-.01-.009.002v.01h-.002c-.008.018-.005.016 0 .008l.004-.002c-.015.016-.026.05-.035.049-.026.053-.038.095-.057.14-.007.003-.005-.01 0-.023l-.015.032c-.006-.003.006-.02.01-.03-.029.032-.03.08-.063.12v.01l-.002.003c.003.002.001.013-.002.02-.007.003-.01-.007-.022.015-.014.014-.022.049-.03.073.006-.012.007-.007.006 0-.006.01-.014.014-.016.023l-.008-.002c.01-.001-.008.03-.007.037-.009.003.004-.02.002-.024-.022.043-.01.022-.033.065-.007.025.01-.001.01.013-.01.02-.016.043-.032.064l.01-.004a.218.218 0 0 1-.048.085c-.099.309.037.096.037.096.072-.104.085-.171.15-.306M12.67 8.816c.01-.01-.013-.004.005-.01.001.006.001.01-.005.01M9.338 10.384c.043-.032.104-.006.15-.032.005-.002 0 .017.013.011.043-.03.118-.027.18-.023l-.004.005c.012.001.021-.018.033-.018.001.003-.003.005.001.01.001-.01.02-.01.023-.018.005.003.006.01.013.013l.004-.012c.012-.03.044-.01.065-.03 0 .003-.002.005.001.007.034-.026.083-.037.125-.057a.022.022 0 0 0 .003.016c-.002-.013.011-.019.022-.025.01.01.017-.017.032-.015v.003c.006-.015.017.002.02-.015l.01.007c-.002-.018.016.003.022-.008V10.2c.005-.006.012 0 .017-.004l.002.001c.015-.01.028-.005.024-.017.01.008-.015.01 0 .021.05-.03.106-.05.161-.072.01.002.014.002.017.006.003-.004.02-.01.022-.019-.002.001.006.005.01.005.011 0 .004-.018.017-.017-.003.005-.003.01 0 .013.006-.013.02-.017.03-.024-.002.002-.004.005-.002.01.008-.017.022-.008.03-.019v.008c.02.002-.002-.017.015-.018-.003.004 0 .006 0 .01.008-.019.032-.024.044-.034l.001.003c.013-.008.031-.01.045-.023.006 0 .004.018.02.008-.008-.014.022-.017.007-.029.014-.004.037-.008.044-.016-.004.008.014.014.004.02l.011.005c.002.006-.008.001-.003.008.005-.003.02-.016.025-.016.006-.014.01-.034.023-.043-.005.01.012.013.008.018l.011-.037c.005-.003.006.01.013.003-.003-.004 0-.007.001-.012.002.001.02-.013.03 0 .004.003-.008.006 0 .008.011-.005.01-.01.018-.015l.001.002c.008 0 .017-.015.006-.019-.005.002.006.007-.003.007.001-.01.012-.018.022-.023-.002.004 0 .007 0 .011.01-.017.021-.027.034-.039-.003-.007 0 .014-.004.012.023 0 .033-.032.056-.026-.002.002-.006-.009-.005-.007.01-.004.014.006.018 0 .003.005.007-.006.012-.01.001-.006.003.001-.002.004.006-.009.036-.034.06-.036-.002-.004.006-.02.01-.022l.003.01c.006.003.015-.009.02-.002.004-.015-.034.028-.024.013.006.005.011-.023.014-.009.01-.006.013-.019.026-.016-.003 0 0 .016.005.011.012-.008.002-.006.011-.014l.005-.007c-.004-.008.012-.005.003-.01.005.005.017-.015.021 0l.004.011c.005-.004.004-.016.006-.023.001 0 .004.002.004.004-.008-.017.015-.006.015-.022.014 0 .03-.015.04-.008.007-.009.012-.02.024-.022-.002.003-.004.005-.003.01.01 0 .01-.005.013-.01 0 .002.02.002.028.004.007-.009 0-.017-.003-.023.017.012.02-.023.037-.014 0 .004-.008.014.001.014.017.012.01-.02.028-.02l-.01-.01c.01.004.015-.019.021-.005.002-.007.017-.004.008-.016.03 0 .05-.035.076-.019.001-.004.01-.006.004-.012-.008-.004-.003.01-.008.006.003-.002.001-.006.001-.008.007 0 .013-.003.013.011.02 0 .003-.03.025-.036.002.006.005.008.01.004l.004-.015c.014-.005.014.008.02.017.006-.006.014-.009.013-.018l.014.007c-.01-.005.002-.008.004-.012l-.002.004c.004.003.01-.004.013-.007-.004-.005-.013-.002-.018-.002.001-.006.007-.008.01-.015.002.01.013 0 .02-.002.005 0 .001-.01.003-.012.002.005.01-.005.008.004 0 .003-.007 0-.007.004.005.001.01.01.014 0 .004-.008-.012-.017.003-.018-.002.004 0 .008 0 .012h.013l-.004-.01.003.003c0-.01.015-.01.012-.022.005-.004.014 0 .02-.003v.001c.01.001.016-.007.018-.015l.001.002a.032.032 0 0 0 .012-.015c.013.001.021.028.025.013.008-.006.005-.023 0-.026.017-.004.028-.027.05-.023 0-.005-.002-.006.001-.01.026-.01.044-.038.072-.034-.005.007.004.008.007.013.002-.01.011.003.005-.01-.004-.007-.005-.01-.014-.01.012-.012.033-.024.045-.022-.006 0-.004-.005-.003-.009.006.012.017.007.022 0l-.003-.009.01.004c.001-.003-.006-.016.006-.014.002.002.004.005.007.006.005-.01.01-.027.022-.026l.013.006c.003-.003.006-.013-.003-.013.02-.002.028-.007.04 0 .012-.038.048-.06.078-.077l.002.005c.011 0 0-.01.007-.01 0 .005.012.006.01.016.014-.002.01-.018.014-.025-.003-.007-.003.008-.006 0 0-.005.018-.006.014-.017.005.003.007.011.01.016l.002-.009c.016.007-.006.033.012.042l.005-.005c.013.007-.009.022.01.016.003-.009 0-.028-.009-.028.013-.012-.008-.028.007-.037.01.003-.01.01-.003.015.013.004.012-.013.021-.014-.01 0-.01-.014-.007-.019.011 0 .001.013.013.007-.002-.007.006-.018-.006-.016-.004-.016.014-.004.014-.018.01.007.001.03.017.026-.008-.008.007-.022-.008-.03.007 0 .012.005.012.013.01.002.006-.027.02-.01l-.004-.01c.004.001.008.001.015.004.006-.003.012-.024.02-.01.001-.003.015-.01.004-.017-.013 0-.006.013-.019.003.013.007.012-.009.015-.016l.004.005c.002-.004.008-.007.007-.014 0 .005.003.007.006.007l-.002-.01c.01-.012.012.013.022.003l-.005.012c.001-.003.01.002.014-.004l-.006-.027c.005-.007.01.007.01-.005l-.002.014c0 .004.012.01.021.003.004-.006.006-.022-.006-.02.005-.004.014-.003.014.005.01-.009-.006-.007 0-.017.006.003.021.003.032.005v.02l.005-.005c0 .015.01.005.012.018.005 0 .008-.007.01-.013-.023-.009-.002-.03-.015-.044.014-.015.034.031.035-.004-.005-.002-.005-.019-.012-.008.011-.005-.003-.02.013-.02-.005.011.02.008.013.026-.003-.006-.01 0-.01.003.007.003.008.016.02.01.003-.006.012-.012.005-.019-.006-.009-.008.007-.01-.005.01-.01.021.001.016-.018-.007.007-.014 0-.018-.007l.006-.01.002.007c.018-.005-.002-.013.013-.02l.015.006c.003.013-.024.01-.01.024.01-.006.007-.016.018-.017 0 .003-.003.005-.004.007.003 0 .02.018.025-.003.004-.01-.002-.007-.006-.013.014-.012.015-.02.024-.028.006.013.017-.01.014.01-.008-.004-.03.01-.028.025.015.01-.013.005-.007.021.013-.007.021.007.028.015.004-.002.005-.007.006-.01-.004-.01-.008-.007-.014-.015a.045.045 0 0 0 .026-.033c.008.002.012.011.007.015a.208.208 0 0 1 .05-.03c-.02-.007.013-.014 0-.02-.01.001-.025-.004-.024-.013.005-.002.003.006.008.007.001-.01.018.006.016-.01-.01.014.008.02.012.031.007-.013.005.008.016.001a.178.178 0 0 1 .025-.036c.022.001.038-.024.05-.033.01.001.014.016.023.014.007-.007-.016-.009.001-.013v.004c.002-.006.03-.007.021-.028l.005.016c.003 0 .003-.005.004-.007.003.004.01.006.007.012.013.003.015-.013.023-.02l-.01-.003c.01-.017.025-.015.037-.027l.004.008.006-.01c.003.008.014.007.014-.002l-.009.033c-.009 0 0-.013-.009-.018-.007-.004-.019.007-.016.015.006-.002.005-.004.007-.009.008.01.001.013.002.023.003-.002.008 0 .006-.005-.002.01-.006.013-.014.02.003-.009-.008-.005-.008-.01.006.01 0 .018-.013.023-.014-.006-.015.02-.029.025a.052.052 0 0 1 .005-.033c-.01 0-.009.006-.02.007.001.01.006.022-.002.033l-.005-.007c-.006.01 0 .02-.012.026-.023.01-.043.023-.059.033l-.005-.007c.001.02-.025.024-.032.038-.023.007-.038.034-.056.03-.03.027-.057.052-.095.072v-.014c-.002.012-.008-.003-.014.003.013.003-.002.016-.002.025-.02.002-.036.024-.046.04l-.005-.007c-.006.023-.03.022-.049.031-.004 0-.012-.006-.017-.002-.002.018-.008.02-.018.036a.138.138 0 0 1-.043.017c-.029.04-.075.055-.11.09l-.009-.007c-.028.043-.088.056-.116.086l-.005-.016c-.014.002-.022.018-.014.026-.013.003-.022.023-.036.016-.012.004-.009.015-.017.022-.026.007-.033.014-.053.03l.006-.004c.001-.004-.003-.01-.009-.008-.005.008-.03.013-.013.026-.028.003-.046.038-.077.037.005.004 0 .008 0 .012-.02.012-.046.014-.057.032-.004 0 .001-.012-.008-.007-.004.004.004.006 0 .012-.028.027-.07.028-.099.046-.046.04-.103.064-.152.093V9.71c-.01.023-.048.008-.05.035-.006 0-.017.007-.018-.002-.007.017-.042.012-.054.034.002 0 .003-.002.004-.004-.024.003-.036.023-.06.026.001-.002.004-.006.003-.01-.012-.002-.01.025-.024.011-.005.002.001.01.004.008-.049.017-.092.054-.138.081-.039.007-.017-.028-.037-.002-.004-.002.002.008 0 .005-.008.01-.027-.01-.029.001.008.01-.002.01.001.015-.024.004-.033-.003-.046.013v-.007c-.013.026-.04.028-.047.054-.106.056-.205.114-.31.164-.108.042-.21.093-.325.125-.03-.007-.033-.005-.06.011 0-.003.002-.004 0-.006.002.013-.02.008-.018.021-.042.013-.079.03-.122.043.006-.004.006-.015-.002-.012l-.006.011-.002-.003c-.005.003-.009.012-.002.014-.105.046-.22.048-.329.074-.028 0-.065.011-.092.018-.089-.004-.166-.013-.254.001 0 0 .012-.035.047-.044M12.658 8.827c-.008-.004-.018-.001-.016-.013.005.004.013.007.016.013"/>
        <path fill="#313131" d="M12.405 8.913c0 .002-.005 0-.006 0 .002-.003.002-.01.006-.007-.003.002 0 .004 0 .007M12.347 8.946c-.002-.006.007-.018.014-.022l-.014.022zM12.283 8.958c-.008-.001-.008-.004-.002-.008.002.002.002.005.002.008M12.286 8.972c-.004.003-.009.001-.013 0 .003.004.01-.009.013 0M12.165 9.03c-.003.001-.006.01-.012.005.005.002.01-.015.012-.006M12.117 9.07c-.002 0-.003 0-.004.002-.005 0-.004-.005 0-.008l.004.006zM11.16 9.66l.005-.006.002.006zM10.722 9.884c-.004.006-.006-.003-.008-.003.006-.003.002.007.008.003M10.493 10.023l.002-.001.005.01zM20.332 9.734c-.004.013.014 0 0 .01-.003-.004-.005-.009 0-.01M22.372 6.752c-.003.054-.063.078-.077.128-.003.005-.013-.012-.018 0-.009.052-.065.1-.114.133l-.002-.006c-.009.006-.005.026-.014.034-.002-.002 0-.006-.005-.006.005.008-.009.02-.007.027-.005.001-.01-.004-.018-.002l.004.012c.011.03-.027.034-.03.061-.003-.002-.003-.006-.006-.006-.01.042-.044.08-.066.118 0-.004-.006-.01-.01-.01.007.01.001.021-.004.032-.013-.003-.004.023-.018.03v-.003c.003.016-.015.008-.009.024h-.01c.01.013-.017.006-.015.018l.003.002c-.002.01-.01.007-.013.015h-.002c-.006.016-.02.018-.009.025-.013 0 .005-.016-.012-.018-.024.054-.06.1-.094.147-.009.002-.012.004-.016.002-.002.007-.012.02-.009.027.001 0-.008 0-.01.002-.01.005.005.017-.007.023 0-.006-.003-.01-.008-.01.003.013-.006.022-.01.034 0-.003 0-.006-.004-.008.002.017-.015.017-.016.03l-.004-.007c-.017.008.01.013-.003.023 0-.005-.003-.006-.006-.008.003.02-.013.036-.018.051 0-.002-.002-.003-.002-.003-.008.014-.022.025-.027.042-.005.003-.013-.013-.02.003.012.008-.012.026.008.028-.01.01-.029.025-.03.036 0-.009-.019-.006-.013-.016l-.013.002c-.004-.005.008-.006 0-.008-.004.004-.009.022-.014.025.001.014.01.033.001.048 0-.01-.016-.006-.015-.012l.01.037c-.003.006-.01-.006-.012.004.003.002.003.006.005.01-.003.001-.012.022-.026.015-.006 0 .003-.009-.005-.007-.005.01-.002.012-.007.022h-.002c-.006.003-.007.02.004.018.003-.004-.008-.004 0-.007.003.01 0 .02-.008.03 0-.005-.003-.007-.006-.01a.118.118 0 0 1-.01.05c.006.004-.007-.013-.003-.013-.019.011-.012.043-.035.05.001-.004.01.004.008.003-.007.008-.015.001-.016.01-.005-.004-.003.006-.005.013.001.006-.004 0 0-.006-.002.011-.015.048-.035.06.004.002.005.02.001.023l-.006-.007c-.007.001-.008.015-.016.011.004.015.015-.039.014-.023-.008 0 .001.026-.007.016-.006.008-.002.022-.015.025.003 0-.006-.014-.01-.007-.007.013.001.006-.003.017v.008c.006.006-.01.01.002.012-.007-.003-.008.02-.019.01l-.009-.009c-.003.005.005.016.007.023-.002 0-.005 0-.006-.002.014.011-.01.011-.002.025-.013.007-.02.027-.032.026 0 .011 0 .022-.01.03 0-.003.001-.006-.002-.009-.009.003-.006.007-.007.014-.002-.003-.017.006-.026.008-.002.012.01.014.012.02-.019-.004-.005.028-.025.03 0-.006.001-.018-.008-.014-.019-.003.001.022-.013.03l.013.005c-.01 0-.004.023-.016.013.002.007-.014.012 0 .018-.024.013-.027.053-.056.05 0 .005-.007.01 0 .013.01 0 0-.01.006-.008-.002.002.001.005.003.006-.007.005-.012.01-.018-.004-.016.01.012.028-.005.042-.005-.003-.008-.003-.009.002l.001.016c-.009.01-.015 0-.024-.007-.003.007-.008.014-.004.021h-.015c.011 0 .001.01.001.013v-.004c-.003 0-.006.007-.007.011.006.003.012-.003.016-.006.002.006-.002.01 0 .017-.008-.007-.012.006-.016.01-.006.005.003.011.002.013-.005-.003-.007.008-.01 0 0-.003.007-.002.005-.007-.006.002-.013-.004-.013.007.001.01.018.01.006.017 0-.004-.004-.007-.005-.01l-.012.006.008.005h-.005c.007.008-.007.017 0 .025-.002.005-.012.007-.015.011-.009.002-.01.012-.009.02h-.002a.024.024 0 0 0-.005.017c-.01.005-.03-.016-.026 0-.006.008.004.022.012.022-.015.011-.013.037-.035.043.002.004.005.004.004.01-.018.02-.02.052-.048.06.001-.008-.008-.005-.012-.008.003.01-.01.002 0 .011.007.004.01.007.017.002-.005.016-.018.036-.029.04.006-.003.006.002.006.006-.01-.008-.019.001-.019.011l.006.005h-.01c0 .005.012.013.001.016-.003 0-.006-.003-.009-.002.001.011.003.027-.007.032l-.015.001c0 .004.002.013.01.01-.017.01-.023.018-.035.017.006.038-.015.074-.035.102l-.005-.004c-.009.004.007.01 0 .012-.003-.005-.014 0-.016-.01-.013.007 0 .02-.003.028.007.005 0-.008.008-.002.001.003-.016.012-.006.02-.006.001-.012-.006-.016-.01l.001.01c-.016 0-.01-.033-.029-.033l-.003.007c-.014 0 0-.024-.015-.01.001.01.012.024.021.021-.006.016.02.021.01.036-.009.001.005-.013-.004-.015-.013.002-.005.017-.012.021.01-.004.015.008.014.014-.01.005-.006-.01-.014 0 .004.005.003.017.012.011.01.012-.01.01-.004.021-.012-.002-.015-.024-.027-.015.01.004.003.022.02.024-.005.003-.013 0-.016-.008-.009.004.006.027-.012.018l.007.008-.015.002c-.004.006.001.027-.013.018 0 .003-.009.016.004.016.012-.004 0-.013.015-.01-.014 0-.006.013-.005.02l-.006-.003c0 .005-.005.01 0 .016-.002-.004-.007-.006-.009-.004l.006.008c-.003.014-.016-.006-.02.007v-.013c0 .003-.01.002-.012.01l.017.021c0 .008-.01-.002-.006.01l-.004-.015c0-.003-.016-.002-.02.007-.002.007.004.022.014.016-.003.004-.01.007-.015.001-.003.011.01.003.01.015-.009 0-.023.006-.033.01l-.007-.018-.004.006c-.006-.014-.01 0-.019-.012-.004.003-.003.01-.003.016.025-.002.016.027.034.033-.006.018-.044-.013-.03.018.005 0 .012.016.014.002-.008.01.012.017-.002.025 0-.013-.02 0-.023-.019.005.004.008-.005.007-.007-.007 0-.014-.01-.02 0-.003.007-.008.016.001.02.01.004.005-.01.012 0-.005.013-.02.007-.007.021.004-.008.014-.004.02 0l-.002.011-.005-.006c-.013.012.008.011 0 .024h-.017c-.009-.009.017-.018 0-.026-.008.01 0 .018-.01.023v-.008c-.003.003-.026-.007-.02.014 0 .01.004.006.01.01-.007.015-.005.023-.009.033-.01-.009-.01.017-.017 0 .01-.002.021-.024.014-.036-.018-.003.008-.01-.004-.022-.007.011-.02.003-.03 0-.004.002-.002.007 0 .01.006.007.008.002.017.008a.041.041 0 0 0-.009.04c-.007.001-.014-.005-.012-.01a.151.151 0 0 1-.03.046c.021 0-.006.02.01.02.008-.007.022-.008.025 0-.003.005-.005-.004-.01-.003.004.011-.018.002-.01.016.004-.017-.016-.013-.024-.022 0 .014-.008-.005-.014.005 0 .014-.003.03-.008.043-.019.008-.02.037-.028.05-.01.004-.02-.009-.027-.002-.005.01.018.001.004.011l-.002-.003c.001.005-.022.02-.006.033l-.01-.012c-.004.002-.002.005 0 .008-.006-.002-.012-.002-.013-.007-.014.002-.008.017-.013.026h.012c-.003.018-.017.023-.02.04l-.009-.006v.011c-.007-.007-.017-.002-.013.007l-.007-.034c.01-.003.006.013.017.013.008.001.013-.013.008-.02-.004.005-.003.006-.002.011-.012-.004-.007-.012-.012-.02-.002.003-.007.005-.004.008-.002-.009 0-.014.005-.023.001.008.01 0 .011.005-.01-.007-.008-.017.001-.026.015 0 .005-.024.015-.035a.052.052 0 0 1 .01.032c.01-.005.005-.009.015-.014-.005-.008-.015-.017-.014-.03l.008.003c.002-.01-.009-.017 0-.028.015-.018.027-.039.037-.053l.008.003c-.01-.017.011-.032.01-.047.02-.015.02-.047.038-.05a.436.436 0 0 1 .051-.104l.007.012c-.004-.01.01 0 .011-.008-.013.003-.006-.015-.009-.023.018-.01.021-.036.023-.055l.006.004c-.004-.022.018-.032.031-.048.004 0 .012 0 .015-.006-.006-.016-.002-.02 0-.039a.16.16 0 0 1 .03-.033c.006-.048.043-.08.057-.126l.01.002c.007-.05.053-.087.064-.125l.012.012c.012-.008.012-.026 0-.03.011-.008.01-.03.026-.029.008-.009.001-.017.004-.028a.11.11 0 0 0 .033-.047l-.004.004c.002.004.008.01.012.004 0-.009.021-.025 0-.028.023-.015.024-.054.05-.066-.006 0-.004-.007-.005-.012.012-.018.034-.03.036-.05.003-.003.004.008.01.001.001-.005-.007-.004-.006-.01.012-.036.05-.056.065-.085.022-.053.06-.1.09-.148l.003.003c-.002-.024.037-.027.026-.052.006-.002.011-.014.016-.006 0-.019.031-.029.031-.054v.005c.018-.013.02-.035.04-.049 0 .003-.002.006.001.01.011-.004-.003-.027.016-.02.002-.005-.006-.009-.007-.006.034-.037.053-.087.08-.133.03-.024.028.017.032-.015.005 0-.005-.006 0-.004.001-.013.026-.002.022-.014-.01-.005 0-.009-.007-.013.018-.014.03-.012.033-.032l.004.005c-.002-.027.02-.042.012-.068.064-.097.12-.195.183-.288.068-.088.126-.182.202-.267.03-.01.03-.013.042-.04.001.002 0 .004.004.004-.01-.01.011-.017.002-.028.027-.032.048-.065.073-.099-.003.006.004.015.008.008v-.012l.002.001c.002-.005.001-.014-.007-.012.057-.094.143-.162.206-.248.02-.016.038-.048.053-.07a.658.658 0 0 0 .164-.174s.02.031.005.062M20.34 9.72c.007 0 .015-.005.02.005-.007-.002-.016-.001-.02-.005"/>
        <path fill="#313131" d="M20.527 9.538l.006-.002c-.001.003.002.008-.002.01 0-.004-.002-.006-.004-.008M20.563 9.485c.005.004.002.018-.002.025l.002-.025zM20.614 9.446c.008-.002.01 0 .005.006-.003 0-.003-.004-.005-.006M20.605 9.435c.003-.004.007-.005.012-.005-.005-.002-.004.011-.012.005M20.688 9.334c0-.003 0-.012.008-.011-.006.001-.002.017-.008.011M20.711 9.277c.001 0 .003 0 .002-.004.005-.002.006.004.005.006l-.007-.002zM21.283 8.341v.007l-.006-.004zM21.556 7.945c0-.007.007 0 .008-.001-.002.005-.004-.006-.008 0M21.68 7.716l-.01-.006zM22.31 6.261l-.01.003.01-.003M20.088 7.35l-.002.001h.002M21.937 6.38l.002-.003z"/>
        <path fill="#313131" d="M22.36 6.122c-.11.069-.147.075-.258.152-.054.033-.112.07-.165.105-.02.025-.07.043-.097.068l-.014.002c-.01.008-.021.017-.033.02v-.001c-.014.012-.033.02-.04.027v-.002l-.018.012.002-.004a.395.395 0 0 1-.08.048l.006.006c-.058.022-.071.046-.124.064v-.002c-.053.05-.103.043-.16.09.007-.005-.004-.001-.005-.002-.03.017-.06.034-.054.046-.022.01-.02.005-.024.002.002.006-.016.017-.033.026l.007-.006-.047.027.015.006c-.027.01-.014-.01-.036.005l.004.009c-.036.016-.065.012-.102.023-.073.032-.146.072-.22.11a1.573 1.573 0 0 1-.217.09l-.01-.003c-.006-.008-.031.03-.04.024l-.014.012c-.006 0-.015.002-.01-.003-.013.005-.013.007-.023.014h-.02c-.06.018-.105.05-.168.07-.078.02-.216.079-.296.113-.111.058-.26.053-.374.106-.004-.001-.013.005-.013.007-.036.01-.073.02-.11.027 0 0-.135.03-.217.059-.081.029-.112.057.105.052l-.002.003a.385.385 0 0 0 .142-.037c.01.012.05-.01.066-.011l-.001.002c.034-.021.079-.013.113-.033-.002.002-.001.006-.01.008.026-.01.06-.022.065-.015.06-.021.15-.04.185-.067l-.002.002c.019-.016.028-.011.052-.023h.004c.02-.016.07-.025.088-.035l.003.005.048-.018-.018.005c.002-.017.04-.003.072-.025.033-.01.055-.054.09-.06.014-.013-.01.017.012.003.004.006-.008.008-.001.012.023-.013.042-.008.07-.024l.003.005c.034-.025.074-.02.095-.04.038-.02.034.007.07-.02h.018c.018-.005.009-.014.03-.018 0 .005.025-.006.016.003.046-.011.082-.048.145-.061.008-.014.039-.021.045-.032.004.004.057-.024.029-.001-.002.002-.007.004-.007.002l-.002.007c.037-.003.056-.032.088-.045-.01.003-.022.009-.016 0l.03-.012-.004.008.045-.018-.008-.003c.022-.007.034-.001.055-.021.008-.01-.025.002-.002-.01.03-.01.075-.024.113-.04-.007-.004.003-.01.013-.015l.004.005c.034-.027.019.005.054-.02l-.002.005.005-.017c.028-.028.024.003.054-.032-.014.009-.013-.008.007-.015l-.002.007c.01-.006.01-.01.019-.012-.005.006 0 .009.015 0l-.006.012.023-.024c.025-.005.056-.03.069-.027 0 0 .049-.021.055-.035-.007.01.02-.002.015.008.01-.012.042-.036.06-.038l-.002.002c.055-.022.085-.057.137-.076-.006-.004.02-.015.01-.02.043-.035.097-.034.1-.068.02-.015.029-.01.042-.015l-.005.004c.04-.026.052-.032.082-.05.014-.011.01-.023.038-.037-.006.01.005.002.015-.004-.006.004-.007.007.008.002 0-.002.003-.004.005-.007.017-.011.013-.011.005-.006 0-.001-.001-.002-.004-.002.02-.005.048-.03.055-.023.049-.032.08-.062.12-.091.007 0-.001.01-.012.019l.029-.02c.004.006-.015.014-.024.02.04-.012.068-.054.114-.072l.006-.01h.002c-.002-.003.005-.012.01-.016.01 0 .008.01.029-.002.018-.006.042-.033.062-.05-.012.008-.01.003-.007-.002.01-.007.02-.006.026-.013l.005.005c-.007-.003.022-.023.024-.028.009 0-.013.014-.013.019l.06-.041c.017-.02-.008-.003-.002-.016.018-.014.033-.031.057-.042l-.01-.001a.284.284 0 0 1 .08-.054c.114-.114.113-.141.088-.137-.025.004-.078.036-.078.036-.11.059-.151.113-.271.199M2.903 12.623l-.003.004.003-.004M3.263 12.503h-.001M2.792 12.802V12.8zM2.824 12.551c-.015.063-.03.08-.032.148a.435.435 0 0 0 0 .102c.011.016.002.046.015.065l-.004.01c.004.006.01.014.008.023H2.81c.007.01.012.025.017.03h-.002l.011.014h-.004c.018.02.047.035.06.043l.001-.007c.032.022.047.01.075.026v.001c.04-.012.056.022.094.007-.004.002.002.003.002.005.017 0 .035-.002.036-.016.012.001.01.005.011.01 0-.006.011-.008.021-.009l-.005.003.027-.003-.005-.012c.014.003.004.015.018.011v-.009c.02.001.031.015.052.02a.58.58 0 0 0 .033-.004.126.126 0 0 0 .043-.016.132.132 0 0 0 .055-.067c.011-.03.01-.048.015-.068a.351.351 0 0 1 .014-.058l.008-.003c.01 0-.014-.022-.004-.024l-.004-.01c.002-.002.004-.007.006-.003.001-.008 0-.008-.004-.014l.007-.008c.006-.033-.007-.06-.007-.096.01-.043-.017-.12-.043-.16-.022-.03-.036-.062-.058-.094-.02-.03-.052-.06-.09-.066-.002-.003-.009-.002-.01 0a.207.207 0 0 0-.066-.018H3.1a.109.109 0 0 0-.034.003.183.183 0 0 0-.077.032c-.018.016-.028.03-.018.038.008.01.038.007.085.016v.003c.026-.002.038.001.056-.01.001.015.02.003.024.01v.001c.017-.006.023.02.04.017 0 .001-.003.004-.006.003.01.003.023.01.02.016.021.014.04.044.061.051h-.003c.013.004.008.01.016.017v.002c.011.006.012.028.018.036l-.005.003.008.021v-.009c.014 0-.006.02.007.033.001.015.037.027.031.046.008.007-.012-.006-.006.005-.008.001-.005-.005-.01-.002.004.012-.007.02 0 .034l-.007.001c.012.018-.007.035.004.047.004.02-.019.013-.007.033l-.009.008c-.002.008.01.006.005.016-.006 0-.006.011-.01.005-.01.02.007.044-.012.07.01.008 0 .02.007.026-.005.004-.006.016-.013.006 0 0 0-.002.002-.002l-.005-.002c-.012.002.001.013-.006.02.003 0 .005-.004.006 0a.012.012 0 0 1-.005.005l-.002-.005a.02.02 0 0 1-.01.003l.004.005c-.006 0-.01-.01-.013 0 0 .005.007.007.002.01a.286.286 0 0 0-.052-.008c.002.008-.003.008-.007.01v-.007c-.02.01-.009-.013-.028-.005l.001-.004-.004.012c-.017.013-.01-.012-.029.005.008 0 .004.013-.006.01l.003-.005c-.006.001-.008.003-.01.002.002-.003.001-.008-.007-.008l.005-.007-.014.011c-.01-.007-.03 0-.034-.009 0 0-.022-.006-.029.002.005-.005-.007-.009-.003-.014-.006.005-.025.008-.03 0h.001c-.023-.013-.044 0-.059-.017-.002.007-.008 0-.01.008-.019 0 .003-.02-.026-.016-.005-.008.003-.013.003-.018l.002.002a.113.113 0 0 1-.008-.038c-.004-.007-.016-.007-.013-.022.004.004.003 0 .003-.006.001.003.003.004.006-.003-.002 0-.003-.003-.004-.004h.002c-.002-.009-.004-.007-.004-.004l-.003.002c.006-.009 0-.026.008-.027 0-.027-.008-.047-.009-.07.004-.003.008.003.01.01v-.017c.006.001.002.01.003.015.013-.018-.006-.04.007-.062l-.005-.006H2.9c-.003 0-.006-.007-.007-.01.007-.003.014.002.015-.009.007-.009.002-.026.001-.038-.002.006-.005.003-.007 0 .001-.006.008-.008.006-.013l.008.001c-.008.001-.005-.016-.008-.018.007-.002.003.01.008.011.003-.02.001-.009.006-.028-.002-.013-.008 0-.012-.009.002-.009.001-.02.011-.03l-.008.001c.004-.02.012-.03.024-.038.01-.038.02-.062.025-.077.006-.015 0-.02-.008-.023a.07.07 0 0 0-.037.012.086.086 0 0 0-.018.013.15.15 0 0 0-.054.076.309.309 0 0 0-.017.076l-.003.026zM6.14 12.95l-.004.003c.002 0 .003 0 .005-.002M6.52 12.955v-.001zM5.977 13.085v-.002z"/>
        <path fill="#313131" d="M6.091 12.857c-.035.056-.056.065-.08.13a.54.54 0 0 0-.034.098c.006.019-.013.043-.007.066l-.007.008c.001.007.003.017 0 .024h-.002c.003.01.003.027.005.032h-.001a.06.06 0 0 0 .004.017l-.004-.002c.007.017.018.033.027.047l.014.017.004-.006c.022.032.042.026.062.05h-.001c.041.004.047.04.089.04-.005 0 .001.004 0 .005.017.005.035.01.039-.003.012.005.008.008.008.014.002-.006.013-.005.023-.002h-.005l.026.007-.001-.013c.013.008-.001.015.013.016l.003-.01c.018.008.026.026.044.037a.141.141 0 0 0 .079.006.14.14 0 0 0 .075-.048c.02-.026.023-.041.035-.06a.85.85 0 0 1 .032-.05h.008c.011.003-.006-.026.005-.025l-.001-.01c.003-.002.006-.006.007-.001.004-.007.002-.008.001-.015l.01-.006c.016-.03.012-.06.024-.092.025-.038.025-.121.013-.168-.01-.035-.013-.071-.023-.108a.14.14 0 0 0-.062-.095c0-.003-.008-.004-.008-.004a.259.259 0 0 0-.059-.038l-.012-.005a.18.18 0 0 0-.118-.003c-.024.008-.038.019-.031.03.006.012.035.019.077.043l-.001.002c.025.007.036.013.056.009-.004.014.018.01.02.018h-.001c.019 0 .016.027.033.03-.002 0-.005.003-.007 0 .008.007.019.019.012.023.016.02.025.057.042.07h-.003c.011.008.004.01.01.02l-.002.003c.009.009.003.032.006.04l-.006.002v.023l.002-.01c.014.006-.01.018-.003.035-.004.015.025.038.013.054.006.009-.008-.01-.006.003-.008-.001-.003-.006-.01-.005.001.013-.013.017-.012.032l-.006-.001c.006.02-.018.032-.012.047-.002.02-.022.006-.018.029l-.011.004c-.005.007.007.009 0 .017-.005-.003-.009.009-.012.002-.015.016-.007.045-.033.063.006.01-.007.02-.003.027-.005.002-.01.015-.013.002 0-.001.001-.002.002-.001l-.004-.003c-.013-.002-.004.013-.012.016.003 0 .005-.001.006.004-.003 0-.005 0-.008.002v-.005a.02.02 0 0 1-.011 0l.003.006c-.006-.002-.007-.013-.012-.004-.003.004.004.008-.001.01a.494.494 0 0 0-.047-.024c0 .008-.005.006-.011.006l.002-.006c-.022.003-.004-.015-.025-.014l.003-.004-.008.01c-.021.007-.005-.014-.029-.004.008 0-.001.014-.009.008l.004-.005c-.005 0-.007.002-.01-.001.004-.002.004-.008-.004-.01l.008-.005-.018.006c-.008-.01-.027-.01-.028-.02 0 0-.021-.013-.03-.007.007-.003-.004-.011.003-.015-.008.003-.027-.001-.029-.01h.001c-.018-.018-.042-.016-.049-.035-.005.006-.009-.003-.014.004l-.002-.001c-.011-.006.013-.02-.015-.024-.001-.01.008-.012.01-.016l.001.002c0-.02.001-.025.005-.04-.001-.008-.013-.012-.006-.025.004.006.005 0 .007-.006-.001.004 0 .006.005 0l-.002-.004h.002c.001-.01-.001-.01-.003-.005h-.003c.009-.006.008-.025.017-.022.008-.027.008-.05.015-.072.005 0 .007.007.005.014l.006-.016c.005.003-.001.01-.002.016.018-.014.007-.042.027-.058l-.002-.007.001-.001c-.002-.001-.003-.007-.002-.011.007 0 .012.007.017-.003.008-.006.009-.024.012-.037-.004.006-.006.002-.006-.001.003-.005.009-.005.01-.01l.007.003c-.008-.002 0-.017-.001-.02.006 0 0 .009.003.013.01-.02.004-.01.016-.026.002-.012-.007-.003-.01-.011.006-.01.009-.02.02-.026l-.007-.002c.01-.018.021-.025.036-.028.021-.033.038-.052.048-.065.01-.013.006-.02-.001-.025-.008-.004-.026-.003-.038 0l-.022.007a.155.155 0 0 0-.076.055.462.462 0 0 0-.027.04l-.013.027-.011.024zM7.378 14.775h-.004c.001.002.002.002.004 0M7.655 14.823zM7.218 14.844v-.001z"/>
        <path fill="#313131" d="M7.337 14.685c-.035.037-.054.04-.08.087a.356.356 0 0 0-.039.072c.004.016-.016.033-.013.053l-.008.005c.002.007.002.014-.002.02l-.002-.001c.003.01 0 .027.002.032l.001.015-.003-.003.015.03c.004.009.012.02.014.024l.005-.004c.013.028.031.024.043.046h-.002c.035.005.03.04.064.04-.004 0 0 .005-.002.006.013.006.026.012.033-.001.008.005.004.008.003.014.003-.006.012-.004.018-.001H7.38l.02.009.001-.013c.01.008-.003.014.007.017l.005-.01c.013.009.015.026.027.04a.11.11 0 0 0 .023.009.084.084 0 0 0 .038.006.112.112 0 0 0 .07-.027c.021-.02.025-.03.037-.043a.172.172 0 0 1 .033-.033l.007.002c.01.005-.004-.023.005-.02v-.008c.002 0 .006-.003.007 0 .003-.004.002-.005.002-.01l.01-.003c.017-.02.016-.045.03-.07.026-.023.033-.09.03-.128-.006-.03-.004-.056-.006-.088-.002-.03-.012-.064-.038-.082 0-.003-.006-.004-.007-.003a.216.216 0 0 0-.04-.04s-.016-.01-.037-.015a.13.13 0 0 0-.067-.006c-.019.004-.03.012-.027.024.002.013.023.026.05.055v.002c.014.009.021.015.038.01-.007.014.01.01.01.018.015 0 .006.02.02.025-.002 0-.005.002-.007 0 .006.005.013.013.006.017.011.016.012.042.025.053H7.65c.01.006.002.009.007.016h-.003c.01.008 0 .024.002.03H7.65c0 .006 0 .012-.002.018l.002-.006c.014.006-.01.01-.005.025-.006.01.021.033.01.043.003.008-.009-.01-.008 0-.007-.002-.003-.005-.009-.005 0 .009-.014.01-.014.022l-.006-.002c.004.018-.018.02-.013.033-.003.016-.02-.001-.019.018h-.01c-.005.005.006.01-.002.014-.004-.003-.008.005-.009-.001-.016.008-.01.034-.035.042.005.009-.006.013-.003.02-.005 0-.006.007-.01-.002h.001l-.004-.005c-.009-.007.001.008-.005.008.002.002.003 0 .004.005H7.51v-.005a.008.008 0 0 1-.005-.002v.006c-.003-.003 0-.014-.005-.006-.003.005.001.009-.003.01a.169.169 0 0 0-.03-.026c-.002.006-.005.005-.009.004l.002-.005c-.018 0 .001-.015-.016-.015l.004-.003-.009.009c-.018.005 0-.014-.022-.007.006.002-.004.014-.009.008l.005-.005c-.005-.001-.007 0-.009-.002.004-.001.006-.006 0-.008l.007-.005-.014.004c-.004-.01-.02-.01-.019-.02 0 0-.013-.012-.02-.007.005-.003 0-.01.004-.014-.006.003-.02-.001-.02-.01h.001c-.01-.017-.03-.014-.032-.03-.006.005-.006-.002-.013.004-.005 0-.003-.006 0-.008.001-.003.002-.003-.013-.006 0-.006.01-.006.01-.01l.002.003c0-.013.002-.018.007-.027 0-.007-.013-.013-.005-.021.004.005.005 0 .007-.003 0 .003.001.005.006.002 0-.002 0-.003-.002-.005h.002c.001-.006 0-.006-.003-.003l-.003-.001c.01-.003.01-.017.016-.014.01-.018.01-.036.018-.052.005 0 .006.006.004.012l.006-.012c.006.004 0 .008-.002.012.017-.006.01-.031.027-.04v-.006c-.002-.001-.003-.007-.002-.01.006.002.011.009.016.002.01-.002.01-.017.013-.026-.003.003-.005 0-.005-.003.003-.004.008-.002.008-.006l.006.005c-.007-.004.002-.014 0-.017.006.002 0 .008.002.01l.015-.015c.002-.01-.006-.004-.008-.012.005-.006.008-.015.02-.017l-.008-.003c.01-.014.02-.018.031-.016a.452.452 0 0 1 .044-.05c.01-.01.007-.018.003-.024a.056.056 0 0 0-.03-.01c-.013 0-.02.002-.02.002a.11.11 0 0 0-.07.033c-.009.008-.017.018-.027.029l-.014.02a.46.46 0 0 0-.01.017M4.503 12.42l.005-.004s-.003 0-.005.004M5.015 12.793h-.001M4.67 12.269z"/>
        <path fill="#313131" d="M4.57 12.508c.023-.067.042-.08.061-.148a1.27 1.27 0 0 1 .04-.092c-.002-.017.02-.034.023-.052h.01c0-.008.003-.014.01-.016v.002c.002-.009.011-.014.012-.019l.002.002.006-.006v.002a.062.062 0 0 1 .032-.023l-.005-.006a.087.087 0 0 0 .03-.01c.006-.005.014-.006.026-.002v.001c.03-.02.047.016.087.006-.005.001 0 .004 0 .006.018 0 .032.006.037-.007.011.004.008.007.008.012.002-.005.014-.005.02 0h-.004l.024.01.002-.013c.01.01-.005.015.009.02l.005-.01c.013.015.014.031.018.05.042.046.07.14.046.216l-.008.003c-.01 0 .013.023.003.025l.003.01c-.002.002-.005.007-.006.002-.002.01 0 .01.003.016l-.008.008c-.01.033-.003.064-.011.1a.137.137 0 0 0-.013.04.185.185 0 0 1-.005.022c0 .008 0 .01-.002.015a.072.072 0 0 1-.027.044c-.014.017-.053.01-.088.002-.035-.006-.069-.015-.103-.01-.002-.002-.008.001-.008.002a.56.56 0 0 1-.059-.012l-.115-.023c-.021-.003-.037-.003-.04.01-.003.011.01.04.064.077l-.003.002c.035.016.058.022.083.015.002.015.03.007.037.013l-.002.001c.024-.008.045.015.067.007 0 .001-.002.005-.007.005.016 0 .038-.002.038.006.037.001.09.005.112-.01v.002c.013-.01.021-.003.037-.012l.003.001c.016-.013.048-.026.056-.04l.005.003a.125.125 0 0 0 .021-.03l-.008.011c-.01-.012.024-.019.022-.05.007-.025-.024-.044-.014-.064-.005-.01.01.01.008-.005.008.001.003.008.01.005-.002-.014.013-.02.01-.039l.006.001c-.008-.024.014-.04.006-.057-.002-.024.021-.013.013-.039l.01-.009c.002-.01-.01-.009-.005-.019.006.001.006-.015.01-.008.01-.026-.006-.055.008-.09-.01-.009-.006-.029-.014-.034.004 0-.004-.038.01-.018 0 .002 0 .005-.002.005l.006.002c.01-.023-.011-.039-.014-.06 0 .006 0 .014-.005.01 0-.007-.002-.014-.004-.02l.006.002-.008-.032-.003.007c-.003-.015.002-.026-.014-.037-.008-.005 0 .017-.01.003a.107.107 0 0 0-.016-.035.112.112 0 0 0-.024-.035c-.003.007-.01.002-.016-.002l.003-.006c-.027-.01 0-.019-.029-.027l.005-.003-.014.008c-.026 0-.005-.02-.037-.016.01.003-.002.015-.013.008l.006-.005c-.008 0-.01.001-.014-.002.005-.002.005-.007-.005-.01l.008-.005-.022.004c-.013-.012-.037-.007-.04-.016 0 0-.03-.012-.04-.002.008-.005-.011-.01-.005-.016a.069.069 0 0 1-.048.002h.003c-.045-.005-.07.018-.107.027.005.006-.014.011-.005.017-.026.025-.067.025-.056.055-.01.012-.018.008-.024.014l.002-.004-.034.048c-.005.01.006.02-.006.032 0-.007-.003 0-.007.006.002-.005 0-.007-.008 0 .002.001.002.004.002.006h-.002c-.003.01-.002.01.002.005h.003c-.011.007-.014.03-.022.026-.013.032-.013.058-.02.085-.005.001-.008-.006-.005-.014l-.006.02c-.006-.004 0-.014 0-.019-.018.018-.005.048-.022.071l.002.007v.002c.002 0 .002.008.002.011-.006.002-.011-.004-.014.01-.01.008-.008.03-.008.043.003-.007.006-.004.006 0-.002.006-.008.008-.006.014l-.008-.002c.008 0 .003.02.005.022-.007.002-.002-.01-.006-.014-.007.026-.005.011-.01.044.003.017.008-.002.014.006 0 .015.005.028.003.044l.005-.005c.01.024.014.037.016.055.037.035.066.033.077.03.013-.004.018-.01.014-.02a.13.13 0 0 0-.011-.03l-.019-.044c-.006-.015-.01-.026.002-.072M.622 15.935h.004a.003.003 0 0 0-.004 0"/>
        <g transform="translate(-1 14.706)">
            <mask id="f" fill="#fff">
                <use xlink:href="#e"/>
            </mask>
            <path fill="#313131" d="M1.283.99h.001" mask="url(#f)"/>
        </g>
        <path fill="#313131" d="M.694 15.751l.002.001z"/>
        <g transform="translate(-1 14.706)">
            <mask id="h" fill="#fff">
                <use xlink:href="#g"/>
            </mask>
            <path fill="#313131" d="M1.635 1.33c.009-.005.017-.009.023-.014.008-.004.015-.007.025-.015l.022-.022c.006-.008.018-.013.017-.024.004-.045.01-.064 0-.103-.002-.037-.016-.074-.028-.107-.016-.01-.016-.043-.033-.056l.002-.01a.021.021 0 0 1-.01-.018h.002c-.009-.006-.011-.018-.016-.02l.002-.002L1.634.93h.003a.12.12 0 0 1-.028-.04l-.005.004c-.013-.03-.031-.032-.041-.06l.002-.002C1.527.815 1.537.778 1.498.763c.005.002.001-.005.003-.005-.012-.012-.027-.024-.037-.014-.009-.009-.005-.01-.002-.016-.004.005-.014 0-.02-.007l.005.001-.023-.017-.004.012c-.009-.012.007-.013-.006-.02l-.006.007C1.395.688 1.394.67 1.383.651a.33.33 0 0 0-.051-.036C1.326.612 1.306.6 1.293.593L1.251.576c-.014-.005-.027-.003-.04-.005-.011 0-.027.01-.032.02a.216.216 0 0 0-.028.078l-.007.003c-.011.001.012.04.004.04l.005.008c-.002.003-.004.008-.007.004 0 .008.002.01.005.015l-.006.01c-.003.034.013.06.016.095a.35.35 0 0 0 .046.158c.034.054.021.137.065.188 0 .003.005.006.006.006a.62.62 0 0 0 .024.053c-.002.003.13.247.104.021h.003c-.009-.03-.016-.047-.037-.06.012-.01-.009-.024-.008-.033h.001c-.017-.012-.007-.038-.024-.05.001 0 .005-.002.007.002-.007-.01-.017-.027-.009-.03-.015-.028-.026-.07-.045-.084h.002c-.012-.008-.006-.013-.014-.024L1.283.99C1.272.98 1.272.955 1.265.947L1.27.944 1.263.921l.001.01c-.016 0 .004-.02-.01-.036C1.252.88 1.216.87 1.22.85c-.009-.007.013.005.005-.006.008-.002.006.005.012 0-.006-.01.003-.02-.004-.035h.006C1.226.79 1.242.77 1.231.76c-.006-.02.017-.014.005-.034l.007-.008C1.244.71 1.233.71 1.238.705c.004.001.003-.003.008 0 .004-.002.001-.004 0-.01-.002-.004-.002-.01.005-.006-.009-.015.001-.008-.002-.017.003.006.01.005.008.015h-.001l.002.007c.003.007.003.006.003.004.001-.003.003-.008.005-.006C1.265.69 1.264.69 1.265.685l.004.004-.002.004c.002.003-.002.002.005.008l.001-.007c.008.008.004.02.019.02.007-.002-.004-.014.007-.009.01.012.023.031.036.044.003-.006.007-.002.012 0l-.004.005c.021.007-.003.015.016.023L1.355.78l.012-.006c.022.003-.002.015.025.017-.007-.004.007-.012.012-.003L1.398.79c.005.003.008.002.009.006-.004 0-.007.005-.001.01l-.009.002.018.002c.004.013.022.021.019.03 0 0 .014.021.024.02-.008 0 0 .012-.008.013.009 0 .025.012.025.022h-.002c.013.025.035.032.044.057.005-.005.009.008.014.001.021.018.009.05.038.044.005.01 0 .016.001.022l-.002-.002a.153.153 0 0 1 .019.04c.006.005.019.003.021.017-.007-.003-.004.003-.002.008-.002-.003-.004-.003-.005.004.002 0 .004.002.005.003h-.001c.004.01.005.007.004.002.001 0 .002 0 .003-.002-.004.011.007.025-.001.03l.026.064c-.005.003-.01-.002-.012-.008l.003.015c-.006 0-.004-.008-.007-.013-.007.018.012.042.002.05l.004.002h-.001c.003.002.004.006.004.008-.007-.002-.012-.007-.016-.004-.003-.003-.011.014-.019.022.005-.002.006.001.004.005-.004.003-.01 0-.012.004l-.005-.007c.006.005-.009.013-.009.017-.005-.004.005-.008.004-.013-.018.011-.008.006-.029.016-.009.01.005.006.003.014-.01.006-.018.015-.031.015l.006.004c-.018.013-.031.016-.045.014-.067.05-.075.068-.06.078.016.01.049.005.049.005.067-.005.094-.03.165-.076" mask="url(#h)"/>
        </g>
    </g>
</svg>
