<svg xmlns="http://www.w3.org/2000/svg" xmlns:xlink="http://www.w3.org/1999/xlink" width="13" height="19" viewBox="0 0 13 19">
    <defs>
        <path id="a" d="M0 .047h13v13.627H0z"/>
        <path id="c" d="M0 .023H1.94V2.95H0z"/>
    </defs>
    <g fill="none" fill-rule="evenodd">
        <g transform="translate(0 5)">
            <mask id="b" fill="#fff">
                <use xlink:href="#a"/>
            </mask>
            <path fill="#FF8D26" d="M11.655 2.571c-.096.41-.436 1.715-1.034 2.554a10.29 10.29 0 0 1-1.414 1.566c.109-.264.203-.525.282-.775.224-.708.5-2.17.71-3.471.234-.025 1.017-.04 1.344-.033.076.002.13.08.112.159m-9.28 2.554C1.636 4.084 1.32 2.441 1.32 2.441s1.128-.03 1.465-.01c.242 1.358.573 2.842.796 3.65.049.177.112.378.189.591a10.263 10.263 0 0 1-1.394-1.547m10.62-3.543c-.16-.14-2.154.033-2.666.03.105-.707.18-1.284.196-1.534 0 0-2.52.124-4.16.025-1.58-.126-3.892 0-3.892 0 .016.38.079.9.17 1.485-.517.014-2.48-.083-2.64.057-.052.031.524 2.717 1.234 4.056.669 1.26 2.363 2.886 4.484 3.928-.003.412-.01.906-.02 1.29a.942.942 0 0 1-.5.823c-.492.246-1.158.324-1.4.265-.058.215.012 1.618.012 1.618s1.17-.024 1.998-.013c.24.004.48.016.72.036.814.065 2.677-.01 2.677-.01s.035-1.542-.011-1.643c0 0-1.702.151-1.853-.771-.078-.476-.088-1.098-.08-1.59C9.392 8.591 11.09 6.961 11.76 5.7c.71-1.34 1.289-4.088 1.238-4.12" mask="url(#b)"/>
        </g>
        <path fill="#313131" d="M4.004 1.989l-.01.022c.008-.003.013-.01.01-.022M4.997 3L5.003 3l-.006-.002"/>
        <path fill="#313131" d="M4.003 2.002V2l-.006-.003.006.004z"/>
        <path fill="#313131" d="M3.18 1.248c.043.073.011.102.089.17.024.036.064.07.097.103.05.008.037.045.083.057l-.015.012c.016.004.03.01.024.02H3.45c.024.006.024.02.035.022l-.006.001.012.012h-.01c.03.013.046.03.051.047l.024-.007c0 .04.061.04.053.077l-.006.001c.096.023.004.07.099.094-.012-.003-.011.005-.018.007.023.016.042.034.091.023.01.013-.006.014-.023.02a.054.054 0 0 1 .05.014l-.013-.003.032.027.035-.015c.002.018-.046.016-.023.028l.033-.008c.011.023-.029.047-.036.074.06.089.223.16.236.253l-.022.01c-.035.01.073.009.042.02l.025.005c-.004.004-.006.011-.018.009.006.009.012.008.028.01l-.014.016c.012.038.082.055.106.093-.008.054.109.123.177.161.113.05.048.163.175.212-.003.003.014.006.018.004l.06.061.048.041c.03.022.074.05.116.065.087.035.165.02.183-.126L5 2.857c-.018-.035-.033-.057-.095-.066.043-.018-.023-.027-.016-.039h.005c-.057-.008-.012-.048-.063-.057.005 0 .018-.004.023 0-.02-.011-.049-.027-.022-.036-.04-.03-.074-.079-.138-.088h.01c-.042-.004-.02-.015-.048-.024l.005-.004c-.042-.005-.041-.037-.064-.044l.018-.006-.03-.025.006.011c-.054.01.013-.028-.038-.039-.01-.02-.14-.008-.132-.033-.032-.003.046-.003.015-.011.027-.008.023.002.041-.007-.024-.01.008-.029-.025-.04l.02-.006c-.057-.012-.008-.047-.058-.052-.036-.017.05-.03-.011-.042l.02-.016c-.004-.011-.04.001-.037-.013.019-.004.003-.017.025-.015.007-.031-.084-.04-.065-.083-.04.001-.034-.02-.065-.019.015-.004-.026-.033.023-.023.004.001.006.004 0 .005l.023-.003c.023-.028-.05-.028-.06-.048-.003.007.006.014-.013.013l-.012-.018h.02L4.253 2l-.02.009c.001-.016.034-.029-.009-.035-.022-.002-.019.019-.037.007 0-.02.002-.05-.01-.073-.022.008-.026.002-.036-.002l.02-.006c-.048-.016.04-.02-.002-.036l.016-.002-.049.005c-.06-.01.035-.021-.041-.03.01.008-.044.015-.044.002l.023-.002c-.01-.005-.02-.005-.019-.01.014.001.032-.005.02-.013h.031l-.052-.008c.012-.018-.033-.032-.009-.044 0 0-.009-.032-.046-.03.025 0 .02-.017.046-.018-.028-.002-.064-.019-.047-.033l.004.001c-.002-.037-.079-.046-.072-.081-.024.007-.023-.011-.052 0-.055-.022.021-.069-.086-.057-.016-.012.01-.02.01-.029l.007.002a.192.192 0 0 1-.048-.05c-.017-.007-.064.002-.066-.017.022.001.013-.005.008-.01.006.002.014.002.02-.009-.007 0-.012 0-.016-.002H3.7c-.015-.01-.019-.007-.017-.001a.023.023 0 0 0-.01.004c.014-.016-.026-.03.004-.038-.033-.03-.083-.045-.116-.068.014-.007.033-.004.045.002l-.02-.017c.022-.005.021.007.03.012.02-.03-.074-.037-.06-.07l-.022-.002.001-.002a.067.067 0 0 1-.033-.004c.017-.008.047-.01.035-.023.011-.014-.033-.026-.054-.037.002.008-.01.008-.02.007-.006-.007.011-.015-.001-.018l.026-.007c-.023.009-.04-.01-.054-.01.018-.008.026.006.042.004l-.034-.037c-.032-.01-.024.008-.053.006-.015-.01-.043-.018-.038-.036l-.02.01c-.037-.019-.045-.033-.033-.054-.33-.127-.297.023-.297.023-.001.08.097.099.179.174M1.198 2.296c.058.078.054.124.13.187.03.038.069.07.103.1.031-.004.04.045.072.047l-.002.02c.01 0 .021.004.022.017l-.003.003c.016 0 .022.017.03.018l-.003.003.012.01-.006.003c.024.008.04.025.052.045l.01-.016c.018.05.053.032.065.081l-.003.003c.065 0 .036.087.1.09-.008-.001-.004.009-.007.012.02.014.04.03.062.002.012.014.003.02-.004.033.01-.013.025-.007.035.003h-.008l.03.025.013-.03c.01.022-.018.033 0 .042l.015-.02c.017.026.006.068.014.103.076.095.2.136.252.25l-.008.018c-.015.024.045-.01.033.013l.016-.001c0 .006.002.016-.006.016.008.01.01.006.021.006V3.4c.024.045.072.046.102.086.021.07.12.123.176.151.087.029.103.19.197.214 0 .005.011.003.013 0l.062.06.046.036c.027.02.065.04.096.048.065.018.102-.022.044-.212l.004-.004c-.026-.038-.045-.061-.084-.055.016-.034-.025-.026-.027-.043l.003-.002c-.036.007-.03-.057-.063-.053.003-.002.009-.01.014-.007-.017-.009-.04-.02-.03-.039-.037-.026-.078-.077-.119-.07l.005-.003c-.025.007-.017-.013-.038-.016l.002-.006c-.026.006-.04-.034-.057-.037l.007-.012-.028-.023.008.012c-.026.029-.006-.04-.039-.037-.015-.022-.083.03-.09-.004-.02.006.025-.017.003-.018.012-.017.014-.005.02-.021-.019-.005-.009-.038-.033-.043l.009-.013c-.038.002-.027-.056-.057-.048-.029-.01.014-.052-.027-.05l.004-.026c-.007-.013-.022.014-.026-.005.009-.01-.007-.022.007-.026-.011-.041-.066-.025-.076-.086-.022.014-.028-.014-.045-.004.006-.01-.03-.034.002-.036.003 0 .005.003.003.007l.01-.01c0-.042-.04-.02-.055-.043.002.01.01.016-.002.02l-.015-.02.012-.006-.02-.031-.006.016c-.007-.019.006-.045-.022-.04-.013.003-.002.028-.017.02-.01-.026-.023-.064-.04-.09-.009.017-.014.01-.022.008l.01-.013c-.035-.005.013-.036-.019-.045l.009-.007-.026.02c-.038.005.01-.036-.037-.025.01.007-.018.032-.024.016l.012-.01c-.008-.003-.013 0-.015-.007.008-.002.015-.015.005-.022l.017-.01-.033.006c-.002-.026-.034-.03-.025-.053 0 0-.02-.036-.04-.024.014-.006.003-.026.017-.035-.016.006-.045-.005-.042-.028h.003c-.019-.046-.066-.035-.079-.08-.01.015-.018-.008-.029.014-.041-.011-.02-.092-.075-.045-.014-.01-.004-.03-.008-.04h.005a.228.228 0 0 1-.05-.047c-.013-.004-.035.02-.046-.003.014-.005.006-.01 0-.016.005.002.01 0 .007-.016a.018.018 0 0 1-.01.003l.002-.003c-.012-.007-.013-.002-.01.004l-.003.009c0-.025-.029-.03-.016-.05-.032-.027-.068-.031-.097-.051.005-.012.017-.014.026-.01l-.02-.016c.012-.013.017.004.024.007-.003-.044-.059-.025-.067-.071l-.013.005v-.004c-.005.006-.016.008-.02.005.005-.015.02-.026.008-.038 0-.022-.03-.024-.048-.032.005.01-.002.014-.008.015-.006-.006 0-.022-.009-.022l.012-.016c-.01.017-.028-.001-.035.003.006-.016.017 0 .025-.007l-.037-.038c-.022-.002-.01.018-.026.025-.014-.01-.033-.011-.038-.035l-.007.019c-.03-.013-.04-.029-.044-.058-.245-.064-.156.116-.156.116.036.1.1.095.182.166"/>
        <g transform="translate(8)">
            <mask id="d" fill="#fff">
                <use xlink:href="#c"/>
            </mask>
            <path fill="#313131" d="M1.468.334c-.085.095-.167.107-.212.215-.039.047-.06.102-.085.151.034.033-.042.063-.018.098l-.036.005c.008.012.01.024-.01.03L1.097.832c.012.018-.011.031-.005.04L1.085.87l-.007.018-.01-.006c.006.029-.01.054-.034.074l.035.005c-.07.039-.01.07-.083.103l-.008-.002c.055.07-.118.072-.069.144-.006-.01-.02 0-.027-.003-.007.027-.02.055.048.069-.013.018-.031.01-.06.008.03.006.032.024.025.039l-.007-.009-.017.043.061.003c-.03.019-.072-.008-.072.016l.047.009c-.03.028-.111.032-.165.055-.098.12-.064.272-.215.372l-.039-.001c-.052-.007.057.045.007.04l.015.018c-.011.002-.026.008-.034 0-.01.012-.001.013.01.025l-.041.008c-.055.044-.017.097-.06.146-.103.05-.11.177-.111.25.023.107-.24.187-.201.3-.009.001.004.012.01.013l-.048.09s-.014.029-.025.066a.225.225 0 0 0-.002.124c.025.078.125.103.4-.034l.01.003c.044-.044.068-.073.023-.113.073.004.025-.038.053-.047l.005.002c-.042-.036.072-.053.039-.088.005.002.024.005.022.012.001-.022 0-.052.042-.048.014-.05.066-.115.02-.157l.01.004c-.034-.025.007-.024-.004-.048h.011c-.032-.027.025-.058.015-.077l.028.004.015-.04-.014.013c-.07-.017.062-.021.031-.057.025-.025-.122-.08-.07-.1-.026-.02.05.02.035-.004.039.006.019.014.052.014-.007-.022.058-.025.046-.053l.03.005c-.036-.04.074-.051.034-.08-.005-.037.101-.006.063-.05l.048-.005c.015-.013-.043-.019-.014-.03.025.005.033-.017.051-.003.061-.028-.012-.082.083-.116-.043-.02.001-.037-.03-.052.022.003.032-.046.062-.01.003.002 0 .006-.009.004l.027.009c.072-.016 0-.054.026-.078-.015.006-.019.016-.034.006l.019-.024.021.01.038-.034h-.034c.027-.015.083-.011.052-.04-.018-.013-.051.01-.049-.011.036-.02.09-.05.118-.078-.036-.003-.029-.011-.03-.02l.03.004c-.02-.04.073 0 .06-.037l.02.006-.057-.02c-.04-.04.071-.003.012-.05-.003.013-.069-.007-.046-.02l.026.01c0-.01-.01-.016 0-.02.011.008.039.01.042-.003l.03.015-.036-.034c.042-.012.023-.049.068-.048 0 0 .046-.036.008-.054.022.014.047-.006.075.006-.024-.016-.03-.051.012-.057l.002.003c.064-.038.005-.085.073-.117-.036-.005-.003-.022-.05-.026-.015-.05.14-.058.015-.1.006-.02.047-.016.06-.024l.005.006a.186.186 0 0 1 .04-.074c-.005-.016-.066-.03-.035-.05.02.012.022.001.028-.007 0 .006.008.01.033.001a.029.029 0 0 1-.012-.01c.002.001.004 0 .006.002C1.66.76 1.65.76 1.642.767a.047.047 0 0 0-.017 0c.042-.01.027-.043.07-.036.021-.047-.001-.087.007-.127.025 0 .039.013.04.025l.01-.027c.032.006.008.018.009.028.072-.02-.007-.075.065-.101l-.02-.013.006-.001C1.8.512 1.787.5 1.786.495c.031 0 .063.013.074-.006.037-.008.015-.043.013-.064-.011.009-.024.002-.031-.004.005-.009.036-.008.03-.018l.037.007C1.872.406 1.888.379 1.875.372c.031 0 .014.02.033.026l.033-.055c-.014-.025-.037-.004-.063-.02.004-.018-.01-.04.026-.055h-.037C1.864.23 1.88.211 1.93.197 1.833-.097 1.6.07 1.6.07c-.14.079-.079.147-.132.264" mask="url(#d)"/>
        </g>
        <path fill="#313131" d="M10.265 3.81c.075-.052.11-.036.177-.113.037-.028.07-.068.102-.102.003-.039.045-.04.053-.077l.015.007c.002-.013.008-.024.018-.022l.002.004c.004-.02.019-.023.02-.032l.003.004.01-.012.002.007a.095.095 0 0 1 .046-.051l-.01-.016c.043-.01.036-.057.079-.061l.001.005c.014-.08.077-.023.093-.101-.002.01.007.007.008.011.016-.02.033-.04.015-.074.014-.012.017 0 .025.012-.008-.015 0-.03.01-.041l-.002.01.027-.032-.021-.022c.02-.006.022.03.033.01l-.012-.023c.024-.014.055.009.085.007.091-.07.151-.212.252-.247l.014.013c.015.023 0-.057.017-.037l.002-.02c.006.002.014.002.012.012.01-.008.007-.012.01-.025l.017.007c.04-.02.052-.077.09-.105.061-.01.123-.116.158-.178.042-.098.174-.082.213-.19.004.001.005-.012.003-.015l.06-.062s.018-.019.04-.047a.445.445 0 0 0 .058-.105c.028-.075.004-.13-.16-.102l-.002-.006c-.037.023-.06.04-.062.09-.024-.028-.027.024-.04.022l-.002-.004c-.002.045-.05.023-.055.063-.001-.003-.006-.012-.003-.017-.01.018-.024.044-.037.027-.029.038-.078.077-.081.127l-.002-.007c0 .033-.013.019-.02.043l-.005-.004c0 .034-.036.042-.041.061l-.009-.012-.024.029.011-.007c.018.038-.032-.002-.038.039-.02.013.007.108-.022.109 0 .025-.008-.034-.014-.01-.01-.017 0-.016-.012-.028-.008.022-.032.002-.041.03l-.01-.013c-.005.046-.05.02-.05.057-.014.033-.038-.028-.045.021l-.02-.01c-.011.005.007.03-.01.03-.006-.013-.019.003-.019-.014-.035.004-.034.074-.084.071.006.03-.018.032-.013.055-.007-.01-.034.028-.028-.011 0-.004.003-.006.005-.002l-.005-.016c-.034-.01-.026.046-.046.058.008 0 .014-.008.015.006l-.018.014L11 2.783l-.03.016.012.012c-.016.004-.035-.017-.037.016 0 .018.023.01.013.026-.023.005-.056.013-.08.028.012.015.006.02.002.028l-.01-.014c-.01.04-.025-.024-.039.012l-.003-.012.01.036c-.004.047-.027-.02-.028.04.008-.011.022.027.008.031l-.005-.016c-.005.008-.003.016-.009.016 0-.01-.01-.022-.017-.011l-.004-.023-.002.04c-.021-.002-.032.035-.048.02 0 0-.033.015-.028.043-.001-.019-.02-.01-.024-.03.001.022-.014.054-.031.045v-.003c-.04.012-.041.071-.08.076.01.016-.01.02.005.039-.018.047-.078.003-.052.08-.012.015-.025-.002-.034.001l.002-.006a.23.23 0 0 1-.05.05c-.005.014.01.047-.01.054-.002-.017-.008-.009-.014-.003.003-.006.002-.011-.01-.012l-.001.012-.002-.003c-.008.014-.004.016.002.013 0 .002.002.004.005.007-.019-.007-.03.027-.042.007-.03.033-.04.075-.062.106-.009-.009-.008-.024-.002-.035l-.017.02c-.008-.015.006-.018.01-.026-.036-.006-.032.065-.071.065l.001.017h-.002c.003.006.002.02 0 .025-.012-.01-.017-.032-.03-.02-.017-.004-.025.032-.035.051.009-.004.01.006.01.014-.006.006-.017-.005-.02.005l-.01-.018c.012.016-.007.034-.005.043-.011-.01.004-.02 0-.032l-.038.036c-.006.026.012.016.014.038-.01.014-.016.037-.036.038l.014.013c-.017.033-.032.042-.056.039-.103.282.06.216.06.216.087-.021.097-.1.17-.182M1.997 2.988l.001.024c.005-.006.007-.014 0-.024M2.997 3h.006-.006M2.004 3h-.008.008zM9.011 1.994l-.022.01c.007.003.016.001.022-.01M8.999 2.998c0 .001 0 .003.002.004C9.001 3 9 2.998 9 2.998"/>
        <path fill="#313131" d="M9 2.003h.001A.106.106 0 0 1 9 1.996L9 2.003zM9.988 2.999l.024.005c-.005-.007-.012-.01-.024-.005M11 3.003v-.006.006M11.001 2.997l-.002.006.002-.006z"/>
    </g>
</svg>
