<svg xmlns="http://www.w3.org/2000/svg" xmlns:xlink="http://www.w3.org/1999/xlink" width="30" height="30" viewBox="0 0 30 30">
    <defs>
        <path id="a" d="M0 .225h24.963v14.553H0z"/>
        <path id="c" d="M.106.116h20.87V14H.105z"/>
    </defs>
    <g fill="none" fill-rule="evenodd">
        <g>
            <mask id="b" fill="#fff">
                <use xlink:href="#a"/>
            </mask>
            <path fill="#00BFB5" d="M24.71 6.28c-.088-.978.108-1.931.11-2.924.002-.71.145-2.081-.115-2.856-.054-.159-.305-.274-.602-.274-1.465-.001-3.37-.015-5.179.129C17 .507 15.156.297 13.204.286 9.35.264 4.925.283.997.286.663.285.392.43.386.61.326 2.379-.1 4.45.058 6.206c.099 1.095-.087 2.58-.052 3.916-.002.009-.006.016-.006.025.04 1.529.29 3 .488 4.49.021.16.378.195.474.045.55-.85 1.587-1.605 2.492-2.32a67.78 67.78 0 0 0 4.036-.084c2.723-.121 5.448.128 8.154-.014 2.539-.133 5.78.09 8.338.065.279-.003.52-.108.583-.256.702-1.661.292-4.138.144-5.793" mask="url(#b)"/>
        </g>
        <path fill="#000" d="M14.507 6.63l-.086-.04c-.07.126-.21-.012-.28.078l-.129-.079-.052.044c-.067-.046-.12-.017-.181.023-.023-.017-.054-.078-.096-.013-.088-.087-.19-.005-.293-.04l-.021-.038-.096.105.046-.088-.185.03v-.047c-.043.036-.088.056-.138.011l-.017.048c-.024-.048-.049-.09-.081-.014l-.058-.052a.306.306 0 0 0-.012.013l.021.015-.07.03.009-.083-.048.058-.128-.048v.065h-.022a2.598 2.598 0 0 1-.004-.034l-.422-.046.086.055-.116-.044v.038l-.085-.062c-.036.065-.048 0-.042.006-.03.015-.058.042-.083.039-.03-.004-.058-.033-.106-.063l-.06.028-.227-.014-.058.03c-.037-.072-.089-.05-.15-.011l-.075-.067.035.07c-.043.004-.076-.076-.12 0l-.034-.1V6.5c-.058-.033-.11-.02-.161.032-.01-.084-.072-.069-.116-.082-.015-.005-.034.006-.096.02l-.54-.056-.236-.045.022.067-.106-.085a2.97 2.97 0 0 0-.046.033l-.041-.052-.028.062c-.029-.05-.092.042-.11-.05-.067.117-.15-.055-.226.022l-.108-.088.009.06-.164-.016c-.03.022-.051.048-.072.048-.022 0-.043-.026-.064-.04l-.076.026c-.014-.086-.13.04-.133-.05l-.226.04c-.033.07-.053-.082-.098-.033l.009.04-.065.018c-.092-.088-.2-.046-.335-.024l-.375-.035c-.01-.008-.05.01-.08.045l-.097-.19.013.18a49.665 49.665 0 0 0-.194-.037v.02l-.362-.025-.02.063-.037-.059-.15.06.017-.032H6.51c.04.01-.018-.004-.076-.017l.007.052-.049-.054-.11.039-.082-.054a1.16 1.16 0 0 1-.01.035 1.994 1.994 0 0 0-.045.005l-.175-.055a.628.628 0 0 0 .003-.018l-.07.067c-.063-.056-.108-.008-.121.003h-.432l.01.012-.156-.007-.232-.043c-.151.02-.23.204-.415.153.007.015-.002-.003 0-.001h-.324l-.01.021.06.05-.212-.1.015.051h-.17l.044-.034-.094-.02-.021.078-.03-.052-.164.02-.018.04-.017-.073-.037.044a7.54 7.54 0 0 1-.048-.062c-.05.063-.104.1-.178.024l-.035.034c-.13-.064-.268.074-.386-.03l-.083.057-.024-.034c-.18-.023-.35.07-.491-.01-.102-.013-.182-.01-.251-.037-.03-.012-.036-.086-.063-.16.018.012.004.003-.019-.01.256-.196.555.011.816-.11l.028.06v-.053c.044.043 1.288.023 1.34-.028.075.116.208-.002.324.082l.263-.125c.214-.074.425-.025.615-.011.019-.031.031-.059.036-.058.19.062.386.04.58.034.185-.006.37-.002.556-.013l.305.021-.001-.01h2.513c0-.005 0-.01.002-.014l.364.035.05-.061-.02.073c.353.024.697.126 1.084.08.182.079.418.063.65.072.11.002.224-.043.33.044.03-.033.683-.001.693.017l.185-.012-.006.032h.587c.114-.026.292.02.448.05.22-.126.445.059.578-.004h2.034c.819.084 1.641.03 2.48.148-.009-.015 0 .002-.004-.006l1.594.14.003.006.341.016c.415-.048.825-.18 1.19-.13h.879l.163.1-.1.137-.013-.002.03.082c-.077-.093-.182.027-.23-.078-.04.024-.05.041-.03.047-.051-.062-.132.056-.205.004a8.22 8.22 0 0 1-.027.067v-.094l-.097.052h-.041l-.007-.043c-.05.026-.106.078-.148.015l-.224.01-.031-.033-.07.078-.092-.068c-.023.15-.156.022-.216.09a3.958 3.958 0 0 1-.03-.054c.004.085-.047.084-.1.08a.37.37 0 0 0 .016.019l-.265.02a.26.26 0 0 1-.007-.01L21.076 7l-.048-.067-.039.052-.026-.085-.012.097-.02-.08-.064.06c-.046-.117-.171.07-.219-.074l-.032.07c-.037-.121-.164.024-.203-.071-.107.045-.2.012-.314-.06l.041.078c-.099-.102-.24.006-.373-.074-.009-.003-.043-.016.012.005l-.498-.041-.007.032-.124-.048.097.07-.34-.092c-.088.121-.2-.089-.285.012-.168-.12-.359.024-.573-.08l-.007-.01-.013.083-.025-.06H17.1c.028-.02.002-.002-.03.02l-.018-.034-.557-.034-.027.034-.213-.047c.032.027.015.012.002.002l-.066.017c-.224.015-.397.045-.583-.028l-.278.026a1.83 1.83 0 0 0-.031.008l-.066-.082c-.015.015-.034.032-.055.05l-.036-.087a12.56 12.56 0 0 1-.004.092 30.425 30.425 0 0 0-.078-.06l-.056.043v-.032c-.166.008-.324.085-.497.025M8.851 4.08v-.015h-.689l-.001.016-.071-.021c-.101.01-.19.05-.285-.012v.059l-.032-.038h-.569l.007-.006-.84-.034a.164.164 0 0 1 0-.005c-.058.01-.118.033-.17-.015l-.032.035-.658-.022a.226.226 0 0 1-.18-.018c-.037.01-.063.025-.083.022-.047-.008-.113.03-.132-.016h-.398c.04.003-.056-.034-.126.011l-.38-.023.044.022-.388-.029.046.068c-.048-.055-.106-.037-.066-.082-.21.044-.413.024-.624.01l.025.015H2.36a.502.502 0 0 0-.008.016h-.268c0-.033-.036-.045-.085-.043-.002-.038.023-.038.093-.006-.082-.062-.047-.094.024-.141h2.27c1.757.015 3.513.09 5.291.057.037-.02.467-.055.484-.027.42-.04.845-.056 1.261-.04.068-.057.127-.02.154-.014h.489c.04-.031 1.9-.074 1.944-.033.766-.042 1.52.054 2.286.107v-.004h.463l-.002.031h2.89l-.002.032.42.024-.004.017h.35l2.014.075c.08-.034.18.017.211-.014.463-.03.886-.015 1.314.046l.05.155-.067-.094c-.043.023.07.066-.03.083l.013-.082-.06.099c-.044-.052-.079.004-.123-.002v-.028a.307.307 0 0 1-.201 0l-.293.012v-.012h-.478l-.057-.012.025.022c-.142.002-.285-.048-.384-.013h-.883c-.008-.011-.004-.005.003.005-.05-.006-.094-.063-.146.004v-.045l-.138-.008c.004.01.01.021.016.038l-.12-.024h-.15c-.089-.028-.168-.066-.229-.017l-.326-.03-.112.038c-.031-.05-.071-.037-.119-.01-.043-.074-.094-.006-.149-.005l-.005-.03c-.093.018-.183.056-.238-.05l-.019.045h-.088v-.019c-.139.044-.26-.067-.315-.038-.12.03-.16.067-.21.022-.032.083-.136-.062-.164.033a13.531 13.531 0 0 1-.108-.04l.024.036c-.092-.013-.182-.053-.297-.01l-.086-.032v.02c-.312-.015-.623-.03-.942-.047-.044.035-.93.016-.985-.027-.026.015-.052.03-.08.048l-.027-.012h-.418c.048-.012.003.004-.018-.04-.077.03-.15.043-.23 0a.222.222 0 0 0-.008.015l-.214-.027c0-.001-.007-.018-.014-.018-.113-.007-.227-.012-.37-.018l-.026-.023-.105.025-.014-.04c-.052.057-.108.058-.17.012l-.087.038.021-.031-.277-.012-.064-.035.03.066-.11-.033a.65.65 0 0 1-.008.008h-.557v.016c-.08-.087-.186.03-.272-.029l-.043.029-.022-.021c-.024.005-.046.013-.066.012-.048-.002-.096-.01-.174-.018l-.017.015-.007-.032c-.115.025-.228.074-.352.01-.068.044-.917.07-.955.027-.133.088-.312-.05-.432.041h-.593v.028l-.1-.037.054.081-.091-.081h-.06l-.001.012-.172-.006a.898.898 0 0 1-.013.023l-.407.013-.02-.01-.008.014-.595.059.01-.033c-.165.054-.334.01-.602.023l-.024-.001M3.479 8.773h2.618l-.002.001h1.162c.005-.012.966-.02 1.021.025.026-.023.054-.086.09-.004.373-.053.746-.013 1.04.02l.248.066.084-.018.006.044c.237-.011.484.102.713.026l.56-.07a.57.57 0 0 1-.004-.02h.666l-.003-.02h1.077c.155.049.218.02.215.084l-.145.022.175.01c-.109.016-.118.047-.107.089-.172.107-.36.05-.529.063a.341.341 0 0 0 .018.015c-.136-.07-.263.006-.426-.002-.105.027-.243.025-.382.028a2.985 2.985 0 0 1-.063-.019l.032-.037c-.08.029-.131.12-.219.039v.035l-.141-.045-.004.061-.193-.022-.07.057-.057-.074c-.065.099-.16.086-.15.088l-.523.03-.024-.032c-.072.107-.166-.095-.245.025L9.9 9.193c-.32.088-.556-.19-.888-.137a.314.314 0 0 1-.227-.034v.047l-.043-.036c-.058.045-.965.04-.996-.012a25.41 25.41 0 0 1-.055.057L7.56 9.03a8.682 8.682 0 0 0-.083.026l-.004-.013.082-.024-.525.032c-.02-.019-.135.065-.172-.055l-.028.05c-.07-.069-.101-.001-.143.038-.057-.02-.116-.039-.175-.058l-.006.02-.019-.004a.3.3 0 0 0-.013-.007l-.022.024c-.046-.072-.052-.014-.061.022-.062-.069-.119-.013-.181-.008a1.279 1.279 0 0 0-.019-.019h-.523l-.103-.057-.009.061c-.037-.01-.078-.023-.12-.032-.002 0-.01.019-.019.033l-.145-.02a7.336 7.336 0 0 1-.095-.028l-.08.086c.02-.071-.019-.067-.06-.071l.02.026-.067.032-.156-.048-.029.05-.07-.019c-.033-.096-.09.046-.148-.049.025.021.013.011 0 0-.04.07-.089.03-.14.022l.017.032c-.025.004-.049.008.003 0l-.232-.035c-.007.008-.018.051-.042-.006-.023.03-.043.087-.067.026H3.97a.409.409 0 0 1-.02-.022c-.054.071-.107.033-.17.015l-.096.034L3.668 9c-.059.127-.144-.006-.212.048l-.052-.04-.015.055h-.44l-.009-.031c-.05.041-.135-.025-.161.073-.04-.114-.155.058-.171-.06-.03-.02-.063.046-.075-.022l-.05.063c-.075-.02-.146-.039-.1-.026-.185-.024-.259.058-.329-.039-.028-.04-.032-.096-.054-.167.526-.18 1.07-.013 1.479-.08"/>
        <g transform="translate(9 16)">
            <mask id="d" fill="#fff">
                <use xlink:href="#c"/>
            </mask>
            <path fill="#FF5838" d="M20.975 9.43v-.008-.003c-.008-1.186-.12-2.437-.048-3.389.132-1.736-.223-3.785-.274-5.532-.005-.18-.232-.322-.51-.322-3.284-.002-6.983-.02-10.207 0-1.631.011-3.172.219-4.782.068C3.643.103 2.05.116.824.117.577.117.367.23.322.388.104 1.154.224 2.51.226 3.212c.002.982.165 1.924.092 2.89-.124 1.638-.467 4.087.121 5.73.052.145.254.25.487.252 2.14.025 4.848-.196 6.971-.064 2.262.14 4.54-.106 6.817.013 1.13.06 2.304.106 3.453.082.715.558 1.423 1.147 1.845 1.79.097.149.454.114.475-.045.113-.84.243-1.676.34-2.52.12-.57.153-1.228.148-1.91" mask="url(#d)"/>
        </g>
        <path fill="#000" d="M12.849 21.801c-.037-.029-.049.047-.08.003-.1.082-.226-.032-.312.07l.035-.076c-.097.07-.177.101-.251.066l-.202.032c.001.005-.006-.013-.016-.038-.039.14-.147-.041-.19.07l-.054-.057-.029.129.013-.188-.032.125-.034-.052a9.737 9.737 0 0 0-.042.064l-.03-.05a.147.147 0 0 0-.007.01l-.225-.022.009-.017c-.043.003-.087.005-.083-.076l-.027.05c-.05-.064-.165.057-.184-.083l-.087.064a6.907 6.907 0 0 0-.046-.086l-.033.043-.19-.01c-.034.048-.083.021-.131-.018l-.002.044-.063-.005a39.19 39.19 0 0 0-.053-.052l-.004.083-.024-.048c-.061.052-.131-.071-.189.018l.018-.14c-.069.167-.156.066-.219.129l.018-.061-.015.002-.088-.143.078-.083h.827c.305-.047.655.07 1.008.125l.3-.017c-.002.003.006-.02.001-.006l1.366-.133-.003.006c.719-.113 1.424-.062 2.125-.144h1.737c.115.068.307-.11.506.005.126-.026.281-.072.383-.046h.5c0-.007-.002-.013-.003-.02h.144a.77.77 0 0 0-.001-.01h.605c.094-.09.192-.045.286-.047.199-.009.401.005.565-.071.322.052.615-.055.92-.073a9.002 9.002 0 0 1-.012-.067l.04.055.307-.035.001.014h2.16l-.001.01.307-.025h.952l-.026.04c.193-.014.375-.06.562.01l.23.124c.084-.099.202.035.25-.048h.877v.008h.294l-.002.024c.033-.059.66-.003.717.057-.23.212-.23.212-.252.179-.143.103-.289.003-.447.032l-.02.03-.07-.055c-.099.093-.213-.015-.339.02a.975.975 0 0 1-.025-.026c-.056.082-.103.042-.15-.02l-.04.058c-.01-.013-.02-.025-.032-.043l-.014.07a2.235 2.235 0 0 0-.017-.04l-.142-.015-.022.048-.02-.074-.048.052h-.137c.008-.03-.004-.05-.039-.034-.014.005-.025.025-.038.039l-.011-.05-.03.04c-.004-.004-.01-.015-.01-.017h-.278l-.01.023c-.073-.042-.181.007-.222-.116-.027-.049-.104.055-.127-.049l-.28.05c.018-.01-.006.035-.033-.029l-.015.023-.29-.023c-.004.003-.05-.011-.03.05-.05-.039-.087-.084-.149-.042a6.975 6.975 0 0 1-.062-.064l.01.05a1.165 1.165 0 0 0-.035-.029l-.108.053-.05-.007-.007-.033-.074.051-.09-.038c-.013.014-.025.03-.055.066l.022-.06-.154.03c-.01-.103-.091.03-.121-.036-.022.038-.05.021-.09-.018l.026.067c-.054-.007-.103-.103-.158-.001l-.017-.062-.31.031a.403.403 0 0 1 .005-.026l-.172.038c0-.015.002-.032.005-.065l-.066.068a.695.695 0 0 0-.411.005c-.123-.065-.227-.022-.339.02l.017-.075-.087.044-.195-.034c-.007.04-.031.047-.067.004-.039.035-.076.066-.11.013-.018.016-.035.04-.054.042-.017.001-.036-.023-.067-.045l-.137.013.006-.05c-.086.078-.182.085-.3.087-.026.025-.066.019-.108-.033l-.032.04a4.264 4.264 0 0 0-.041-.032l-.09.095.02-.076c-.097.02-.198.04-.233.049l-.49.054c-.006-.006-.023-.028-.026-.026-.031.021-.091-.013-.09.07-.05-.023-.093-.068-.146-.017l.015-.104-.035.102-.109.023.026-.057a4.934 4.934 0 0 1-.063.06c-.045-.034-.092-.065-.128.01a3.618 3.618 0 0 0-.047-.028l-.203.011-.047-.027c-.038.026-.064.054-.094.062-.02.005-.047-.015-.056-.04-.006-.024-.008.065-.045-.004l-.079.064.009-.04c-.023.009-.046.018-.11.046l.082-.057-.366.044.003.032-.02.001-.003-.045.004-.027c-.05.024-.095.097-.154 0l.007.08-.06-.03-.058.034c.05-.042.034-.029.017-.015-.025-.046-.05-.048-.068.013-.032-.075-.11.04-.15-.166l.017.16-.164-.03.027.049c-.004.003-.008.007-.01.011l-.05-.083-.03.05c-.08.022-.17-.046-.249.032-.032-.056-.058-.015-.068-.002l-.202-.04a.707.707 0 0 0-.01-.009l-.11.073c-.056-.085-.174.045-.24-.072l-.074.037c-.143.055-.279-.01-.425-.024l-.004.03-.045-.04-.067.058v-.09l-.036.084-.046-.05-.072.108.001-.036a2.025 2.025 0 0 0 .02.005l-.28-.03c-.144.08-.293.037-.46.036a9.186 9.186 0 0 1-.09-.021l-.031.031c-.051-.057-.09 0-.137.019a2.457 2.457 0 0 1-.034-.043l-.476.034-.017.034-.025-.022h-.774l-.023.06-.008-.08-.014.022c-.173.074-.335-.042-.487.063-.065-.11-.16.102-.243-.012l-.289.087.08-.068-.103.048a1.528 1.528 0 0 0-.008-.033l-.345.035M21.886 20.076l.003.016-.488-.06a.186.186 0 0 1-.009-.014l-.014.012-.33-.015-.014-.025-.131.012v-.02l-.06.007-.073.081.046-.083-.082.036c0-.01.002-.017.003-.027h-.473a8.578 8.578 0 0 0-.093-.02c-.093-.066-.187.089-.27-.027-.039.049-.733.022-.787-.023-.1.067-.193.016-.288-.008l-.008.037a.112.112 0 0 1-.016-.017l-.2.012a.09.09 0 0 0-.01.011l-.035-.029c-.063.052-.118-.016-.192 0l-.03.028v-.014h-.458c.014.013.004.003-.007-.008-.019.007-.044.016-.076.03v-.049a2.036 2.036 0 0 0-.043.021l-.222.012.01.02c-.053-.075-.155.07-.2-.046l-.016.045a33.9 33.9 0 0 1-.087-.022 3.529 3.529 0 0 0-.033.035c-.014-.01-.022-.02-.03-.02-.09.012-.18.025-.267.043l-.18.026a.608.608 0 0 0-.007-.016c-.061.047-.12.03-.184.004-.019.024-.046.042-.053.037h-.307l-.022.012-.057-.04c-.183.064-.366.014-.57.027-.067.062-.157-.023-.255 0-.018.073-.092-.035-.125-.004l-.633.048v-.013l-.307.019.015-.024-.091.04c-.021-.091-.103.042-.133-.032-.038.04-.07.016-.108-.005l-.01.029c-.099-.09-.205.045-.288.002l-.096.015-.016-.053c-.044.106-.118.073-.196.052l-.004.027c-.042.015-.082-.079-.118.008-.038-.022-.074-.045-.1.009l-.095-.036-.243.022.005.035c-.074-.08-.137-.033-.202-.011h-.14l-.093.025.013-.039-.113.008v.045c-.042-.067-.078-.01-.12-.003.007-.011.01-.017.004-.006h-.723c-.082-.035-.197.016-.313.013l.02-.022-.046.012h-.392v.012l-.24-.012a.209.209 0 0 1-.165 0l.002.028-.114-.022-.031-.064.005.079c-.019-.016-.038-.026-.037-.032.003-.019.015-.036.012-.058l-.055.094.041-.158c.346-.056.691-.08 1.074-.043.024.03.106-.022.174.012l1.646-.076h.288l-.004-.017.34-.022-.003-.034h2.365l-.002-.032h.384c0-.037 1.715-.14 1.864-.1.042-.043 1.56-.002 1.597.03h.386c.024-.016 1.043.024 1.17.036l.412.037-.004.012h.343l-.001.003h1.18v-.032h2.792v-.032h1.877c.028.046.083.074.007.133.05-.019.075-.024.074.013-.033.005-.072.005-.07.042h-.23v-.012h-.724l.022-.014c-.174.013-.34.031-.487-.004l-.062.05.021-.043-.317.029.037-.022-.312.022c-.053-.05-.13.001-.203-.01h-.225c-.047.034-.103.025-.175-.007-.047.03-.111.041-.138.026h-.56a2.01 2.01 0 0 1-.015-.02c-.043.049-.091.026-.14.013l.002.007-.689.033.006.007h-.464l-.026.038v-.06c-.075.067-.148.024-.235.012l-.06.024a.324.324 0 0 1 .002-.018h-.563v.016l-.108.005.002-.01h-.403zM24.534 24.053l-.014.02c-.05-.001-.096-.068-.141-.001l-.037-.05a.48.48 0 0 1-.012.02l-.08.022-.003-.01.03-.009c0-.007-.003-.014-.005-.02l-.142.058c-.034-.032-.055-.112-.116-.037l-.022-.053c-.03.12-.123.04-.163.082-.115-.11-.255.014-.277-.002-.085-.04-.074-.036-.064-.03l-.003.011-.068-.025-.107.048-.044-.056c-.026.05-.763.057-.819.006a9.13 9.13 0 0 1-.035.075l.007-.067-.202.032-.004-.016c-.251-.05-.444.228-.706.142l-.011.037-.067-.046c-.04.048-.082.083-.138.032l-.018.03-.437-.033c.018-.003-.058.013-.112-.087l-.047.072a8.547 8.547 0 0 0-.06-.054 29.47 29.47 0 0 0-.155.022l-.003-.06-.115.041v-.033c-.07.075-.114-.002-.148-.024l-.02.02h-.699l.017-.02c-.137-.012-.29.044-.429-.061-.005-.033.015-.083-.042-.091l.075-.013-.098-.022c-.004-.062.044-.035.133-.067h.685c.075-.064.163.102.219-.013.192.003.368.071.555-.002v.038l.465.074c.177.076.38-.038.576-.03l.007-.045.064.022.183-.064c.258-.041.563-.076.816-.034.051-.018.067-.03.08-.027.016.003.03.02.048.033.063-.038.83-.031.837-.005h.293v-.006c.11-.006.223-.014.335-.017.105-.004.21-.001.314.045H28c-.085.132-.052.265-.164.257-.015-.001-.1.045-.098-.035l-.175.057-.03-.046-.067.007c-.017.1-.101-.034-.139.027l-.125-.037c-.057.044-.098.048-.166.013-.054-.028-.133.01-.212.019l-.013-.06a2.924 2.924 0 0 1-.044.04c-.051-.064-.122.08-.17-.048-.007.042-.012.062-.016.082l-.083-.035c-.043.02-.086.059-.13-.012a.348.348 0 0 0-.018.022h-.13c-.012.024-.034.031-.046-.008l-.056-.01c-.022.046-.065-.002-.105.004l-.006.04-.064-.01.018-.031c-.038-.003-.082.05-.114-.023l-.045.039-.033-.008c-.058.031-.089-.013-.09.061l-.034-.07c-.061-.004-.117.073-.185.014l.017-.032c-.029.01-.068-.006-.045.078l-.071-.093-.108.048c.013-.022.005-.008.003-.004h-.093c-.003-.004-.015-.028-.02-.026-.032.008-.061.023-.09.035 0-.013-.003-.037-.006-.063l-.09.056h-.423z"/>
    </g>
</svg>
